<?xml version="1.0" encoding="UTF-8"?><svg xmlns="http://www.w3.org/2000/svg" viewBox="0 0 125.67 200.36"><defs><style>.d{fill:#fff;stroke:#fff;stroke-miterlimit:10;}</style></defs><g id="a"/><g id="b"><g id="c"><path class="d" d="M35.08,166.79c-3.78-.35-7.25-.5-10.66-1.01-5.98-.9-10.58-4.06-13.63-9.29-1.26-2.15-2.21-4.49-3.25-6.76-.61-1.32-1.16-2.67-1.67-4.04-.71-1.87-1.78-3.13-4.02-2.84-.3,.04-.65-.32-.98-.5,.3-.25,.56-.6,.91-.75,1.71-.73,3.51-1.27,5.14-2.13,3.3-1.74,6.5-3.68,9.77-5.49,6.67-3.69,13.45-7.11,21.33-7.99-1.24-3.01,.09-5.53,1.21-8.12,1.03-2.37,1.95-4.78,2.86-7.19,.29-.75,.09-1.35-.78-1.74-1.28-.57-2-1.58-2.18-3.06-.22-1.79-1.26-3.07-2.76-3.7-.38,.94-.53,2.05-1.16,2.65-.67,.63-1.78,.83-2.74,1.09-2.65,.73-5.33,.55-7.99,.1-.55-.09-1.04-.6-1.77-1.05-.4,.21-1.11,.61-1.85,.96-1.69,.79-3.17,.45-4.51-.81-3.75-3.54-3.44-9.61,.65-13.19,2.67-2.33,5.84-2.78,9.22-2.51,8.24,.67,15.28,6.78,17.04,14.85,.22,1.02,.33,2.07,.36,3.11,.03,.83,.39,1.13,1.16,1.15,2.78,.07,5.24-.38,6.64-3.25,.85-1.74,2.4-2.57,4.37-2.49,.91,.03,1.82,.08,2.73,.11,2.36,.09,3.45-.75,3.3-3.07-.2-3.03-.47-6.1-1.22-9.03-1.74-6.74-3.86-13.37-5.68-20.09-1.52-5.6-2.36-11.31-2.36-17.13-.01-17.68,7.77-30.89,22.86-39.91,6.48-3.87,13.65-5.99,20.8-8.15,8.17-2.47,16.49-4.22,25.01-4.88,3.32-.26,3.53-.49,3.48,3.08-.17,10.71-3.9,20.09-9.77,28.8-.2,.29-.37,.6-.77,1.28,2.49-.4,4.65-.72,6.81-1.1,1.07-.19,2.13-.51,3.2-.69,.29-.05,.71,.11,.92,.32,.11,.11-.02,.64-.2,.82-2.39,2.44-4.74,4.92-7.25,7.23-.97,.9-2.3,1.43-3.51,2.16,.46,2,1.04,4.06,1.39,6.15,1.91,11.48,.78,22.63-3.37,33.55-5.2,13.7-11.74,26.76-18.75,39.59-8.97,16.44-18.5,32.55-28.94,48.11-3.52,5.25-7.47,10.22-11.48,15.1-3.48,4.24-7.52,8-12.38,10.63-8.81,4.78-18.06,5.63-27.36,1.73-5.94-2.49-10.13-6.94-11.54-13.46-.87-4.01,.51-7.38,3.61-10,3.43-2.9,7.56-4.22,11.92-4.63,2.87-.27,5.8-.05,8.69,.15,3.32,.23,6.27-.52,9.13-2.66ZM123.39,2.08c-1.21,0-2.25-.08-3.28,.01-8.46,.78-16.71,2.62-24.82,5.12-7.01,2.16-14.01,4.34-20.31,8.26-10.29,6.4-17.33,15.21-19.94,27.2-2,9.18-1.22,18.31,1.15,27.31,1.65,6.29,3.7,12.48,5.34,18.77,.86,3.29,1.39,6.68,1.75,10.06,.26,2.4-.28,4.7-3.19,5.45-.2,.05-.36,.26-.53,.4-2.01,1.72-4.3,2.67-6.98,2.62-.32,0-.74,.09-.94,.3-1.94,2.03-4.39,2.47-7.02,2.25-.77-.06-1,.16-1.2,.87-.52,1.82-1.1,3.64-1.79,5.4-.63,1.61-1.53,3.11-2.16,4.71-1.42,3.64-.7,4.85,3.09,5.4,2.4,.35,4.69,1.14,7.25,.67,5.26-.97,9.65,1.48,11.83,6.33,1.43,3.19,1.67,6.48-.15,9.58-.71,1.2-.97,2.23-1,3.65-.17,6.45-2.58,11.88-8.15,15.55-4.24,2.79-9,4.07-13.99,4.65-.67,.08-1.4,.37-1.92,.8-3.06,2.53-6.5,3.71-10.5,3.32-2.26-.22-4.55-.42-6.81-.29-4.23,.25-8.29,1.27-11.86,3.69-4.11,2.79-5.48,6.99-3.63,11.6,2.08,5.16,5.77,8.95,11.01,10.75,10.85,3.72,20.92,2.03,29.93-5.18,6.18-4.94,11.16-11,15.62-17.47,12.24-17.76,23.11-36.36,33.39-55.3,6.65-12.25,12.81-24.73,17.67-37.84,4.25-11.49,4.96-23.15,2.31-35.05-.62-2.78-.68-2.77-3.55-2.92-.14,0-.29,.03-.41-.03-2.39-1.11-3.91,.2-5.53,1.75-5.02,4.81-11.06,6.95-18.03,6.77-7.99-.21-15.68-2.08-23.39-3.85-1.07-.25-1.11-.74-.21-1.61,2.8-2.67,5.6-5.34,8.4-8l-.35-.4c-2.64,.81-5.17,1.84-7.44,3.47-.38,.28-.94,.31-1.42,.46,.09-.52,.03-1.14,.29-1.56,2.27-3.78,5.65-6.25,9.6-8.02,7.61-3.4,15.6-4.23,23.79-3.21,4.7,.59,9.19,1.89,12.97,4.96,1.49,1.2,3.72,1,4.72-.65,2.25-3.74,4.52-7.48,6.5-11.37,3.08-6.03,3.53-12.64,3.86-19.39ZM7.13,144.49l-.33,.28c1.74,3.74,3.28,7.59,5.28,11.19,2.57,4.62,6.67,7.47,11.9,8.33,3.49,.57,7.05,.68,10.58,1.02,2.38,.22,3.35-.82,2.86-3.22-.28-1.38-.75-2.71-1.11-4.08-1-3.81-1.68-7.6,1.37-11.06-.46-.04-.72-.06-.98-.08-3.26-.25-6.53-.52-9.79-.75-2.94-.2-5.94-.77-8.82-.43-3.81,.45-7.42,.4-10.95-1.21ZM63.9,46.33c3.25,.71,6.07,1.37,8.92,1.94,6.22,1.24,12.47,2.1,18.84,1.21,5.58-.79,9.64-4.15,13.95-8.15-4.81-1.99-9.2-4.07-13.77-5.64-4.84-1.67-9.82-.72-14.73,.09-.98,.16-2.05,.29-2.86,.79-3.99,2.5-6.78,6.27-10.36,9.76ZM5.5,141.81c2.62,.61,4.91,1.19,7.22,1.67,3.21,.66,6.27,.34,9.29-1.12,2.43-1.18,5.03-2.06,7.63-2.83,2.24-.66,4.48-.4,6.62,.74,1.07,.57,2.27,.94,3.46,1.23,.77,.19,1.67,.22,2.42-.01,.35-.11,.42-1.01,.68-1.51,.38-.73,.81-1.42,1.22-2.13,.81-1.42,1.7-2.81,2.38-4.3,.42-.92,.73-2.02,.65-3.01-.06-.7-.75-1.8-1.34-1.93-2.46-.55-5-1.11-7.5-1.08-2.27,.02-4.6,.59-6.8,1.26-9.28,2.83-17.19,8.43-25.92,13.02Zm33.58,23.34c-.26-.08-.14-.01,0,0,.23,.01,.46,.02,.68-.02,4.27-.79,8.45-1.86,12.09-4.37,4.97-3.43,7.04-8.38,7.33-14.23,.06-1.18-.4-1.58-1.61-1.54-1.16,.04-2.45,0-3.46-.47-1.67-.78-3.25-.64-4.91-.24-.97,.23-1.97,.37-2.92,.68-1.49,.49-2.89,1.28-4.41,1.6-3.12,.67-5.11,2.63-4.96,5.8,.1,2.28,.77,4.54,1.17,6.81,.33,1.89,.64,3.79,1.01,5.99Zm2.65-57.36l.46-.22c0-.58,.05-1.16,0-1.73-.99-9.22-10.97-16.63-20.11-14.95-4.47,.82-7.49,4.95-6.85,9.36,.61,4.24,3.44,5.61,7,3.39,.31-.19,.62-.38,.93-.58,2.4-1.58,5.01-2.57,7.87-2.88,4.21-.46,8.95,.69,9.65,6.06,.07,.55,.7,1.03,1.06,1.54Zm6.3,20.77c1.04,2.31,.31,4.36-.73,6.32-.85,1.61-1.84,3.14-2.74,4.72-.26,.44-.45,.93-.77,1.61,.59-.11,.93-.09,1.19-.23,2.35-1.33,4.43-.65,6.51,.72,.55,.36,1.35,.38,2.05,.49,1.65,.25,3.35,.29,4.93,.76,.93,.27,1.36,.1,1.78-.59,1.09-1.8,1.35-3.77,1-5.79-1.12-6.47-6.3-9.66-13.21-8.01Zm17.41-90.91c2.68-.84,5.52-1.73,8.36-2.63,.21-.07,.43-.15,.62-.27,4.1-2.67,8.68-2.86,13.3-2.33,4.19,.48,8.34,1.36,12.54,1.84,2.19,.25,4.43,.04,6.8,.04-9.7-7.74-34.17-5.75-41.62,3.35Zm-22.47,106.91l.17-.74c-.42-.25-.81-.62-1.26-.74-2.04-.55-4.11-1-6.16-1.54-.87-.23-1.69-.83-2.56-.87-4.11-.19-7.82,1.09-11.24,3.52,5.35,.58,10.69,1.02,16.04,1.22,1.65,.06,3.33-.54,5-.84ZM122.16,33.95c-3.21,.47-6.04,.8-8.83,1.32-1.4,.26-1.86,1.73-1.17,3.01,.3,.56,.66,1.11,.85,1.7,.35,1.11,.95,1.06,1.85,.63,2.96-1.44,4.84-4.03,7.31-6.66Zm-27.66,.84c2.97,1.43,5.76,2.81,8.58,4.12,4.23,1.97,2.67,2.15,5.97-1.14,.75-.75,.52-1.32-.16-1.77-.4-.27-1-.3-1.51-.31-2.27-.04-4.54,.08-6.8-.07-1.98-.13-3.94-.53-6.07-.84ZM25.6,104.61c2.86,.58,5.63,.5,8.34-.51,1.03-.38,1.05-1.07,.35-1.76-.36-.36-.92-.73-1.4-.73-2.81,0-5.27,.96-7.29,3Zm24.47,38.07c-1.74-1.83-3.44-.88-5.11-.23-.29,.11-.47,.51-.71,.77,.35,.18,.73,.56,1.04,.5,1.59-.28,3.16-.68,4.77-1.04ZM107.79,41.11l4.52,.44-1.75-3.44-2.76,2.99ZM53.58,106.08c1.33-.49,2.66-.97,3.98-1.46l-.13-.34c-1.5,.03-2.98,.12-3.86,1.8Z"/></g></g></svg>