<?xml version="1.0" encoding="UTF-8"?><svg xmlns="http://www.w3.org/2000/svg" viewBox="0 0 357.9 171.27"><defs><style>.d{letter-spacing:-.03em;}.e{font-family:Montserrat-Medium, Montserrat;font-size:40.08px;}.e,.f{fill:#ff3894;}.g{fill:#35063a;}</style></defs><g id="a"/><g id="b"><g id="c"><g><path class="g" d="M73.59,156.89c.94,.79,1.41,1.88,1.41,3.26s-.47,2.47-1.41,3.25c-.94,.79-2.24,1.18-3.9,1.18h-3.49v4.1h-1.37v-12.98h4.86c1.66,0,2.96,.4,3.9,1.19Zm-.98,5.65c.68-.56,1.02-1.36,1.02-2.38s-.34-1.86-1.02-2.42c-.68-.56-1.66-.84-2.95-.84h-3.45v6.49h3.45c1.29,0,2.27-.28,2.95-.84Z"/><path class="g" d="M89,167.5v1.19h-9.18v-12.98h8.9v1.19h-7.53v4.62h6.71v1.17h-6.71v4.82h7.81Z"/><path class="g" d="M94.08,155.7h1.37v11.8h7.27v1.19h-8.64v-12.98Z"/><path class="g" d="M107.92,167.35c-.94-.96-1.41-2.37-1.41-4.21v-7.44h1.37v7.38c0,1.51,.34,2.63,1.02,3.38,.68,.74,1.66,1.11,2.95,1.11s2.29-.37,2.97-1.11c.68-.74,1.02-1.87,1.02-3.38v-7.38h1.34v7.44c0,1.84-.47,3.25-1.4,4.21-.93,.96-2.24,1.45-3.92,1.45s-2.99-.48-3.93-1.45Z"/><path class="g" d="M136.24,169.78c-.4,.48-.86,.85-1.4,1.1-.54,.25-1.12,.38-1.75,.38-.77,0-1.49-.19-2.18-.57-.69-.38-1.46-1.01-2.31-1.9-1.25-.04-2.37-.35-3.38-.93-1-.58-1.79-1.37-2.36-2.35s-.85-2.1-.85-3.32,.29-2.37,.88-3.38c.59-1,1.4-1.79,2.45-2.37,1.04-.57,2.21-.86,3.5-.86s2.44,.29,3.48,.85,1.85,1.36,2.44,2.36c.59,1.01,.89,2.14,.89,3.38,0,1.09-.23,2.09-.68,3-.45,.91-1.08,1.67-1.89,2.27-.81,.61-1.74,1.01-2.79,1.21,.95,1,1.89,1.5,2.82,1.5s1.79-.4,2.47-1.19l.67,.8Zm-12.16-4.84c.48,.82,1.13,1.46,1.97,1.93s1.76,.71,2.79,.71,1.95-.24,2.78-.71c.83-.47,1.48-1.11,1.95-1.93,.47-.82,.7-1.73,.7-2.75s-.23-1.93-.7-2.75c-.47-.82-1.12-1.46-1.95-1.93-.83-.47-1.76-.7-2.78-.7s-1.96,.23-2.79,.7c-.83,.47-1.49,1.11-1.97,1.93-.48,.82-.71,1.73-.71,2.75s.24,1.93,.71,2.75Z"/><path class="g" d="M141.87,167.35c-.94-.96-1.41-2.37-1.41-4.21v-7.44h1.37v7.38c0,1.51,.34,2.63,1.02,3.38,.68,.74,1.66,1.11,2.95,1.11s2.29-.37,2.97-1.11c.68-.74,1.02-1.87,1.02-3.38v-7.38h1.34v7.44c0,1.84-.47,3.25-1.4,4.21-.93,.96-2.24,1.45-3.92,1.45s-2.99-.48-3.93-1.45Z"/><path class="g" d="M166.3,167.5v1.19h-9.18v-12.98h8.9v1.19h-7.53v4.62h6.71v1.17h-6.71v4.82h7.81Z"/><path class="g" d="M180.25,168.69l-2.97-4.17c-.33,.04-.68,.06-1.04,.06h-3.49v4.12h-1.37v-12.98h4.86c1.66,0,2.96,.4,3.9,1.19,.94,.79,1.41,1.88,1.41,3.26,0,1.01-.26,1.87-.77,2.57-.51,.7-1.25,1.2-2.2,1.51l3.17,4.45h-1.5Zm-1.09-6.14c.68-.57,1.02-1.37,1.02-2.39s-.34-1.86-1.02-2.42c-.68-.56-1.66-.84-2.95-.84h-3.45v6.51h3.45c1.29,0,2.27-.29,2.95-.85Z"/><path class="g" d="M188.66,152.35h1.76l-3,2.3h-1.3l2.54-2.3Zm-2.02,3.36h1.37v12.98h-1.37v-12.98Z"/><path class="g" d="M202.24,165.22h-7.23l-1.56,3.47h-1.43l5.93-12.98h1.35l5.93,12.98h-1.45l-1.56-3.47Zm-.5-1.11l-3.12-6.97-3.12,6.97h6.23Z"/><path class="g" d="M225.26,168.89l-1.8-1.85c-1.1,1.17-2.55,1.76-4.34,1.76-.84,0-1.59-.14-2.25-.42-.66-.28-1.18-.67-1.55-1.17-.37-.5-.56-1.07-.56-1.71,0-.78,.25-1.48,.74-2.1s1.34-1.27,2.52-1.95c-.62-.64-1.04-1.19-1.28-1.64s-.35-.93-.35-1.44c0-.83,.3-1.5,.89-2,.59-.51,1.39-.76,2.39-.76,.93,0,1.66,.23,2.21,.69s.82,1.09,.82,1.89c0,.64-.22,1.22-.65,1.73-.43,.51-1.18,1.08-2.24,1.7l3.56,3.67c.4-.71,.69-1.54,.87-2.5l1.08,.33c-.23,1.16-.62,2.16-1.15,2.99l1.85,1.91-.76,.87Zm-2.58-2.65l-3.91-4.02c-1.03,.58-1.73,1.11-2.12,1.58-.39,.47-.58,1-.58,1.58,0,.7,.29,1.27,.86,1.7,.58,.43,1.33,.64,2.27,.64,1.43,0,2.6-.49,3.49-1.46Zm-4.52-9.16c-.36,.32-.55,.75-.55,1.28,0,.38,.1,.75,.3,1.09,.2,.35,.59,.82,1.17,1.41,.94-.54,1.59-1.01,1.95-1.39,.36-.38,.54-.8,.54-1.26,0-.49-.17-.89-.5-1.18-.33-.29-.8-.44-1.39-.44-.64,0-1.15,.16-1.51,.48Z"/><path class="g" d="M237.75,168.33c-.88-.31-1.57-.72-2.05-1.22l.54-1.06c.47,.47,1.09,.85,1.87,1.14,.78,.29,1.58,.44,2.41,.44,1.16,0,2.03-.21,2.61-.64,.58-.43,.87-.98,.87-1.66,0-.52-.16-.93-.47-1.24-.32-.31-.7-.55-1.16-.71-.46-.17-1.09-.35-1.91-.55-.98-.25-1.76-.49-2.34-.71-.58-.23-1.08-.58-1.49-1.05s-.62-1.11-.62-1.91c0-.66,.17-1.25,.52-1.79s.88-.97,1.6-1.29c.72-.32,1.61-.48,2.67-.48,.74,0,1.47,.1,2.18,.31s1.33,.49,1.85,.84l-.46,1.09c-.54-.36-1.13-.63-1.74-.81-.62-.18-1.22-.27-1.82-.27-1.14,0-1.99,.22-2.57,.66-.58,.44-.86,1-.86,1.7,0,.52,.16,.94,.47,1.25,.32,.32,.71,.56,1.19,.72,.48,.17,1.12,.35,1.92,.55,.95,.24,1.72,.47,2.31,.7,.59,.23,1.08,.57,1.49,1.04,.41,.46,.61,1.09,.61,1.88,0,.66-.18,1.25-.53,1.79-.35,.54-.89,.96-1.62,1.28s-1.63,.47-2.69,.47c-.96,0-1.89-.15-2.77-.46Z"/><path class="g" d="M258.95,156.89c.94,.79,1.41,1.88,1.41,3.26s-.47,2.47-1.41,3.25c-.94,.79-2.24,1.18-3.9,1.18h-3.49v4.1h-1.37v-12.98h4.86c1.66,0,2.96,.4,3.9,1.19Zm-.98,5.65c.68-.56,1.02-1.36,1.02-2.38s-.34-1.86-1.02-2.42c-.68-.56-1.66-.84-2.95-.84h-3.45v6.49h3.45c1.29,0,2.27-.28,2.95-.84Z"/><path class="g" d="M272.68,165.22h-7.23l-1.56,3.47h-1.43l5.93-12.98h1.35l5.93,12.98h-1.45l-1.56-3.47Zm-.5-1.11l-3.12-6.97-3.12,6.97h6.23Z"/></g><g><path class="g" d="M19.44,26.15H10.73v-3.16H31.75v3.16h-8.71v22.25h-3.59V26.15Z"/><path class="g" d="M35.71,22.99h3.63v25.41h-3.63V22.99Z"/><path class="g" d="M65.95,45.24v3.16h-21.24v-2.47l15.97-19.79h-15.72v-3.16h20.51v2.47l-15.9,19.79h16.37Z"/><path class="g" d="M75.06,47c-2.06-1.13-3.67-2.68-4.85-4.67-1.17-1.98-1.76-4.2-1.76-6.64s.59-4.66,1.76-6.64c1.17-1.98,2.79-3.54,4.85-4.67,2.06-1.12,4.37-1.69,6.93-1.69s4.84,.56,6.9,1.69c2.06,1.13,3.67,2.67,4.83,4.65,1.16,1.97,1.74,4.19,1.74,6.66s-.58,4.69-1.74,6.66c-1.16,1.97-2.77,3.52-4.83,4.65-2.06,1.12-4.36,1.69-6.9,1.69s-4.88-.56-6.93-1.69Zm11.96-2.81c1.49-.85,2.66-2.01,3.52-3.5,.86-1.49,1.29-3.15,1.29-4.99s-.43-3.5-1.29-4.99c-.86-1.49-2.03-2.66-3.52-3.5-1.49-.85-3.17-1.27-5.03-1.27s-3.55,.42-5.06,1.27c-1.51,.85-2.7,2.01-3.56,3.5-.86,1.49-1.29,3.15-1.29,4.99s.43,3.5,1.29,4.99c.86,1.49,2.04,2.66,3.56,3.5,1.51,.85,3.2,1.27,5.06,1.27s3.54-.42,5.03-1.27Z"/><path class="g" d="M102.53,21.95c.45,.47,.67,1.06,.67,1.76,0,.36-.04,.72-.11,1.07-.07,.35-.23,.85-.47,1.51l-1.74,5.08h-2.29l1.34-5.41c-.46-.17-.83-.45-1.11-.85-.28-.4-.42-.87-.42-1.4,0-.73,.23-1.32,.69-1.78,.46-.46,1.04-.69,1.74-.69s1.24,.24,1.69,.71Z"/><path class="g" d="M110.95,47.8c-1.78-.59-3.18-1.36-4.19-2.31l1.34-2.83c.97,.87,2.21,1.58,3.72,2.12,1.51,.54,3.07,.82,4.67,.82,2.11,0,3.68-.36,4.72-1.07s1.56-1.66,1.56-2.85c0-.87-.29-1.58-.85-2.12-.57-.54-1.27-.96-2.11-1.25-.83-.29-2.02-.62-3.54-.98-1.91-.46-3.46-.92-4.63-1.38-1.17-.46-2.18-1.17-3.01-2.12-.83-.96-1.25-2.24-1.25-3.87,0-1.36,.36-2.58,1.07-3.67,.71-1.09,1.8-1.96,3.25-2.61,1.45-.65,3.25-.98,5.41-.98,1.5,0,2.98,.19,4.43,.58,1.45,.39,2.7,.94,3.74,1.67l-1.2,2.9c-1.06-.68-2.2-1.19-3.41-1.54-1.21-.35-2.4-.53-3.56-.53-2.06,0-3.6,.38-4.63,1.12-1.03,.75-1.54,1.72-1.54,2.9,0,.87,.29,1.58,.87,2.12,.58,.54,1.3,.97,2.16,1.27,.86,.3,2.03,.62,3.5,.96,1.91,.46,3.45,.92,4.61,1.38,1.16,.46,2.16,1.16,3,2.11,.83,.94,1.25,2.21,1.25,3.81,0,1.33-.36,2.55-1.09,3.65-.73,1.1-1.83,1.97-3.3,2.61-1.48,.64-3.29,.96-5.45,.96-1.91,0-3.76-.3-5.54-.89Z"/></g><text class="e" transform="translate(144.63 122.28)"><tspan class="d" x="0" y="0">F</tspan><tspan x="24.17" y="0">ASHION</tspan></text><polygon class="f" points="357.9 138.85 65.55 138.85 196.85 1.69 0 1.69 0 0 200.81 0 69.5 137.17 357.9 137.17 357.9 138.85"/><path class="g" d="M341.24,78.22c.56,.32,1,.76,1.32,1.32s.48,1.18,.48,1.86-.16,1.31-.49,1.87c-.33,.57-.77,1.01-1.34,1.34-.56,.33-1.19,.49-1.87,.49s-1.3-.16-1.86-.49c-.56-.33-1-.77-1.33-1.34-.32-.56-.49-1.18-.49-1.86s.16-1.29,.49-1.86c.32-.56,.77-1.01,1.33-1.34,.56-.33,1.19-.49,1.88-.49s1.31,.16,1.88,.48Zm-.27,5.99c.49-.29,.87-.67,1.15-1.17,.28-.5,.42-1.04,.42-1.64s-.14-1.14-.41-1.63-.65-.87-1.14-1.15c-.48-.28-1.03-.42-1.63-.42s-1.14,.14-1.63,.43c-.49,.29-.88,.67-1.15,1.16-.28,.49-.42,1.03-.42,1.62s.14,1.13,.42,1.62c.28,.49,.66,.88,1.15,1.16,.49,.29,1.03,.43,1.62,.43s1.14-.14,1.63-.43Zm.03-2.65c-.15,.22-.37,.38-.65,.48l.95,1.47h-.72l-.87-1.34h-1.14v1.34h-.71v-4.18h1.67c.52,0,.93,.13,1.24,.39,.3,.26,.45,.6,.45,1.03,0,.31-.08,.58-.23,.8Zm-.74-.19c.18-.15,.28-.35,.28-.62s-.09-.47-.28-.61-.44-.21-.78-.21h-.92v1.66h.92c.33,0,.59-.07,.78-.22Z"/></g></g></svg>