<?xml version="1.0" encoding="UTF-8"?><svg xmlns="http://www.w3.org/2000/svg" viewBox="0 0 306.73 119.92"><defs><style>.d{fill:#ff3894;}.e{fill:#35063a;}</style></defs><g id="a"/><g id="b"><g id="c"><g><path class="e" d="M135.78,108.65c.58,.48,.87,1.15,.87,2s-.29,1.51-.87,2-1.38,.72-2.39,.72h-1.93v2.37h-1.12v-7.81h3.05c1.01,0,1.81,.24,2.39,.72Zm-.8,3.3c.37-.3,.56-.73,.56-1.3s-.19-1-.56-1.3c-.37-.3-.91-.45-1.62-.45h-1.9v3.5h1.9c.71,0,1.25-.15,1.62-.45Z"/><path class="e" d="M145.07,114.76v.97h-5.67v-7.81h5.51v.97h-4.4v2.4h3.92v.95h-3.92v2.52h4.55Z"/><path class="e" d="M148,107.92h1.12v6.84h4.23v.97h-5.34v-7.81Z"/><path class="e" d="M156.41,114.93c-.58-.6-.87-1.45-.87-2.57v-4.44h1.12v4.39c0,1.67,.73,2.51,2.2,2.51,.71,0,1.26-.21,1.64-.62,.38-.41,.57-1.04,.57-1.89v-4.39h1.08v4.44c0,1.12-.29,1.98-.87,2.57-.58,.59-1.39,.89-2.43,.89s-1.85-.3-2.43-.89Z"/><path class="e" d="M173.59,116.44c-.25,.3-.55,.52-.88,.68-.33,.16-.7,.23-1.08,.23-.49,0-.95-.12-1.38-.35-.43-.23-.92-.63-1.47-1.2-.74-.04-1.4-.23-1.99-.59-.59-.36-1.05-.83-1.38-1.42s-.5-1.25-.5-1.97,.18-1.43,.54-2.04c.36-.61,.86-1.09,1.49-1.43,.63-.35,1.34-.52,2.13-.52s1.49,.17,2.12,.52c.63,.35,1.13,.82,1.48,1.43,.36,.61,.54,1.29,.54,2.05,0,.64-.13,1.23-.39,1.76-.26,.54-.62,.99-1.08,1.35s-1,.62-1.6,.76c.26,.27,.51,.47,.75,.6s.49,.18,.74,.18c.55,0,1.03-.22,1.43-.67l.52,.64Zm-7.17-3.08c.26,.46,.63,.82,1.09,1.08s.98,.39,1.56,.39,1.08-.13,1.54-.39c.46-.26,.82-.62,1.09-1.08,.26-.46,.4-.97,.4-1.53s-.13-1.08-.4-1.53c-.26-.46-.63-.82-1.09-1.08-.46-.26-.97-.39-1.54-.39s-1.09,.13-1.56,.39c-.46,.26-.83,.62-1.09,1.08-.26,.46-.4,.97-.4,1.53s.13,1.08,.4,1.53Z"/><path class="e" d="M176.83,114.93c-.58-.6-.87-1.45-.87-2.57v-4.44h1.12v4.39c0,1.67,.73,2.51,2.2,2.51,.71,0,1.26-.21,1.64-.62,.38-.41,.57-1.04,.57-1.89v-4.39h1.08v4.44c0,1.12-.29,1.98-.87,2.57-.58,.59-1.39,.89-2.43,.89s-1.85-.3-2.43-.89Z"/><path class="e" d="M191.64,114.76v.97h-5.67v-7.81h5.51v.97h-4.4v2.4h3.92v.95h-3.92v2.52h4.55Z"/><path class="e" d="M199.78,115.73l-1.68-2.4c-.21,.01-.37,.02-.49,.02h-1.93v2.38h-1.12v-7.81h3.05c1.01,0,1.81,.24,2.39,.72s.87,1.15,.87,2c0,.6-.15,1.12-.45,1.54s-.72,.73-1.27,.93l1.85,2.62h-1.22Zm-.59-3.78c.37-.3,.56-.74,.56-1.3s-.19-1-.56-1.3c-.37-.3-.91-.45-1.62-.45h-1.9v3.51h1.9c.71,0,1.25-.15,1.62-.46Z"/><path class="e" d="M205.02,105.83h1.36l-1.87,1.45h-1l1.52-1.45Zm-1.24,2.09h1.12v7.81h-1.12v-7.81Z"/><path class="e" d="M213.33,113.78h-4.15l-.86,1.95h-1.15l3.54-7.81h1.1l3.55,7.81h-1.17l-.86-1.95Zm-.39-.89l-1.68-3.83-1.68,3.83h3.37Z"/><path class="e" d="M227.47,115.85l-1.04-1.04c-.69,.67-1.56,1-2.61,1-.52,0-.99-.08-1.41-.26s-.74-.41-.98-.72-.35-.66-.35-1.05c0-.48,.15-.9,.44-1.27,.29-.37,.78-.75,1.46-1.13-.34-.34-.58-.65-.73-.93-.14-.27-.21-.56-.21-.86,0-.53,.19-.95,.57-1.27,.38-.32,.89-.48,1.53-.48,.59,0,1.07,.15,1.42,.44s.52,.69,.52,1.19c0,.39-.13,.75-.38,1.06-.26,.31-.68,.64-1.28,.98l1.93,1.92c.22-.42,.38-.9,.48-1.42l.86,.28c-.13,.68-.36,1.28-.68,1.79l1.05,1.05-.6,.71Zm-1.67-1.66l-2.22-2.21c-.54,.3-.91,.57-1.12,.83s-.32,.54-.32,.86c0,.37,.16,.67,.49,.9,.32,.23,.75,.35,1.27,.35,.77,0,1.41-.25,1.91-.74Zm-2.46-5.29c-.2,.17-.3,.4-.3,.69,0,.2,.05,.39,.16,.58,.11,.19,.32,.44,.63,.76,.51-.29,.87-.54,1.07-.75,.2-.21,.3-.43,.3-.68,0-.26-.09-.47-.27-.62s-.44-.23-.76-.23c-.35,0-.62,.09-.82,.26Z"/><path class="e" d="M235.22,115.55c-.55-.18-.98-.42-1.29-.71l.41-.87c.3,.27,.68,.49,1.14,.65,.46,.17,.94,.25,1.43,.25,.65,0,1.13-.11,1.45-.33,.32-.22,.48-.51,.48-.88,0-.27-.09-.49-.26-.65-.17-.17-.39-.29-.65-.38-.26-.09-.62-.19-1.09-.3-.59-.14-1.06-.28-1.42-.42-.36-.14-.67-.36-.93-.65-.26-.29-.38-.69-.38-1.19,0-.42,.11-.79,.33-1.13s.55-.6,1-.8c.45-.2,1-.3,1.66-.3,.46,0,.91,.06,1.36,.18s.83,.29,1.15,.51l-.37,.89c-.33-.21-.68-.37-1.05-.47-.37-.11-.74-.16-1.09-.16-.63,0-1.11,.12-1.42,.35-.32,.23-.47,.53-.47,.89,0,.27,.09,.49,.27,.65,.18,.17,.4,.3,.66,.39,.26,.09,.62,.19,1.08,.3,.59,.14,1.06,.28,1.42,.42,.36,.14,.66,.36,.92,.65,.26,.29,.38,.68,.38,1.17,0,.41-.11,.78-.33,1.12-.22,.34-.56,.61-1.02,.8-.45,.2-1.01,.29-1.67,.29-.59,0-1.15-.09-1.7-.27Z"/><path class="e" d="M248.12,108.65c.58,.48,.87,1.15,.87,2s-.29,1.51-.87,2-1.38,.72-2.39,.72h-1.93v2.37h-1.12v-7.81h3.05c1.01,0,1.81,.24,2.39,.72Zm-.8,3.3c.37-.3,.56-.73,.56-1.3s-.19-1-.56-1.3c-.37-.3-.91-.45-1.62-.45h-1.9v3.5h1.9c.71,0,1.25-.15,1.62-.45Z"/><path class="e" d="M256.33,113.78h-4.15l-.86,1.95h-1.15l3.54-7.81h1.1l3.55,7.81h-1.17l-.86-1.95Zm-.39-.89l-1.68-3.83-1.68,3.83h3.37Z"/></g><path class="e" d="M20.57,100.02c-2.27-.21-4.36-.3-6.41-.61-3.6-.54-6.37-2.44-8.2-5.59-.75-1.3-1.33-2.7-1.95-4.07-.37-.8-.7-1.61-1-2.43-.42-1.13-1.07-1.89-2.42-1.71-.18,.02-.39-.2-.59-.3,.18-.15,.34-.36,.54-.45,1.03-.44,2.11-.76,3.09-1.28,1.99-1.05,3.91-2.21,5.87-3.3,4.01-2.22,8.09-4.28,12.83-4.81-.75-1.81,.05-3.32,.73-4.88,.62-1.42,1.17-2.87,1.72-4.32,.17-.45,.06-.81-.47-1.05-.77-.34-1.2-.95-1.31-1.84-.13-1.08-.76-1.85-1.66-2.23-.23,.56-.32,1.23-.7,1.59-.4,.38-1.07,.5-1.65,.66-1.59,.44-3.21,.33-4.81,.06-.33-.06-.62-.36-1.06-.63-.24,.12-.67,.37-1.11,.58-1.01,.48-1.91,.27-2.71-.49-2.25-2.13-2.07-5.78,.39-7.93,1.61-1.4,3.51-1.67,5.54-1.51,4.96,.4,9.19,4.08,10.25,8.93,.13,.61,.2,1.25,.22,1.87,.02,.5,.24,.68,.7,.69,1.67,.04,3.15-.23,3.99-1.96,.51-1.04,1.44-1.54,2.63-1.5,.55,.02,1.09,.05,1.64,.07,1.42,.05,2.08-.45,1.99-1.85-.12-1.82-.28-3.67-.74-5.43-1.04-4.05-2.32-8.04-3.42-12.09-.91-3.37-1.42-6.8-1.42-10.3,0-10.63,4.67-18.58,13.75-24.01,3.9-2.33,8.21-3.6,12.51-4.9,4.91-1.48,9.92-2.54,15.04-2.93,2-.15,2.13-.29,2.09,1.85-.1,6.44-2.34,12.08-5.87,17.33-.12,.18-.22,.36-.46,.77,1.5-.24,2.8-.43,4.1-.66,.65-.11,1.28-.3,1.93-.41,.18-.03,.43,.06,.55,.19,.06,.06-.01,.38-.12,.49-1.44,1.47-2.85,2.96-4.36,4.35-.59,.54-1.38,.86-2.11,1.3,.28,1.2,.63,2.44,.84,3.7,1.15,6.91,.47,13.61-2.03,20.18-3.13,8.24-7.06,16.09-11.28,23.82-5.4,9.89-11.13,19.58-17.4,28.94-2.12,3.16-4.49,6.15-6.91,9.09-2.09,2.55-4.53,4.81-7.45,6.39-5.3,2.87-10.86,3.39-16.46,1.04-3.58-1.5-6.09-4.17-6.94-8.1-.52-2.41,.31-4.44,2.17-6.02,2.06-1.74,4.55-2.54,7.17-2.78,1.73-.16,3.49-.03,5.23,.09,2,.14,3.77-.31,5.49-1.6ZM73.69,.95c-.73,0-1.35-.05-1.97,0-5.09,.47-10.05,1.58-14.93,3.08-4.22,1.3-8.43,2.61-12.21,4.97-6.19,3.85-10.42,9.15-12,16.36-1.21,5.52-.73,11.01,.69,16.43,1,3.78,2.22,7.51,3.21,11.29,.52,1.98,.84,4.02,1.05,6.05,.15,1.45-.17,2.83-1.92,3.28-.12,.03-.22,.15-.32,.24-1.21,1.03-2.59,1.61-4.2,1.58-.19,0-.45,.05-.57,.18-1.17,1.22-2.64,1.48-4.22,1.35-.46-.04-.6,.1-.72,.52-.32,1.1-.66,2.19-1.08,3.25-.38,.97-.92,1.87-1.3,2.84-.85,2.19-.42,2.92,1.86,3.25,1.44,.21,2.82,.69,4.36,.4,3.17-.58,5.81,.89,7.11,3.81,.86,1.92,1,3.9-.09,5.76-.43,.72-.58,1.34-.6,2.19-.1,3.88-1.55,7.15-4.9,9.35-2.55,1.68-5.41,2.45-8.41,2.8-.4,.05-.84,.22-1.15,.48-1.84,1.52-3.91,2.23-6.32,2-1.36-.13-2.74-.25-4.09-.18-2.54,.15-4.98,.76-7.13,2.22-2.47,1.68-3.3,4.2-2.18,6.98,1.25,3.11,3.47,5.38,6.62,6.47,6.52,2.24,12.58,1.22,18-3.11,3.72-2.97,6.71-6.62,9.4-10.51,7.37-10.68,13.9-21.87,20.08-33.26,4-7.37,7.71-14.88,10.63-22.76,2.56-6.91,2.98-13.92,1.39-21.08-.37-1.67-.41-1.67-2.13-1.76-.08,0-.18,.02-.24-.02-1.44-.67-2.35,.12-3.33,1.05-3.02,2.89-6.65,4.18-10.84,4.07-4.8-.12-9.43-1.25-14.07-2.32-.64-.15-.67-.45-.12-.97,1.68-1.61,3.37-3.21,5.05-4.81l-.21-.24c-1.59,.49-3.11,1.1-4.47,2.09-.23,.17-.57,.19-.85,.27,.05-.32,.02-.68,.17-.94,1.36-2.27,3.4-3.76,5.77-4.82,4.58-2.04,9.38-2.55,14.31-1.93,2.83,.35,5.53,1.14,7.8,2.98,.89,.72,2.24,.6,2.84-.39,1.36-2.25,2.72-4.5,3.91-6.84,1.85-3.62,2.12-7.6,2.32-11.66ZM3.76,86.61l-.2,.17c1.05,2.25,1.98,4.57,3.18,6.73,1.54,2.78,4.01,4.5,7.16,5.01,2.1,.35,4.24,.41,6.37,.61,1.43,.13,2.02-.49,1.72-1.94-.17-.83-.45-1.63-.67-2.45-.6-2.29-1.01-4.57,.82-6.65-.28-.02-.43-.04-.59-.05-1.96-.15-3.93-.31-5.89-.45-1.77-.12-3.57-.46-5.31-.26-2.29,.27-4.47,.24-6.59-.73ZM37.91,27.57c1.95,.43,3.65,.83,5.36,1.17,3.74,.75,7.5,1.27,11.33,.73,3.36-.47,5.8-2.5,8.39-4.9-2.89-1.2-5.54-2.45-8.28-3.39-2.91-1-5.91-.43-8.86,.05-.59,.1-1.23,.17-1.72,.48-2.4,1.5-4.08,3.77-6.23,5.87ZM2.78,85c1.57,.37,2.95,.72,4.34,1,1.93,.4,3.77,.21,5.59-.68,1.46-.71,3.03-1.24,4.59-1.7,1.35-.4,2.69-.24,3.98,.45,.64,.34,1.37,.57,2.08,.74,.46,.11,1.01,.13,1.45,0,.21-.06,.25-.6,.41-.91,.23-.44,.49-.85,.73-1.28,.49-.86,1.02-1.69,1.43-2.58,.25-.56,.44-1.22,.39-1.81-.03-.42-.45-1.08-.8-1.16-1.48-.33-3.01-.67-4.51-.65-1.37,.01-2.77,.36-4.09,.76-5.58,1.7-10.34,5.07-15.59,7.83Zm20.2,14.04c-.16-.05-.08,0,0,0,.14,0,.28,.01,.41-.01,2.57-.47,5.08-1.12,7.27-2.63,2.99-2.06,4.23-5.04,4.41-8.56,.04-.71-.24-.95-.97-.93-.7,.02-1.47,0-2.08-.28-1.01-.47-1.95-.38-2.95-.15-.58,.14-1.19,.22-1.76,.41-.89,.29-1.74,.77-2.65,.97-1.88,.4-3.07,1.58-2.99,3.49,.06,1.37,.46,2.73,.7,4.1,.2,1.14,.38,2.28,.61,3.61Zm1.59-34.5l.28-.13c0-.35,.03-.7,0-1.04-.6-5.55-6.6-10-12.1-8.99-2.69,.49-4.51,2.98-4.12,5.63,.37,2.55,2.07,3.37,4.21,2.04,.19-.12,.37-.23,.56-.35,1.44-.95,3.02-1.55,4.73-1.73,2.53-.28,5.38,.41,5.81,3.64,.04,.33,.42,.62,.64,.93Zm3.79,12.49c.62,1.39,.19,2.62-.44,3.8-.51,.97-1.1,1.89-1.65,2.84-.15,.27-.27,.56-.46,.97,.36-.07,.56-.05,.71-.14,1.42-.8,2.67-.39,3.91,.43,.33,.22,.81,.23,1.23,.29,.99,.15,2.01,.18,2.96,.46,.56,.16,.82,.06,1.07-.35,.66-1.08,.81-2.27,.6-3.48-.67-3.89-3.79-5.81-7.94-4.82Zm10.47-54.68c1.61-.51,3.32-1.04,5.03-1.58,.13-.04,.26-.09,.37-.16,2.47-1.6,5.22-1.72,8-1.4,2.52,.29,5.02,.82,7.54,1.11,1.32,.15,2.67,.03,4.09,.03-5.84-4.65-20.55-3.46-25.03,2.02Zm-13.51,64.31l.1-.45c-.25-.15-.49-.37-.76-.45-1.23-.33-2.47-.6-3.7-.93-.52-.14-1.02-.5-1.54-.52-2.47-.12-4.71,.66-6.76,2.12,3.22,.35,6.43,.61,9.65,.73,.99,.04,2-.32,3.01-.5ZM72.95,20.12c-1.93,.28-3.63,.48-5.31,.8-.84,.16-1.12,1.04-.71,1.81,.18,.34,.4,.66,.51,1.02,.21,.67,.57,.64,1.11,.38,1.78-.87,2.91-2.42,4.4-4Zm-16.64,.51c1.78,.86,3.46,1.69,5.16,2.48,2.55,1.19,1.6,1.29,3.59-.68,.45-.45,.31-.79-.09-1.06-.24-.16-.6-.18-.91-.19-1.36-.02-2.73,.05-4.09-.04-1.19-.08-2.37-.32-3.65-.51ZM14.87,62.62c1.72,.35,3.39,.3,5.01-.31,.62-.23,.63-.65,.21-1.06-.22-.22-.56-.44-.84-.44-1.69,0-3.17,.58-4.39,1.8Zm14.72,22.9c-1.05-1.1-2.07-.53-3.07-.14-.18,.07-.29,.3-.43,.46,.21,.11,.44,.33,.63,.3,.96-.17,1.9-.41,2.87-.63ZM64.31,24.43l2.72,.27-1.05-2.07-1.66,1.8ZM31.7,63.51l2.4-.88-.08-.2c-.9,.02-1.79,.07-2.32,1.08Z"/><g><path class="e" d="M103.15,29.99h-5.24v-1.9h12.64v1.9h-5.24v13.39h-2.16v-13.39Z"/><path class="e" d="M112.93,28.09h2.18v15.29h-2.18v-15.29Z"/><path class="e" d="M131.12,41.48v1.9h-12.78v-1.49l9.61-11.9h-9.46v-1.9h12.34v1.49l-9.57,11.9h9.85Z"/><path class="e" d="M136.6,42.54c-1.24-.68-2.21-1.61-2.92-2.81-.71-1.19-1.06-2.53-1.06-4s.35-2.8,1.06-4c.71-1.19,1.68-2.13,2.92-2.81,1.24-.68,2.63-1.01,4.17-1.01s2.91,.34,4.15,1.01c1.24,.68,2.21,1.61,2.9,2.8s1.05,2.52,1.05,4.01-.35,2.82-1.05,4.01-1.67,2.12-2.9,2.79c-1.24,.68-2.62,1.02-4.15,1.02s-2.93-.34-4.17-1.02Zm7.2-1.69c.9-.51,1.6-1.21,2.12-2.11,.52-.9,.77-1.9,.77-3s-.26-2.11-.77-3c-.52-.89-1.22-1.6-2.12-2.11-.9-.51-1.9-.76-3.02-.76s-2.14,.25-3.05,.76c-.91,.51-1.62,1.21-2.14,2.11-.52,.9-.78,1.9-.78,3s.26,2.11,.78,3c.52,.9,1.23,1.6,2.14,2.11,.91,.51,1.93,.76,3.05,.76s2.13-.25,3.02-.76Z"/><path class="e" d="M153.12,27.47c.27,.28,.4,.64,.4,1.06,0,.22-.02,.43-.07,.64-.04,.21-.14,.51-.28,.91l-1.05,3.06h-1.38l.81-3.25c-.28-.1-.5-.27-.67-.51s-.25-.52-.25-.84c0-.44,.14-.79,.42-1.07,.28-.28,.63-.42,1.05-.42s.75,.14,1.02,.43Z"/><path class="e" d="M158.19,43.02c-1.07-.36-1.91-.82-2.52-1.39l.81-1.7c.58,.52,1.33,.95,2.24,1.28,.91,.33,1.85,.49,2.81,.49,1.27,0,2.21-.21,2.84-.64,.63-.43,.94-1,.94-1.71,0-.52-.17-.95-.51-1.28-.34-.33-.76-.58-1.27-.75-.5-.17-1.21-.37-2.13-.59-1.15-.28-2.08-.55-2.78-.83s-1.31-.7-1.81-1.28-.75-1.35-.75-2.33c0-.82,.21-1.55,.64-2.21,.43-.65,1.08-1.18,1.95-1.57,.87-.39,1.96-.59,3.25-.59,.9,0,1.79,.12,2.66,.35,.87,.23,1.62,.57,2.25,1l-.72,1.75c-.64-.41-1.32-.72-2.05-.93s-1.44-.32-2.14-.32c-1.24,0-2.17,.23-2.78,.68-.62,.45-.93,1.03-.93,1.75,0,.52,.17,.95,.52,1.28,.35,.33,.78,.58,1.3,.76,.52,.18,1.22,.38,2.11,.58,1.15,.28,2.07,.55,2.77,.83,.7,.28,1.3,.7,1.8,1.27,.5,.57,.75,1.33,.75,2.29,0,.8-.22,1.53-.65,2.19-.44,.66-1.1,1.19-1.99,1.57-.89,.39-1.98,.58-3.28,.58-1.15,0-2.26-.18-3.33-.54Z"/></g><g><path class="d" d="M183.39,73.03v5.88h8.46v2.07h-8.46v6.82h-2.41v-16.88h11.91v2.1h-9.5Z"/><path class="d" d="M206.27,83.59h-8.97l-1.86,4.22h-2.48l7.64-16.88h2.39l7.67,16.88h-2.53l-1.86-4.22Zm-.84-1.93l-3.64-8.27-3.64,8.27h7.28Z"/><path class="d" d="M214.41,87.42c-1.18-.39-2.11-.9-2.78-1.53l.89-1.88c.64,.58,1.47,1.05,2.47,1.41,1,.36,2.04,.54,3.1,.54,1.4,0,2.44-.24,3.13-.71,.69-.47,1.04-1.11,1.04-1.89,0-.58-.19-1.05-.57-1.41-.38-.36-.84-.64-1.4-.83-.55-.19-1.34-.41-2.35-.65-1.27-.31-2.29-.61-3.07-.92-.78-.31-1.45-.78-2-1.41-.55-.63-.83-1.49-.83-2.57,0-.9,.24-1.71,.71-2.44,.47-.72,1.19-1.3,2.16-1.74,.96-.43,2.16-.65,3.59-.65,1,0,1.98,.13,2.94,.39s1.79,.63,2.48,1.11l-.8,1.93c-.71-.45-1.46-.79-2.27-1.03-.8-.23-1.59-.35-2.36-.35-1.37,0-2.39,.25-3.07,.75-.68,.5-1.02,1.14-1.02,1.93,0,.58,.19,1.05,.58,1.41,.39,.36,.86,.64,1.43,.84,.57,.2,1.35,.41,2.33,.64,1.27,.31,2.29,.61,3.06,.92,.77,.31,1.44,.77,1.99,1.4,.55,.63,.83,1.47,.83,2.53,0,.88-.24,1.69-.72,2.42-.48,.73-1.21,1.31-2.19,1.74-.98,.43-2.19,.64-3.62,.64-1.27,0-2.5-.2-3.68-.59Z"/><path class="d" d="M242.65,70.94v16.88h-2.41v-7.52h-9.69v7.52h-2.41v-16.88h2.41v7.26h9.69v-7.26h2.41Z"/><path class="d" d="M247.72,70.94h2.41v16.88h-2.41v-16.88Z"/><path class="d" d="M258.21,86.89c-1.37-.75-2.44-1.78-3.22-3.1-.78-1.32-1.17-2.79-1.17-4.41s.39-3.09,1.17-4.41c.78-1.32,1.85-2.35,3.22-3.1,1.37-.75,2.9-1.12,4.61-1.12s3.21,.37,4.58,1.12c1.37,.75,2.44,1.78,3.21,3.09,.77,1.31,1.16,2.79,1.16,4.42s-.39,3.11-1.16,4.42c-.77,1.31-1.84,2.34-3.21,3.09-1.37,.75-2.89,1.12-4.58,1.12s-3.24-.37-4.61-1.12Zm7.95-1.87c.99-.56,1.77-1.34,2.34-2.33,.57-.99,.86-2.09,.86-3.31s-.29-2.33-.86-3.32-1.35-1.76-2.34-2.33c-.99-.56-2.1-.84-3.34-.84s-2.36,.28-3.36,.84c-1.01,.56-1.79,1.34-2.36,2.33s-.86,2.09-.86,3.32,.29,2.33,.86,3.31c.57,.99,1.36,1.76,2.36,2.33,1,.56,2.12,.84,3.36,.84s2.35-.28,3.34-.84Z"/><path class="d" d="M289.96,70.94v16.88h-1.98l-10.13-12.59v12.59h-2.41v-16.88h1.98l10.13,12.59v-12.59h2.41Z"/></g><polygon class="d" points="306.73 97.78 130.88 97.78 209.86 15.28 91.45 15.28 91.45 14.26 212.24 14.26 133.26 96.77 306.73 96.77 306.73 97.78"/><path class="e" d="M296.71,61.31c.34,.19,.6,.46,.79,.79,.19,.34,.29,.71,.29,1.12s-.1,.79-.29,1.13c-.2,.34-.46,.61-.8,.81-.34,.2-.71,.29-1.12,.29s-.78-.1-1.12-.29-.6-.46-.8-.8c-.2-.34-.29-.71-.29-1.12s.1-.78,.29-1.12c.19-.34,.46-.61,.8-.8,.34-.2,.72-.29,1.13-.29s.79,.1,1.13,.29Zm-.16,3.61c.29-.17,.52-.41,.69-.7,.17-.3,.25-.63,.25-.99s-.08-.69-.25-.98c-.17-.29-.39-.52-.68-.69-.29-.17-.62-.25-.98-.25s-.69,.09-.98,.26c-.29,.17-.53,.41-.69,.7-.17,.3-.25,.62-.25,.98s.08,.68,.25,.98c.17,.29,.4,.53,.69,.7s.62,.26,.97,.26,.69-.09,.98-.26Zm.02-1.6c-.09,.13-.22,.23-.39,.29l.57,.89h-.43l-.52-.8h-.68v.8h-.43v-2.51h1c.31,0,.56,.08,.75,.23,.18,.16,.27,.36,.27,.62,0,.19-.05,.35-.14,.48Zm-.44-.11c.11-.09,.17-.21,.17-.37s-.06-.28-.17-.37c-.11-.09-.27-.13-.47-.13h-.55v1h.55c.2,0,.36-.04,.47-.13Z"/></g></g></svg>