<?xml version="1.0" encoding="UTF-8"?><svg xmlns="http://www.w3.org/2000/svg" viewBox="0 0 306.73 119.92"><defs><style>.d{fill:#fff;}</style></defs><g id="a"/><g id="b"><g id="c"><g><path class="d" d="M135.71,108.63c.57,.48,.85,1.13,.85,1.96s-.28,1.49-.85,1.96c-.57,.47-1.35,.71-2.34,.71h-2.1v2.47h-.82v-7.81h2.92c1,0,1.78,.24,2.34,.71Zm-.59,3.4c.41-.34,.61-.82,.61-1.43s-.21-1.12-.61-1.46c-.41-.34-1-.51-1.77-.51h-2.08v3.9h2.08c.77,0,1.36-.17,1.77-.51Z"/><path class="d" d="M144.99,115.02v.71h-5.52v-7.81h5.35v.71h-4.53v2.78h4.04v.7h-4.04v2.9h4.7Z"/><path class="d" d="M148.04,107.92h.83v7.09h4.37v.71h-5.2v-7.81Z"/><path class="d" d="M156.36,114.93c-.57-.58-.85-1.42-.85-2.53v-4.47h.83v4.44c0,.91,.21,1.58,.61,2.03s1,.67,1.77,.67,1.38-.22,1.79-.67,.61-1.12,.61-2.03v-4.44h.8v4.47c0,1.11-.28,1.95-.84,2.53s-1.35,.87-2.36,.87-1.8-.29-2.36-.87Z"/><path class="d" d="M173.4,116.39c-.24,.29-.52,.51-.84,.66-.32,.15-.67,.23-1.05,.23-.46,0-.9-.11-1.31-.34-.41-.23-.88-.61-1.39-1.14-.75-.02-1.43-.21-2.03-.56-.6-.35-1.08-.82-1.42-1.42-.34-.6-.51-1.26-.51-2s.18-1.43,.53-2.03c.35-.6,.84-1.08,1.47-1.42,.63-.35,1.33-.52,2.1-.52s1.47,.17,2.09,.51c.62,.34,1.11,.82,1.47,1.42s.54,1.29,.54,2.04c0,.65-.14,1.25-.41,1.8-.27,.55-.65,1-1.14,1.37s-1.05,.61-1.68,.73c.57,.6,1.14,.9,1.7,.9s1.07-.24,1.48-.71l.4,.48Zm-7.31-2.91c.29,.49,.68,.88,1.18,1.16,.5,.28,1.06,.42,1.68,.42s1.17-.14,1.67-.42c.5-.28,.89-.67,1.17-1.16,.28-.49,.42-1.04,.42-1.65s-.14-1.16-.42-1.65c-.28-.49-.67-.88-1.17-1.16-.5-.28-1.06-.42-1.67-.42s-1.18,.14-1.68,.42c-.5,.28-.9,.67-1.18,1.16-.29,.49-.43,1.04-.43,1.65s.14,1.16,.43,1.65Z"/><path class="d" d="M176.79,114.93c-.57-.58-.85-1.42-.85-2.53v-4.47h.83v4.44c0,.91,.21,1.58,.61,2.03s1,.67,1.77,.67,1.38-.22,1.79-.67,.61-1.12,.61-2.03v-4.44h.8v4.47c0,1.11-.28,1.95-.84,2.53s-1.35,.87-2.36,.87-1.8-.29-2.36-.87Z"/><path class="d" d="M191.48,115.02v.71h-5.52v-7.81h5.35v.71h-4.53v2.78h4.04v.7h-4.04v2.9h4.7Z"/><path class="d" d="M199.87,115.73l-1.79-2.51c-.2,.02-.41,.03-.62,.03h-2.1v2.48h-.83v-7.81h2.92c1,0,1.78,.24,2.34,.71,.56,.48,.85,1.13,.85,1.96,0,.61-.15,1.12-.46,1.54-.31,.42-.75,.72-1.32,.91l1.91,2.68h-.9Zm-.66-3.69c.41-.34,.61-.82,.61-1.44s-.2-1.12-.61-1.46c-.41-.34-1-.51-1.77-.51h-2.08v3.92h2.08c.77,0,1.36-.17,1.77-.51Z"/><path class="d" d="M204.93,105.9h1.06l-1.81,1.38h-.78l1.53-1.38Zm-1.21,2.02h.82v7.81h-.82v-7.81Z"/><path class="d" d="M213.1,113.64h-4.35l-.94,2.09h-.86l3.57-7.81h.81l3.57,7.81h-.87l-.94-2.09Zm-.3-.67l-1.88-4.19-1.87,4.19h3.75Z"/><path class="d" d="M226.94,115.85l-1.08-1.12c-.66,.71-1.53,1.06-2.61,1.06-.5,0-.96-.08-1.35-.25-.4-.17-.71-.4-.93-.7-.22-.3-.34-.65-.34-1.03,0-.47,.15-.89,.45-1.26,.3-.37,.8-.76,1.52-1.17-.37-.39-.63-.72-.77-.99s-.21-.56-.21-.86c0-.5,.18-.9,.54-1.21,.36-.3,.84-.46,1.44-.46,.56,0,1,.14,1.33,.41,.33,.28,.49,.65,.49,1.14,0,.39-.13,.74-.39,1.04-.26,.31-.71,.65-1.35,1.02l2.14,2.21c.24-.42,.41-.93,.52-1.51l.65,.2c-.14,.7-.37,1.3-.69,1.8l1.12,1.15-.46,.52Zm-1.55-1.6l-2.35-2.42c-.62,.35-1.04,.67-1.28,.95-.23,.28-.35,.6-.35,.95,0,.42,.17,.76,.52,1.02,.35,.26,.8,.39,1.37,.39,.86,0,1.56-.29,2.1-.88Zm-2.72-5.51c-.22,.19-.33,.45-.33,.77,0,.23,.06,.45,.18,.66,.12,.21,.35,.49,.7,.85,.57-.33,.96-.61,1.17-.84,.21-.23,.32-.48,.32-.76,0-.3-.1-.53-.3-.71-.2-.17-.48-.26-.84-.26-.39,0-.69,.1-.91,.29Z"/><path class="d" d="M234.46,115.52c-.53-.19-.94-.43-1.23-.74l.32-.64c.28,.28,.66,.51,1.13,.69,.47,.17,.95,.26,1.45,.26,.7,0,1.22-.13,1.57-.38s.52-.59,.52-1c0-.31-.09-.56-.28-.75s-.42-.33-.7-.43-.66-.21-1.15-.33c-.59-.15-1.06-.29-1.41-.43-.35-.14-.65-.35-.9-.63-.25-.28-.37-.67-.37-1.15,0-.39,.1-.75,.31-1.08,.21-.32,.53-.58,.96-.78s.97-.29,1.61-.29c.45,0,.88,.06,1.31,.18,.43,.12,.8,.29,1.11,.51l-.28,.66c-.33-.21-.68-.38-1.05-.49-.37-.11-.74-.16-1.09-.16-.68,0-1.2,.13-1.55,.4-.35,.26-.52,.6-.52,1.02,0,.31,.09,.56,.28,.75s.43,.33,.71,.43c.29,.1,.67,.21,1.15,.33,.57,.14,1.04,.28,1.39,.42s.65,.35,.9,.62c.25,.28,.37,.66,.37,1.13,0,.39-.11,.75-.32,1.08-.21,.32-.54,.58-.98,.77-.44,.19-.98,.29-1.62,.29-.58,0-1.14-.09-1.67-.28Z"/><path class="d" d="M247.21,108.63c.56,.48,.85,1.13,.85,1.96s-.28,1.49-.85,1.96c-.57,.47-1.35,.71-2.34,.71h-2.1v2.47h-.83v-7.81h2.92c1,0,1.78,.24,2.34,.71Zm-.59,3.4c.41-.34,.61-.82,.61-1.43s-.2-1.12-.61-1.46c-.41-.34-1-.51-1.77-.51h-2.07v3.9h2.07c.77,0,1.37-.17,1.77-.51Z"/><path class="d" d="M255.47,113.64h-4.35l-.94,2.09h-.86l3.57-7.81h.81l3.57,7.81h-.87l-.94-2.09Zm-.3-.67l-1.87-4.19-1.88,4.19h3.75Z"/></g><path class="d" d="M20.57,100.02c-2.27-.21-4.36-.3-6.41-.61-3.6-.54-6.37-2.44-8.2-5.59-.75-1.3-1.33-2.7-1.95-4.07-.37-.8-.7-1.61-1-2.43-.42-1.13-1.07-1.89-2.42-1.71-.18,.02-.39-.2-.59-.3,.18-.15,.34-.36,.54-.45,1.03-.44,2.11-.76,3.09-1.28,1.99-1.05,3.91-2.21,5.87-3.3,4.01-2.22,8.09-4.28,12.83-4.81-.75-1.81,.05-3.32,.73-4.88,.62-1.42,1.17-2.87,1.72-4.32,.17-.45,.06-.81-.47-1.05-.77-.34-1.2-.95-1.31-1.84-.13-1.08-.76-1.85-1.66-2.23-.23,.56-.32,1.23-.7,1.59-.4,.38-1.07,.5-1.65,.66-1.59,.44-3.21,.33-4.81,.06-.33-.06-.62-.36-1.06-.63-.24,.12-.67,.37-1.11,.58-1.01,.48-1.91,.27-2.71-.49-2.25-2.13-2.07-5.78,.39-7.93,1.61-1.4,3.51-1.67,5.54-1.51,4.96,.4,9.19,4.08,10.25,8.93,.13,.61,.2,1.25,.22,1.87,.02,.5,.24,.68,.7,.69,1.67,.04,3.15-.23,3.99-1.96,.51-1.04,1.44-1.54,2.63-1.5,.55,.02,1.09,.05,1.64,.07,1.42,.05,2.08-.45,1.99-1.85-.12-1.82-.28-3.67-.74-5.43-1.04-4.05-2.32-8.04-3.42-12.09-.91-3.37-1.42-6.8-1.42-10.3,0-10.63,4.67-18.58,13.75-24.01,3.9-2.33,8.21-3.6,12.51-4.9,4.91-1.48,9.92-2.54,15.04-2.93,2-.15,2.13-.29,2.09,1.85-.1,6.44-2.34,12.08-5.87,17.33-.12,.18-.22,.36-.46,.77,1.5-.24,2.8-.43,4.1-.66,.65-.11,1.28-.3,1.93-.41,.18-.03,.43,.06,.55,.19,.06,.06-.01,.38-.12,.49-1.44,1.47-2.85,2.96-4.36,4.35-.59,.54-1.38,.86-2.11,1.3,.28,1.2,.63,2.44,.84,3.7,1.15,6.91,.47,13.61-2.03,20.18-3.13,8.24-7.06,16.09-11.28,23.82-5.4,9.89-11.13,19.58-17.4,28.94-2.12,3.16-4.49,6.15-6.91,9.09-2.09,2.55-4.53,4.81-7.45,6.39-5.3,2.87-10.86,3.39-16.46,1.04-3.58-1.5-6.09-4.17-6.94-8.1-.52-2.41,.31-4.44,2.17-6.02,2.06-1.74,4.55-2.54,7.17-2.78,1.73-.16,3.49-.03,5.23,.09,2,.14,3.77-.31,5.49-1.6ZM73.69,.95c-.73,0-1.35-.05-1.97,0-5.09,.47-10.05,1.58-14.93,3.08-4.22,1.3-8.43,2.61-12.21,4.97-6.19,3.85-10.42,9.15-12,16.36-1.21,5.52-.73,11.01,.69,16.43,1,3.78,2.22,7.51,3.21,11.29,.52,1.98,.84,4.02,1.05,6.05,.15,1.45-.17,2.83-1.92,3.28-.12,.03-.22,.15-.32,.24-1.21,1.03-2.59,1.61-4.2,1.58-.19,0-.45,.05-.57,.18-1.17,1.22-2.64,1.48-4.22,1.35-.46-.04-.6,.1-.72,.52-.32,1.1-.66,2.19-1.08,3.25-.38,.97-.92,1.87-1.3,2.84-.85,2.19-.42,2.92,1.86,3.25,1.44,.21,2.82,.69,4.36,.4,3.17-.58,5.81,.89,7.11,3.81,.86,1.92,1,3.9-.09,5.76-.43,.72-.58,1.34-.6,2.19-.1,3.88-1.55,7.15-4.9,9.35-2.55,1.68-5.41,2.45-8.41,2.8-.4,.05-.84,.22-1.15,.48-1.84,1.52-3.91,2.23-6.32,2-1.36-.13-2.74-.25-4.09-.18-2.54,.15-4.98,.76-7.13,2.22-2.47,1.68-3.3,4.2-2.18,6.98,1.25,3.11,3.47,5.38,6.62,6.47,6.52,2.24,12.58,1.22,18-3.11,3.72-2.97,6.71-6.62,9.4-10.51,7.37-10.68,13.9-21.87,20.08-33.26,4-7.37,7.71-14.88,10.63-22.76,2.56-6.91,2.98-13.92,1.39-21.08-.37-1.67-.41-1.67-2.13-1.76-.08,0-.18,.02-.24-.02-1.44-.67-2.35,.12-3.33,1.05-3.02,2.89-6.65,4.18-10.84,4.07-4.8-.12-9.43-1.25-14.07-2.32-.64-.15-.67-.45-.12-.97,1.68-1.61,3.37-3.21,5.05-4.81l-.21-.24c-1.59,.49-3.11,1.1-4.47,2.09-.23,.17-.57,.19-.85,.27,.05-.32,.02-.68,.17-.94,1.36-2.27,3.4-3.76,5.77-4.82,4.58-2.04,9.38-2.55,14.31-1.93,2.83,.35,5.53,1.14,7.8,2.98,.89,.72,2.24,.6,2.84-.39,1.36-2.25,2.72-4.5,3.91-6.84,1.85-3.62,2.12-7.6,2.32-11.66ZM3.76,86.61l-.2,.17c1.05,2.25,1.98,4.57,3.18,6.73,1.54,2.78,4.01,4.5,7.16,5.01,2.1,.35,4.24,.41,6.37,.61,1.43,.13,2.02-.49,1.72-1.94-.17-.83-.45-1.63-.67-2.45-.6-2.29-1.01-4.57,.82-6.65-.28-.02-.43-.04-.59-.05-1.96-.15-3.93-.31-5.89-.45-1.77-.12-3.57-.46-5.31-.26-2.29,.27-4.47,.24-6.59-.73ZM37.91,27.57c1.95,.43,3.65,.83,5.36,1.17,3.74,.75,7.5,1.27,11.33,.73,3.36-.47,5.8-2.5,8.39-4.9-2.89-1.2-5.54-2.45-8.28-3.39-2.91-1-5.91-.43-8.86,.05-.59,.1-1.23,.17-1.72,.48-2.4,1.5-4.08,3.77-6.23,5.87ZM2.78,85c1.57,.37,2.95,.72,4.34,1,1.93,.4,3.77,.21,5.59-.68,1.46-.71,3.03-1.24,4.59-1.7,1.35-.4,2.69-.24,3.98,.45,.64,.34,1.37,.57,2.08,.74,.46,.11,1.01,.13,1.45,0,.21-.06,.25-.6,.41-.91,.23-.44,.49-.85,.73-1.28,.49-.86,1.02-1.69,1.43-2.58,.25-.56,.44-1.22,.39-1.81-.03-.42-.45-1.08-.8-1.16-1.48-.33-3.01-.67-4.51-.65-1.37,.01-2.77,.36-4.09,.76-5.58,1.7-10.34,5.07-15.59,7.83Zm20.2,14.04c-.16-.05-.08,0,0,0,.14,0,.28,.01,.41-.01,2.57-.47,5.08-1.12,7.27-2.63,2.99-2.06,4.23-5.04,4.41-8.56,.04-.71-.24-.95-.97-.93-.7,.02-1.47,0-2.08-.28-1.01-.47-1.95-.38-2.95-.15-.58,.14-1.19,.22-1.76,.41-.89,.29-1.74,.77-2.65,.97-1.88,.4-3.07,1.58-2.99,3.49,.06,1.37,.46,2.73,.7,4.1,.2,1.14,.38,2.28,.61,3.61Zm1.59-34.5l.28-.13c0-.35,.03-.7,0-1.04-.6-5.55-6.6-10-12.1-8.99-2.69,.49-4.51,2.98-4.12,5.63,.37,2.55,2.07,3.37,4.21,2.04,.19-.12,.37-.23,.56-.35,1.44-.95,3.02-1.55,4.73-1.73,2.53-.28,5.38,.41,5.81,3.64,.04,.33,.42,.62,.64,.93Zm3.79,12.49c.62,1.39,.19,2.62-.44,3.8-.51,.97-1.1,1.89-1.65,2.84-.15,.27-.27,.56-.46,.97,.36-.07,.56-.05,.71-.14,1.42-.8,2.67-.39,3.91,.43,.33,.22,.81,.23,1.23,.29,.99,.15,2.01,.18,2.96,.46,.56,.16,.82,.06,1.07-.35,.66-1.08,.81-2.27,.6-3.48-.67-3.89-3.79-5.81-7.94-4.82Zm10.47-54.68c1.61-.51,3.32-1.04,5.03-1.58,.13-.04,.26-.09,.37-.16,2.47-1.6,5.22-1.72,8-1.4,2.52,.29,5.02,.82,7.54,1.11,1.32,.15,2.67,.03,4.09,.03-5.84-4.65-20.55-3.46-25.03,2.02Zm-13.51,64.31l.1-.45c-.25-.15-.49-.37-.76-.45-1.23-.33-2.47-.6-3.7-.93-.52-.14-1.02-.5-1.54-.52-2.47-.12-4.71,.66-6.76,2.12,3.22,.35,6.43,.61,9.65,.73,.99,.04,2-.32,3.01-.5ZM72.95,20.12c-1.93,.28-3.63,.48-5.31,.8-.84,.16-1.12,1.04-.71,1.81,.18,.34,.4,.66,.51,1.02,.21,.67,.57,.64,1.11,.38,1.78-.87,2.91-2.42,4.4-4Zm-16.64,.51c1.78,.86,3.46,1.69,5.16,2.48,2.55,1.19,1.6,1.29,3.59-.68,.45-.45,.31-.79-.09-1.06-.24-.16-.6-.18-.91-.19-1.36-.02-2.73,.05-4.09-.04-1.19-.08-2.37-.32-3.65-.51ZM14.87,62.62c1.72,.35,3.39,.3,5.01-.31,.62-.23,.63-.65,.21-1.06-.22-.22-.56-.44-.84-.44-1.69,0-3.17,.58-4.39,1.8Zm14.72,22.9c-1.05-1.1-2.07-.53-3.07-.14-.18,.07-.29,.3-.43,.46,.21,.11,.44,.33,.63,.3,.96-.17,1.9-.41,2.87-.63ZM64.31,24.43l2.72,.27-1.05-2.07-1.66,1.8ZM31.7,63.51l2.4-.88-.08-.2c-.9,.02-1.79,.07-2.32,1.08Z"/><g><path class="d" d="M103.15,29.99h-5.24v-1.9h12.64v1.9h-5.24v13.39h-2.16v-13.39Z"/><path class="d" d="M112.93,28.09h2.18v15.29h-2.18v-15.29Z"/><path class="d" d="M131.12,41.48v1.9h-12.78v-1.49l9.61-11.9h-9.46v-1.9h12.34v1.49l-9.57,11.9h9.85Z"/><path class="d" d="M136.6,42.54c-1.24-.68-2.21-1.61-2.92-2.81-.71-1.19-1.06-2.53-1.06-4s.35-2.8,1.06-4c.71-1.19,1.68-2.13,2.92-2.81,1.24-.68,2.63-1.01,4.17-1.01s2.91,.34,4.15,1.01c1.24,.68,2.21,1.61,2.9,2.8,.7,1.19,1.05,2.52,1.05,4.01s-.35,2.82-1.05,4.01c-.7,1.19-1.67,2.12-2.9,2.79-1.24,.68-2.62,1.02-4.15,1.02s-2.93-.34-4.17-1.02Zm7.2-1.69c.89-.51,1.6-1.21,2.12-2.11s.77-1.9,.77-3-.26-2.11-.77-3c-.52-.89-1.22-1.6-2.12-2.11-.9-.51-1.9-.76-3.03-.76s-2.14,.25-3.05,.76c-.91,.51-1.62,1.21-2.14,2.11-.52,.9-.78,1.9-.78,3s.26,2.11,.78,3c.52,.9,1.23,1.6,2.14,2.11,.91,.51,1.92,.76,3.05,.76s2.13-.25,3.03-.76Z"/><path class="d" d="M153.12,27.47c.27,.28,.4,.64,.4,1.06,0,.22-.02,.43-.07,.64-.04,.21-.14,.51-.28,.91l-1.05,3.06h-1.38l.81-3.25c-.28-.1-.5-.27-.67-.51s-.25-.52-.25-.84c0-.44,.14-.79,.42-1.07s.63-.42,1.05-.42,.75,.14,1.02,.43Z"/><path class="d" d="M158.19,43.02c-1.07-.36-1.91-.82-2.52-1.39l.81-1.7c.58,.52,1.33,.95,2.24,1.28s1.85,.49,2.81,.49c1.27,0,2.21-.21,2.84-.64,.63-.43,.94-1,.94-1.71,0-.52-.17-.95-.51-1.28-.34-.33-.76-.58-1.27-.75s-1.21-.37-2.13-.59c-1.15-.28-2.08-.55-2.79-.83-.71-.28-1.31-.7-1.81-1.28-.5-.58-.75-1.35-.75-2.33,0-.82,.21-1.55,.64-2.21,.43-.65,1.08-1.18,1.96-1.57,.87-.39,1.96-.59,3.25-.59,.9,0,1.79,.12,2.66,.35,.87,.23,1.62,.57,2.25,1l-.72,1.75c-.64-.41-1.33-.72-2.05-.93-.73-.21-1.44-.32-2.14-.32-1.24,0-2.17,.23-2.78,.68-.62,.45-.93,1.03-.93,1.75,0,.52,.18,.95,.52,1.28,.35,.33,.78,.58,1.3,.76,.52,.18,1.22,.38,2.11,.58,1.15,.28,2.07,.55,2.77,.83s1.3,.7,1.8,1.27c.5,.57,.75,1.33,.75,2.29,0,.8-.22,1.53-.65,2.19-.44,.66-1.1,1.19-1.99,1.57-.89,.39-1.98,.58-3.28,.58-1.15,0-2.26-.18-3.33-.54Z"/></g><g><path class="d" d="M183.39,73.03v5.88h8.46v2.07h-8.46v6.82h-2.41v-16.88h11.91v2.1h-9.5Z"/><path class="d" d="M206.27,83.59h-8.97l-1.86,4.22h-2.48l7.64-16.88h2.39l7.67,16.88h-2.53l-1.86-4.22Zm-.84-1.93l-3.64-8.27-3.64,8.27h7.28Z"/><path class="d" d="M214.41,87.42c-1.18-.39-2.11-.9-2.78-1.53l.89-1.88c.64,.58,1.47,1.05,2.47,1.41,1,.36,2.04,.54,3.1,.54,1.4,0,2.44-.24,3.13-.71,.69-.47,1.04-1.11,1.04-1.89,0-.58-.19-1.05-.57-1.41-.38-.36-.84-.64-1.4-.83-.55-.19-1.34-.41-2.35-.65-1.27-.31-2.29-.61-3.07-.92-.78-.31-1.45-.78-2-1.41-.55-.63-.83-1.49-.83-2.57,0-.9,.24-1.71,.71-2.44,.47-.72,1.19-1.3,2.16-1.74,.96-.43,2.16-.65,3.59-.65,1,0,1.98,.13,2.94,.39,.96,.26,1.79,.63,2.48,1.11l-.79,1.93c-.71-.45-1.46-.79-2.27-1.03-.8-.23-1.59-.35-2.36-.35-1.37,0-2.39,.25-3.07,.75-.68,.5-1.03,1.14-1.03,1.93,0,.58,.19,1.05,.58,1.41,.39,.36,.86,.64,1.44,.84,.57,.2,1.35,.41,2.33,.64,1.27,.31,2.29,.61,3.06,.92s1.43,.77,1.99,1.4c.55,.63,.83,1.47,.83,2.53,0,.88-.24,1.69-.72,2.42s-1.21,1.31-2.19,1.74c-.98,.43-2.19,.64-3.62,.64-1.27,0-2.5-.2-3.68-.59Z"/><path class="d" d="M242.66,70.94v16.88h-2.41v-7.52h-9.69v7.52h-2.41v-16.88h2.41v7.26h9.69v-7.26h2.41Z"/><path class="d" d="M247.72,70.94h2.41v16.88h-2.41v-16.88Z"/><path class="d" d="M258.21,86.89c-1.37-.75-2.44-1.78-3.22-3.1s-1.17-2.79-1.17-4.41,.39-3.09,1.17-4.41c.78-1.32,1.85-2.35,3.22-3.1,1.37-.75,2.9-1.12,4.61-1.12s3.21,.37,4.58,1.12c1.37,.75,2.44,1.78,3.21,3.09,.77,1.31,1.16,2.79,1.16,4.42s-.39,3.11-1.16,4.42c-.77,1.31-1.84,2.34-3.21,3.09-1.37,.75-2.89,1.12-4.58,1.12s-3.24-.37-4.61-1.12Zm7.95-1.87c.99-.56,1.77-1.34,2.34-2.33,.57-.99,.86-2.09,.86-3.31s-.29-2.33-.86-3.32-1.35-1.76-2.34-2.33c-.99-.56-2.1-.84-3.34-.84s-2.36,.28-3.36,.84c-1.01,.56-1.79,1.34-2.36,2.33s-.86,2.09-.86,3.32,.29,2.33,.86,3.31c.57,.99,1.36,1.76,2.36,2.33,1,.56,2.12,.84,3.36,.84s2.35-.28,3.34-.84Z"/><path class="d" d="M289.96,70.94v16.88h-1.98l-10.13-12.59v12.59h-2.41v-16.88h1.98l10.13,12.59v-12.59h2.41Z"/></g><polygon class="d" points="306.73 97.78 130.88 97.78 209.86 15.28 91.45 15.28 91.45 14.26 212.24 14.26 133.26 96.77 306.73 96.77 306.73 97.78"/><path class="d" d="M296.71,61.31c.34,.19,.6,.46,.79,.79,.19,.34,.29,.71,.29,1.12s-.1,.79-.29,1.13c-.2,.34-.46,.61-.8,.81-.34,.2-.71,.29-1.12,.29s-.78-.1-1.12-.29-.6-.46-.8-.8c-.2-.34-.29-.71-.29-1.12s.1-.78,.29-1.12c.19-.34,.46-.61,.8-.8,.34-.2,.72-.29,1.13-.29s.79,.1,1.13,.29Zm-.16,3.61c.29-.17,.52-.41,.69-.7,.17-.3,.25-.63,.25-.99s-.08-.69-.25-.98c-.17-.29-.39-.52-.68-.69-.29-.17-.62-.25-.98-.25s-.69,.09-.98,.26c-.29,.17-.53,.41-.69,.7-.17,.3-.25,.62-.25,.98s.08,.68,.25,.98c.17,.29,.4,.53,.69,.7s.62,.26,.97,.26,.69-.09,.98-.26Zm.02-1.6c-.09,.13-.22,.23-.39,.29l.57,.89h-.43l-.52-.8h-.68v.8h-.43v-2.51h1c.31,0,.56,.08,.75,.23,.18,.16,.27,.36,.27,.62,0,.19-.05,.35-.14,.48Zm-.44-.11c.11-.09,.17-.21,.17-.37s-.06-.28-.17-.37c-.11-.09-.27-.13-.47-.13h-.55v1h.55c.2,0,.36-.04,.47-.13Z"/></g></g></svg>