<?xml version="1.0" encoding="UTF-8"?><svg xmlns="http://www.w3.org/2000/svg" xmlns:xlink="http://www.w3.org/1999/xlink" viewBox="0 0 421 421"><defs><style>.bf{fill:url(#be);}.bg{fill:url(#t);}.bh{fill:url(#ap);}.bi{fill:url(#r);}.bj{fill:url(#ai);}.bk{fill:url(#y);}.bl{fill:url(#l);}.bm{fill:url(#af);}.bn{fill:url(#aq);}.bo{fill:url(#u);}.bp{fill:url(#ah);}.bq{fill:url(#b`);}.br{fill:url(#v);}.bs{fill:url(#av);}.bt{fill:url(#a`);}.bu{fill:url(#as);}.bv{fill:url(#m);}.bw{fill:url(#aw);}.bx{fill:url(#ba);}.by{fill:url(#ao);}.c`{fill:url(#bd);}.ca{fill:url(#f);}.cb{fill:url(#ae);}.cc{fill:url(#p);}.cd{fill:url(#g);}.ce{fill:url(#bb);}.cf{fill:url(#ad);}.cg{fill:url(#ab);}.ch{fill:url(#ak);}.ci{fill:url(#au);}.cj{fill:url(#i);}.ck{fill:url(#bc);}.cl{fill:url(#aj);}.cm{fill:url(#ar);}.cn{fill:url(#h);}.co{fill:url(#d);}.cp{fill:url(#e);}.cq{fill:url(#am);}.cr{fill:url(#x);}.cs{fill:url(#at);}.ct{fill:url(#aa);}.cu{fill:url(#s);}.cv{fill:url(#n);}.cw{fill:url(#ac);}.cx{fill:url(#w);}.cy{fill:url(#al);}.d`{fill:url(#j);}.da{fill:url(#o);}.db{fill:url(#an);}.dc{fill:url(#ax);}.dd{fill:url(#q);}.de{fill:url(#ag);}.df{fill:url(#ay);}.dg{fill:url(#k);}.dh{opacity:.09;}</style><linearGradient id="d" x1="137.67" y1="52.84" x2="241.84" y2="52.84" gradientTransform="matrix(1, 0, 0, 1, 0, 0)" gradientUnits="userSpaceOnUse"><stop offset="0" stop-color="#ff0074"/><stop offset="1" stop-color="#ff4097"/></linearGradient><linearGradient id="e" x1="0" y1="89.19" x2="49.25" y2="89.19" xlink:href="#d"/><linearGradient id="f" x1="337.13" y1="360.59" x2="421" y2="360.59" xlink:href="#d"/><linearGradient id="g" x1="385.71" y1="117.44" x2="421" y2="117.44" xlink:href="#d"/><linearGradient id="h" x1="0" y1="206.73" x2="35.74" y2="206.73" xlink:href="#d"/><linearGradient id="i" x1="0" y1="395.29" x2="75.04" y2="395.29" xlink:href="#d"/><linearGradient id="j" x1="125" y1="407.05" x2="162.51" y2="407.05" xlink:href="#d"/><linearGradient id="k" x1="16.11" y1="399.07" x2="67.15" y2="399.07" xlink:href="#d"/><linearGradient id="l" x1="401.89" y1="193.24" x2="421" y2="193.24" xlink:href="#d"/><linearGradient id="m" x1="398.82" y1="9.91" x2="421" y2="9.91" xlink:href="#d"/><linearGradient id="n" x1="0" y1="7.18" x2="65.26" y2="7.18" xlink:href="#d"/><linearGradient id="o" x1="341.43" y1="5.72" x2="374.69" y2="5.72" xlink:href="#d"/><linearGradient id="p" x1="0" y1="317.22" x2="8.23" y2="317.22" xlink:href="#d"/><linearGradient id="q" x1="395.54" y1="335.67" x2="421" y2="335.67" xlink:href="#d"/><linearGradient id="r" x1="28.21" y1="4.95" x2="54.31" y2="4.95" xlink:href="#d"/><linearGradient id="s" x1="0" y1="4" x2="14.31" y2="4" xlink:href="#d"/><linearGradient id="t" x1="31.58" y1="1.75" x2="46.73" y2="1.75" xlink:href="#d"/><linearGradient id="u" x1="409.21" y1="418.05" x2="421" y2="418.05" xlink:href="#d"/><linearGradient id="v" x1="0" y1="2.53" x2="9.26" y2="2.53" xlink:href="#d"/><linearGradient id="w" x1="416.37" y1="419.74" x2="421" y2="419.74" xlink:href="#d"/><linearGradient id="x" x1="226.7" y1="131.79" x2="371.26" y2="131.79" xlink:href="#d"/><linearGradient id="y" x1="244.49" y1="303.28" x2="327.29" y2="303.28" xlink:href="#d"/><linearGradient id="a`" x1="121.36" y1="251.13" x2="215.06" y2="251.13" xlink:href="#d"/><linearGradient id="aa" x1="57.51" y1="340.22" x2="185.2" y2="340.22" xlink:href="#d"/><linearGradient id="ab" x1="155.5" y1="174.31" x2="255.7" y2="174.31" xlink:href="#d"/><linearGradient id="ac" x1="314.61" y1="283.99" x2="403.73" y2="283.99" xlink:href="#d"/><linearGradient id="ad" x1="196.07" y1="352.61" x2="270.63" y2="352.61" xlink:href="#d"/><linearGradient id="ae" x1="263.79" y1="49.5" x2="369.25" y2="49.5" xlink:href="#d"/><linearGradient id="af" x1="43.99" y1="155.92" x2="142.23" y2="155.92" xlink:href="#d"/><linearGradient id="ag" x1="286.94" y1="204.15" x2="382.24" y2="204.15" xlink:href="#d"/><linearGradient id="ah" x1="15.18" y1="253.89" x2="106.17" y2="253.89" xlink:href="#d"/><linearGradient id="ai" x1="50.23" y1="45.25" x2="141.42" y2="45.25" xlink:href="#d"/><linearGradient id="aj" x1="381.3" y1="382.5" x2="397.55" y2="382.5" xlink:href="#d"/><linearGradient id="ak" x1="365.72" y1="415.72" x2="372.21" y2="415.72" xlink:href="#d"/><linearGradient id="al" x1="326.68" y1="302.25" x2="335.1" y2="302.25" xlink:href="#d"/><linearGradient id="am" x1="268.74" y1="49.63" x2="318.34" y2="49.63" xlink:href="#d"/><linearGradient id="an" x1="80.71" y1="164.05" x2="131" y2="164.05" xlink:href="#d"/><linearGradient id="ao" x1="191.62" y1="46.32" x2="218.08" y2="46.32" xlink:href="#d"/><linearGradient id="ap" x1="214.91" y1="62.81" x2="226.02" y2="62.81" xlink:href="#d"/><linearGradient id="aq" x1="309.44" y1="130.48" x2="354.96" y2="130.48" xlink:href="#d"/><linearGradient id="ar" x1="280.52" y1="136.77" x2="290.48" y2="136.77" xlink:href="#d"/><linearGradient id="as" x1="67.67" y1="338.46" x2="134.87" y2="338.46" xlink:href="#d"/><linearGradient id="at" x1="170.94" y1="156.93" x2="206.82" y2="156.93" xlink:href="#d"/><linearGradient id="au" x1="205.38" y1="187.28" x2="213.49" y2="187.28" xlink:href="#d"/><linearGradient id="av" x1="332.72" y1="289.62" x2="352.87" y2="289.62" xlink:href="#d"/><linearGradient id="aw" x1="218.45" y1="386.58" x2="233.24" y2="386.58" xlink:href="#d"/><linearGradient id="ax" x1="206.83" y1="334.12" x2="253.26" y2="334.12" xlink:href="#d"/><linearGradient id="ay" x1="327.05" y1="63.58" x2="364.69" y2="63.58" xlink:href="#d"/><linearGradient id="b`" x1="48.33" y1="152.86" x2="77.99" y2="152.86" xlink:href="#d"/><linearGradient id="ba" x1="289.94" y1="211.58" x2="323.74" y2="211.58" xlink:href="#d"/><linearGradient id="bb" x1="332.16" y1="204.38" x2="376.36" y2="204.38" xlink:href="#d"/><linearGradient id="bc" x1="66.45" y1="255.62" x2="80.11" y2="255.62" xlink:href="#d"/><linearGradient id="bd" x1="92.15" y1="235.18" x2="97.23" y2="235.18" xlink:href="#d"/><linearGradient id="be" x1="76.07" y1="54.66" x2="127.29" y2="54.66" xlink:href="#d"/></defs><g id="a"/><g id="b"><g id="c"><g class="dh"><path class="co" d="M162.93,0c.51,.66,.97,1.37,1.55,1.97,6.25,6.56,12.78,12.81,20.01,18.3,2.24,1.7,4.53,3.32,7.43,3.75,.44,.06,.99,.34,1.22,.7,1.32,1.99,3.36,2.91,5.41,3.84,11.95,5.46,23,12.33,32.66,21.26,3.23,2.98,6.09,6.39,8.95,9.76,2.21,2.61,2.18,4.62,.36,7.49-3.84,6.04-8.73,11.13-14.22,15.67-3.3,2.72-6.6,5.44-9.85,8.22-4.34,3.72-9.01,6.91-14.17,9.38-3.29,1.57-6.55,3.21-9.88,4.69-2.53,1.12-3.79,.77-5.35-1.24-6.51-8.35-12.07-17.3-15.54-27.32-3.02-8.73-5.6-17.57-6.23-26.95-.47-6.99-2.49-13.72-6.13-19.93-5.52-9.42-12.14-18.02-18.99-26.47-.84-1.03-1.66-2.09-2.48-3.13h2.95c2.36,3.14,4.74,6.26,7.06,9.42,3.03,4.12,6.54,8.01,8.86,12.5,3.11,6,7.23,11.56,8.88,18.28,.08,.32,.28,.61,.41,.9,2.07-.31,2.64-.98,1.94-2.74-.89-2.27-1.83-4.58-3.11-6.64-5.53-8.86-11.22-17.61-18.05-25.56C144.98,4.27,143.72,2.06,142.3,0c.56,0,1.12,0,1.68,0,.17,.3,.31,.63,.51,.91,6.86,9.47,13.72,18.93,20.58,28.38,.27,.37,.6,.7,1.12,1.3,.48-3.39-.44-6.13-1.96-8.65-1.3-2.15-2.8-4.19-4.35-6.17C155.74,10.49,151.53,5.26,147.35,0c.7,0,1.4,0,2.11,0,3.21,4.06,6.32,8.22,9.67,12.16,3.11,3.65,5.82,7.52,8.11,11.73,1.23,2.27,1.77,4.49,1.08,7.04-.78,2.88,.37,5.43,1.67,8.2,2.39-1.8,4.72-3.37,6.84-5.18,2.98-2.55,5.84-5.24,8.68-7.95,1.54-1.46,1.38-1.95-.43-2.9-1.18-.61-2.31-1.31-3.44-2.01-1.04-.64-2.05-1.34-3.33-2.18,.91,2.6,.92,3.24,.24,5.61-.72,2.5-1.89,3.01-4.21,1.72-2.6-1.44-4.87-3.26-6.75-5.6-4.7-5.84-9.49-11.61-14.21-17.43-.82-1.01-1.48-2.14-2.22-3.22h1.68c4.97,6.07,9.95,12.14,14.9,18.23,1.97,2.42,4.12,4.6,7.09,5.78,1.89,.75,2.46,.29,2.18-1.73-.48-3.46-2.1-6.35-4.42-8.9-3.4-3.73-6.8-7.46-10.18-11.21-.59-.66-1.06-1.44-1.58-2.16,.7,0,1.4,0,2.11,0Zm62.28,67.79c6.58-4.4,6.33-9.38,2.5-13.23-2.67-2.68-5.37-5.36-8.33-7.68-4.63-3.63-9.46-7.01-14.27-10.4-2.86-2.01-5.84-3.86-8.81-5.72-1.88-1.17-3.7-.95-5.45,.43-1.76,1.39-3.62,2.65-5.38,4.03-4.86,3.79-9.8,7.49-13.83,12.23-1.58,1.85-2.21,3.85-1.78,6.21,2.08,11.32,5.73,22.09,11.39,32.14,1.98,3.51,4.91,5.88,8.47,7.58,1.46,.7,2.87,.59,4.15-.39,.83-.64,1.63-1.33,2.38-2.06,4.58-4.46,9.47-8.54,14.68-12.25,4.28-3.06,8.48-6.21,12.7-9.35,.6-.45,1.09-1.06,1.62-1.59l-.03,.03Zm-12.9-28.93l-.44,.51c.31,.14,.65,.22,.91,.42,2.7,2.02,5.35,4.08,8.07,6.07,3.54,2.59,6.48,5.75,9.28,9.11,2.34,2.8,2.34,5.62,.81,8.57-.83,1.59-1.94,3.1-3.19,4.39-1.35,1.4-3,2.52-4.54,3.74-9.15,7.18-19.07,13.39-27.28,21.76-1.23,1.25-2.8,1.75-4.56,1.87-4.15,.29-7.27-1.51-9.37-4.9-1.94-3.15-3.55-6.52-5.29-9.8-.54-1.03-1.03-2.09-1.54-3.13l-.41,.17c.31,.82,.57,1.65,.94,2.44,.82,1.78,1.83,3.49,2.53,5.31,2.16,5.65,5.29,10.64,9.37,15.1,2.82,3.09,2.9,3.27,6.47,1.25,13.05-7.4,25.08-16.21,36.13-26.35,3.22-2.95,5.9-6.39,8.02-10.23,1.21-2.19,1.09-3.25-.5-5.17-.45-.54-.93-1.05-1.41-1.57-6.25-6.81-13.41-12.54-21.08-17.65-.97-.64-1.94-1.28-2.91-1.91Zm-22.55-12.71l-.71-.36c-6.36,7.59-14.84,12.65-22.36,18.94,1.19-.17,2.25-.58,3.19-1.17,5.78-3.6,11.19-7.69,16.15-12.36,1.17-1.1,2.18-2.37,3.19-3.62,.3-.38,.36-.95,.53-1.43Zm-19.26,20c-4.02,1.56-4.11,.54-3.52,5.72,.1,.9,.33,1.79,.56,2.67,.09,.34,.37,.62,.57,.93h.53c-.79-3.43-.37-6.57,1.85-9.32Z"/><path class="cp" d="M0,79.99c1.16,.13,1.83-.19,2.36-1.44,.65-1.51,1.93-2.73,2.76-4.18,1.99-3.47,3.88-6.98,5.79-10.5,3.8-7.02,7.61-14.05,11.37-21.1,1.35-2.53,2.57-5.14,3.82-7.72,.84-1.75,.99-1.58,2.84-1.36,6.84,.81,11.74,5.29,17.21,8.73,.47,.3,.94,.61,1.42,.9,1.83,1.11,2.13,1.91,1.12,3.79-2.5,4.69-5.1,9.33-7.59,14.03-1.48,2.78-2.82,5.63-4.23,8.45-1.41,2.81-2.82,5.63-4.28,8.42-2.37,4.54-4.8,9.04-7.15,13.58-.96,1.85-.78,2.48,.79,3.79,.27,.22,.61,.35,1.01,.58-7.14,12.93-14.11,25.55-21.08,38.18-1.59,2.88-3.12,5.8-4.72,8.68-.4,.71-.95,1.34-1.43,2v-4.21c.25-.33,.53-.64,.73-1,3.37-5.98,6.78-11.95,10.09-17.96,3.49-6.32,6.91-12.68,10.33-19.04,.81-1.5,1.21-3.08,.21-5.09-.51,.82-.9,1.37-1.21,1.95-3.38,6.3-6.72,12.62-10.13,18.9-2.74,5.05-5.54,10.07-8.35,15.08-.43,.77-1.1,1.4-1.66,2.1v-7.16c1.94-3.71,3.86-7.44,5.83-11.13,3.56-6.66,7.15-13.31,10.75-19.95,1.09-2.01,1-2.41-.83-3.83-1.32-1.03-2.68-2.04-3.89-3.19C8.51,87.14,4.55,85.74,0,85.88v-5.89Zm18.32,4.6c.54-.64,1.12-1.14,1.48-1.77,7.34-12.67,14.65-25.35,21.95-38.04,1.07-1.86,.94-2.21-.78-3.43-.34-.24-.69-.48-1.06-.69-1.48-.82-2.03-.7-2.92,.74-.44,.71-.82,1.47-1.22,2.21-6.68,12.31-13.37,24.62-20.02,36.95-.36,.66-.74,1.88-.43,2.21,.72,.77,1.85,1.16,3,1.81Zm13.57-46.78c-2.26-2.2-3.93-1.81-5.41,1-3.58,6.82-7.25,13.59-10.87,20.39-3.06,5.75-6.11,11.51-9.16,17.27-.37,.69-.84,1.41,.2,1.95,.91,.47,1.76,.49,2.4-.46,.27-.41,.49-.85,.73-1.27,6.25-11.03,12.5-22.07,18.75-33.1,1.1-1.94,2.25-3.86,3.36-5.77Zm2.16,.87l-.5-.27c-1.5,2.15-3.18,4.19-4.46,6.46-6.17,10.99-12.24,22.03-18.3,33.07-.36,.65-.65,2.08-.57,2.11,1.31,.5,1.42-.81,1.79-1.48,7.22-12.8,14.4-25.63,21.56-38.46,.24-.43,.32-.95,.47-1.44Zm12.37,7.07l-.6-.24c-7.55,13.71-15.09,27.42-22.68,41.2,1.62,.32,1.61,.32,2.25-.87,2.19-4.07,4.32-8.17,6.6-12.19,4.79-8.47,10-16.7,13.69-25.76,.28-.7,.49-1.42,.74-2.14Zm-25.66,39.73c1.99-1.09,22.12-37.44,22.69-40.44-1.2,1.94-2.3,3.94-3.41,5.93-4.88,8.74-9.73,17.5-14.65,26.22-1.24,2.19-2.72,4.25-4.02,6.4-.33,.55-.42,1.26-.61,1.89Zm1.81,6.05l.21-.36c-.48-.44-.97-.86-1.43-1.32-3.28-3.3-7.68-4.84-11.5-7.31-1.5-.97-3.3-1.48-4.99-2.15-.26-.1-.64,.13-1.43,.31,6.35,3.77,12.27,7.28,18.21,10.77,.24,.14,.62,.05,.93,.06ZM.51,131.15l.57,.3c4.85-9.09,9.71-18.18,14.56-27.27l-.6-.32c-4.84,9.09-9.69,18.19-14.53,27.28Zm12.21-49.81c1.56-.83,10.33-17.68,10.91-20.56-.87,1.63-1.6,2.97-2.32,4.33-.72,1.36-1.44,2.73-2.13,4.1-.73,1.44-1.39,2.9-2.16,4.32-.73,1.35-1.59,2.64-2.31,4-.68,1.27-2,2.21-1.99,3.82Zm16.03-29.73c2.84-3.79,5.29-7.81,7.29-12.09l-.52-.29c-2.26,4.12-4.51,8.25-6.77,12.37Z"/><path class="ca" d="M421,312.8c-5.18,1.12-10.78-3.05-11.65-8.74-.1-.69-.53-1.34-.81-2-.78,.39-1.6,.72-2.34,1.18-.32,.2-.49,.67-.71,1.03-4.13,7.09-8.24,14.19-12.4,21.26-2.81,4.77-5.74,9.47-8.53,14.25-1.66,2.84-3.2,5.75-4.71,8.68-.92,1.8-.83,2.42,.9,3.53,4.36,2.79,8.8,5.47,13.24,8.12,.82,.49,1.84,.66,2.76,.98,1.01,.35,2.02,.71,3.29,1.15,.13-.18,.48-.59,.74-1.05,2.05-3.51,4.14-7,6.12-10.55,3.72-6.67,7.34-13.4,11.06-20.08,.91-1.63,2-3.16,3.01-4.73v3.79c-.25,.33-.55,.63-.75,.98-5.87,10.6-11.74,21.21-17.6,31.82-.24,.43-.46,.87-.68,1.31-.43,.84-.34,1.52,.33,2.28,4.26,4.79,4.59,9.28,1.38,14.73-7.84,13.33-17.19,25.58-26.57,37.81-.64,.83-1.33,1.62-2,2.43h-6.74c.45-.17,.89-.39,1.36-.52,2.6-.71,4.7-2.17,6.34-4.27,5.41-6.89,10.78-13.82,16.22-20.69,4.3-5.42,7.28-11.64,10.79-17.54,2.19-3.69-.55-8.98-4.11-10.37-9.14-3.57-18.09-7.65-25.78-13.97-1.83-1.5-4.38-1.34-5.97,.68-1.81,2.3-3.55,4.72-4.89,7.31-4.58,8.91-8.84,17.99-13.48,26.87-3.71,7.1-4.48,14.49-3.2,22.25,.4,2.46,1.81,4.24,3.88,5.49,3.64,2.2,7.52,3.75,11.77,4.28,.68,.09,1.35,.31,2.02,.47h-8.42c-1.59-.7-3.21-1.33-4.76-2.11-3.52-1.78-5.76-4.61-6.49-8.51-.22-1.16-.15-2.37-.28-3.55-.05-.46-.29-.9-.44-1.34h-.51c-.52,1.2-1.07,2.38-1.57,3.57-1.71,4.06-1.26,6.31,1.88,9.45,.83,.83,1.67,1.66,2.5,2.49h-4.63c-.91-1.15-1.8-2.32-2.72-3.46-.78-.96-.89-1.96-.55-3.15,.77-2.62,1.31-5.31,2.16-7.91,1.11-3.39,2.27-6.77,3.68-10.04,3.8-8.82,7.69-17.61,11.64-26.36,1.59-3.51,3.42-6.91,5.2-10.33,1.41-2.71,3.35-5,5.65-7,2.56-2.23,5.38-3.21,8.74-2.15,.78,.25,1.63,.29,2.34,.41,.25-.2,.41-.27,.45-.38,2.19-6.76,6.4-12.45,9.88-18.51,4.82-8.39,9.8-16.69,14.66-25.06,.95-1.63,1.71-3.37,2.53-5.08,.51-1.07,1.19-1.72,2.48-1.34,.32,.1,.78,.26,.99,.12,1.98-1.32,3.62-.11,5.31,.67,2.66,1.25,5.31,2.53,7.96,3.79v2.53c-3.18-1.66-6.37-3.33-9.66-5.05-.78,2.07-.73,3.73,.52,5.07,2.7,2.89,5.09,4.2,9.14,2.92v2.11Zm-44.31,40.43l-.26,.46c5.01,4.15,10.77,6.95,16.64,9.56l.29-.51c-5.56-3.17-11.11-6.34-16.67-9.52Z"/><path class="cd" d="M421,91.78c-.18,.21-.4,.39-.53,.63-5.43,9.23-10.86,18.45-16.25,27.7-1.16,1.99-2.11,4.11-3.25,6.11-1.14,1.99-2.45,3.89-3.61,5.87-.32,.54-.54,1.27-.48,1.87,.23,2.3,1.45,4.06,3.32,5.35,3.09,2.13,6.49,3.59,10.11,4.5,1.8,.45,2.39,.11,3.37-1.64,2.07-3.74,4.11-7.49,6.18-11.22,.33-.6,.77-1.15,1.15-1.72v7.16c-.48,.59-1.03,1.14-1.42,1.79-1.14,1.93-2.16,3.93-3.34,5.83-.63,1.01-.74,1.84,.3,2.52,1.17,.76,1.6-.3,2.09-1.02,.81-1.2,1.58-2.42,2.37-3.64v3.79c-1.21,2.02-2.44,4.04-3.62,6.07-.24,.41-.27,.94-.47,1.39-.81,1.76-1.76,2.19-3.51,1.34-4.41-2.14-8.83-4.26-13.15-6.56-4.26-2.27-8.4-4.77-12.6-7.16-2.04-1.16-2.42-1.99-1.33-4.09,.83-1.59,2.01-3,3.01-4.51,.89-1.33,1.84-2.62,2.61-4.02,3.4-6.2,6.65-12.49,10.11-18.65,4.57-8.11,9.3-16.14,13.95-24.21,.21-.36,.53-.71,.6-1.1,.46-2.48,2.07-3.7,4.4-4.18v5.89c-2.51-.51-2.7-.4-3.84,1.68-.64,1.17-1.38,2.28-2.04,3.44-7.53,13.3-15.04,26.61-22.56,39.92-.23,.4-.37,.86-.56,1.31,2.04,.5,2.06,.42,2.69-1.25,.76-2.03,1.48-4.09,2.52-5.98,3.06-5.6,6.22-11.14,9.43-16.65,4.19-7.19,8.47-14.32,12.72-21.47l1.64,.69v4.21Zm-8.02,59.8c.58-.19,1.06-.3,1.5-.51,.99-.45,2.04-1.09,1.69-2.31-.35-1.23-1.47-.66-2.33-.52-1.08,.18-2.07,.06-2.19-1.26-.12-1.32-.88-1.66-2.01-1.95-4.54-1.15-8.74-3.05-12.25-6.18-.89-.8-1.73-1.92-2.04-3.04-.66-2.37-.86-2.62-3.13-1.76-.65,.25-1.29,.56-1.86,.96-1.71,1.2-1.77,2.47-.07,3.64,1.73,1.19,3.49,2.38,5.38,3.27,5.53,2.59,10.82,5.58,15.87,8.99,.45,.3,.99,.46,1.45,.66Zm5.52-58.79l-.54-.31c-7.48,11.64-14.42,23.59-20.2,36.2,6.91-11.96,13.82-23.93,20.74-35.89Z"/><path class="cn" d="M0,172.61c1.16-.26,2.33-.5,3.48-.78,1.4-.34,2.47,.09,3.27,1.27,1.18,1.74,2.41,3.44,3.53,5.22,3.18,5.03,6.34,10.08,9.46,15.15,.62,1.01,1.1,2.11,1.57,3.21,.96,2.24,.85,4.34-.83,6.27-.49,.57-.91,1.29-1.07,2.01-.13,.58-.04,1.55,.34,1.84,2.14,1.66,3.18,4.06,4.55,6.25,2.63,4.22,5.33,8.4,7.86,12.68,1.21,2.04,2.21,4.22,3.08,6.43,.98,2.47,.5,3.83-1.6,5.52-1.36,1.1-2.73,2.2-4.19,3.16-2.03,1.33-3.75,1.22-5.56-.41-1.13-1.02-2.22-2.17-3.05-3.45-4.16-6.4-8.24-12.85-12.33-19.29-.37-.58-.7-1.23-.89-1.89-.53-1.84-.88-2.14-2.73-1.72-1.66,.38-3.29,.69-4.89-.2v-1.68c.2,.03,.42,.03,.61,.11,2.88,1.18,3.87,.83,5.62-1.68,.66-.95,1.53-1.88,2.51-2.45,1.87-1.07,3.85-1.97,5.87-2.74,2.04-.78,3.71-1.95,4.9-3.76,.25-.39,.37-1.17,.15-1.48-.23-.32-1.02-.5-1.45-.37-1.73,.54-3.48,1.1-5.11,1.88-2.9,1.39-5.68,3.02-8.59,4.39-1.42,.67-3.01,.98-4.52,1.46,0-.28,0-.56,0-.84,3.04-1.69,6.1-3.33,9.1-5.09,1.67-.98,1.68-1.37,.43-2.92C6.84,195.34,3.72,192.47,0,190.29v-2.11c2.63,1.1,4.85,2.78,6.78,4.85,1.29,1.38,2.69,2.68,3.85,4.16,1.47,1.87,3.23,1.96,5.26,1.32,2.84-.89,3.41-2.7,1.56-5.01-2.7-3.39-5.41-6.79-8.12-10.18-1.32-1.65-2.65-3.29-3.97-4.94-.3,0-.34-.21-.29-.4,.52-2.13-.42-3.36-2.6-3.29-.83,.03-1.64,.29-2.46,.44,0-.84,0-1.68,0-2.53Zm32.22,64.14c-.56-.77-1.09-1.34-1.44-1.99-.53-.98-.81-2.1-1.42-3.02-3.97-6.03-8.03-12.01-11.96-18.06-.81-1.25-1.23-2.76-1.89-4.31-1.02,.7-2.33,1.41-3.4,2.39-2.24,2.03-2.33,4.06-.78,6.6,2.23,3.64,4.22,7.42,6.5,11.03,2.01,3.18,4.26,6.23,6.47,9.28,.33,.45,1.12,.96,1.57,.86,2.33-.55,4.91-.64,6.35-2.77Zm-11.42-24.9c1.4,2.22,2.8,4.43,4.2,6.65,1.45,2.31,2.92,4.61,4.34,6.94,1.33,2.17,1.98,4.77,4.09,6.43-3.06-7.39-7.76-13.76-12.64-20.02Zm-.41,2.27l-.45,.3c2.9,4.46,5.8,8.92,8.7,13.38l.45-.3c-2.9-4.46-5.8-8.92-8.7-13.38Zm-7.85-5.46c-1.59,.79-3.38,1.2-4.76,2.57q1.16,.6,4.76-2.57Z"/><path class="cj" d="M61.47,421c2.62-1.48,5.21-3,7.86-4.42,4.14-2.21,5.14-4.33,4.01-8.95-.28-1.15-.63-2.32-1.17-3.36-4.89-9.31-9.79-18.61-14.8-27.85-.78-1.44-2.06-2.64-3.19-3.87-1.38-1.5-2.98-1.57-4.77-.67-4.76,2.4-9.58,4.67-14.33,7.1-6.3,3.22-12.89,5.9-18.7,10.04-2.56,1.82-2.93,2.44-2.12,5.42,.55,2.03,1.31,4,1.82,6.03,.39,1.54,.55,3.13,.83,4.8,1.84-.97,3.22,.22,4.51,1.69,2.64,3,3.94,6.59,4.63,10.44,.17,.95,.45,2-.58,2.69-1.01,.68-1.99,.51-2.9-.5l-.25,1.42h-2.11c.43-.68,1.16-1.3,.22-2.55-1.71,.83-3.49,1.69-5.28,2.55h-2.1c.63-.42,1.23-.88,1.89-1.24,1.41-.77,2.87-1.46,4.26-2.26,.35-.2,.53-.69,.79-1.04l-.45-.47c-.62,.37-1.43,.6-1.81,1.13-1.21,1.69-2.95,2.22-4.81,2.68-.98,.24-1.88,.79-2.82,1.2h-2.95c.77-.46,1.51-1,2.33-1.37,1.67-.76,2.94-1.72,3.3-3.71,.25-1.37,1.3-2.21,2.71-2.64,1.38-.42,2.1,.45,2.96,1.54,.04-.82,.1-1.3,.08-1.78-.07-1.63-.81-2.15-2.3-1.6-.46,.17-.88,.42-1.31,.65C9.94,414.62,4.97,417.18,0,419.74c0-.42,0-.84,0-1.26,5.56-2.87,11.12-5.73,16.73-8.62-.83-1.19-1.5-.9-2.24-.51-4.17,2.14-8.35,4.27-12.54,6.38-.61,.3-1.29,.44-1.94,.65v-1.26c3.28-1.59,6.56-3.18,9.84-4.76,4.98-2.39,6.04-4.79,4.46-10.16-.53-1.82-1.05-3.63-1.53-5.46-.68-2.64,0-4.72,2.3-6.42,4.54-3.35,9.51-5.92,14.54-8.4,6.53-3.22,13.01-6.55,19.52-9.82,2.05-1.03,3.92-.38,5.41,1.03,1.57,1.48,3.07,3.12,4.24,4.92,1.76,2.69,3.31,5.53,4.77,8.4,3.3,6.5,6.45,13.07,9.75,19.57,1.48,2.92,1.87,5.98,1.7,9.18-.06,1.18-.68,1.91-1.59,2.55-2.46,1.73-4.88,3.51-7.32,5.27h-4.63Zm-37.16-2.1c.36-4.58-2.84-11.13-6.09-12.45,2.04,4.17,4.02,8.21,6.09,12.45Zm-7.46-3.68c-1.29-.71-2.09-.4-2.54,.32-.31,.51-.21,1.28-.29,1.93l.57,.21c.7-.76,1.39-1.51,2.26-2.45Z"/><path class="d`" d="M137.67,421c-3.83-4.84-7.66-9.67-11.47-14.52-1.52-1.94-1.56-2.84-.3-4.94,1.79-2.99,4.49-4.97,7.47-6.61,4.95-2.73,4.81-2.46,7.79,1.22,1.94,2.39,3.83,4.82,5.84,7.15,2.93,3.39,5.96,6.7,8.92,10.07,2.22,2.52,4.39,5.09,6.58,7.64h-2.11c-5.83-6.61-11.68-13.22-17.49-19.85-1.11-1.26-2.03-2.68-3.17-3.91-1.8-1.94-4.54-1.81-6.23,.35,.46,.62,.93,1.31,1.45,1.94,5.95,7.16,11.91,14.32,17.86,21.47h-2.11c-3.6-4.27-7.21-8.54-10.81-12.81l-.38,.32c.3,.38,.6,.75,.89,1.14,2.87,3.78,5.74,7.57,8.61,11.35h-2.11c-.06-.2-.06-.44-.18-.59-5.26-6.57-10.53-13.12-15.79-19.68-.53-.65-1.22-.91-1.77-.25-.42,.5-.64,1.28-.67,1.95-.02,.38,.52,.79,.83,1.16,1.93,2.23,3.93,4.39,5.78,6.68,2.86,3.53,5.62,7.15,8.43,10.73h-1.68c-.43-.64-.8-1.32-1.3-1.91-4.37-5.13-8.75-10.24-13.13-15.35l-.34,.25c.5,.72,.96,1.47,1.51,2.15,3.51,4.37,7.04,8.73,10.54,13.11,.42,.53,.7,1.17,1.05,1.76h-2.53Z"/><path class="dg" d="M27.79,421c-.85-2.81-1.64-5.65-2.57-8.44-1.14-3.44-2.84-6.54-5.78-8.85-.48-.38-.93-1.14-.92-1.73,.02-2.46-.8-4.67-1.75-6.87-1.04-2.39-.96-3.17,1.01-4.77,1.73-1.4,3.53-2.86,5.54-3.73,7.07-3.05,14.22-5.92,21.39-8.72,1.46-.57,3.14-.72,4.72-.76,2.37-.06,4.43,.88,5.75,2.92,1.94,3,3.89,6,5.59,9.13,1.91,3.51,3.49,7.18,5.3,10.74,2.2,4.31,.96,11.09-3.08,14.12-2.79,2.09-5.24,4.62-7.84,6.96h-1.68c2.97-2.56,5.97-5.07,8.89-7.69,5.22-4.69,4.97-13.02-.54-17.33-.69-.54-1.85-.96-2.6-.75-.5,.14-.91,1.46-.96,2.28-.13,2.16-.09,4.34-.04,6.51,.07,2.57-.65,4.81-2.35,6.77-2.93,3.38-5.81,6.8-8.72,10.21h-1.68c3.21-3.69,6.4-7.4,9.63-11.07,1.47-1.67,2.14-3.58,2.13-5.77-.02-2.1-.04-4.21-.01-6.31,.04-3.24,.45-3.66,3.69-3.9,.12,0,.23-.13,.35-.21,.02-.07,.08-.15,.06-.2-1.82-5.22-4.42-9.99-8.55-13.75-1.84-1.68-4.11-2.17-6.48-1.26-7.97,3.08-16.2,5.52-23.73,9.69-1.16,.64-2.24,1.44-3.34,2.19-.52,.35-.99,.77-1.65,1.28,2.49,1.44,2.87,3.77,3.46,5.88,.85,3.01,2.16,5.63,4.08,8.15,1.84,2.41,3.06,5.33,4.38,8.11,1.11,2.34,1.97,4.79,2.94,7.19h-1.26c-1.4-3.35-2.72-6.73-4.22-10.03-.71-1.58-1.59-3.13-2.68-4.47-1.97-2.43-3.43-5.06-4.27-8.09-.45-1.61-1.28-3.12-1.93-4.67l-.6,.25c.18,.55,.37,1.09,.55,1.64,.35,1.06,.96,2.11,.99,3.18,.09,2.66,1.17,4.59,3.08,6.48,3.12,3.09,4.27,7.29,5.37,11.44,.39,1.46,1.06,2.85,1.61,4.28h-1.26Z"/><path class="bl" d="M421,190.29c-5.25-1.87-9.27,.82-13.58,3.5,.5,.84,.86,1.49,1.27,2.11,1.57,2.4,3.27,4.72,4.72,7.18,1.51,2.55,3.53,3.89,6.55,3.54,.34-.04,.69,.05,1.04,.08v.84h-4c.93,1.86,2.37,3.12,4,4.21v2.11c-1.08-.75-2.4-1.3-3.19-2.28-5.43-6.77-10.85-13.54-15.14-21.14-1.25-2.22-.95-3.87,.53-5.71,4.7-5.87,10.82-9.63,17.8-12.13v2.53c-3.66,2.04-7.42,3.93-10.95,6.18-1.79,1.14-3.22,2.88-4.7,4.45-.97,1.03-1.01,2.31-.14,3.47,.83,1.12,1.99,1.53,3.34,1.1,.79-.25,1.58-.59,2.3-1,3.23-1.82,6.6-2.2,10.14-1.15v2.11Z"/><path class="bv" d="M421,12.21c-4.6,2.37-9.21,4.71-13.78,7.12-1.37,.72-1.98,.75-2.72-.7-1.82-3.55-3.72-7.08-5.15-10.8-1.13-2.93-.48-3.43,2.1-4.35,2.41-.86,4.62-2.3,6.92-3.48h3.37c-.79,.44-1.56,.92-2.36,1.32-2.44,1.22-4.93,2.35-7.33,3.64-1.41,.75-1.38,1.15-.16,2.66,1.68-.92,3.39-1.84,5.09-2.79C409.82,3.23,412.67,1.61,415.53,0h2.53c-.57,.39-1.1,.83-1.7,1.15-2.66,1.39-5.36,2.71-8.02,4.11-1.73,.91-3.45,1.86-5.1,2.89-.46,.29-.98,.93-1,1.42-.07,2.19,1.65,3.19,3.58,2.15,4.31-2.31,8.59-4.67,12.9-6.98,.72-.39,1.52-.63,2.29-.94v1.26c-5.02,2.63-10.04,5.26-15.05,7.9-.61,.32-1.55,.44-1.11,1.67,.46-.17,.85-.27,1.21-.45,4.34-2.11,8.67-4.25,13.02-6.35,.61-.29,1.29-.45,1.93-.67v.84c-1.31,.67-2.6,1.36-3.92,2.01-3.33,1.63-6.68,3.24-10,4.88-.68,.34-1.55,.71-1.07,1.7,.45,.95,1.24,.65,1.98,.29,4.34-2.12,8.68-4.23,13.02-6.35v1.68Z"/><path class="cv" d="M65.26,0c-.71,.44-1.39,.92-2.13,1.31-7.86,4.16-15.73,8.29-23.57,12.48-1.18,.63-2.29,.87-3.32,.02-1.39-1.14-2.76-2.33-3.92-3.69-1.77-2.07-3.25-4.37-5.03-6.44-1.96-2.28-5.04-2.97-7.84-1.61-5.16,2.5-10.22,5.21-15.34,7.8C2.77,10.56,1.38,11.15,0,11.79c0-.42,0-.84,0-1.26C6,7.36,12,4.2,17.99,1.03,18.6,.71,19.19,.35,19.79,0h4.21c2.73,.66,4.68,2.38,6.25,4.62,1.32,1.89,2.65,3.77,3.98,5.66,1.67,2.39,3.12,2.8,5.74,1.61,.38-.17,.75-.37,1.12-.58,6.21-3.5,12.41-7,18.61-10.52,.35-.2,.63-.52,.94-.79,1.54,0,3.09,0,4.63,0Z"/><path class="da" d="M346.06,0c1.27,.96,2.44,2.1,3.83,2.84,2.71,1.46,5.47,2.85,8.33,3.99,6.84,2.73,7.11,1.77,10.62-2.42,.71-.85,1.45-1.69,2.45-2.84-.92-.07-1.49-.12-2.06-.17-3.76-.3-7.53-.59-11.28-.92-.46-.04-.91-.32-1.36-.49,6.03,0,12.07,0,18.1,0-2.38,2.91-4.54,6.03-7.18,8.68-3.35,3.37-5.83,3.49-9.97,1.2-4.7-2.61-9.38-5.24-14.03-7.94-.8-.46-1.39-1.28-2.08-1.94,1.54,0,3.09,0,4.63,0Z"/><path class="cc" d="M0,305.65c1.71,.94,3.45,1.83,5.11,2.85,1.14,.7,1.69,1.79,1.74,3.18,.02,.65,.15,1.51,.57,1.91,1.35,1.26,.78,2.36,0,3.54-1.54,2.34-3.1,4.66-4.61,7.02-.98,1.53-1.88,3.11-2.81,4.66v-3.79c1.34-2.04,2.77-4.03,3.97-6.14,.71-1.26,1.2-2.69,1.54-4.1,.33-1.38,.18-2.76-1.3-3.6l-2.55,1.56,.76,.98L0,314.49v-8.84Z"/><path class="dd" d="M421,314.49c-3.78,.65-6.64,2.56-8.93,5.72-4.48,6.17-7.89,12.91-11.01,19.81-1.78,3.95-3.72,7.88-4.21,12.28-.11,1.02-.06,2.11,.2,3.1,.15,.56,.82,1.19,1.38,1.36,.35,.11,1.07-.49,1.41-.93,1.16-1.49,2.21-3.07,3.34-4.59,.21-.28,.57-.46,1.15-.49-.15,.41-.21,.9-.47,1.22-1.45,1.8-2.87,3.62-4.44,5.31-1.16,1.25-2.06,1.09-3.07-.27-1.03-1.37-.93-2.95-.55-4.44,.8-3.12,1.59-6.25,2.68-9.27,.97-2.69,2.23-5.3,3.57-7.84,2.22-4.22,4.53-8.39,6.95-12.5,1.06-1.8,2.34-3.5,3.73-5.06,2.2-2.46,4.99-4.04,8.27-4.67v1.26Z"/><path class="bi" d="M29.05,0c2.15,2.18,4.39,4.29,6.43,6.57,2.33,2.6,2.41,2.7,5.6,1.05C45.3,5.44,49.45,3.16,53.05,0h1.26c-.51,.54-.93,1.23-1.55,1.61-4.28,2.63-8.57,5.24-12.91,7.75-1.57,.91-2.45,.66-3.75-.65-.74-.74-1.33-1.62-2.07-2.36-1.17-1.19-2.44-2.27-3.58-3.49C29.63,1.98,28.95,.96,28.21,0h.84Z"/><path class="cu" d="M0,6.74L12.21,0h2.11c-.29,.28-.53,.64-.87,.83C8.97,3.23,4.48,5.61,0,8v-1.26Z"/><path class="bg" d="M32.84,0c1.12,1.85,2.84,2.61,4.92,2.46C40.26,2.28,42.69,1.8,44.63,0h2.11c-3.28,2.91-7.15,3.87-11.42,3.37C33.32,3.13,32,2.03,31.58,0h1.26Z"/><path class="bo" d="M409.21,421c1.6-.83,3.2-1.68,4.81-2.49,2.32-1.15,4.65-2.27,6.98-3.41v1.68c-2.81,1.4-5.61,2.81-8.42,4.21h-3.37Z"/><path class="br" d="M9.26,0L0,5.05v-1.68L6.32,0h2.95Z"/><path class="cx" d="M416.37,421c1.54-.84,3.09-1.68,4.63-2.53v2.53h-4.63Z"/><path class="cr" d="M273.07,140.38c-4.45-.04-4.21-.34-4.12-3.9,0-.28,.06-.6-.06-.83-.23-.46-.52-1.15-.88-1.21-.42-.08-1.06,.31-1.37,.69-.39,.46-.53,1.13-.78,1.7-.81,1.86-2.25,2.29-3.56,.83-.9-1-1.87-1.13-3.08-1.35-8.4-1.52-16.92-2.6-24.92-5.83-.97-.39-1.85-.99-2.81-1.42-.89-.39-1.79-.82-2.73-.98-2.05-.35-2.27-.43-1.88-2.57,.87-4.75,1.86-9.49,2.83-14.22,.45-2.2,.98-4.37,1.47-6.56,.39-1.76,.89-2.26,2.67-2.4,1.12-.09,2.26-.15,3.36-.02,8.75,1.05,17.65,1.13,26.16,3.87,1.51,.49,3.16,.57,4.75,.78,2.66,.35,3.36,.99,3.82,3.64,.07,.41,0,.9,.2,1.23,.22,.37,.63,.75,1.02,.82,.26,.05,.66-.38,.92-.67,.17-.19,.2-.51,.28-.78,.64-2.27,.64-2.22,3.07-2.34,.5-.02,1.15-.48,1.44-.93,1.97-3,4.6-3.84,8.15-3.32,14.31,2.1,28.35,5.47,42.4,8.76,11.19,2.62,22.38,5.25,33.56,7.88,6.05,1.42,8.85,5.6,8.19,11.77-.88,8.13-3.38,15.89-5.27,23.79-.76,3.16-2.71,4.39-6,4.51-4.02,.14-7.89-.29-11.79-1.58-3.22-1.07-6.74-1.18-10.11-1.81-12.75-2.37-25.51-4.63-38.21-7.22-7.34-1.49-14.57-3.55-21.86-5.29-2.72-.65-5.07-1.52-4.84-5.05Zm70.05,12.85c8.18,.16,11.26-2.31,12.59-8.41,.94-4.3,.58-8.48-.8-12.63-1.16-3.51-3.37-5.84-6.88-7.11-6.01-2.17-12.12-3.88-18.34-5.37-11.37-2.72-22.66-5.81-33.98-8.71-2.03-.52-4.09-.94-6.16-1.31-1.93-.34-2.51-.03-3.23,1.83-3.39,8.76-6.92,17.48-7.9,26.95-.2,1.96-.21,2,1.68,2.71,6.99,2.61,14.23,4.3,21.53,5.66,8.61,1.6,17.27,2.9,25.93,4.23,5.81,.9,11.65,1.62,15.56,2.16Zm-62.13-42.68c.13-.02,.33,0,.39-.07,1.76-2.39,4.06-2.47,6.77-1.96,18,3.37,35.56,8.52,53.24,13.2,3.23,.86,6.4,2.1,9.44,3.52,1.5,.7,3.11,1.94,3.85,3.37,3.25,6.25,3.91,12.82,1.31,19.51-1.44,3.71-4.2,6.11-8.16,6.39-3.74,.27-7.58,.23-11.3-.25-6.46-.83-12.86-2.11-19.28-3.19-6.08-1.02-12.25-1.68-18.22-3.12-7.21-1.74-14.26-4.12-21.39-6.23-.63-.18-1.26-.33-1.89-.5l-.26,.51c.8,.59,1.53,1.34,2.42,1.72,1.34,.58,2.78,.99,4.21,1.31,10.93,2.47,21.78,5.26,32.89,6.97,11.91,1.83,23.73,4.2,35.6,6.28,2.89,.5,5.82,.86,8.74,1.1,2.01,.16,3.49-.95,4.39-2.71,.48-.93,.83-1.93,1.11-2.94,.89-3.24,1.81-6.48,2.53-9.77,.82-3.76,1.48-7.56,2.09-11.36,.28-1.71,.33-3.47-.9-5.21-.61,3.22-.23,6.4-1.49,9.27l-.49-.05,.5-7.66-.59-.05c-.36,2.61-.93,5.21-1.03,7.82-.21,5.45-1.02,10.73-3.2,15.77-.3,.68-.49,1.41-.73,2.12,2.95-4.48,3.48-9.73,4.97-14.69,.08,1.36-.03,2.68-.18,3.99-.52,4.48-1.38,8.88-3.77,12.81-.59,.97-1.01,2.76-2.68,1.92-1.58-.79-.59-2.16-.19-3.32,1.26-3.63,2.94-7.2,3.62-10.94,1.04-5.71,1.41-11.53,1.99-17.32,.21-2.06-.12-2.32-2.16-2.9-4.38-1.24-8.74-2.52-13.12-3.78-.4-.12-.93-.42-1.19-.27-1.24,.73-2.09-.07-3.08-.57-.74-.37-1.58-.57-2.4-.75-2.18-.48-4.39-.89-6.57-1.38-13.88-3.07-27.75-6.25-41.66-9.18-3.46-.73-7.09-.82-10.65-.95-2.39-.08-3.56,1.32-3.49,3.55Zm-18.77,20.62c1.61-3,1-4.16-2.51-4.33-.91-.04-1.83-.06-2.72-.2-8.28-1.3-16.26-3.67-24.03-6.78-.64-.26-1.28-.59-1.83-1-.66-.49-1.03-1.16-.56-2.01,.48-.85,1.19-.82,2-.54,3.7,1.29,7.39,2.59,11.1,3.83,6.03,2.01,12.33,2.59,18.56,3.53,1.16,.17,1.96-.24,2.05-1.49,.09-1.26-.9-1.15-1.73-1.3-3.38-.59-6.78-1.08-10.12-1.85-5.66-1.31-11.28-2.8-16.91-4.25-.94-.24-1.86-.62-2.75-1.02-.82-.37-1.43-.96-1.04-1.99,.36-.94,1.14-.91,1.94-.76,2,.38,4,.71,5.98,1.18,7.84,1.86,15.6,4.06,23.65,4.97,1.76,.2,1.95,.07,1.99-1.72-4.15-1.01-8.3-1.95-12.42-3.03-5.7-1.49-11.36-3.13-17.28-3.48-.42-.02-.92,0-1.22-.23-.45-.33-.76-.85-1.12-1.29,.44-.34,.85-.74,1.34-.98,.28-.14,.69,0,1.04,0,5.99,.07,11.86,1.11,17.68,2.4,3.9,.86,7.78,1.84,11.67,2.73,1.53,.35,1.93,.06,2.16-1.36,.21-1.32-.21-1.79-2.08-2.31-6.18-1.72-12.52-2.36-18.87-2.97-2.93-.28-5.86-.69-8.79-.73-3.26-.04-4.3,.87-5.39,3.97-1.82,5.2-2.52,10.62-3.3,16.04-.16,1.12,.23,1.93,1.24,2.41,2.46,1.18,4.82,2.76,7.42,3.42,7.4,1.86,14.89,3.35,22.35,4.97,.93,.2,1.67-.08,2.14-1.14-1.11-.06-1.94-.07-2.77-.15-7.24-.7-14.17-2.72-20.98-5.14-2.11-.75-4.22-1.57-6.19-2.62-.97-.51-1.76-1.53-2.35-2.49-.25-.41,.1-1.34,.44-1.87,.11-.17,1.1,.09,1.6,.32,2.61,1.2,5.09,2.77,7.8,3.62,5.07,1.59,10.27,2.8,15.43,4.09,2.42,.61,4.89,1.05,7.4,1.58Zm1.36,5.05h.6c.14-.23,.36-.44,.42-.68,1.33-5.36,2.67-10.72,3.95-16.1,.6-2.52,1.11-5.06,1.56-7.61,.15-.88,.48-1.95-.82-2.7-.26,.49-.54,.86-.66,1.28-2.34,7.86-4.08,15.85-5.24,23.96-.09,.59,.12,1.23,.18,1.85Zm17.64-23.48l-.71-.3c-.34,.54-.81,1.04-.99,1.63-2.21,7.16-3.84,14.45-4.9,21.86-.14,.98-.05,1.91,.74,2.45,.53-2.55,1.01-5.07,1.6-7.57,.72-3.06,1.58-6.09,2.31-9.15,.7-2.96,1.3-5.95,1.95-8.93Zm-7.98,22.87c1.6-7.33,3.2-14.66,4.8-21.98l-.49-.17c-.3,.59-.66,1.16-.88,1.77-.88,2.43-1.74,4.86-2.57,7.31-.67,1.98-1.47,3.95-1.86,5.99-.45,2.36-.65,4.81,.99,7.09Zm-5.39-2.31l.6-.21c.45-1.83,.85-3.68,1.35-5.5,1.01-3.64,2.08-7.27,3.13-10.91,.2-.68,.54-1.54-.5-1.64-.45-.04-.98,.69-1.46,1.1-.09,.08-.09,.26-.12,.4-1.21,4.96-2.44,9.92-3.57,14.89-.13,.55,.36,1.24,.56,1.87Zm-29.07-13.01c7.17,2.66,14.49,4.34,22.11,4.72-7.35-1.57-14.7-3.14-22.11-4.72Zm45.77-9.27l-.6-.19c-2.15,3.05-2.07,6.81-2.78,10.31,1.13-3.37,2.26-6.75,3.39-10.12Zm-25.13,7.81l.04-.4c-3.31-.72-6.63-1.44-9.94-2.17l-.09,.42,9.99,2.15Z"/><path class="bk" d="M266.44,305.17c2.38-2.24,2.42-2.42,.82-5.38-2.76-5.12-5.58-10.21-8.3-15.36-1.14-2.17-2.03-4.47-3.12-6.66-2.74-5.53-5.49-11.04-8.31-16.53-.67-1.3-1.65-2.44-2.37-3.72-1.15-2.04-.85-2.91,1.08-4.13,3.25-2.07,6.48-4.17,9.69-6.29,2.8-1.84,5.88-2.89,9.19-3.33,1.09-.14,1.48,.54,1.88,1.31,5.22,9.93,10.39,19.88,15.71,29.76,2.26,4.18,4.86,8.18,7.29,12.27,.21,.36,.45,.74,.53,1.13,.18,.93,.72,1.27,1.62,1.3,2.55,.07,4.21,1.2,4.83,3.81,.2,.85,.91,1.56,1.35,2.36,7.78,13.97,15.53,27.94,23.35,41.89,.74,1.33,1.87,2.44,2.73,3.71,.9,1.32,1.84,2.65,2.51,4.09,.73,1.57,.39,2.51-1.12,3.35-8.39,4.67-16.56,9.76-25.39,13.6-2.09,.91-2.92,.46-3.87-1.66-.97-2.16-2.09-4.26-3.23-6.33-3.05-5.52-6.15-11.02-9.23-16.53-4.69-8.39-9.41-16.75-14.05-25.17-1.31-2.38-2.35-4.9-3.58-7.5Zm27.98-8.94c.46,.87,.82,1.62,1.24,2.33,6.82,11.68,13.67,23.34,20.43,35.06,1.04,1.8,1.71,3.83,2.43,5.79,.62,1.68,.66,1.76,2.52,1.19,0-.13,.05-.3,0-.4-8.31-14.7-16.61-29.41-24.96-44.09-.26-.46-.96-.95-1.47-.97-4.5-.15-8.82,.43-12.44,3.49-1.6,1.36-3.21,2.72-4.86,4.02-1.85,1.46-1.91,1.79-.82,3.82,3.66,6.78,7.31,13.57,10.94,20.37,4.15,7.79,8.26,15.61,12.41,23.4,1.12,2.1,1.63,2.43,3.86,1.6,3.01-1.12,5.96-2.42,8.82-3.88,1.99-1.02,3.31-2.76,3.81-5.04,.23-1.03,.1-1.8-.58-2.7-1.18-1.55-2.16-3.26-3.12-4.96-1.41-2.5-2.65-5.1-4.09-7.58-5.27-9.09-10.6-18.15-15.88-27.24-1.68-2.9-1.64-2.92,1.77-4.23Zm-16.2-4.41c-.37-.76-.64-1.32-.93-1.87-2.34-4.47-4.64-8.96-7.05-13.39-4.53-8.3-9.12-16.57-13.72-24.84-.28-.5-1.05-1.24-1.31-1.14-1.32,.51-2.68,1.11-3.77,1.99-.93,.75,0,1.69,.42,2.43,7.05,12.27,14.12,24.53,21.2,36.78,1.35,2.33,1.49,2.35,3.89,1,.45-.25,.83-.62,1.28-.96Zm-16.8-43.81c1.58,2.7,3.13,5.28,4.61,7.89,5.76,10.17,11.51,20.36,17.26,30.54,1.26,2.23,1.77,2.34,3.64,.72-.16-.35-.3-.74-.49-1.1-6.63-12.49-13.26-24.97-19.91-37.45-1.2-2.25-2.79-2.46-5.11-.6Zm10.26,58.39c-.92,2.35-.39,4,.51,5.62,4.27,7.72,8.55,15.44,12.79,23.17,2.76,5.03,5.48,10.09,8.22,15.13,.7,1.29,1.35,2.63,2.22,3.81,.28,.39,1.27,.63,1.73,.44,.75-.32,1-1.09,.5-1.94-1.39-2.35-2.74-4.72-4.13-7.06-2.61-4.39-5.37-8.7-7.82-13.18-4.31-7.86-8.43-15.82-12.64-23.73-.34-.64-.75-1.24-1.37-2.26Zm28.58,53.38c.94-.48,1.63-.79,2.28-1.17,3.75-2.17,7.48-4.38,11.23-6.54,3.03-1.74,6.13-3.36,9.12-5.18,1.63-.99,1.66-2.25,.13-3.3-1.01-.7-2.23-1.13-3.42-1.52-.83-.27-1.63,.04-1.58,1.09,.09,2.02-1.12,3.21-2.51,4.35-3.54,2.9-7.59,4.74-12.01,5.76-.97,.22-1.49,.53-1.55,1.58-.07,1.34-.84,1.84-2.15,1.53-.41-.1-.83-.19-1.24-.17-1.13,.05-1.61,.83-.89,1.65,.69,.79,1.71,1.29,2.59,1.92Zm-17.86-70.11l.53-.17c-.23-.65-.37-1.34-.7-1.94-4.89-8.91-9.76-17.83-14.74-26.69-2.02-3.59-4.29-7.05-6.47-10.55-.33-.52-.78-.97-1.18-1.45,.08,2.24,21.13,39.68,22.57,40.8Zm-34.6-34.05l-.54,.21c.12,.48,.16,.99,.37,1.43,2.77,5.89,5.32,11.88,8.81,17.41,2.05,3.25,3.9,6.64,5.77,10.01,1.91,3.43,3.73,6.89,5.58,10.35,.43,.8,.75,1.71,2.2,.88-7.42-13.48-14.8-26.89-22.19-40.3Zm2.02-.77c.86,3.25,20.57,38.83,22.31,40.1,.08-.29,.28-.61,.19-.77-7.51-13.16-15.04-26.31-22.5-39.33Zm45.4,46.12l-.45,.26c6.84,11.85,13.69,23.7,20.53,35.54-5.78-12.46-12.56-24.34-20.08-35.8Zm-5.89-10.88c-.7-.2-1-.39-1.17-.31-3.85,1.85-7.74,3.61-11.48,5.66-1.88,1.03-3.48,2.58-5.19,3.91-.41,.32-.73,.74-1.09,1.12l.26,.46c.69-.3,1.43-.54,2.07-.93,1.37-.83,2.65-1.81,4.04-2.61,3.28-1.88,6.6-3.67,9.89-5.53,.81-.46,1.56-1.03,2.67-1.77Zm-10.51,24.28l-.6,.32c4.18,7.84,8.37,15.69,12.55,23.53l.58-.31c-4.17-7.85-8.35-15.7-12.52-23.54Zm-7.76-40.74l-.28,.14c1.29,2.6,2.56,5.21,3.86,7.81,1.36,2.69,2.74,5.37,4.13,8.04,.33,.63,.61,1.45,1.6,1.05-3.14-5.74-6.23-11.39-9.31-17.04Zm-7.61-12.88l.46-.33c-2.01-3.66-4.02-7.32-6.03-10.98l-.48,.24c.14,.36,.24,.73,.43,1.06,1.87,3.34,3.75,6.67,5.62,10Zm25.87,32.58c1.59-.16,3.17-.31,4.92-.49-1.26-1.46-2.1-1.39-4.92,.49Z"/><path class="bt" d="M177.12,269.52c-2.5-.23-4.5-1.1-6.22-2.71-.46-.43-.92-.88-1.44-1.21-1.71-1.1-2.15-.97-3.4,.65-.42,.54-.97,1.02-1.56,1.35-9.12,5.09-18.23,10.2-27.42,15.18-1.76,.95-3.78,1.49-5.75,1.97-2.66,.65-4.75-.24-6.02-2.66-1.37-2.6-2.59-5.3-3.63-8.04-.92-2.42,.2-4.46,2.07-5.94,2.52-2,5.09-4,7.85-5.64,7.11-4.24,14.31-8.31,21.53-12.36,1.19-.67,2.6-1.04,3.95-1.33,1.38-.29,2.15-.99,2.21-2.37,.04-.97,.08-1.97-.1-2.91-.54-2.79,.1-5.22,2.3-7.02,1.89-1.55,3.86-3.07,5.98-4.27,8.43-4.75,16.95-9.34,25.39-14.07,2.38-1.33,4.2-1.04,6.23,.78,8.74,7.84,14.12,17.46,15.88,29.1,.31,2.02-.24,3.59-2.05,4.65-3.32,1.95-6.54,4.12-9.98,5.82-6.22,3.08-12.54,5.95-18.89,8.77-2.21,.98-4.62,1.53-6.93,2.27Zm13.55-44.47c-1.1,.39-2.23,.7-3.28,1.19-2.85,1.33-5.62,2.85-8.51,4.1-3.66,1.59-7.4,2.99-11.09,4.5-1.83,.75-2.59,2.06-2.26,3.75,.6,3.09,4.71,5.67,7.69,4.76,3.15-.96,6.24-2.11,9.4-3,8.87-2.5,15.9-.78,21.03,7.55,.18,.3,.37,.6,.6,.86,.47,.51,.92,1.08,1.49,1.46,1.39,.94,2.9,.99,4.37,.16,1.38-.78,1.84-2.04,1.68-3.57-.07-.63-.11-1.26-.27-1.87-2.23-8.55-6.95-15.68-12.76-22.17-.36-.4-.89-.69-1.39-.91-2.32-1.04-4.09-.18-4.6,2.29-.25,1.24-.98,1.38-2.1,.9Zm13.82,29.26c-1.65-2.51-3.04-4.93-4.74-7.12-3.03-3.89-6.91-6.09-12.06-5.14-.27,.05-.56,.03-.84,.06-4.64,.5-9.01,1.98-13.29,3.77-1.05,.44-1.6,1.19-.96,2.33,2.01,3.53,3.59,7.43,6.18,10.46,3.9,4.57,7.84,5.78,12.72,2.78,3.45-2.13,7.14-3.85,10.72-5.77,.66-.35,1.28-.77,2.26-1.37Zm-74.5,28.78c1.35-.4,2.86-.71,4.25-1.3,4.51-1.91,8.87-4,12.93-6.87,4.66-3.3,9.85-5.85,14.78-8.78,.6-.36,1.24-.99,1.45-1.62,1.19-3.67-.67-9.14-3.83-11.58,.51,2.27,.43,2.57-1.66,3.85-1.37,.84-2.82,1.55-4.25,2.28-1.37,.7-2.79,1.31-4.15,2.04-6.35,3.41-12.7,6.83-19.02,10.31-1.09,.6-2.04,1.46-3.03,2.22-.54,.41-.99,1.11-1.58,1.24-.53,.11-1.18-.39-1.86-.65,.77,3.08,2.03,5.72,4.92,7.29,.37,.2,.53,.76,1.06,1.57Zm54.78-19.01c-4.69-.81-7.3-4.06-9.66-7.64-1.96-2.98-3.85-6.02-5.97-8.88-1.66-2.24-3.57-4.3-5.48-6.34-.38-.41-1.47-.72-1.81-.48-.5,.35-.92,1.28-.84,1.9,.33,2.6,1.15,5.04,2.99,7.03,.85,.93,1.71,1.85,2.49,2.84,2.41,3.04,4.55,6.16,4.53,10.34,0,2.23,1.86,3.94,4.13,3.97,3.4,.06,6.64-.69,9.62-2.73Zm-58.95,4.98l.26,.47c5.2-3.11,10.36-6.27,15.6-9.31,5.3-3.07,10.54-6.25,16.48-8.59-3.45-.46-29.31,13.63-32.34,17.43Zm28.37-12.7l-.25-.45c-8.44,3.89-16.54,8.41-24.16,13.78,8.14-4.44,16.27-8.88,24.41-13.33Zm10.18-2.14l-.21,.08c.77,1.99,1.54,3.98,2.3,5.97,.43,1.12,1.1,1.49,2.55,.64-1.6-2.3-3.12-4.5-4.64-6.69Z"/><path class="ct" d="M57.57,348.13c-.13-3.21,.54-6.26,1.97-9.14,4.81-9.66,9.6-19.34,14.41-29,2.58-5.17,5.53-10.11,9.8-14.08,1.17-1.09,2.79-1.91,4.34-2.33,1.07-.29,2.51,.07,3.58,.57,2.59,1.23,5.02,2.79,7.58,4.07,9.59,4.81,19.25,9.46,28.77,14.38,3.15,1.63,5.99,3.89,8.91,5.94,2.21,1.56,3.13,3.73,2.53,6.42-.45,2.05-.95,4.09-1.47,6.12-.35,1.36-.83,2.68-1.19,4.03-1.35,5.15,.25,8.83,4.98,11.15,8.37,4.11,16.78,8.13,25.17,12.2,4.1,1.99,8.18,4.01,12.29,5.97,1.32,.63,2.71,1.13,4.08,1.68,1.69,.67,2.15,1.32,1.74,3.03-.36,1.48-.86,2.94-1.48,4.33-1.34,3.01-2.79,5.97-4.21,8.94-.55,1.14-1.09,2.29-1.76,3.35-.91,1.44-1.68,1.47-3.17,.65-4.41-2.44-8.84-4.83-13.28-7.19-3.77-2-7.58-3.95-11.38-5.89-6.36-3.25-12.7-6.56-19.11-9.7-3.68-1.8-8.05-.82-10.66,2.33-2.32,2.8-4.5,5.72-6.6,8.68-1.47,2.06-3.26,3.63-5.51,4.74-1.09,.54-2.09,.55-3.2-.04-11.52-6.1-23.11-12.07-34.55-18.32-3.97-2.18-7.59-5.02-11.29-7.68-.64-.46-1.05-1.46-1.24-2.28-.21-.93-.05-1.95-.05-2.93Zm68.99,10.77c-.12,.05-.29,.06-.34,.14-.82,1.35-1.96,1.45-3.27,.85-1.37-.62-1.42-1.77-1.15-3.03,.12-.55,.18-1.11,.29-1.66,1-5.05,2.9-9.67,6.57-13.39,.76-.77,1.74-1.51,2.75-1.81,.7-.21,1.86,.13,2.38,.65,.41,.41,.24,1.49,.15,2.25-.06,.48-.45,.92-.93,1.81,1.14-.61,1.83-.99,2.71-1.46-2.36-3.8-1.47-7.41-.16-11.08,.85-2.37,1.51-4.81,2.16-7.24,.69-2.57,.16-3.95-2.02-5.4-2.28-1.51-4.52-3.11-6.93-4.38-5.88-3.11-11.84-6.09-17.79-9.07-6.71-3.36-13.46-6.61-20.15-10-2.1-1.06-3.91-.98-5.55,.68-1.42,1.44-3.02,2.8-4.05,4.5-3.02,4.97-5.93,10.01-8.65,15.15-3.83,7.24-7.51,14.57-11.12,21.93-.97,1.99-1.64,4.18-2.09,6.35-1.04,4.95,.35,7.66,4.78,10.01,3.34,1.77,6.71,3.51,10.01,5.36,9.23,5.18,18.43,10.41,27.66,15.59,1.09,.61,2.27,1.09,3.45,1.52,1.86,.68,3.47,.1,4.76-1.3,.7-.77,1.23-1.7,1.85-2.54,1.99-2.71,3.98-5.42,5.99-8.11,1.77-2.36,4.11-3.78,7.07-4.09,1.44-.15,2.01-.82,1.63-2.25Zm5.17-5.63c.5-.56,.7-.73,.82-.94,.92-1.67,1.64-2.01,3.37-1.5,1.94,.57,3.13,1.91,3.5,3.83,.39,2,1.57,3.13,3.31,4.02,5.87,2.99,11.72,6.04,17.54,9.13,5.45,2.89,10.85,5.88,16.29,8.8,1.91,1.02,2.56,.84,3.46-.76,1.4-2.5,1.34-3.19-.61-4.37-1.8-1.09-3.63-2.13-5.5-3.1-12.65-6.53-25.31-13.04-37.96-19.55-.5-.26-1-.52-1.53-.71-1.48-.51-2.76,.27-2.85,1.79-.05,.94,.08,1.89,.16,3.36Zm-2.64,4.21c-1.01,1.53-.53,2.51,.4,3.25,.7,.56,1.56,.91,2.37,1.32,7.21,3.72,14.43,7.43,21.63,11.16,2.98,1.55,5.9,3.21,8.9,4.71,3.63,1.82,7.31,3.54,10.96,5.3,.32,.15,.7,.49,.94,.41,.65-.24,1.37-.54,1.79-1.04,.18-.23-.21-1.09-.53-1.51-.27-.35-.83-.49-1.27-.71-13-6.7-26-13.41-39.01-20.09-1.98-1.01-4.04-1.84-6.17-2.81Zm5.03-11.26c15.94,8.29,31.78,16.54,47.61,24.78,1.24-2.13,1.17-2.6-.65-3.62-1.65-.93-3.34-1.79-5.03-2.63-13.07-6.46-26.15-12.91-39.22-19.38-1.03-.51-1.83-.52-2.72,.85Zm44.13,33.11c-.72-.49-1.18-.88-1.7-1.15-11.17-5.84-22.35-11.67-33.54-17.49-.8-.42-1.62-.9-2.49-1.08-3.12-.66-6.21-1.3-8.08-4.29-.03-.06-.1-.12-.16-.13-.76-.12-2.02-.56-2.19-.3-.7,1.08,.48,1.35,1.15,1.71,6.22,3.37,12.41,6.8,18.7,10.03,8.53,4.39,17.14,8.62,25.73,12.91,.43,.22,.9,.48,1.36,.51,.3,.02,.63-.35,1.24-.73Zm-53.96-20.76c.74-1.76,1.29-3.13,1.89-4.48,.62-1.41,1.24-2.82,1.93-4.2,.72-1.44,1.56-2.83,2.24-4.28,.61-1.3,1.87-2.36,1.81-4.09-4.17,1.69-9.18,12.2-7.87,17.05Zm13.5-1.79c.24-2.75-.44-3.94-2.13-4.06-.41-.03-.87,.54-1.31,.84,.53,.72,.98,1.51,1.6,2.14,.42,.43,1.06,.64,1.84,1.09Z"/><path class="cg" d="M219.76,194.93c-.66,.38-1.38,.69-1.96,1.16-2.1,1.74-2.08,1.76-3.98-.07-1.01,.27-2.05,.85-2.96,.7-1.11-.18-2.17-.9-3.17-1.52-13.14-8.12-25.19-17.78-37.73-26.75-2.84-2.03-5.8-3.92-8.53-6.08-1.85-1.47-3.52-3.21-5.05-5.01-1.2-1.42-1.1-3.24-.1-4.74,3.34-5.01,6.78-9.96,10.21-14.92,.39-.57,.93-1.05,1.45-1.52,2.85-2.61,5.96-2.95,9.22-.84,5.48,3.53,10.95,7.09,16.33,10.76,8.34,5.69,16.64,11.45,24.9,17.25,2.81,1.97,5.48,4.15,8.19,6.25,1.86,1.45,2.81,3.26,2.2,5.7-.12,.49-.09,1.29,.21,1.55,1.28,1.13,1,2.15,.08,3.27-.16,.19-.19,.49-.28,.74,.76,.97,1.37,.37,2.03-.01,1.89-1.1,2.4-1.02,4.11,.4,.86,.72,1.7,1.5,2.66,2.04,6.07,3.4,10.85,8.39,16.04,12.88,.58,.5,1.05,1.13,1.54,1.72,.66,.79,.73,1.61,.1,2.49-3.08,4.34-6.12,8.72-9.23,13.04-1.17,1.62-1.24,1.55-2.96,.36-.4-.28-.86-.46-1.29-.68-3.4-1.79-6.93-3.37-10.16-5.43-3.18-2.02-6.03-4.55-9.07-6.8-.45-.33-1.11-.43-1.69-.51-1.68-.25-2.09-.99-1.59-2.6,.28-.91,.32-1.89,.47-2.84,1.07,0,1.8-.43,2.27-1.48,.45-1.01,1.12-1.94,1.75-2.86,1.34-1.96,2.74-3.89,4.07-5.86,.35-.52,1.09-1.18,.15-1.73-.19-.11-1.01,.5-1.29,.93-2.35,3.65-4.63,7.33-6.94,11Zm29.03,12.61c1.18-1.63,2.48-3.19,3.52-4.91,1.79-2.95,1.73-4.17-.79-6.46-3.99-3.62-8.17-7.05-12.31-10.51-1.02-.85-2.18-1.54-3.31-2.24-1.67-1.04-2.09-.85-2.77,1.26,.58,.42,1.19,.87,1.82,1.3,2.89,1.98,5.89,3.82,8.66,5.96,2.99,2.31,5.79,4.87,8.62,7.38,.31,.27,.27,.93,.39,1.41-.55-.01-1.24,.18-1.63-.07-.93-.61-1.65-1.53-2.57-2.16-5.6-3.83-11.24-7.61-16.92-11.45-1.11,.86-.63,1.49,.21,2.12,2.76,2.05,5.47,4.16,8.27,6.14,3.09,2.18,6.3,4.2,9.4,6.38,.76,.53,2.25,1.06,1.31,2.36-.85,1.18-1.97,.18-2.79-.31-2.09-1.28-4.1-2.68-6.13-4.07-4.16-2.85-8.3-5.73-12.45-8.59-.16-.11-.38-.13-.56-.19-1.25,.77-1.01,1.51-.06,2.31,5.74,4.87,11.79,9.27,18.72,12.33,.95,.42,1.52,.96,1.37,2.05-.87,.02-1.87,.34-2.58,.01-6.56-3.04-12.81-6.59-18.25-11.42-1.99-1.77-2.62-1.64-3.6,.83,1.16,.79,2.32,1.55,3.44,2.36,5.51,3.97,10.99,7.97,17.67,9.86,.5,.14,.85,.78,1.37,1.29,.64-.99,1.28-1.98,1.92-2.96Zm-27.34-37.87c-.55-.27-1.14-.49-1.66-.83-4.23-2.75-8.43-5.54-12.67-8.27-4.36-2.81-8.72-5.62-13.15-8.32-3.65-2.22-7.37-4.33-11.1-6.4-1.56-.86-3.28-1.22-5.08-.67-4.65,1.41-8.23,4.15-10.45,8.52-1.35,2.65-1.06,5.2,.85,7.45,1.04,1.22,2.23,2.34,3.48,3.34,5.63,4.53,11.24,9.07,16.98,13.46,4.73,3.62,9.57,7.09,14.47,10.48,2.4,1.66,5.05,2.96,7.6,4.43,.5-.54,.83-.89,1.15-1.25,4.29-4.83,7.14-10.54,9.91-16.3,1.84-3.82,1.86-2.66-.36-5.64,2.7,1.06,4.75,2.66,4.82,6.37,1.12-2.02,.8-3.41-.38-4.48-2.23-2.01-4.49-4.03-6.91-5.8-4.29-3.15-8.75-6.07-13.07-9.18-6.84-4.92-14.02-9.33-20.9-14.21-2.79-1.98-5.89-3.51-8.78-5.36-1.23-.79-2.06-.53-2.89,.48-4.65,5.66-10.33,10.56-12.87,17.76-.27,.76-1.29,1.25-2.01,1.91,1.41,1.84,33.5,26.28,36.46,27.52-.69-.61-1.06-.98-1.48-1.31-5.34-4.1-10.74-8.12-16-12.32-3.22-2.58-6.39-5.26-9.28-8.2-3.34-3.4-3.44-7.1-.86-11.09,2.21-3.42,5.32-5.7,9.06-7.22,1.93-.78,3.83-.9,5.7,0,2.27,1.09,4.57,2.16,6.72,3.47,5.38,3.3,10.71,6.67,16,10.11,5.29,3.44,10.5,6.98,15.74,10.51,.38,.26,.64,.69,.96,1.05Zm-.78,28.98c2.82-1.68,11.73-14.64,11.83-16.99-1.87,.92-10.37,13.03-11.83,16.99Zm2.46,.2l-.35,.31c.45,.52,.84,1.12,1.37,1.54,1.32,1.04,2.69,2.02,4.06,2.99,2.69,1.9,5.3,3.94,8.12,5.62,2.15,1.28,4.54,2.17,6.88,3.07,1.32,.51,1.53,.3,2.05-.58-8.38-2.53-15.48-7.34-22.13-12.95Zm-55.51-57.48l-.53-.43c1.41-1.7,2.82-3.4,4.4-5.32-2.92,1.18-8.76,8.36-9.43,11.37,1.01-1.09,1.99-2.15,2.98-3.21l.29,.28-.94,1.49c2.43-2.32,5.05-4.45,6.48-7.61-1.08,1.14-2.17,2.29-3.25,3.43Zm58.41,38.06l-.27-.1c-3.11,4.48-6.21,8.96-9.32,13.44l.39,.43c.61-.38,1.33-.66,1.8-1.17,1.12-1.23,2.29-2.47,3.13-3.89,1.49-2.52,2.76-5.16,4.09-7.77,.14-.27,.12-.62,.17-.94Zm-12.15,13.63l.39,.33c2.34-2.26,4.18-4.95,5.96-7.66,1.79-2.72,3.94-5.26,4.98-8.4l-.59-.37c-3.58,5.37-7.16,10.74-10.75,16.11Zm-2.64,1.94l.24-.57c-4.07-2.32-8.15-4.64-12.22-6.95l-.26,.42c3.27,2.12,6.52,4.28,9.82,6.34,.69,.43,1.61,.52,2.42,.76Zm13.32-20.45l-.65-.35c-.79,1.55-1.58,3.1-2.37,4.66l.42,.22c.86-1.51,1.73-3.02,2.59-4.53Zm9.75,24.92l.37-.42c-1.55-1.21-3.1-2.42-4.65-3.63l-.33,.42c1.54,1.21,3.08,2.42,4.62,3.63Z"/><path class="cw" d="M403.73,241.51c-.49,.82-.85,1.57-1.35,2.21-5.17,6.56-10.47,13.01-15.5,19.67-3.29,4.36-6.28,8.95-9.23,13.55-3.35,5.21-4.39,11.16-5,17.2-.2,1.95-.38,3.91-.79,5.82-2.6,12.03-7.33,23.09-15.02,32.8-1.76,2.23-2.56,2.5-5.2,1.31-7.33-3.28-14.38-6.97-20.2-12.69-2.24-2.2-5.05-3.84-7.25-6.08-2.98-3.04-5.75-6.32-8.37-9.67-1.75-2.24-1.52-3.8,.24-6.1,5.54-7.25,12.63-12.73,20.35-17.42,3.65-2.22,7.56-4,11.3-6.06,1.33-.73,2.51-1.72,3.77-2.58,.45-.3,.93-.56,1.41-.81,1.67-.86,3.5-1.5,4.99-2.6,7.19-5.33,13.49-11.62,19.37-18.34,2.13-2.43,4.38-4.74,6.48-7.19,2.78-3.24,5.46-6.58,8.21-9.85,1.5-1.79,1.86-1.84,3.92-.78,2.39,1.22,4.69,2.58,6.31,4.79,.6,.82,1,1.8,1.55,2.81Zm-76.27,64.45l.56,.56c1.59,1.24,3.17,2.51,4.79,3.72,6.13,4.57,12.37,8.99,17.79,14.43,1.24,1.24,2.64,1.4,4.22,.54,2.58-1.41,4.67-3.27,6.12-5.89,3.93-7.12,6.5-14.71,8.23-22.64,.63-2.91-.02-5.1-2.08-7.23-3.83-3.96-8.25-7.16-12.62-10.43-2.81-2.1-3.6-2.28-6.56-.29-4.66,3.12-9.3,6.28-13.77,9.67-3.11,2.36-6.12,4.94-8.79,7.79-3.23,3.45-2.19,7.48,2.12,9.79Zm8.19-20.45l-.26-.33c-6.36,4.15-12.21,8.89-17.27,14.58-1.43,1.61-1.69,2.79-.41,4.54,2.15,2.92,4.31,5.92,6.93,8.38,6.81,6.39,14.47,11.74,22.33,16.75,1.65,1.05,3.41,1.94,5.13,2.88,.93,.5,1.8,.58,2.68-.26,5.21-4.97,7.74-11.5,10.42-17.93-1.12,1.9-2,3.93-3.11,5.82-1.01,1.74-2.11,3.49-3.45,4.97-2.29,2.54-6.92,2.69-9.65,.12-3.72-3.49-7.8-6.6-11.8-9.77-3.51-2.78-7.15-5.41-10.7-8.15-1.99-1.53-3.43-3.46-4.14-5.92-.47-1.62-.36-3.11,.8-4.32,2.45-2.58,4.91-5.16,7.51-7.58,1.52-1.42,3.32-2.54,4.99-3.8Zm28.39-12.38c1.13-.43,2.16-.57,2.84-1.13,1.61-1.32,3.2-2.72,4.54-4.31,7.34-8.75,14.59-17.57,21.87-26.37,1.28-1.55,2.51-3.14,3.76-4.69-1.95-1.74-3.51-1.58-5.17,.31-6.67,7.57-13.34,15.14-20.01,22.71-1.72,1.94-3.48,3.84-5.16,5.82-1.76,2.08-2.78,4.45-2.66,7.66Zm26.87-26.28l-.49-.46c-.23,.41-.41,.86-.7,1.22-6.01,7.31-12.07,14.58-18.04,21.92-1.62,1.99-3.43,3.71-5.68,4.92-1.73,.93-2.66,.58-3.15-1.27-.32-1.22-.33-2.51-.48-3.82-1.87,1.15-3.8,2.33-5.93,3.63,3.94,4.37,8.14,7.98,12.9,11.05,1.14-2.23,1.68-4.34,1.13-6.66-.37-1.56-.11-3.08,.76-4.44,1.66-2.59,3.19-5.29,5.05-7.73,3.41-4.45,7.04-8.73,10.55-13.09,1.39-1.72,2.71-3.5,4.07-5.25Zm-18.68,30.82c.54-.69,.82-.99,1.05-1.33,8.22-12.24,17.09-23.98,26.82-35.07,.23-.26,.59-.54,.61-.83,.02-.48-.05-1.1-.34-1.42-.19-.21-.9-.12-1.27,.06-.34,.16-.55,.61-.82,.94-5.77,7.15-11.56,14.28-17.31,21.44-2.19,2.73-4.37,5.49-6.42,8.33-1.57,2.18-2.66,4.6-2.32,7.88Zm.2,8.09c.31-.81,.53-1.54,.86-2.22,2.24-4.5,4.14-9.22,6.86-13.41,3.69-5.68,7.97-10.99,12.08-16.39,2.44-3.21,5.03-6.3,7.55-9.44l-.34-.32c-.48,.55-.99,1.07-1.44,1.64-3.63,4.53-7.14,9.16-10.91,13.58-5.02,5.89-9.24,12.32-13.35,18.83-1.07,1.7-1.85,3.6-2.65,5.46-.43,1-.29,1.95,1.34,2.28Zm-17.82-11.53c.78,3.42,13.44,13.63,17.55,14.13-6.22-4.65-12.5-8.62-17.55-14.13Zm15.9,21.96l.52,.11c.22-1.13,.52-2.25,.63-3.38,.23-2.4-.06-2.71-2.66-3.14,1.56,1.92,1.81,4.1,1.51,6.41Z"/><path class="cf" d="M254.17,352.45c2.64-.04,3.21,.32,4,2.98,1.84,6.18,3.51,12.41,5.38,18.57,2.18,7.17,4.48,14.3,6.76,21.44,.64,2.01,.43,2.35-1.66,2.39-.49,.01-1,0-1.45,.15-11.99,3.66-23.98,7.33-35.97,11.02-.93,.29-1.8,.8-2.75,1.04-1.2,.31-1.61-.21-1.57-1.42,.03-1.08,0-2.22-.34-3.23-3.11-9.3-6.38-18.55-9.43-27.88-6.84-20.98-13.5-42.03-20.43-62.99-1.56-4.72-.42-7.09,4.38-8.88,3.8-1.42,7.72-2.53,11.59-3.77,5.94-1.9,11.86-3.85,17.83-5.66,1.93-.58,3.95-.96,5.96-1.12,2.72-.22,3.63,.56,4.4,3.17,2,6.86,3.92,13.75,6,20.58,2.51,8.24,5.15,16.45,7.75,24.67,.95,2.99,2.44,5.97-.47,8.93Zm1.37,2.72c-.53,0-.75-.05-.93,0-12.04,3.71-24.09,7.42-36.12,11.16-2.6,.81-2.73,1.12-1.83,3.8,3.9,11.69,7.81,23.38,11.73,35.06,.66,1.97,.9,2.08,2.88,1.48,11.25-3.42,22.51-6.84,33.77-10.25,2.47-.75,2.64-1,1.91-3.6-1.83-6.54-3.61-13.1-5.58-19.6-1.84-6.08-3.89-12.1-5.82-18.05Zm-22.41-57.85v.25c.64,0,1.34-.18,1.87,.05,.56,.23,1.26,.81,1.33,1.32,.07,.53-.45,1.22-.86,1.71-.23,.27-.76,.34-1.17,.39-4.56,.62-8.81,2.18-12.96,4.13-2.02,.95-4.22,1.5-6.33,2.24-3.7,1.28-7.39,2.57-11.09,3.85-.66,.23-1.32,.49-2,.62-1.71,.33-2.38-.22-2.41-1.92,0-.37,.04-.73,.07-1.23-1.78,1.19-1.86,1.4-1.35,2.95,.85,2.59,1.7,5.19,2.53,7.78,4.37,13.6,8.74,27.21,13.12,40.81,1.07,3.33,3.02,4.37,6.46,3.46,.88-.23,1.76-.49,2.62-.76,8.87-2.84,17.73-5.69,26.6-8.54,.33-.11,.67-.21,.99-.36,2.1-.98,3.33-2.6,3.28-4.93-.02-1.16-.29-2.36-.65-3.47-2.41-7.54-4.88-15.06-7.32-22.58-1.23-3.79-2.46-7.59-3.67-11.39-1.3-4.07-2.65-8.12-3.83-12.22-.71-2.46-1.14-2.92-3.61-2.56-.55,.08-1.08,.27-1.61,.41Z"/><path class="cb" d="M324.59,32.77c1.17-2.17,2.73-2.49,4.49-2.68,5.48-.59,10.85,0,15.89,2.11,4.4,1.84,8.68,2.3,13.32,1.24,2.49-.57,5.15-.57,7.73-.53,2.65,.04,3.17,.71,3.2,3.34,.13,10.8-.11,21.59-1.66,32.31-.09,.62-.21,1.25-.39,1.85-.33,1.15-1.1,1.77-2.33,1.69-3.98-.24-8-.16-11.58-2.43-1.44-.91-3.1-1.07-4.86-.66-6.6,1.51-13.34,1.71-20.07,1.72-1.15,0-2.43-.57-3.43-1.21-1.69-1.08-2.86-1.16-4.23,.35-.76,.84-1.51,1.34-2.7,1.27-5.18-.27-10.36-.52-15.54-.68-11.56-.35-23.13-.63-34.69-.95-2.19-.06-2.8-.41-3.06-2.63-.46-3.88-1-7.81-.88-11.7,.25-7.91,.92-15.81,1.42-23.71,.03-.49,.07-.98,.13-1.47,.36-2.63,.85-3.17,3.49-3.11,14.5,.35,29,.76,43.51,1.14,1.19,.03,2.38,.1,3.57,.13,3.44,.1,6.85,.24,8.66,4.59Zm-7.48,32.27l.27-.81c.28-.78,.65-1.55,.84-2.35,1.72-7.09,1.88-14.29,1.48-21.53-.14-2.58-.41-5.16-.68-7.73-.16-1.49-1.1-2.18-2.57-2.25-5.87-.3-11.72-.65-17.63-.56-9.44,.14-18.92,.55-28.35-.69-2.48-.33-2.94,.1-3.2,2.61-.35,3.34-.83,6.69-.98,10.04-.3,6.79-.44,13.58-.56,20.37-.02,1.24,.37,2.49,.6,3.73,.16,.85,.6,1.31,1.57,1.35,3.78,.16,7.55,.49,11.33,.57,7.92,.18,15.84,.21,23.76,.36,3.57,.07,7.14,.32,10.72,.42,2.09,.06,2.52-.31,3.15-2.31,.13-.4,.16-.82,.24-1.24Zm15.63-32.98c-.91,0-1.82,0-2.73,0-2.85,.03-3.41,.69-3.12,3.56,.25,2.51,.77,5.03,.63,7.52-.31,5.8-.92,11.58-1.45,17.36-.15,1.6-.54,3.18-.64,4.78-.11,1.74,.5,2.49,2.17,2.78,1.51,.26,3.07,.56,4.59,.47,3.84-.24,7.67-.61,11.49-1.07,3.42-.41,6.91-1.2,10.13,.43,2.98,1.51,6.08,2.01,9.31,2.22,2.07,.13,2.42-.05,2.76-2.18,1.15-7.35,1.74-14.74,1.52-22.19-.08-2.65-.06-5.31,0-7.97,.06-2.43-.2-2.74-2.71-2.82-2.47-.08-4.87,.12-7.25,.92-4.11,1.39-8.03,.36-11.84-1.25-4.12-1.75-8.34-2.88-12.86-2.56Zm-14.43,36.24l.5,.15c.21-.17,.46-.3,.62-.5,2.45-3.08,4.19-6.44,4.24-10.5,.01-.97,.22-1.94,.29-2.92,.36-4.67,.75-9.33,1.03-14.01,.19-3.25-1.14-6-3.23-8.4-.28-.32-.67-.54-1.14-.9,1.92,12.68,.82,24.94-2.29,37.08Z"/><path class="bm" d="M99.12,138.82c2.94-1.24,4.81,.24,6.8,1.67,11.22,8.07,22.47,16.08,33.73,24.09,2.94,2.09,3.23,3.02,1.57,6.3-.6,1.18-1.29,2.34-2.08,3.41-5.09,6.96-10.22,13.91-15.35,20.84-.66,.89-1.39,1.78-2.24,2.49-2.09,1.75-3.88,1.77-6.09,.13-5.91-4.39-11.8-8.82-17.71-13.21-12.28-9.11-24.59-18.18-36.86-27.31-4.44-3.31-8.76-6.78-13.19-10.11-.8-.6-1.81-.97-2.79-1.25-.96-.28-1.09-.78-.74-1.55,.14-.31,.43-.55,.64-.83,6.75-9.31,13.49-18.62,20.22-27.94,.28-.38,.44-.86,.61-1.32,.59-1.61,.94-1.7,2.37-.68,8.85,6.31,17.7,12.61,26.55,18.92,1.37,.98,2.78,1.91,4.06,3,.93,.78,1.84,1.74,.5,3.35Zm7.3,4.58c-.06-.08-.13-.15-.21-.2-.52-.47-1.01-.97-1.56-1.4-3.78-2.98-6.25-2.54-9.11,1.41-3.73,5.17-7.56,10.28-11.34,15.41-1.29,1.75-2.62,3.47-3.83,5.28-1.7,2.54-1.41,4.39,1,6.17,12,8.89,24.02,17.75,36.03,26.63,.9,.66,1.74,.89,2.51-.18-2.51-1.16-2.68-1.93-.93-4.15,.13-.16,.28-.32,.41-.48,1.77-2.26,3.54-4.51,5.3-6.77,1.68-2.15,3.22-4.44,5.06-6.44,2.29-2.5,4.43-5.06,5.96-8.1,.28-.56,.61-1.12,1.03-1.58,.8-.86,1.85-.74,2.46,.24,.2,.32,.26,.74,.45,1.33,.86-2.36,.77-2.62-.94-3.69-1.25-.78-2.51-1.54-3.7-2.41-7.29-5.35-14.55-10.73-21.83-16.1-2.25-1.66-4.51-3.31-6.77-4.97Zm-9.03-6.12c-9.24-7.42-18.79-13.94-28.41-20.37-1.59-1.06-1.91-.95-3.05,.65-5.99,8.39-11.99,16.78-17.98,25.17-1.07,1.49-1.03,1.79,.43,2.9,8.27,6.28,16.54,12.55,24.82,18.81,3.07,2.32,3.06,2.27,5.27-.82,5.84-8.16,11.7-16.29,17.56-24.43,.4-.56,.8-1.12,1.36-1.9Z"/><path class="de" d="M329.13,186.94c1.85-3.79,4.81-3.6,7.74-3.35,10.4,.89,20.8,1.82,31.2,2.73,3.77,.33,7.54,.63,11.3,1.02,2.32,.24,2.99,.95,2.86,3.28-.49,8.68-.98,17.35-1.65,26.02-.18,2.35-.95,4.66-1.6,6.95-.51,1.81-1.11,2.2-2.89,2.05-7.12-.6-14.24-1.25-21.37-1.87-7.75-.67-15.5-1.34-23.25-1.96-1.19-.1-2.09-.38-2.82-1.45-1.08-1.56-1.96-1.51-3.78-.68-1.02,.46-2.29,.76-3.38,.61-5.97-.79-11.92-1.69-17.7-3.57-1.39-.45-3.28-.25-4.67,.32-3.45,1.41-6.91,.87-10.38,.59-.58-.05-1.25-.99-1.57-1.67-.28-.58-.13-1.38-.15-2.08-.32-9.56,.67-19.05,1.83-28.52,.3-2.46,.76-2.97,3.26-2.69,2.7,.31,5.42,.8,8,1.6,3.28,1.02,6.42,1.11,9.7,.14,4.93-1.45,9.93-1.6,14.98-.58,1.69,.34,3.32,.66,4.35,3.08Zm3.05,28.61l-.02-.04c.38,4.1,.75,4.43,4.86,4.62,2.8,.14,5.6,.35,8.39,.52,9.58,.6,19.02,2.63,28.66,2.59,3.33-.01,3.34,.21,4.17-2.96,.07-.27,.16-.54,.18-.82,.56-5.78,1.2-11.56,1.64-17.35,.25-3.28,.11-6.59,.26-9.88,.11-2.48-.48-3.13-3-3.04-1.53,.05-3.08,.09-4.6-.04-3.14-.27-6.27-.69-9.4-1.01-3.28-.33-6.56-.58-9.84-.91-4.8-.49-9.59-1.19-14.4-1.49-4.92-.31-5.22,.06-5.94,5-.59,4.02-1.23,8.04-1.58,12.08-.37,4.25-.52,8.53,.62,12.72Zm-44.09-6.98l.39,.04c0,1.68-.04,3.37,0,5.05,.06,1.98,.24,2.13,2.12,2.4,2.75,.4,5.39,.13,8.08-.7,1.74-.54,3.72-.54,5.57-.4,1.79,.14,3.54,.84,5.32,1.18,3.5,.67,6.99,1.59,10.52,1.83,4.86,.33,4.86-.02,4.85-4.86,0-5.95,.14-11.9,.46-17.84,.13-2.42,.91-4.81,1.38-7.22,.25-1.26-.25-2.08-1.54-2.26-3.6-.51-7.21-1.25-10.86-.46-1.92,.41-3.82,.88-5.72,1.37-3.52,.91-6.87,.65-10.26-.83-1.82-.79-3.92-.96-5.9-1.34-1.28-.24-1.96,.32-2.05,1.69-.14,1.96-.4,3.9-.61,5.85-.59,5.5-1.18,11-1.77,16.5Zm44.67-22.71c-.44,.27-.8,.42-1.08,.66-2.86,2.45-3.95,5.71-4.09,9.33-.17,4.4-.04,8.81-.32,13.2-.23,3.63,.9,6.73,2.76,9.69,.11,.18,.4,.24,.86,.5-1.52-11.36-1.11-22.34,1.85-33.38Z"/><path class="bp" d="M47.9,251.66c-.27-.74-.39-1.31-.66-1.79-1.5-2.54-1.18-5.04,.38-7.34,1.21-1.78,2.49-3.65,4.14-4.97,5.7-4.54,11.58-8.86,17.39-13.26,2.57-1.95,5.13-3.92,7.75-5.79,1.65-1.18,3.38-2.26,5.14-3.26,1.77-1,3.77-1.64,5.4-2.81,1.89-1.35,3.58-1.11,5.2,.08,1.91,1.41,3.79,2.91,5.42,4.62,2.41,2.54,4.6,5.29,6.88,7.96,1.13,1.33,1.64,2.92,.88,4.5-.96,2-1.99,4.05-3.39,5.74-5.85,7.07-11.75,14.12-17.85,20.98-3.44,3.87-7.24,7.43-11.01,11-2.72,2.57-6.54,2.95-9.74,1.05-1.3-.78-2.14-.53-3.14,.38-5.1,4.6-10.23,9.18-15.38,13.74-1.94,1.72-4.03,3.27-5.95,5.02-2.7,2.45-5.3,4.99-7.93,7.52-.88,.85-1.68,1.79-3.05,.81-.2-.15-.57-.24-.8-.16-2.18,.73-3.44-.61-4.64-2.04-2.17-2.58-4.22-5.25-6.49-7.73-1.36-1.49-.78-3.32-1.27-4.94-.08-.28,.44-.83,.78-1.14,6.7-6.08,13.41-12.14,20.12-18.2,3.79-3.42,7.21-7.26,11.81-9.95Zm20.84,16.46c1.18-.53,2.58-.8,3.49-1.63,3.73-3.39,7.52-6.75,10.89-10.48,4.55-5.04,8.75-10.4,13.07-15.66,1.57-1.91,2.48-4.14,2.12-6.63-.73-4.99-2.83-9.36-6.34-13.02-1.32-1.37-2.95-2.2-4.88-2.05-5.85,.44-11.2,2.11-15.83,6-5.79,4.87-11.82,9.46-17.65,14.28-1.76,1.46-3.35,3.19-4.77,4.99-1.3,1.65-1.04,3.21,.5,4.44,5.96,4.73,10.33,10.84,14.66,16.96,1.19,1.68,2.66,2.37,4.74,2.8Zm-12.49-.69c-.98-1.97-2.35-1.9-3.74-1.33-1.48,.61-3,1.23-4.34,2.09-5.57,3.57-10.73,7.68-15.41,12.35-2.21,2.21-4.51,4.45-4.73,7.94-.1,1.53,.31,3.32-1.44,4.39-.25,.15-.24,.73-.35,1.08,1.13,.99,2.26,.71,3.22,.1,1.29-.82,2.52-1.78,3.66-2.8,1.77-1.59,3.41-3.34,5.18-4.93,5.9-5.29,11.83-10.55,17.74-15.82,1.35-1.2,2.71-2.39,4.05-3.58-.49-.63-.96-1.07-1.23-1.61-2.32-4.54-6.07-7.83-9.75-11.19-.78-.71-1.58-.79-2.44-.08-1.19,.99-2.48,1.86-3.61,2.9-8.29,7.67-16.55,15.38-24.81,23.08-.41,.38-.87,.75-1.13,1.23-.25,.45-.49,1.14-.3,1.52,.15,.32,.93,.49,1.42,.47,1.82-.1,3.48,.32,5,1.31,1.76,1.16,2.88,2.81,3.6,4.83,.49-4.28,2.91-7.3,5.92-9.97,2.36-2.09,4.73-4.18,7.11-6.26,3.67-3.2,7.66-5.93,12.17-7.8,.93-.38,2.05-.57,3.03-.47,.96,.11,1.87,.71,1.17,2.53Zm26.64-49.9c.6,0,.88,.03,1.14,0,5.8-.83,9.04,.57,11.74,5.76,1.54,2.94,2.46,6.21,3.62,9.35,.3,.82,.45,1.7,.77,2.98,1-1.28,1.68-2.23,2.45-3.11,1.55-1.77,1.72-3.62,.41-5.56-2.79-4.12-5.64-8.18-9.74-11.15-3.91-2.83-6.82-2.42-10.39,1.73Zm-58.05,75.2c.8-3.94-.02-6.07-2.76-7.83-1.53-.98-2.69-.95-4.35,.26,2.41,2.37,4.04,5.42,7.11,7.57Zm33.51-31.93l.4-.34c-2.48-3.39-5.14-6.62-8.44-9.26l-.32,.29c2.79,3.1,5.57,6.2,8.36,9.31Z"/><path class="bj" d="M118.33,89.67c-1.9-.11-3.11-.82-3.89-2.06-1.15-1.82-2.55-3.3-4.52-4.25-.67-.32-1.21-.95-1.76-1.48-9.54-9.39-18.78-19.1-28.7-28.08-9.73-8.82-18.19-18.84-27.73-27.81-1.98-1.86-2-2.35-.06-4.28,4.22-4.2,8.55-8.3,12.78-12.49,2.54-2.51,5.03-5.06,7.43-7.7,.87-.96,1.43-.81,2.23-.06,3.13,2.91,6.38,5.7,9.42,8.71,4.98,4.93,9.76,10.05,14.74,14.99,5.08,5.03,10.3,9.92,15.43,14.9,7.7,7.46,15.38,14.96,23.1,22.41,.68,.66,1.52,1.23,2.38,1.63,2.38,1.1,2.89,2.31,1.37,4.42-3.35,4.67-6.78,9.31-11.25,13-2.86,2.36-5.8,4.65-8.75,6.91-.75,.58-1.68,.94-2.23,1.25Zm13.95-17.17l.36,.2c-.3,.53-.51,1.15-.91,1.59-1.57,1.7-3.21,3.33-4.8,5.01-2.51,2.65-5.05,5.28-8.4,6.9-.25,.12-.55,.26-.67,.48-.15,.27-.24,.65-.17,.93,.04,.17,.46,.38,.68,.34,.47-.08,.95-.24,1.35-.48,5.34-3.23,9.68-7.61,13.79-12.23,1.81-2.04,3.36-4.31,4.98-6.51,.39-.53,1.14-1.16,.3-1.94-2.36,1.15-2.82,4.34-5.58,5.12,1.43-2.39,2.78-4.62,4.07-6.78-3.15-4.1-40.5-39.54-42.12-40.1-3.22,3.84-6.2,7.85-9.67,11.38-3.44,3.51-7.37,6.54-11.14,9.82,.24,.34,.4,.66,.64,.89,4.97,4.74,9.93,9.49,14.94,14.2,2.91,2.74,5.92,5.37,8.82,8.12,4.83,4.59,9.59,9.25,14.41,13.84,2.61,2.48,3.11,2.49,6.14,.58,.36-.22,.72-.44,1.04-.71,2.81-2.41,5.64-4.81,8.42-7.26,1.23-1.08,2.37-2.27,3.55-3.41Zm-55.87-30.77c-2.13-2.33-4.09-4.62-6.21-6.75-4.29-4.34-8.66-8.59-12.99-12.88-.64-.63-1.16-1.29-.38-2.16,.76-.84,1.66-1.07,2.61-.36,.73,.54,1.42,1.15,2.07,1.78,5.58,5.42,11.15,10.86,16.72,16.29,.48,.47,.98,.91,1.5,1.4,.6-.5,1.08-.81,1.45-1.22,3.66-4.15,7.36-8.26,10.92-12.49,1.83-2.17,1.79-2.71-.26-4.83-4.47-4.64-9.02-9.21-13.65-13.7-1.22-1.18-2.84-1.97-4.32-2.86-1.08-.65-1.92-.3-2.72,.68-1.1,1.35-2.31,2.63-3.56,3.86-4.49,4.42-9.03,8.81-13.53,13.22-.62,.61-1.15,1.32-1.66,1.92,.61,.67,1.11,1.12,1.49,1.65,.5,.72,.78,1.63,1.37,2.24,4.54,4.68,9.13,9.3,13.71,13.95,3.53,3.59,4.02,3.6,7.44,.27Zm1.53-1.96l.21-.34c-.37-.46-.7-.95-1.12-1.36-4.69-4.62-9.39-9.24-14.1-13.83-1.15-1.12-2.36-2.2-3.58-3.24-.34-.29-.85-.38-1.28-.55l-.29,.42c.34,.49,.61,1.05,1.03,1.46,5.21,5.19,10.43,10.37,15.67,15.53,.64,.63,1.44,1.12,2.21,1.59,.35,.21,.83,.22,1.24,.33Z"/><path class="cl" d="M381.3,390.1c.17-.5,.32-1.44,.77-2.2,2.56-4.32,5.16-8.62,7.83-12.88,.5-.81,1.29-1.49,2.06-2.06,1.39-1.04,2.93-.98,4.29-.01,1.17,.83,1.63,2.06,1.06,3.74-.61,1.78-1.37,3.52-2.26,5.17-1.77,3.3-4.2,6.12-7.02,8.55-1.13,.98-2.57,1.7-3.99,2.22-1.56,.57-2.78-.51-2.75-2.53Zm14.37-14.35c0-1.41-.62-2.01-1.69-1.89-.63,.07-1.4,.39-1.8,.86-3.82,4.5-7,9.4-9.09,14.95-.16,.42,.09,1,.14,1.5,.51-.08,1.17,.02,1.51-.27,4.48-3.86,8.6-8.01,10.56-13.79,.18-.52,.3-1.07,.37-1.36Z"/><path class="ch" d="M367.82,419.25c-1.5-.05-2.47-1.17-1.97-2.47,.68-1.78,1.73-3.38,3.48-4.27,.6-.31,1.68-.48,2.09-.15,.52,.42,.83,1.43,.78,2.15-.2,2.71-2.24,4.82-4.38,4.74Zm.14-1.53c1.53,.07,3.32-2.64,2.74-3.63-.18-.3-1.15-.54-1.31-.37-.76,.79-1.47,1.67-1.95,2.64-.17,.33,.38,1.01,.52,1.37Z"/><path class="cy" d="M327.45,305.96c-.77-.78-1.02-1.7-.47-2.67,.9-1.57,1.81-3.14,2.82-4.64,.73-1.08,1.61-1.27,2.83-.41,3.09,2.16,3.16,2.3,.86,5.28-.38,.5-.81,.96-1.17,1.48-1.08,1.55-2.45,2.24-4.32,1.52l-.56-.56Zm1.62-.66c.67-.39,1.04-.5,1.26-.74,.91-1.03,1.79-2.09,2.65-3.16,.48-.6,.45-1.29-.26-1.55-.53-.2-1.51-.23-1.78,.1-.93,1.12-1.71,2.38-2.37,3.68-.18,.35,.29,1.03,.5,1.68Z"/><path class="cq" d="M317.11,65.04c-2,2.51-4.88,2.56-7.68,2.59-4.42,.03-8.84,0-13.25-.22-6.3-.32-12.61-.63-18.87-1.36-2.49-.29-4.9-1.56-7.24-2.62-1.4-.64-1.7-2.16-.89-3.62,.69-1.23,.98-2.44,.64-3.82-1.04-4.24-.27-8.3,1.85-11.97,1.6-2.77,3.56-5.38,5.65-7.81,2.24-2.59,5.23-3.83,8.75-3.9,5.54-.12,11.07-.55,16.6-.66,3.64-.07,7.29,.19,10.93,.3,1.64,.05,2.86,.86,3.49,2.3,.55,1.27,1.11,2.66,1.13,4,.12,6.09,.14,12.18,.01,18.27-.05,2.58-.57,5.15-.88,7.72l-.27,.81Zm-1.65-2.12l.3,.05c.26-1.49,.69-2.96,.74-4.46,.2-6.79,.36-13.58,.4-20.37,.02-3.54-1.31-4.87-4.87-4.84-8.68,.08-17.37,.25-26.05,.46-2.37,.06-4.61,.86-6.38,2.42-4.03,3.53-6.98,7.86-8.36,13.07-.49,1.86-.42,3.88-.45,5.83-.03,1.42,.77,2.37,2.23,2.63,.69,.12,1.38,.28,2.07,.3,5.67,.18,11.34,.36,17.01,.47,3.64,.07,7.29-.02,10.93,.05,3.08,.06,6.16,.21,9.24,.37,2.5,.13,3.11,.84,3.15,3.41,0,.21,.03,.41,.05,.62Zm-38.59-2.68v-.53c-1.47,0-2.94-.02-4.41,0-.86,.02-1.91,.12-1.82,1.22,.04,.51,.89,1.21,1.49,1.35,1.35,.32,2.76,.41,4.15,.5,5.8,.37,11.6,.7,17.41,1.05,5.31,.32,10.62,.67,15.94,.94,.96,.05,1.97-.07,2.89-.34,.96-.29,1.52-1.79,1.28-2.82-.25-1.06-1.08-.92-1.84-.95-3.92-.14-7.84-.37-11.76-.4-7.77-.06-15.55-.02-23.33-.02Zm12.31,5.09v.39c4.65,.16,9.31,.32,13.98,.48v-.36l-13.98-.52Z"/><path class="db" d="M106.41,143.4c1.58,1.48,3.13,2.99,4.73,4.44,4.53,4.08,9.13,8.08,13.61,12.21,2.54,2.34,4.55,5.13,5.88,8.36,.61,1.49,.46,2.78-.54,4.12-2.72,3.65-5.33,7.38-7.99,11.08-2.41,3.35-7.93,4.72-11.73,2.67-5.85-3.16-11.61-6.51-17.41-9.77-2.32-1.3-4.6-2.69-7-3.83-1.63-.77-2.02-2.19-2.43-3.58q-3.48-.56-1.39-3.41c3.32-4.52,6.63-9.04,9.98-13.53,.88-1.17,1.94-2.21,2.85-3.36,1.61-2.01,3.18-4.06,4.76-6.1,.21-.27,.29-.69,.55-.88,.52-.4,1.09-.84,1.7-.95,.2-.04,.59,.89,.86,1.4,.16,.29,.25,.62,.37,.93h2.98c.08,.06,.15,.12,.21,.2Zm16.03,37.21c.37-.4,.63-.62,.82-.89,1.88-2.61,3.72-5.25,5.64-7.83,.85-1.14,.76-2.25,.05-3.31-.98-1.45-2.01-2.87-3.14-4.2-5.75-6.75-12.5-12.45-19.27-18.12-.58-.49-1.26-.89-1.94-1.23-1.2-.6-2.23-.47-3.15,.67-1,1.26-2.13,2.42-3.26,3.57-4.24,4.35-7.46,9.44-10.52,14.65-.37,.62-.73,1.23-.01,1.87,1.78,1.58,3.34,3.54,5.37,4.68,4.58,2.56,9.34,4.79,14.11,6.99,2.56,1.18,5.36,1.7,8.21,1.4,2.59-.27,5.04-.17,7.11,1.76Zm-35.82-13.44c-1.06,2.24-.68,3.4,1.55,4.72,4.46,2.63,8.92,5.27,13.42,7.82,3.23,1.82,6.49,3.6,9.82,5.23,2.95,1.43,5.89,1.08,8.5-.9,.63-.48,1.28-1.55,1.17-2.23-.1-.62-1.14-1.4-1.88-1.56-1.41-.29-2.91-.36-4.35-.21-2.72,.28-5.3-.06-7.77-1.21-2.22-1.02-4.45-2.04-6.68-3.05-4.55-2.06-8.86-4.5-12.59-7.87-.34-.3-.78-.48-1.19-.73Z"/><path class="by" d="M212.85,57.16c-.68-.37-1.93-.84-2.95-1.62-5.38-4.13-10.7-8.34-16.06-12.51-1.23-.96-2.65-1.8-2.1-3.7,.57-1.96,2.03-3.24,3.88-3.8,.79-.24,1.91,.25,2.76,.65,5.64,2.65,10.44,6.5,14.97,10.71,1.08,1,2.12,2.04,3.16,3.08,1.01,1.01,2.07,2.05,1.31,3.65-.88,1.84-2.1,3.33-4.96,3.54Zm2.45-3.5c-.74-2.24-2.12-4.1-3.92-5.58-3.73-3.06-7.55-6.02-11.35-9-.66-.52-1.36-1-2.1-1.39-1.5-.79-3.07-.22-4.08,1.42-.66,1.08-.44,1.53,1.35,2.75,.29,.2,.59,.38,.88,.58,5.25,3.51,10.34,7.21,14.88,11.63,.58,.56,1.37,1.01,2.14,1.24,1.1,.33,2.27-.62,2.21-1.63Z"/><path class="bh" d="M225.24,67.76c-.44,.21-.88,.42-1.32,.62-1.57,.69-3.07,.59-4.2-.74-1.49-1.74-2.92-3.56-4.24-5.44-.92-1.32-.71-2.06,.55-3.03,.77-.59,1.61-1.1,2.41-1.66,1.4-.97,2.19-1.02,3.2,.38,1.49,2.09,2.77,4.34,4.06,6.56,.69,1.18,.12,2.29-.5,3.34l.03-.03Zm-1.34-2.5c-.03-.13-.04-.36-.14-.52-1.08-1.71-2.12-3.44-3.27-5.09-.68-.98-1.59-.61-2.39-.06-.82,.56-1.05,1.23-.45,2.13,.47,.69,.76,1.53,1.31,2.13,.84,.91,1.76,1.79,2.79,2.45,1.07,.69,2.14,.12,2.15-1.02Z"/><path class="bn" d="M354.96,138.87c-.03,2.54-1.58,3.91-3.64,3.65-2.59-.33-4.99-1.32-6.58-3.4-5.34-6.96-12.76-10.28-20.93-12.44-3.25-.86-6.49-1.8-9.68-2.86-1.31-.43-2.55-1.17-3.67-1.97-.53-.38-.92-1.24-1-1.92-.11-1.03,.34-1.72,1.65-1.47,9.35,1.83,18.78,3.26,27.68,6.95,5.96,2.47,11.24,5.74,14.94,11.16,.58,.84,.97,1.81,1.23,2.3Zm-43.63-18.61l-.16,.38c.61,.37,1.17,.86,1.82,1.08,3.71,1.24,7.41,2.54,11.19,3.57,8.24,2.24,15.96,5.26,21.39,12.4,.97,1.27,2.56,2.16,4.01,2.93,1.14,.6,2.65,1.05,3.66-.23,.96-1.22-.16-2.24-.8-3.18-3.4-5.01-8.26-8.11-13.78-10.26-8.58-3.35-17.52-5.38-26.6-6.81-.23-.04-.5,.09-.74,.14Z"/><path class="cm" d="M286.57,141c-3.15,.01-5.56-1.87-6.01-4.73-.14-.9,.11-1.93,.43-2.81,.33-.91,1.1-1.16,2.05-.62,1.82,1.02,3.68,1.98,5.51,2.99,1.06,.58,2.18,1.19,1.89,2.67-.28,1.4-1.28,2.1-2.65,2.31-.48,.07-.96,.15-1.22,.19Zm-4.04-6.4c-.69,1.73-.39,2.68,1.12,3.77,1.35,.97,3.7,1.21,4.55,.44,.72-.65,.54-1.33-.2-1.71-1.79-.9-3.64-1.68-5.47-2.51Z"/><path class="bu" d="M67.67,338.75c.29-1.07,.56-3.13,1.39-4.93,2.65-5.72,5.37-11.42,8.33-16.99,1.77-3.33,3.96-6.44,6.07-9.58,2.44-3.63,6.08-4.51,10.16-3.96,1.45,.19,2.89,.6,4.26,1.11,9.65,3.59,19.46,6.83,28.55,11.76,2.61,1.42,4.9,3.46,7.22,5.35,1.34,1.09,1.48,2.64,.84,4.23-.6,1.5-1.37,2.94-1.78,4.49-.47,1.74-.72,3.56-.88,5.35-.09,1.04-.24,1.89-1.15,2.53-3.64,2.58-5.81,6.23-7.27,10.32-1.06,2.96-1.98,5.99-2.8,9.03-.89,3.31-2.54,5.92-5.45,7.93-1.8,1.24-3.2,3.11-4.61,4.84-3.54,4.31-4,4.3-8.91,1.97-9.82-4.67-18.1-11.44-26.1-18.62-.68-.61-1.35-1.23-2.08-1.77-4.03-3.04-5.5-7.27-5.79-13.07Zm7.23-13.07c4.82-.74,5.91,.2,5.95,4.76,.01,1.19-.02,2.38-.02,3.57,0,1.96-.2,3.96,.09,5.88,.26,1.75,.68,3.71,1.69,5.08,3.12,4.22,6.44,8.31,9.9,12.26,3.07,3.51,6.97,5.81,11.61,6.75,4.88,.98,8.15-.64,10.3-5.13,.36-.76,.65-1.55,.96-2.33,.67-1.69,1.32-3.4,2-5.09,2.05-5.1,4.55-9.92,8.35-14,.72-.77,1.09-1.93,1.44-2.97,.86-2.52,1.63-5.06,2.42-7.6,.55-1.77,1.32-3.38,3.29-4.16-1.95-2.42-4.42-3.86-6.94-5.23-6.73-3.67-13.92-6.26-21.1-8.86-3.49-1.26-6.94-2.61-10.46-3.8-2.34-.79-4.64-.31-6.6,1.12-1.51,1.1-3.04,2.32-4.16,3.8-3.23,4.25-5.9,8.86-7.95,13.81-.26,.62-.46,1.27-.78,2.16Zm58.27-.4l-.46-.19c-.26,.27-.62,.5-.75,.82-.79,1.87-1.67,3.72-2.25,5.65-.98,3.27-2.26,6.39-4.52,8.94-2.72,3.06-4.36,6.63-5.86,10.37-1.54,3.83-3.41,7.52-5.14,11.27-.91,1.97-2.52,3.05-4.61,3.19-1.95,.13-3.95,.19-5.86-.13-6.01-.99-10.41-4.65-14.19-9.14-2.31-2.73-4.37-5.67-6.7-8.38-2.5-2.89-3.42-6.18-3.31-9.91,.09-2.87,.08-5.75-.03-8.63-.09-2.43-1.62-3.19-3.73-1.92-.71,.43-1.35,1-1.95,1.59-1.95,1.92-3.01,4.36-3.91,6.89-1.88,5.28-.85,9.95,3.02,13.96,1.46,1.51,3.09,2.85,4.67,4.24,7.82,6.88,16.07,13.13,25.54,17.63,2.98,1.41,3.53,1.26,5.74-1.23,2.41-2.73,4.84-5.46,7.5-7.94,1.61-1.5,2.82-3.08,3.31-5.21,.16-.68,.31-1.37,.48-2.05,1.7-6.76,4.09-13.12,9.75-17.73,.59-.48,.91-1.59,.91-2.41,0-2.73,.61-5.27,1.81-7.71,.3-.61,.37-1.33,.54-2Z"/><path class="cs" d="M206.82,163.68c-.61,1.54-1.51,1.94-2.78,1.5-.98-.34-2.01-.65-2.9-1.16-2.61-1.49-5.17-3.08-7.75-4.63-4.91-2.95-10.1-4.69-15.95-4.36-1.45,.08-3.01-.5-4.4-1.08-1.21-.51-2.38-1.39-2.04-3.04,.33-1.57,1.58-2.04,2.97-2.2,3.6-.42,7.14-.17,10.54,1.18,5.49,2.18,10.63,5,15.34,8.59,2.27,1.73,4.58,3.43,6.96,5.21Zm-2.24,.53l.26-.53c-1.42-1.11-2.81-2.26-4.28-3.31-4.84-3.47-9.83-6.73-15.36-9.01-3.68-1.52-7.51-2.28-11.49-1.4-.58,.13-1.42,.65-1.5,1.11-.08,.49,.47,1.27,.95,1.64,1.52,1.17,3.38,1.35,5.2,1.21,5.08-.38,9.68,.99,14,3.59,3.18,1.91,6.38,3.77,9.61,5.6,.81,.46,1.74,.74,2.61,1.1Z"/><path class="ci" d="M209.75,190.08c-1.85-.01-3.91-1.41-4.3-3.01-.16-.66-.04-1.6,.35-2.12,.3-.4,1.28-.56,1.85-.42,1.69,.43,3.33,1.05,4.98,1.63,.97,.34,1.04,1.05,.62,1.86-.77,1.46-2.08,1.99-3.5,2.06Zm-2.97-4.58c.38,2.28,1.27,3.12,2.96,3.15,.93,.02,1.94,.03,2.09-1.36-1.66-.59-3.19-1.13-5.05-1.79Z"/><path class="bs" d="M336.85,297.87c-2.16-.01-3.11-1.11-3.85-2.43-.57-1.02-.2-1.92,.54-2.66,4.21-4.23,8.63-8.2,14.07-10.82,1.99-.96,2.71-.78,4.24,.84,1.41,1.5,1.37,2.8-.27,4.07-2.82,2.18-5.72,4.27-8.55,6.44-1.38,1.06-2.65,2.29-4.04,3.34-.75,.57-1.65,.95-2.14,1.22Zm-.28-1.46c.35-.19,1-.45,1.53-.86,4.04-3.1,8.07-6.23,12.09-9.37,.57-.45,1.51-.78,1.02-1.77-.45-.92-1.19-1.62-2.32-1.47-.53,.07-1.09,.31-1.52,.64-3.26,2.52-6.56,5.01-9.69,7.68-1.08,.92-1.84,2.26-2.55,3.53-.51,.92,.06,1.6,1.44,1.64Z"/><path class="bw" d="M220.95,367.01c1.25-.07,1.72,.75,2,1.76,.51,1.82,.96,3.65,1.48,5.47,2.38,8.41,4.77,16.82,7.19,25.22,.35,1.2,.89,2.36,1.38,3.51,.54,1.27,.12,2.16-.99,2.84-.95,.58-1.73,.48-2.21-.61-.14-.32-.27-.65-.37-.98-3.57-11.12-7.15-22.24-10.71-33.37-.76-2.39,.08-3.8,2.23-3.83Zm9.13,34.1l.45-.11c.01-.13,.06-.28,.02-.4-2.94-10.16-5.89-20.33-8.88-30.48-.14-.48-.83-1.23-1.1-1.17-.95,.22-.44,.97-.26,1.53,1.97,6.36,3.91,12.73,5.93,19.07,1.23,3.86,2.56,7.7,3.84,11.54Z"/><path class="dc" d="M250.66,346.46c.8,.43,1.28,.67,1.73,.95,1.15,.71,1.18,1.82-.04,2.4-.93,.44-2.01,.57-3.02,.86-1.48,.42-3.08,.61-4.41,1.32-6.17,3.31-12.98,4.83-19.52,7.1-2.65,.92-5.32,1.75-8.01,2.55-.54,.16-1.38,.27-1.7-.02-.31-.28-.34-1.21-.12-1.67,.58-1.17,.14-1.7-.79-2.41-.77-.58-1.58-1.51-1.77-2.4-1.53-7.4-2.93-14.83-4.34-22.26-.62-3.3-1.19-6.62-1.74-9.93-.78-4.75,2.71-10.29,7.3-11.68,4.82-1.46,9.67-2.87,14.44-4.48,2.21-.74,3.91-.37,5.54,1.22,2.8,2.73,5.04,5.84,6.59,9.41,3.35,7.71,6.63,15.45,9.91,23.19,.8,1.9,2.2,3.79-.07,5.84Zm-29.37,9.56c.46-.02,.67,0,.87-.04,9.05-1.57,17.6-4.61,25.86-8.57,1.1-.53,1.68-1.25,1.57-2.44-.08-.9-.14-1.84-.45-2.67-3.68-9.63-7.53-19.19-12.81-28.09-1-1.68-2.12-3.31-3.35-4.83-1.33-1.65-2.26-1.69-4.27-.98-2.57,.91-5.19,1.68-7.8,2.49-1.05,.33-2.11,.61-3.43,.98,1.42,3.39,.29,6.28-.95,9.25-1.37,3.29-1.6,6.82-1.14,10.35,.54,4.17,1.47,8.3,1.73,12.48,.27,4.47,2.41,8.12,4.16,12.08Zm-2.04-.28c-.25-.68-.46-1.18-.63-1.69-.91-2.86-2.08-5.68-2.66-8.61-.81-4.11-1.07-8.33-1.76-12.47-.84-5.07-.36-9.86,1.99-14.51,.59-1.16,.5-2.72,.52-4.1,.01-1.2-.83-1.78-1.99-1.58-.74,.13-1.54,.38-2.11,.82-2.79,2.15-4.42,4.99-3.84,8.56,1.11,6.84,2.41,13.65,3.67,20.47,.61,3.3,1.31,6.6,1.99,9.89,.57,2.74,1.95,3.72,4.81,3.23Z"/><path class="df" d="M334.41,66.02c-1.54,0-3.08,.08-4.62-.02-1.21-.08-2.39-.38-2.69-1.87-.28-1.41,.44-3.08,1.8-3.71,.8-.37,1.74-.57,2.63-.62,1.6-.09,3.24-.17,4.82,.03,3.45,.44,6.83,.22,10.21-.56,4.11-.94,8.07-.1,11.96,1.21,1.59,.53,3.2,1.08,4.66,1.87,1.61,.86,1.89,2.4,.99,3.95-1.09,1.88-2.6,2.56-4.15,1.51-4.85-3.29-10.13-3.1-15.58-2.38-3.32,.44-6.68,.62-10.02,.91l-.02-.32Zm-5.59-2.14c.64,.16,1.22,.43,1.79,.42,4.69-.15,9.4-.13,14.07-.6,5.33-.53,10.49-.73,15.25,2.31,1.15,.74,2.21,.29,2.73-.9,.53-1.22-.32-1.64-1.21-2-4.76-1.91-9.65-3.03-14.79-2.11-3.81,.68-7.62,1.19-11.49,.9-1.12-.08-2.23-.26-3.35-.29-1.42-.03-2.62,.35-2.99,2.27Z"/><path class="bq" d="M50.04,141.62c.65,.39,1.17,.6,1.58,.95,7.39,6.41,15.93,11.16,23.91,16.73,.4,.28,.83,.53,1.22,.81,1.37,1,1.58,1.82,.76,2.96-.86,1.19-1.72,1.36-3.04,.42-1.94-1.38-3.81-2.85-5.73-4.27-6.2-4.57-12.41-9.12-18.62-13.68-.39-.29-.88-.52-1.15-.9-.32-.46-.77-1.22-.6-1.54,.32-.6,1.06-.98,1.66-1.48Zm3.49,4.32l-.11,.14c.13,.16,.24,.35,.4,.47,7.1,5.23,14.2,10.47,21.32,15.66,.25,.18,.75,.02,1.14,.02l.16-.56-22.92-15.73Z"/><path class="bx" d="M300.5,207.22c2.04,.26,3.6,.16,4.93,.67,4.21,1.61,8.62,1.7,12.99,2.11,.97,.09,1.99,.18,2.86,.57,.78,.34,1.59,.96,2.01,1.68,1.1,1.9-.01,3.86-2.19,3.68-3.55-.29-7.07-.85-10.59-1.4-1.79-.28-3.56-.76-5.32-1.19-3.79-.93-7.49-.87-11.04,.95-1.29,.66-2.39,.55-3.34-.65-1.55-1.96-1.03-4.11,1.39-4.73,2.9-.75,5.87-1.21,8.3-1.69Zm21.51,7.09c-.67-2.14-1.05-2.45-3.18-2.48-3.95-.05-7.79-.62-11.56-1.87-4.74-1.56-9.53-1.23-14.28,.14-.77,.22-1.57,.47-1.26,1.53,.29,1,.92,1.56,2.04,1.28,.2-.05,.4-.13,.59-.22,3.66-1.73,7.45-1.66,11.31-.87,3.84,.79,7.68,1.55,11.55,2.21,1.49,.25,3.03,.18,4.8,.27Z"/><path class="ce" d="M332.18,215.55c.11-4.06,.08-8.12,.38-12.17,.25-3.34,.86-6.66,1.35-9.98,.11-.76,.3-1.51,.54-2.25,1-3.12,2.34-4.22,5.55-3.82,8.26,1.01,16.51,2.16,24.75,3.34,2.24,.32,4.06,1.59,5.46,3.31,2.9,3.57,5.15,7.49,5.94,12.12,.4,2.34,.22,4.61-.54,6.83-.43,1.25-.52,2.38,0,3.65,.74,1.8-.08,3-1.93,3.65-4.14,1.45-8.34,1.42-12.63,1.04-5.09-.45-10.2-.66-15.29-1.05-2.65-.2-5.3-.48-7.93-.86-2.47-.36-4.88-.97-5.68-3.85l.02,.04Zm1.43-.74l.51-.07c.21-2.97,1.01-3.64,3.97-3.33,.7,.07,1.39,.18,2.09,.25,9.97,.94,19.95,1.85,29.92,2.83,3.67,.36,4.69-.49,4.96-4.11,.42-5.54-2.04-10.07-4.99-14.4-1.74-2.57-4.35-3.9-7.4-4.36-5.4-.81-10.8-1.66-16.22-2.39-2.49-.33-5.02-.51-7.54-.58-1.9-.05-2.81,.77-3.3,2.6-.16,.61-.29,1.23-.36,1.86-.56,5.08-1.17,10.16-1.62,15.25-.19,2.14-.03,4.3-.03,6.46Zm4.96-1.83v.08c-.36,0-.71,0-1.06,0-.85-.01-1.75-.13-1.89,1.09-.12,1.08,.15,2.03,1.26,2.36,.99,.3,2.05,.49,3.09,.56,3.56,.22,7.14,.33,10.7,.53,6.22,.36,12.44,.78,18.66,1.14,1.11,.07,2.26,.12,3.35-.06,.56-.09,1.03-.71,1.54-1.09-.46-.43-.84-1.04-1.39-1.25-.69-.27-1.51-.22-2.28-.29-4.46-.39-8.93-.73-13.38-1.17-6.2-.6-12.39-1.27-18.59-1.91Zm6.65,5.63l-.11,.23c1.24,.16,2.49,.33,3.73,.47,1.25,.14,2.51,.29,3.77,.35,1.16,.06,2.33,.01,3.5,.01v-.16l-10.89-.91Z"/><path class="ck" d="M66.45,259.76c.17-.36,.4-1.11,.84-1.72,2.57-3.56,5.9-6.34,9.35-8.99,.78-.6,1.71-1.14,2.69-.44,1.06,.76,.83,1.89,.5,2.88-1.11,3.35-3.3,5.99-5.83,8.35-1.17,1.09-2.51,2.05-3.92,2.79-1.87,.98-3.72-.37-3.64-2.87Zm12.69-9.56l-.51-.59c-.57,.26-1.18,.46-1.7,.8-3.37,2.21-6.07,5.13-8.59,8.23-.22,.27-.5,.57-.53,.88-.05,.51-.08,1.15,.18,1.53,.19,.28,.9,.41,1.3,.3,.65-.18,1.28-.55,1.85-.93,2.78-1.89,4.72-4.53,6.44-7.35,.56-.93,1.05-1.91,1.56-2.86Z"/><path class="c`" d="M97.23,234.45c-.02,1.56-2.01,3.51-3.59,3.51-1.07,0-1.85-.83-1.34-1.78,.69-1.3,1.65-2.56,2.77-3.51,.94-.8,2.18,.29,2.16,1.78Zm-3.26,2.69c.8-.9,1.49-1.62,2.07-2.41,.08-.1-.38-.6-.6-.91-.74,.75-1.49,1.49-2.18,2.28-.05,.06,.32,.49,.71,1.05Z"/><path class="bf" d="M113.73,75.94c-.83-.9-1.46-1.62-2.14-2.29-8.65-8.51-17.3-17.01-25.96-25.5-.75-.74-1.54-1.43-2.33-2.13-.55-.48-1.11-.96-.58-1.76,.51-.77,1.26-1.28,2.14-.84,.92,.46,1.82,1.08,2.56,1.8,9.29,9.05,18.55,18.15,27.84,27.2,1.65,1.61,3.41,3.11,5.12,4.68,.57,.52,1.14,1.04,1.63,1.63,.57,.68,.92,1.48,.16,2.26-.8,.82-1.72,.93-2.63,.18-.87-.71-1.72-1.45-2.51-2.24-.85-.84-1.72-1.26-3-1.07-2.3,.34-4.32-.59-6.01-2.03-4.37-3.73-8.7-7.51-12.95-11.38-4.36-3.96-8.68-7.97-12.85-12.13-1.98-1.97-3.58-4.32-5.35-6.49l-.81,.43c.53-.5,.99-1.09,1.59-1.48,5.83-3.83,10.59-8.7,14.5-14.47,2.28-3.36,2.71-3.43,5.8-.68,2.77,2.46,5.33,5.17,8.02,7.72,5.09,4.82,10.21,9.61,15.31,14.42,1.07,1.01,2.27,1.92,3.18,3.06,1.07,1.34,1.89,2.87,2.82,4.32l-.57,.52c-.47-.43-1-.81-1.39-1.31-1.12-1.41-2.01-3.06-3.31-4.28-8.33-7.83-16.75-15.57-25.15-23.32-1.69-1.56-2.02-1.57-3.24,.23-3.47,5.08-7.49,9.61-12.4,13.35-1.71,1.3-1.66,2.07-.11,3.82,5.72,6.48,12.01,12.39,18.46,18.12,3.09,2.75,6.17,5.51,9.29,8.23,1.28,1.11,2.72,1.87,4.87,1.44Zm7,3.92c-1.74-3.1-34.09-34.07-36.33-34.89,.68,2.57,33.15,33.9,36.33,34.89Z"/></g></g></g></svg>