<?xml version="1.0" encoding="utf-8"?>
<!-- Generator: Adobe Illustrator 26.2.1, SVG Export Plug-In . SVG Version: 6.00 Build 0)  -->
<svg version="1.1" id="Capa_1" xmlns="http://www.w3.org/2000/svg" xmlns:xlink="http://www.w3.org/1999/xlink" x="0px" y="0px"
	 viewBox="0 0 1011.7 737.9" style="enable-background:new 0 0 1011.7 737.9;" xml:space="preserve">
<style type="text/css">
	.st0{fill:#8E7391;}
</style>
<g id="a">
</g>
<g id="b">
	<g id="c">
		<g>
			<path class="st0" d="M301.7,80.5c24.2,10.2,54.5,9,77.2,4.7c13.5-2,82-19.2,86.3-35.6c7.2-27-64-14.8-75.8-11.8
				C359.1,45.3,327,64.3,301.7,80.5"/>
			<path class="st0" d="M98.1,40.9c30.3-2.7,62.7,15.1,88.1,29.8c33.3,19.3,63.4,44.7,95.4,66.2c62.5,42,114,92.7,168,144.6
				c4,3.9,9.7-2.6,5.7-6.4c-28.6-27.5-56.3-55.9-85.7-82.5c-29.6-26.8-62.4-48.6-95.4-71c-30.4-20.6-58.9-44-90.7-62.4
				c-24.3-14.1-57.1-29.4-86-26.9C92,32.7,92.6,41.3,98.1,40.9"/>
			<path class="st0" d="M365.4,199.2c12.2,15.2,85.8,135.4,114.4,110c18.1-17.1-22.4-61.6-34.3-69.8c-21.8-19.8-54.1-31.3-79.4-43.1
				L365.4,199.2z"/>
			<path class="st0" d="M384.3,227.9c4.7,37.9-5.3,126.2,33.3,168.4c27,29.6,36.9-3.7,32.9-30.7c-5.3-26.7-15.2-62-28.3-86.7"/>
			<path class="st0" d="M431.2,360.2c-8.4-33.9-14.5-68.2-21.7-102.4c-1.1-5.4-9.3-2.6-8.2,2.8c7.2,34.1,13.3,68.5,21.7,102.3
				C424.4,368.4,432.6,365.6,431.2,360.2"/>
			<path class="st0" d="M295,147.1c27.5,42.6,23,95,35.4,142.4c1.4,5.4,9.6,2.6,8.1-2.8c-12.7-48.4-8.3-100.9-36.4-144.3
				C299.2,137.7,292,142.5,295,147.1"/>
			<path class="st0" d="M319.2,196.6c-2.3,30-11.4,68.9-6.8,98.5c1.7,17.8,14.5,69.2,35.6,35.9C367.5,296.7,331.1,227.2,319.2,196.6
				"/>
			<path class="st0" d="M216.3,90.2c26.9,3.8,56.2-1.1,82.8-4.9c42.1-6,85.3-13,125.2-28c5.2-1.9,2.4-10.1-2.8-8.1
				C382.1,63.9,340,70.2,298.5,76.7c-25.6,4-54.8,8.7-80.6,5.1C212.4,81,210.8,89.4,216.3,90.2"/>
			<path class="st0" d="M183.8,105.4c-1.3-18.7-8.7-38.6-18-54.7c-2.8-4.8-9.9,0-7.2,4.8c8.5,14.8,15.5,33.5,16.6,50.6
				C175.6,111.6,184.3,111,183.8,105.4"/>
			<path class="st0" d="M600.4,231.4c10.5,19.7,113.1,194.3,143.1,157.4c17.5-19.8-20.5-67.6-34-82.4
				c-13.2-13.5-32.6-26.9-48.1-38.5C638,252.7,626.1,244.5,600.4,231.4"/>
			<path class="st0" d="M714.8,346.9c-20.3-39.3-52.5-67-84.6-96.3c-33.4-30.5-67-48.9-112.6-53.8c-5.5-0.6-7.1,7.9-1.6,8.5
				c21.3,2.3,41.4,7.5,61.1,16.3c20.7,9.2,35.6,24.7,52,39.7c30.1,27.5,59.7,53.7,78.7,90.5C710.1,356.6,717.3,351.8,714.8,346.9"/>
			<path class="st0" d="M425.7,202.9c36-4.2,72.3,1.1,108.3,3.3c24.5,1.6,48.6-0.3,72.9-3.3c48.9-6,104.4-12.6,149.7-33.1
				c5-2.3,2.3-10.4-2.8-8.2c-46.5,21-102.7,27.2-152.8,33.3c-58.9,7.2-117.3-7.4-175.9-0.7C419.6,195,420.2,203.6,425.7,202.9"/>
			<path class="st0" d="M593.9,200.1c46.4,1,102,10,146.5-2.5c22.4-5.6,86.6-39.9,38.8-57.4c-24.7-9.2-57.3,6-80.7,13.2
				c-43.2,12.2-83.7,37.7-127.2,48.6"/>
			<path class="st0" d="M271.3,127.5c30.5-6.2,61.2,3.6,91.9,0.9c36.5-3.2,73.4-9.6,108.9-18.5c72.5-18.2,136.4-60.3,208.4-80.4
				c5.4-1.5,2.5-9.7-2.8-8.2c-67.4,18.8-127.7,55.5-194.3,76.4c-38.7,12.2-80.4,17.9-120.7,22.1c-30.7,3.1-61.2-7.1-91.9-0.9
				C265.3,120,265.9,128.6,271.3,127.5"/>
			<path class="st0" d="M501.3,96.3c42-9.5,100-17.7,139.2-28.9c14.5-3.7,62-32.5,60-57.2c-4.3-45.1-176,73.6-187.9,82.2"/>
			<path class="st0" d="M370.5,127.6c43.8-4,82.9,22,126.1,24.2c37,1.8,77.9-8,112.9-19.6c5.3-1.8,2.5-9.9-2.8-8.2
				c-38.1,12.6-84.1,24.2-124.2,17.1c-37.8-6.7-73.6-25.7-112.7-22.1C364.4,119.5,365,128.1,370.5,127.6"/>
			<path class="st0" d="M452,138c34.9,16.5,86.5,30.4,125.3,23.5c15.8-4,98.2-27.4,57.3-56.4c-18.5-12.2-65.6,6.6-85.3,11.6
				c-24.7,7.6-55,26.4-80.7,24.4"/>
			<path class="st0" d="M303.5,125.6c33.2,16.3,62.6,38.6,92.8,59.5c28.1,19.4,57.1,36.9,84.3,57.7c49.7,37.9,100.6,79.5,136,131.5
				c3.1,4.6,10.3-0.2,7.2-4.8c-34.7-51-83.5-90.5-131.4-128.5c-28.9-22.9-59.9-41.8-90.4-62.4c-31.2-21.1-60.8-44.2-94.7-60.9
				C302.3,115.5,298.6,123.2,303.5,125.6"/>
			<path class="st0" d="M545.1,290c12.9,12.2,100.6,161.1,117.7,123.2c7.2-15.8-29.7-68.2-42.6-80.4c-22.4-22.4-63.4-38.5-88.8-55.9
				"/>
			<path class="st0" d="M497.3,255.7c21.3,29.9,29.2,63.3,44.5,96.2c16,34.4,36.8,66.7,60.3,96.5c3.4,4.4,10.6-0.4,7.2-4.8
				c-24.5-31.2-45.6-64.9-62.3-101c-14.7-31.8-21.8-62.8-42.5-91.7C501.3,246.5,494.1,251.2,497.3,255.7"/>
			<path class="st0" d="M539.7,336.8c7.6,19.1,83.9,216.5,114.9,172.3c13.1-20.1-26.1-64.9-37.9-78.7
				c-24.7-31.6-59.2-67.3-80.7-102.6"/>
			<path class="st0" d="M712.5,309.7c19.7,15,78.8,46.1,99.9,57.6c17.5,8.2,105.5,63.2,122.3,40.8c34.9-50.8-196.1-89.5-214.3-94.8"
				/>
			<path class="st0" d="M902.2,384.8c-54.3-31.4-116-50.7-174-74c-5.1-2-8.9,5.7-3.8,7.7c58.1,23.2,119.7,42.6,174.1,74
				C903.2,395.3,907,387.6,902.2,384.8"/>
			<path class="st0" d="M668.4,271.9c30.2-6.6,61.9-5.8,92.5-11c27.7-4.7,55-11.4,82.4-17.4c5.4-1.2,2.6-9.3-2.8-8.2
				c-31.7,7-63.2,14.4-95.3,19.4c-26.5,4.2-53.5,3.3-79.6,9C660.2,265,663,273.1,668.4,271.9"/>
			<path class="st0" d="M694.8,263.9c31.6,3.7,65.4,12.8,104.3,5.9c14.9-2.3,78.8-9.9,78.4-33.7C878.8,191,709.3,260.3,694.8,263.9"
				/>
			<path class="st0" d="M782.7,327.1c39.5-9.9,81.4-16.2,122.2-9.6c26.1,3.3,95.9,8.1,106.8,40.4c-13.8,18.7-37.9,5.3-57.3,0.4
				c-28.3-6.9-100.8-20.4-131.9-21.7"/>
			<path class="st0" d="M805.4,331.4c50.5-7,102.4,4.9,151.4,16.3c5.4,1.3,7-7.2,1.6-8.4c-49.7-11.6-102.4-23.5-153.7-16.5
				C799.3,323.6,799.9,332.1,805.4,331.4"/>
		</g>
		<g>
			<path class="st0" d="M149.3,182.9c3.8,19.2,17.1,37.5,29.2,49.8c6.9,7.5,46,42.8,57.9,38.7c19.7-6.8-17.4-45.8-24.2-51.9
				C194.9,203.9,169.8,191.9,149.3,182.9"/>
			<path class="st0" d="M89.2,40.4c14.2,17.6,16.7,45.1,18.2,66.9c1.9,28.6-1.3,57.8-1.4,86.6C105.9,250,96,303,86.3,358
				c-0.7,4.1,5.7,4.9,6.4,0.9c5.1-29.1,11.2-58.1,15.5-87.4c4.3-29.5,4.2-58.8,4.3-88.5c0.1-27.4,2.8-54.8,1-82.1
				C112,80,107.9,53.3,94.3,36.5C91.7,33.3,86.6,37.2,89.2,40.4"/>
			<path class="st0" d="M102.3,271.8c-4.3,13.8-48.2,109.4-20.6,116.5c18.1,4.1,28.8-39.5,29-50.2c3.2-21.7-3.1-46.5-6.3-67.1
				L102.3,271.8L102.3,271.8z"/>
			<path class="st0" d="M92.3,295.4C70.8,314,12,344.5,1.9,385.9c-7.1,29,17.6,21.3,32.7,7.6c14.3-14.4,32.1-35.1,41.9-53.6"/>
			<path class="st0" d="M29.9,379.4c17.5-19.3,36.2-37.3,54.4-56c2.9-3-2.2-6.8-5.1-3.9c-18.2,18.6-36.9,36.7-54.4,55.9
				C22,378.6,27.1,382.4,29.9,379.4"/>
			<path class="st0" d="M105.2,206.5c-15,34.7-49.3,53.7-73.5,81.1c-2.7,3.1,2.4,7,5.1,3.9c24.7-28,59-47.1,74.3-82.5
				C112.8,205.2,106.8,202.7,105.2,206.5"/>
			<path class="st0" d="M84.6,242c-19.5,11-47.4,21.6-63.8,36.8c-10.3,8.4-36.8,37.8-7.4,37C42.7,313.5,70.6,262.1,84.6,242"/>
			<path class="st0" d="M107.8,134.1c8.8,18.2,24,34.3,37.5,49.2c21.2,23.6,43.5,47.4,69.4,65.9c3.3,2.4,7.3-2.7,3.9-5.1
				c-25.6-18.3-46.9-41.7-68.2-64.7c-13.1-14.2-28.1-30.3-36.6-47.8C111.9,127.9,105.9,130.4,107.8,134.1"/>
			<path class="st0" d="M84.9,120.3c11-8.5,20.3-21.4,26.4-33.9c1.8-3.7-4.1-6.2-5.9-2.5c-5.6,11.4-14.3,23.5-24.4,31.3
				C77.6,117.8,81.6,122.9,84.9,120.3"/>
			<path class="st0" d="M180,430.6c-7.8,14.7-73.3,150.8-38,154c19.5,2.6,33.4-40.8,36.9-55.3c2.9-13.8,3.1-31.4,3.8-45.8
				C182.3,462.7,182.5,452,180,430.6"/>
			<path class="st0" d="M155.9,549.4c15.9-28.9,19.7-60.3,24.5-92.4c5-33.3,2.5-61.8-13.5-92.1c-1.9-3.6-7.8-1.1-5.9,2.5
				c7.5,14.2,12.6,28.8,15.3,44.6c2.9,16.7-0.5,32.3-3,48.6c-4.5,30-8.5,59.2-23.3,86.3C148,550.6,154,553,155.9,549.4"/>
			<path class="st0" d="M125,310.6c17.5,20.6,29.4,45.2,42.9,68.4c9.2,15.8,20.4,29.9,32.3,43.8c24,27.8,51.2,59.4,82.7,78.9
				c3.5,2.2,7.4-2.9,3.9-5.1c-32.3-20-59.5-52.3-84.1-80.8c-28.9-33.5-44.2-75.7-72.7-109.2C127.4,303.5,122.3,307.5,125,310.6"/>
			<path class="st0" d="M196.6,413.6c18.7,29.1,36.2,67.3,62.4,89.7c12.8,11.5,60.7,37,51.7,0.2c-4.6-19.1-27.5-33-41.7-44.5
				c-25.5-21.7-58.1-36.1-82.9-58.6"/>
			<path class="st0" d="M107.5,183.7c16.5,16.3,23.2,39.4,37.6,57.2c17.2,21.3,36.5,41.4,56.7,59.7c41.4,37.4,94,59.4,136.4,95.6
				c3.2,2.7,7-2.4,3.9-5.1c-39.6-33.9-87.4-56-128.1-88.6c-23.6-18.9-44.5-42.4-63.8-65.6c-14.7-17.7-21-40.9-37.6-57.3
				C109.7,176.8,104.6,180.7,107.5,183.7"/>
			<path class="st0" d="M222.4,313.1c23.3,22,52.5,54.6,75.7,74.2c8.3,7.5,45.9,24.8,60.3,13.3c26.1-21.4-118.7-78.4-128.9-82.2"/>
			<path class="st0" d="M148.7,245.1c20.7,25.5,20.8,60.5,37.4,88.1c14.2,23.7,37.3,44.9,59,61.8c3.3,2.5,7.2-2.6,3.9-5.1
				c-23.7-18.4-49.9-42-62.2-69.8c-11.6-26.2-14.7-56.2-33.1-79C151.1,238,146.1,241.9,148.7,245.1"/>
			<path class="st0" d="M176.1,299.9c4.3,28.5,17.1,66.2,37.5,87.4c9,8.1,57.8,49.4,58.7,12.1c-0.1-16.5-31.3-37.9-42.6-48
				c-15-12.2-39.2-23.1-48.7-39.8"/>
			<path class="st0" d="M122.1,202.9c3.7,27.3,2.1,54.8,1.7,82.2c-0.4,25.4,0.8,50.7-0.7,76.1c-2.8,46.5-7.4,95.3-24.9,138.9
				c-1.5,3.9,4.4,6.3,5.9,2.5c17.2-42.6,21.3-89.3,25-134.7c2.2-27.4,1-54.5,1.1-81.9c0.1-28.1,2.1-56-1.7-83.9
				C127.9,197.9,121.5,198.8,122.1,202.9"/>
			<path class="st0" d="M120.6,420.7c-2.2,13-58,129.2-27.3,124c12.8-2.1,29.9-46.7,32.1-59.7c4.5-23.2-2.5-55.2-2.3-78.2"/>
			<path class="st0" d="M122,376.9c-9.7,25.6-27,44.4-41.1,67.5c-14.7,24.2-26,50.5-34.7,77.4c-1.3,3.9,4.6,6.4,5.9,2.5
				c9.1-28.2,21.3-55.2,36.6-80.5c13.5-22.3,29.8-39.6,39.1-64.4C129.4,375.5,123.5,373,122,376.9"/>
			<path class="st0" d="M89.5,436.8c-8.7,12.6-99.2,141.9-59,142.7c17.9-0.2,29.3-43.1,33-56.2c9.3-28.4,17.1-64.6,30-92.6"/>
			<path class="st0" d="M178,532.5c-1.1,18.4,4.2,67.9,5.8,85.8c2.2,14.2,4.7,91.6,25.6,92.7c45.9,0.5-26.1-158.6-30.3-172"/>
			<path class="st0" d="M210.3,681.2c-3.2-46.7-16.8-92.9-26.5-138.5c-0.9-4-7.2-3.2-6.4,0.9c9.8,45.6,23.3,91.8,26.5,138.5
				C204.2,686.2,210.6,685.4,210.3,681.2"/>
			<path class="st0" d="M183.1,489.6c16.7,15.9,29.3,35.9,45.3,52.7c14.4,15.2,29.9,29.3,45,43.8c3,2.8,6.9-2.3,3.9-5.1
				c-17.5-16.7-35.2-33.2-51.6-50.9c-13.6-14.6-24.2-31.7-38.7-45.6C184,481.6,180.1,486.7,183.1,489.6"/>
			<path class="st0" d="M199,502.6c10.9,21.1,19.3,45.8,39.7,67c7.6,8.2,38.9,44.7,53.4,34.6C320.6,586.2,207.3,510.1,199,502.6"/>
			<path class="st0" d="M196.4,583.3c22.6,20.4,43.8,43.6,56.7,71.7c8.8,17.5,34.8,62.8,19.3,82.9c-17.3-0.8-19-21.3-24-35.4
				c-7.5-20.4-29.2-70.9-41.4-90.7"/>
			<path class="st0" d="M203.2,599.1c25.3,28.4,39.5,65.4,52.8,100.5c1.4,3.9,7.4,1.4,5.9-2.5c-13.5-35.6-28-73.2-53.7-102
				C205.5,592.1,200.4,596,203.2,599.1"/>
		</g>
	</g>
</g>
</svg>
