<?xml version="1.0" encoding="UTF-8"?><svg xmlns="http://www.w3.org/2000/svg" xmlns:xlink="http://www.w3.org/1999/xlink" viewBox="0 0 429.71 429.71"><defs><style>.cv{fill:url(#be);}.cw{fill:url(#t);}.cx{fill:url(#bu);}.cy{fill:url(#bq);}.d`{fill:url(#ca);}.da{fill:url(#ap);}.db{fill:url(#r);}.dc{fill:url(#bk);}.dd{fill:url(#ai);}.de{fill:url(#ch);}.df{fill:url(#y);}.dg{fill:url(#l);}.dh{fill:url(#bl);}.di{fill:url(#cm);}.dj{fill:url(#bp);}.dk{fill:url(#af);}.dl{fill:url(#br);}.dm{fill:url(#aq);}.dn{fill:url(#u);}.do{fill:url(#ah);}.dp{fill:url(#b`);}.dq{fill:url(#v);}.dr{fill:url(#ck);}.ds{fill:url(#av);}.dt{fill:url(#a`);}.du{fill:url(#as);}.dv{fill:url(#m);}.dw{fill:url(#bh);}.dx{fill:url(#aw);}.dy{opacity:.08;}.e`{fill:url(#bm);}.ea{fill:url(#ba);}.eb{fill:url(#ao);}.ec{fill:url(#bj);}.ed{fill:url(#bd);}.ee{fill:url(#ce);}.ef{fill:url(#f);}.eg{fill:url(#bg);}.eh{fill:url(#ae);}.ei{fill:url(#bi);}.ej{fill:url(#bo);}.ek{fill:url(#p);}.el{fill:url(#g);}.em{fill:url(#bb);}.en{fill:url(#ad);}.eo{fill:url(#ab);}.ep{fill:url(#cb);}.eq{fill:url(#ak);}.er{fill:url(#cg);}.es{fill:url(#au);}.et{fill:url(#bf);}.eu{fill:url(#c`);}.ev{fill:url(#cf);}.ew{fill:url(#i);}.ex{fill:url(#bc);}.ey{fill:url(#aj);}.f`{fill:url(#ci);}.fa{fill:url(#ar);}.fb{fill:url(#bv);}.fc{fill:url(#h);}.fd{fill:url(#cn);}.fe{fill:url(#d);}.ff{fill:url(#e);}.fg{fill:url(#by);}.fh{fill:url(#am);}.fi{fill:url(#bw);}.fj{fill:url(#co);}.fk{fill:url(#x);}.fl{fill:url(#at);}.fm{fill:url(#aa);}.fn{fill:url(#s);}.fo{fill:url(#bx);}.fp{fill:url(#bn);}.fq{fill:url(#n);}.fr{fill:url(#ac);}.fs{fill:url(#cs);}.ft{fill:url(#cj);}.fu{fill:url(#cc);}.fv{fill:url(#w);}.fw{fill:url(#al);}.fx{fill:url(#cp);}.fy{fill:url(#j);}.g`{fill:url(#cl);}.ga{fill:url(#o);}.gb{fill:url(#an);}.gc{fill:url(#bt);}.gd{fill:url(#ax);}.ge{fill:url(#q);}.gf{fill:url(#ag);}.gg{fill:url(#cr);}.gh{fill:url(#ay);}.gi{fill:url(#k);}.gj{fill:url(#cu);}.gk{fill:url(#bs);}.gl{fill:url(#cd);}.gm{fill:url(#cq);}.gn{fill:url(#ct);}</style><linearGradient id="d" x1="0" y1="54.24" x2="49.4" y2="54.24" gradientTransform="matrix(1, 0, 0, 1, 0, 0)" gradientUnits="userSpaceOnUse"><stop offset="0" stop-color="#ff0074"/><stop offset="1" stop-color="#ff4097"/></linearGradient><linearGradient id="e" x1="359.19" y1="392.76" x2="395.92" y2="392.76" xlink:href="#d"/><linearGradient id="f" x1="0" y1="200.81" x2="38.07" y2="200.81" xlink:href="#d"/><linearGradient id="g" x1="144.73" y1="31.77" x2="183.17" y2="31.77" xlink:href="#d"/><linearGradient id="h" x1="226.01" y1="14.24" x2="316.27" y2="14.24" xlink:href="#d"/><linearGradient id="i" x1="0" y1="133.64" x2="12.97" y2="133.64" xlink:href="#d"/><linearGradient id="j" x1="148.23" y1="415.26" x2="178.89" y2="415.26" xlink:href="#d"/><linearGradient id="k" x1="416.74" y1="133.62" x2="429.71" y2="133.62" xlink:href="#d"/><linearGradient id="l" x1="409.24" y1="33.52" x2="429.71" y2="33.52" xlink:href="#d"/><linearGradient id="m" x1="359.24" y1="10.99" x2="395.77" y2="10.99" xlink:href="#d"/><linearGradient id="n" x1="264.7" y1="424.9" x2="316.7" y2="424.9" xlink:href="#d"/><linearGradient id="o" x1="0" y1="124.33" x2="5.05" y2="124.33" xlink:href="#d"/><linearGradient id="p" x1="270.57" y1="3.35" x2="291.53" y2="3.35" xlink:href="#d"/><linearGradient id="q" x1="418.39" y1="33.52" x2="429.71" y2="33.52" xlink:href="#d"/><linearGradient id="r" x1="424.03" y1="228.61" x2="429.71" y2="228.61" xlink:href="#d"/><linearGradient id="s" x1="155.02" y1="418.35" x2="160.28" y2="418.35" xlink:href="#d"/><linearGradient id="t" x1="363.54" y1="5.17" x2="368.68" y2="5.17" xlink:href="#d"/><linearGradient id="u" x1="428.49" y1="112.8" x2="429.71" y2="112.8" xlink:href="#d"/><linearGradient id="v" x1="386.86" y1="4.94" x2="391.9" y2="4.94" xlink:href="#d"/><linearGradient id="w" x1="158.99" y1="4.96" x2="161.84" y2="4.96" xlink:href="#d"/><linearGradient id="x" x1="0" y1="238.68" x2="9.13" y2="238.68" xlink:href="#d"/><linearGradient id="y" x1="276.31" y1="429.12" x2="290.06" y2="429.12" xlink:href="#d"/><linearGradient id="a`" x1="187.28" y1="359.1" x2="257.12" y2="359.1" xlink:href="#d"/><linearGradient id="aa" x1="30.64" y1="298.08" x2="100.53" y2="298.08" xlink:href="#d"/><linearGradient id="ab" x1="319.21" y1="204.09" x2="367.26" y2="204.09" xlink:href="#d"/><linearGradient id="ac" x1="62.61" y1="112.77" x2="110.68" y2="112.77" xlink:href="#d"/><linearGradient id="ad" x1="36.11" y1="382.29" x2="81.09" y2="382.29" xlink:href="#d"/><linearGradient id="ae" x1="221.46" y1="131.41" x2="258.48" y2="131.41" xlink:href="#d"/><linearGradient id="af" x1="133.07" y1="117.46" x2="188.92" y2="117.46" xlink:href="#d"/><linearGradient id="ag" x1="130.55" y1="290.58" x2="169.06" y2="290.58" xlink:href="#d"/><linearGradient id="ah" x1="211.92" y1="245.93" x2="249.28" y2="245.93" xlink:href="#d"/><linearGradient id="ai" x1="349.36" y1="79.23" x2="386.79" y2="79.23" xlink:href="#d"/><linearGradient id="aj" x1="288.06" y1="301.26" x2="331.82" y2="301.26" xlink:href="#d"/><linearGradient id="ak" x1="368.46" y1="298.68" x2="420.64" y2="298.68" xlink:href="#d"/><linearGradient id="al" x1="267.91" y1="91.98" x2="320.08" y2="91.98" xlink:href="#d"/><linearGradient id="am" x1="90.37" y1="200.22" x2="181.1" y2="200.22" xlink:href="#d"/><linearGradient id="an" x1="62.71" y1="216.66" x2="71.7" y2="216.66" xlink:href="#d"/><linearGradient id="ao" x1="381.39" y1="164.31" x2="390.41" y2="164.31" xlink:href="#d"/><linearGradient id="ap" x1="119.87" y1="368.09" x2="128.95" y2="368.09" xlink:href="#d"/><linearGradient id="aq" x1="299.32" y1="388.11" x2="308.43" y2="388.11" xlink:href="#d"/><linearGradient id="ar" x1="211.81" y1="59.12" x2="220.85" y2="59.12" xlink:href="#d"/><linearGradient id="as" x1="76.12" y1="24.12" x2="85.84" y2="24.12" xlink:href="#d"/><linearGradient id="at" x1="277.61" y1="191.51" x2="287.35" y2="191.51" xlink:href="#d"/><linearGradient id="au" x1="14.19" y1="325.6" x2="23.92" y2="325.6" xlink:href="#d"/><linearGradient id="av" x1="188.08" y1="177.2" x2="197.74" y2="177.2" xlink:href="#d"/><linearGradient id="aw" x1="275.69" y1="322" x2="285.43" y2="322" xlink:href="#d"/><linearGradient id="ax" x1="283.66" y1="272.76" x2="288.25" y2="272.76" xlink:href="#d"/><linearGradient id="ay" x1="37.88" y1="172.2" x2="42.45" y2="172.2" xlink:href="#d"/><linearGradient id="b`" x1="394.23" y1="324.49" x2="399.99" y2="324.49" xlink:href="#d"/><linearGradient id="ba" x1="293.67" y1="117.79" x2="299.48" y2="117.79" xlink:href="#d"/><linearGradient id="bb" x1="293.69" y1="64.7" x2="299.49" y2="64.7" xlink:href="#d"/><linearGradient id="bc" x1="394.25" y1="271.82" x2="400.03" y2="271.82" xlink:href="#d"/><linearGradient id="bd" x1="240.7" y1="12.73" x2="260.65" y2="12.73" xlink:href="#d"/><linearGradient id="be" x1="292.35" y1="18.91" x2="304.47" y2="18.91" xlink:href="#d"/><linearGradient id="bf" x1="9.88" y1="219.62" x2="24.01" y2="219.62" xlink:href="#d"/><linearGradient id="bg" x1="5.2" y1="204.14" x2="11.79" y2="204.14" xlink:href="#d"/><linearGradient id="bh" x1="420.07" y1="155.29" x2="423.55" y2="155.29" xlink:href="#d"/><linearGradient id="bi" x1="375.89" y1="387.96" x2="384.62" y2="387.96" xlink:href="#d"/><linearGradient id="bj" x1="147.28" y1="25.39" x2="152.66" y2="25.39" xlink:href="#d"/><linearGradient id="bk" x1="154.96" y1="56.26" x2="173.8" y2="56.26" xlink:href="#d"/><linearGradient id="bl" x1="336.17" y1="179.54" x2="342.41" y2="179.54" xlink:href="#d"/><linearGradient id="bm" x1="339.75" y1="218.42" x2="349.12" y2="218.42" xlink:href="#d"/><linearGradient id="bn" x1="344.23" y1="246.43" x2="357.51" y2="246.43" xlink:href="#d"/><linearGradient id="bo" x1="79.58" y1="88.3" x2="85.88" y2="88.3" xlink:href="#d"/><linearGradient id="bp" x1="83.31" y1="127.1" x2="92.31" y2="127.1" xlink:href="#d"/><linearGradient id="bq" x1="87.42" y1="155.06" x2="100.99" y2="155.06" xlink:href="#d"/><linearGradient id="br" x1="66.25" y1="393.72" x2="74.56" y2="393.72" xlink:href="#d"/><linearGradient id="bs" x1="75.6" y1="399.85" x2="77.56" y2="399.85" xlink:href="#d"/><linearGradient id="bt" x1="39.46" y1="398.13" x2="40.86" y2="398.13" xlink:href="#d"/><linearGradient id="bu" x1="238.42" y1="115.87" x2="247.15" y2="115.87" xlink:href="#d"/><linearGradient id="bv" x1="249.18" y1="160.94" x2="254.31" y2="160.94" xlink:href="#d"/><linearGradient id="bw" x1="226.29" y1="162.42" x2="231.22" y2="162.42" xlink:href="#d"/><linearGradient id="bx" x1="133.09" y1="298.7" x2="138.48" y2="298.7" xlink:href="#d"/><linearGradient id="by" x1="140.89" y1="266.93" x2="147.65" y2="266.93" xlink:href="#d"/><linearGradient id="c`" x1="140.79" y1="329.57" x2="159.61" y2="329.57" xlink:href="#d"/><linearGradient id="ca" x1="236.98" y1="255.41" x2="244.15" y2="255.41" xlink:href="#d"/><linearGradient id="cb" x1="244.76" y1="260.59" x2="246.53" y2="260.59" xlink:href="#d"/><linearGradient id="cc" x1="214.83" y1="259.44" x2="216.2" y2="259.44" xlink:href="#d"/><linearGradient id="cd" x1="374.29" y1="88.65" x2="381.46" y2="88.65" xlink:href="#d"/><linearGradient id="ce" x1="352.03" y1="92.51" x2="353.67" y2="92.51" xlink:href="#d"/><linearGradient id="cf" x1="382" y1="94" x2="383.77" y2="94" xlink:href="#d"/><linearGradient id="cg" x1="302.11" y1="319.89" x2="316.27" y2="319.89" xlink:href="#d"/><linearGradient id="ch" x1="314.21" y1="304.88" x2="320.98" y2="304.88" xlink:href="#d"/><linearGradient id="ci" x1="317.15" y1="338.59" x2="327.84" y2="338.59" xlink:href="#d"/><linearGradient id="cj" x1="373.46" y1="268.67" x2="388.32" y2="268.67" xlink:href="#d"/><linearGradient id="ck" x1="406.67" y1="316.12" x2="417.92" y2="316.12" xlink:href="#d"/><linearGradient id="cl" x1="273.06" y1="61.95" x2="287.86" y2="61.95" xlink:href="#d"/><linearGradient id="cm" x1="306.11" y1="109.49" x2="317.51" y2="109.49" xlink:href="#d"/><linearGradient id="cn" x1="105.21" y1="203.53" x2="125.06" y2="203.53" xlink:href="#d"/><linearGradient id="co" x1="134.96" y1="193.49" x2="155.95" y2="193.49" xlink:href="#d"/><linearGradient id="cp" x1="156.79" y1="209.7" x2="168.91" y2="209.7" xlink:href="#d"/><linearGradient id="cq" x1="78.9" y1="32.87" x2="81.64" y2="32.87" xlink:href="#d"/><linearGradient id="cr" x1="280.39" y1="200.33" x2="283.16" y2="200.33" xlink:href="#d"/><linearGradient id="cs" x1="16.99" y1="334.39" x2="19.77" y2="334.39" xlink:href="#d"/><linearGradient id="ct" x1="190.79" y1="185.86" x2="193.47" y2="185.86" xlink:href="#d"/><linearGradient id="cu" x1="279.94" y1="330.8" x2="282.73" y2="330.8" xlink:href="#d"/></defs><g id="a"/><g id="b"><g id="c"><g class="dy"><path class="fe" d="M0,45.12c.55,.08,1.13,.1,1.66,.25,5.38,1.5,10.87,2.45,16.41,3.09,1.77,.2,3.57,.15,5.36,.08,1.89-.07,2.83-.91,3.35-2.74,.15-.55,.3-1.12,.29-1.68-.12-6.72-.26-13.43-.42-20.14-.01-.49-.17-.98-.26-1.47-.68-3.75-3.18-5.8-7.77-5.06-5.86,.93-11.6,2.45-17.18,4.5C.96,22.1,.48,22.21,0,22.35c0-.43,0-.86,0-1.29l10.18-3.43c-1.28,0-2.2,0-3.13,0-2.35,0-4.7,0-7.05-.01v-1.29c3.79-.06,7.58-.1,11.37-.18,2.43-.05,4.86-.2,7.29-.22,5.42-.04,7.13,1.1,8.99,5.65,1.12,.73,2.02,1.25,2.83,1.88,.95,.74,1.92,.82,3.02,.47,.44-.14,1.04-.32,1.38-.14,.96,.54,1.76,.45,2.5-.36l1.77,1.08,1.47-.9c.22,.12,.49,.18,.57,.34,.34,.69,.79,1.38,.91,2.12,.26,1.62,.4,3.26,.48,4.9,.13,2.56,.03,5.12,.3,7.69,.24,2.3-.15,4.71-.48,7.03-.84,5.87-1.97,11.71-2.68,17.6-.63,5.25-.82,10.55,.22,15.82,.78,3.94,2.92,6.76,6.59,8.42,.71,.32,1.45,.66,2.06,1.14,1.13,.89,1.08,2.11-.17,2.78-.86,.46-1.87,.79-2.84,.87-5.58,.45-11.16,.36-16.65-.87-.96-.21-1.93-.59-2.78-1.09-1.17-.68-1.24-1.72-.27-2.65,.4-.38,.92-.69,1.43-.92,.71-.33,1.46-.58,2.21-.82,3.21-1.01,5.14-3.26,6.12-6.38,1.04-3.27,.91-6.64,.72-10-.1-1.86-.22-3.71-.32-5.57-.23-4.12,.21-8.11,1.78-11.99,1.34-3.32,1.69-6.79,.75-10.34l-2.36-1.41-1.61,1.07c-1.43-.89-2.79-1.07-4.02,.56-.36,.49-1.25,.58-2.04,.91-.06,.6-.11,1.3-.19,2-.42,3.52-2.09,5.02-5.66,5.1-6.65,.15-13.31,.31-19.96,.49-.92,.02-1.83,.2-2.74,.31v-1.72H9.49l.03-.34C6.35,47.9,3.17,47.16,0,46.41v-1.29Zm37.98,30.49c-.75,4.53-1.99,8.72-6.32,10.96l-.28,2.09c.56,.1,1.18,.25,1.81,.3,2.28,.19,4.56,.34,6.84,.52,.63,.05,1.33,.04,1.26,1.03-.2,.09-.39,.26-.58,.24-3.13-.23-6.25-.46-9.38-.75-1.37-.13-2.39-.74-2.29-2.57l-2.41,1.29,.02,.48c.97,.34,1.92,.75,2.92,1,4.85,1.18,9.79,.98,14.71,.88,.85-.02,1.7-.21,2.53-.41,.41-.1,.77-.4,1.49-.8-3.13-1.45-5.92-2.78-7.68-5.48-1.73-2.66-2.3-5.65-2.64-8.78Zm-.45-7.22h.39c.06-.45,.14-.91,.18-1.37,.13-1.57,.17-3.15,.4-4.7,.85-5.72,1.81-11.43,2.64-17.16,.3-2.04,.44-4.12,.48-6.19,.03-1.25-.23-2.53-1.64-3.32l.76,4.64c-.75,.34-.89,1.01-.69,1.88,.86,3.77,.2,7.41-1.14,10.93-1.17,3.06-1.68,6.19-1.54,9.45,.08,1.95,.11,3.89,.17,5.84Zm-3.94-29.32c-.14-2.34-.32-4.53-.38-6.72-.06-2.24-.01-4.49-.01-6.82h-2.27l.65,13.88,2.01-.35Zm-5.06,2.22c1.51-.35,1.49-1.28,1.49-2.08,0-2.56,.03-5.13-.09-7.69-.11-2.27-.42-4.53-.66-6.8-.06-.58-.14-1.18-1.05-1.05,.1,5.79,.2,11.57,.31,17.62Zm6.41-15.9c-.53,4.69-.47,9.12,.15,13.62,.42-.1,.63-.13,.82-.21,.18-.08,.34-.21,.52-.33-.73-4.23-.45-8.42,.02-12.66l-1.51-.42Zm3.11,.39c-1.13,5.05-.97,11.11,.44,13.43,.16-.51,.37-.86,.36-1.21-.03-1.43-.2-2.86-.18-4.29,.04-2.21,.2-4.43,.32-6.64,.03-.63,.29-1.36-.94-1.29Zm3.03,8.33c.37-2.68,.19-5.57-.58-8.25-.18,1.49-.36,2.67-.45,3.86-.08,1.06-.03,2.12-.06,3.18-.02,.77,.32,1.17,1.09,1.2Z"/><path class="ff" d="M359.24,429.71c-.01-2.28-.09-4.57-.02-6.85,.07-2.07,1.1-3.85,2.23-5.5,.45-.66,1.29-1.11,2.03-1.5,.81-.43,1.72-.69,2.7-1.06,.08-.59,.22-1.22,.26-1.85,.49-7.79,.93-15.58,1.46-23.36,.65-9.57,1.12-19.15,2.52-28.65,.19-1.27,.54-2.51,.78-3.78,.16-.84,.7-1.29,1.47-1.31,2-.06,4-.06,6-.01,1.07,.02,1.38,.82,1.53,1.75,.74,4.52,1.53,9.03,2.24,13.55,1.84,11.66,3.66,23.32,5.47,34.98,.41,2.61,.75,5.23,1.14,7.91,.5,.19,.95,.39,1.42,.53,2.44,.69,3.82,2.4,4.54,4.73,1.07,3.41,1.03,6.91,.77,10.43h-1.29v-5.29c-1.45,.97-2.68,1.8-3.91,2.62-2.39,.7-4.77,1.42-7.17,2.1-.88,.25-1.78,.39-2.67,.57h-9.88c-.46-.14-.91-.34-1.38-.42-2.68-.46-5.29-1.14-7.66-2.53-.39-.23-.79-.42-1.27-.67v3.61h-1.29Zm12.96-71.74c-2.99,19.98-2.99,40.04-4.87,60.17,1.2,.41,2.23,.91,3.32,1.11,3.82,.7,7.69,.8,11.54,.29,1.33-.18,2.68-.48,3.94-.94,1.87-.68,2.04-1.1,1.75-3.08-.49-3.4-.98-6.79-1.51-10.19-2.19-14.06-4.4-28.12-6.61-42.17-.27-1.74-.64-3.47-.96-5.19h-6.6Zm-10.86,62.19c-.28,.83-.53,1.42-.67,2.03-.4,1.67-.28,2.13,1.24,3,1.35,.77,2.78,1.51,4.28,1.92,7.21,1.99,14.41,1.74,21.53-.49,1.99-.62,3.79-1.64,5.39-3.01,.9-.77,1.37-1.61,.92-2.8-.21-.55-.38-1.11-.59-1.73-5.99,5.98-25.53,6.4-32.09,1.08Zm.74-1.28c.71,.52,1.27,1.08,1.95,1.4,1.03,.49,2.1,.9,3.2,1.2,4.77,1.27,9.62,1.31,14.48,.75,2.91-.33,5.78-.99,8.4-2.4,.97-.53,2.36-.96,2.19-2.33-.15-1.21-1.5-1.37-2.5-1.71-.1-.03-.24,.04-.48,.09,.49,2.46-1.14,3.42-3.06,4.15-.47,.18-.95,.34-1.43,.43-5.11,1.02-10.22,1-15.32-.11-2.1-.45-3.81-1.28-3.51-3.99-1.51,.53-2.95,.77-3.92,2.52Z"/><path class="ef" d="M0,239.78c2.56,1.51,5.34,2.4,8.26,2.87,2.91,.46,3.5,.28,4.77-2.39,2.94-6.13,5.82-12.28,8.54-18.51,2.83-6.49,5.45-13.07,8.15-19.62,.11-.26,.19-.53,.33-.93-7.54-1.14-14.64-3.41-21.29-7.33-.33,.89-.68,1.74-.97,2.6-2.34,6.98-4.67,13.97-7.02,20.96-.2,.59-.52,1.15-.78,1.72v-4.3c.28-.65,.6-1.28,.83-1.94,2.32-6.84,4.62-13.69,6.94-20.53,.41-1.21,.93-1.63,2.46-1.48,1.84,.18,3.67,.58,5.5,.9,.55,.09,1.09,.22,1.73,.35,.31-.65,.6-1.21,.85-1.79,2.62-5.96,5.33-11.88,7.79-17.9,1.16-2.83,1.83-5.86,2.73-8.8,.6-1.97,1.2-3.94,1.87-6.16,.54,.4,.82,.66,1.15,.84,.26,.14,.65,.32,.85,.22,.52-.28,.92-.31,1.32,.16,.14,.16,.4,.43,.47,.39,1.49-.76,2.06,1.17,3.59,.86-2.47,5.97-5.85,11.15-7.92,16.95-2.04,5.72-4.36,11.34-6.63,17.21,.54,.28,1.08,.56,1.63,.84,1.78,.91,3.62,1.72,5.32,2.76,1.76,1.07,1.87,1.64,1.08,3.51-4.74,11.2-9.47,22.4-14.28,33.56-1.07,2.49-2.47,4.84-3.71,7.26-.77,1.52-1.99,2.1-3.68,2.06-2.84-.08-5.5-.85-8.1-1.9-.59-.24-1.19-.48-1.78-.72v-1.72Zm17.17-43.41l3.25,1.22c2.27-4.46,8.82-21.41,9.24-23.94l-2.29-.81c-3.41,7.87-6.75,15.58-10.19,23.54Zm13.11,3.12c-2.17-1.9-4.69-2.95-7.37-3.92l-1.05,2.42c2.81,.93,5.55,1.57,8.42,1.5Zm-13.37-5.91c-2.51-.76-4.8-1.32-7.34-1.29,1.63,1.63,3.87,2.82,6.43,3.44l.91-2.15Zm13.42-25.46l-2.06,3.6,2.2,.53c0-.86-.05-1.51,.01-2.14,.06-.68,1.01-1.4-.15-1.99Z"/><path class="el" d="M174.46,0c-.36,2.33-.72,4.65-1.07,6.98-.09,.56-.16,1.13-.26,1.82,.54,.08,1.01,.16,1.48,.21,3.43,.37,5.96,2.07,7.18,5.3,.67,1.78,1.08,3.71,1.26,5.61,.37,4.01-.18,8-.86,11.95-.99,5.7-1.82,11.44-3.06,17.09-.7,3.19-2.02,6.24-3.17,9.32-1.13,3.05-3.43,4.58-6.64,4.99-3.67,.47-7.28,.31-10.86-.55-2.13-.51-3.82-1.72-4.55-3.86-2.42-7.1-4.99-14.16-7.09-21.36-1.57-5.35-2.21-10.94-2.07-16.55,.04-1.77,.26-3.58,.72-5.29,1.26-4.6,4.55-6.97,9.34-6.95,.2,0,.39-.03,.68-.06C154.93,5.72,154.38,2.86,153.84,0c.43,0,.86,0,1.29,0,.43,2.02,.97,4.03,1.25,6.07,.3,2.21,1.26,3.52,3.37,4.6,2.82,1.44,5.39,1.54,8.17,.33,.91-.4,1.83-.79,2.77-1.13,.69-.25,1-.72,1.11-1.42,.45-2.81,.92-5.63,1.38-8.44,.43,0,.86,0,1.29,0Zm-28.66,22.23l.21,.05c.1,1.43,.08,2.87,.32,4.28,1.02,6.15,3.38,11.8,6.59,17.1,.66,1.1,1.49,2.1,2.27,3.12,2.07,2.7,4.91,4.09,8.19,4.67,3.45,.61,6.4-.14,8.47-3.2,.44-.65,.93-1.27,1.37-1.92,2.46-3.62,4.48-7.48,6.23-11.49,2.2-5.06,2.6-10.37,2.2-15.78-.1-1.33-.49-2.68-.95-3.95-1.44-3.98-5.88-5.86-9.42-4.07-1.58,.8-3.32,1.31-5.01,1.89-2.07,.7-4.08,.51-6-.57-1-.56-2.04-1.04-3.07-1.53-4.17-1.99-9.09,.26-10.26,4.69-.58,2.19-.78,4.48-1.16,6.72Zm33.94,15.39c-.32,.63-.65,1.26-.97,1.89-1.87,3.63-3.91,7.15-6.49,10.33-1.75,2.15-3.98,3.18-6.75,3.1-4.34-.12-8.21-1.42-10.98-4.9-1.72-2.17-3.12-4.6-4.63-6.93-.38-.59-.66-1.24-.99-1.86-.07,.82,.1,1.57,.35,2.28,1.85,5.33,3.76,10.64,5.54,16,.76,2.29,2.22,3.58,4.54,4.02,3.04,.57,6.07,.75,9.17,.47,3.2-.3,5.22-1.79,6.45-4.78,2.59-6.26,4.04-12.78,4.76-19.62Z"/><path class="fc" d="M265.99,0c-1.34,2.52-3.42,3.97-6.24,4.38-4.74,.69-9.48,1.38-14.22,2.08-4.81,.71-9.62,1.39-14.42,2.14-1.33,.21-2.66,.55-3.75,1.73,.69,.88,1.71,.96,2.62,1.19,.9,.22,1.84,.26,2.76,.42,1.67,.29,2.33,.95,2.66,2.63,.18,.91,.24,1.85,.52,2.73,.55,1.69,1.67,2.83,3.53,3.01,1.21,.12,2.42,.25,3.63,.23,5.93-.1,11.68,.85,17.31,2.68,3.54,1.15,7.16,1.95,10.89,2.28,2.56,.23,5.08,.83,7.62,1.21,4.52,.69,8.92,.37,13.33-1.07,3.04-.99,6.28-1.35,9.42-2.02,1.11-.24,2.26-.44,3.31-.86,2.34-.94,3.1-2.48,2.62-4.96-.48-2.46-.39-2.65,1.78-3.89,.81-.46,1.66-.86,2.41-1.4,.75-.53,1.51-1.12,2.09-1.82,1.46-1.75,1.36-2.72-.43-4.14-1.29-1.02-2.69-1.89-4.02-2.86-1.26-.93-1.95-2.09-1.31-3.7h2.15c-1.25,1.45-1.26,1.72,.23,2.83,1.09,.81,2.26,1.51,3.35,2.32,2.61,1.95,3.66,3.79,.45,7.07-.93,.95-2.17,1.6-3.3,2.35-.76,.51-1.58,.94-2.38,1.41,.15,.9,.34,1.66,.41,2.43,.23,2.55-.69,4.3-3.03,5.36-1.22,.55-2.56,.92-3.88,1.14-3.88,.66-7.73,1.32-11.48,2.6-3.59,1.22-7.35,1.11-11.05,.68-3.76-.43-7.51-.97-11.23-1.67-3.01-.57-6.01-1.3-8.94-2.2-5.1-1.56-10.28-2.45-15.62-2.43-1.29,0-2.58,.02-3.86-.13-3.19-.36-5.02-2.1-5.64-5.26-.1-.49-.11-1-.16-1.49-.12-1.06-.62-1.7-1.77-1.78-.78-.05-1.56-.18-2.33-.35-.77-.16-1.54-.36-2.26-.64-.8-.31-1.63-.72-1.72-1.72-.1-1.11,.7-1.7,1.55-2.1,.96-.46,1.97-.88,3.01-1.09,2.59-.52,5.2-.97,7.82-1.33,6.44-.89,12.9-1.71,19.34-2.59,.99-.13,1.97-.38,2.93-.64,1.57-.43,2.88-1.24,3.61-2.78h1.72Z"/><path class="ew" d="M0,100.12c1.75,.12,1.79,.11,2.05,1.73,1.06,6.41,2.11,12.83,3.12,19.25,1.02,6.49,1.99,12.99,2.98,19.44,.13,.15,.2,.32,.32,.35,2.63,.69,3.85,2.54,4.22,5.09,.1,.71,.21,1.41,.25,2.13,.3,5.46-1.45,10.41-3.89,15.17-1.09,2.11-2.93,3.33-5.22,3.72-1.25,.21-2.55,.11-3.82,.16v-.86c1.34-.16,2.71-.22,4.02-.51,1.53-.33,2.84-1.1,3.75-2.76q-3.18,1.65-3.8,.69H0v-1.29c2.63,.26,5.14-.13,7.49-1.35,1.32-.68,2.31-1.65,2.7-3.16,.39-1.52,.96-3.01,1.26-4.54,.31-1.58,.39-3.2,.61-5.18l-2.2,1.42c.53,3.13-.08,5.9-1.83,8.4-.31,.45-.68,1.21-1.67,.47,1.87-2.44,2.89-5.13,2.54-8.17-1.83,.46-3.56,.93-5.3,1.3-1.18,.25-2.4,.34-3.6,.49v-1.29c1.41-.15,2.84-.23,4.23-.48,2.33-.41,4.55-1.15,6.42-2.69,1.19-.99,1.2-1.26,.29-2.79C7.63,147.1,3.91,147.82,0,147.82v-.86c.83-.13,1.68-.22,2.5-.41,1.93-.45,3.87-.88,5.75-1.46,.84-.26,1.74-.68,2.11-1.92l-1.86-1.19c.06,2.21-1.2,3.05-2.82,3.35-1.87,.35-3.78,.51-5.68,.76v-1.29c1.83-.18,3.7-.21,5.5-.59,1.73-.37,1.89-.83,1.62-2.63-1.68-10.96-3.35-21.92-5.05-32.87-.31-1.98-.67-3.95-1.02-5.92-.1-.56-.18-1.2-1.04-.96v-1.72Z"/><path class="fy" d="M173.17,429.71c1-5.63,2-11.26,2.99-16.89,.43-2.45,.85-4.9,1.31-7.53-9.3,1.67-18.43,1.7-27.76-.02,1.82,8.2,3.62,16.32,5.42,24.44h-1.29c-.85-3.69-1.71-7.37-2.55-11.06-.94-4.11-1.86-8.23-2.77-12.35-.12-.56-.23-1.12-.27-1.69-.09-1.15,.45-1.96,1.52-2.31,1.02-.33,2.06-.64,3.12-.77,7.56-.95,15.13-1.07,22.66,.23,3.21,.56,3.71,1.3,3.16,4.53-1.29,7.54-2.62,15.08-3.94,22.61-.05,.28-.19,.53-.29,.8h-1.29Zm3.66-26.03c-4.57-2.03-22.19-2-26.54,.04,5.35,1.98,21.93,1.95,26.54-.04Z"/><path class="gi" d="M429.71,101.84h-3.33c-.75,1.22-.74,2.69-.86,4.05-.54,5.97-.99,11.94-1.43,17.92-.4,5.48-.75,10.96-1.12,16.44-.08,1.13-.12,2.26-.18,3.43,2.25,1.3,4.56,1.32,6.92,1.12v1.29c-1.63-.13-3.27-.22-4.89-.41-1.78-.21-3.24-.9-3.45-3.19l-2.33,1.5c1.11,1.43,2.53,1.8,3.9,2.05,2.24,.41,4.51,.62,6.77,.91v.86c-3.89,.19-7.65-.35-11.33-2.37l-.51,2.33c1.2,1.19,2.57,1.76,4.01,2.19,2.55,.78,5.18,.91,7.83,.86v1.29c-.57-.04-1.13-.08-1.7-.12-2.49-.16-4.98-.32-7.34-1.22-.9-.34-1.77-.78-2.88-1.28,.17,2.14,.69,3.97,1.15,5.82,.99,3.93,3.58,5.99,7.39,6.73,1.11,.22,2.25,.25,3.37,.37v1.29l-3.5-.37,.19,1.12c-1.32,.28-1.92-.99-3.41-1.15,.9,.76,1.43,1.29,2.04,1.7,1.41,.95,3.06,1.07,4.68,1.27v.86c-2.83,.32-5.35-.49-7.08-2.73-3.57-4.62-5.9-9.77-5.89-15.76,0-.85,.09-1.72,.28-2.55,.58-2.49,2.01-4.22,4.74-4.72,.2-2.59,.4-5.06,.57-7.54,.61-8.7,1.18-17.4,1.83-26.09,.16-2.06,.58-4.1,.89-6.15,.16-1.08,.77-1.65,1.89-1.6,.92,.03,1.84,.07,2.76,.11v1.72Z"/><path class="dg" d="M429.71,17.62c-3.28,.11-6.55,.23-9.83,.34-1,.04-2,.03-2.99,.15-.22,.03-.39,.5-.73,.97,3.86-.92,4.63-.78,5.52,1.15-.96-.15-1.74-.4-2.52-.36-.84,.04-1.66,.34-2.61,.55,.68,8.86,.64,17.67-.98,26.61,1.01,.23,1.96,.43,2.91,.65,.86,.2,1.66-1.02,2.57-.14-1.08,1.72-2.21,1.88-6,.73,.39,.51,.56,.96,.77,.98,1.06,.1,2.14,.15,3.21,.12,3.56-.11,7.12-.25,10.68-.39v1.72c-1.42-.01-2.85-.04-4.27-.04-3.07,0-6.15,.1-9.22,0-3.42-.11-5.07-1.48-5.99-4.76-.31-1.1-.56-2.23-.65-3.36-.4-5.56-.64-11.14,.35-16.67,.31-1.74,.83-3.48,1.54-5.1,1.16-2.64,3.3-4.06,6.24-4.12,3.43-.08,6.86-.13,10.29-.2,.57-.01,1.14-.08,1.7-.12v1.29Zm-15.88,31.04c2.08-9.88,2.25-19.7,1.1-29.84-1.29,.77-1.96,1.7-2.36,2.75-.53,1.4-1.03,2.83-1.28,4.3-.93,5.47-.69,10.98-.35,16.49,.08,1.27,.42,2.54,.77,3.77,.29,1.02,.77,1.99,2.12,2.53Z"/><path class="dv" d="M360.53,0c1.02,2.96,2.05,5.92,3.06,8.89,.51,1.51,1.55,2.53,2.89,3.31,6.55,3.76,13.39,4.24,20.44,1.71,2.76-.99,4.77-2.77,5.46-5.82C392.99,5.37,393.77,2.69,394.48,0h1.29c-.84,5.18-2.44,10.11-4.66,14.86-1.83,3.93-4.83,6.27-9.17,6.84-2.78,.36-5.54,.43-8.31-.15-2.46-.52-4.56-1.69-6.16-3.62-.95-1.15-1.85-2.37-2.6-3.66C362.26,9.81,360.29,5.09,359.24,0h1.29Zm6.77,15.09c1.24,2.41,3.05,4.14,5.62,4.87,3.82,1.07,7.65,.97,11.41-.25,2.25-.72,3.86-2.24,4.96-4.54-1.59,.89-2.97,1.73-4.41,2.45-.35,.18-.89-.02-1.34-.04l.13-1.28c-4.2,.84-8.32,.51-12.43-.28,.16,.26,.33,.38,.5,.5,.43,.3,1.26,.43,.85,1.19-.39,.72-1.01,.25-1.48-.03-.74-.44-1.44-.93-2.15-1.41-.56-.38-1.11-.79-1.66-1.18Z"/><path class="fq" d="M308.53,429.71c.79-.58,1.55-1.19,2.37-1.73,1.01-.66,2.16-1.15,3.08-1.91,.6-.5,1.25-1.37,1.25-2.07,0-.98-1.02-1.48-1.98-1.64-1.83-.3-3.65-.67-5.5-.79-5.07-.33-10.13-.12-15.17,.5-6.66,.82-13.25,2.01-19.73,3.77-.89,.24-1.77,.57-2.67,.79-1.84,.44-3.22,1.48-4.19,3.08h-1.29c.66-2.16,2.19-3.49,4.28-4.08,3.92-1.09,7.84-2.2,11.82-3.02,8.91-1.84,17.91-2.96,27.03-2.38,1.84,.12,3.68,.47,5.51,.77,.55,.09,1.11,.29,1.6,.57,1.97,1.12,2.33,2.96,.82,4.64-.75,.83-1.73,1.47-2.67,2.12-.76,.52-1.6,.92-2.41,1.37h-2.15Z"/><path class="ga" d="M0,106.14c.27,1.31,.61,2.6,.8,3.92,1.41,10.02,2.79,20.05,4.18,30.07,.24,1.7-.08,2.2-1.55,2.35-1.73,.18-2.55-.37-2.66-1.89-.17-2.35-.26-4.7-.42-7.05-.05-.69-.23-1.37-.35-2.05v-25.35Zm1.11,14.6l-.34,.1,1.08,20.33H3.95c-.96-6.93-1.9-13.68-2.83-20.44Z"/><path class="ek" d="M282.75,0c-1.67,.28-3.35,.52-5,.87-1.32,.28-2.64,.6-3.9,1.08-.74,.28-1.34,.89-2.04,1.37,.69,1.41,1.74,1.89,2.89,1.88,1.19,0,2.45-.1,3.54-.53,3.27-1.29,6.58-2.3,10.09-2.61,.35-.03,.7-.15,1.03-.26,.18-.06,.35-.19,.54-.29C288.78,.2,287.05,.72,285.76,0h4.73c.15,.16,.31,.3,.43,.47,.98,1.36,.81,2.07-.73,2.51-1.23,.35-2.54,.44-3.78,.75-2.07,.51-4.13,1.1-6.19,1.68-1.37,.39-2.72,.9-4.11,1.19-1.62,.33-3.13-.18-4.43-1.17-1.45-1.11-1.5-2.68-.04-3.77,.9-.67,1.96-1.12,2.95-1.66,2.72,0,5.44,0,8.16,0Z"/><path class="ge" d="M429.71,22.77c-8.29,2.42-10.62,7.25-9.77,14.44,.23,1.92,1.25,3.47,2.94,4.53,2.13,1.33,4.34,2.46,6.83,2.95v1.29c-3.54-.58-6.65-2.09-9.24-4.56-1.18-1.12-1.71-2.64-1.92-4.23-.32-2.36-.2-4.71,.5-7.01,.74-2.41,2.02-4.47,4.21-5.77,2.08-1.23,4.29-2.25,6.45-3.36v1.72Z"/><path class="db" d="M429.71,220.44c-1.13,3.52-2.27,7.04-3.39,10.56-.24,.75-.31,1.55-.6,2.27-.84,2.06-.19,3.59,1.53,4.8,.82,.57,1.64,1.13,2.46,1.7v1.29c-2.33-.63-3.92-2.26-5.29-4.09-.37-.49-.46-1.37-.35-2.01,.29-1.69,.68-3.36,1.16-5,1.21-4.11,2.49-8.2,3.77-12.3,.16-.53,.47-1.01,.71-1.52v4.3Z"/><path class="fn" d="M158.99,429.71c-.55-2.8-1.12-5.59-1.63-8.39-.73-4-1.44-8-2.13-12.01-.13-.74-.14-1.51-.21-2.26,1.14-.31,1.27,.31,1.38,.97,.44,2.53,.88,5.06,1.33,7.59,.84,4.7,1.7,9.4,2.55,14.1h-1.29Z"/><path class="cw" d="M365.26,0c-.25,3.15,.96,5.83,2.68,8.35,.36,.53,1.19,.96,.41,1.98-.37-.24-.82-.41-1.1-.73-1.86-2.17-2.88-4.71-3.33-7.51-.11-.7-.26-1.39-.39-2.09h1.72Z"/><path class="dn" d="M429.71,122.47c-.11-.33-.29-.65-.31-.98-.32-5.67-.63-11.35-.92-17.02-.02-.41,.07-.82,.12-1.33h1.1v19.34Z"/><path class="dq" d="M391.9,0c-.27,1.39-.47,2.81-.83,4.17-.49,1.87-1.29,3.62-2.61,5.07-.41,.45-.89,1.05-1.6,.23,.04-.17,.01-.43,.13-.55,1.99-2.19,2.99-4.79,3.28-7.7,.04-.41,.22-.81,.34-1.21h1.29Z"/><path class="fv" d="M160.28,0c.49,2.87,.97,5.74,1.48,8.6,.12,.69,.25,1.3-.98,1.32C159.94,6.68,159.4,3.35,158.99,0h1.29Z"/><path class="fk" d="M0,236.77c.41,.25,.84,.47,1.23,.75,1.93,1.37,4.02,2.06,6.4,1.59,.64-.13,1.26-.33,1.5,.9-.73,.2-1.43,.49-2.15,.55-1.88,.18-3.66-.25-5.32-1.15-.55-.3-1.11-.61-1.66-.91v-1.72Z"/><path class="df" d="M276.31,429.71c4.16-1.28,8.36-1.59,12.62-.56,.4,.1,.76,.37,1.13,.56h-13.75Z"/><path class="dt" d="M244.02,344.98l-1.58,1.31c-2.06-1.1-2.14-1.06-3.98,.42-.53,.42-1.25,.6-2.02,.95-.15,.93-.28,1.98-.5,3.01-.55,2.59-1.9,3.81-4.52,4.14-.35,.05-.71,.04-1.07,.05-10.38,.27-20.76,.55-31.13,.79-1.93,.04-3.86-.08-5.79-.2-2.6-.16-4.26-1.6-4.96-4.04-.43-1.5-.74-3.07-.86-4.63-.45-5.72-.58-11.44,.59-17.11,.27-1.32,.72-2.62,1.26-3.86,1.2-2.76,3.41-4.13,6.38-4.34,.14,0,.29-.01,.43-.02,10.09-.2,20.19-.39,30.28-.59,.57-.01,1.15,0,1.72,.03,3.44,.13,5.86,1.66,6.91,5.05,.08,.27,.21,.53,.28,.7,.83,.39,1.8,.57,2.3,1.15,1.35,1.55,2.75,1.61,4.33,.6q1.73,.82,3.23-.07c.91,.97,1.98,1.21,3.04,.24,1.37,.5,1.51,1.69,1.6,2.69,.25,2.77,.31,5.56,.43,8.35,.02,.5-.2,1.04-.07,1.49,1.09,3.66,.18,7.26-.32,10.85-.82,5.81-1.87,11.58-2.59,17.4-.57,4.62-.59,9.29,.16,13.91,.69,4.25,2.78,7.45,6.85,9.21,.72,.31,1.44,.68,2.03,1.17,.98,.81,.9,2.03-.2,2.68-.66,.39-1.46,.71-2.2,.75-3.5,.15-7,.35-10.49,.22-2.48-.1-4.96-.64-7.41-1.11-.88-.17-1.76-.62-2.51-1.14-.89-.61-.92-1.4-.18-2.19,.43-.46,1-.8,1.55-1.12,.43-.25,.91-.42,1.39-.55,5.12-1.36,7.31-5.07,7.64-9.97,.23-3.49,.08-7.02-.15-10.51-.31-4.63-.12-9.14,1.66-13.5,1.13-2.76,1.44-5.66,1.18-8.64-.1-1.16-.19-2.23-1.59-2.62-.36-.1-.63-.54-1.1-.96Zm-9.04-6.71c-.2-2.81-.26-6.61-.78-10.35-.6-4.34-2.92-5.97-7.3-5.67-.5,.03-1,.11-1.48,.21-2.37,.52-4.76,.99-7.11,1.59-4.99,1.28-9.88,2.8-14.48,5.19-4.67,2.43-6.22,6.45-6.04,11.38,.11,3,1.43,5.38,4.25,6.68,1.94,.9,3.89,1.8,5.92,2.46,5.45,1.78,11.08,2.76,16.76,3.43,2.05,.24,4.13,.35,6.19,.28,2.37-.07,3.34-1.01,3.76-3.32,.19-1.05,.29-2.13,.31-3.19,.04-2.57,.01-5.15,.01-8.69Zm-39,16.12c6.99-.42,14.02-.12,21.31-.78-3.49-.9-6.72-1.57-9.83-2.6-2.42-.8-4.77-1.93-7.03-3.13-2.13-1.13-3.27-3.08-3.78-5.46-1.21-5.75,1.1-11.15,6.14-14.11,.8-.47,1.61-.96,2.47-1.28,3.62-1.32,7.27-2.57,10.91-3.84,.66-.23,1.34-.4,2.01-.6-.27-.19-.48-.22-.69-.22-6.87,.13-13.74,.26-20.61,.41-.71,.02-1.42,.12-2.11,.28-.2,.05-.32,.43-.71,.99,2.2-.42,4.11-1.32,5.66,.41-.21,.74-.56,.86-1.16,.61-1.36-.58-2.63-.19-4.02,.49,.97,8.77,.54,17.52-.84,26.08,1.77,1.24,3.41,1.02,5.15,.26,.09,.44,.25,.88,.18,.92-.96,.54-1.96,1.02-3.06,1.58Zm-3.01-30.25l-.49-.26c-.55,.71-1.26,1.35-1.63,2.15-.57,1.22-1.06,2.51-1.34,3.83-1.12,5.37-1.01,10.81-.62,16.24,.11,1.49,.35,2.99,.7,4.44,.3,1.23,.82,2.42,2.29,3.1,1.96-9.89,2.41-19.66,1.09-29.49Zm41.15,69.57c4.47,2.69,18.45,3.32,21.57,1.12-1.82-1.14-3.69-2.15-5.37-3.41-1.76-1.32-2.85-3.22-3.43-5.32-.55-2.03-.9-4.11-1.38-6.37-.19,5.16-1.75,9.42-6.11,11.82-.09,.84-.15,1.4-.21,1.97,3.26,.88,6.72,.49,10.03,1.19-.14,1.24-.87,1.12-1.48,1.07-2.56-.21-5.11-.45-7.67-.71-.63-.07-1.26-.23-1.88-.41-1.09-.31-1.66-.97-1.01-2.45-1.17,.57-1.97,.97-3.06,1.5Zm11.21-18.59h.29c.13-2.05,.14-4.11,.43-6.13,.96-6.72,2.08-13.42,3.01-20.15,.27-1.97,.21-3.99,.18-5.99,0-.89-.26-1.79-1.49-2.54,.27,1.77,.48,3.22,.73,4.84-.15,.12-.47,.36-.87,.66,1.1,4.42,.4,8.71-1.17,12.96-.58,1.59-1.05,3.31-1.12,4.99-.15,3.78-.01,7.57,0,11.35Zm-5.92-30.93l1.76-.13v-13.5l-2.51-.23c.25,4.63,.49,9.17,.75,13.86Zm-3.43-15.72c.14,5.82,.27,11.63,.41,17.4,1.35,.21,1.27-.65,1.33-1.33,.45-5.01-.17-9.97-.62-14.94-.05-.58-.27-1.12-1.11-1.13Zm6.63,1.95c-.33,4.62-.45,8.95,.29,13.42l1.03-.29v-12.99c-.34-.04-.68-.07-1.33-.14Zm3.25-.28c-.75,4.1-1.06,7.82-.5,11.58,.12,.79,.1,1.63,.87,2.4,.21-.42,.43-.65,.42-.88-.18-3.99-.42-7.97,.15-11.95,.04-.24-.44-.56-.94-1.15Zm2.88,1.18l-.58-.04c-.28,2.35-.45,4.71-.22,7.09,.02,.25,.53,.46,.99,.84,.08-.77,.18-1.25,.16-1.73-.1-2.05-.23-4.1-.35-6.15Z"/><path class="fm" d="M89.85,285.7c-1.05-.67-1.75-1.12-2.54-1.63l-1.51,1.15c-.16-.05-.4-.05-.54-.18-1-.87-1.97-.63-2.93,.04-.78,.55-1.55,1.1-2.66,1.9-.03,.32-.09,1.09-.19,1.85-.42,3.26-2.09,4.81-5.38,5-.29,.02-.57,0-.86,.01-9.95,.26-19.89,.53-29.84,.75-2.28,.05-4.58-.05-6.86-.21-2.31-.16-3.86-1.47-4.59-3.63-.44-1.28-.79-2.62-.91-3.96-.51-5.71-.68-11.44,.3-17.12,.24-1.4,.63-2.8,1.12-4.13,1.25-3.41,3.75-5.1,7.39-5.12,4.22-.02,8.45-.02,12.67-.1,5.65-.12,11.31-.32,16.96-.46,1-.03,2.01-.01,3,.09,2.8,.3,4.82,1.68,5.83,4.38,.17,.47,.35,.93,.49,1.31,.83,.39,1.81,.55,2.31,1.13,1.34,1.55,2.74,1.61,4.39,.55,1.02,.69,2.05,1.29,3.05-.12,1.04,.99,2.09,1.44,3.13,.3,1.24,.44,1.49,1.47,1.57,2.45,.22,2.78,.31,5.56,.47,8.34,.06,1.06,.13,2.13,.28,3.18,.4,2.74-.04,5.43-.44,8.11-.89,5.87-1.99,11.71-2.7,17.6-.63,5.19-.81,10.42,.18,15.61,.77,4.01,2.87,6.94,6.66,8.61,.72,.31,1.44,.67,2.05,1.15,1.11,.88,1.03,2.09-.21,2.79-.67,.38-1.47,.68-2.22,.71-3.5,.14-7,.34-10.49,.2-2.41-.09-4.82-.62-7.2-1.08-.89-.17-1.77-.59-2.54-1.08-.93-.6-1.03-1.63-.2-2.36,.67-.6,1.52-1.14,2.37-1.37,5.33-1.4,7.74-5.1,8.17-10.3,.19-2.27,.08-4.57,.03-6.86-.06-3.08-.2-6.15-.28-9.22-.06-2.33,.53-4.53,1.32-6.7,.88-2.42,1.73-4.87,1.68-7.5-.03-1.42-.22-2.84-.33-4.1Zm-11.58-6.37h-.14c0-2.58,.07-5.16-.02-7.73-.06-1.71-.23-3.44-.58-5.11-.81-3.85-2.73-5.31-6.64-5.28-.57,0-1.15,.04-1.71,.15-5.41,1.08-10.8,2.25-15.95,4.24-2.59,1-5.09,2.27-7.53,3.6-2.17,1.19-3.56,3.17-3.99,5.6-.34,1.95-.49,3.98-.39,5.95,.11,2.09,1.16,3.87,3.05,4.9,1.81,.99,3.67,1.94,5.61,2.65,4.86,1.77,9.92,2.76,15.03,3.45,2.9,.39,5.83,.67,8.75,.72,2.97,.05,4.11-1.16,4.4-4.12,.09-.92,.09-1.86,.1-2.79,.01-2.08,0-4.15,0-6.23Zm-41.61,13.4c1.08,.5,2.24,.63,3.41,.6,5.22-.12,10.45-.24,15.67-.4,1.5-.04,2.99-.18,4.95-.31-3.61-.94-6.73-1.68-9.81-2.58-2.61-.76-5.12-1.81-7.4-3.34-2.04-1.36-3.24-3.27-3.51-5.65-.68-6.19,.83-11.3,7.09-14.22,3.16-1.48,6.48-2.63,9.76-3.85,1.52-.57,3.12-.93,4.69-1.39-.31-.2-.58-.24-.85-.24-6.8,.13-13.6,.26-20.39,.4-.64,.01-1.29,.06-1.91,.22-.24,.06-.39,.48-.72,.93,1.17-.19,1.99-.41,2.82-.42,.69,0,1.43,.13,2.06,.4,.65,.28,.7,.83-.01,1.35-1.57-.77-3.1-.5-4.36,.18,.07,4.57,.29,8.94,.14,13.29-.15,4.34-.67,8.67-1.03,13.05,2.01,.91,2.02,.94,4.11,.37,.61-.17,.96-.1,1.12,.58-.57,1.12-1.77,1.11-2.76,1.28-.99,.17-1.95-.88-3.07-.27Zm-.32-29.99c-1.31,.78-1.96,1.63-2.33,2.63-.54,1.47-1.08,2.97-1.34,4.5-.92,5.47-.69,10.98-.33,16.47,.08,1.27,.44,2.54,.8,3.76,.3,1.01,.83,1.94,2.09,2.47,2.04-9.84,2.25-19.63,1.1-29.84Zm62.82,71.13c-1.93-1.2-3.75-2.17-5.4-3.4-1.76-1.31-2.89-3.19-3.47-5.29-.53-1.9-.83-3.86-1.22-5.78-1.88,7.67-2.38,8.54-6.31,11.13l-.25,1.98s.18,.09,.32,.1c2.91,.28,5.83,.53,8.74,.84,.34,.04,.65,.4,.98,.61-.3,.24-.62,.7-.89,.68-3.33-.31-6.67-.6-9.98-1.08-1.27-.19-1.35-.59-1.31-2.38-.94,.48-1.78,.92-2.72,1.4,3.61,2.61,17.69,3.37,21.52,1.19Zm-10.52-21.77l.44,.05c.05-.25,.11-.51,.14-.76,.3-2.84,.51-5.69,.91-8.51,.78-5.51,1.7-11.01,2.51-16.52,.28-1.91,.38-3.86-.33-5.72-.17-.43-.54-.79-.82-1.18l-.4,.22,.78,4.4c-.83,.9-.89,.91-.68,1.92,.79,3.69,.35,7.32-1.08,10.72-2.13,5.04-1.57,10.22-1.47,15.4Zm-5.93-28.88l1.8-.2v-13.51l-2.46-.16,.66,13.87Zm-3.48-15.79c.08,1.26,.21,2.52,.23,3.77,.07,4.06,.09,8.12,.15,12.18,0,.52,.15,1.04,.24,1.61,1.32-.14,1.29-1.01,1.3-1.75,.02-2.56,.05-5.13-.08-7.69-.11-2.27-.41-4.54-.64-6.8-.06-.64-.13-1.32-1.2-1.32Zm6.81,2.02c-.48,4.59-.39,8.91,.14,13.38l1.38-.3c-.71-4.35-.46-8.61,.04-12.98l-1.57-.11Zm3.1,.13c-1.1,6.08-.93,11.33,.51,13.39,.15-.38,.36-.67,.36-.95,0-.71-.17-1.43-.15-2.14,.07-3,.17-6,.28-9,.03-.69,.12-1.34-1-1.3Zm2.3,.67c-.1,2.13-.21,4.26-.31,6.39-.03,.7,.1,1.3,.99,1.32,.46-2.16,.33-5.2-.68-7.71Z"/><path class="eo" d="M328.96,208.15c-.29-4.34-.56-8.47-.83-12.6-.18-2.79-.44-5.57-.53-8.36-.24-7.8-.91-15.59-.2-23.39,.06-.64,.09-1.29,.2-1.92,.39-2.18,.97-2.9,3.11-3.21,5.2-.76,10.4-.77,15.6,.15,1.78,.32,2.62,1.27,2.86,2.94,.33,2.34,.78,4.66,.97,7.01,.67,8.13,1.28,16.27,1.87,24.4,.32,4.5,.55,9,.83,13.5,.03,.41,.12,.82,.2,1.28,1.93,.13,3.78,.29,5.63,.36,2.26,.08,3.8,1.23,4.68,3.2,.52,1.16,.95,2.42,1.09,3.67,.98,9.03,1.91,18.07,2.78,27.11,.28,2.93-.7,4.38-3.43,5.49-3.09,1.25-6.39,1.6-9.67,1.8-8.08,.5-16.17,.74-24.25,.08-1.49-.12-2.98-.37-4.45-.64-2.53-.47-4.1-1.92-4.43-4.55-.26-2.13-.63-4.25-.75-6.39-.39-6.86-.75-13.72-1.01-20.59-.21-5.58,2.6-8.62,8.24-9.17,.42-.04,.84-.1,1.49-.18Zm.07-46.54c-.11,.75-.25,1.37-.28,2.01-.12,3.14-.36,6.29-.27,9.43,.18,6.72,.46,13.44,.82,20.15,.26,4.78,.74,9.55,1.04,14.33,.07,1.18,.58,1.87,1.61,2.26,.73,.28,1.46,.59,2.23,.75,3.09,.64,6.23,.93,9.38,.64,1.77-.16,3.57-.38,5.27-.84,2.5-.68,2.82-1.21,2.67-3.8-.44-7.57-.85-15.14-1.41-22.69-.43-5.92-1.04-11.82-1.62-17.72-.15-1.52-.18-3.1-.89-4.49-6.48,.86-9.91,1.19-18.54,0Zm-3.48,54.41c-.03,.06-.09,.13-.09,.18,.63,5.83,1.48,11.63,2.97,17.31,.97,3.71,3.09,5.31,7.01,5.35,5.08,.05,10.17,.03,15.25-.01,1.28-.01,2.58-.16,3.84-.39,1.61-.3,2.7-1.28,3.06-2.93,.18-.84,.29-1.69,.36-2.54,.26-3.14,.52-6.28,.72-9.42,.17-2.62,.26-5.25,.39-7.85-4.04-.94-29.26-.68-33.5,.31Zm35.03-.32c-.07,.51-.14,.85-.16,1.19-.26,3.93-.48,7.86-.78,11.78-.18,2.35-.37,4.71-.74,7.04-.37,2.3-1.93,3.6-4.16,4.09-.77,.17-1.56,.32-2.34,.32-5.94,.04-11.89,.16-17.83,.03-3.84-.08-6.28-2.09-7.27-5.84-.85-3.17-1.44-6.42-2.04-9.65-.52-2.79-.88-5.61-1.34-8.61-1.2,.27-2.21,.5-3.43,.77,.38,8.82,.67,17.52,1.57,26.24l2.34,.63c-2.23-2.75-2.48-3.67-1.42-5.13,.2,.21,.5,.39,.54,.62,.25,1.39,.73,2.58,2.06,3.35,.27,.16,.18,.94,.25,1.39,6.3,.95,12.59,.41,18.87,0,6.43-.41,12.85-.87,19.27-1.31,.55-.04,1.11-.08,1.72-.13v-2.9c-.94,1.48-1.8,2.46-3.12,2.74-.74-.64-.52-1.07,.09-1.42,1.34-.76,1.92-1.93,1.66-3.42-.17-.97,.58-1.12,1.1-1.53-.63-6.71-1.29-13.37-2.25-19.97-.51-.11-.78-.19-1.06-.22-.43-.04-.85-.04-1.54-.08Zm-39.93-.36c7.15-1.59,14.16-1.56,21.14-1.59,6.99-.03,13.98,.29,20.95,.46-.55-3.28-1.76-4.42-4.95-4.57-1.29-.06-2.58-.13-3.86-.05-.66,.04-1.32,.37-1.94,.64-1.24,.53-2.4,1.31-3.69,1.63-4.51,1.11-9.07,.94-13.62,.17-1.78-.3-3.47-.83-4.91-2-.26-.21-.61-.38-.94-.43-3.65-.52-7.19,1.85-8.19,5.75Zm2.04,29.53c.05,1.72,1.08,2.29,2.21,2.57,1.59,.39,3.22,.74,4.84,.85,9.15,.65,18.3,.56,27.42-.42,2.11-.23,4.2-.83,6.24-1.44,1.04-.31,2.07-.9,2.29-2.46-.83,0-1.54-.04-2.24,0-5.85,.38-11.7,.77-17.54,1.18-6.28,.44-12.55,1-18.84,.26-1.4-.17-2.8-.36-4.37-.56Zm22.96-84.59c-4.83-.87-9.66-.93-14.48,.02,4.82,.91,9.65,.9,14.48-.02Z"/><path class="fr" d="M96.5,116.9c1.81,0,3.45-.01,5.09,0,2.87,.03,4.73,1.52,5.6,4.16,.49,1.48,.83,3.04,.99,4.59,.86,8.32,1.68,16.65,2.44,24.98,.31,3.42-.62,4.95-3.87,5.99-2.16,.69-4.44,1.21-6.7,1.4-9.56,.81-19.15,1.01-28.72,.12-5.32-.49-6.9-2.04-7.26-7.37-.56-8.06-.87-16.14-1.43-24.21-.4-5.79,2.91-9.06,8.3-9.62,.42-.04,.84-.08,1.44-.14-.11-1.95-.22-3.85-.34-5.75-.38-6-.83-11.99-1.11-17.99-.23-4.86-.34-9.73-.37-14.59-.02-2.5,.17-5.01,.42-7.5,.27-2.63,.79-3.25,3.39-3.63,5.2-.76,10.41-.72,15.59,.17,1.42,.24,2.32,.99,2.53,2.49,.34,2.41,.84,4.79,1.07,7.21,.54,5.7,1.01,11.4,1.41,17.11,.5,7.14,.89,14.28,1.33,21.42,.02,.27,.08,.55,.18,1.15Zm-23.97-46.7c-.11,.65-.28,1.26-.31,1.87-.13,3.07-.38,6.15-.3,9.21,.18,6.93,.48,13.86,.84,20.79,.24,4.64,.74,9.26,1,13.9,.08,1.46,.72,2.28,2.01,2.64,1.44,.4,2.89,.84,4.37,1,3.99,.46,8,.59,11.91-.55,2.8-.81,3.06-1.15,2.88-4.06-.57-9.35-1.13-18.7-1.83-28.03-.37-4.99-1.02-9.95-1.57-14.92-.07-.61-.26-1.21-.4-1.83-6.26,1.05-12.35,1.05-18.6-.03Zm-3.73,54.33c.3,2.18,.5,4.09,.83,5.98,.71,3.94,1.36,7.89,2.29,11.78,.85,3.59,2.93,5.14,6.65,5.18,5.79,.05,11.59,.03,17.38-.09,3.84-.08,5.09-1.39,5.41-5.17,.03-.36,.04-.71,.07-1.07,.23-3,.49-5.99,.68-8.99,.17-2.61,.26-5.23,.39-7.97-11.33-.53-22.44-.75-33.7,.36Zm40.47,26.57l-.12-2.57c-2.1,2.51-2.65,2.75-3.6,1.62,.13-.15,.24-.37,.41-.46,1.45-.76,2.01-1.94,1.85-3.54-.03-.33,.02-.88,.21-.97,1.07-.53,.77-1.44,.68-2.24-.5-4.76-1.02-9.53-1.56-14.29-.15-1.32-.35-2.64-.52-3.98l-2.64-.37c-.11,1.11-.24,2.1-.3,3.08-.21,3.36-.36,6.71-.6,10.07-.16,2.28-.37,4.56-.7,6.82-.32,2.21-1.74,3.55-3.86,4.11-.75,.2-1.55,.33-2.32,.33-5.93,.06-11.87,.17-17.8,.1-4.2-.05-6.73-2-7.74-6.08-.97-3.95-1.62-7.98-2.36-11.98-.36-1.95-.6-3.93-.91-6.06l-3.45,.91c.24,5.14,.43,10.07,.7,14.99,.17,3.07,.44,6.13,.67,9.2q.15,1.99,2.17,2.52c.17,.05,.37,0,.62,0-1.66-1.54-2.31-2.69-2.32-4.02,0-.57,.16-.99,1.22-.8-.53,2.26,2.14,3,2.46,5.12,.68,.09,1.39,.27,2.09,.27,4.58,0,9.16,.12,13.73-.1,5.43-.26,10.84-.82,16.26-1.23,2.48-.18,4.97-.3,7.74-.47Zm-3.02-28.08c-.65-3.56-1.88-4.67-5.38-4.82-1.21-.05-2.43-.1-3.65-.03-.52,.03-1.14,.21-1.53,.53-1.43,1.19-3.1,1.73-4.87,2.07-3.55,.68-7.13,.6-10.69,.23-2.55-.26-5.12-.67-7.14-2.56-.22-.2-.67-.25-1-.23-2.11,.08-4.11,.51-5.8,1.91-1.19,.99-1.88,2.2-1.98,3.71,14.04-2.11,27.96-1.51,42.05-.81Zm3,29.74c-2.1,0-3.96-.11-5.8,.02-6.13,.43-12.25,1.05-18.39,1.38-6.33,.34-12.68,.63-19.03-.74,.13,1.96,1.43,2.61,2.85,2.86,2.32,.42,4.66,.8,7.01,.88,7.65,.25,15.31,.36,22.94-.39,2.48-.24,4.94-.78,7.36-1.37,1.27-.31,2.55-.93,3.07-2.63Zm-19.83-83.8c-5.03-.92-10.05-.89-15.08,0,5.03,.87,10.05,.91,15.08,0Z"/><path class="en" d="M81.09,378.8c-.1,7.8-.18,15.6-.32,23.4-.06,3.15-.27,6.29-.41,9.43,0,.21-.02,.43-.05,.64-.55,5.01-2.7,7.26-7.71,7.94-1.84,.25-3.7,.42-5.56,.44-5.15,.06-10.31,.1-15.46-.03-2.42-.06-4.85-.38-7.24-.8-4.05-.71-6.49-3.11-7.06-7.26-.11-.78-.28-1.55-.31-2.34-.31-7.36-.81-14.72-.85-22.09-.06-10.86,.21-21.72,.35-32.58,.03-2.32,.53-4.55,1.71-6.57,1.44-2.49,3.5-4.17,6.44-4.46,3.06-.3,6.13-.66,9.2-.67,5.86-.01,11.73,.21,17.59,.33,.29,0,.57,.03,.86,.06,5.03,.51,7.91,3.51,8.09,8.57,.2,5.65,.33,11.3,.44,16.96,.06,3.01,.01,6.01,.01,9.02h.27Zm-23.12,4c-3.84,.14-8.63,.22-13.41,.55-1.97,.14-3.91,.78-5.83,1.29-.9,.24-1.38,.87-1.33,1.92,.3,6.64,.45,13.3,.87,19.94,.24,3.75,2.38,6.1,6.02,6.85,2.58,.53,5.23,.83,7.86,1.04,5.63,.45,11.27,.94,16.93,.26,2.42-.29,4.82-.69,7.04-1.78,1.81-.89,2.88-2.27,2.93-4.38,.18-6.87,.35-13.73,.6-20.59,.05-1.37-.51-2.27-1.66-2.69-1.67-.6-3.39-1.26-5.13-1.42-4.62-.44-9.27-.64-14.87-1Zm1.01-1.27c.69,.06,1.17,.13,1.66,.15,2.79,.11,5.58,.17,8.36,.33,3.58,.2,7.12,.6,10.6,2.48,0-.9,0-1.59,0-2.29-.05-4.94-.07-9.87-.17-14.81-.09-4.79-.23-9.58-.41-14.37-.17-4.56-2.43-6.96-6.97-7.41-2.13-.21-4.28-.35-6.42-.41-2.55-.07-5.11-.02-7.86-.02,.4,12.14,.79,24.12,1.2,36.35Zm-16.76-34.99v35.42c5.21-.18,10.24-.36,15.24-.53,.31-4.21-.91-34.58-1.49-36.33-4.54,.39-9.2,0-13.75,1.45Zm36.27,66.4c-2.07,1.48-4.35,2.36-6.78,2.6-3.7,.36-7.42,.68-11.13,.67-3.79-.01-7.59-.32-11.35-.72-3.73-.4-7.62-.56-10.47-3.78-.03,2.94,1.08,5.02,3.47,6,1.57,.64,3.28,1.07,4.96,1.25,7.21,.8,14.45,.53,21.67,.3,2.12-.07,4.27-.51,6.3-1.14,2.44-.76,3.45-2.54,3.33-5.18Zm-37.82-30.45v-34.47c-.49,.57-.74,.79-.92,1.07-1.3,2.05-1.9,4.31-1.94,6.71-.15,8.8-.29,17.59-.41,26.39,0,.45,.09,.91,.15,1.44l3.13-1.14Z"/><path class="eh" d="M228.75,142.54c.21-2.66,.43-5.15,.59-7.65,.48-7.5,.83-15,1.41-22.49,.62-7.98,1.43-15.95,2.18-23.92,.09-.99,.41-1.96,.56-2.95,.19-1.24,.84-1.96,2.11-1.99,1.71-.04,3.43-.12,5.13,.02,1.55,.13,1.69,.38,1.97,2.03,.76,4.51,1.53,9.02,2.24,13.54,1.68,10.59,3.33,21.19,4.98,31.78,.56,3.6,1.06,7.21,1.6,10.88,.49,.18,.94,.36,1.41,.51,2.38,.75,3.84,2.39,4.54,4.74,1.13,3.78,1.26,7.65,.6,11.48-.78,4.59-2.3,8.99-4.19,13.26-2.05,4.61-5.44,7.29-10.54,7.52-2.2,.1-4.43,.1-6.62-.14-2.72-.31-5.12-1.54-6.79-3.73-4.93-6.45-8.12-13.63-8.47-21.84-.11-2.57,.38-5.07,1.79-7.4,.8-1.32,1.74-2.21,3.12-2.75,.73-.28,1.46-.55,2.36-.89Zm24.87,12.08c-1.27,.45-2.53,.96-3.82,1.34-5.86,1.73-11.82,1.9-17.84,1.08-2.71-.37-5.3-1.14-7.69-2.51-.4-.23-.8-.45-1.38-.77,.03,4.55,1.42,8.48,3.05,12.38,.74,1.77,1.91,2.98,3.52,3.85,6.33,3.43,12.92,3.78,19.69,1.51,1-.34,1.94-.91,2.83-1.49,1.23-.8,2.12-1.87,2.51-3.35,.71-2.69,1.56-5.35,2.21-8.05,.49-2.06,.53-4.18,.18-6.49l-3.32,2.54,.07-.05Zm-18.92-68.88c-3.01,19.9-2.99,40.02-4.87,59.97,.56,.32,.91,.58,1.29,.73,.53,.21,1.08,.38,1.64,.49,4.33,.82,8.68,.79,13.03,.22,1.11-.15,2.23-.53,3.26-.98,1.44-.63,1.55-.94,1.35-2.52-.27-2.13-.54-4.26-.87-6.37-2.27-14.55-4.54-29.09-6.84-43.64-.42-2.66-.93-5.31-1.39-7.91h-6.62Zm-10.86,62.08c-.3,.94-.52,1.6-.72,2.27-.38,1.27-.03,2.27,1.19,2.84,1.61,.75,3.19,1.69,4.9,2.11,6.8,1.67,13.61,1.52,20.35-.43,2.28-.66,4.37-1.75,6.17-3.35,.77-.68,1.14-1.44,.81-2.46-.19-.59-.35-1.19-.57-1.97-1.91,1.8-4.05,2.76-6.33,3.4-6.61,1.87-13.26,1.98-19.94,.42-2.03-.47-3.98-1.17-5.86-2.82Zm27.98,24.88q-4.8,2.62-6.01,2.19c.32-.4,.6-.77,.91-1.17-4.38,.84-8.77,.74-13.19-.43,.33,.96,2.2,.82,1.11,2.56-1.7-1.12-3.33-2.19-5.31-3.49,1.71,2.61,3.53,4.39,6.2,5.14,3.24,.91,6.51,.82,9.77,.17,2.82-.57,4.99-2.07,6.52-4.96Zm-.08-29.26c.52,2.58-.94,3.54-2.69,4.25-.66,.27-1.35,.5-2.05,.6-1.91,.27-3.82,.6-5.74,.64-3.42,.07-6.87,.02-10.17-1.07-2.12-.7-2.39-1.12-2.54-3.34,0-.09-.18-.17-.34-.33-1.27,.58-2.89,.68-3.46,2.34,1.2,1.4,1.92,1.86,4.21,2.5,4.52,1.27,9.12,1.61,13.79,1.13,3.42-.36,6.79-.98,9.88-2.58,.98-.51,2.37-.99,2.14-2.34-.22-1.26-1.6-1.43-3.02-1.81Z"/><path class="dk" d="M180.29,107.46l-1.94-1.24-1.28,.9c-1.13-.74-2.18-.78-3.15,.42-.32,.39-.99,.5-1.53,.75-.13,.76-.24,1.53-.41,2.3-.52,2.33-1.63,3.28-4.02,3.37-3,.11-6.01,.16-9.02,.23-5.58,.14-11.16,.29-16.75,.39-1.5,.03-3-.08-4.5-.2-1.85-.14-3.05-1.2-3.61-2.91-.38-1.15-.7-2.35-.77-3.55-.27-4.43-.48-8.87,.3-13.28,.21-1.19,.53-2.38,.97-3.5,.91-2.36,2.7-3.62,5.22-3.83,.14-.01,.29-.02,.43-.02,8.23-.17,16.46-.37,24.69-.48,3.8-.05,5.2,1,6.62,4.48,.8,.52,1.55,1.03,2.32,1.5,.36,.22,.77,.51,1.14,.49,1.16-.08,2.45,.13,3.44-.13,1.06-.27,1.56,.16,2.23,.49l1.57-.81c.31,.72,.7,1.32,.83,1.97,.23,1.19,.34,2.41,.42,3.62,.15,2.28,.43,4.57,.32,6.83-.14,2.85-.55,5.69-.95,8.52-.55,3.97-1.36,7.9-1.76,11.88-.37,3.69-.45,7.43,.19,11.13,.58,3.35,2.23,5.83,5.39,7.23,.52,.23,1.05,.48,1.5,.83,1.09,.83,.96,1.9-.29,2.51-.44,.22-.94,.37-1.43,.44-4.88,.65-9.71,.34-14.49-.77-.28-.06-.55-.15-.81-.27-.73-.31-1.54-.6-1.53-1.57,.01-.92,.73-1.34,1.46-1.68,.52-.24,1.05-.45,1.6-.62,3.35-.99,5.02-3.42,5.56-6.69,.26-1.54,.26-3.13,.24-4.7-.04-2.93-.17-5.87-.26-8.8-.07-2.26,.44-4.39,1.26-6.48,1.1-2.79,1.4-5.68,.81-8.73Zm-9.2-5.18h.11c-.19-3.15-.23-6.31-.6-9.42-.45-3.8-2.38-5.2-6.17-4.83-.43,.04-.86,.09-1.27,.18-2.44,.56-4.89,1.07-7.31,1.73-3.38,.92-6.72,2-9.78,3.78-3.48,2.02-5.16,5.68-4.52,9.63,.32,1.97,1.21,3.54,3.03,4.41,1.73,.83,3.48,1.76,5.33,2.21,4.16,1.02,8.38,1.83,12.59,2.59,1.61,.29,3.28,.34,4.91,.32,2.54-.03,3.42-.94,3.63-3.51,.06-.71,.05-1.43,.06-2.15,0-1.65,0-3.29,0-4.94Zm-14.12-13.89l-.15-.23c-5,.11-10.01,.21-15.01,.32-.79,.02-1.58,0-2.36,.07-.22,.02-.41,.29-.87,.64,1.78-.04,3.37-.99,4.77,1.23-1.78-.37-3.2-.7-4.27,.13,.06,3.62,.25,7.13,.13,10.62-.12,3.47-.54,6.93-.81,10.18,1.28,1.48,2.76,.35,4.35,.61l-1.21,1.56c4.94-.16,9.71-.31,14.47-.46-1.46-.64-2.95-.87-4.36-1.36-2.56-.88-5.1-1.83-7.57-2.93-1.69-.75-2.83-2.13-3.38-3.96-1.35-4.48,.48-9.59,4.55-11.88,2.23-1.25,4.67-2.15,7.05-3.08,1.51-.59,3.11-.98,4.67-1.45Zm-20.26,24.56c1.6-7.89,1.88-15.64,.85-23.67-1.5,.9-2.04,2.15-2.33,3.45-.41,1.8-.83,3.65-.86,5.48-.07,3.56,.03,7.14,.24,10.7,.09,1.45,.4,2.99,2.11,4.04Zm43.18,21.9c-2.22,6.45-2.29,6.58-5.19,8.5v1.65c2.57,.26,5.16,.52,7.78,.78v1.17c1.8-.05,3.56,.05,5.46-1.03-2.33-1.16-4.48-2.14-5.89-4.13-1.45-2.06-1.95-4.41-2.17-6.94Zm-5.71-40.24c.16,3.7,.32,7.24,.48,10.88l1.41-.24v-10.63h-1.89Zm-2.05-1.7c-.08,.22-.21,.39-.21,.56,.11,4.15,.22,8.3,.36,12.44,.01,.34,.23,.67,.42,1.18,1.23-2.56,.78-12.17-.56-14.19Zm7.48,35.02c.74-5.19,1.43-10.03,2.14-14.98-1.87,4.78-3.2,9.51-2.14,14.98Zm-1.22-33.2c-.8-.44-1.12-.02-1.14,.66-.07,2.14-.13,4.29-.11,6.43,.01,1.11,.22,2.21,.33,3.29,.97-.02,.94-.45,.93-1.02-.04-3.07-.02-6.14-.02-9.37Zm1.56,10.75c.33-.47,.47-.58,.47-.69,.04-3.19,.06-6.39,.06-9.58,0-.19-.27-.38-.63-.87-.66,3.85-.97,7.3,.09,11.14Zm1.82-2.63c-.37,1.55,.3,2.99-.25,4.62-.42,1.23,.22,2.81,.4,4.24,.36-2.98,1.49-5.96-.14-8.86Zm-11.05,42.21c1.95,1.19,3.35,1.5,5.4,1.2-1.59-.2-3.29-.04-3.66-2.24l-1.74,1.03Z"/><path class="gf" d="M159.01,282.11c.32,.07,.52,.14,.72,.16,4.8,.43,7.54,2.79,8.68,7.5,.77,3.18,.8,6.43,.36,9.61-.98,7.08-2.02,14.16-3.42,21.17-.74,3.69-2.22,7.23-3.48,10.8-1.18,3.34-3.74,4.86-7.19,5.2-3.45,.34-6.86,.28-10.24-.52-2.22-.53-3.97-1.71-4.73-3.95-2.4-7.04-4.93-14.04-7.04-21.16-1.58-5.36-2.21-10.94-2.11-16.55,.03-1.7,.21-3.44,.62-5.09,1.21-4.88,4.6-7.3,10.17-7.3-.31-1.55-.59-3.06-.92-4.57-2.04-9.22-4.09-18.43-6.14-27.64-.06-.28-.15-.56-.18-.84-.25-1.86,.19-2.74,2.01-3.19,1.93-.48,3.92-.84,5.91-1,6.36-.49,12.73-.58,19.05,.56,3.64,.66,4.04,1.3,3.4,4.92-1.79,10.14-3.56,20.29-5.34,30.43-.08,.47-.08,.96-.12,1.46Zm8.72,13.74c-.14-1.56-.23-3.14-.46-4.69-.15-.98-.45-1.95-.8-2.88-1.4-3.75-5.74-5.71-9.3-3.97-1.79,.87-3.72,1.45-5.63,2.05-1.7,.53-3.38,.34-4.99-.5-1.33-.69-2.67-1.41-4.08-1.89-1.05-.36-2.24-.58-3.33-.46-3.66,.4-5.88,2.6-6.77,6.46-.75,3.26-.76,6.57-.23,9.82,1.15,7.02,3.89,13.42,7.99,19.24,.29,.41,.63,.77,.95,1.16,1.89,2.3,4.29,3.67,7.19,4.36,4.05,.95,7.29,.14,9.75-3.44,2.44-3.55,4.57-7.26,6.43-11.13,2.15-4.46,3.2-9.16,3.25-14.12Zm-32.22-47.01c.98,4.39,1.93,8.62,2.86,12.86,1.42,6.49,2.83,12.98,4.23,19.47,.15,.69,.23,1.31,.99,1.75,5.08,2.94,6.13,3.03,11.66,.74,.26-.11,.52-.25,.79-.32,1.04-.26,1.45-.92,1.63-1.97,1.53-9.01,3.12-18.02,4.68-27.02,.31-1.8,.59-3.6,.9-5.48-9.31,1.69-18.39,1.7-27.74-.02Zm29.99,62.15c-.32,.63-.63,1.27-.96,1.9-1.88,3.62-3.91,7.15-6.52,10.32-1.33,1.61-2.97,2.75-5.07,2.93-4.47,.39-8.52-.66-11.81-3.91-2.27-2.24-3.94-4.89-5.39-7.7-.33-.65-.66-1.3-.99-1.95-.09,.86,.09,1.61,.34,2.33,1.85,5.33,3.75,10.65,5.55,16,.74,2.2,2.16,3.46,4.39,3.9,3.32,.66,6.64,.88,10.02,.4,2.56-.36,4.34-1.59,5.4-3.99,2.86-6.46,4.35-13.26,5.03-20.25Zm-2.89-63.59c-4.78-2.19-22.46-2.13-26.83,.1,9.17,1.68,17.99,1.72,26.83-.1Z"/><path class="do" d="M249.22,243.13c0,6.16,.04,12.31-.02,18.47-.03,2.93-.24,5.86-.4,8.79-.03,.64-.19,1.27-.3,1.9-.49,2.72-2.18,4.38-4.82,4.82-2.6,.44-5.26,.72-7.89,.75-4.51,.05-9.02-.08-13.52-.27-1.55-.07-3.12-.43-4.62-.85-2.42-.67-3.86-2.38-4.45-4.78-.22-.9-.39-1.83-.45-2.75-1.01-15.08-1.03-30.18-.43-45.28,.05-1.2,.26-2.43,.62-3.58,1.07-3.48,3.38-5.57,7.11-5.88,7.43-.62,14.87-.71,22.31-.02,3.98,.37,6.35,2.98,6.49,7.19,.19,5.72,.3,11.45,.44,17.18,.03,1.43,0,2.86,0,4.3h-.05Zm-1.15,14.13h-.07c0-2.15-.07-4.3,.03-6.45,.06-1.29-.47-2.11-1.61-2.45-1.63-.49-3.3-1.11-4.98-1.18-6.79-.26-13.59-.43-20.38-.41-2.11,0-4.22,.67-6.31,1.09-1.05,.21-1.5,.9-1.44,2.03,.24,5,.3,10.01,.65,15.01,.31,4.48,1.84,6.04,6.2,6.91,.14,.03,.28,.07,.42,.08,5.69,.66,11.4,1.17,17.13,.85,2.42-.13,4.84-.43,7.1-1.46,1.72-.79,2.68-1.98,2.74-3.96,.11-3.36,.34-6.71,.53-10.07Zm-.23-9.87c.06-.29,.14-.5,.14-.7-.16-8.45-.27-16.89-.51-25.34-.1-3.34-2.05-5.24-5.39-5.56-1.99-.19-4-.32-6-.39-1.91-.06-3.82-.01-5.9-.01,.34,10.1,.67,19.94,1.01,29.89,5.74,.3,11.36-.14,16.66,2.11Zm-18.06-2.21c0-.8,.02-1.5,0-2.19-.08-2.14-.2-4.28-.27-6.43-.2-6.36-.38-12.72-.58-19.08-.02-.68-.12-1.35-.2-2.18-4.02,.44-7.9-.06-11.49,1.3-.38,4.71,.02,27.7,.42,28.95,3.97-.12,7.9-.24,12.13-.37Zm-15.38,25.41c.21,2.43,1.21,4,3.19,4.7,1.47,.52,3.04,.85,4.59,.97,6.15,.47,12.3,.47,18.45,0,1.34-.1,2.69-.41,3.96-.87,1.6-.57,2.43-1.83,2.55-3.81-3.6,2.11-7.34,2.59-11.13,2.56-4.22-.04-8.45-.2-12.65-.55-3.09-.26-6.3-.44-8.97-3.01Zm1.34-24.5v-27.57c-1.65,1.66-2.05,3.67-2.1,5.74-.16,7-.25,13.99-.35,20.99,0,.46,.12,.93,.2,1.55,.89-.28,1.61-.51,2.25-.71Z"/><path class="dd" d="M386.79,81.44c-.14,5.18-.32,12.98-.58,20.77-.05,1.41-.34,2.84-.67,4.22-.44,1.8-1.65,3.02-3.39,3.58-1.21,.39-2.49,.71-3.76,.81-6.51,.53-13.02,.5-19.52,0-.78-.06-1.56-.22-2.33-.37-4.05-.81-6.01-2.85-6.34-6.98-.38-4.78-.73-9.57-.79-14.36-.11-9.22-.03-18.45,.02-27.68,0-1.86,.17-3.72,.32-5.57,.15-1.81,.73-3.5,1.8-4.99,1.38-1.93,3.29-2.93,5.63-3.13,7.51-.64,15.02-.73,22.52-.03,3.51,.33,5.58,2.28,6.25,5.76,.16,.84,.26,1.7,.28,2.56,.18,7.59,.34,15.17,.56,25.39Zm-20.32-1.63v.16c-2.65,0-5.31-.13-7.94,.04-2.06,.13-4.12,.51-6.12,.99-1.64,.39-1.76,.71-1.75,2.43,0,2.22,.01,4.44,.09,6.66,.1,2.72,.15,5.44,.44,8.14,.52,4.9,2.59,6.29,6.11,6.79,6.03,.86,12.09,1.33,18.19,.95,1.7-.1,3.42-.42,5.07-.86,3.27-.87,4.22-2.05,4.36-5.45,.22-5.08,.25-10.16,.49-15.23,.08-1.71-.7-2.61-2.12-3.01-1.71-.48-3.47-.91-5.24-1.05-3.85-.3-7.72-.39-11.57-.57Zm2-1.24c5.78,.24,11.41-.16,16.79,2.13,.04-.51,.1-.93,.09-1.34-.15-7.87-.31-15.74-.48-23.62-.01-.5-.07-1-.14-1.49-.49-3.33-2.14-4.97-5.51-5.21-3.42-.24-6.86-.31-10.29-.42-.46-.02-.93,.13-1.45,.2,.33,9.93,.66,19.71,.99,29.74Zm-1.42-.14c-.14-9.94-.62-19.8-.98-29.86-4.03,.39-7.88-.04-11.47,1.25-.37,4.99-.12,27.55,.27,28.99,4.01-.13,7.98-.25,12.19-.38Zm17.5,26.32c-3.25,2.03-6.64,2.6-10.07,2.61-4.56,0-9.14-.15-13.69-.51-3.21-.26-6.58-.38-9.2-3.2,.34,2.9,1.71,4.58,4.28,5.26,.41,.11,.83,.21,1.25,.27,5.11,.75,10.25,.75,15.39,.58,2.7-.09,5.42-.31,8.09-.69,2.17-.31,3.57-1.65,3.94-4.33Zm-31.49-25.43v-28.03c-1.53,1.93-2,3.74-2.04,5.68-.14,7.43-.26,14.86-.38,22.29,0,.26,.1,.52,.16,.85l2.25-.79Z"/><path class="ey" d="M302.6,294.78c-2.15-5.51-4.36-10.72-6.21-16.04-1.89-5.44-4.76-10.39-7.23-15.54-.36-.76-.7-1.53-1.11-2.42,1.08-.45,2.05-1.24,2.88-1.11,1.04,.17,1.74-1.82,2.9,.04,.35-.65,.63-1.15,.99-1.81,.46,.61,.75,.85,.84,1.14,1,3.28,1.93,6.59,2.97,9.86,.7,2.17,1.48,4.32,2.37,6.42,2.17,5.14,4.43,10.24,6.65,15.36,.28,.65,.58,1.28,.92,2.02,1.96-.37,3.84-.73,5.72-1.06,.63-.11,1.28-.18,1.92-.17,1.11,0,1.78,.49,2.16,1.66,3.79,11.63,7.65,23.23,11.44,34.85,.71,2.17,1.19,4.42,1.81,6.62,.47,1.69,.03,3.03-1.25,4.24-3,2.85-6.61,4.49-10.58,5.37-1.32,.29-2.69,.35-4.04,.45-1.34,.1-2.37-.47-3.01-1.66-1.03-1.88-2.18-3.71-3.03-5.67-5.16-11.95-10.26-23.92-15.36-35.9-.6-1.4-.54-1.91,.71-2.73,1.67-1.09,3.47-1.98,5.24-2.91,.68-.36,1.42-.62,2.29-1Zm-6.48,7.22c.13,.39,.28,.94,.49,1.45,3.45,8.25,6.84,16.52,10.4,24.72,1.97,4.52,4.25,8.9,6.37,13.36,.67,1.42,1.73,1.96,3.28,1.79,4.44-.48,8.47-1.96,12-4.75,1.6-1.26,2.26-2.7,1.42-4.66-.17-.39-.19-.84-.32-1.24-4.08-12.58-8.17-25.17-12.27-37.75-.05-.17-.24-.29-.4-.46-3.18,2.13-6.61,3.57-10.17,4.65-3.54,1.08-7.15,1.93-10.81,2.9Zm12.75-5c-3.43-8-6.65-15.82-10.26-23.62l-2.47,.96c2.96,8.19,6.14,16.02,9.41,23.84,1.17-.42,2.1-.75,3.31-1.19Zm-13.05,3.04c2.87,.03,5.62-.52,8.32-1.53-.19-.53-.31-.94-.49-1.33-.17-.36-.4-.69-.63-1.08-2.59,1.11-5.13,2.01-7.21,3.94Zm20.54-7.1c-2.43,.02-4.79,.29-7.17,1.29l1,2.25c2.28-1,4.45-1.82,6.17-3.54Zm-20.73-20.01c.78-.27,1.57-.54,2.76-.95-2.12-.49-1.62-2.41-2.82-3.46-.14,.54-.39,.96-.29,1.24,.34,.97,.83,1.88,.35,3.17Z"/><path class="eq" d="M391.6,271.83c0,1.43-.09,2.87,.02,4.29,.16,2.01,.55,2.39,2.53,2.38,2.22,0,4.43-.26,6.65-.27,2.49-.01,5.02-.09,7.48,.25,3.02,.42,4.45,2.19,4.74,5.24,.32,3.33-.23,6.57-1.1,9.76-.87,3.17-1.77,6.34-2.86,9.44-.58,1.64-.14,2.79,1.03,3.81,1.08,.94,2.23,1.79,3.33,2.71,1.58,1.34,3.24,2.61,4.69,4.08,2.35,2.38,3.13,5.25,2.08,8.49-1.87,5.8-5.19,10.65-9.77,14.63-1.02,.88-2.24,1.86-3.67,1.08-1.32-.72-1.2-2.2-1.11-3.48,.15-2.28,.46-4.56,.59-6.84,.07-1.27,.02-2.57-.14-3.84-.25-2.08-1.5-3.35-3.54-3.79-1.47-.31-2.95-.57-4.42-.89-5.1-1.12-7.29-3.53-7.44-8.74-.08-2.91,.33-5.84,.54-8.76,.04-.64,.19-1.28,.21-1.92,.13-3.44-1.06-5.39-4.2-6.74-1.18-.51-2.41-.93-3.65-1.25-3.58-.93-6.77-2.68-9.9-4.56-2.53-1.52-4.05-3.69-4.72-6.59-1.56-6.84,.53-12.77,5.12-17.56,3.3-3.45,7.93-4.18,12.58-2.6,2.91,.99,4.41,3.34,4.78,6.33,.22,1.77,.22,3.56,.32,5.34h-.17Zm19.97,11.24c-.59-2.25-1.92-3.16-3.69-3.31-2.13-.19-4.27-.23-6.41-.21-2.57,.03-5.15,.3-7.72,.28-2.29-.02-3.11-.78-3.39-3.04-.19-1.55-.07-3.14-.1-4.71-.03-1.79,.04-3.59-.13-5.36-.24-2.45-1.48-4.3-3.82-5.29-3.46-1.47-9.28-.25-11.72,2.64-2.94,3.49-4.68,7.55-4.75,12.16-.07,4.54,1.51,8.19,5.87,10.36,2.76,1.37,5.43,2.87,8.44,3.64,.9,.23,1.78,.54,2.65,.87,4.83,1.8,6.57,4.71,5.9,9.82-.05,.35-.16,.7-.21,1.05-.38,3.05-.84,6.11-.36,9.19,.62,3.95,2.02,5.44,5.93,6.34,1.6,.37,3.23,.61,4.84,.97,2.49,.55,4.08,2.1,4.48,4.61,.25,1.61,.27,3.27,.19,4.9-.1,2.14-.45,4.27-.59,6.41-.05,.72,.2,1.45,.32,2.2,1.67-.22,2.58-1.16,3.49-2.05,3.1-3.04,5.51-6.57,7.25-10.55,.43-.98,.68-2.03,.98-3.06,.64-2.18,.11-4.16-1.35-5.8-1.23-1.38-2.64-2.61-4.04-3.82-1.3-1.12-2.69-2.13-4.04-3.2-2.02-1.6-2.62-3.48-1.71-6.05,1.23-3.5,2.19-7.1,3.12-10.7,.46-1.76,.92-3.58,.57-5.61-1.75,1.28-3.27,.88-4.82-.24-2.32-1.68-4.8-2.09-7.45-.67-.62,.33-1.34,.53-2.04,.64-1.19,.19-1.72-.55-1.26-1.69,.51-1.24,1.41-2.12,2.6-2.74,2.92-1.52,10.09-1.35,12.96,2.01Zm-13.77,.9c.72-.27,1.45-.52,2.16-.83,1.9-.84,3.77-.72,5.59,.18,.89,.44,1.74,.99,2.6,1.49,.79,.45,1.57,.71,2.25-.17-.64-1.84-1.5-2.52-4.49-2.95-2.99-.44-6-.6-8.12,2.28Z"/><path class="fw" d="M291.05,65.14c0,1.43-.09,2.87,.02,4.29,.16,2,.55,2.38,2.53,2.38,2.14,0,4.29-.24,6.43-.25,2.56-.01,5.16-.12,7.69,.23,3.03,.41,4.44,2.19,4.73,5.24,.31,3.33-.23,6.57-1.1,9.76-.87,3.17-1.77,6.34-2.86,9.44-.58,1.64-.14,2.79,1.04,3.81,1.08,.94,2.23,1.79,3.33,2.71,1.58,1.34,3.24,2.61,4.69,4.08,2.34,2.38,3.12,5.25,2.07,8.49-1.88,5.79-5.19,10.65-9.77,14.63-1.02,.88-2.24,1.86-3.67,1.07-1.31-.72-1.19-2.21-1.1-3.49,.15-2.28,.46-4.56,.59-6.84,.07-1.27,.02-2.57-.14-3.84-.26-2.07-1.49-3.35-3.55-3.78-1.47-.3-2.95-.57-4.42-.89-5.06-1.08-7.29-3.54-7.43-8.75-.08-2.91,.33-5.84,.54-8.76,.04-.64,.19-1.28,.22-1.92,.13-3.43-1.07-5.39-4.21-6.73-1.18-.51-2.41-.93-3.65-1.25-3.58-.93-6.76-2.69-9.9-4.57-2.53-1.52-4.05-3.69-4.72-6.6-1.56-6.84,.54-12.76,5.13-17.56,3.31-3.45,7.94-4.16,12.58-2.6,2.91,.98,4.41,3.34,4.78,6.33,.22,1.77,.21,3.56,.31,5.34h-.16Zm19.83,10.91c-.35-1.76-1.56-2.74-3.2-2.92-2.26-.25-4.55-.29-6.83-.27-2.64,.02-5.29,.28-7.93,.25-1.97-.02-2.7-.72-3.03-2.67-.21-1.26-.18-2.56-.21-3.84-.04-2.15,.07-4.3-.09-6.44-.19-2.54-1.47-4.46-3.9-5.46-3.31-1.37-9.11-.34-11.4,2.41-3.97,4.77-6.07,10.15-4.47,16.51,.57,2.28,1.77,4.03,3.76,5.26,2.99,1.84,6.03,3.56,9.46,4.49,1.1,.3,2.2,.65,3.26,1.06,4.82,1.83,6.54,4.76,5.83,9.86-.04,.28-.13,.56-.17,.84-.42,3.05-.85,6.11-.41,9.19,.58,4.06,2.03,5.59,6.02,6.49,1.6,.36,3.23,.61,4.84,.97,2.4,.54,3.96,2.05,4.38,4.46,.28,1.6,.31,3.27,.23,4.9-.09,2.07-.45,4.12-.6,6.19-.06,.8,.14,1.63,.22,2.46,1.69-.31,1.95-.4,3.17-1.56,3.57-3.41,6.3-7.4,8.08-12.01,.28-.73,.42-1.51,.62-2.27,.51-1.87,.05-3.57-1.06-5.07-.72-.97-1.55-1.88-2.46-2.68-1.34-1.18-2.82-2.2-4.2-3.34-1.04-.87-2.08-1.76-3.01-2.74-.94-1-1.26-2.21-.77-3.58,.34-.94,.65-1.9,.91-2.86,1.01-3.8,2.04-7.59,2.97-11.41,.24-.97,.17-2.02,.27-3.35-1.9,1.37-3.37,1.04-4.86-.03-2.38-1.72-4.91-2.2-7.64-.72-.62,.33-1.34,.53-2.04,.63-1.09,.16-1.63-.55-1.24-1.57,.6-1.57,1.74-2.68,3.33-3.12,4.32-1.22,8.45-1.03,12.16,1.95Zm-14.08,1.4c.97-.38,1.51-.54,2.01-.79,2.48-1.23,4.85-.91,7.16,.45,.55,.33,1.08,.71,1.64,1.01,.37,.19,.79,.37,1.2,.39,.88,.06,1.36-.75,.8-1.43-.48-.58-1.14-1.12-1.83-1.4-2.59-1.05-5.27-1.23-7.99-.51-1.13,.3-2.14,.8-3,2.27Z"/><path class="fh" d="M173.06,192c1.24,1.02,2.03,1.71,2.86,2.34,1.13,.87,2.38,1.61,3.43,2.57,1.53,1.39,1.65,2.85,.59,4.63-.91,1.52-2.27,2.56-3.77,3.43-.99,.57-1.98,1.13-3.12,1.78,.13,.73,.25,1.41,.37,2.1,.4,2.34-.41,4.36-2.5,5.44-1.31,.68-2.78,1.16-4.24,1.41-4.03,.67-8.01,1.43-11.91,2.7-3.67,1.19-7.5,1.02-11.28,.53-3.54-.46-7.09-.91-10.6-1.57-3.02-.57-6.02-1.29-8.95-2.19-5.24-1.61-10.57-2.51-16.06-2.47-1.36,0-2.72-.05-4.07-.2-2.58-.29-4.09-1.89-4.85-4.26-.24-.74-.32-1.54-.47-2.31-.28-1.53-.36-1.63-1.85-1.87-.78-.13-1.57-.18-2.33-.37-.9-.22-1.82-.45-2.64-.87-1.6-.82-1.76-2.16-.26-3.15,1.1-.73,2.42-1.28,3.72-1.53,3.65-.7,7.34-1.22,11.01-1.76,5.94-.87,11.9-1.69,17.84-2.53,2.27-.32,4.01-1.45,5.12-3.48,1.17-2.13,2.98-3.34,5.31-4.03,6.39-1.9,12.91-3.19,19.5-4.14,6.11-.88,12.25-1.27,18.42-.88,1.57,.1,3.13,.32,4.68,.57,.76,.13,1.55,.36,2.23,.72,2.07,1.08,2.5,3.13,.86,4.77-1.09,1.09-2.52,1.84-3.83,2.7-.88,.58-1.8,1.08-3.21,1.92Zm-81.45,9.41c1.19,.38,2.1,.73,3.04,.96,.76,.19,1.56,.23,2.33,.36,1.88,.31,2.45,.87,2.79,2.7,.13,.7,.2,1.42,.38,2.11,.54,2.06,1.73,3.44,3.98,3.62,1.14,.1,2.28,.21,3.42,.19,6-.11,11.81,.95,17.52,2.73,2.59,.81,5.24,1.44,7.91,1.92,3.73,.68,7.48,1.22,11.24,1.66,3.5,.41,7.04,.5,10.42-.65,3.82-1.3,7.74-2,11.7-2.64,1.32-.21,2.65-.65,3.84-1.25,1.61-.81,2.16-2.19,1.87-3.95-.07-.42-.12-.86-.28-1.26-.46-1.15,.01-1.95,.95-2.55,.84-.54,1.78-.94,2.59-1.52,1.09-.79,2.23-1.58,3.1-2.59,1.25-1.45,1.09-2.43-.34-3.68-.7-.61-1.49-1.11-2.24-1.65-.75-.54-1.56-1.02-2.26-1.63-1.87-1.62-1.75-3.11,.35-4.48,.78-.5,1.67-.82,2.45-1.32,.95-.62,1.94-1.25,2.73-2.05,.96-.98,.75-1.97-.47-2.61-.62-.33-1.33-.55-2.03-.65-1.63-.24-3.26-.47-4.9-.56-5.81-.32-11.59,.04-17.34,.88-6.66,.97-13.26,2.21-19.71,4.17-1.88,.57-3.36,1.53-4.32,3.26-1.38,2.5-3.5,3.9-6.32,4.29-5.81,.81-11.62,1.62-17.42,2.46-3.75,.54-7.5,1.11-11.23,1.76-1.24,.21-2.53,.5-3.76,1.97Z"/><path class="gb" d="M64.46,196.97c.32,.61,.68,1.2,.95,1.82,3.21,7.47,5.44,15.21,6.19,23.31,.25,2.75-.02,5.56-.3,8.32-.13,1.3-.68,2.65-1.34,3.8-1.62,2.83-4.08,2.81-5.82,.03-.97-1.55-1.33-3.3-1.41-5.11-.13-3.18,.26-6.34,1.33-9.29,2.45-6.79,1.73-13.5-.04-20.24-.14-.55-.36-1.1-.42-1.66-.03-.28,.19-.6,.3-.9l.55-.09Zm5.4,32.4c-.27,.32-.5,.69-.82,.96-.9,.77-1.76,.49-2.06-.67-.09-.34-.14-.72-.09-1.06,.33-2.04,.68-4.08,1.06-6.11,.03-.14,.32-.22,.55-.37,1.26,1.18,1.28,2.82,1.91,4.72,.04-6.82-1.3-12.92-3.3-18.95,0,3.24-.03,6.44-.97,9.57-.56,1.85-1.11,3.7-1.5,5.59-.58,2.81-.96,5.65-.19,8.51,.4,1.49,1.05,2.8,2.7,3.56,2.12-1.29,2.6-3.39,2.7-5.75Z"/><path class="eb" d="M381.39,172.82c.26-8,2.16-15.23,4.71-22.33,.58-1.61,1.26-3.19,1.93-4.77,.21-.5,.4-1.25,1.13-1.02,.82,.25,.35,.92,.24,1.45-.5,2.37-1.1,4.74-1.48,7.13-.69,4.36-.52,8.64,.83,12.92,.87,2.77,1.35,5.71,1.62,8.61,.17,1.8-.25,3.69-.67,5.48-.21,.92-.87,1.81-1.53,2.52-1.46,1.58-2.97,1.49-4.38-.17-1.45-1.71-1.94-3.8-2.19-5.95-.16-1.42-.16-2.85-.21-3.88Zm4.58,9.88c1.4-.6,2.18-1.57,2.44-2.77,.34-1.59,.58-3.23,.59-4.86,.03-3.1-.71-6.1-1.69-9.02-.95-2.83-1.22-5.72-1.14-8.67,.02-.78,0-1.56,0-2.33-1.96,5.89-3.45,11.86-3.22,18.14,.52-1.21,.49-2.68,1.86-3.54,.21,.28,.48,.47,.52,.71,.33,1.68,.66,3.36,.91,5.06,.09,.62,.08,1.31-.09,1.91-.31,1.13-1.31,1.36-2.11,.53-.38-.4-.66-.9-1.15-1.57,.4,2.58,.73,4.89,3.07,6.42Z"/><path class="da" d="M128.03,348.36c-.06,.79-.05,1.32-.15,1.83-.56,3.01-1.25,6.01-1.71,9.04-.52,3.36-.18,6.69,.84,9.95,1.16,3.69,2.06,7.44,1.92,11.36-.06,1.74-.38,3.42-1.27,4.93-.7,1.2-1.59,2.36-3.1,2.34-1.52-.01-2.37-1.18-3.04-2.41-1.12-2.06-1.48-4.31-1.6-6.61-.22-4.17,.37-8.27,1.22-12.34,1.16-5.54,2.82-10.92,5.1-16.11,.3-.68,.4-1.54,1.79-1.99Zm-3.51,11.15c-1.83,3.89-3.63,14.44-3.1,18.13q.86-3.19,1.97-3.92c.75,1.37,1.64,5.9,1.3,7.2-.13,.48-.52,1.04-.95,1.25-.28,.13-.86-.26-1.26-.5-.28-.17-.47-.47-.71-.71l-.39,.24c.47,1.25,.8,2.57,1.44,3.73,1.11,2.03,2.55,2.04,3.57-.07,.66-1.37,1.01-2.97,1.15-4.5,.25-2.73-.37-5.4-1.04-8.03-.54-2.14-1.24-4.26-1.58-6.43-.33-2.09-.28-4.25-.4-6.38Z"/><path class="dm" d="M306.66,368.45c1.12,.33,.84,.88,.71,1.45-.55,2.51-1.2,5.01-1.57,7.55-.61,4.13-.48,8.22,.75,12.3,.88,2.92,1.34,5.99,1.77,9.02,.29,2.06-.03,4.15-.93,6.08-.68,1.46-1.59,2.9-3.37,2.93-1.82,.03-2.78-1.42-3.33-2.92-.58-1.59-1.04-3.28-1.21-4.96-.55-5.62,.29-11.16,1.81-16.54,1.23-4.39,2.85-8.68,4.33-13,.24-.69,.7-1.31,1.03-1.9Zm-2.54,10.21c-2.23,5.6-3.85,15.46-3.09,18.31,.4-1.17,.43-2.52,1.64-3.44,.24,.26,.54,.43,.58,.65,.35,1.82,.69,3.65,.96,5.48,.08,.55,.02,1.16-.16,1.68-.34,1.01-1.24,1.18-2.01,.46-.21-.19-.35-.45-.52-.68-.16-.22-.31-.45-.47-.68,.28,2.38,.53,4.76,2.88,6.12,1.33-.51,2.12-1.48,2.39-2.68,.36-1.58,.6-3.23,.62-4.85,.04-3.1-.7-6.1-1.67-9.02-.99-2.97-1.28-5.99-1.14-9.09,.03-.64,0-1.28,0-2.25Z"/><path class="fa" d="M213.25,39.35c.38,.49,.77,.81,.94,1.21,3.84,9,6.66,18.27,6.66,28.16,0,2.04-.42,4.12-.93,6.11-.29,1.12-1.03,2.21-1.81,3.09-1.15,1.29-2.47,1.24-3.77,.08-1.77-1.59-2.3-3.74-2.46-5.99-.23-3.25,.18-6.48,1.27-9.51,2.51-6.93,1.76-13.78-.05-20.66-.19-.71-.78-1.44,.15-2.5Zm3.06,10.74c-.11,.34-.21,.48-.2,.61,.31,4.13-.38,8.09-1.65,12.02-.9,2.79-1.4,5.69-1.28,8.66,.07,1.8,.37,3.57,1.5,5.06,1.01,1.33,1.98,1.37,2.93,.07,.97-1.32,1.58-2.81,1.48-4.72-.37,.43-.55,.78-.84,.95-.39,.24-1,.6-1.27,.45-.42-.22-.71-.8-.93-1.28-.14-.3-.1-.71-.04-1.06,.31-1.9,.63-3.8,.99-5.69,.04-.2,.37-.35,.6-.56,1.28,1.13,1.17,2.77,1.83,4.13,.29-4.37-.87-11.25-3.14-18.63Z"/><path class="du" d="M80.86,8.21c.22,.48,.38,.71,.44,.97,1.22,5.59,2.5,11.17,3.62,16.78,.63,3.15,1.29,6.33,.71,9.58-.09,.49-.16,.99-.32,1.46-.55,1.61-1.56,2.73-3.33,2.97-1.87,.25-3.39-.34-4.48-1.91-.97-1.4-1.45-3.01-1.36-4.67,.09-1.77,.22-3.61,.79-5.27,1.98-5.76,2.64-11.71,3-17.72,.07-1.19,.06-1.19,.94-2.2Zm.17,7.62c-.61,4.4-1.42,8.74-2.9,12.94-.35,1-.51,2.08-.64,3.14-.19,1.66,.03,3.29,.78,4.8,.74,1.5,2,2.17,3.48,1.94,1.5-.24,2.19-1.29,2.44-2.63,.2-1.05,.35-2.13,.29-3.19-.36-5.8-1.9-11.38-3.44-17Z"/><path class="fl" d="M282.4,175.59c.22,.48,.38,.72,.43,.98,1.21,5.52,2.45,11.03,3.58,16.56,.44,2.17,.76,4.38,.91,6.58,.1,1.41-.07,2.87-.36,4.25-.38,1.81-1.51,3.08-3.44,3.39-1.97,.31-3.52-.44-4.59-2.09-1.27-1.96-1.46-4.16-1.22-6.41,.11-1.06,.31-2.14,.67-3.14,2.12-5.86,2.75-11.97,3.1-18.13q.05-.95,.93-2Zm.36,7.44c-.8,4.39-1.52,8.6-2.97,12.67-.47,1.33-.66,2.78-.79,4.19-.15,1.58,.16,3.14,.99,4.54,.73,1.22,1.83,1.77,3.25,1.59,1.4-.18,2.17-1.12,2.42-2.39,.24-1.25,.38-2.56,.31-3.83-.1-1.78-.33-3.56-.69-5.31-.78-3.83-1.68-7.64-2.53-11.47Z"/><path class="es" d="M18.98,309.69c.2,.48,.38,.78,.45,1.09,1.18,5.38,2.38,10.75,3.48,16.15,.46,2.24,.8,4.51,.98,6.79,.11,1.4-.05,2.87-.34,4.26-.39,1.91-1.57,3.22-3.6,3.48-1.98,.25-3.5-.57-4.53-2.24-1.21-1.99-1.4-4.19-1.12-6.43,.14-1.13,.36-2.28,.75-3.34,2.04-5.59,2.58-11.42,3-17.28,.06-.79-.3-1.76,.94-2.46Zm.18,6.94c-.42,2.67-.66,4.88-1.14,7.03-.49,2.23-1.27,4.39-1.8,6.6-.33,1.38-.66,2.82-.61,4.21,.04,1.32,.42,2.68,.93,3.9,.54,1.29,1.73,1.87,3.16,1.73,1.35-.13,2.27-.94,2.56-2.49,.23-1.25,.39-2.57,.26-3.82-.27-2.62-.64-5.25-1.16-7.84-.6-2.99-1.39-5.93-2.2-9.33Z"/><path class="ds" d="M192.74,161.34c.19,.27,.48,.51,.54,.81,1.15,5.23,2.3,10.47,3.38,15.72,.62,3.01,1.22,6.04,1.04,9.14-.06,1.06-.18,2.16-.53,3.15-1.13,3.16-5.05,3.88-7.31,1.4-1.05-1.15-1.55-2.56-1.69-4.09-.21-2.23-.06-4.44,.71-6.56,1.8-4.96,2.48-10.12,2.82-15.35,.09-1.4,.19-2.79,.42-4.15l.63-.06Zm.58,7.47h-.38c-.12,.59-.24,1.19-.35,1.79-.45,2.46-.84,4.93-1.38,7.37-.34,1.53-1.04,2.99-1.32,4.52-.29,1.6-.44,3.27-.31,4.89,.09,1.08,.56,2.26,1.22,3.13,1.47,1.95,4.31,1.44,5.14-.85,.78-2.15,.62-4.41,.22-6.58-.86-4.77-1.88-9.51-2.84-14.26Z"/><path class="dx" d="M280.64,306.16c1.11,.29,.85,1.04,.92,1.64,.39,3.55,.67,7.12,1.21,10.65,.34,2.25,1.01,4.46,1.67,6.64,.67,2.22,1.23,4.45,.9,6.75-.19,1.31-.59,2.67-1.21,3.83-.94,1.74-2.61,2.38-4.57,2.09-1.85-.27-2.89-1.45-3.37-3.18-.71-2.54-.57-5.14-.08-7.66,1-5.19,2.21-10.34,3.32-15.52,.28-1.33,.48-2.67,.75-4,.09-.44,.32-.85,.47-1.25Zm-.09,7.44l-.38-.04c-.98,4.93-2.08,9.84-2.88,14.8-.3,1.86-.05,3.84,.17,5.73,.15,1.28,1.01,2.19,2.42,2.35,1.43,.16,2.6-.37,3.21-1.64,.48-1.01,.79-2.14,.93-3.25,.24-2.01-.21-3.96-.83-5.89-.57-1.76-1.1-3.54-1.48-5.35-.47-2.22-.78-4.48-1.15-6.72Z"/><path class="gd" d="M286.84,263.34c1.1,.31,.81,.9,.79,1.46-.11,3.06-.26,6.13-.21,9.19,.02,1.33,.46,2.66,.73,3.99,.24,1.18,.03,2.29-.61,3.28-.72,1.11-1.91,1.26-2.63,.16-.64-.97-1.15-2.19-1.22-3.33-.1-1.76,.05-3.58,.4-5.31,.56-2.72,1.36-5.39,2.09-8.07,.12-.46,.41-.87,.66-1.37Z"/><path class="gh" d="M39.24,162.8c.25,.55,.6,1.08,.74,1.66,.83,3.46,1.72,6.92,2.37,10.42,.24,1.29-.02,2.69-.19,4.03-.08,.6-.41,1.23-.77,1.74-.96,1.34-2.37,1.3-3-.2-.39-.94-.67-2.15-.42-3.09,1.17-4.46,.87-8.92,.39-13.4-.04-.35,.19-.73,.3-1.1l.57-.05Zm1.34,8.72l-.41-.09c-.3,1.95-.23,3.84,1.14,5.94l-.73-5.85Z"/><path class="dp" d="M399.99,324.39c-.02,.32-.03,.53-.06,.74-.23,1.8-1.07,2.91-2.26,3-1.14,.09-2.42-.88-3.01-2.37-.18-.46-.31-.96-.38-1.45-.26-1.84,.58-3.2,2.07-3.43,1.93-.29,3.14,.57,3.51,2.53,.07,.35,.09,.71,.12,.96Zm-1.36-.17c-.02-.13-.06-.41-.13-.68-.25-1.03-.84-1.44-1.81-1.3-.94,.14-1.02,.85-1.04,1.57,0,.28,.04,.56,.1,.84,.26,1.25,1.05,2.12,1.82,2.02,.65-.08,1.11-1.06,1.07-2.45Z"/><path class="ea" d="M299.48,117.76c-.11,.58-.19,1.07-.31,1.55-.24,1.05-.77,1.88-1.91,2.07-1.01,.17-1.81-.33-2.42-1.09-.98-1.23-1.43-2.63-1.03-4.21,.34-1.34,1.1-1.92,2.46-1.93,1.51-.02,2.43,.54,2.83,1.79,.19,.61,.26,1.25,.38,1.81Zm-1.41-.24c-.04-.18-.11-.52-.17-.87-.18-1-.91-1.18-1.74-1.11-.95,.07-1.05,.81-1.07,1.54-.01,.35,.05,.71,.14,1.04,.29,1.15,1.03,1.91,1.75,1.84,.66-.07,1.12-1.02,1.1-2.45Z"/><path class="em" d="M299.49,64.7c-.14,.64-.21,1.37-.46,2.03-.67,1.75-2.4,2.18-3.79,.9-1.3-1.2-1.78-2.74-1.44-4.48,.27-1.35,1.08-2.04,2.34-2.11,1.45-.08,2.59,.62,2.99,1.91,.17,.54,.24,1.11,.36,1.75Zm-1.42-.2c-.04-.2-.09-.56-.18-.9-.24-.84-.93-1.32-1.73-1.2-.91,.14-1.06,.84-1.07,1.59,0,.35,.04,.71,.13,1.06,.26,1.09,1.07,1.96,1.74,1.92,.63-.04,1.13-1.07,1.12-2.46Z"/><path class="ex" d="M400.03,271.82c-.11,.59-.2,1.08-.31,1.56-.22,.96-.7,1.76-1.7,2.02-1.09,.28-1.97-.23-2.64-1.05-.94-1.17-1.34-2.52-1.05-4.01,.26-1.35,1.06-2.07,2.29-2.17,1.43-.11,2.63,.6,3.03,1.85,.19,.61,.26,1.25,.37,1.81Zm-2.32,2.44c.95-1.24,1.07-2.43,.69-3.73-.25-.85-.93-1.04-1.67-1-.79,.05-1.06,.66-1.08,1.35-.04,1.43,.31,2.66,2.06,3.37Z"/><path class="ed" d="M254.2,7.63c1.36,0,2.72-.02,4.08,0,1.82,.04,2.59,.96,2.32,2.75-.21,1.41-1.03,2.36-2.35,2.8-.81,.27-1.66,.48-2.51,.54-2.64,.21-5.02,1.03-7.12,2.67-.56,.44-1.19,.81-1.85,1.08-2.32,.96-3.97-.1-3.93-2.61,.01-.94-.42-1.4-1.06-1.93-1.52-1.25-1.46-2.12,.29-3.07,2.76-1.5,5.82-1.92,8.9-2.1,1.07-.06,2.15-.01,3.22-.01v-.13Zm-11.9,3.83q1.71,1.6,1.84,3.7c.06,1.02,.52,1.48,1.51,1.2,.8-.22,1.61-.63,2.27-1.13,2.23-1.7,4.73-2.6,7.51-2.82,.78-.06,1.56-.24,2.3-.49,1.38-.46,1.62-1.15,1.14-2.81-6.73-.09-12.99-.29-16.57,2.34Z"/><path class="cv" d="M295.88,22.33c-1.55-.11-3,.11-3.44-1.35-.39-1.28,.72-2.09,1.6-2.79,2-1.6,4.3-2.53,6.87-2.68,1.3-.08,2.62,.06,3.38,1.36,.51,.89-.03,2.55-1.21,3.62-.51,.46-1.16,.9-1.81,1.03-1.89,.37-3.8,.58-5.37,.8Zm7.19-4.97c-2.04-1.04-3.8-.31-5.51,.33-1.49,.56-2.92,1.3-3.9,3.1,2.57,.39,4.72-.19,6.88-.49,1.58-.22,2.31-1.23,2.53-2.94Z"/><path class="et" d="M23.08,203.42c.93,.19,1.06,.6,.83,1.16-.37,.93-.77,1.85-1.16,2.77-3.71,8.75-7.43,17.5-11.15,26.25-.27,.63-.61,1.23-1.12,2.22-.34-.74-.64-1.08-.61-1.39,.05-.48,.31-.94,.51-1.4,3.88-9.15,7.75-18.3,11.64-27.44,.32-.76,.72-1.49,1.05-2.17Z"/><path class="eg" d="M5.25,211.3c0-.45-.14-.96,.02-1.34,1.74-4.23,3.52-8.44,5.3-12.64,.08-.18,.28-.31,.41-.46,.7-.01,.92,.33,.76,.95-.07,.28-.17,.55-.28,.81-1.63,3.89-3.25,7.78-4.9,11.65-.18,.42-.51,.78-.77,1.17l-.54-.13Z"/><path class="dw" d="M423.55,158.98c-.97,.21-1.25-.56-1.62-1.08-1.17-1.66-1.77-3.55-1.86-5.57-.01-.24,.33-.49,.51-.74,1,2.5,1.96,4.87,2.97,7.4Z"/><path class="ei" d="M376.68,359.71c.28,.79,.53,1.26,.61,1.76,.89,6.23,1.74,12.46,2.61,18.69,1.21,8.71,2.44,17.41,3.65,26.12,.35,2.48,.72,4.95,1.03,7.43,.21,1.72-.18,2.2-1.86,2.45-.56,.08-1.14,.07-1.7,0-1.92-.26-2.27-.66-2.38-2.62-.27-4.86-.54-9.71-.79-14.57-.64-12.21-1.27-24.43-1.89-36.64-.04-.73-.33-1.56,.73-2.62Zm1.73,19.77l-.25,.13c.62,11.62,1.25,23.25,1.88,35.03,1.2,.04,2.21,.49,3.24-.29-1.63-11.65-3.25-23.26-4.87-34.86Z"/><path class="ec" d="M150.92,31.16c-2.33-1.95-4.06-6.09-3.56-8.55,.16-.78,.66-1.56,1.21-2.16,.71-.77,1.72-1.06,2.74-.64,.97,.39,1.29,1.28,1.33,2.26,.03,.64,.04,1.29-.07,1.91-.36,2.03-.78,4.05-1.19,6.06-.07,.32-.24,.61-.45,1.12Zm-.69-3.15c.25-2.31,1.75-4.51,.74-6.97-1.92,.45-2.27,.78-2.34,2.18-.09,1.78,.63,3.31,1.6,4.78Z"/><path class="dc" d="M164.49,59.89c-2.39,.03-4.71-.37-6.84-1.47-.8-.42-1.57-1-2.18-1.67-.74-.82-.63-1.96,.04-2.98,.64-.97,1.38-1.3,2.56-1.03,.62,.14,1.25,.34,1.81,.64,2.94,1.53,5.86,1.62,8.82,.09,.44-.23,.92-.41,1.4-.53,1.46-.37,2.76,.23,3.41,1.54,.59,1.18,.25,2.39-1.09,3.33-2.38,1.67-5.12,2.06-7.95,2.09Zm.07-1.33c.78-.05,1.6,.03,2.34-.19,1.62-.48,3.22-1.05,4.78-1.71,.61-.26,.94-.91,.57-1.62-.37-.71-.97-1.06-1.77-.8-.68,.22-1.33,.5-1.98,.79-2.77,1.21-5.52,1.19-8.28-.03-.65-.29-1.3-.59-1.97-.82-.64-.22-1.28-.23-1.67,.48-.43,.77-.15,1.38,.49,1.85,.4,.29,.83,.55,1.28,.77,1.96,.96,4.05,1.31,6.22,1.3Z"/><path class="dh" d="M340.05,193.56c-.89-.35-.8-1.19-.89-1.83-1.01-7.29-1.97-14.59-2.94-21.89-.02-.14-.03-.28-.04-.43-.14-2.7,1.36-4.13,4.06-3.87,1.19,.12,1.83,.55,1.94,1.88,.19,2.27,.33,4.58,.17,6.84-.42,5.92-1,11.83-1.53,17.74-.05,.6,.06,1.32-.76,1.56Zm.45-26.59c-2.86,.15-3.1,.31-2.85,2.81,.56,5.59,1.24,11.16,1.91,17.16,1.21-3.05,1.82-17.7,.94-19.97Z"/><path class="e`" d="M339.97,219.57c-.43-1.97-.34-2.24,1.24-2.45,1.98-.26,3.98-.4,5.98-.52,.51-.03,1.03,.19,1.93,.37l-2.51,3.28c-2.3-.23-4.47-.46-6.63-.67Z"/><path class="fp" d="M344.23,246.06c4.27-.21,8.39-.43,12.51-.6,.21,0,.43,.3,.77,.56-.35,.28-.59,.64-.86,.66-3.78,.27-7.56,.49-11.34,.72-.63,.04-1.13-.13-1.08-1.33Z"/><path class="ej" d="M83.15,102.26c-.18-.58-.45-1.15-.53-1.75-1-7.29-1.97-14.59-2.95-21.88-.02-.14-.02-.29-.04-.43-.3-2.9,.84-3.89,4.17-3.9,.97,0,1.64,.5,1.79,1.51,.14,.99,.34,1.99,.29,2.98-.29,5.35-.63,10.7-1,16.05-.14,2-.39,3.98-.63,5.97-.06,.51-.29,1.01-.44,1.51l-.65-.05Zm.09-6.99c.17-.41,.34-.66,.36-.91,.33-5.42,.67-10.85,.94-16.27,.04-.8-.25-1.62-.42-2.68l-2.94,.76c-.33,3.07,.75,12.86,2.07,19.1Z"/><path class="dj" d="M92.31,126.01c-.64,.82-1.23,1.7-1.95,2.45-.29,.3-.89,.45-1.32,.41-1.84-.15-3.68-.38-5.73-.61v-2.16c2.97-.58,5.82-1.03,8.72-.62l.28,.54Z"/><path class="cy" d="M87.42,155.52c.45-.35,.73-.75,1.03-.77,3.85-.23,7.7-.41,11.55-.58,.25-.01,.51,.18,.99,.36-.38,.38-.62,.86-.9,.87-3.99,.23-7.98,.39-11.97,.56-.12,0-.24-.14-.7-.44Z"/><path class="dl" d="M72.7,399.93c-1.25-.41-1.8-1.41-1.9-2.59-.17-2.05-1.23-3.6-2.44-5.13-.71-.89-1.4-1.82-1.91-2.83-.52-1.03,.07-1.82,1.23-1.86,.21,0,.43,.02,.64,.06,5.32,1.01,8.04,7.59,4.95,11.98-.11,.16-.34,.23-.56,.38Zm-4.9-10.69c.97,1.3,2.1,2.52,2.88,3.93,.79,1.43,1.25,3.04,1.83,4.54,1.91-3.4,.11-6.98-4.71-8.46Z"/><path class="gk" d="M77.26,393.53c.1,.43,.32,.87,.29,1.3-.18,3.34-.4,6.68-.61,10.03-.02,.28,0,.6-.12,.84-.11,.22-.39,.49-.59,.49-.2,0-.5-.28-.57-.49-.1-.32-.07-.7-.05-1.06,.18-3.2,.35-6.4,.57-9.6,.03-.51,.28-1,.42-1.51h.65Z"/><path class="gc" d="M39.96,391.56c.39,.42,.66,.58,.73,.81,.3,1.11,.18,11.23-.12,12.32-.97,.14-.98-.56-1-1.2-.04-2.06-.06-4.13-.08-6.19-.02-1.42-.06-2.85-.03-4.27,.01-.42,.27-.83,.49-1.46Z"/><path class="cx" d="M239.25,87.71c.18,.49,.45,.96,.52,1.46,1.18,8.36,2.33,16.72,3.49,25.08,1.22,8.71,2.45,17.42,3.67,26.14,0,.07,.04,.14,.04,.21,.01,1.02,.65,2.16-.53,2.95-.94,.64-3.73,.65-4.52-.15-.44-.45-.7-1.22-.76-1.88-.21-2.35-.3-4.71-.42-7.07-.5-9.65-.98-19.3-1.48-28.95-.27-5.22-.57-10.43-.83-15.65-.03-.67,.05-1.35,.08-2.02l.74-.12Zm6.56,54.71c-1.64-11.77-3.26-23.39-4.88-35.01l-.27,.02c.62,11.6,1.25,23.21,1.88,34.99h3.28Z"/><path class="fb" d="M253.55,154.67c.27,.47,.77,.94,.76,1.41-.06,3.4-.62,6.7-2.55,9.61-.39,.58-.91,1.11-1.46,1.53-.19,.14-.68-.1-1.12-.19,.81-1.25,1.56-2.28,2.18-3.39,1.17-2.12,1.35-4.49,1.64-6.84,.09-.74,.41-1.46,.62-2.19l-.07,.05Z"/><path class="fi" d="M227.23,157.17c.15,.5,.38,.99,.44,1.5,.3,2.75,1.24,5.23,2.96,7.41,.22,.28,.44,.57,.57,.88,.06,.15-.03,.5-.15,.56-.21,.11-.56,.19-.75,.09-.3-.16-.54-.45-.76-.73-2-2.53-3.06-5.42-3.25-8.63-.02-.35,.23-.72,.36-1.09h.58Z"/><path class="fo" d="M136.73,304.47c-2.34-1.99-4.05-6.12-3.55-8.56,.16-.78,.66-1.56,1.21-2.15,.71-.76,1.72-1.06,2.74-.63,.96,.4,1.28,1.29,1.32,2.26,.03,.64,.03,1.29-.08,1.91-.36,2.03-.78,4.04-1.19,6.06-.07,.32-.25,.61-.46,1.12Zm-1.04-3.14l.5-.1c.32-1.75,.68-3.49,.94-5.25,.09-.61,.06-1.54-.71-1.56-.57-.02-1.32,.52-1.68,1.03-.32,.46-.38,1.26-.25,1.85,.3,1.37,.79,2.69,1.2,4.04Z"/><path class="fg" d="M141.05,250.52c1.11-.1,1.08,.64,1.19,1.25,.65,3.66,1.31,7.31,1.95,10.97,1.12,6.33,2.23,12.66,3.35,18.99,.11,.63,.37,1.27-.8,1.61-.2-.59-.48-1.13-.58-1.71-1.62-9.07-3.22-18.14-4.82-27.22-.16-.91-.35-1.83-.45-2.75-.04-.38,.1-.78,.16-1.15Z"/><path class="eu" d="M151.08,333.19c-3.18,.01-5.49-.36-7.63-1.47-.75-.39-1.47-.91-2.04-1.51-.8-.83-.79-1.91-.18-2.97,.63-1.09,1.43-1.49,2.68-1.19,.75,.18,1.49,.48,2.2,.82,2.68,1.29,5.35,1.36,8.05,.06,.45-.22,.91-.41,1.39-.57,1.71-.56,3.1-.03,3.81,1.42,.63,1.29,.15,2.57-1.45,3.57-2.32,1.44-4.92,1.82-6.81,1.84Zm-.81-1.32c.85-.06,1.74,.02,2.55-.21,1.56-.44,3.1-.99,4.58-1.63,.69-.29,1.08-.98,.61-1.78-.4-.69-1.03-.97-1.82-.69-.73,.27-1.46,.57-2.18,.87-1.97,.82-3.99,1.06-6.05,.5-1.09-.3-2.13-.78-3.2-1.19-1.46-.56-2.03-.5-2.42,.3-.4,.81-.07,1.44,1.15,2.19,.24,.15,.5,.27,.76,.39,1.91,.88,3.92,1.24,6.02,1.25Z"/><path class="d`" d="M242.63,260.69c-1.46-.45-1.9-1.38-1.96-2.38-.1-1.53-.9-2.66-1.77-3.79-.6-.79-1.25-1.57-1.71-2.44-.59-1.1,.12-2.2,1.27-1.91,2.39,.6,4.23,2.05,5.21,4.35,.95,2.23,.39,4.27-1.04,6.18Zm-4.11-8.97c1.44,2.23,3.57,3.92,3.49,6.96,1.51-2.96,.17-5.54-3.49-6.96Z"/><path class="ep" d="M245.39,255.13c.57,.13,.74,.12,.83,.2,.14,.14,.32,.35,.31,.52-.18,3.06-.37,6.13-.59,9.19-.02,.3-.28,.59-.51,1.03-.32-.3-.68-.48-.67-.65,.08-3.4,.12-6.8,.63-10.28Z"/><path class="fu" d="M215.77,265.04c-.43-.62-.82-.92-.83-1.22-.08-3.06-.11-6.11-.11-9.17,0-.27,.33-.54,.51-.81,.25,.19,.63,.34,.72,.59,.29,.8,.09,9.22-.29,10.61Z"/><path class="gl" d="M379.9,93.92c-1.31-.29-1.77-1.18-1.88-2.19-.18-1.81-1.17-3.16-2.23-4.5-.48-.61-.98-1.24-1.31-1.93-.54-1.12,.19-2.17,1.35-1.86,2.46,.67,4.35,2.18,5.26,4.59,.81,2.15,.28,4.14-1.18,5.89Zm-3.97-8.82c.87,1.2,1.7,2.14,2.3,3.21,.59,1.04,.94,2.21,1.47,3.49,.71-3.52-.36-5.47-3.77-6.7Z"/><path class="ee" d="M353.05,98.01c-.8-1.32-1.22-9.46-.92-10.47,.06-.21,.36-.35,.57-.54,.71,1.1,1.2,6.72,.86,9.83-.04,.41-.34,.78-.52,1.17Z"/><path class="ev" d="M383.68,88.57c.33,3.29-.31,6.58-.44,9.88-.01,.26-.37,.5-.79,1.03-.21-.74-.46-1.17-.44-1.59,.12-2.78,.3-5.55,.47-8.33,.04-.6,.14-1.17,1.2-.99Z"/><path class="er" d="M302.97,303.83c.36,.77,.67,1.39,.94,2.02,3.94,9.27,7.89,18.55,11.81,27.83,.29,.68,1.05,1.47,.07,2.27-.96-.32-1.04-1.19-1.33-1.87-3.42-8.02-6.82-16.05-10.23-24.08-.64-1.51-1.28-3.03-1.93-4.54-.25-.57-.37-1.08,.68-1.64Z"/><path class="de" d="M320.45,312.38c-.52-.87-.85-1.31-1.06-1.81-1.62-3.82-3.22-7.64-4.8-11.47-.24-.58-.85-1.33,.31-1.7,.76,.88,5.99,12.68,6.09,13.82,.02,.22-.21,.47-.54,1.16Z"/><path class="f`" d="M319.41,341.19c-.39-.08-1.17-.19-1.9-.44-.2-.07-.35-.53-.36-.82,0-.13,.4-.32,.64-.38,.19-.05,.41,.08,.62,.12,2.99,.54,5.43-.49,7.52-2.58,.45-.45,.88-1.55,1.61-.86,.81,.76-.28,1.36-.74,1.86-1.88,2.02-4.24,3.04-7.4,3.1Z"/><path class="ft" d="M384.9,268.1c-2.07-.33-3.69,.24-5.07,1.77-.85,.94-1.92,1.7-2.96,2.45-.5,.37-1.13,.64-1.74,.75-1.05,.19-1.94-.91-1.59-1.92,.13-.39,.41-.76,.71-1.05,2.77-2.65,5.91-4.7,9.67-5.67,1.46-.37,2.89-.23,3.86,1.09,.34,.47,.67,1.26,.5,1.7-.17,.43-.97,.71-1.54,.84-.61,.14-1.28,.03-1.83,.03Z"/><path class="dr" d="M409.5,311.45c1.1,.04,2.22,.58,3.17,1.54,1.05,1.06,2.2,2.05,3.19,3.16,.75,.84,1.42,1.79,1.95,2.78,.2,.39,.1,1.21-.2,1.51-.3,.31-1.04,.39-1.53,.29-1.15-.23-2.19-.81-2.69-1.93-.71-1.6-1.96-2.36-3.59-2.73-1.06-.23-2.02-.69-2.66-1.66-1.01-1.54-.39-2.8,1.46-2.97,.21-.02,.43,0,.9,0Zm-1.31,1.55c.1,1.47,1.3,1.61,2.28,1.86,1.75,.45,3.12,1.32,3.93,2.99,.37,.77,.9,1.38,2.13,1.38-.39-.61-.58-1.07-.9-1.4-1.39-1.42-2.78-2.86-4.25-4.2-.87-.79-1.95-1.13-3.18-.65Z"/><path class="g`" d="M284.26,61.37c-1.95-.37-3.62,.29-5.05,1.85-.81,.88-1.81,1.61-2.79,2.32-.51,.37-1.13,.71-1.73,.78-.47,.05-1.17-.21-1.43-.57-.27-.37-.22-1.05-.14-1.57,.04-.31,.36-.61,.62-.85,2.74-2.58,5.81-4.61,9.49-5.57,2-.52,3.46,.03,4.3,1.47,.66,1.13,.3,1.95-1.01,2.13-.7,.1-1.42,.02-2.26,.02Zm-9.96,3.16l.33,.34c1.97-.91,3.55-2.25,4.66-4.2l-4.99,3.86Z"/><path class="di" d="M308.87,104.75c1.19,.04,2.3,.59,3.25,1.55,1.05,1.06,2.17,2.07,3.2,3.15,.63,.67,1.23,1.4,1.71,2.18,.4,.65,.79,1.43,.07,2.16-.7,.71-1.52,.42-2.18,.04-.77-.46-1.66-1.01-2.06-1.75-.81-1.54-2-2.34-3.63-2.7-1.06-.24-2.02-.7-2.65-1.67-1-1.55-.38-2.8,1.47-2.96,.21-.02,.43,0,.81,0Zm6.54,7.97l.44-.39c-.26-.4-.46-.86-.78-1.2-1.39-1.42-2.78-2.86-4.25-4.19-.87-.79-1.95-1.13-3.15-.64,.58,1.37,.57,1.43,2.27,1.87,1.76,.45,3.07,1.36,3.94,2.99,.33,.62,1.01,1.04,1.53,1.56Z"/><path class="fd" d="M118.82,198.43c1.36,0,2.72-.04,4.08,0,1.52,.05,2.18,.79,2.17,2.31-.01,1.57-.93,2.84-2.58,3.29-1.24,.34-2.52,.52-3.79,.69-1.82,.24-3.42,.95-4.92,1.98-.94,.65-1.91,1.3-2.97,1.69-2.13,.78-3.68-.42-3.5-2.69,.07-.85-.26-1.3-.85-1.79-1.74-1.44-1.64-2.43,.41-3.43,2.75-1.34,5.72-1.78,8.74-1.92,1.07-.05,2.15,0,3.22,0v-.13Zm4.8,1.3c-5.8,.46-11.61-.61-17.14,2.52,1.63,1.07,2.56,2.17,2.14,4.04-.18,.82,.72,1.09,1.34,.88,.99-.35,1.99-.82,2.83-1.44,1.96-1.44,4.14-2.19,6.52-2.47,.85-.1,1.7-.24,2.52-.46,1.5-.41,1.74-.81,1.79-3.08Z"/><path class="fj" d="M148.2,189.45c1.77,.21,3.05,.32,4.32,.55,.69,.13,1.37,.41,2.01,.72,.8,.38,1.55,.94,1.4,1.94-.14,.93-1.02,1.16-1.8,1.26-4.28,.54-8.37,1.77-12.4,3.28-1.67,.63-3.4,.36-4.98-.52-2.33-1.29-2.42-3.26-.15-4.59,.97-.57,2.07-1.05,3.17-1.26,2.94-.57,5.91-.98,8.43-1.38Zm5.98,3.07l.03-.55c-.87-.26-1.72-.59-2.6-.76-2.72-.52-5.43-.19-8.12,.23-1.76,.27-3.49,.75-5.19,1.28-.84,.26-1.74,.67-1.98,1.75,.97,1.35,2.34,1.73,3.81,1.57,1.12-.12,2.25-.44,3.3-.86,2.74-1.09,5.54-1.9,8.48-2.23,.77-.09,1.52-.29,2.28-.44Z"/><path class="fx" d="M160.43,213.11c-1.59-.06-2.94,.12-3.48-1.11-.6-1.39,.56-2.26,1.49-3.01,1.99-1.61,4.3-2.52,6.86-2.69,1.31-.09,2.62,.09,3.4,1.35,.54,.87,0,2.54-1.2,3.62-.56,.5-1.29,.94-2.01,1.09-1.81,.37-3.66,.55-5.05,.75Zm7.11-4.73c-2.65-1.53-7.38,.04-9.33,3.18,.71,.07,1.32,.22,1.92,.17,1.56-.15,3.11-.39,4.66-.58,1.66-.21,2.43-1.25,2.75-2.76Z"/><path class="gm" d="M80.31,28.43c.27,.47,.59,.79,.64,1.15,.26,1.9,.47,3.81,.67,5.72,.03,.28,.05,.62-.08,.84-.28,.45-.63,1.12-1.01,1.16-.41,.04-.99-.46-1.28-.87-.27-.37-.38-.96-.34-1.43,.18-1.98,.44-3.94,.71-5.91,.03-.2,.36-.36,.68-.66Z"/><path class="gg" d="M282.24,196.01c.62,2.38,1.04,4.8,.88,7.3-.04,.67-.27,1.36-1.03,1.43-.83,.07-1.3-.54-1.48-1.28-.49-2.14-.1-4.25,.38-6.34,.1-.42,.4-.8,.61-1.2l.64,.1Z"/><path class="fs" d="M18.47,330c.92,1.73,1.63,6.37,1.14,7.77-.14,.41-.56,.94-.93,1-.36,.06-.85-.35-1.21-.65-.19-.16-.29-.5-.32-.77-.35-2.44-.15-4.82,.81-7.11,.04-.1,.24-.12,.51-.25Z"/><path class="gn" d="M192.1,181.37c.38,.36,.65,.49,.67,.65,.26,2.26,.51,4.51,.7,6.78,.05,.63-.08,1.37-.88,1.52-.88,.17-1.3-.47-1.52-1.18-.17-.53-.3-1.12-.26-1.67,.14-1.63,.34-3.25,.59-4.87,.06-.37,.38-.69,.7-1.23Z"/><path class="gj" d="M281.31,326.41c1.27,1.58,1.89,6.25,.98,7.86-.24,.42-.8,.83-1.27,.9-.7,.11-.92-.55-.99-1.13-.29-2.5,.11-4.93,.77-7.33,.04-.14,.33-.2,.5-.3Z"/></g></g></g></svg>