<?xml version="1.0" encoding="utf-8"?>
<!-- Generator: Adobe Illustrator 26.2.1, SVG Export Plug-In . SVG Version: 6.00 Build 0)  -->
<svg version="1.1" id="Capa_1" xmlns="http://www.w3.org/2000/svg" xmlns:xlink="http://www.w3.org/1999/xlink" x="0px" y="0px"
	 viewBox="0 0 1011.7 737.9" style="enable-background:new 0 0 1011.7 737.9;" xml:space="preserve">
<style type="text/css">
	.st0{fill:#8E7391;}
</style>
<g id="a">
</g>
<g id="b">
	<g id="c">
		<g>
			<path class="st0" d="M710,657.4c-24.2-10.2-54.5-9-77.2-4.7c-13.5,2-82,19.2-86.3,35.6c-7.2,27,64,14.8,75.8,11.8
				C652.6,692.6,684.7,673.6,710,657.4"/>
			<path class="st0" d="M913.6,697c-30.3,2.7-62.7-15.1-88.1-29.8c-33.3-19.3-63.4-44.7-95.4-66.2c-62.5-42-114-92.7-168-144.6
				c-4-3.9-9.7,2.6-5.7,6.4c28.6,27.5,56.3,55.9,85.7,82.5c29.6,26.8,62.4,48.6,95.4,71c30.4,20.6,58.9,44,90.7,62.4
				c24.3,14.1,57.1,29.4,86,26.9C919.7,705.2,919.1,696.6,913.6,697"/>
			<path class="st0" d="M646.3,538.7c-12.2-15.2-85.8-135.4-114.4-110c-18.1,17.1,22.4,61.6,34.3,69.8
				c21.8,19.8,54.1,31.3,79.4,43.1L646.3,538.7z"/>
			<path class="st0" d="M627.4,510c-4.7-37.9,5.3-126.2-33.3-168.4c-27-29.6-36.9,3.7-32.9,30.7c5.3,26.7,15.2,62,28.3,86.7"/>
			<path class="st0" d="M580.5,377.7c8.4,33.9,14.5,68.2,21.7,102.4c1.1,5.4,9.3,2.6,8.2-2.8c-7.2-34.1-13.3-68.5-21.7-102.3
				C587.3,369.5,579.1,372.3,580.5,377.7"/>
			<path class="st0" d="M716.7,590.8c-27.5-42.6-23-95-35.4-142.4c-1.4-5.4-9.6-2.6-8.1,2.8c12.7,48.4,8.3,100.9,36.4,144.3
				C712.5,600.2,719.7,595.4,716.7,590.8"/>
			<path class="st0" d="M692.5,541.3c2.3-30,11.4-68.9,6.8-98.5c-1.7-17.8-14.5-69.2-35.6-35.9C644.2,441.2,680.6,510.7,692.5,541.3
				"/>
			<path class="st0" d="M795.4,647.7c-26.9-3.8-56.2,1.1-82.8,4.9c-42.1,6-85.3,13-125.2,28c-5.2,1.9-2.4,10.1,2.8,8.1
				c39.4-14.7,81.5-21,123-27.5c25.6-4,54.8-8.7,80.6-5.1C799.3,656.9,800.9,648.5,795.4,647.7"/>
			<path class="st0" d="M827.9,632.5c1.3,18.7,8.7,38.6,18,54.7c2.8,4.8,9.9,0,7.2-4.8c-8.5-14.8-15.5-33.5-16.6-50.6
				C836.1,626.3,827.4,626.9,827.9,632.5"/>
			<path class="st0" d="M411.3,506.5c-10.5-19.7-113.1-194.3-143.1-157.4c-17.5,19.8,20.5,67.6,34,82.4
				c13.2,13.5,32.6,26.9,48.1,38.5C373.7,485.2,385.6,493.4,411.3,506.5"/>
			<path class="st0" d="M296.9,391c20.3,39.3,52.5,67,84.6,96.3c33.4,30.5,67,48.9,112.6,53.8c5.5,0.6,7.1-7.9,1.6-8.5
				c-21.3-2.3-41.4-7.5-61.1-16.3c-20.7-9.2-35.6-24.7-52-39.7c-30.1-27.5-59.7-53.7-78.7-90.5C301.6,381.3,294.4,386.1,296.9,391"
				/>
			<path class="st0" d="M586,535c-36,4.2-72.3-1.1-108.3-3.3c-24.5-1.6-48.6,0.3-72.9,3.3c-48.9,6-104.4,12.6-149.7,33.1
				c-5,2.3-2.3,10.4,2.8,8.2c46.5-21,102.7-27.2,152.8-33.3c58.9-7.2,117.3,7.4,175.9,0.7C592.1,542.9,591.5,534.3,586,535"/>
			<path class="st0" d="M417.8,537.8c-46.4-1-102-10-146.5,2.5c-22.4,5.6-86.6,39.9-38.8,57.4c24.7,9.2,57.3-6,80.7-13.2
				c43.2-12.2,83.7-37.7,127.2-48.6"/>
			<path class="st0" d="M740.4,610.4c-30.5,6.2-61.2-3.6-91.9-0.9c-36.5,3.2-73.4,9.6-108.9,18.5c-72.5,18.2-136.4,60.3-208.4,80.4
				c-5.4,1.5-2.5,9.7,2.8,8.2c67.4-18.8,127.7-55.5,194.3-76.4C567,628,608.7,622.3,649,618.1c30.7-3.1,61.2,7.1,91.9,0.9
				C746.4,617.9,745.8,609.3,740.4,610.4"/>
			<path class="st0" d="M510.4,641.6c-42,9.5-100,17.7-139.2,28.9c-14.5,3.7-62,32.5-60,57.2c4.3,45.1,176-73.6,187.9-82.2"/>
			<path class="st0" d="M641.2,610.3c-43.8,4-82.9-22-126.1-24.2c-37-1.8-77.9,8-112.9,19.6c-5.3,1.8-2.5,9.9,2.8,8.2
				c38.1-12.6,84.1-24.2,124.2-17.1c37.8,6.7,73.6,25.7,112.7,22.1C647.3,618.4,646.7,609.8,641.2,610.3"/>
			<path class="st0" d="M559.7,599.9c-34.9-16.5-86.5-30.4-125.3-23.5c-15.8,4-98.2,27.4-57.3,56.4c18.5,12.2,65.6-6.6,85.3-11.6
				c24.7-7.6,55-26.4,80.7-24.4"/>
			<path class="st0" d="M708.2,612.3c-33.2-16.3-62.6-38.6-92.8-59.5c-28.1-19.4-57.1-36.9-84.3-57.7
				c-49.7-37.9-100.6-79.5-136-131.5c-3.1-4.6-10.3,0.2-7.2,4.8c34.7,51,83.5,90.5,131.4,128.5c28.9,22.9,59.9,41.8,90.4,62.4
				c31.2,21.1,60.8,44.2,94.7,60.9C709.4,622.4,713.1,614.7,708.2,612.3"/>
			<path class="st0" d="M466.6,447.9C453.7,435.7,366,286.8,348.9,324.7c-7.2,15.8,29.7,68.2,42.6,80.4
				c22.4,22.4,63.4,38.5,88.8,55.9"/>
			<path class="st0" d="M514.4,482.2c-21.3-29.9-29.2-63.3-44.5-96.2c-16-34.4-36.8-66.7-60.3-96.5c-3.4-4.4-10.6,0.4-7.2,4.8
				c24.5,31.2,45.6,64.9,62.3,101c14.7,31.8,21.8,62.8,42.5,91.7C510.4,491.4,517.6,486.7,514.4,482.2"/>
			<path class="st0" d="M472,401.1c-7.6-19.1-83.9-216.5-114.9-172.3c-13.1,20.1,26.1,64.9,37.9,78.7
				c24.7,31.6,59.2,67.3,80.7,102.6"/>
			<path class="st0" d="M299.2,428.2c-19.7-15-78.8-46.1-99.9-57.6c-17.5-8.2-105.5-63.2-122.3-40.8
				c-34.9,50.8,196.1,89.5,214.3,94.8"/>
			<path class="st0" d="M109.5,353.1c54.3,31.4,116,50.7,174,74c5.1,2,8.9-5.7,3.8-7.7c-58.1-23.2-119.7-42.6-174.1-74
				C108.5,342.6,104.7,350.3,109.5,353.1"/>
			<path class="st0" d="M343.3,466c-30.2,6.6-61.9,5.8-92.5,11c-27.7,4.7-55,11.4-82.4,17.4c-5.4,1.2-2.6,9.3,2.8,8.2
				c31.7-7,63.2-14.4,95.3-19.4c26.5-4.2,53.5-3.3,79.6-9C351.5,472.9,348.7,464.8,343.3,466"/>
			<path class="st0" d="M316.9,474c-31.6-3.7-65.4-12.8-104.3-5.9c-14.9,2.3-78.8,9.9-78.4,33.7C132.9,546.9,302.4,477.6,316.9,474"
				/>
			<path class="st0" d="M229,410.8c-39.5,9.9-81.4,16.2-122.2,9.6C80.7,417.1,10.9,412.3,0,380c13.8-18.7,37.9-5.3,57.3-0.4
				c28.3,6.9,100.8,20.4,131.9,21.7"/>
			<path class="st0" d="M206.3,406.5c-50.5,7-102.4-4.9-151.4-16.3c-5.4-1.3-7,7.2-1.6,8.4c49.7,11.6,102.4,23.5,153.7,16.5
				C212.4,414.3,211.8,405.8,206.3,406.5"/>
		</g>
		<g>
			<path class="st0" d="M862.4,555c-3.8-19.2-17.1-37.5-29.2-49.8c-6.9-7.5-46-42.8-57.9-38.7c-19.7,6.8,17.4,45.8,24.2,51.9
				C816.8,534,841.9,546,862.4,555"/>
			<path class="st0" d="M922.5,697.5c-14.2-17.6-16.7-45.1-18.2-66.9c-1.9-28.6,1.3-57.8,1.4-86.6c0.1-56.1,10-109.1,19.7-164.1
				c0.7-4.1-5.7-4.9-6.4-0.9c-5.1,29.1-11.2,58.1-15.5,87.4c-4.3,29.5-4.2,58.8-4.3,88.5c-0.1,27.4-2.8,54.8-1,82.1
				c1.5,20.9,5.6,47.6,19.2,64.4C920,704.6,925.1,700.7,922.5,697.5"/>
			<path class="st0" d="M909.4,466.1c4.3-13.8,48.2-109.4,20.6-116.5c-18.1-4.1-28.8,39.5-29,50.2c-3.2,21.7,3.1,46.5,6.3,67.1
				L909.4,466.1L909.4,466.1z"/>
			<path class="st0" d="M919.4,442.5c21.5-18.6,80.3-49.1,90.4-90.5c7.1-29-17.6-21.3-32.7-7.6c-14.3,14.4-32.1,35.1-41.9,53.6"/>
			<path class="st0" d="M981.8,358.5c-17.5,19.3-36.2,37.3-54.4,56c-2.9,3,2.2,6.8,5.1,3.9c18.2-18.6,36.9-36.7,54.4-55.9
				C989.7,359.3,984.6,355.5,981.8,358.5"/>
			<path class="st0" d="M906.5,531.4c15-34.7,49.3-53.7,73.5-81.1c2.7-3.1-2.4-7-5.1-3.9c-24.7,28-59,47.1-74.3,82.5
				C898.9,532.7,904.9,535.2,906.5,531.4"/>
			<path class="st0" d="M927.1,495.9c19.5-11,47.4-21.6,63.8-36.8c10.3-8.4,36.8-37.8,7.4-37C969,424.4,941.1,475.8,927.1,495.9"/>
			<path class="st0" d="M903.9,603.8c-8.8-18.2-24-34.3-37.5-49.2c-21.2-23.6-43.5-47.4-69.4-65.9c-3.3-2.4-7.3,2.7-3.9,5.1
				c25.6,18.3,46.9,41.7,68.2,64.7c13.1,14.2,28.1,30.3,36.6,47.8C899.8,610,905.8,607.5,903.9,603.8"/>
			<path class="st0" d="M926.8,617.6c-11,8.5-20.3,21.4-26.4,33.9c-1.8,3.7,4.1,6.2,5.9,2.5c5.6-11.4,14.3-23.5,24.4-31.3
				C934.1,620.1,930.1,615,926.8,617.6"/>
			<path class="st0" d="M831.7,307.3c7.8-14.7,73.3-150.8,38-154c-19.5-2.6-33.4,40.8-36.9,55.3c-2.9,13.8-3.1,31.4-3.8,45.8
				C829.4,275.2,829.2,285.9,831.7,307.3"/>
			<path class="st0" d="M855.8,188.5c-15.9,28.9-19.7,60.3-24.5,92.4c-5,33.3-2.5,61.8,13.5,92.1c1.9,3.6,7.8,1.1,5.9-2.5
				c-7.5-14.2-12.6-28.8-15.3-44.6c-2.9-16.7,0.5-32.3,3-48.6c4.5-30,8.5-59.2,23.3-86.3C863.7,187.3,857.7,184.9,855.8,188.5"/>
			<path class="st0" d="M886.7,427.3c-17.5-20.6-29.4-45.2-42.9-68.4c-9.2-15.8-20.4-29.9-32.3-43.8c-24-27.8-51.2-59.4-82.7-78.9
				c-3.5-2.2-7.4,2.9-3.9,5.1c32.3,20,59.5,52.3,84.1,80.8c28.9,33.5,44.2,75.7,72.7,109.2C884.3,434.4,889.4,430.4,886.7,427.3"/>
			<path class="st0" d="M815.1,324.3c-18.7-29.1-36.2-67.3-62.4-89.7c-12.8-11.5-60.7-37-51.7-0.2c4.6,19.1,27.5,33,41.7,44.5
				c25.5,21.7,58.1,36.1,82.9,58.6"/>
			<path class="st0" d="M904.2,554.2c-16.5-16.3-23.2-39.4-37.6-57.2c-17.2-21.3-36.5-41.4-56.7-59.7c-41.4-37.4-94-59.4-136.4-95.6
				c-3.2-2.7-7,2.4-3.9,5.1c39.6,33.9,87.4,56,128.1,88.6c23.6,18.9,44.5,42.4,63.8,65.6c14.7,17.7,21,40.9,37.6,57.3
				C902,561.1,907.1,557.2,904.2,554.2"/>
			<path class="st0" d="M789.3,424.8c-23.3-22-52.5-54.6-75.7-74.2c-8.3-7.5-45.9-24.8-60.3-13.3c-26.1,21.4,118.7,78.4,128.9,82.2"
				/>
			<path class="st0" d="M863,492.8c-20.7-25.5-20.8-60.5-37.4-88.1c-14.2-23.7-37.3-44.9-59-61.8c-3.3-2.5-7.2,2.6-3.9,5.1
				c23.7,18.4,49.9,42,62.2,69.8c11.6,26.2,14.7,56.2,33.1,79C860.6,499.9,865.6,496,863,492.8"/>
			<path class="st0" d="M835.6,438c-4.3-28.5-17.1-66.2-37.5-87.4c-9-8.1-57.8-49.4-58.7-12.1c0.1,16.5,31.3,37.9,42.6,48
				c15,12.2,39.2,23.1,48.7,39.8"/>
			<path class="st0" d="M889.6,535c-3.7-27.3-2.1-54.8-1.7-82.2c0.4-25.4-0.8-50.7,0.7-76.1c2.8-46.5,7.4-95.3,24.9-138.9
				c1.5-3.9-4.4-6.3-5.9-2.5c-17.2,42.6-21.3,89.3-25,134.7c-2.2,27.4-1,54.5-1.1,81.9c-0.1,28.1-2.1,56,1.7,83.9
				C883.8,540,890.2,539.1,889.6,535"/>
			<path class="st0" d="M891.1,317.2c2.2-13,58-129.2,27.3-124c-12.8,2.1-29.9,46.7-32.1,59.7c-4.5,23.2,2.5,55.2,2.3,78.2"/>
			<path class="st0" d="M889.7,361c9.7-25.6,27-44.4,41.1-67.5c14.7-24.2,26-50.5,34.7-77.4c1.3-3.9-4.6-6.4-5.9-2.5
				c-9.1,28.2-21.3,55.2-36.6,80.5c-13.5,22.3-29.8,39.6-39.1,64.4C882.3,362.4,888.2,364.9,889.7,361"/>
			<path class="st0" d="M922.2,301.1c8.7-12.6,99.2-141.9,59-142.7c-17.9,0.2-29.3,43.1-33,56.2c-9.3,28.4-17.1,64.6-30,92.6"/>
			<path class="st0" d="M833.7,205.4c1.1-18.4-4.2-67.9-5.8-85.8c-2.2-14.2-4.7-91.6-25.6-92.7c-45.9-0.5,26.1,158.6,30.3,172"/>
			<path class="st0" d="M801.4,56.7c3.2,46.7,16.8,92.9,26.5,138.5c0.9,4,7.2,3.2,6.4-0.9c-9.8-45.6-23.3-91.8-26.5-138.5
				C807.5,51.7,801.1,52.5,801.4,56.7"/>
			<path class="st0" d="M828.6,248.3c-16.7-15.9-29.3-35.9-45.3-52.7c-14.4-15.2-29.9-29.3-45-43.8c-3-2.8-6.9,2.3-3.9,5.1
				c17.5,16.7,35.2,33.2,51.6,50.9c13.6,14.6,24.2,31.7,38.7,45.6C827.7,256.3,831.6,251.2,828.6,248.3"/>
			<path class="st0" d="M812.7,235.3c-10.9-21.1-19.3-45.8-39.7-67c-7.6-8.2-38.9-44.7-53.4-34.6
				C691.1,151.7,804.4,227.8,812.7,235.3"/>
			<path class="st0" d="M815.3,154.6c-22.6-20.4-43.8-43.6-56.7-71.7c-8.8-17.5-34.8-62.8-19.3-82.9c17.3,0.8,19,21.3,24,35.4
				c7.5,20.4,29.2,70.9,41.4,90.7"/>
			<path class="st0" d="M808.5,138.8c-25.3-28.4-39.5-65.4-52.8-100.5c-1.4-3.9-7.4-1.4-5.9,2.5c13.5,35.6,28,73.2,53.7,102
				C806.2,145.8,811.3,141.9,808.5,138.8"/>
		</g>
	</g>
</g>
</svg>
