<?xml version="1.0" encoding="UTF-8"?><svg xmlns="http://www.w3.org/2000/svg" viewBox="0 0 119.75 41.75"><defs><style>.d{fill:#fff;}.e{fill:#ff0074;stroke:#fff;stroke-miterlimit:10;stroke-width:.75px;}</style></defs><g id="a"/><g id="b"><g id="c"><rect class="e" x=".38" y=".38" width="119" height="41" rx="11.82" ry="11.82"/><g><path class="d" d="M32.86,15.79l-5.14,11.88h-2.71l-5.12-11.88h2.97l3.61,8.48,3.66-8.48h2.73Z"/><path class="d" d="M43.04,25.47v2.21h-9.2V15.79h8.98v2.21h-6.24v2.58h5.51v2.14h-5.51v2.75h6.46Z"/><path class="d" d="M52.79,27.67l-2.29-3.31h-2.53v3.31h-2.75V15.79h5.14c1.05,0,1.97,.18,2.74,.53,.77,.35,1.37,.85,1.79,1.49,.42,.64,.63,1.41,.63,2.29s-.21,1.64-.64,2.28c-.42,.64-1.03,1.13-1.81,1.47l2.66,3.82h-2.95Zm-.7-9.1c-.43-.36-1.06-.53-1.88-.53h-2.24v4.14h2.24c.83,0,1.45-.18,1.88-.54,.43-.36,.64-.87,.64-1.53s-.21-1.18-.64-1.54Z"/><path class="d" d="M73.31,27.67l-.02-7.13-3.5,5.87h-1.24l-3.48-5.72v6.97h-2.58V15.79h2.27l4.45,7.38,4.38-7.38h2.26l.03,11.88h-2.58Z"/><path class="d" d="M86.52,25.13h-5.51l-1.05,2.55h-2.82l5.29-11.88h2.71l5.31,11.88h-2.88l-1.05-2.55Zm-.87-2.09l-1.88-4.55-1.88,4.55h3.77Zm-1.12-10.66h2.85l-3.07,2.44h-2.07l2.29-2.44Z"/><path class="d" d="M92.88,27.49c-.88-.25-1.58-.59-2.11-.99l.93-2.07c.51,.37,1.11,.67,1.82,.9,.7,.23,1.4,.34,2.1,.34,.78,0,1.36-.12,1.73-.35,.37-.23,.56-.54,.56-.92,0-.28-.11-.52-.33-.7s-.5-.34-.85-.45c-.35-.11-.81-.24-1.4-.37-.91-.21-1.65-.43-2.22-.64-.58-.21-1.07-.56-1.48-1.04-.41-.48-.62-1.11-.62-1.9,0-.69,.19-1.32,.56-1.88,.37-.56,.94-1,1.69-1.33,.75-.33,1.67-.49,2.76-.49,.76,0,1.5,.09,2.22,.27,.72,.18,1.36,.44,1.9,.78l-.85,2.09c-1.1-.62-2.19-.93-3.29-.93-.77,0-1.34,.12-1.71,.37-.37,.25-.55,.58-.55,.98s.21,.71,.64,.91c.42,.2,1.07,.39,1.94,.59,.9,.21,1.65,.43,2.22,.64,.58,.21,1.07,.55,1.48,1.02,.41,.46,.62,1.09,.62,1.88,0,.68-.19,1.3-.57,1.86-.38,.56-.95,1-1.71,1.33-.76,.33-1.68,.49-2.77,.49-.94,0-1.85-.13-2.72-.38Z"/></g></g></g></svg>