<?xml version="1.0" encoding="UTF-8"?><svg xmlns="http://www.w3.org/2000/svg" viewBox="0 0 905.88 650.85"><defs><style>.d{fill:#fff;}</style></defs><g id="a"/><g id="b"><g id="c"><rect class="d" x="138.57" y="640.53" width="644.51" height="10.32"/><path class="d" d="M92.35,1.2h16.2V58h35.1v13.2h-51.3V1.2Z"/><path class="d" d="M199.45,56.2h-32.5l-6.2,15h-16.6L175.35,1.2h16l31.3,70h-17l-6.2-15Zm-5.1-12.3l-11.1-26.8-11.1,26.8h22.2Z"/><path class="d" d="M236.9,70.15c-5.17-1.5-9.32-3.45-12.45-5.85l5.5-12.2c3,2.2,6.57,3.97,10.7,5.3,4.13,1.33,8.27,2,12.4,2,4.6,0,8-.68,10.2-2.05,2.2-1.37,3.3-3.18,3.3-5.45,0-1.67-.65-3.05-1.95-4.15-1.3-1.1-2.97-1.98-5-2.65-2.03-.67-4.78-1.4-8.25-2.2-5.33-1.27-9.7-2.53-13.1-3.8-3.4-1.27-6.32-3.3-8.75-6.1-2.43-2.8-3.65-6.53-3.65-11.2,0-4.07,1.1-7.75,3.3-11.05,2.2-3.3,5.52-5.92,9.95-7.85,4.43-1.93,9.85-2.9,16.25-2.9,4.47,0,8.83,.53,13.1,1.6,4.27,1.07,8,2.6,11.2,4.6l-5,12.3c-6.47-3.67-12.93-5.5-19.4-5.5-4.53,0-7.88,.73-10.05,2.2-2.17,1.47-3.25,3.4-3.25,5.8s1.25,4.18,3.75,5.35c2.5,1.17,6.32,2.32,11.45,3.45,5.33,1.27,9.7,2.53,13.1,3.8,3.4,1.27,6.32,3.27,8.75,6,2.43,2.73,3.65,6.43,3.65,11.1,0,4-1.12,7.65-3.35,10.95-2.23,3.3-5.58,5.92-10.05,7.85-4.47,1.93-9.9,2.9-16.3,2.9-5.53,0-10.88-.75-16.05-2.25Z"/><path class="d" d="M385.75,71.2l-.1-42-20.6,34.6h-7.3l-20.5-33.7v41.1h-15.2V1.2h13.4l26.2,43.5L387.45,1.2h13.3l.2,70h-15.2Z"/><path class="d" d="M425.3,64.1c-5.57-5.53-8.35-13.43-8.35-23.7V1.2h16.2V39.8c0,12.53,5.2,18.8,15.6,18.8,5.07,0,8.93-1.52,11.6-4.55,2.67-3.03,4-7.78,4-14.25V1.2h16V40.4c0,10.27-2.78,18.17-8.35,23.7-5.57,5.53-13.35,8.3-23.35,8.3s-17.79-2.77-23.35-8.3Z"/><path class="d" d="M496.2,69.75c-3.97-1.77-7.22-4.28-9.75-7.55l9-10.8c3.8,5.13,8.13,7.7,13,7.7,6.6,0,9.9-3.87,9.9-11.6V14.2h-24.6V1.2h40.7V46.6c0,8.6-2.13,15.05-6.4,19.35-4.27,4.3-10.53,6.45-18.8,6.45-4.73,0-9.08-.88-13.05-2.65Z"/><path class="d" d="M604.64,58.2v13h-54.2V1.2h52.9V14.2h-36.8v15.2h32.5v12.6h-32.5v16.2h38.1Z"/><path class="d" d="M662.14,71.2l-13.5-19.5h-14.9v19.5h-16.2V1.2h30.3c6.2,0,11.58,1.03,16.15,3.1,4.57,2.07,8.08,5,10.55,8.8,2.47,3.8,3.7,8.3,3.7,13.5s-1.25,9.68-3.75,13.45c-2.5,3.77-6.05,6.65-10.65,8.65l15.7,22.5h-17.4Zm-4.1-53.65c-2.53-2.1-6.23-3.15-11.1-3.15h-13.2v24.4h13.2c4.87,0,8.57-1.07,11.1-3.2,2.53-2.13,3.8-5.13,3.8-9s-1.27-6.95-3.8-9.05Z"/><path class="d" d="M745.24,58.2v13h-54.2V1.2h52.9V14.2h-36.8v15.2h32.5v12.6h-32.5v16.2h38.1Z"/><path class="d" d="M765.09,70.15c-5.17-1.5-9.32-3.45-12.45-5.85l5.5-12.2c3,2.2,6.57,3.97,10.7,5.3,4.13,1.33,8.27,2,12.4,2,4.6,0,8-.68,10.2-2.05,2.2-1.37,3.3-3.18,3.3-5.45,0-1.67-.65-3.05-1.95-4.15-1.3-1.1-2.97-1.98-5-2.65-2.03-.67-4.78-1.4-8.25-2.2-5.33-1.27-9.7-2.53-13.1-3.8-3.4-1.27-6.32-3.3-8.75-6.1-2.43-2.8-3.65-6.53-3.65-11.2,0-4.07,1.1-7.75,3.3-11.05,2.2-3.3,5.52-5.92,9.95-7.85,4.43-1.93,9.85-2.9,16.25-2.9,4.47,0,8.83,.53,13.1,1.6,4.27,1.07,8,2.6,11.2,4.6l-5,12.3c-6.47-3.67-12.93-5.5-19.4-5.5-4.53,0-7.88,.73-10.05,2.2-2.17,1.47-3.25,3.4-3.25,5.8s1.25,4.18,3.75,5.35c2.5,1.17,6.32,2.32,11.45,3.45,5.33,1.27,9.7,2.53,13.1,3.8,3.4,1.27,6.32,3.27,8.75,6,2.43,2.73,3.65,6.43,3.65,11.1,0,4-1.12,7.65-3.35,10.95-2.23,3.3-5.58,5.92-10.05,7.85-4.47,1.93-9.9,2.9-16.3,2.9-5.53,0-10.88-.75-16.05-2.25Z"/><path class="d" d="M239.47,202.88c-4.23,0-7.55-2.08-9.96-6.25-1.43-3.45-2.15-7-2.15-10.64,0-1.69,.1-3.35,.29-4.98,.59-5.6,1.72-11.07,3.42-16.41,0-.13,.1-.36,.29-.68,.13-.45,.29-.94,.49-1.46,.2-.52,.29-.94,.29-1.27v-.2c-6.51,6.32-12.63,13.51-18.36,21.58-2.02,2.73-3.97,5.31-5.86,7.71-1.56,1.89-3.29,2.83-5.18,2.83-1.24,0-2.51-.39-3.81-1.17-1.89-1.04-2.93-2.64-3.12-4.79l-.1-2.25c0-2.93,.33-5.83,.98-8.69,.06-.26,.13-.55,.2-.88,0-.13,.1-.57,.29-1.32,.2-.75,.42-1.61,.68-2.59,.2-.98,.39-1.87,.59-2.69,.2-.81,.33-1.35,.39-1.61-3.84,3.78-7.83,9-11.96,15.67-4.13,6.67-7.44,12.42-9.91,17.24-.59,1.17-1.5,1.89-2.73,2.15l-1.66,.2c-.85,0-1.69-.16-2.54-.49-2.34-.65-3.52-1.95-3.52-3.91,0-.59,.1-1.24,.29-1.95,.65-2.93,2.21-8.19,4.69-15.77,2.47-7.58,5.31-14.81,8.5-21.68,3.19-6.87,6.15-10.69,8.89-11.47,1.82,.13,3.29,.78,4.39,1.95,1.11,1.17,1.66,2.57,1.66,4.2,0,.59-.07,1.21-.2,1.86-.85,2.8-1.86,5.5-3.03,8.11-.65,1.43-1.24,2.87-1.76,4.3l-.2,.68,.1,.2,1.66-1.56c2.02-2.02,4.2-3.81,6.54-5.37,1.11-.72,2.28-1.07,3.52-1.07,1.89,0,3.66,.7,5.32,2.1,1.66,1.4,2.49,3.11,2.49,5.13v.1c0,1.5-.13,2.98-.39,4.44-.26,1.46-.55,2.91-.88,4.35-.07,.13-.1,.23-.1,.29-.07,.13-.1,.29-.1,.49s-.03,.39-.1,.59c.59-.39,1.01-.81,1.27-1.27l.49-.49c6.12-7.55,12.89-14.49,20.31-20.8l.98-.78c.91-.78,1.89-1.46,2.93-2.05,.98-.52,1.95-.78,2.93-.78,1.56,0,2.98,.57,4.25,1.71,1.27,1.14,1.9,2.62,1.9,4.44,0,1.56-.16,3.09-.49,4.59-.33,1.5-.68,3-1.07,4.49l-.39,1.56c-.13,.46-.26,.94-.39,1.46-1.37,4.56-2.38,9.21-3.03,13.96-.2,1.43-.29,2.83-.29,4.2,0,2.21,.39,4.43,1.17,6.64,.65,1.43,1.53,2.15,2.64,2.15,2.15,0,4.82-1.99,8.01-5.96,3.19-3.97,6.3-8.36,9.33-13.18,3.03-4.82,5.45-8.79,7.28-11.91,.98-1.76,1.63-2.86,1.95-3.32,.91-1.17,1.79-1.76,2.64-1.76,.72,0,1.43,.46,2.15,1.37,.26,.39,.39,.75,.39,1.07,0,.39-.1,.75-.29,1.07-1.95,3.12-3.71,6.05-5.27,8.79-2.41,4.17-4.92,8.2-7.52,12.11-2.6,3.91-5.96,8.11-10.06,12.6-1.95,2.34-4.43,3.94-7.42,4.79-.91,.2-1.82,.29-2.73,.29Z"/><path class="d" d="M288.59,176.22l-.39,.78c-.33,.59-.62,1.17-.88,1.76-2.67,5.92-5.76,11.59-9.28,16.99-1.04,1.63-2.29,2.95-3.76,3.96-1.46,1.01-3.24,1.51-5.32,1.51-3.19,0-5.6-1.33-7.23-4-1.5-2.67-2.28-5.5-2.34-8.5v-1.17c0-3.32,.47-7.23,1.42-11.72,.94-4.49,2.39-8.85,4.35-13.09,1.95-4.23,4.38-7.75,7.28-10.55,2.9-2.8,6.33-4.2,10.3-4.2,1.24,0,2.54,.16,3.91,.49,3.12,.65,5.7,2.34,7.71,5.08l.68-1.37c.59-1.24,1.2-2.44,1.86-3.61,.46-1.04,1.11-1.56,1.95-1.56,.39,0,.85,.1,1.37,.29,.91,.39,1.72,.88,2.44,1.46,.78,.65,1.17,1.4,1.17,2.25,0,.46-.1,.91-.29,1.37-1.95,4.56-3.66,9.8-5.13,15.72-1.46,5.92-2.2,11.69-2.2,17.29,0,3.45,.36,6.64,1.07,9.57,.39,1.3,1.01,1.95,1.86,1.95,1.63,0,3.89-1.79,6.79-5.37,2.9-3.58,5.86-7.67,8.89-12.26s5.62-8.64,7.76-12.16c1.37-2.21,2.38-3.81,3.03-4.79,.78-.85,1.66-1.27,2.64-1.27,.91,0,1.79,.33,2.64,.98,.26,.26,.39,.52,.39,.78,0,.2-.05,.39-.15,.59s-.21,.39-.34,.59l-4.49,6.64c-1.56,2.28-3.09,4.53-4.59,6.74-4.04,6.12-8.27,12.08-12.7,17.87-2.6,3.71-6.19,5.89-10.74,6.54h-.98c-2.67,0-4.66-1.27-5.96-3.81-1.24-3.12-1.99-6.31-2.25-9.57-.2-2.54-.33-5.08-.39-7.62,0-1.5-.03-3.03-.1-4.59Zm-20.21,12.7c0,1.04,.03,2.1,.1,3.17,.06,1.07,.26,2.1,.59,3.08,.13,.39,.2,.75,.2,1.07,0,.26,.03,.49,.1,.68,.06,.2,.26,.33,.59,.39h.1c.78,0,2.16-1.86,4.15-5.57,1.99-3.71,4.1-8.02,6.35-12.94,2.25-4.92,4.26-9.44,6.05-13.57,1.79-4.13,2.91-6.82,3.37-8.06,.13-.39,.2-.81,.2-1.27,0-.85-.29-1.63-.88-2.34-.59-.72-1.33-1.07-2.25-1.07h-.1c-2.21,.2-4.17,1.01-5.86,2.44-2.6,2.02-4.59,4.53-5.96,7.52-4.04,8.33-6.28,17.16-6.74,26.46Zm21.19-50.2c-1.24,0-2.38-.45-3.42-1.37-.46-.52-.68-1.01-.68-1.46s.16-.88,.49-1.27c1.95-2.41,3.74-4.88,5.37-7.42,1.37-1.82,2.93-2.8,4.69-2.93,2.67,0,4,.85,4,2.54,0,.65-.23,1.37-.68,2.15-1.82,3.12-4.04,5.99-6.64,8.59-.91,.78-1.95,1.17-3.12,1.17Z"/><path class="d" d="M334.1,222.61c-1.04,0-2.08-.1-3.12-.29-5.01-1.3-7.52-4.1-7.52-8.4,0-.78,.1-1.59,.29-2.44,1.56-5.73,4.2-10.9,7.91-15.53,1.82-2.54,3.87-5.08,6.15-7.62,.39-.45,.81-.91,1.27-1.37-1.82,.26-3.58,.46-5.27,.59-1.04,.07-2.05,.16-3.03,.29-.33,0-.68,.03-1.07,.1-1.11,.07-2.18,.1-3.22,.1-1.69,0-3.38-.26-5.08-.78-3.91-1.56-5.86-4.04-5.86-7.42,0-.98,.2-2.05,.59-3.22,.65-1.82,1.95-4.36,3.91-7.62,1.95-3.25,4.26-6.61,6.93-10.06,2.67-3.45,5.44-6.4,8.3-8.84,2.86-2.44,5.4-3.66,7.62-3.66,.98,0,1.89,.29,2.73,.88,1.76,1.3,2.64,2.96,2.64,4.98,0,.46-.03,.91-.1,1.37v.1c-.07,.59-.21,1.16-.44,1.71-.23,.55-.63,.93-1.22,1.12l-.88,.2c-1.04,0-1.89-.52-2.54-1.56-.39-.52-.75-.78-1.07-.78s-.68,.26-1.07,.78c-6.58,7.16-12.01,15.04-16.31,23.63-.06,.2-.1,.36-.1,.49,0,.59,.5,.96,1.51,1.12,1.01,.16,2.29,.24,3.86,.24l5.08-.1c2.8,0,5.47,.23,8.01,.68,.26,.07,.52,.1,.78,.1,.59,0,1.14-.26,1.66-.78,5.34-5.53,11.07-10.61,17.19-15.23,2.99-2.21,6.15-4.07,9.47-5.57,.52-.2,1.04-.29,1.56-.29,.85,0,1.63,.26,2.34,.78,.72,.52,1.2,1.21,1.46,2.05l.1,.78c0,.65-.36,1.17-1.07,1.56-4.3,2.08-8.24,4.62-11.82,7.62-3.58,3-7.06,6.12-10.45,9.38-.72,.59-1.4,1.21-2.05,1.86-.46,.39-.68,.72-.68,.98,0,.33,.23,.68,.68,1.07,3.25,2.87,4.88,6.19,4.88,9.96,0,1.37-.2,2.8-.59,4.3-2.02,7.94-6.32,14.39-12.89,19.34-2.87,2.28-6.02,3.42-9.47,3.42Zm-2.34-5.66c.46,0,1.07-.16,1.86-.49,1.56-.59,3.03-1.43,4.39-2.54,6.38-5.4,10.22-12.27,11.52-20.61l.1-1.07c0-1.24-.46-2.38-1.37-3.42-.26-.26-.49-.39-.68-.39s-.42,.13-.68,.39l-1.56,1.56c-4.36,4.3-8.2,9.05-11.52,14.26-1.89,3-3.03,5.92-3.42,8.79v.98c0,1.69,.46,2.54,1.37,2.54Z"/><path class="d" d="M416.62,245.46c-2.34,0-4.2-1.14-5.57-3.42-2.21-4.43-3.32-10.35-3.32-17.77,0-8.98,1.25-19.4,3.76-31.25,2.51-11.85,5.66-23.7,9.47-35.55,3.81-11.85,7.78-22.56,11.91-32.13,4.13-9.57,7.89-16.76,11.28-21.58,.65-1.04,1.56-1.56,2.73-1.56l.88,.1c1.17,.26,2.28,.72,3.32,1.37,1.63,.85,2.44,1.86,2.44,3.03,0,.72-.29,1.6-.88,2.64-8.92,16.41-16.24,33.56-21.97,51.46,.06,0,.23,.03,.49,.1,.52,.2,2.47,.59,5.86,1.17,3.12,.52,6.22,.78,9.28,.78,3.91,0,7.81-.59,11.72-1.76,.52-.2,1.04-.29,1.56-.29,.59,0,1.2,.1,1.86,.29,.39,.07,.73,.16,1.03,.29,.29,.13,.47,.39,.54,.78v.29c0,.33-.11,.55-.34,.68-.23,.13-.5,.26-.83,.39h-.1c-2.34,.85-4.75,1.43-7.23,1.76-2.6,.39-5.24,.59-7.91,.59s-5.24-.16-7.91-.49h-1.27c1.37,2.73,2.41,5.57,3.12,8.5,.72,3.91,1.07,7.78,1.07,11.62,0,2.48-.1,4.95-.29,7.42-.52,7.29-1.82,14.37-3.91,21.24-2.08,6.87-4.69,13.59-7.81,20.17-1.04,2.15-2.28,4.2-3.71,6.15-2.02,2.47-4.56,4.07-7.62,4.79-.59,.13-1.14,.2-1.66,.2Zm3.22-5.08c.26,0,.59-.33,.98-.98,.2-.26,.36-.52,.49-.78,.72-1.17,1.37-2.34,1.95-3.52,3.71-7.81,6.61-15.84,8.69-24.07,2.08-8.24,3.12-16.68,3.12-25.34v-2.73c-.07-3.45-.47-6.8-1.22-10.06-.75-3.25-2.1-6.35-4.05-9.28l-.29,.59c-4.69,14-8.24,28.32-10.64,42.97-1.3,6.84-1.95,13.74-1.95,20.7l.1,3.12v.39c0,2.73,.62,5.37,1.86,7.91,.33,.72,.65,1.07,.98,1.07Z"/><path class="d" d="M467.01,202.39c-5.73,0-9.93-2.9-12.6-8.69-1.24-3.45-1.86-7-1.86-10.64l.2-4c.91-10.16,4.85-19.01,11.82-26.56,2.02-2.21,4.52-3.91,7.52-5.08,.78-.26,1.63-.39,2.54-.39,2.21,0,4.31,.81,6.3,2.44,1.99,1.63,2.98,3.74,2.98,6.35-.39,4.04-1.86,7.39-4.39,10.06-2.54,2.67-5.92,4.17-10.16,4.49l-.88,.1c-.59,0-1.92-.39-4-1.17-.46,0-.75,.33-.88,.98-1.89,4.82-2.83,9.02-2.83,12.6,0,4.82,.52,8.5,1.56,11.04,.46,.98,1.01,1.92,1.66,2.83,1.17,.72,2.25,1.07,3.22,1.07,2.8,0,6.01-1.55,9.62-4.64,3.61-3.09,7.24-6.67,10.89-10.74,3.65-4.07,6.9-7.91,9.77-11.52,2.86-3.61,4.92-6.14,6.15-7.57,1.3-1.63,2.51-2.44,3.61-2.44,1.04,0,1.56,.55,1.56,1.66,0,.85-.52,2.08-1.56,3.71-7.42,11.07-16.54,21.32-27.34,30.76-3.91,3.58-8.2,5.37-12.89,5.37Zm-.49-36.33c3.91,0,6.97-1.99,9.18-5.96,1.3-2.28,1.95-4.59,1.95-6.93-.07-.72-.26-1.07-.59-1.07-1.69,.26-3.29,1.24-4.79,2.93-2.73,2.6-5.01,5.57-6.84,8.89-.46,.78-.68,1.3-.68,1.56,0,.39,.59,.59,1.76,.59Z"/><path class="d" d="M505.97,244.58h-.68c-3.58,0-6.12-2.2-7.62-6.59-1.5-4.39-2.25-10.24-2.25-17.53,0-10.02,1.11-21.81,3.32-35.35,2.21-13.54,4.85-26.97,7.91-40.28,3.06-13.31,6.01-24.95,8.84-34.91s5-16.67,6.49-20.12c.46-1.3,1.04-2.51,1.76-3.61,.52-.85,1.24-1.27,2.15-1.27l.68,.1c1.63,.39,3.06,1.3,4.3,2.73,.98,.91,1.46,1.86,1.46,2.83,0,.72-.26,1.56-.78,2.54-2.41,5.6-5.75,17.47-10.01,35.6-4.26,18.13-8.24,37.35-11.91,57.67-3.68,20.31-5.52,35.45-5.52,45.41v.59c0,5.6,.85,8.4,2.54,8.4,.72,0,1.56-.52,2.54-1.56,1.56-1.69,2.86-3.58,3.91-5.66,4.69-8.79,8.92-17.87,12.7-27.25,5.34-12.83,10.35-25.78,15.04-38.87,.2-.52,.39-1.07,.59-1.66,.33-.65,.59-1.3,.78-1.95,.06-.13,.13-.29,.2-.49,.33-.72,.8-1.28,1.42-1.71,.62-.42,1.29-.63,2-.63,.65,0,1.27,.23,1.86,.68,.39,.26,.59,.59,.59,.98,0,.26-.07,.52-.2,.78-.07,.13-.1,.23-.1,.29-1.43,3.78-2.83,7.55-4.2,11.33-.46,1.37-.94,2.73-1.46,4.1-6.32,17.64-13.48,34.8-21.48,51.46-1.63,3.45-3.65,6.58-6.05,9.38-2.47,2.8-5.4,4.33-8.79,4.59Z"/><path class="d" d="M548.55,202.39h-.78c-2.73,0-4.98-1.11-6.74-3.32-1.37-1.82-2.33-3.94-2.88-6.35-.55-2.41-.83-4.95-.83-7.62,0-6.18,1.06-12.58,3.17-19.19,2.12-6.61,4.31-12.09,6.59-16.46,.78-1.82,1.76-2.73,2.93-2.73,.59,0,1.2,.16,1.86,.49,1.17,.52,2.16,1.17,2.98,1.95,.81,.78,1.22,1.73,1.22,2.83,0,.46-.1,.94-.29,1.46-.33,.91-.72,1.92-1.17,3.03-1.69,4.3-3.42,9.25-5.18,14.84-1.76,5.6-2.64,10.94-2.64,16.02,0,3.32,.59,6.32,1.76,8.98,.33,.59,.78,.88,1.37,.88,1.69,0,4.25-1.99,7.67-5.96,3.42-3.97,6.87-8.4,10.35-13.28,3.48-4.88,6.3-8.98,8.45-12.3,1.24-1.82,2.08-3.03,2.54-3.61,.78-.78,1.76-1.17,2.93-1.17,1.24,0,2.28,.42,3.12,1.27,.13,.26,.2,.49,.2,.68,0,.33-.1,.62-.29,.88-1.11,1.56-2.28,3.22-3.52,4.98-6.38,9.31-12.89,18-19.53,26.07-1.76,2.02-3.71,3.73-5.86,5.13-2.15,1.4-4.62,2.23-7.42,2.49Zm9.08-62.21l-.68-.1c-.72-.2-1.37-.42-1.95-.68-.98-.39-1.46-.98-1.46-1.76,0-.33,.06-.75,.2-1.27l2.34-7.52c.39-1.17,1.04-1.76,1.95-1.76h.49c1.11,.2,2.02,.49,2.73,.88,1.11,.52,1.66,1.17,1.66,1.95,0,.46-.13,1.01-.39,1.66l-2.93,7.03c-.39,1.04-1.04,1.56-1.95,1.56Z"/><path class="d" d="M588.49,202.29c-2.6,0-4.93-.57-6.98-1.71-2.05-1.14-3.76-2.91-5.13-5.32-2.21-4.3-3.32-8.85-3.32-13.67,0-4.43,.77-8.8,2.29-13.13,1.53-4.33,3.53-8.19,6.01-11.57,3.58-4.95,8.3-8.04,14.16-9.28,.85-.2,1.76-.29,2.73-.29,2.34,0,4.59,.65,6.74,1.95,2.15,1.3,3.52,3.35,4.1,6.15,.26,1.11,.39,2.18,.39,3.22,0,1.95-.55,3.78-1.66,5.47-.33,.46-.81,.81-1.46,1.07-.65,.26-1.33,.39-2.05,.39-1.11,0-2.05-.33-2.83-.98-.2-.26-.29-.52-.29-.78,0-.39,.1-.75,.29-1.07,.06-.06,.1-.13,.1-.2,.78-1.5,1.17-2.99,1.17-4.49,0-1.63-.39-3.29-1.17-4.98-.26-.52-.49-.91-.68-1.17-.2-.26-.42-.39-.68-.39-.39,0-.91,.16-1.56,.49-2.73,1.11-5.11,2.77-7.13,4.98-6.32,7.42-9.7,15.27-10.16,23.54,0,4.95,.72,8.76,2.15,11.43,1.04,2.08,2.25,3.52,3.61,4.3s2.83,1.17,4.39,1.17c3.19-.39,6.59-2.1,10.21-5.13s7.16-6.53,10.64-10.5c3.48-3.97,6.56-7.65,9.23-11.04,2.67-3.38,4.59-6.05,5.76-8.01,1.11-1.3,2.21-1.95,3.32-1.95,.59,0,1.07,.15,1.46,.44s.59,.73,.59,1.32c0,.65-.29,1.43-.88,2.34-2.67,4.17-5.57,8.14-8.69,11.91-5.27,6.71-11.1,12.89-17.48,18.55-4.36,3.97-9.54,6.25-15.53,6.84l-1.66,.1Z"/><path class="d" d="M636.44,202.39c-5.73,0-9.93-2.9-12.6-8.69-1.24-3.45-1.86-7-1.86-10.64l.2-4c.91-10.16,4.85-19.01,11.82-26.56,2.02-2.21,4.52-3.91,7.52-5.08,.78-.26,1.63-.39,2.54-.39,2.21,0,4.31,.81,6.3,2.44,1.99,1.63,2.98,3.74,2.98,6.35-.39,4.04-1.86,7.39-4.39,10.06-2.54,2.67-5.92,4.17-10.16,4.49l-.88,.1c-.59,0-1.92-.39-4-1.17-.46,0-.75,.33-.88,.98-1.89,4.82-2.83,9.02-2.83,12.6,0,4.82,.52,8.5,1.56,11.04,.46,.98,1.01,1.92,1.66,2.83,1.17,.72,2.25,1.07,3.22,1.07,2.8,0,6.01-1.55,9.62-4.64,3.61-3.09,7.24-6.67,10.89-10.74,3.65-4.07,6.9-7.91,9.77-11.52,2.86-3.61,4.92-6.14,6.15-7.57,1.3-1.63,2.51-2.44,3.61-2.44,1.04,0,1.56,.55,1.56,1.66,0,.85-.52,2.08-1.56,3.71-7.42,11.07-16.54,21.32-27.34,30.76-3.91,3.58-8.2,5.37-12.89,5.37Zm-.49-36.33c3.91,0,6.97-1.99,9.18-5.96,1.3-2.28,1.95-4.59,1.95-6.93-.07-.72-.26-1.07-.59-1.07-1.69,.26-3.29,1.24-4.79,2.93-2.73,2.6-5.01,5.57-6.84,8.89-.46,.78-.68,1.3-.68,1.56,0,.39,.59,.59,1.76,.59Z"/><path class="d" d="M681.95,222.61c-1.04,0-2.08-.1-3.12-.29-5.01-1.3-7.52-4.1-7.52-8.4,0-.78,.1-1.59,.29-2.44,1.56-5.73,4.2-10.9,7.91-15.53,1.82-2.54,3.87-5.08,6.15-7.62,.39-.45,.81-.91,1.27-1.37-1.82,.26-3.58,.46-5.27,.59-1.04,.07-2.05,.16-3.03,.29-.33,0-.68,.03-1.07,.1-1.11,.07-2.18,.1-3.22,.1-1.69,0-3.38-.26-5.08-.78-3.91-1.56-5.86-4.04-5.86-7.42,0-.98,.2-2.05,.59-3.22,.65-1.82,1.95-4.36,3.91-7.62,1.95-3.25,4.26-6.61,6.93-10.06,2.67-3.45,5.44-6.4,8.3-8.84,2.86-2.44,5.4-3.66,7.62-3.66,.98,0,1.89,.29,2.73,.88,1.76,1.3,2.64,2.96,2.64,4.98,0,.46-.03,.91-.1,1.37v.1c-.07,.59-.21,1.16-.44,1.71-.23,.55-.63,.93-1.22,1.12l-.88,.2c-1.04,0-1.89-.52-2.54-1.56-.39-.52-.75-.78-1.07-.78s-.68,.26-1.07,.78c-6.58,7.16-12.01,15.04-16.31,23.63-.06,.2-.1,.36-.1,.49,0,.59,.5,.96,1.51,1.12,1.01,.16,2.29,.24,3.86,.24l5.08-.1c2.8,0,5.47,.23,8.01,.68,.26,.07,.52,.1,.78,.1,.59,0,1.14-.26,1.66-.78,5.34-5.53,11.07-10.61,17.19-15.23,2.99-2.21,6.15-4.07,9.47-5.57,.52-.2,1.04-.29,1.56-.29,.85,0,1.63,.26,2.34,.78,.72,.52,1.2,1.21,1.46,2.05l.1,.78c0,.65-.36,1.17-1.07,1.56-4.3,2.08-8.24,4.62-11.82,7.62-3.58,3-7.06,6.12-10.45,9.38-.72,.59-1.4,1.21-2.05,1.86-.46,.39-.68,.72-.68,.98,0,.33,.23,.68,.68,1.07,3.25,2.87,4.88,6.19,4.88,9.96,0,1.37-.2,2.8-.59,4.3-2.02,7.94-6.32,14.39-12.89,19.34-2.87,2.28-6.02,3.42-9.47,3.42Zm-2.34-5.66c.46,0,1.07-.16,1.86-.49,1.56-.59,3.03-1.43,4.39-2.54,6.38-5.4,10.22-12.27,11.52-20.61l.1-1.07c0-1.24-.46-2.38-1.37-3.42-.26-.26-.49-.39-.68-.39s-.42,.13-.68,.39l-1.56,1.56c-4.36,4.3-8.2,9.05-11.52,14.26-1.89,3-3.03,5.92-3.42,8.79v.98c0,1.69,.46,2.54,1.37,2.54Z"/><path class="d" d="M12.6,325.87l-1.37-.2c-2.02-.52-3.03-1.53-3.03-3.03v-.49c.39-2.02,.78-4.13,1.17-6.35l.2-.98c-.59,.59-1.14,1.11-1.66,1.56l-1.95,1.95c-.52,.65-1.17,.98-1.95,.98l-.98-.2c-1.5-.45-2.51-1.37-3.03-2.73v-.39c0-.72,.29-1.3,.88-1.76,.98-.91,1.92-1.82,2.83-2.73,1.89-1.89,3.81-3.74,5.76-5.57,.39-.39,.59-.75,.59-1.07,0-.26-.1-.55-.29-.88-.78-1.3-1.5-2.6-2.15-3.91-1.11-2.21-2.38-4.33-3.81-6.35-.46-.59-.68-1.17-.68-1.76,0-.39,.13-.75,.39-1.07,.39-.39,.81-.59,1.27-.59,.52,0,1.04,.13,1.56,.39,1.5,.72,2.7,1.82,3.61,3.32l3.12,4.79c.13-.65,.26-1.27,.39-1.86,.33-1.3,.65-2.57,.98-3.81,.06-.13,.1-.29,.1-.49,.26-.78,.55-1.5,.88-2.15,.46-1.04,.88-1.77,1.27-2.2,.39-.42,.91-.63,1.56-.63l.88,.1c2.54,.65,3.81,2.15,3.81,4.49l-.1,.78,.2,.68c2.47-1.95,4.98-3.77,7.52-5.47,.72-.52,1.4-.78,2.05-.78,.85,0,1.63,.49,2.34,1.46,.59,.72,.88,1.37,.88,1.95,0,.72-.49,1.4-1.46,2.05-4.88,3.39-9.47,7.13-13.77,11.23-1.04,1.24-1.56,2.67-1.56,4.3,0,.91,.2,1.73,.59,2.44,1.5,2.8,3.29,5.4,5.37,7.81,.26,.26,.49,.55,.68,.88,.2,.33,.29,.65,.29,.98s-.13,.65-.39,.98c-.39,.46-.85,.68-1.37,.68s-1.04-.13-1.56-.39c-1.56-.65-2.87-1.69-3.91-3.12-.13-.2-.26-.36-.39-.49l-1.37-1.76-1.95,7.23c-.26,1.43-1.07,2.15-2.44,2.15Z"/><path class="d" d="M85.83,339.55c-4.9-1.63-8.75-3.75-11.55-6.35l3.7-7.8c2.67,2.4,6.08,4.35,10.25,5.85,4.17,1.5,8.45,2.25,12.85,2.25,5.8,0,10.13-.98,13-2.95,2.87-1.97,4.3-4.58,4.3-7.85,0-2.4-.78-4.35-2.35-5.85s-3.5-2.65-5.8-3.45c-2.3-.8-5.55-1.7-9.75-2.7-5.27-1.27-9.52-2.53-12.75-3.8-3.23-1.27-6-3.22-8.3-5.85-2.3-2.63-3.45-6.18-3.45-10.65,0-3.73,.98-7.1,2.95-10.1,1.97-3,4.95-5.4,8.95-7.2,4-1.8,8.97-2.7,14.9-2.7,4.13,0,8.2,.53,12.2,1.6,4,1.07,7.43,2.6,10.3,4.6l-3.3,8c-2.93-1.87-6.07-3.28-9.4-4.25-3.33-.97-6.6-1.45-9.8-1.45-5.67,0-9.92,1.03-12.75,3.1-2.83,2.07-4.25,4.73-4.25,8,0,2.4,.8,4.35,2.4,5.85s3.58,2.67,5.95,3.5c2.37,.83,5.58,1.72,9.65,2.65,5.27,1.27,9.5,2.53,12.7,3.8,3.2,1.27,5.95,3.2,8.25,5.8s3.45,6.1,3.45,10.5c0,3.67-1,7.02-3,10.05-2,3.03-5.03,5.43-9.1,7.2-4.07,1.77-9.07,2.65-15,2.65-5.27,0-10.35-.82-15.25-2.45Z"/><path class="d" d="M142.78,271.2h10v70h-10v-70Z"/><path class="d" d="M224.58,332.5v8.7h-50.8v-70h49.4v8.7h-39.4v21.5h35.1v8.5h-35.1v22.6h40.8Z"/><path class="d" d="M305.68,341.2l-.1-51-25.3,42.5h-4.6l-25.3-42.2v50.7h-9.6v-70h8.2l29.2,49.2,28.8-49.2h8.2l.1,70h-9.6Z"/><path class="d" d="M384.98,277.7c5.2,4.33,7.8,10.3,7.8,17.9s-2.6,13.57-7.8,17.9c-5.2,4.33-12.33,6.5-21.4,6.5h-17.3v21.2h-10v-70h27.3c9.07,0,16.2,2.17,21.4,6.5Zm-7.2,29.55c3.33-2.7,5-6.58,5-11.65s-1.67-8.95-5-11.65c-3.33-2.7-8.17-4.05-14.5-4.05h-17v31.4h17c6.33,0,11.17-1.35,14.5-4.05Z"/><path class="d" d="M454.28,341.2l-15.1-21.5c-1.87,.13-3.33,.2-4.4,.2h-17.3v21.3h-10v-70h27.3c9.07,0,16.2,2.17,21.4,6.5,5.2,4.33,7.8,10.3,7.8,17.9,0,5.4-1.33,10-4,13.8-2.67,3.8-6.47,6.57-11.4,8.3l16.6,23.5h-10.9Zm-5.3-33.9c3.33-2.73,5-6.63,5-11.7s-1.67-8.95-5-11.65c-3.33-2.7-8.17-4.05-14.5-4.05h-17v31.5h17c6.33,0,11.17-1.37,14.5-4.1Z"/><path class="d" d="M530.98,332.5v8.7h-50.8v-70h49.4v8.7h-39.4v21.5h35.1v8.5h-35.1v22.6h40.8Z"/><path class="d" d="M587.98,279.9h-24v-8.7h57.9v8.7h-24v61.3h-9.9v-61.3Z"/><path class="d" d="M679.58,341.2l-15.1-21.5c-1.87,.13-3.33,.2-4.4,.2h-17.3v21.3h-10v-70h27.3c9.07,0,16.2,2.17,21.4,6.5,5.2,4.33,7.8,10.3,7.8,17.9,0,5.4-1.33,10-4,13.8-2.67,3.8-6.47,6.57-11.4,8.3l16.6,23.5h-10.9Zm-5.3-33.9c3.33-2.73,5-6.63,5-11.7s-1.67-8.95-5-11.65c-3.33-2.7-8.17-4.05-14.5-4.05h-17v31.5h17c6.33,0,11.17-1.37,14.5-4.1Z"/><path class="d" d="M750.08,323.7h-37.2l-7.7,17.5h-10.3l31.7-70h9.9l31.8,70h-10.5l-7.7-17.5Zm-3.5-8l-15.1-34.3-15.1,34.3h30.2Z"/><path class="d" d="M829.48,332.5v8.7h-50.8v-70h49.4v8.7h-39.4v21.5h35.1v8.5h-35.1v22.6h40.8Z"/><path class="d" d="M905.88,271.2v70h-8.2l-42-52.2v52.2h-10v-70h8.2l42,52.2v-52.2h10Z"/><path class="d" d="M200.6,391.2h10v61.3h37.9v8.7h-47.9v-70Z"/><path class="d" d="M304.9,443.7h-37.2l-7.7,17.5h-10.3l31.7-70h9.9l31.8,70h-10.5l-7.7-17.5Zm-3.5-8l-15.1-34.3-15.1,34.3h30.2Z"/><path class="d" d="M338.65,459.55c-4.9-1.63-8.75-3.75-11.55-6.35l3.7-7.8c2.67,2.4,6.08,4.35,10.25,5.85,4.17,1.5,8.45,2.25,12.85,2.25,5.8,0,10.13-.98,13-2.95,2.87-1.97,4.3-4.58,4.3-7.85,0-2.4-.78-4.35-2.35-5.85s-3.5-2.65-5.8-3.45c-2.3-.8-5.55-1.7-9.75-2.7-5.27-1.27-9.52-2.53-12.75-3.8-3.23-1.27-6-3.22-8.3-5.85-2.3-2.63-3.45-6.18-3.45-10.65,0-3.73,.98-7.1,2.95-10.1,1.97-3,4.95-5.4,8.95-7.2,4-1.8,8.97-2.7,14.9-2.7,4.13,0,8.2,.53,12.2,1.6,4,1.07,7.43,2.6,10.3,4.6l-3.3,8c-2.93-1.87-6.07-3.28-9.4-4.25-3.33-.97-6.6-1.45-9.8-1.45-5.67,0-9.92,1.03-12.75,3.1-2.83,2.07-4.25,4.73-4.25,8,0,2.4,.8,4.35,2.4,5.85s3.58,2.67,5.95,3.5c2.37,.83,5.58,1.72,9.65,2.65,5.27,1.27,9.5,2.53,12.7,3.8,3.2,1.27,5.95,3.2,8.25,5.8s3.45,6.1,3.45,10.5c0,3.67-1,7.02-3,10.05-2,3.03-5.03,5.43-9.1,7.2-4.07,1.77-9.07,2.65-15,2.65-5.27,0-10.35-.82-15.25-2.45Z"/><path class="d" d="M429.7,454c-5.2-5.33-7.8-13-7.8-23v-39.8h10v39.4c0,15,6.57,22.5,19.7,22.5,6.4,0,11.3-1.85,14.7-5.55,3.4-3.7,5.1-9.35,5.1-16.95v-39.4h9.7v39.8c0,10.07-2.6,17.75-7.8,23.05-5.2,5.3-12.47,7.95-21.8,7.95s-16.6-2.67-21.8-8Z"/><path class="d" d="M561.79,391.2v70h-8.2l-42-52.2v52.2h-10v-70h8.2l42,52.2v-52.2h10Zm-27.35-7c-1.17-.67-2.62-1.67-4.35-3-1-.93-1.87-1.62-2.6-2.05-.73-.43-1.47-.65-2.2-.65-1.47,0-2.67,.55-3.6,1.65-.93,1.1-1.43,2.62-1.5,4.55h-5.4c.13-3.73,1.08-6.7,2.85-8.9,1.77-2.2,4.08-3.3,6.95-3.3,1.6,0,3.02,.35,4.25,1.05,1.23,.7,2.65,1.72,4.25,3.05,1.13,.93,2.03,1.62,2.7,2.05,.67,.43,1.37,.65,2.1,.65,1.47,0,2.67-.53,3.6-1.6,.93-1.07,1.43-2.53,1.5-4.4h5.4c-.13,3.6-1.08,6.48-2.85,8.65-1.77,2.17-4.08,3.25-6.95,3.25-1.6,0-2.98-.33-4.15-1Z"/><path class="d" d="M627.39,443.7h-37.2l-7.7,17.5h-10.3l31.7-70h9.9l31.8,70h-10.5l-7.7-17.5Zm-3.5-8l-15.1-34.3-15.1,34.3h30.2Z"/><path class="d" d="M661.14,459.55c-4.9-1.63-8.75-3.75-11.55-6.35l3.7-7.8c2.67,2.4,6.08,4.35,10.25,5.85,4.17,1.5,8.45,2.25,12.85,2.25,5.8,0,10.13-.98,13-2.95,2.87-1.97,4.3-4.58,4.3-7.85,0-2.4-.78-4.35-2.35-5.85s-3.5-2.65-5.8-3.45c-2.3-.8-5.55-1.7-9.75-2.7-5.27-1.27-9.52-2.53-12.75-3.8-3.23-1.27-6-3.22-8.3-5.85-2.3-2.63-3.45-6.18-3.45-10.65,0-3.73,.98-7.1,2.95-10.1,1.97-3,4.95-5.4,8.95-7.2,4-1.8,8.97-2.7,14.9-2.7,4.13,0,8.2,.53,12.2,1.6,4,1.07,7.43,2.6,10.3,4.6l-3.3,8c-2.93-1.87-6.07-3.28-9.4-4.25-3.33-.97-6.6-1.45-9.8-1.45-5.67,0-9.92,1.03-12.75,3.1-2.83,2.07-4.25,4.73-4.25,8,0,2.4,.8,4.35,2.4,5.85s3.58,2.67,5.95,3.5c2.37,.83,5.58,1.72,9.65,2.65,5.27,1.27,9.5,2.53,12.7,3.8,3.2,1.27,5.95,3.2,8.25,5.8s3.45,6.1,3.45,10.5c0,3.67-1,7.02-3,10.05-2,3.03-5.03,5.43-9.1,7.2-4.07,1.77-9.07,2.65-15,2.65-5.27,0-10.35-.82-15.25-2.45Z"/><path class="d" d="M223.6,592.88c-4.23,0-7.55-2.08-9.96-6.25-1.43-3.45-2.15-7-2.15-10.64,0-1.69,.1-3.35,.29-4.98,.59-5.6,1.72-11.07,3.42-16.41,0-.13,.1-.36,.29-.68,.13-.45,.29-.94,.49-1.46,.2-.52,.29-.94,.29-1.27v-.2c-6.51,6.32-12.63,13.51-18.36,21.58-2.02,2.73-3.97,5.31-5.86,7.71-1.56,1.89-3.29,2.83-5.18,2.83-1.24,0-2.51-.39-3.81-1.17-1.89-1.04-2.93-2.64-3.12-4.79l-.1-2.25c0-2.93,.33-5.83,.98-8.69,.06-.26,.13-.55,.2-.88,0-.13,.1-.57,.29-1.32,.2-.75,.42-1.61,.68-2.59,.2-.98,.39-1.87,.59-2.69,.2-.81,.33-1.35,.39-1.61-3.84,3.78-7.83,9-11.96,15.67-4.13,6.67-7.44,12.42-9.91,17.24-.59,1.17-1.5,1.89-2.73,2.15l-1.66,.2c-.85,0-1.69-.16-2.54-.49-2.34-.65-3.52-1.95-3.52-3.91,0-.59,.1-1.24,.29-1.95,.65-2.93,2.21-8.19,4.69-15.77,2.47-7.58,5.31-14.81,8.5-21.68,3.19-6.87,6.15-10.69,8.89-11.47,1.82,.13,3.29,.78,4.39,1.95,1.11,1.17,1.66,2.57,1.66,4.2,0,.59-.07,1.21-.2,1.86-.85,2.8-1.86,5.5-3.03,8.11-.65,1.43-1.24,2.87-1.76,4.3l-.2,.68,.1,.2,1.66-1.56c2.02-2.02,4.2-3.81,6.54-5.37,1.11-.72,2.28-1.07,3.52-1.07,1.89,0,3.66,.7,5.32,2.1,1.66,1.4,2.49,3.11,2.49,5.13v.1c0,1.5-.13,2.98-.39,4.44-.26,1.46-.55,2.91-.88,4.35-.07,.13-.1,.23-.1,.29-.07,.13-.1,.29-.1,.49s-.03,.39-.1,.59c.59-.39,1.01-.81,1.27-1.27l.49-.49c6.12-7.55,12.89-14.49,20.31-20.8l.98-.78c.91-.78,1.89-1.46,2.93-2.05,.98-.52,1.95-.78,2.93-.78,1.56,0,2.98,.57,4.25,1.71,1.27,1.14,1.9,2.62,1.9,4.44,0,1.56-.16,3.09-.49,4.59-.33,1.5-.68,3-1.07,4.49l-.39,1.56c-.13,.46-.26,.94-.39,1.46-1.37,4.56-2.38,9.21-3.03,13.96-.2,1.43-.29,2.83-.29,4.2,0,2.21,.39,4.43,1.17,6.64,.65,1.43,1.53,2.15,2.64,2.15,2.15,0,4.82-1.99,8.01-5.96,3.19-3.97,6.3-8.36,9.33-13.18,3.03-4.82,5.45-8.79,7.28-11.91,.98-1.76,1.63-2.86,1.95-3.32,.91-1.17,1.79-1.76,2.64-1.76,.72,0,1.43,.46,2.15,1.37,.26,.39,.39,.75,.39,1.07,0,.39-.1,.75-.29,1.07-1.95,3.12-3.71,6.05-5.27,8.79-2.41,4.17-4.92,8.2-7.52,12.11-2.6,3.91-5.96,8.11-10.06,12.6-1.95,2.34-4.43,3.94-7.42,4.79-.91,.2-1.82,.29-2.73,.29Z"/><path class="d" d="M272.72,566.22l-.39,.78c-.33,.59-.62,1.17-.88,1.76-2.67,5.92-5.76,11.59-9.28,16.99-1.04,1.63-2.29,2.95-3.76,3.96-1.46,1.01-3.24,1.51-5.32,1.51-3.19,0-5.6-1.33-7.23-4-1.5-2.67-2.28-5.5-2.34-8.5v-1.17c0-3.32,.47-7.23,1.42-11.72,.94-4.49,2.39-8.85,4.35-13.09,1.95-4.23,4.38-7.75,7.28-10.55,2.9-2.8,6.33-4.2,10.3-4.2,1.24,0,2.54,.16,3.91,.49,3.12,.65,5.7,2.34,7.71,5.08l.68-1.37c.59-1.24,1.2-2.44,1.86-3.61,.46-1.04,1.11-1.56,1.95-1.56,.39,0,.85,.1,1.37,.29,.91,.39,1.72,.88,2.44,1.46,.78,.65,1.17,1.4,1.17,2.25,0,.46-.1,.91-.29,1.37-1.95,4.56-3.66,9.8-5.13,15.72-1.46,5.92-2.2,11.69-2.2,17.29,0,3.45,.36,6.64,1.07,9.57,.39,1.3,1.01,1.95,1.86,1.95,1.63,0,3.89-1.79,6.79-5.37,2.9-3.58,5.86-7.67,8.89-12.26s5.62-8.64,7.76-12.16c1.37-2.21,2.38-3.81,3.03-4.79,.78-.85,1.66-1.27,2.64-1.27,.91,0,1.79,.33,2.64,.98,.26,.26,.39,.52,.39,.78,0,.2-.05,.39-.15,.59s-.21,.39-.34,.59l-4.49,6.64c-1.56,2.28-3.09,4.53-4.59,6.74-4.04,6.12-8.27,12.08-12.7,17.87-2.6,3.71-6.19,5.89-10.74,6.54h-.98c-2.67,0-4.66-1.27-5.96-3.81-1.24-3.12-1.99-6.31-2.25-9.57-.2-2.54-.33-5.08-.39-7.62,0-1.5-.03-3.03-.1-4.59Zm-20.21,12.7c0,1.04,.03,2.1,.1,3.17,.06,1.07,.26,2.1,.59,3.08,.13,.39,.2,.75,.2,1.07,0,.26,.03,.49,.1,.68,.06,.2,.26,.33,.59,.39h.1c.78,0,2.16-1.86,4.15-5.57,1.99-3.71,4.1-8.02,6.35-12.94,2.25-4.92,4.26-9.44,6.05-13.57,1.79-4.13,2.91-6.82,3.37-8.06,.13-.39,.2-.81,.2-1.27,0-.85-.29-1.63-.88-2.34-.59-.72-1.33-1.07-2.25-1.07h-.1c-2.21,.2-4.17,1.01-5.86,2.44-2.6,2.02-4.59,4.53-5.96,7.52-4.04,8.33-6.28,17.16-6.74,26.46Zm21.19-50.2c-1.24,0-2.38-.45-3.42-1.37-.46-.52-.68-1.01-.68-1.46s.16-.88,.49-1.27c1.95-2.41,3.74-4.88,5.37-7.42,1.37-1.82,2.93-2.8,4.69-2.93,2.67,0,4,.85,4,2.54,0,.65-.23,1.37-.68,2.15-1.82,3.12-4.04,5.99-6.64,8.59-.91,.78-1.95,1.17-3.12,1.17Z"/><path class="d" d="M318.23,612.61c-1.04,0-2.08-.1-3.12-.29-5.01-1.3-7.52-4.1-7.52-8.4,0-.78,.1-1.59,.29-2.44,1.56-5.73,4.2-10.9,7.91-15.53,1.82-2.54,3.87-5.08,6.15-7.62,.39-.45,.81-.91,1.27-1.37-1.82,.26-3.58,.46-5.27,.59-1.04,.07-2.05,.16-3.03,.29-.33,0-.68,.03-1.07,.1-1.11,.07-2.18,.1-3.22,.1-1.69,0-3.38-.26-5.08-.78-3.91-1.56-5.86-4.04-5.86-7.42,0-.98,.2-2.05,.59-3.22,.65-1.82,1.95-4.36,3.91-7.62,1.95-3.25,4.26-6.61,6.93-10.06,2.67-3.45,5.44-6.4,8.3-8.84,2.86-2.44,5.4-3.66,7.62-3.66,.98,0,1.89,.29,2.73,.88,1.76,1.3,2.64,2.96,2.64,4.98,0,.46-.03,.91-.1,1.37v.1c-.07,.59-.21,1.16-.44,1.71-.23,.55-.63,.93-1.22,1.12l-.88,.2c-1.04,0-1.89-.52-2.54-1.56-.39-.52-.75-.78-1.07-.78s-.68,.26-1.07,.78c-6.58,7.16-12.01,15.04-16.31,23.63-.06,.2-.1,.36-.1,.49,0,.59,.5,.96,1.51,1.12,1.01,.16,2.29,.24,3.86,.24l5.08-.1c2.8,0,5.47,.23,8.01,.68,.26,.07,.52,.1,.78,.1,.59,0,1.14-.26,1.66-.78,5.34-5.53,11.07-10.61,17.19-15.23,2.99-2.21,6.15-4.07,9.47-5.57,.52-.2,1.04-.29,1.56-.29,.85,0,1.63,.26,2.34,.78,.72,.52,1.2,1.21,1.46,2.05l.1,.78c0,.65-.36,1.17-1.07,1.56-4.3,2.08-8.24,4.62-11.82,7.62-3.58,3-7.06,6.12-10.45,9.38-.72,.59-1.4,1.21-2.05,1.86-.46,.39-.68,.72-.68,.98,0,.33,.23,.68,.68,1.07,3.25,2.87,4.88,6.19,4.88,9.96,0,1.37-.2,2.8-.59,4.3-2.02,7.94-6.32,14.39-12.89,19.34-2.87,2.28-6.02,3.42-9.47,3.42Zm-2.34-5.66c.46,0,1.07-.16,1.86-.49,1.56-.59,3.03-1.43,4.39-2.54,6.38-5.4,10.22-12.27,11.52-20.61l.1-1.07c0-1.24-.46-2.38-1.37-3.42-.26-.26-.49-.39-.68-.39s-.42,.13-.68,.39l-1.56,1.56c-4.36,4.3-8.2,9.05-11.52,14.26-1.89,3-3.03,5.92-3.42,8.79v.98c0,1.69,.46,2.54,1.37,2.54Z"/><path class="d" d="M411.79,555.87c2.47-4.23,5.08-8.04,7.81-11.43,2.93-3.97,6.67-6.8,11.23-8.5,1.3-.45,2.67-.68,4.1-.68,2.67,0,5.24,.85,7.71,2.54,2.47,1.69,4.04,4.39,4.69,8.11,.26,2.02,.39,4.04,.39,6.05,0,4.88-.8,9.56-2.39,14.01-1.6,4.46-3.89,8.71-6.88,12.74-4.23,6.32-9.96,10.81-17.19,13.48-3.65,1.17-7.39,1.76-11.23,1.76h-4.59c-.85,.07-1.72,.1-2.64,.1-1.82,0-3.48-.15-4.98-.44-1.5-.29-2.25-.93-2.25-1.9v-.39c.65-7.03,2.57-17.81,5.76-32.32,3.19-14.52,6.67-28.94,10.45-43.26,3.78-14.32,6.9-24.71,9.38-31.15,.65-.91,1.5-1.37,2.54-1.37h.1c1.56,.13,2.99,.62,4.3,1.46,1.3,.65,1.95,1.53,1.95,2.64,0,.52-.13,1.11-.39,1.76-.65,1.95-1.33,3.94-2.05,5.96-2.41,6.64-4.53,13.41-6.35,20.31-3.32,13.09-6.48,26.3-9.47,39.65v.88Zm27.64-6.84c-.07-.78-.1-1.53-.1-2.25-.07-1.76-.23-3.35-.49-4.79l-.29-1.46c-.2-1.11-.78-1.66-1.76-1.66-.26,0-.59,.03-.98,.1-1.82,.52-3.45,1.37-4.88,2.54-2.67,1.95-5,4.2-6.98,6.74-1.99,2.54-3.83,5.21-5.52,8.01-5.73,9.9-9.99,20.41-12.79,31.54-.07,.26-.1,.49-.1,.68,0,.39,.15,.67,.44,.83,.29,.16,.63,.28,1.03,.34,1.37,.26,2.67,.39,3.91,.39,3.78,0,7.32-1.24,10.64-3.71,5.99-5.01,10.33-10.71,13.04-17.09,2.7-6.38,4.31-13.12,4.83-20.21Z"/><path class="d" d="M462.96,592.39c-2.93,0-5.6-1.33-8.01-4-2.54-3.32-3.94-7.06-4.2-11.23-.13-.98-.2-2.02-.2-3.12,0-3.32,.47-7.13,1.42-11.43,.94-4.3,2.29-8.46,4.05-12.5,1.76-4.04,3.86-7.39,6.3-10.06,2.44-2.67,5.16-4,8.15-4l1.46,.1,.68,.2c.65,.33,1.3,.62,1.95,.88,1.95,.85,3.74,1.89,5.37,3.12,1.24,.98,2.07,2.17,2.49,3.56,.42,1.4,.7,2.85,.83,4.35v3.42c0,1.04-.07,2.12-.2,3.22v.29c0,.46,.29,.68,.88,.68l3.03,.1c2.8,0,5.52-.28,8.15-.83,2.64-.55,5.19-1.58,7.67-3.08,.72-.45,1.43-.68,2.15-.68s1.4,.16,2.05,.49c.91,.46,1.37,1.01,1.37,1.66,0,.52-.33,1.04-.98,1.56-2.8,1.95-5.83,3.29-9.08,4-3.71,.91-7.46,1.37-11.23,1.37-.98,0-1.99-.03-3.03-.1h-.29c-.65,0-1.07,.15-1.27,.44s-.33,.73-.39,1.32c-1.11,6.25-3,12.24-5.66,17.97-1.5,3.45-3.58,6.48-6.25,9.08-2.28,2.15-4.69,3.22-7.23,3.22Zm1.27-5.76c1.17,0,2.46-1.25,3.86-3.76,1.4-2.51,2.75-5.42,4.05-8.74,1.3-3.32,2.41-6.35,3.32-9.08,.91-2.73,1.43-4.46,1.56-5.18l.1-.49c0-.45-.26-.81-.78-1.07-1.63-.91-3-2.11-4.1-3.61-1.5-2.15-2.44-4.52-2.83-7.13-.07,.07-.13,.1-.2,.1l-.1,.1c-.33,.46-.59,.94-.78,1.46-4.04,7.55-6.51,15.62-7.42,24.22l-.2,3.03c0,2.93,.59,5.76,1.76,8.5,.52,1.11,1.11,1.66,1.76,1.66Zm13.57-34.86c0-2.54-.39-5.08-1.17-7.62-.39,.85-.59,1.76-.59,2.73,0,1.82,.59,3.45,1.76,4.88Z"/><path class="d" d="M496.36,592.98c-1.63,0-2.8-.63-3.52-1.9-.72-1.27-1.07-2.94-1.07-5.03,0-4.62,1.14-10.4,3.42-17.33,2.28-6.93,4.62-13.25,7.03-18.95,2.41-5.7,3.97-9.26,4.69-10.69,.98-1.69,2.08-2.54,3.32-2.54,.72,0,1.5,.2,2.34,.59,2.21,.98,3.32,2.34,3.32,4.1,0,.65-.13,1.3-.39,1.95l-2.54,6.45c-2.15,5.14-4.1,10.35-5.86,15.62l-.39,1.37,1.37-1.76c3.12-4.17,6.38-8.24,9.77-12.21,3.84-4.49,8.07-8.66,12.7-12.5,.72-.59,1.46-1.14,2.25-1.66,1.56-1.17,3.16-1.76,4.79-1.76,1.3,0,2.6,.42,3.91,1.27,1.11,.72,1.87,1.56,2.29,2.54,.42,.98,.63,2.02,.63,3.12,0,.78-.07,1.56-.2,2.34-.65,3.58-1.46,7.13-2.44,10.64-.52,1.95-1.01,3.91-1.46,5.86-.59,2.34-1.09,4.7-1.51,7.08-.42,2.38-.63,4.77-.63,7.18l.1,2.25c.13,1.76,.68,3.39,1.66,4.88,.52,.65,1.14,.98,1.86,.98,1.82,0,4.15-1.42,6.98-4.25s5.68-6.15,8.54-9.96c2.86-3.81,5.35-7.31,7.47-10.5,2.12-3.19,3.43-5.27,3.96-6.25,.98-1.43,1.86-2.15,2.64-2.15,.72,0,1.27,.28,1.66,.83,.39,.55,.59,1.12,.59,1.71,0,.26-.1,.62-.29,1.07-5.6,10.87-12.6,20.8-21,29.79-2.34,2.8-5.4,4.46-9.18,4.98h-1.07c-2.8,0-5.27-.86-7.42-2.59-2.15-1.72-3.65-4.05-4.49-6.98-.39-1.76-.59-3.48-.59-5.18,0-2.41,.26-4.82,.78-7.23,.98-5.21,2.18-10.38,3.61-15.53,.52-1.89,1.01-3.77,1.46-5.66,.13-.26,.2-.59,.2-.98,.06-.26,.13-.55,.2-.88-2.54,1.76-4.79,3.68-6.74,5.76-7.62,7.88-14.1,16.57-19.43,26.07l-6.64,11.52c-.46,.85-1.01,1.65-1.66,2.39-.65,.75-1.5,1.32-2.54,1.71-.91,.26-1.72,.39-2.44,.39Z"/><path class="d" d="M574.77,592.39h-.78c-2.73,0-4.98-1.11-6.74-3.32-1.37-1.82-2.33-3.94-2.88-6.35-.55-2.41-.83-4.95-.83-7.62,0-6.18,1.06-12.58,3.17-19.19,2.12-6.61,4.31-12.09,6.59-16.46,.78-1.82,1.76-2.73,2.93-2.73,.59,0,1.2,.16,1.86,.49,1.17,.52,2.16,1.17,2.98,1.95,.81,.78,1.22,1.73,1.22,2.83,0,.46-.1,.94-.29,1.46-.33,.91-.72,1.92-1.17,3.03-1.69,4.3-3.42,9.25-5.18,14.84-1.76,5.6-2.64,10.94-2.64,16.02,0,3.32,.59,6.32,1.76,8.98,.33,.59,.78,.88,1.37,.88,1.69,0,4.25-1.99,7.67-5.96,3.42-3.97,6.87-8.4,10.35-13.28,3.48-4.88,6.3-8.98,8.45-12.3,1.24-1.82,2.08-3.03,2.54-3.61,.78-.78,1.76-1.17,2.93-1.17,1.24,0,2.28,.42,3.12,1.27,.13,.26,.2,.49,.2,.68,0,.33-.1,.62-.29,.88-1.11,1.56-2.28,3.22-3.52,4.98-6.38,9.31-12.89,18-19.53,26.07-1.76,2.02-3.71,3.73-5.86,5.13-2.15,1.4-4.62,2.23-7.42,2.49Zm9.08-62.21l-.68-.1c-.72-.2-1.37-.42-1.95-.68-.98-.39-1.46-.98-1.46-1.76,0-.33,.06-.75,.2-1.27l2.34-7.52c.39-1.17,1.04-1.76,1.95-1.76h.49c1.11,.2,2.02,.49,2.73,.88,1.11,.52,1.66,1.17,1.66,1.95,0,.46-.13,1.01-.39,1.66l-2.93,7.03c-.39,1.04-1.04,1.56-1.95,1.56Z"/><path class="d" d="M599.68,646.4h-.59c-2.15,0-3.32-1.11-3.52-3.32-.33-3.91-.49-7.81-.49-11.72,0-4.82,.16-9.62,.49-14.4,.33-4.79,.72-9.55,1.17-14.31,1.56-16.54,3.68-32.94,6.35-49.22,1.63-10.16,3.52-20.21,5.66-30.18l.1-.78v-.1c0-.45-.33-.68-.98-.68h-.39c-6.84,0-13.61,.52-20.31,1.56l-1.17,.1c-2.02,0-3.12-1.14-3.32-3.42v-.49c0-1.43,.78-2.41,2.34-2.93,1.04-.26,2.08-.42,3.12-.49h.78c6.97-.59,13.96-1.11,21-1.56,.46-.06,.78-.23,.98-.49,.2-.26,.33-.59,.39-.98,2.28-8.27,5.4-16.24,9.38-23.93l.78-1.37c.85-1.56,1.86-2.34,3.03-2.34,.59,0,1.24,.16,1.95,.49,2.15,.91,3.22,2.21,3.22,3.91,0,.39-.07,.78-.2,1.17l-5.66,17.29c-.39,1.37-.81,2.73-1.27,4.1l-.2,.68c.06,.46,.49,.68,1.27,.68,8.98-.33,17.97-.55,26.95-.68l15.53-.1c4.3,0,8.56,.07,12.79,.2,.65,0,1.24,.11,1.76,.34,.52,.23,.91,.67,1.17,1.32,.33,.72,.49,1.4,.49,2.05,0,.78-.23,1.53-.68,2.25-.26,.39-.59,.63-.98,.73s-.81,.15-1.27,.15l-5.86-.1c-7.29,0-14.62,.2-21.97,.59l-13.87,.39-16.21,.39c-.52,.07-.91,.21-1.17,.44-.26,.23-.42,.57-.49,1.03-2.47,9.96-4.62,20.02-6.45,30.18-1.56,8.85-3.03,17.74-4.39,26.66-1.17,8.07-2.21,16.18-3.12,24.32-.65,5.47-1.2,10.94-1.66,16.41-.46,5.47-.68,10.94-.68,16.41v3.61c0,.65,.03,1.37,.1,2.15v.39c0,2.02-1.3,3.22-3.91,3.61Z"/><path class="d" d="M652.31,566.22l-.39,.78c-.33,.59-.62,1.17-.88,1.76-2.67,5.92-5.76,11.59-9.28,16.99-1.04,1.63-2.29,2.95-3.76,3.96-1.46,1.01-3.24,1.51-5.32,1.51-3.19,0-5.6-1.33-7.23-4-1.5-2.67-2.28-5.5-2.34-8.5v-1.17c0-3.32,.47-7.23,1.42-11.72,.94-4.49,2.39-8.85,4.35-13.09,1.95-4.23,4.38-7.75,7.28-10.55,2.9-2.8,6.33-4.2,10.3-4.2,1.24,0,2.54,.16,3.91,.49,3.12,.65,5.7,2.34,7.71,5.08l.68-1.37c.59-1.24,1.2-2.44,1.86-3.61,.46-1.04,1.11-1.56,1.95-1.56,.39,0,.85,.1,1.37,.29,.91,.39,1.72,.88,2.44,1.46,.78,.65,1.17,1.4,1.17,2.25,0,.46-.1,.91-.29,1.37-1.95,4.56-3.66,9.8-5.13,15.72-1.46,5.92-2.2,11.69-2.2,17.29,0,3.45,.36,6.64,1.07,9.57,.39,1.3,1.01,1.95,1.86,1.95,1.63,0,3.89-1.79,6.79-5.37,2.9-3.58,5.86-7.67,8.89-12.26s5.62-8.64,7.76-12.16c1.37-2.21,2.38-3.81,3.03-4.79,.78-.85,1.66-1.27,2.64-1.27,.91,0,1.79,.33,2.64,.98,.26,.26,.39,.52,.39,.78,0,.2-.05,.39-.15,.59s-.21,.39-.34,.59l-4.49,6.64c-1.56,2.28-3.09,4.53-4.59,6.74-4.04,6.12-8.27,12.08-12.7,17.87-2.6,3.71-6.19,5.89-10.74,6.54h-.98c-2.67,0-4.66-1.27-5.96-3.81-1.24-3.12-1.99-6.31-2.25-9.57-.2-2.54-.33-5.08-.39-7.62,0-1.5-.03-3.03-.1-4.59Zm-20.21,12.7c0,1.04,.03,2.1,.1,3.17,.06,1.07,.26,2.1,.59,3.08,.13,.39,.2,.75,.2,1.07,0,.26,.03,.49,.1,.68,.06,.2,.26,.33,.59,.39h.1c.78,0,2.16-1.86,4.15-5.57,1.99-3.71,4.1-8.02,6.35-12.94,2.25-4.92,4.26-9.44,6.05-13.57,1.79-4.13,2.91-6.82,3.37-8.06,.13-.39,.2-.81,.2-1.27,0-.85-.29-1.63-.88-2.34-.59-.72-1.33-1.07-2.25-1.07h-.1c-2.21,.2-4.17,1.01-5.86,2.44-2.6,2.02-4.59,4.53-5.96,7.52-4.04,8.33-6.28,17.16-6.74,26.46Z"/><path class="d" d="M697.82,612.61c-1.04,0-2.08-.1-3.12-.29-5.01-1.3-7.52-4.1-7.52-8.4,0-.78,.1-1.59,.29-2.44,1.56-5.73,4.2-10.9,7.91-15.53,1.82-2.54,3.87-5.08,6.15-7.62,.39-.45,.81-.91,1.27-1.37-1.82,.26-3.58,.46-5.27,.59-1.04,.07-2.05,.16-3.03,.29-.33,0-.68,.03-1.07,.1-1.11,.07-2.18,.1-3.22,.1-1.69,0-3.38-.26-5.08-.78-3.91-1.56-5.86-4.04-5.86-7.42,0-.98,.2-2.05,.59-3.22,.65-1.82,1.95-4.36,3.91-7.62,1.95-3.25,4.26-6.61,6.93-10.06,2.67-3.45,5.44-6.4,8.3-8.84,2.86-2.44,5.4-3.66,7.62-3.66,.98,0,1.89,.29,2.73,.88,1.76,1.3,2.64,2.96,2.64,4.98,0,.46-.03,.91-.1,1.37v.1c-.07,.59-.21,1.16-.44,1.71-.23,.55-.63,.93-1.22,1.12l-.88,.2c-1.04,0-1.89-.52-2.54-1.56-.39-.52-.75-.78-1.07-.78s-.68,.26-1.07,.78c-6.58,7.16-12.01,15.04-16.31,23.63-.06,.2-.1,.36-.1,.49,0,.59,.5,.96,1.51,1.12,1.01,.16,2.29,.24,3.86,.24l5.08-.1c2.8,0,5.47,.23,8.01,.68,.26,.07,.52,.1,.78,.1,.59,0,1.14-.26,1.66-.78,5.34-5.53,11.07-10.61,17.19-15.23,2.99-2.21,6.15-4.07,9.47-5.57,.52-.2,1.04-.29,1.56-.29,.85,0,1.63,.26,2.34,.78,.72,.52,1.2,1.21,1.46,2.05l.1,.78c0,.65-.36,1.17-1.07,1.56-4.3,2.08-8.24,4.62-11.82,7.62-3.58,3-7.06,6.12-10.45,9.38-.72,.59-1.4,1.21-2.05,1.86-.46,.39-.68,.72-.68,.98,0,.33,.23,.68,.68,1.07,3.25,2.87,4.88,6.19,4.88,9.96,0,1.37-.2,2.8-.59,4.3-2.02,7.94-6.32,14.39-12.89,19.34-2.87,2.28-6.02,3.42-9.47,3.42Zm-2.34-5.66c.46,0,1.07-.16,1.86-.49,1.56-.59,3.03-1.43,4.39-2.54,6.38-5.4,10.22-12.27,11.52-20.61l.1-1.07c0-1.24-.46-2.38-1.37-3.42-.26-.26-.49-.39-.68-.39s-.42,.13-.68,.39l-1.56,1.56c-4.36,4.3-8.2,9.05-11.52,14.26-1.89,3-3.03,5.92-3.42,8.79v.98c0,1.69,.46,2.54,1.37,2.54Z"/></g></g></svg>