<?xml version="1.0" encoding="utf-8"?>
<!-- Generator: Adobe Illustrator 26.2.1, SVG Export Plug-In . SVG Version: 6.00 Build 0)  -->
<svg version="1.1" id="Capa_1" xmlns="http://www.w3.org/2000/svg" xmlns:xlink="http://www.w3.org/1999/xlink" x="0px" y="0px"
	 viewBox="0 0 139.5 43" style="enable-background:new 0 0 139.5 43;" xml:space="preserve">
<style type="text/css">
	.st0{fill:#FFFFFF;}
</style>
<g id="a">
</g>
<g id="b">
	<g id="c">
		<g>
			<path class="st0" d="M1.6,10.9C1,10.3,0.7,9.4,0.7,8.2V3.4h0.6v4.8c0,1,0.2,1.8,0.7,2.3c0.5,0.5,1.2,0.8,2,0.8s1.6-0.3,2-0.8
				s0.7-1.3,0.7-2.3V3.4h0.6v4.8c0,1.2-0.3,2.1-0.9,2.7s-1.4,0.9-2.5,0.9S2.2,11.5,1.6,10.9z"/>
			<path class="st0" d="M15,6.1c0.5,0.5,0.7,1.1,0.7,2v3.7h-0.6V8.2c0-0.7-0.2-1.2-0.5-1.6C14.2,6.2,13.7,6,13.1,6
				c-0.7,0-1.3,0.2-1.7,0.7s-0.6,1-0.6,1.8v3.3h-0.6V5.5h0.6v1.4c0.2-0.4,0.5-0.8,1-1s0.9-0.4,1.5-0.4C13.9,5.5,14.6,5.7,15,6.1
				L15,6.1z"/>
			<path class="st0" d="M22.1,6.1c0.4,0.4,0.6,1,0.6,1.8v4h-0.6v-1.1c-0.2,0.4-0.5,0.6-0.9,0.9c-0.4,0.2-0.8,0.3-1.4,0.3
				c-0.7,0-1.2-0.2-1.6-0.5s-0.6-0.8-0.6-1.3s0.2-0.9,0.6-1.3c0.4-0.3,1-0.5,1.8-0.5h2.1V7.8c0-0.6-0.2-1-0.5-1.3
				C21.3,6.1,20.8,6,20.2,6c-0.4,0-0.8,0.1-1.2,0.2c-0.4,0.1-0.7,0.3-1,0.6l-0.3-0.4c0.3-0.3,0.7-0.5,1.1-0.7
				c0.4-0.2,0.9-0.2,1.4-0.2C21,5.5,21.6,5.7,22.1,6.1L22.1,6.1z M21.3,11c0.4-0.2,0.6-0.6,0.8-1V8.7h-2.1c-0.6,0-1.1,0.1-1.3,0.3
				c-0.3,0.2-0.4,0.5-0.4,0.9c0,0.4,0.1,0.7,0.5,1c0.3,0.2,0.7,0.4,1.3,0.4C20.5,11.3,20.9,11.2,21.3,11z"/>
			<path class="st0" d="M38,5.9c0.5,0.5,0.7,1.2,0.7,2.1v3.7h-1.9V8.4c0-0.5-0.1-0.9-0.3-1.2C36.3,7,36,6.8,35.6,6.8
				c-0.4,0-0.8,0.1-1,0.4c-0.3,0.3-0.4,0.7-0.4,1.3v3.2h-1.9V8.4c0-1-0.4-1.5-1.2-1.5c-0.4,0-0.8,0.1-1,0.4
				c-0.3,0.3-0.4,0.7-0.4,1.3v3.2h-1.9V5.3h1.8v0.7c0.2-0.3,0.5-0.5,0.9-0.6c0.4-0.1,0.7-0.2,1.1-0.2c0.5,0,0.9,0.1,1.2,0.3
				c0.4,0.2,0.7,0.4,0.9,0.8c0.3-0.3,0.6-0.6,1-0.8s0.8-0.3,1.3-0.3C36.9,5.2,37.6,5.5,38,5.9L38,5.9z"/>
			<path class="st0" d="M46.9,5.3v6.5h-1.8V11c-0.2,0.3-0.5,0.5-0.9,0.6c-0.3,0.1-0.7,0.2-1.1,0.2c-0.8,0-1.5-0.2-2-0.7
				S40.4,9.9,40.4,9V5.3h1.9v3.4c0,1,0.4,1.6,1.3,1.6c0.5,0,0.8-0.2,1.1-0.4s0.4-0.7,0.4-1.3V5.3H46.9L46.9,5.3z"/>
			<path class="st0" d="M46.7,13.8l0.5-1.4c0.2,0.1,0.5,0.2,0.8,0.2c0.2,0,0.4-0.1,0.6-0.2c0.1-0.2,0.2-0.4,0.2-0.7V5.3h1.9v6.4
				c0,0.8-0.2,1.4-0.6,1.8c-0.4,0.4-1,0.6-1.8,0.6C47.5,14.2,47,14.1,46.7,13.8L46.7,13.8z M48.9,4.1c-0.2-0.2-0.3-0.4-0.3-0.7
				s0.1-0.5,0.3-0.7c0.2-0.2,0.5-0.3,0.8-0.3s0.6,0.1,0.8,0.3c0.2,0.2,0.3,0.4,0.3,0.7c0,0.3-0.1,0.6-0.3,0.8
				c-0.2,0.2-0.5,0.3-0.8,0.3S49.1,4.3,48.9,4.1L48.9,4.1z"/>
			<path class="st0" d="M58.6,9.1h-4.9c0.1,0.4,0.3,0.7,0.6,0.9c0.3,0.2,0.7,0.4,1.2,0.4c0.3,0,0.6-0.1,0.9-0.1
				c0.3-0.1,0.5-0.3,0.7-0.5l1,1.1c-0.6,0.7-1.5,1-2.7,1c-0.7,0-1.4-0.1-1.9-0.4c-0.6-0.3-1-0.7-1.3-1.2c-0.3-0.5-0.5-1.1-0.5-1.7
				s0.2-1.2,0.5-1.7s0.7-0.9,1.2-1.2c0.5-0.3,1.1-0.4,1.8-0.4s1.2,0.1,1.7,0.4c0.5,0.3,0.9,0.7,1.2,1.2c0.3,0.5,0.4,1.1,0.4,1.8
				C58.7,8.6,58.7,8.7,58.6,9.1L58.6,9.1z M54.3,7c-0.3,0.2-0.5,0.6-0.5,1h3.2c-0.1-0.4-0.2-0.7-0.5-1s-0.6-0.4-1.1-0.4
				S54.5,6.7,54.3,7L54.3,7z"/>
			<path class="st0" d="M62.6,5.5c0.4-0.2,0.8-0.2,1.3-0.2v1.7c-0.2,0-0.3,0-0.4,0c-0.5,0-1,0.2-1.3,0.4c-0.3,0.3-0.5,0.8-0.5,1.3
				v3.1h-1.9V5.3h1.8v0.8C61.9,5.9,62.2,5.6,62.6,5.5z"/>
			<path class="st0" d="M74.5,5.5v8.6h-0.6v-3.8c-0.3,0.5-0.6,0.8-1.1,1.1s-0.9,0.4-1.5,0.4s-1.1-0.1-1.6-0.4
				c-0.5-0.3-0.8-0.6-1.1-1.1c-0.3-0.5-0.4-1-0.4-1.6c0-0.6,0.1-1.2,0.4-1.6c0.3-0.5,0.6-0.9,1.1-1.1s1-0.4,1.6-0.4s1.1,0.1,1.5,0.4
				c0.4,0.3,0.8,0.6,1,1.1V5.5L74.5,5.5L74.5,5.5z M72.6,10.9c0.4-0.2,0.7-0.5,0.9-0.9c0.2-0.4,0.3-0.9,0.3-1.4c0-0.5-0.1-1-0.3-1.4
				S73,6.6,72.6,6.3C72.3,6.1,71.8,6,71.4,6s-0.9,0.1-1.3,0.3c-0.4,0.2-0.7,0.5-0.9,0.9s-0.3,0.9-0.3,1.4c0,0.5,0.1,1,0.3,1.4
				c0.2,0.4,0.5,0.7,0.9,0.9c0.4,0.2,0.8,0.3,1.3,0.3S72.3,11.2,72.6,10.9z"/>
			<path class="st0" d="M82.5,5.5v6.3h-0.6v-1.3c-0.2,0.4-0.5,0.8-0.9,1c-0.4,0.2-0.9,0.4-1.4,0.4c-0.8,0-1.5-0.2-1.9-0.7
				c-0.5-0.5-0.7-1.1-0.7-2V5.5h0.6v3.6c0,0.7,0.2,1.2,0.5,1.6s0.9,0.6,1.5,0.6c0.7,0,1.3-0.2,1.7-0.7c0.4-0.4,0.6-1,0.6-1.8V5.5
				H82.5L82.5,5.5z"/>
			<path class="st0" d="M90.3,8.8h-5.4c0,0.5,0.1,0.9,0.4,1.3s0.6,0.7,0.9,0.9c0.4,0.2,0.8,0.3,1.3,0.3c0.4,0,0.8-0.1,1.1-0.2
				s0.6-0.4,0.9-0.6l0.3,0.4c-0.3,0.3-0.6,0.6-1,0.8c-0.4,0.2-0.9,0.3-1.3,0.3c-0.6,0-1.2-0.1-1.7-0.4s-0.9-0.6-1.2-1.1
				s-0.4-1-0.4-1.6c0-0.6,0.1-1.2,0.4-1.6c0.3-0.5,0.6-0.9,1.1-1.1c0.5-0.3,1-0.4,1.5-0.4s1.1,0.1,1.5,0.4c0.4,0.3,0.8,0.6,1.1,1.1
				s0.4,1,0.4,1.6C90.3,8.6,90.3,8.8,90.3,8.8z M86.1,6.3c-0.3,0.2-0.6,0.5-0.8,0.8c-0.2,0.4-0.3,0.8-0.4,1.2h4.8
				c0-0.4-0.1-0.8-0.4-1.2s-0.5-0.6-0.8-0.8S87.8,6,87.3,6S86.5,6.1,86.1,6.3L86.1,6.3z"/>
			<path class="st0" d="M95.4,11.6c-0.5-0.1-0.8-0.3-1.1-0.6l0.3-0.5c0.3,0.2,0.6,0.4,1,0.5s0.8,0.2,1.3,0.2c0.6,0,1.1-0.1,1.4-0.3
				s0.4-0.5,0.4-0.9c0-0.3-0.1-0.5-0.2-0.6c-0.2-0.2-0.4-0.3-0.6-0.3c-0.2-0.1-0.6-0.2-1-0.2c-0.5-0.1-0.9-0.2-1.2-0.3
				c-0.3-0.1-0.6-0.3-0.8-0.5c-0.2-0.2-0.3-0.6-0.3-1c0-0.5,0.2-0.9,0.6-1.2c0.4-0.3,1-0.5,1.8-0.5c0.4,0,0.8,0.1,1.2,0.2
				c0.4,0.1,0.7,0.3,1,0.4l-0.3,0.5c-0.3-0.2-0.6-0.3-0.9-0.4C97.6,6,97.3,6,96.9,6c-0.6,0-1,0.1-1.3,0.3c-0.3,0.2-0.4,0.5-0.4,0.8
				c0,0.3,0.1,0.5,0.2,0.7c0.2,0.2,0.4,0.3,0.6,0.3s0.6,0.2,1,0.2c0.5,0.1,0.9,0.2,1.2,0.3c0.3,0.1,0.6,0.3,0.8,0.5
				c0.2,0.2,0.3,0.5,0.3,0.9c0,0.5-0.2,0.9-0.7,1.2s-1,0.5-1.8,0.5C96.4,11.8,95.9,11.7,95.4,11.6z"/>
			<path class="st0" d="M106.3,8.8h-5.4c0,0.5,0.1,0.9,0.4,1.3s0.6,0.7,0.9,0.9c0.4,0.2,0.8,0.3,1.3,0.3c0.4,0,0.8-0.1,1.1-0.2
				s0.6-0.4,0.9-0.6l0.3,0.4c-0.3,0.3-0.6,0.6-1,0.8c-0.4,0.2-0.9,0.3-1.3,0.3c-0.6,0-1.2-0.1-1.7-0.4s-0.9-0.6-1.2-1.1
				s-0.4-1-0.4-1.6c0-0.6,0.1-1.2,0.4-1.6c0.3-0.5,0.6-0.9,1.1-1.1c0.5-0.3,1-0.4,1.5-0.4s1.1,0.1,1.5,0.4c0.4,0.3,0.8,0.6,1.1,1.1
				s0.4,1,0.4,1.6C106.3,8.6,106.3,8.8,106.3,8.8z M102.1,6.3c-0.3,0.2-0.6,0.5-0.8,0.8c-0.2,0.4-0.3,0.8-0.4,1.2h4.8
				c0-0.4-0.1-0.8-0.4-1.2s-0.5-0.6-0.8-0.8S103.7,6,103.3,6S102.5,6.1,102.1,6.3L102.1,6.3z"/>
			<path class="st0" d="M112.1,11.4c-0.5-0.3-0.9-0.6-1.1-1.1c-0.3-0.5-0.4-1-0.4-1.6c0-0.6,0.1-1.2,0.4-1.7
				c0.3-0.5,0.7-0.9,1.1-1.1c0.5-0.3,1-0.4,1.6-0.4c0.5,0,1,0.1,1.4,0.3c0.4,0.2,0.8,0.5,1,0.9l-0.4,0.3c-0.2-0.3-0.5-0.6-0.8-0.7
				c-0.3-0.2-0.7-0.2-1.1-0.2c-0.5,0-0.9,0.1-1.3,0.3c-0.4,0.2-0.7,0.5-0.9,0.9s-0.3,0.9-0.3,1.4c0,0.5,0.1,1,0.3,1.4
				c0.2,0.4,0.5,0.7,0.9,0.9c0.4,0.2,0.8,0.3,1.3,0.3c0.4,0,0.8-0.1,1.1-0.2c0.3-0.2,0.6-0.4,0.8-0.7l0.4,0.3
				c-0.3,0.4-0.6,0.7-1,0.9s-0.9,0.3-1.4,0.3C113.1,11.8,112.6,11.7,112.1,11.4z"/>
			<path class="st0" d="M118.7,11.4c-0.5-0.3-0.8-0.6-1.1-1.1c-0.3-0.5-0.4-1-0.4-1.6c0-0.6,0.1-1.2,0.4-1.6
				c0.3-0.5,0.7-0.9,1.1-1.1c0.5-0.3,1-0.4,1.6-0.4s1.1,0.1,1.6,0.4s0.8,0.7,1.1,1.1c0.3,0.5,0.4,1,0.4,1.6c0,0.6-0.1,1.1-0.4,1.6
				c-0.3,0.5-0.7,0.9-1.1,1.1s-1,0.4-1.6,0.4S119.1,11.7,118.7,11.4z M121.5,10.9c0.4-0.2,0.7-0.5,0.9-0.9c0.2-0.4,0.3-0.9,0.3-1.4
				c0-0.5-0.1-1-0.3-1.4s-0.5-0.7-0.9-0.9c-0.4-0.2-0.8-0.3-1.3-0.3s-0.9,0.1-1.3,0.3c-0.4,0.2-0.7,0.5-0.9,0.9s-0.3,0.9-0.3,1.4
				c0,0.5,0.1,1,0.3,1.4c0.2,0.4,0.5,0.7,0.9,0.9c0.4,0.2,0.8,0.3,1.3,0.3S121.2,11.2,121.5,10.9z"/>
			<path class="st0" d="M126.7,5.8c0.4-0.2,0.9-0.4,1.5-0.4V6h-0.1c-0.7,0-1.2,0.2-1.6,0.6s-0.6,1-0.6,1.8v3.3h-0.6V5.5h0.6v1.4
				C126,6.4,126.3,6.1,126.7,5.8L126.7,5.8z"/>
			<path class="st0" d="M133.3,11.4c-0.1,0.1-0.3,0.2-0.6,0.3c-0.2,0.1-0.5,0.1-0.7,0.1c-0.5,0-1-0.1-1.3-0.4
				c-0.3-0.3-0.4-0.7-0.4-1.2V6h-1.1V5.5h1.1V4.1h0.6v1.4h2V6h-2v4c0,0.4,0.1,0.7,0.3,0.9c0.2,0.2,0.5,0.3,0.9,0.3s0.7-0.1,1-0.4
				L133.3,11.4L133.3,11.4z"/>
			<path class="st0" d="M138.8,6.1c0.4,0.4,0.6,1,0.6,1.8v4h-0.6v-1.1c-0.2,0.4-0.5,0.6-0.9,0.9c-0.4,0.2-0.8,0.3-1.4,0.3
				c-0.7,0-1.2-0.2-1.6-0.5s-0.6-0.8-0.6-1.3s0.2-0.9,0.6-1.3c0.4-0.3,1-0.5,1.8-0.5h2.1V7.8c0-0.6-0.2-1-0.5-1.3
				C138.1,6.1,137.6,6,137,6c-0.4,0-0.8,0.1-1.2,0.2c-0.4,0.1-0.7,0.3-1,0.6l-0.3-0.4c0.3-0.3,0.7-0.5,1.1-0.7
				c0.4-0.2,0.9-0.2,1.4-0.2C137.8,5.5,138.4,5.7,138.8,6.1L138.8,6.1z M138,11c0.4-0.2,0.6-0.6,0.8-1V8.7h-2.1
				c-0.6,0-1.1,0.1-1.3,0.3c-0.3,0.2-0.4,0.5-0.4,0.9c0,0.4,0.1,0.7,0.5,1c0.3,0.2,0.7,0.4,1.3,0.4C137.2,11.3,137.7,11.2,138,11
				L138,11z"/>
			<path class="st0" d="M9.2,23.2H3.8c0,0.5,0.1,0.9,0.4,1.3c0.2,0.4,0.6,0.7,0.9,0.9c0.4,0.2,0.8,0.3,1.3,0.3
				c0.4,0,0.8-0.1,1.1-0.2s0.6-0.4,0.9-0.6l0.4,0.4c-0.3,0.3-0.6,0.6-1,0.8c-0.4,0.2-0.9,0.3-1.3,0.3c-0.6,0-1.2-0.1-1.7-0.4
				s-0.9-0.6-1.2-1.1s-0.4-1-0.4-1.6s0.1-1.1,0.4-1.6c0.3-0.5,0.6-0.9,1.1-1.1c0.5-0.3,1-0.4,1.5-0.4s1.1,0.1,1.5,0.4
				s0.8,0.6,1.1,1.1c0.3,0.5,0.4,1,0.4,1.6L9.2,23.2L9.2,23.2z M5,20.7c-0.3,0.2-0.6,0.5-0.8,0.8c-0.2,0.4-0.3,0.8-0.4,1.2h4.8
				c0-0.5-0.1-0.9-0.4-1.2s-0.5-0.6-0.9-0.8s-0.8-0.3-1.2-0.3S5.4,20.5,5,20.7L5,20.7z"/>
			<path class="st0" d="M11.1,17.3h0.6v8.9h-0.6V17.3z"/>
			<path class="st0" d="M22,20.3c0.5,0.3,0.8,0.6,1.1,1.1s0.4,1,0.4,1.6s-0.1,1.2-0.4,1.6s-0.6,0.9-1.1,1.1s-1,0.4-1.6,0.4
				c-0.5,0-1-0.1-1.5-0.4s-0.8-0.6-1-1.1v3.8h-0.6v-8.6h0.6v1.5c0.2-0.5,0.6-0.9,1-1.1c0.5-0.3,1-0.4,1.5-0.4S21.6,20,22,20.3
				L22,20.3z M21.7,25.3c0.4-0.2,0.7-0.5,0.9-0.9s0.3-0.9,0.3-1.4s-0.1-1-0.3-1.4c-0.2-0.4-0.5-0.7-0.9-0.9
				c-0.4-0.2-0.8-0.3-1.3-0.3s-0.9,0.1-1.3,0.3c-0.4,0.2-0.7,0.5-0.9,0.9s-0.3,0.9-0.3,1.4s0.1,1,0.3,1.4c0.2,0.4,0.5,0.7,0.9,0.9
				c0.4,0.2,0.8,0.3,1.3,0.3S21.3,25.6,21.7,25.3z"/>
			<path class="st0" d="M30.7,23.2h-5.4c0,0.5,0.1,0.9,0.4,1.3s0.5,0.7,0.9,0.9c0.4,0.2,0.8,0.3,1.3,0.3c0.4,0,0.8-0.1,1.1-0.2
				s0.6-0.4,0.9-0.6l0.4,0.4c-0.3,0.3-0.6,0.6-1,0.8c-0.4,0.2-0.9,0.3-1.3,0.3c-0.6,0-1.2-0.1-1.7-0.4s-0.9-0.6-1.1-1.1
				s-0.4-1-0.4-1.6s0.1-1.1,0.4-1.6c0.3-0.5,0.6-0.9,1.1-1.1c0.5-0.3,1-0.4,1.5-0.4s1.1,0.1,1.5,0.4s0.8,0.6,1.1,1.1
				c0.3,0.5,0.4,1,0.4,1.6C30.7,23,30.7,23.2,30.7,23.2z M26.5,20.7c-0.4,0.2-0.6,0.5-0.9,0.8c-0.2,0.4-0.3,0.8-0.4,1.2h4.8
				c0-0.5-0.1-0.9-0.4-1.2c-0.2-0.4-0.5-0.6-0.9-0.8s-0.8-0.3-1.2-0.3S26.8,20.5,26.5,20.7L26.5,20.7z"/>
			<path class="st0" d="M32.6,17.3h0.6v8.9h-0.6V17.3z"/>
			<path class="st0" d="M36.5,25.8c-0.5-0.3-0.8-0.6-1.1-1.1S35,23.6,35,23s0.1-1.1,0.4-1.6c0.3-0.5,0.7-0.9,1.1-1.1
				c0.5-0.3,1-0.4,1.6-0.4s1.1,0.1,1.6,0.4s0.8,0.6,1.1,1.1s0.4,1,0.4,1.6s-0.1,1.1-0.4,1.6c-0.3,0.5-0.7,0.9-1.1,1.1
				s-1,0.4-1.6,0.4S37,26.1,36.5,25.8z M39.4,25.3c0.4-0.2,0.7-0.5,0.9-0.9s0.3-0.9,0.3-1.4s-0.1-1-0.3-1.4
				c-0.2-0.4-0.5-0.7-0.9-0.9c-0.4-0.2-0.8-0.3-1.3-0.3s-0.9,0.1-1.3,0.3c-0.4,0.2-0.7,0.5-0.9,0.9s-0.3,0.9-0.3,1.4s0.1,1,0.3,1.4
				c0.2,0.4,0.5,0.7,0.9,0.9c0.4,0.2,0.8,0.3,1.3,0.3S39,25.6,39.4,25.3z"/>
			<path class="st0" d="M51.5,23.2h-5.4c0,0.5,0.1,0.9,0.4,1.3s0.5,0.7,0.9,0.9c0.4,0.2,0.8,0.3,1.3,0.3c0.4,0,0.8-0.1,1.1-0.2
				s0.6-0.4,0.9-0.6l0.3,0.4c-0.3,0.3-0.6,0.6-1,0.8c-0.4,0.2-0.9,0.3-1.3,0.3c-0.6,0-1.2-0.1-1.7-0.4s-0.9-0.6-1.2-1.1
				s-0.4-1-0.4-1.6s0.1-1.1,0.4-1.6c0.3-0.5,0.6-0.9,1.1-1.1c0.5-0.3,1-0.4,1.5-0.4s1.1,0.1,1.5,0.4c0.5,0.3,0.8,0.6,1.1,1.1
				c0.3,0.5,0.4,1,0.4,1.6C51.5,23,51.5,23.2,51.5,23.2z M47.3,20.7c-0.3,0.2-0.6,0.5-0.8,0.8c-0.2,0.4-0.3,0.8-0.4,1.2h4.8
				c0-0.5-0.1-0.9-0.4-1.2s-0.5-0.6-0.8-0.8s-0.8-0.3-1.2-0.3S47.7,20.5,47.3,20.7L47.3,20.7z"/>
			<path class="st0" d="M53.5,26c-0.5-0.1-0.8-0.3-1.1-0.6l0.3-0.5c0.3,0.2,0.6,0.4,1,0.5c0.4,0.1,0.8,0.2,1.3,0.2
				c0.6,0,1.1-0.1,1.4-0.3c0.3-0.2,0.5-0.5,0.5-0.9c0-0.3-0.1-0.5-0.2-0.6s-0.4-0.3-0.6-0.3c-0.2-0.1-0.6-0.1-1-0.2
				c-0.5-0.1-0.9-0.2-1.2-0.3c-0.3-0.1-0.6-0.3-0.8-0.5c-0.2-0.2-0.3-0.5-0.3-1c0-0.5,0.2-0.9,0.6-1.2s1-0.5,1.8-0.5
				c0.4,0,0.8,0.1,1.2,0.2s0.7,0.3,1,0.4l-0.3,0.5c-0.3-0.2-0.5-0.3-0.9-0.4s-0.7-0.1-1-0.1c-0.6,0-1,0.1-1.3,0.3
				c-0.3,0.2-0.4,0.5-0.4,0.9c0,0.3,0.1,0.5,0.2,0.6c0.2,0.2,0.4,0.3,0.6,0.4s0.6,0.2,1,0.2c0.5,0.1,0.9,0.2,1.2,0.3
				s0.5,0.3,0.8,0.5c0.2,0.2,0.3,0.5,0.3,0.9c0,0.5-0.2,0.9-0.7,1.2s-1,0.5-1.8,0.5C54.5,26.2,54,26.1,53.5,26z"/>
			<path class="st0" d="M62.2,25.8c-0.2,0.1-0.3,0.2-0.6,0.3s-0.5,0.1-0.7,0.1c-0.5,0-1-0.1-1.3-0.5c-0.3-0.3-0.4-0.7-0.4-1.2v-4.1
				h-1.2v-0.5h1.2v-1.4h0.6v1.4h2v0.5h-2v4c0,0.4,0.1,0.7,0.3,0.9c0.2,0.2,0.5,0.3,0.9,0.3s0.7-0.1,1-0.4
				C62,25.4,62.2,25.8,62.2,25.8z"/>
			<path class="st0" d="M67.8,20.5c0.4,0.4,0.6,1,0.6,1.8v4h-0.6v-1.1c-0.2,0.4-0.5,0.6-0.9,0.9c-0.4,0.2-0.8,0.3-1.4,0.3
				c-0.7,0-1.2-0.2-1.7-0.5s-0.6-0.8-0.6-1.3s0.2-0.9,0.6-1.3c0.4-0.3,1-0.5,1.8-0.5h2.2v-0.5c0-0.6-0.2-1-0.5-1.3
				c-0.3-0.3-0.8-0.5-1.4-0.5c-0.4,0-0.8,0.1-1.2,0.2c-0.4,0.1-0.7,0.3-1,0.6l-0.3-0.4c0.3-0.3,0.7-0.5,1.1-0.6
				c0.4-0.2,0.9-0.2,1.4-0.2C66.8,19.9,67.4,20.1,67.8,20.5L67.8,20.5z M67,25.4c0.4-0.2,0.6-0.6,0.8-1v-1.2h-2.1
				c-0.6,0-1.1,0.1-1.3,0.3c-0.3,0.2-0.4,0.5-0.4,0.9s0.2,0.7,0.5,1c0.3,0.2,0.7,0.4,1.3,0.4C66.2,25.7,66.6,25.6,67,25.4z M67,17.5
				h0.9l-1.9,1.4h-0.7L67,17.5z"/>
			<path class="st0" d="M77.9,20.5c0.4,0.4,0.6,1,0.6,1.8v4h-0.6v-1.1c-0.2,0.4-0.5,0.6-0.9,0.9c-0.4,0.2-0.8,0.3-1.4,0.3
				c-0.7,0-1.2-0.2-1.7-0.5s-0.6-0.8-0.6-1.3s0.2-0.9,0.6-1.3c0.4-0.3,1-0.5,1.8-0.5h2.2v-0.5c0-0.6-0.2-1-0.5-1.3
				c-0.3-0.3-0.8-0.5-1.4-0.5c-0.4,0-0.8,0.1-1.2,0.2c-0.4,0.1-0.7,0.3-1,0.6l-0.3-0.4c0.3-0.3,0.7-0.5,1.1-0.6
				c0.4-0.2,0.9-0.2,1.4-0.2C76.9,19.9,77.4,20.1,77.9,20.5L77.9,20.5z M77.1,25.4c0.4-0.2,0.6-0.6,0.8-1v-1.2h-2.1
				c-0.6,0-1.1,0.1-1.3,0.3C74.1,23.7,74,24,74,24.4s0.2,0.7,0.5,1c0.3,0.2,0.7,0.4,1.3,0.4C76.3,25.7,76.7,25.6,77.1,25.4z"/>
			<path class="st0" d="M88.8,20.3c0.5,0.3,0.8,0.6,1.1,1.1s0.4,1,0.4,1.6s-0.1,1.2-0.4,1.6s-0.6,0.9-1.1,1.1s-1,0.4-1.6,0.4
				c-0.6,0-1.1-0.1-1.5-0.4s-0.8-0.6-1-1.1v3.8h-0.6v-8.6h0.6v1.5c0.2-0.5,0.6-0.9,1.1-1.1c0.4-0.3,1-0.4,1.5-0.4S88.3,20,88.8,20.3
				L88.8,20.3z M88.5,25.3c0.4-0.2,0.7-0.5,0.9-0.9s0.3-0.9,0.3-1.4s-0.1-1-0.3-1.4c-0.2-0.4-0.5-0.7-0.9-0.9
				c-0.4-0.2-0.8-0.3-1.3-0.3s-0.9,0.1-1.3,0.3c-0.4,0.2-0.7,0.5-0.9,0.9s-0.3,0.9-0.3,1.4s0.1,1,0.3,1.4c0.2,0.4,0.5,0.7,0.9,0.9
				c0.4,0.2,0.8,0.3,1.3,0.3S88.1,25.6,88.5,25.3z"/>
			<path class="st0" d="M97.6,19.9v6.3h-0.6v-1.3c-0.2,0.4-0.5,0.8-0.9,1c-0.4,0.2-0.9,0.4-1.4,0.4c-0.8,0-1.5-0.2-1.9-0.7
				c-0.5-0.5-0.7-1.1-0.7-2v-3.7h0.6v3.6c0,0.7,0.2,1.2,0.5,1.6s0.9,0.5,1.5,0.5c0.7,0,1.3-0.2,1.7-0.7c0.4-0.4,0.6-1,0.6-1.8v-3.3
				L97.6,19.9L97.6,19.9z"/>
			<path class="st0" d="M105.1,20.5c0.5,0.5,0.7,1.1,0.7,2v3.7h-0.6v-3.6c0-0.7-0.2-1.2-0.5-1.6c-0.4-0.4-0.8-0.5-1.5-0.5
				c-0.7,0-1.3,0.2-1.7,0.7s-0.6,1-0.6,1.8v3.3h-0.6v-6.3h0.6v1.4c0.2-0.4,0.5-0.8,1-1s0.9-0.4,1.5-0.4
				C104,19.9,104.6,20.1,105.1,20.5L105.1,20.5z"/>
			<path class="st0" d="M111.4,25.8c-0.2,0.1-0.3,0.2-0.6,0.3s-0.5,0.1-0.7,0.1c-0.5,0-1-0.1-1.3-0.5c-0.3-0.3-0.4-0.7-0.4-1.2v-4.1
				h-1.2v-0.5h1.2v-1.4h0.6v1.4h2v0.5h-2v4c0,0.4,0.1,0.7,0.3,0.9c0.2,0.2,0.5,0.3,0.9,0.3s0.7-0.1,1-0.4L111.4,25.8z"/>
			<path class="st0" d="M113.6,25.8c-0.5-0.3-0.8-0.6-1.1-1.1c-0.3-0.5-0.4-1-0.4-1.6s0.1-1.1,0.4-1.6c0.3-0.5,0.7-0.9,1.1-1.1
				c0.5-0.3,1-0.4,1.6-0.4s1.1,0.1,1.6,0.4s0.8,0.6,1.1,1.1c0.3,0.5,0.4,1,0.4,1.6s-0.1,1.1-0.4,1.6c-0.3,0.5-0.7,0.9-1.1,1.1
				s-1,0.4-1.6,0.4S114.1,26.1,113.6,25.8z M116.5,25.3c0.4-0.2,0.7-0.5,0.9-0.9s0.3-0.9,0.3-1.4s-0.1-1-0.3-1.4
				c-0.2-0.4-0.5-0.7-0.9-0.9c-0.4-0.2-0.8-0.3-1.3-0.3s-0.9,0.1-1.3,0.3c-0.4,0.2-0.7,0.5-0.9,0.9s-0.3,0.9-0.3,1.4s0.1,1,0.3,1.4
				c0.2,0.4,0.5,0.7,0.9,0.9c0.4,0.2,0.8,0.3,1.3,0.3S116.2,25.6,116.5,25.3z"/>
			<path class="st0" d="M128.9,17.3v8.9h-0.6v-1.5c-0.2,0.5-0.6,0.9-1,1.1c-0.4,0.3-1,0.4-1.5,0.4s-1.1-0.1-1.6-0.4
				s-0.8-0.6-1.1-1.1c-0.3-0.5-0.4-1-0.4-1.6s0.1-1.2,0.4-1.6c0.3-0.5,0.6-0.9,1.1-1.1c0.5-0.3,1-0.4,1.6-0.4s1.1,0.1,1.5,0.4
				s0.8,0.6,1.1,1.1v-4.1L128.9,17.3L128.9,17.3z M127.1,25.3c0.4-0.2,0.7-0.5,0.9-0.9s0.3-0.9,0.3-1.4s-0.1-1-0.3-1.4
				c-0.2-0.4-0.5-0.7-0.9-0.9c-0.4-0.2-0.8-0.3-1.3-0.3s-0.9,0.1-1.3,0.3c-0.4,0.2-0.7,0.5-0.9,0.9s-0.3,0.9-0.3,1.4s0.1,1,0.3,1.4
				c0.2,0.4,0.5,0.7,0.9,0.9c0.4,0.2,0.8,0.3,1.3,0.3S126.7,25.6,127.1,25.3z"/>
			<path class="st0" d="M136.7,23.2h-5.4c0,0.5,0.1,0.9,0.4,1.3s0.6,0.7,0.9,0.9c0.4,0.2,0.8,0.3,1.3,0.3c0.4,0,0.8-0.1,1.1-0.2
				s0.6-0.4,0.9-0.6l0.4,0.4c-0.3,0.3-0.6,0.6-1,0.8c-0.4,0.2-0.9,0.3-1.3,0.3c-0.6,0-1.2-0.1-1.7-0.4s-0.9-0.6-1.1-1.1
				s-0.4-1-0.4-1.6s0.1-1.1,0.4-1.6c0.3-0.5,0.6-0.9,1.1-1.1c0.5-0.3,1-0.4,1.5-0.4s1.1,0.1,1.5,0.4s0.8,0.6,1.1,1.1
				c0.3,0.5,0.4,1,0.4,1.6L136.7,23.2L136.7,23.2z M132.5,20.7c-0.4,0.2-0.6,0.5-0.9,0.8c-0.2,0.4-0.3,0.8-0.4,1.2h4.8
				c0-0.5-0.1-0.9-0.4-1.2s-0.5-0.6-0.9-0.8s-0.8-0.3-1.2-0.3S132.9,20.5,132.5,20.7L132.5,20.7z"/>
			<path class="st0" d="M21.7,40.2c-0.5-0.3-0.9-0.7-1.2-1.2s-0.4-1.1-0.4-1.7s0.1-1.2,0.4-1.7s0.7-0.9,1.2-1.2s1.1-0.4,1.8-0.4
				c0.6,0,1.2,0.1,1.7,0.4c0.5,0.3,0.8,0.6,1.1,1.1l-1.1,0.7c-0.2-0.3-0.4-0.5-0.7-0.7c-0.3-0.2-0.6-0.2-0.9-0.2
				c-0.6,0-1,0.2-1.4,0.5c-0.4,0.4-0.5,0.8-0.5,1.5s0.2,1.1,0.5,1.5c0.4,0.4,0.8,0.5,1.4,0.5c0.3,0,0.6-0.1,0.9-0.2s0.5-0.4,0.7-0.7
				l1.1,0.7c-0.2,0.5-0.6,0.8-1.1,1.1c-0.5,0.3-1,0.4-1.6,0.4C22.9,40.7,22.3,40.5,21.7,40.2L21.7,40.2z"/>
			<path class="st0" d="M32.2,34.8c0.5,0.5,0.8,1.1,0.8,2v3.8h-1.4v-0.8c-0.2,0.3-0.5,0.5-0.8,0.6c-0.3,0.2-0.8,0.2-1.2,0.2
				s-0.9-0.1-1.3-0.2c-0.4-0.2-0.6-0.4-0.8-0.7c-0.2-0.3-0.3-0.6-0.3-1c0-0.6,0.2-1,0.6-1.4s1.1-0.5,2-0.5h1.7v-0.1
				c0-0.5-0.1-0.8-0.4-1c-0.3-0.2-0.7-0.4-1.2-0.4c-0.4,0-0.7,0.1-1.1,0.2c-0.4,0.1-0.6,0.3-0.9,0.5l-0.6-1.1
				c0.3-0.3,0.7-0.5,1.2-0.6c0.5-0.1,1-0.2,1.5-0.2C31,34.1,31.7,34.3,32.2,34.8L32.2,34.8z M30.8,39.3c0.3-0.2,0.5-0.4,0.6-0.7
				v-0.7h-1.5c-0.9,0-1.3,0.3-1.3,0.8c0,0.3,0.1,0.5,0.3,0.7c0.2,0.2,0.5,0.2,0.9,0.2S30.5,39.5,30.8,39.3L30.8,39.3z"/>
			<path class="st0" d="M44.9,34.8c0.5,0.5,0.7,1.2,0.7,2.1v3.7h-1.5v-3.5c0-0.6-0.1-1-0.4-1.3c-0.2-0.3-0.6-0.4-1.1-0.4
				c-0.5,0-0.9,0.2-1.2,0.5S41,36.7,41,37.3v3.2h-1.5v-3.5c0-0.6-0.1-1-0.4-1.3c-0.2-0.3-0.6-0.4-1.1-0.4c-0.5,0-0.9,0.2-1.2,0.5
				c-0.3,0.3-0.5,0.8-0.5,1.4v3.2h-1.5v-6.4h1.4V35c0.2-0.3,0.5-0.5,0.9-0.7s0.8-0.2,1.2-0.2c0.5,0,0.9,0.1,1.3,0.3s0.7,0.5,0.9,0.8
				c0.3-0.3,0.6-0.6,1-0.8c0.4-0.2,0.9-0.3,1.4-0.3C43.7,34.1,44.4,34.3,44.9,34.8L44.9,34.8z"/>
			<path class="st0" d="M52.7,34.5c0.5,0.3,0.9,0.7,1.2,1.2c0.3,0.5,0.4,1.1,0.4,1.7s-0.1,1.2-0.4,1.7s-0.7,0.9-1.2,1.2
				s-1,0.4-1.7,0.4c-0.4,0-0.8-0.1-1.2-0.2c-0.4-0.2-0.7-0.4-0.9-0.7v0.8h-1.4v-8.9H49V35c0.3-0.3,0.6-0.5,0.9-0.6
				c0.3-0.1,0.7-0.2,1.2-0.2C51.7,34.1,52.2,34.2,52.7,34.5L52.7,34.5z M52.2,38.8c0.4-0.4,0.5-0.8,0.5-1.5s-0.2-1.1-0.5-1.5
				c-0.4-0.4-0.8-0.5-1.4-0.5c-0.4,0-0.7,0.1-1,0.2s-0.5,0.4-0.7,0.7C49,36.6,49,37,49,37.4s0.1,0.8,0.2,1.1s0.4,0.5,0.7,0.7
				s0.6,0.2,1,0.2C51.4,39.4,51.9,39.2,52.2,38.8L52.2,38.8z"/>
			<path class="st0" d="M55.8,32.8c-0.2-0.2-0.3-0.4-0.3-0.6c0-0.2,0.1-0.5,0.3-0.6c0.2-0.2,0.4-0.3,0.7-0.3s0.5,0.1,0.7,0.2
				c0.2,0.2,0.3,0.4,0.3,0.6c0,0.3-0.1,0.5-0.3,0.7s-0.4,0.3-0.7,0.3S56,33,55.8,32.8L55.8,32.8z M55.7,34.2h1.5v6.4h-1.5
				C55.7,40.6,55.7,34.2,55.7,34.2z"/>
			<path class="st0" d="M63.8,34.8c0.5,0.5,0.8,1.1,0.8,2v3.8h-1.4v-0.8c-0.2,0.3-0.5,0.5-0.8,0.6c-0.3,0.2-0.8,0.2-1.2,0.2
				s-0.9-0.1-1.3-0.2c-0.4-0.2-0.6-0.4-0.8-0.7c-0.2-0.3-0.3-0.6-0.3-1c0-0.6,0.2-1,0.6-1.4s1.1-0.5,2-0.5H63v-0.1
				c0-0.5-0.1-0.8-0.4-1c-0.3-0.2-0.7-0.4-1.2-0.4c-0.4,0-0.7,0.1-1.1,0.2c-0.3,0.1-0.6,0.3-0.9,0.5l-0.6-1.1
				c0.3-0.3,0.7-0.5,1.2-0.6c0.5-0.1,1-0.2,1.5-0.2C62.6,34.1,63.3,34.3,63.8,34.8L63.8,34.8z M62.4,39.3c0.3-0.2,0.5-0.4,0.6-0.7
				v-0.7h-1.5c-0.9,0-1.3,0.3-1.3,0.8c0,0.3,0.1,0.5,0.3,0.7c0.2,0.2,0.5,0.2,0.9,0.2S62.1,39.5,62.4,39.3L62.4,39.3z"/>
			<path class="st0" d="M70.2,34.1v1.4c-0.1,0-0.2,0-0.3,0c-0.6,0-1,0.2-1.4,0.5S68,36.8,68,37.5v3.1h-1.5v-6.4h1.4v0.9
				C68.3,34.4,69.1,34.1,70.2,34.1z"/>
			<path class="st0" d="M75.3,40.4c-0.5-0.1-0.9-0.3-1.2-0.5l0.6-1.1c0.3,0.2,0.6,0.3,1,0.5c0.4,0.1,0.8,0.2,1.2,0.2
				c0.9,0,1.3-0.2,1.3-0.7c0-0.2-0.1-0.4-0.3-0.5s-0.6-0.2-1.1-0.2c-0.5-0.1-1-0.2-1.3-0.3c-0.3-0.1-0.6-0.3-0.9-0.5
				s-0.4-0.6-0.4-1.1c0-0.6,0.2-1.1,0.8-1.5c0.5-0.4,1.2-0.5,2.1-0.5c0.4,0,0.9,0,1.3,0.2c0.4,0.1,0.8,0.2,1.1,0.4l-0.6,1.1
				c-0.5-0.3-1.2-0.5-1.8-0.5c-0.4,0-0.8,0.1-1,0.2s-0.3,0.3-0.3,0.5c0,0.2,0.1,0.4,0.4,0.5c0.2,0.1,0.6,0.2,1.1,0.3
				c0.5,0.1,0.9,0.2,1.3,0.3s0.6,0.3,0.8,0.5s0.3,0.6,0.3,1.1c0,0.6-0.3,1.1-0.8,1.4s-1.2,0.5-2.1,0.5
				C76.3,40.6,75.8,40.6,75.3,40.4L75.3,40.4z"/>
			<path class="st0" d="M87.2,34.2v6.4h-1.4v-0.8c-0.2,0.3-0.5,0.5-0.9,0.7s-0.8,0.2-1.2,0.2c-0.9,0-1.5-0.2-2-0.7
				c-0.5-0.5-0.7-1.2-0.7-2.1v-3.7h1.5v3.5c0,0.6,0.1,1,0.4,1.3c0.3,0.3,0.6,0.4,1.1,0.4c0.5,0,1-0.2,1.3-0.5s0.5-0.8,0.5-1.4v-3.2
				L87.2,34.2L87.2,34.2z"/>
			<path class="st0" d="M98.5,34.2l-2.8,6.4h-1.6l-2.8-6.4H93l2,4.8l2.1-4.8H98.5L98.5,34.2z"/>
			<path class="st0" d="M99.5,32.8c-0.2-0.2-0.3-0.4-0.3-0.6c0-0.2,0.1-0.5,0.3-0.6c0.2-0.2,0.4-0.3,0.7-0.3s0.5,0.1,0.7,0.2
				c0.2,0.2,0.3,0.4,0.3,0.6c0,0.3-0.1,0.5-0.3,0.7s-0.4,0.3-0.7,0.3S99.7,33,99.5,32.8L99.5,32.8z M99.4,34.2h1.5v6.4h-1.5
				C99.4,40.6,99.4,34.2,99.4,34.2z"/>
			<path class="st0" d="M109.2,31.7v8.9h-1.4v-0.8c-0.2,0.3-0.6,0.5-0.9,0.7c-0.4,0.2-0.8,0.2-1.2,0.2c-0.6,0-1.2-0.1-1.7-0.4
				c-0.5-0.3-0.9-0.7-1.2-1.2c-0.3-0.5-0.4-1.1-0.4-1.7s0.1-1.2,0.4-1.7s0.7-0.9,1.2-1.2c0.5-0.3,1.1-0.4,1.7-0.4
				c0.4,0,0.8,0.1,1.2,0.2c0.4,0.1,0.7,0.4,0.9,0.6v-3.3L109.2,31.7L109.2,31.7z M106.8,39.1c0.3-0.2,0.5-0.4,0.7-0.7
				c0.2-0.3,0.2-0.7,0.2-1.1s-0.1-0.8-0.2-1.1c-0.2-0.3-0.4-0.5-0.7-0.7s-0.6-0.2-1-0.2s-0.7,0.1-1,0.2c-0.3,0.2-0.5,0.4-0.7,0.7
				c-0.2,0.3-0.2,0.7-0.2,1.1s0.1,0.8,0.2,1.1c0.2,0.3,0.4,0.5,0.7,0.7c0.3,0.2,0.6,0.2,1,0.2S106.5,39.3,106.8,39.1z"/>
			<path class="st0" d="M115.7,34.8c0.5,0.5,0.8,1.1,0.8,2v3.8h-1.4v-0.8c-0.2,0.3-0.4,0.5-0.8,0.6c-0.3,0.2-0.8,0.2-1.2,0.2
				s-0.9-0.1-1.3-0.2c-0.4-0.2-0.6-0.4-0.8-0.7c-0.2-0.3-0.3-0.6-0.3-1c0-0.6,0.2-1,0.6-1.4s1.1-0.5,2-0.5h1.7v-0.1
				c0-0.5-0.1-0.8-0.4-1c-0.3-0.2-0.7-0.4-1.2-0.4c-0.4,0-0.7,0.1-1.1,0.2c-0.3,0.1-0.6,0.3-0.9,0.5l-0.6-1.1
				c0.3-0.3,0.7-0.5,1.2-0.6s1-0.2,1.5-0.2C114.5,34.1,115.3,34.3,115.7,34.8L115.7,34.8z M114.4,39.3c0.3-0.2,0.5-0.4,0.6-0.7v-0.7
				h-1.6c-0.9,0-1.3,0.3-1.3,0.8c0,0.3,0.1,0.5,0.3,0.7c0.2,0.2,0.5,0.2,0.9,0.2S114.1,39.5,114.4,39.3L114.4,39.3z"/>
			<path class="st0" d="M118.2,40.4c-0.2-0.2-0.3-0.4-0.3-0.7s0.1-0.5,0.3-0.7s0.4-0.3,0.7-0.3s0.5,0.1,0.7,0.3s0.3,0.4,0.3,0.7
				s-0.1,0.5-0.3,0.7c-0.2,0.2-0.4,0.3-0.7,0.3S118.4,40.6,118.2,40.4L118.2,40.4z"/>
		</g>
	</g>
</g>
</svg>
