<?xml version="1.0" encoding="UTF-8"?><svg xmlns="http://www.w3.org/2000/svg" viewBox="0 0 171.23 221.33"><defs><style>.d{fill:#fff;}</style></defs><g id="a"/><g id="b"><g id="c"><path class="d" d="M128.19,182.52c-3.1,7.2-9.42,9.87-18.08,8.58-8.19-1.22-16.29-3.2-24.7-2.65-5.47,.36-10.46,1.91-14.82,5.2-7.29,5.51-8.22,17.92-1.83,23.28,3.77,3.16,8.88,2.76,13.1-1.02,3.84-3.43,5.49-10.23,3.06-13.51-1.71-2.31-4-3.44-6.96-1.96-3.09,1.54-3.6,4.13-3.06,7.15,.44,2.49,2.54,1.32,4.61,1.3-2.67,3.36-4.66,2.76-6.2,.1-1.95-3.36,.09-8.96,3.52-10.28,4.67-1.8,9.51,.07,10.61,4.42,1.3,5.17,.4,10.13-3.74,13.71-3.67,3.17-7.85,5.91-13.14,3.67-5.22-2.2-7.22-6.69-7.68-11.91-1.06-11.98,8.33-21.52,21.69-22.14,6.82-.31,13.6-.16,20.31,1.46,4.56,1.11,9.28,.77,13.91,.37,3.97-.34,6.84-2.88,9.41-5.79Z"/><path class="d" d="M159.71,91.61c-3.41,.23-6.59,2.85-11.25,.9,5.49-1.83,10.55-2.34,14.27-5.84,3.59-.93,5.78-3.83,8.5-6.05-1.7,5.94-7.24,7.81-11.53,10.99Z"/><path class="d" d="M151.7,98.68c-1.06-.23-2.35,.06-3.18-1.75,3.1-.98,6.47,.36,9.18-1.44,4.17,.21,7.92-1.89,12.03-2.15-5.42,3.77-11.57,5.08-18.03,5.34Z"/><path class="d" d="M154.69,103.66c-1.36-.71-4.16,1.16-4.01-2.25,5.92,.04,11.86,.71,17.79-.43-4.15,3.34-9.11,2.29-13.78,2.67Z"/><path class="d" d="M20.68,152.62c1.05,1.3,2.09,2.6,3.14,3.9,.22,6.86-1.16,9.37-5.76,10.41-3.92,.88-6.45-1.11-7.95-4.37-.77-1.67-.68-3.71,2.67-4.15-2.05,3.09-1.01,5.15,1.83,6.38,3.56,1.54,5.61-.48,7.26-3.29,.03-.55,.16-3.71-2.18-5.96-1.76-1.69-3.91-1.9-5-2-2.78-.26-4.91,.73-5.8,1.21-4.73,2.7-7.81,6.68-6.71,12.19,1.14,5.73,5.69,8.74,11.03,10.39,8.5,2.62,16.73,.2,25.02-1.44,3.76-.75,7.36-2.59,11.39-1.66-12.84,4.17-25.86,8.89-39.46,4.87-6.82-2.01-13.48-10.01-8.35-20.6,1.49-2.58,4.28-3.79,6.22-5.91,4.22-1.26,8.43-1.45,12.64,.03Z"/><path class="d" d="M154.69,47.54c-5.05,.93-6.49,2.24-10.39,3.32-2.36,.65-5.9,1.3-10.61,.92-2.53-.64-4.74-1.74-6.04-4.17,.12-.15,.3-.33,.55-.36,.64-.08,1.21,.91,1.48,1.29,.87,1.2,2.51,1.43,5.08,1.78,4.16,.57,8.27-.35,9.92-.78,1.54-.63,3.24-1.24,5.07-1.82,1.73-.54,3.38-.97,4.93-1.32,4.1-1.13,8.17-1.27,12.27,.14-1.63,0-3.77,.04-6.27,.24-1.03,.09-3.53,.3-6,.75Z"/><path class="d" d="M149.56,73.56c.42-4.6,.37-9.13-2.37-13.53,3.35,.31,3.07,3.2,4.51,4.55,1.13,9.43-1.54,17.16-9.96,22.26,2.47-4.49,6.88-7.85,7.83-13.28Z"/><path class="d" d="M145.86,88.82c9.57-2.6,13.76-9.57,15.59-19.14,2.91,9.48-5.91,19.94-15.59,19.14Z"/><path class="d" d="M11.86,98.69c-4.39-1.37-8.91-2.53-11.46-7.15,7.26,4.51,15.02,6.37,23.44,5.03-1.33,3.54-4.46,2.71-7.11,2.79-1.61,.04-3.24-.43-4.86-.67Z"/><path class="d" d="M24.12,106.47c-4.16,3.61-9.13,3.31-14.07,3.21,4.66-1.24,9.41-2.06,14.07-3.21Z"/><path class="d" d="M7.88,101.5c.19,0,.47,.02,.81,.04,4.13,.23,6.48,.69,8.18,.85,1.73,.17,4.24,.17,7.44-.65-3.67,2.4-14.62,2.66-17.27,.68-.08-.06-.1-.39-.03-.44,.26-.19,.57-.33,.86-.48Z"/><path class="d" d="M128.79,47.57l-1.12,.04c-4.61-6.88-4.31-11.72,1.1-17.91,10.26-2.77,14.99,4.34,13.95,10.02-.57,3.12-2.18,5.45-5.41,5.54-3.08,.08-5.22-2-6.34-4.79-.55-1.38-.53-3.04,.87-4.1,1.25-.95,2.46-.75,3.42,.75-.41,1.64-3.78-.31-3.18,2.43,.38,1.74,1.7,2.85,3.22,3.57,1.7,.8,3.26,.28,4.46-1.14,1.61-1.91,2.42-4,.95-6.37-1.93-3.12-4.32-5.66-8.41-4.83-3.28,.66-5.83,2.39-6.45,6.01-.69,4.04,.92,7.47,2.96,10.78Z"/><path class="d" d="M13.84,63.61c-.7,5.15,.38,8.91,1.11,10.84,.87,2.31,1.98,3.95,2.74,5.08,1.79,2.66,3.58,4.39,6.79,7.46,1.57,1.5,3.04,2.82,4.37,3.97-3.93-1.81-6.8-3.88-8.67-5.44-2.44-2.03-4.57-3.8-6.22-6.96-.66-1.26-1.97-3.84-2-7.46-.03-3.55,1.19-6.21,1.88-7.49Z"/><path class="d" d="M26.39,92.82c-8.64,3.87-19.1-2.95-21.15-12.98,5.04,7.59,10.64,13.32,21.15,12.98Z"/><path class="d" d="M161.69,188.54c-.67-.19-.91-.12-1,0-.64,.87,5.2,6.5,4.61,8.03-.24,.63-.71,.94-.71,.94-1.15,.87-2.02-.7-2.79-1.47-1.95-1.93-3.78-4.22-2.8-7.01,.71-2.05,1.89,1.4,3.48,.05-1.26-1.49-2.4-2.7-3.39-4.02-1.1-1.47-2.29-1.59-3.05,.03-1.84,3.95-3.25,8.07-1.69,12.48,.95,2.68,3.25,4.23,5.83,3.58,2.09-.52,5.14,1.09,6.18-1.47,0,0,.54-1.05,.48-2.55-.07-1.57-1.81-4.94-5.15-8.59Zm-1.3,10.52c-1.47,.9-3.19,.35-4.39-1.2-2.1-2.73-.2-5.37,.03-9.12,1.59,3.11,2.63,5.15,3.68,7.18,.53,1.02,2.53,2.01,.68,3.14Z"/><path class="d" d="M36.21,21.18c-1.7-4.05-4.39-7.35-7.4-10.46-2.67-.55-6.76,3.26-7.94-2.53l-1.18,.35c1.41,1.71,1.79,3.16,1.88,4.16,.07,.78,.41,1.04-.2,3.11-1.1,3.74,.72,5.99,3.95,7.47,2.77,1.27,5.69,1.6,8.71,1.45,2.55-.13,3.16-1.22,2.18-3.55Zm-12.67-4.79c2.79,2.19,5.47,4.3,8.25,6.49-7.26-.16-8.98-1.47-8.25-6.49Zm2.35-.23c-.75-.77-2.04-1.61-.69-2.86,.96-.89,2.25-.89,3.26-.22,2.84,1.88,4.86,4.4,5.74,8.59-3.81-1.15-6.13-3.24-8.31-5.51Z"/><path class="d" d="M26.69,127.54c1.02,1.81,1.24,3.49,.54,4.14-.33,.31-.81,.34-.83,.34-.79,0-1.38-.95-2.04-1.42-2.13-1.46-4.25-2.95-6.81-4.72,3.83-.84,6.49,1.2,9.43,1.86,.02-.42,.03-.83,.04-1.25-3.43-1.99-7.29-2.39-11.11-2.9-2.5,1.06-3.74,2.49-1.95,5.26,.88,1.36,1.34,3,1.98,4.51,2.28,1.55,3.98,5.24,6.7,4.53,3.55-.93,5.34-.41,6.37,2.61,.24-.2,.54-.51,.68-.96,.34-1.07-.52-1.94-1-3-1.15-2.56,.97-3.9,0-7-.52-1.67-1.71-3.12-2-3-.15,.06-.08,.58,0,1Zm-1.84,8.06c-1.37,1.45-3.05,.99-4.47-.19-2.48-2.05-3.64-4.93-5.32-8.33,3.73,1.03,6.22,2.89,8.6,4.88,1.05,.88,2.74,2,1.19,3.64Z"/><g><path class="d" d="M47.01,60.83c.91,1.12,1.33,2.62,1.25,4.52s-.61,3.36-1.6,4.39c-.99,1.04-2.33,1.52-4.01,1.46l-3.53-.14-.22,5.6-1.39-.05,.69-17.74,4.92,.19c1.68,.07,2.97,.66,3.88,1.78Zm-1.3,7.68c.72-.74,1.1-1.81,1.16-3.22s-.25-2.55-.9-3.35c-.66-.8-1.64-1.22-2.94-1.27l-3.49-.14-.34,8.87,3.49,.14c1.3,.05,2.31-.29,3.03-1.04Z"/><path class="d" d="M60.17,75.85l-.06,1.62-9.29-.36,.69-17.74,9.01,.35-.06,1.62-7.62-.3-.25,6.31,6.8,.26-.06,1.6-6.8-.26-.26,6.59,7.9,.31Z"/><path class="d" d="M64.21,77.15c-.88-.46-1.55-1.04-2.01-1.75l.6-1.42c.45,.66,1.06,1.2,1.84,1.63,.77,.43,1.58,.66,2.42,.69,1.18,.05,2.07-.21,2.68-.77,.61-.56,.93-1.3,.97-2.23,.03-.71-.11-1.28-.41-1.72-.3-.43-.68-.78-1.14-1.02-.45-.25-1.09-.52-1.9-.82-.98-.38-1.75-.73-2.33-1.07-.58-.34-1.06-.83-1.46-1.49-.39-.66-.57-1.54-.53-2.63,.03-.9,.24-1.7,.62-2.42,.38-.72,.94-1.29,1.68-1.7,.74-.41,1.65-.6,2.73-.55,.75,.03,1.48,.2,2.19,.5,.71,.31,1.32,.72,1.82,1.23l-.53,1.48c-.53-.51-1.11-.9-1.72-1.17-.62-.27-1.22-.42-1.83-.44-1.15-.04-2.03,.22-2.64,.8-.61,.58-.93,1.34-.96,2.28-.03,.71,.11,1.29,.41,1.73s.69,.79,1.16,1.04c.47,.25,1.11,.52,1.91,.82,.95,.36,1.72,.71,2.3,1.04,.58,.34,1.07,.83,1.46,1.48s.56,1.52,.52,2.6c-.03,.9-.25,1.7-.63,2.42-.39,.72-.96,1.28-1.71,1.68-.76,.4-1.67,.58-2.75,.54-.98-.04-1.9-.29-2.78-.74Z"/><path class="d" d="M77.91,62.03l-4.62-.18,.06-1.62,10.63,.41-.06,1.62-4.62-.18-.63,16.12-1.39-.05,.63-16.12Z"/><path class="d" d="M93.28,74.02l-7.32-.28-1.76,4.68-1.45-.06,6.7-17.51,1.37,.05,5.32,17.97-1.46-.06-1.39-4.8Zm-.45-1.54l-2.78-9.65-3.52,9.41,6.31,.25Z"/><path class="d" d="M109.99,61.65l-.69,17.74-1.15-.04-7.89-14.72-.56,14.39-1.39-.05,.69-17.74,1.15,.04,7.91,14.72,.56-14.39,1.37,.05Zm-4.92-2.06c-.22-.19-.45-.44-.7-.78-.22-.26-.39-.45-.51-.57-.13-.11-.27-.18-.42-.18-.29-.01-.53,.12-.71,.4-.19,.28-.3,.67-.33,1.18l-.81-.03c.06-.84,.25-1.51,.57-2.01,.32-.5,.73-.73,1.23-.71,.29,.01,.54,.11,.75,.28,.21,.18,.46,.44,.73,.79,.19,.24,.35,.43,.49,.55,.13,.12,.27,.19,.42,.19,.28,.01,.51-.12,.69-.39,.19-.27,.3-.65,.35-1.14l.81,.03c-.06,.83-.25,1.48-.57,1.97-.32,.49-.73,.72-1.23,.7-.29-.01-.54-.11-.76-.3Z"/><path class="d" d="M122.01,75.14l-7.32-.28-1.76,4.68-1.45-.06,6.7-17.51,1.37,.05,5.32,17.97-1.46-.06-1.39-4.8Zm-.45-1.54l-2.78-9.65-3.52,9.41,6.31,.25Z"/><path class="d" d="M127.88,79.63c-.88-.46-1.55-1.04-2.01-1.75l.6-1.42c.45,.66,1.06,1.2,1.84,1.63,.77,.43,1.58,.66,2.42,.69,1.18,.05,2.07-.21,2.68-.77,.61-.56,.93-1.3,.97-2.23,.03-.71-.11-1.28-.41-1.72-.3-.43-.68-.78-1.14-1.02-.45-.25-1.09-.52-1.9-.82-.98-.38-1.75-.73-2.33-1.07-.58-.34-1.06-.83-1.46-1.49-.39-.66-.57-1.54-.53-2.63,.03-.9,.24-1.7,.62-2.42s.94-1.29,1.68-1.7c.74-.41,1.65-.6,2.73-.55,.75,.03,1.48,.2,2.19,.5,.71,.31,1.32,.72,1.82,1.23l-.53,1.48c-.53-.51-1.11-.9-1.72-1.17-.62-.27-1.22-.42-1.83-.44-1.15-.04-2.03,.22-2.64,.8-.61,.58-.93,1.34-.96,2.28-.03,.71,.11,1.29,.41,1.73s.69,.79,1.16,1.04c.47,.25,1.11,.52,1.91,.82,.95,.36,1.72,.71,2.3,1.04,.58,.34,1.07,.83,1.46,1.48,.39,.65,.56,1.52,.52,2.6-.03,.9-.24,1.7-.63,2.42s-.96,1.28-1.71,1.68c-.76,.4-1.67,.58-2.75,.54-.98-.04-1.9-.29-2.78-.74Z"/></g><path class="d" d="M27.93,62.05c.48-.3,1.14-.77,1.77-1.51,.77-.9,1.17-1.8,1.37-2.39,.88-3.18,.12-6.33-1.81-8.42-.91-.98-2.19-1.59-3.95-1.99-3.92-.88-6.45,1.11-7.95,4.37-.77,1.67-.68,3.71,2.67,4.15-2.05-3.09-1.01-5.15,1.83-6.38,.55-.24,1.81-.79,3.27-.42,1.92,.49,3.25,2.32,3.56,4.07,.48,2.69-1.44,4.98-3,6-1.87,1.23-3.96,1.11-6,1-1.5-.08-2.72-.37-3.55-.61-4.73-2.7-7.81-6.68-6.71-12.19,1.14-5.73,5.69-8.74,11.03-10.39,8.5-2.62,16.73-.2,25.02,1.44,3.76,.75,7.36,2.59,11.39,1.66-12.84-4.17-25.86-8.89-39.46-4.87-6.82,2.01-13.48,10.01-8.35,20.6,1.49,2.58,4.28,3.79,6.22,5.91,4.22,1.26,8.43,1.45,12.64-.03Z"/><path class="d" d="M107.12,42.58c-2.58-7.41-8.69-10.51-17.42-9.85-8.25,.63-16.48,2.03-24.82,.88-5.43-.75-10.29-2.65-14.41-6.25-6.88-6.02-6.92-18.46-.16-23.35,3.98-2.88,9.05-2.12,12.99,1.95,3.58,3.7,4.75,10.59,2.09,13.69-1.87,2.19-4.24,3.14-7.09,1.46-2.98-1.75-3.29-4.38-2.54-7.35,.62-2.45,2.63-1.14,4.69-.97-2.42-3.55-4.45-3.08-6.18-.55-2.18,3.21-.55,8.94,2.78,10.51,4.53,2.13,9.5,.61,10.9-3.65,1.67-5.07,1.12-10.07-2.75-13.94-3.43-3.43-7.41-6.45-12.84-4.6-5.37,1.83-7.68,6.16-8.51,11.33-1.91,11.87,6.77,22.06,20.05,23.63,6.78,.8,13.55,1.13,20.36,0,4.63-.78,9.31-.1,13.9,.62,3.93,.62,6.62,3.36,8.97,6.44Z"/><g><path class="d" d="M39.02,101.44l-.07,.14c-.06,.11-.11,.21-.16,.32-.49,1.07-1.05,2.1-1.7,3.08-.19,.3-.42,.53-.69,.72-.27,.18-.59,.27-.97,.27-.58,0-1.02-.25-1.31-.73-.27-.49-.41-1-.42-1.55v-.21c0-.6,.09-1.31,.27-2.13s.44-1.61,.8-2.37c.36-.77,.8-1.4,1.33-1.91,.53-.51,1.15-.76,1.87-.76,.22,0,.46,.03,.71,.09,.57,.12,1.03,.43,1.4,.93l.13-.25c.11-.22,.22-.44,.34-.66,.08-.19,.2-.28,.36-.28,.07,0,.15,.02,.25,.05,.17,.07,.31,.16,.44,.27,.14,.12,.21,.26,.21,.41,0,.08-.02,.17-.05,.25-.36,.83-.67,1.78-.94,2.85-.27,1.08-.41,2.12-.41,3.14,0,.63,.06,1.21,.19,1.74,.07,.24,.18,.36,.34,.36,.3,0,.71-.32,1.24-.97,.53-.65,1.07-1.39,1.62-2.22s1.03-1.57,1.42-2.2c.25-.4,.43-.69,.55-.87,.14-.15,.3-.23,.48-.23,.17,0,.33,.06,.48,.18,.05,.05,.07,.1,.07,.14,0,.04,0,.07-.03,.11s-.04,.07-.06,.11l-.82,1.2c-.29,.41-.56,.82-.84,1.22-.74,1.11-1.51,2.19-2.32,3.24-.48,.67-1.13,1.07-1.96,1.18h-.18c-.49,0-.84-.23-1.08-.7-.22-.57-.36-1.15-.4-1.74-.03-.46-.06-.92-.07-1.38,0-.27,0-.55-.01-.83Zm-3.68,2.29c0,.19,0,.38,.02,.58s.05,.38,.1,.56c.02,.07,.04,.14,.03,.2,0,.05,0,.09,.02,.12s.05,.06,.11,.07h.02c.14,0,.39-.34,.76-1.01s.75-1.46,1.16-2.35c.41-.89,.78-1.71,1.11-2.46,.33-.75,.53-1.24,.62-1.46,.02-.07,.04-.15,.04-.23,0-.15-.05-.3-.16-.43-.11-.13-.24-.2-.41-.2h-.02c-.4,.03-.76,.18-1.07,.44-.47,.37-.84,.82-1.09,1.36-.74,1.51-1.15,3.11-1.24,4.8Z"/><path class="d" d="M46.05,113.89h-.12c-.65,0-1.11-.4-1.38-1.2s-.4-1.86-.4-3.19c0-1.82,.22-3.96,.63-6.42,.41-2.46,.9-4.9,1.46-7.31,.56-2.42,1.11-4.53,1.63-6.34s.92-3.02,1.19-3.65c.08-.24,.19-.45,.32-.66,.1-.15,.23-.23,.39-.23l.12,.02c.3,.07,.56,.24,.78,.5,.18,.17,.26,.34,.26,.52,0,.13-.05,.28-.14,.46-.44,1.02-1.06,3.17-1.84,6.46-.79,3.29-1.52,6.78-2.2,10.47s-1.03,6.44-1.03,8.25v.11c0,1.02,.15,1.53,.46,1.53,.13,0,.28-.09,.46-.28,.28-.31,.52-.65,.71-1.03,.86-1.59,1.63-3.24,2.32-4.94,.98-2.33,1.9-4.68,2.76-7.05,.04-.09,.07-.19,.11-.3,.06-.12,.11-.24,.14-.35,.01-.02,.02-.05,.04-.09,.06-.13,.15-.23,.26-.31,.11-.08,.23-.11,.36-.11,.12,0,.23,.04,.34,.13,.07,.05,.11,.11,.11,.18,0,.05-.01,.09-.04,.14-.01,.02-.02,.04-.02,.05-.26,.69-.52,1.37-.77,2.06-.08,.25-.17,.5-.27,.74-1.16,3.2-2.47,6.31-3.94,9.34-.3,.63-.67,1.19-1.11,1.7-.45,.51-.98,.78-1.6,.83Z"/><path class="d" d="M63.1,111.07h-.18c-.2-.04-.35-.12-.46-.25-.11-.13-.19-.29-.25-.48-.16-.57-.26-1.16-.3-1.78v-.02c-.11-1.5-.17-3.03-.16-4.6v-1.65c.04-2.31,.13-4.61,.3-6.9,.08-1.16,.18-2.32,.31-3.48,.01-.05,.02-.09,.02-.12,.19-1.49,.57-2.93,1.13-4.31,.12-.33,.3-.5,.55-.49,.12,0,.26,.03,.43,.09,.18,.07,.35,.16,.51,.27,.27,.15,.41,.35,.41,.59l-.05,.32c-.44,1.62-.79,3.26-1.03,4.93-.19,1.32-.33,2.65-.42,3.99-.15,2.06-.26,4.12-.32,6.17-.01,.62-.02,1.23-.02,1.85v1.85s.01,.1,.01,.16c.44-1.47,.93-2.91,1.47-4.32,1.7-4.74,3.74-9.33,6.13-13.77,.93-1.68,1.96-3.28,3.09-4.82,.11-.14,.23-.21,.36-.21,.07,0,.15,.02,.23,.05,.14,.07,.27,.15,.37,.23,.13,.11,.19,.21,.19,.3s-.05,.2-.14,.3c-1.87,2.63-3.48,5.43-4.84,8.39-1.88,3.99-3.53,8.08-4.94,12.26-.3,.93-.57,1.88-.81,2.84-.13,.53-.27,1.06-.41,1.58-.01,.02-.02,.05-.02,.09-.02,.13-.07,.27-.13,.41s-.17,.27-.32,.37-.39,.16-.71,.16Z"/><path class="d" d="M74.22,106.32h-.14c-.5,0-.9-.2-1.22-.61-.25-.33-.42-.72-.52-1.16-.1-.44-.15-.9-.15-1.38,0-1.12,.2-2.29,.59-3.48,.39-1.2,.79-2.19,1.21-2.99,.14-.33,.32-.5,.53-.49,.11,0,.22,.03,.34,.09,.21,.1,.39,.21,.54,.36s.22,.31,.22,.52c0,.08-.02,.17-.05,.27-.06,.17-.13,.35-.21,.55-.31,.78-.63,1.68-.95,2.69-.32,1.02-.49,1.99-.49,2.91,0,.6,.1,1.15,.31,1.63,.06,.11,.14,.16,.25,.16,.31,0,.77-.36,1.4-1.08,.62-.72,1.25-1.52,1.89-2.41s1.15-1.63,1.54-2.23c.23-.33,.38-.55,.46-.65,.14-.14,.32-.21,.53-.21,.22,0,.41,.08,.57,.23,.02,.05,.04,.09,.04,.12,0,.06-.02,.11-.05,.16-.2,.28-.42,.58-.64,.9-1.17,1.69-2.35,3.26-3.57,4.73-.32,.37-.68,.68-1.07,.93-.39,.25-.84,.4-1.35,.45Zm1.69-11.3l-.12-.02c-.13-.04-.25-.08-.35-.13-.18-.07-.27-.18-.27-.32,0-.06,.01-.14,.04-.23l.43-1.36c.07-.21,.19-.32,.36-.32h.09c.2,.04,.37,.09,.5,.16,.2,.1,.3,.21,.3,.36,0,.08-.02,.18-.07,.3l-.54,1.28c-.07,.19-.19,.28-.36,.28Z"/><path class="d" d="M81.34,106.35c-1.04,0-1.8-.53-2.28-1.59-.22-.63-.33-1.27-.33-1.94l.04-.73c.17-1.84,.89-3.45,2.16-4.82,.37-.4,.82-.71,1.37-.92,.14-.05,.3-.07,.46-.07,.4,0,.78,.15,1.14,.45,.36,.3,.54,.68,.54,1.16-.07,.73-.34,1.34-.8,1.82-.46,.48-1.08,.75-1.85,.81l-.16,.02c-.11,0-.35-.07-.73-.22-.08,0-.14,.06-.16,.18-.35,.87-.52,1.64-.52,2.29,0,.88,.09,1.54,.28,2.01,.08,.18,.18,.35,.3,.52,.21,.13,.41,.2,.58,.2,.51,0,1.09-.28,1.75-.84,.66-.56,1.32-1.21,1.99-1.94,.67-.74,1.26-1.43,1.78-2.09s.9-1.11,1.12-1.37c.24-.29,.46-.44,.66-.44,.19,0,.28,.1,.28,.3,0,.15-.1,.38-.29,.67-1.36,2.01-3.02,3.86-4.99,5.57-.71,.65-1.49,.97-2.35,.97Zm-.07-6.6c.71,0,1.27-.36,1.67-1.08,.24-.41,.36-.83,.36-1.26-.01-.13-.05-.2-.11-.2-.31,.05-.6,.22-.87,.53-.5,.47-.91,1.01-1.25,1.61-.08,.14-.13,.24-.13,.28,0,.07,.11,.11,.32,.11Z"/><path class="d" d="M87.07,106.47c-.3,0-.51-.12-.64-.35s-.19-.54-.19-.91c0-.84,.21-1.89,.63-3.15s.85-2.4,1.29-3.44c.44-1.03,.73-1.68,.86-1.94,.18-.31,.38-.46,.6-.46,.13,0,.27,.04,.43,.11,.4,.18,.6,.43,.6,.75,0,.12-.02,.24-.07,.35l-.47,1.17c-.39,.93-.75,1.88-1.07,2.84l-.07,.25,.25-.32c.57-.75,1.16-1.49,1.78-2.21,.7-.81,1.47-1.57,2.31-2.26,.13-.11,.27-.21,.41-.3,.28-.21,.58-.32,.87-.32,.24,0,.47,.08,.71,.23,.2,.13,.34,.29,.42,.46s.11,.37,.11,.57c0,.14-.01,.28-.04,.43-.12,.65-.27,1.29-.45,1.93-.1,.35-.19,.71-.27,1.06-.11,.43-.2,.85-.28,1.29-.08,.43-.12,.87-.12,1.3l.02,.41c.02,.32,.12,.62,.3,.89,.09,.12,.21,.18,.34,.18,.33,0,.76-.25,1.27-.77s1.04-1.11,1.56-1.8,.98-1.32,1.36-1.9c.39-.58,.63-.96,.72-1.13,.18-.26,.34-.39,.48-.39,.13,0,.23,.05,.3,.15,.07,.1,.11,.2,.11,.31,0,.05-.02,.11-.05,.19-1.02,1.97-2.3,3.77-3.83,5.4-.43,.51-.98,.81-1.67,.9h-.2c-.51,0-.96-.16-1.35-.48-.39-.31-.66-.74-.81-1.27-.07-.32-.1-.63-.1-.94,0-.44,.05-.88,.15-1.31,.18-.95,.4-1.89,.67-2.82,.1-.34,.19-.69,.27-1.03,.02-.05,.04-.11,.04-.18,.01-.05,.02-.1,.04-.16-.46,.32-.87,.67-1.23,1.04-1.39,1.43-2.57,3-3.55,4.73l-1.21,2.09c-.08,.15-.18,.3-.3,.43-.12,.14-.27,.24-.46,.31-.17,.05-.31,.07-.44,.07Z"/><path class="d" d="M99.19,116.22h-.11c-.39,0-.6-.2-.64-.61-.06-.71-.08-1.42-.08-2.13,0-.88,.04-1.75,.1-2.62s.14-1.74,.22-2.6c.29-3,.69-5.98,1.18-8.94,.3-1.84,.65-3.67,1.05-5.48l.02-.14v-.02c0-.08-.06-.12-.18-.12h-.07c-1.24,0-2.47,.09-3.69,.27l-.21,.02c-.37,0-.57-.21-.6-.62v-.09c0-.26,.14-.44,.43-.53,.19-.05,.38-.08,.57-.09h.14c1.27-.1,2.54-.19,3.82-.27,.08-.01,.14-.04,.18-.09,.04-.05,.06-.11,.07-.18,.42-1.5,.99-2.95,1.72-4.34l.14-.25c.15-.28,.34-.42,.55-.42,.11,0,.22,.03,.35,.09,.39,.17,.58,.4,.58,.71,0,.07-.01,.14-.04,.21l-1.04,3.14c-.07,.25-.15,.5-.23,.74l-.04,.12c.01,.08,.09,.12,.23,.13,1.63-.05,3.27-.09,4.9-.11h2.82c.78,0,1.56,0,2.32,.04,.12,0,.22,.02,.32,.06,.09,.04,.17,.12,.21,.24,.06,.13,.09,.25,.09,.37,0,.14-.04,.28-.13,.41-.05,.07-.11,.11-.18,.13s-.15,.03-.23,.03l-1.06-.02c-1.32,0-2.66,.03-3.99,.09l-2.52,.06-2.95,.06c-.09,.01-.17,.04-.21,.08-.05,.04-.08,.1-.09,.19-.46,1.81-.85,3.63-1.19,5.48-.29,1.61-.56,3.22-.82,4.84-.22,1.47-.41,2.94-.58,4.42-.12,.99-.23,1.99-.31,2.98s-.13,1.99-.13,2.98v.66c0,.12,0,.25,.01,.39v.07c0,.37-.24,.58-.71,.65Z"/><path class="d" d="M106.04,106.43c-.53,0-1.02-.25-1.45-.73-.46-.6-.71-1.29-.76-2.04-.02-.18-.03-.37-.03-.57,0-.6,.09-1.3,.26-2.08s.42-1.54,.74-2.27c.32-.73,.71-1.34,1.15-1.82,.45-.48,.94-.72,1.48-.72l.27,.02,.12,.04c.12,.06,.24,.11,.35,.16,.35,.16,.68,.35,.97,.57,.22,.18,.37,.39,.45,.65,.08,.25,.13,.52,.15,.79v.62c0,.19-.02,.38-.04,.59v.05c0,.08,.05,.12,.16,.12l.55,.02c.51,0,1-.05,1.48-.15,.48-.1,.94-.28,1.39-.55,.13-.08,.26-.12,.39-.12s.25,.03,.37,.09c.17,.08,.25,.18,.25,.3,0,.09-.06,.19-.18,.28-.51,.35-1.06,.59-1.65,.72-.67,.16-1.36,.24-2.04,.24-.18,0-.36,0-.55-.02h-.05c-.12,0-.2,.03-.23,.08s-.06,.13-.07,.24c-.21,1.13-.55,2.22-1.04,3.26-.27,.63-.65,1.18-1.14,1.65-.42,.39-.85,.58-1.32,.58Zm.23-1.05c.21,0,.45-.23,.7-.68,.26-.45,.5-.98,.74-1.59s.44-1.15,.61-1.65,.26-.81,.29-.94l.02-.09c0-.08-.05-.15-.14-.2-.29-.17-.54-.39-.74-.66-.27-.39-.44-.82-.51-1.3-.01,.01-.02,.02-.04,.02l-.02,.02c-.06,.08-.11,.17-.14,.27-.74,1.37-1.19,2.83-1.36,4.4l-.04,.55c0,.53,.1,1.05,.31,1.54,.09,.2,.2,.3,.32,.3Zm2.49-6.33c0-.46-.07-.92-.21-1.38-.07,.15-.11,.32-.11,.5,0,.33,.1,.63,.32,.89Z"/><path class="d" d="M118.8,115.58c-.29,0-.55-.08-.77-.23s-.34-.41-.37-.78v-.23c-.01-.37,.03-.73,.12-1.07,.09-.35,.2-.69,.32-1.03,.63-1.61,1.45-3.12,2.45-4.53,.92-1.31,1.87-2.59,2.87-3.83,.1-.15,.2-.51,.3-1.09s.2-1.25,.3-2.02c.02-.13,.03-.25,.05-.39l-.24,.48c-.24,.49-.48,.97-.75,1.44-.17,.33-.39,.61-.66,.84-.33,.25-.65,.37-.98,.37-.31,0-.58-.1-.83-.31-.24-.21-.4-.5-.49-.87-.05-.24-.07-.49-.07-.73,0-.32,.02-.63,.07-.94,0-.03,.01-.07,.01-.1,.13-.97,.36-1.92,.7-2.84,.14-.39,.33-.77,.56-1.13,.15-.19,.34-.29,.57-.29s.42,.11,.59,.32c.03,.06,.05,.12,.05,.18,0,.04-.01,.09-.04,.14-.45,1.07-.79,2.17-1.01,3.3-.13,.53-.19,1.08-.19,1.64v.23c0,.18,.02,.35,.07,.53,.06,.09,.12,.14,.2,.14,.22,0,.49-.3,.81-.9s.65-1.3,.98-2.08,.62-1.5,.86-2.12c.14-.38,.26-.68,.34-.88,.14-.23,.31-.35,.49-.35s.34,.07,.49,.2c.15,.13,.22,.27,.22,.4v.05c-.14,.8-.26,1.63-.36,2.47-.09,.65-.18,1.3-.27,1.93v.14c.07-.03,.12-.07,.15-.12,.02-.03,.03-.05,.05-.06,.85-1.03,1.73-2.03,2.66-2.99,.16-.13,.28-.2,.36-.2,.05,0,.09,.01,.12,.03,.03,.02,.05,.04,.07,.07,.04,.07,.06,.15,.06,.24,0,.1-.04,.2-.13,.31-.08,.1-.16,.19-.25,.28-.04,.05-.08,.1-.13,.14-1.06,1.16-2.08,2.36-3.06,3.6-.13,.18-.19,.36-.2,.56,0,.04,0,.08-.01,.13-.27,1.82-.65,3.63-1.15,5.41-.17,.59-.41,1.29-.72,2.1-.31,.81-.71,1.59-1.2,2.34-.24,.37-.5,.71-.78,1.02s-.58,.56-.92,.76c-.43,.23-.87,.35-1.33,.35Zm.15-.5c.1,0,.21-.03,.31-.1,.3-.18,.56-.41,.78-.69,1.15-1.29,1.97-2.77,2.46-4.42,.36-1.22,.62-2.46,.79-3.71,.04-.31,.08-.62,.12-.94,0-.03,.01-.05,.01-.09h-.05c-.39,.5-.78,1.01-1.16,1.53-1,1.29-1.89,2.65-2.67,4.07-.53,.93-.89,1.93-1.09,2.98-.03,.15-.04,.3-.04,.46,0,.18,.03,.37,.1,.56,.11,.23,.25,.34,.44,.34Z"/><path class="d" d="M133.88,106.42h-.11c-.31,0-.55-.14-.73-.41-.11-.15-.16-.31-.16-.46,0-.13,.04-.27,.11-.41,.14-.24,.32-.35,.53-.35h.09c.51,.04,.76,.25,.76,.64l-.02,.2c0,.06,0,.11-.02,.16-.01,.01-.02,.02-.02,.04v.02c-.02,.14-.07,.27-.13,.38-.06,.11-.17,.18-.32,.2Z"/><path class="d" d="M138.74,106.44h-.11c-.31,0-.55-.14-.73-.41-.11-.15-.16-.31-.16-.46,0-.13,.04-.27,.11-.41,.14-.24,.32-.35,.53-.35h.09c.51,.04,.76,.25,.76,.64l-.02,.2c0,.06,0,.11-.02,.16-.01,.01-.02,.02-.02,.04v.02c-.02,.14-.07,.27-.13,.38-.06,.11-.17,.18-.32,.2Z"/><path class="d" d="M143.6,106.46h-.11c-.31,0-.55-.14-.73-.41-.11-.15-.16-.31-.16-.46,0-.13,.04-.27,.11-.41,.14-.24,.32-.35,.53-.35h.09c.51,.04,.76,.25,.76,.64l-.02,.2c0,.06,0,.11-.02,.16-.01,.01-.02,.02-.02,.04v.02c-.02,.14-.07,.27-.13,.38-.06,.11-.17,.18-.32,.2Z"/></g><path class="d" d="M143.69,188.54c-1.17,1.24-2.31,1.93-2.85,1.61-.24-.14-.34-.47-.34-.49-.11-.51,.42-1.03,.62-1.54,.64-1.6,1.3-3.2,2.08-5.12,1.1,2.37,.17,4.4,.16,6.41,.28-.05,.54-.1,.82-.16,.15,.16,.35,.33,.5,.28,.41-.13,.21-1.67,.01-4.09-.08-.95-.17-2.26-.25-3.84-1.05-1.47-2.17-2.07-3.71-.5-.76,.77-1.76,1.31-2.65,1.95-.68,1.71-2.83,3.35-1.97,5.02,1.12,2.17,1.05,3.42-.77,4.53,.56,.79,1.02,.94,1.33,.94,.99,0,1.21-1.54,2.66-2.02,.9-.3,1.08,.2,2.34,.02,1.48-.21,3.07-1.17,3-2-.01-.18-.13-.58-1-1Zm-5.75,.63c-1.14-.68-1.09-1.84-.53-2.94,.97-1.91,2.68-3.09,4.65-4.68-.13,2.58-.97,4.47-1.92,6.31-.42,.81-.9,2.07-2.2,1.3Z"/><path class="d" d="M126.66,204.37c-.21-.73-.74-1.54-.21-2.2,.67-.83,1.36,.02,2.03,.28,1.6,.64,3.2,1.3,5.12,2.08-.63,.26-1.83,.66-3.34,.5-2.62-.29-4.19-2.05-4.56-2.5-.05,.26-.08,.61,0,1,.26,1.27,1.45,1.88,1.64,1.98,2.52,.8,5.09,.49,7.65,.27,1.47-1.05,2.07-2.17,.5-3.71-.77-.76-1.31-1.76-1.95-2.65-1.71-.68-3.35-2.83-5.02-1.97-1.08,.56-2.37,1.14-3.01,.63-.47-.38-.21-1.21-.83-1.56-.3-.17-.79-.22-1,0-.48,.5,1.04,1.7,1.38,4.14,.16,1.17-.03,1.98,.62,2.86,.32,.43,.7,.69,.96,.84Zm.76-5.1c.68-1.14,1.84-1.09,2.94-.53,1.91,.97,3.09,2.68,4.68,4.65-2.58-.13-4.47-.97-6.31-1.92-.81-.42-2.07-.9-1.3-2.2Z"/><g><path class="d" d="M46.56,123.6c1,.95,1.48,2.34,1.42,4.19l-.22,7.08-3.37-.1,.05-1.55c-.71,1.13-1.99,1.67-3.83,1.61-.95-.03-1.77-.22-2.46-.56-.69-.34-1.21-.81-1.56-1.39-.35-.58-.52-1.23-.49-1.95,.04-1.15,.5-2.05,1.39-2.68,.89-.63,2.24-.92,4.05-.87l2.86,.09c.02-.78-.2-1.39-.66-1.83-.46-.44-1.17-.67-2.13-.7-.66-.02-1.31,.06-1.96,.25-.64,.19-1.19,.45-1.65,.79l-1.22-2.55c.69-.46,1.51-.8,2.47-1.03,.95-.23,1.93-.33,2.93-.3,1.92,.06,3.38,.56,4.39,1.51Zm-3.33,8.46c.48-.27,.84-.68,1.05-1.23l.04-1.27-2.47-.08c-1.48-.04-2.23,.42-2.26,1.39-.01,.46,.16,.83,.51,1.11,.35,.28,.84,.43,1.48,.45s1.16-.11,1.65-.38Z"/><path class="d" d="M73.81,119.5l-7.48,15.93-3.69-.11-6.47-16.36,4.04,.12,4.56,11.68,5.33-11.38,3.71,.11Z"/><path class="d" d="M75.14,119.54l3.74,.11-.49,16.14-3.74-.11,.49-16.14Z"/><path class="d" d="M98.14,120.24l-7.48,15.93-3.69-.11-6.47-16.36,4.04,.12,4.56,11.68,5.33-11.38,3.71,.11Z"/><path class="d" d="M99.47,120.28l3.74,.11-.49,16.14-3.74-.11,.49-16.14Z"/><path class="d" d="M116.83,136.96l-2.98-4.59h-.18l-3.25-.1-.14,4.5-3.74-.11,.49-16.14,6.99,.21c1.43,.04,2.66,.32,3.7,.83,1.04,.51,1.83,1.21,2.37,2.1,.54,.89,.79,1.94,.76,3.14s-.36,2.22-.96,3.08c-.6,.85-1.44,1.49-2.52,1.92l3.46,5.3-4.01-.12Zm-.57-12.4c-.57-.5-1.42-.77-2.54-.8l-3.04-.09-.17,5.63,3.04,.09c1.12,.03,1.98-.19,2.58-.66,.6-.47,.91-1.16,.94-2.05s-.24-1.61-.81-2.11Z"/><path class="d" d="M142.01,132.54l-9.39-.29c.15,.77,.53,1.39,1.14,1.86s1.39,.71,2.33,.74c.65,.02,1.22-.06,1.73-.24,.51-.18,.98-.47,1.42-.87l1.85,2.13c-1.21,1.3-2.94,1.92-5.18,1.85-1.4-.04-2.63-.35-3.69-.93-1.06-.58-1.87-1.36-2.42-2.35s-.81-2.09-.78-3.32,.36-2.3,.96-3.26c.61-.96,1.42-1.7,2.44-2.21,1.02-.51,2.16-.75,3.4-.72s2.31,.33,3.27,.88c.97,.55,1.72,1.33,2.25,2.32,.53,.99,.78,2.14,.74,3.43,0,.05-.03,.37-.1,.97Zm-8.3-4.25c-.57,.44-.93,1.06-1.07,1.86l6.11,.19c-.1-.79-.42-1.42-.96-1.91-.54-.49-1.21-.74-2.01-.77s-1.51,.18-2.07,.63Z"/><path class="d" d="M144.84,120.69l3.6,.11-.52,17.11-3.6-.11,.52-17.11Z"/></g><g><path class="d" d="M47.51,163.48l.68-16.09-6.43,13.34-.5-.02-5.25-13.79-.7,16.04-1-.04,.82-18.81,.86,.04,5.61,14.81,6.87-14.26,.84,.04-.8,18.81-1-.04Z"/><path class="d" d="M55.63,162.72c-1.07-.88-1.88-2.06-2.45-3.54-.57-1.48-.81-3.11-.74-4.9s.46-3.4,1.16-4.82c.69-1.42,1.61-2.53,2.75-3.31,1.14-.78,2.39-1.15,3.76-1.09s2.59,.53,3.65,1.4c1.07,.87,1.88,2.05,2.45,3.53,.57,1.48,.81,3.12,.73,4.93s-.47,3.43-1.16,4.85c-.69,1.42-1.61,2.52-2.75,3.3-1.14,.78-2.39,1.13-3.76,1.07s-2.59-.53-3.65-1.41Zm6.92-.79c.97-.68,1.76-1.63,2.36-2.87,.6-1.24,.93-2.64,1-4.2s-.14-2.98-.63-4.27c-.49-1.29-1.19-2.31-2.1-3.07-.91-.76-1.95-1.16-3.12-1.21s-2.25,.26-3.23,.94c-.98,.68-1.77,1.63-2.37,2.87-.6,1.24-.93,2.64-1,4.2-.07,1.56,.14,2.98,.63,4.27,.49,1.29,1.19,2.31,2.11,3.07,.92,.76,1.96,1.16,3.13,1.21s2.24-.26,3.22-.94Z"/><path class="d" d="M83.27,165.04l.68-16.09-6.43,13.34-.5-.02-5.25-13.79-.7,16.04-1-.04,.82-18.81,.86,.04,5.61,14.81,6.87-14.26,.84,.04-.8,18.81-1-.04Z"/><path class="d" d="M98.82,164.47l-.05,1.24-9.63-.42,.82-18.81,9.33,.41-.05,1.24-8.31-.36-.32,7.41,7.44,.32-.05,1.21-7.44-.32-.34,7.71,8.61,.37Z"/><path class="d" d="M114.65,147.56l-.82,18.81-.84-.04-8.8-16.75-.71,16.33-1.02-.04,.82-18.81,.86,.04,8.78,16.75,.71-16.33,1.02,.04Z"/><path class="d" d="M122.13,149.12l-5.02-.22,.05-1.24,11.06,.48-.05,1.24-5.02-.22-.76,17.57-1.02-.04,.76-17.57Z"/><path class="d" d="M131.98,166.04c-1.07-.88-1.88-2.06-2.45-3.54-.57-1.48-.81-3.11-.74-4.9s.46-3.4,1.16-4.82c.69-1.42,1.61-2.53,2.75-3.31,1.14-.78,2.39-1.15,3.76-1.09s2.59,.53,3.65,1.4c1.07,.87,1.88,2.05,2.45,3.53,.57,1.48,.81,3.12,.73,4.93-.08,1.81-.47,3.43-1.16,4.85-.69,1.42-1.61,2.52-2.75,3.3-1.14,.78-2.39,1.13-3.76,1.07s-2.59-.53-3.65-1.41Zm6.92-.79c.97-.68,1.76-1.63,2.36-2.87,.6-1.24,.93-2.64,1-4.2,.07-1.56-.14-2.98-.63-4.27-.49-1.29-1.19-2.31-2.1-3.07-.91-.76-1.95-1.16-3.12-1.21s-2.25,.26-3.23,.94c-.98,.68-1.77,1.63-2.37,2.87-.6,1.24-.93,2.64-1,4.2s.14,2.98,.63,4.27c.49,1.29,1.19,2.31,2.11,3.07,.92,.76,1.96,1.16,3.13,1.21s2.24-.26,3.22-.94Z"/></g><path class="d" d="M116.48,38.04c1.52-1.05,2.8-2.29,3.67-3.94,1.01-1.92,1.05-3.68-.87-5.08-.86-.63-.98-.93-1.25-1.43-.4-.75-.4-1.53-.34-2.06l-1-.38c1.58,3.24-1.81,2.92-2.9,4.17-.3,2.62-.37,5.22,.31,7.81,.39,1.49,1.09,1.79,2.37,.91Zm.4-1.73c.53-2.09,1.04-4.11,1.58-6.2,2.22,2.15,1.87,3.43-1.58,6.2Zm-1.61,.31c-1.13-2.35-1.09-4.32-.42-6.28,.24-.7,.86-1.18,1.66-1.11,1.12,.1,.81,.99,.73,1.64-.21,1.91-.55,3.78-1.97,5.75Z"/></g></g></svg>