<?xml version="1.0" encoding="utf-8"?>
<!-- Generator: Adobe Illustrator 26.2.1, SVG Export Plug-In . SVG Version: 6.00 Build 0)  -->
<svg version="1.1" id="Capa_1" xmlns="http://www.w3.org/2000/svg" xmlns:xlink="http://www.w3.org/1999/xlink" x="0px" y="0px"
	 viewBox="0 0 816.3 289.7" style="enable-background:new 0 0 816.3 289.7;" xml:space="preserve">
<style type="text/css">
	.st0{fill:#FFFFFF;}
</style>
<g id="a">
</g>
<g>
	<path class="st0" d="M34.4,34.7H11.3V60h25.9v3.4h-30V5.5h28.6V9H11.3v22.3h23.1V34.7z"/>
	<path class="st0" d="M47,2.4h4.1v61H47V2.4z"/>
	<path class="st0" d="M82.7,34.1c0-4.8-0.2-8.9-0.3-12.5h9l0.5,6.2h0.3c2-3.3,5.8-7.1,12.9-7.1c5.5,0,9.8,3.1,11.6,7.7h0.2
		c1.5-2.3,3.2-4,5.1-5.2c2.4-1.6,5.1-2.5,8.6-2.5c6.9,0,13.9,4.7,13.9,18.1v24.7h-10.3V40.3c0-7-2.4-11.1-7.5-11.1
		c-3.6,0-6.3,2.6-7.4,5.6c-0.3,0.9-0.5,2.3-0.5,3.5v25.1h-10.3V39.2c0-5.8-2.3-10-7.2-10c-4,0-6.6,3.1-7.6,5.9
		c-0.3,1.1-0.5,2.3-0.5,3.5v24.7H82.7V34.1z"/>
	<path class="st0" d="M188.1,53.4c0,3.8,0.2,7.5,0.7,10.1h-9.5l-0.8-4.6h-0.3c-2.5,3.3-6.9,5.6-12.4,5.6c-8.4,0-13.1-6.1-13.1-12.5
		c0-10.5,9.4-15.9,24.8-15.8v-0.7c0-2.7-1.1-7.3-8.5-7.3c-4.1,0-8.4,1.3-11.3,3.1l-2.1-6.9c3.1-1.9,8.5-3.7,15.1-3.7
		c13.4,0,17.3,8.5,17.3,17.7V53.4z M177.8,43c-7.5-0.1-14.6,1.5-14.6,7.8c0,4.1,2.7,6,6,6c4.3,0,7.3-2.7,8.3-5.8
		c0.3-0.8,0.3-1.5,0.3-2.3V43z"/>
	<path class="st0" d="M227.3,57.7h-0.2c-2.5,4-6.9,6.7-13,6.7c-9.4,0-17.5-8.2-17.5-21.2c0-15.3,9.8-22.5,18.7-22.5
		c5.8,0,10,2.6,12.2,6.4l0.2,0.1l0.3-5.6h10.2c-0.2,3.8-0.3,7.7-0.3,12.1v46.7h-10.6V57.7z M227.3,38.9c0-0.9-0.1-1.8-0.3-2.6
		c-0.9-4-4.3-7.3-9-7.3c-6.9,0-10.7,5.8-10.7,13.7c0,7.6,3.7,13.4,10.4,13.4c4.3,0,7.8-2.7,9-7c0.3-0.9,0.5-2.2,0.5-3.3V38.9z"/>
	<path class="st0" d="M286.7,50.9c0,5,0.2,9.1,0.3,12.5h-9.2l-0.5-6.3h-0.3c-1.8,2.9-5.9,7.2-13.5,7.2c-7.6,0-14.5-4.6-14.5-18.2
		V21.6h10.6v22.8c0,7,2.2,11.4,7.8,11.4c4.3,0,7-2.9,8.1-5.7c0.4-0.9,0.6-2.1,0.6-3.3V21.6h10.6V50.9z"/>
	<path class="st0" d="M309.4,9.9c0,3.1-2.3,5.7-6,5.7c-3.5,0-5.8-2.6-5.8-5.7c0-3.3,2.4-5.8,5.9-5.8C307.1,4.2,309.3,6.7,309.4,9.9z
		 M298.2,63.5V21.6h10.6v41.8H298.2z"/>
	<path class="st0" d="M320.2,2.4h10.6v61h-10.6V2.4z"/>
	<path class="st0" d="M342.3,2.4h10.6v61h-10.6V2.4z"/>
	<path class="st0" d="M396.9,53.4c0,3.8,0.2,7.5,0.7,10.1H388l-0.8-4.6H387c-2.5,3.3-6.9,5.6-12.4,5.6c-8.4,0-13.1-6.1-13.1-12.5
		c0-10.5,9.4-15.9,24.8-15.8v-0.7c0-2.7-1.1-7.3-8.5-7.3c-4.1,0-8.4,1.3-11.3,3.1l-2.1-6.9c3.1-1.9,8.5-3.7,15.1-3.7
		c13.4,0,17.3,8.5,17.3,17.7V53.4z M386.5,43c-7.5-0.1-14.6,1.5-14.6,7.8c0,4.1,2.7,6,6,6c4.3,0,7.3-2.7,8.3-5.8
		c0.3-0.8,0.3-1.5,0.3-2.3V43z"/>
	<path class="st0" d="M398.8,73.5c3.4-0.3,6.2-1.2,7.9-3c2-2.1,2.7-5.4,2.7-14.5V21.6H420V59c0,8.7-1.7,14.1-5.5,17.9
		c-3.6,3.4-9.5,4.9-14.7,4.9L398.8,73.5z M420.7,9.9c0,3.1-2.2,5.7-6,5.7c-3.6,0-5.8-2.6-5.8-5.7c0-3.3,2.4-5.8,6-5.8
		C418.4,4.2,420.6,6.7,420.7,9.9z"/>
	<path class="st0" d="M438.7,45.5c0.3,7.6,6.1,10.8,12.9,10.8c4.9,0,8.3-0.8,11.6-1.9l1.5,7.2c-3.6,1.5-8.6,2.7-14.6,2.7
		c-13.6,0-21.6-8.3-21.6-21.1c0-11.6,7-22.5,20.5-22.5c13.6,0,18,11.2,18,20.4c0,2-0.2,3.5-0.3,4.5H438.7z M457.1,38.1
		c0.1-3.9-1.6-10.2-8.7-10.2c-6.5,0-9.3,5.9-9.7,10.2H457.1z"/>
	<path class="st0" d="M493.4,58c2.2,1.4,5.6,2.8,9.3,2.8c6.5,0,9.6-3.5,9.6-7.8c0-4.6-2.7-7-8.7-9.4c-6.8-2.6-10.5-6.3-10.5-11.3
		c0-5.9,4.7-11.2,12.7-11.2c3.8,0,7,1.1,9.1,2.6l-1.5,3.4c-1.5-1-4.1-2.5-8.2-2.5c-5.2,0-8,3.4-8,7.1c0,4.3,2.9,6.2,8.5,8.5
		c6.7,2.6,10.7,5.9,10.7,12.2c0,7-5.5,11.8-13.9,11.8c-3.9,0-7.7-1.1-10.5-2.8L493.4,58z"/>
	<path class="st0" d="M532.5,10.4c0,1.9-1.3,3.5-3.4,3.5c-1.9,0-3.2-1.6-3.2-3.5s1.5-3.6,3.4-3.6C531.2,6.8,532.5,8.5,532.5,10.4z
		 M527.2,63.5V22.2h4.1v41.2H527.2z"/>
	<path class="st0" d="M545.1,34.6c0-4.1-0.1-8.3-0.3-12.4h3.8l0.2,8.3h0.3c1.8-5.2,6.1-9.3,11.7-9.3c0.6,0,1.2,0.1,1.7,0.2v4
		c-0.6-0.2-1.2-0.2-2-0.2c-5.7,0-9.7,4.9-10.8,11.5c-0.3,1.2-0.3,2.6-0.3,4v22.8h-4.1V34.6z"/>
	<path class="st0" d="M571.8,22.2l9.6,25.6c1.6,4,2.9,7.6,4,11h0.2c1.1-3.4,2.7-7,4.2-11l9.8-25.6h4.3l-16.8,41.2h-3.6l-16.2-41.2
		H571.8z"/>
	<path class="st0" d="M612,42.4c0,13.1,7.1,18.4,15.7,18.4c6,0,9.1-1.2,11.4-2.3l1,3.2c-1.5,0.9-5.8,2.7-13,2.7
		c-11.9,0-19.2-8.6-19.2-20.7c0-13.7,7.9-22.3,18.6-22.3c13.5,0,16.1,12.7,16.1,18.6c0,1.1,0,1.7-0.2,2.5H612z M638.3,39.1
		c0.1-5.8-2.3-14.4-12.3-14.4c-9.1,0-13.1,8.1-13.8,14.4H638.3z"/>
	<path class="st0" d="M671.8,35.4c0-5.2-0.1-9.2-0.3-13.1h4l0.3,7.8h0.2c3-5.4,8.1-8.8,15.2-8.8c10.7,0,17.8,8.8,17.8,20.9
		c0,14.7-8.8,22.3-18.7,22.3c-5.9,0-11.2-2.7-14-7.6h-0.2v23.7h-4.1V35.4z M675.9,47.2c0,1.1,0.1,2.2,0.3,3.3
		c1.7,6.4,7.2,10.5,13.6,10.5c9.5,0,14.9-7.6,14.9-18.6c0-9.3-5.2-17.6-14.5-17.6c-6,0-11.9,4.1-13.7,10.9c-0.3,1.1-0.6,2.4-0.6,3.5
		V47.2z"/>
	<path class="st0" d="M745.1,53.7c0,3.3,0.1,6.6,0.6,9.8h-3.8l-0.6-5.9h-0.2c-2.1,3.2-6.6,6.9-13.2,6.9c-8.3,0-12.1-5.8-12.1-11.3
		c0-9.5,8.3-15.3,25.2-15.1v-1.1c0-4-0.8-12.2-10.6-12.1c-3.6,0-7.4,0.9-10.4,3.1l-1.3-3c3.8-2.5,8.4-3.5,12.1-3.5
		c11.9,0,14.3,8.9,14.3,16.2V53.7z M740.9,41.4c-9-0.3-20.9,1.1-20.9,11c0,5.9,4,8.6,8.2,8.6c6.9,0,10.8-4.2,12.2-8.2
		c0.3-0.9,0.4-1.8,0.4-2.5V41.4z"/>
	<path class="st0" d="M758.3,34.6c0-4.1-0.1-8.3-0.3-12.4h3.8l0.2,8.3h0.3c1.8-5.2,6.1-9.3,11.7-9.3c0.6,0,1.2,0.1,1.7,0.2v4
		c-0.6-0.2-1.2-0.2-2-0.2c-5.7,0-9.7,4.9-10.8,11.5c-0.3,1.2-0.3,2.6-0.3,4v22.8h-4.1V34.6z"/>
	<path class="st0" d="M809.5,53.7c0,3.3,0.1,6.6,0.6,9.8h-3.8l-0.6-5.9h-0.2c-2.1,3.2-6.6,6.9-13.2,6.9c-8.3,0-12.1-5.8-12.1-11.3
		c0-9.5,8.3-15.3,25.2-15.1v-1.1c0-4-0.8-12.2-10.6-12.1c-3.6,0-7.4,0.9-10.4,3.1l-1.3-3c3.8-2.5,8.4-3.5,12.1-3.5
		c11.9,0,14.3,8.9,14.3,16.2V53.7z M805.3,41.4c-9-0.3-20.9,1.1-20.9,11c0,5.9,4,8.6,8.2,8.6c6.9,0,10.8-4.2,12.2-8.2
		c0.3-0.9,0.4-1.8,0.4-2.5V41.4z"/>
	<path class="st0" d="M85.2,138.3c0-5.7-0.1-9.8-0.3-13.5H94l0.4,7.9h0.3c2.1-5.8,7-8.9,11.5-8.9c1,0,1.6,0.1,2.5,0.3v9.9
		c-0.9-0.2-1.9-0.3-3.2-0.3c-5,0-8.5,3.2-9.5,8c-0.2,0.9-0.3,2.1-0.3,3.2v21.7H85.2V138.3z"/>
	<path class="st0" d="M122.5,148.7c0.3,7.6,6.1,10.8,12.9,10.8c4.9,0,8.3-0.8,11.6-1.9l1.5,7.2c-3.6,1.5-8.6,2.7-14.6,2.7
		c-13.6,0-21.6-8.3-21.6-21.1c0-11.6,7-22.5,20.5-22.5c13.6,0,18,11.2,18,20.4c0,2-0.2,3.5-0.3,4.5H122.5z M140.9,141.3
		c0.1-3.9-1.6-10.2-8.7-10.2c-6.5,0-9.3,5.9-9.7,10.2H140.9z"/>
	<path class="st0" d="M159,156.8c2.3,1.5,6.9,3.1,10.7,3.1c4.6,0,6.7-2,6.7-4.7c0-2.8-1.7-4.2-6.9-6.1c-8.2-2.7-11.5-7.2-11.5-12.2
		c0-7.4,6.1-13.1,15.8-13.1c4.6,0,8.7,1.1,11.2,2.5l-2.1,7.4c-1.7-1-5.2-2.4-8.9-2.4c-3.8,0-5.8,1.9-5.8,4.5c0,2.7,2,3.9,7.3,5.8
		c7.6,2.7,11.1,6.5,11.2,12.7c0,7.6-5.9,13.1-17,13.1c-5.1,0-9.6-1.2-12.7-2.9L159,156.8z"/>
	<path class="st0" d="M227.8,156.6c0,3.8,0.2,7.5,0.7,10.1h-9.5l-0.8-4.6h-0.3c-2.5,3.3-6.9,5.6-12.4,5.6c-8.4,0-13.1-6.1-13.1-12.5
		c0-10.5,9.4-15.9,24.8-15.8v-0.7c0-2.7-1.1-7.3-8.5-7.3c-4.1,0-8.4,1.3-11.3,3.1l-2.1-6.9c3.1-1.9,8.5-3.7,15.1-3.7
		c13.4,0,17.3,8.5,17.3,17.7V156.6z M217.4,146.2c-7.5-0.1-14.6,1.5-14.6,7.8c0,4.1,2.7,6,6,6c4.3,0,7.3-2.7,8.3-5.8
		c0.3-0.8,0.3-1.5,0.3-2.3V146.2z"/>
	<path class="st0" d="M238.9,105.6h10.6v61h-10.6V105.6z"/>
	<path class="st0" d="M273.2,114v10.7h10.1v7.9h-10.1v18.5c0,5.2,1.4,7.7,5.4,7.7c1.9,0,2.9-0.1,4.1-0.4l0.2,8
		c-1.5,0.6-4.4,1.1-7.6,1.1c-4,0-7.1-1.3-9.1-3.4c-2.3-2.4-3.4-6.3-3.4-11.8v-19.7h-5.9v-7.9h5.9V117L273.2,114z"/>
	<path class="st0" d="M323.7,156.6c0,3.8,0.2,7.5,0.7,10.1h-9.5l-0.8-4.6h-0.3c-2.5,3.3-6.9,5.6-12.4,5.6c-8.4,0-13.1-6.1-13.1-12.5
		c0-10.5,9.4-15.9,24.8-15.8v-0.7c0-2.7-1.1-7.3-8.5-7.3c-4.1,0-8.4,1.3-11.3,3.1l-2.1-6.9c3.1-1.9,8.5-3.7,15.1-3.7
		c13.4,0,17.3,8.5,17.3,17.7V156.6z M313.4,146.2c-7.5-0.1-14.6,1.5-14.6,7.8c0,4.1,2.7,6,6,6c4.3,0,7.3-2.7,8.3-5.8
		c0.3-0.8,0.3-1.5,0.3-2.3V146.2z"/>
	<path class="st0" d="M334.9,138.3c0-5.7-0.1-9.8-0.3-13.5h9.1l0.4,7.9h0.3c2.1-5.8,7-8.9,11.5-8.9c1,0,1.6,0.1,2.5,0.3v9.9
		c-0.9-0.2-1.9-0.3-3.2-0.3c-5,0-8.5,3.2-9.5,8c-0.2,0.9-0.3,2.1-0.3,3.2v21.7h-10.6V138.3z"/>
	<path class="st0" d="M384.6,105.6h4.1v61h-4.1V105.6z"/>
	<path class="st0" d="M428.5,156.8c0,3.3,0.1,6.6,0.6,9.8h-3.8l-0.6-5.9h-0.2c-2.1,3.2-6.6,6.9-13.2,6.9c-8.3,0-12.1-5.8-12.1-11.3
		c0-9.5,8.3-15.3,25.2-15.1V140c0-4-0.8-12.2-10.6-12.1c-3.6,0-7.4,0.9-10.4,3.1l-1.3-3c3.8-2.5,8.4-3.5,12.1-3.5
		c11.9,0,14.3,8.9,14.3,16.2V156.8z M424.4,144.5c-9-0.3-20.9,1.1-20.9,11c0,5.9,4,8.6,8.2,8.6c6.9,0,10.8-4.2,12.2-8.2
		c0.3-0.9,0.4-1.8,0.4-2.5V144.5z"/>
	<path class="st0" d="M458.8,105.6h10.6v24.9h0.2c2.6-4,7.1-6.7,13.4-6.7c10.2,0,17.5,8.5,17.4,21.2c0,15-9.5,22.5-19,22.5
		c-5.4,0-10.2-2.1-13.2-7.2H468l-0.5,6.3h-9c0.2-2.8,0.3-7.5,0.3-11.8V105.6z M469.4,149.4c0,0.9,0.1,1.7,0.3,2.5
		c1.1,4.3,4.8,7.4,9.4,7.4c6.6,0,10.7-5.2,10.7-13.7c0-7.4-3.5-13.4-10.6-13.4c-4.3,0-8.2,3.1-9.4,7.7c-0.2,0.8-0.3,1.7-0.3,2.7
		V149.4z"/>
	<path class="st0" d="M516.6,148.7c0.3,7.6,6.1,10.8,12.9,10.8c4.9,0,8.3-0.8,11.6-1.9l1.5,7.2c-3.6,1.5-8.6,2.7-14.6,2.7
		c-13.6,0-21.6-8.3-21.6-21.1c0-11.6,7-22.5,20.5-22.5c13.6,0,18,11.2,18,20.4c0,2-0.2,3.5-0.3,4.5H516.6z M534.9,141.3
		c0.1-3.9-1.6-10.2-8.7-10.2c-6.5,0-9.3,5.9-9.7,10.2H534.9z"/>
	<path class="st0" d="M553.4,105.6H564v61h-10.6V105.6z"/>
	<path class="st0" d="M575.5,105.6h10.6v61h-10.6V105.6z"/>
	<path class="st0" d="M605.1,148.7c0.3,7.6,6.1,10.8,12.9,10.8c4.9,0,8.3-0.8,11.6-1.9l1.5,7.2c-3.6,1.5-8.6,2.7-14.6,2.7
		c-13.6,0-21.6-8.3-21.6-21.1c0-11.6,7-22.5,20.5-22.5c13.6,0,18,11.2,18,20.4c0,2-0.2,3.5-0.3,4.5H605.1z M623.5,141.3
		c0.1-3.9-1.6-10.2-8.7-10.2c-6.5,0-9.3,5.9-9.7,10.2H623.5z"/>
	<path class="st0" d="M638,160.5l15.7-20.1c2.1-2.6,4-4.6,6.1-7v-0.2h-20.3v-8.4h33.2v6.4l-15.3,19.7c-2.1,2.5-4,4.9-6.2,7.1v0.2h22
		v8.4H638V160.5z"/>
	<path class="st0" d="M713.2,156.6c0,3.8,0.2,7.5,0.7,10.1h-9.5l-0.8-4.6h-0.3c-2.5,3.3-6.9,5.6-12.4,5.6c-8.4,0-13.1-6.1-13.1-12.5
		c0-10.5,9.4-15.9,24.8-15.8v-0.7c0-2.7-1.1-7.3-8.5-7.3c-4.1,0-8.4,1.3-11.3,3.1l-2.1-6.9c3.1-1.9,8.5-3.7,15.1-3.7
		c13.4,0,17.3,8.5,17.3,17.7V156.6z M702.9,146.2c-7.5-0.1-14.6,1.5-14.6,7.8c0,4.1,2.7,6,6,6c4.3,0,7.3-2.7,8.3-5.8
		c0.3-0.8,0.3-1.5,0.3-2.3V146.2z"/>
	<path class="st0" d="M720.1,177.3c1.9-5.2,4.2-14.4,5.2-20.6l8.4-0.9c-2.1,7.3-5.8,16.8-8.2,20.9L720.1,177.3z"/>
	<path class="st0" d="M153.9,238.4c0-3.8-0.1-6.6-0.3-9.9h3.9l0.3,7.5h0.2c2.2-4.6,7.5-8.4,14.2-8.4c4,0,14.4,2,14.4,17.4v24.7h-4.1
		v-24.4c0-7.5-2.9-14.3-11.4-14.3c-5.8,0-10.7,4.1-12.4,9.5c-0.3,1-0.5,2.4-0.5,3.7v25.5h-4.1V238.4z"/>
	<path class="st0" d="M235.2,248.7c0,15.4-10.6,22-19.8,22c-10.7,0-18.9-8.3-18.9-21.2c0-14.1,9.3-21.9,19.5-21.9
		C227.5,227.6,235.2,236.2,235.2,248.7z M200.7,249.3c0,10.3,6.6,18,15,18c8.6,0,15.4-7.7,15.4-18.3c0-7.6-4.2-18-15.1-18
		C205.4,231,200.7,240.4,200.7,249.3z"/>
	<path class="st0" d="M264.5,241.7c0-5.2-0.1-9.2-0.3-13.1h4l0.3,7.8h0.2c3-5.4,8.1-8.8,15.2-8.8c10.7,0,17.8,8.8,17.8,20.9
		c0,14.7-8.8,22.3-18.7,22.3c-5.9,0-11.2-2.7-14-7.6h-0.2v23.7h-4.1V241.7z M268.6,253.6c0,1.1,0.1,2.2,0.3,3.3
		c1.7,6.4,7.2,10.5,13.6,10.5c9.5,0,14.9-7.6,14.9-18.6c0-9.3-5.2-17.6-14.5-17.6c-6,0-11.9,4.1-13.7,10.9c-0.3,1.1-0.6,2.4-0.6,3.5
		V253.6z"/>
	<path class="st0" d="M337.7,260c0,3.3,0.1,6.6,0.6,9.8h-3.8l-0.6-5.9h-0.2c-2.1,3.2-6.6,6.9-13.2,6.9c-8.3,0-12.1-5.8-12.1-11.3
		c0-9.5,8.3-15.3,25.2-15.1v-1.1c0-4-0.8-12.2-10.6-12.1c-3.6,0-7.4,0.9-10.4,3.1l-1.3-3c3.8-2.5,8.4-3.5,12.1-3.5
		c11.9,0,14.3,8.9,14.3,16.2V260z M333.6,247.7c-9-0.3-20.9,1.1-20.9,11c0,5.9,4,8.6,8.2,8.6c6.9,0,10.8-4.2,12.2-8.2
		c0.3-0.9,0.4-1.8,0.4-2.5V247.7z"/>
	<path class="st0" d="M351,240.9c0-4.1-0.1-8.3-0.3-12.4h3.8l0.2,8.3h0.3c1.8-5.2,6.1-9.3,11.7-9.3c0.6,0,1.2,0.1,1.7,0.2v4
		c-0.6-0.2-1.2-0.2-2-0.2c-5.7,0-9.7,4.9-10.8,11.5c-0.3,1.2-0.3,2.6-0.3,4v22.8H351V240.9z"/>
	<path class="st0" d="M402.1,260c0,3.3,0.1,6.6,0.6,9.8h-3.8l-0.6-5.9h-0.2c-2.1,3.2-6.6,6.9-13.2,6.9c-8.3,0-12.1-5.8-12.1-11.3
		c0-9.5,8.3-15.3,25.2-15.1v-1.1c0-4-0.8-12.2-10.6-12.1c-3.6,0-7.4,0.9-10.4,3.1l-1.3-3c3.8-2.5,8.4-3.5,12.1-3.5
		c11.9,0,14.3,8.9,14.3,16.2V260z M398,247.7c-9-0.3-20.9,1.1-20.9,11c0,5.9,4,8.6,8.2,8.6c6.9,0,10.8-4.2,12.2-8.2
		c0.3-0.9,0.4-1.8,0.4-2.5V247.7z"/>
	<path class="st0" d="M462.7,268c-1.8,0.9-6.1,2.7-12.1,2.7c-11.9,0-19.8-8.7-19.8-21.1c0-13.1,8.9-22,21.2-22
		c5.1,0,9.3,1.5,10.8,2.6l-1.5,3.4c-2-1.1-5.2-2.4-9.7-2.4c-11.1,0-16.8,8.5-16.8,18.1c0,10.8,6.8,17.9,16.3,17.9
		c4.9,0,8.1-1.4,10.3-2.4L462.7,268z"/>
	<path class="st0" d="M472.5,240.9c0-4.1-0.1-8.3-0.3-12.4h3.8l0.2,8.3h0.3c1.8-5.2,6.1-9.3,11.7-9.3c0.6,0,1.2,0.1,1.7,0.2v4
		c-0.6-0.2-1.2-0.2-2-0.2c-5.7,0-9.7,4.9-10.8,11.5c-0.3,1.2-0.3,2.6-0.3,4v22.8h-4.1V240.9z"/>
	<path class="st0" d="M497.6,248.7c0,13.1,7.1,18.4,15.7,18.4c6,0,9.1-1.2,11.4-2.3l1,3.2c-1.5,0.9-5.8,2.7-13,2.7
		c-11.9,0-19.2-8.6-19.2-20.7c0-13.7,7.9-22.3,18.6-22.3c13.5,0,16.1,12.7,16.1,18.6c0,1.1,0,1.7-0.2,2.5H497.6z M523.9,245.5
		c0.1-5.8-2.3-14.4-12.3-14.4c-9.1,0-13.1,8.1-13.8,14.4H523.9z"/>
	<path class="st0" d="M564.4,260c0,3.3,0.1,6.6,0.6,9.8h-3.8l-0.6-5.9h-0.2c-2.1,3.2-6.6,6.9-13.2,6.9c-8.3,0-12.1-5.8-12.1-11.3
		c0-9.5,8.3-15.3,25.2-15.1v-1.1c0-4-0.8-12.2-10.6-12.1c-3.6,0-7.4,0.9-10.4,3.1l-1.3-3c3.8-2.5,8.4-3.5,12.1-3.5
		c11.9,0,14.3,8.9,14.3,16.2V260z M560.3,247.7c-9-0.3-20.9,1.1-20.9,11c0,5.9,4,8.6,8.2,8.6c6.9,0,10.8-4.2,12.2-8.2
		c0.3-0.9,0.4-1.8,0.4-2.5V247.7z"/>
	<path class="st0" d="M577.7,240.9c0-4.1-0.1-8.3-0.3-12.4h3.8l0.2,8.3h0.3c1.8-5.2,6.1-9.3,11.7-9.3c0.6,0,1.2,0.1,1.7,0.2v4
		c-0.6-0.2-1.2-0.2-2-0.2c-5.7,0-9.7,4.9-10.8,11.5c-0.3,1.2-0.3,2.6-0.3,4v22.8h-4.1V240.9z"/>
	<path class="st0" d="M603.8,208.8h4.1v61h-4.1V208.8z"/>
	<path class="st0" d="M647.7,260c0,3.3,0.1,6.6,0.6,9.8h-3.8l-0.6-5.9h-0.2c-2.1,3.2-6.6,6.9-13.2,6.9c-8.3,0-12.1-5.8-12.1-11.3
		c0-9.5,8.3-15.3,25.2-15.1v-1.1c0-4-0.8-12.2-10.6-12.1c-3.6,0-7.4,0.9-10.4,3.1l-1.3-3c3.8-2.5,8.4-3.5,12.1-3.5
		c11.9,0,14.3,8.9,14.3,16.2V260z M643.6,247.7c-9-0.3-20.9,1.1-20.9,11c0,5.9,4,8.6,8.2,8.6c6.9,0,10.8-4.2,12.2-8.2
		c0.3-0.9,0.4-1.8,0.4-2.5V247.7z"/>
	<path class="st0" d="M658.8,266.9c0-2.2,1.5-3.9,3.5-3.9c2.1,0,3.4,1.6,3.4,3.9c0,2.1-1.4,3.9-3.6,3.9
		C660.1,270.7,658.7,268.9,658.8,266.9z"/>
</g>
</svg>
