<?xml version="1.0" encoding="utf-8"?>
<!-- Generator: Adobe Illustrator 26.2.1, SVG Export Plug-In . SVG Version: 6.00 Build 0)  -->
<svg version="1.1" id="Capa_1" xmlns="http://www.w3.org/2000/svg" xmlns:xlink="http://www.w3.org/1999/xlink" x="0px" y="0px"
	 viewBox="0 0 134.1 66.5" style="enable-background:new 0 0 134.1 66.5;" xml:space="preserve">
<style type="text/css">
	.st0{fill:#FFFFFF;}
	.st1{fill:#FF3894;}
</style>
<g id="a">
</g>
<g id="b">
	<g id="c">
		<g>
			<g>
				<path class="st0" d="M64.2,21.5c-0.8-0.3-1.8-0.3-2.5-0.1c-0.4,0.1-2.7,0.6-2.8,1.2c-0.2,0.9,2.1,0.5,2.5,0.4
					C62.3,22.7,63.4,22,64.2,21.5"/>
				<path class="st0" d="M70.9,22.8c-1,0.1-2.1-0.5-2.9-1c-1.1-0.6-2.1-1.5-3.1-2.2c-2-1.4-3.7-3-5.5-4.7c-0.1-0.1-0.3,0.1-0.2,0.2
					c0.9,0.9,1.8,1.8,2.8,2.7c1,0.9,2,1.6,3.1,2.3c1,0.7,1.9,1.4,3,2c0.8,0.5,1.9,1,2.8,0.9C71.1,23.1,71.1,22.8,70.9,22.8"/>
				<path class="st0" d="M62.1,17.6c-0.4-0.5-2.8-4.4-3.7-3.6c-0.6,0.6,0.7,2,1.1,2.3C60.2,17,61.3,17.3,62.1,17.6L62.1,17.6
					L62.1,17.6z"/>
				<path class="st0" d="M61.5,16.7c-0.2-1.2,0.2-4.1-1.1-5.5c-0.9-1-1.2,0.1-1.1,1c0.2,0.9,0.5,2,0.9,2.8"/>
				<path class="st0" d="M60,12.4c0.3,1.1,0.5,2.2,0.7,3.3c0,0.2,0.3,0.1,0.3-0.1c-0.2-1.1-0.4-2.2-0.7-3.4
					C60.2,12.1,59.9,12.2,60,12.4"/>
				<path class="st0" d="M64.4,19.3c-0.9-1.4-0.8-3.1-1.2-4.7c0-0.2-0.3-0.1-0.3,0.1c0.4,1.6,0.3,3.3,1.2,4.7
					C64.3,19.6,64.5,19.5,64.4,19.3"/>
				<path class="st0" d="M63.6,17.7c0.1-1,0.4-2.2,0.2-3.2c0-0.6-0.5-2.3-1.2-1.2C62.1,14.4,63.3,16.7,63.6,17.7"/>
				<path class="st0" d="M67,21.2c-0.9-0.1-1.8,0-2.7,0.2c-1.4,0.2-2.8,0.4-4.1,0.9c-0.2,0.1-0.1,0.3,0.1,0.3c1.3-0.5,2.7-0.7,4-0.9
					c0.8-0.1,1.8-0.3,2.6-0.2C67.1,21.5,67.2,21.2,67,21.2"/>
				<path class="st0" d="M68.1,20.7c0,0.6,0.3,1.3,0.6,1.8c0.1,0.2,0.3,0,0.2-0.2c-0.3-0.5-0.5-1.1-0.5-1.7
					C68.3,20.5,68.1,20.5,68.1,20.7"/>
				<path class="st0" d="M54.4,16.6c-0.3-0.6-3.7-6.4-4.7-5.1c-0.6,0.6,0.7,2.2,1.1,2.7c0.4,0.4,1.1,0.9,1.6,1.3
					C53.2,15.9,53.6,16.1,54.4,16.6"/>
				<path class="st0" d="M50.7,12.8c0.7,1.3,1.7,2.2,2.8,3.2c1.1,1,2.2,1.6,3.7,1.8c0.2,0,0.2-0.3,0-0.3c-0.7-0.1-1.4-0.2-2-0.5
					c-0.7-0.3-1.2-0.8-1.7-1.3c-1-0.9-2-1.8-2.6-3C50.8,12.5,50.6,12.6,50.7,12.8"/>
				<path class="st0" d="M60.2,17.5c-1.2,0.1-2.4,0-3.5-0.1c-0.8,0-1.6,0-2.4,0.1c-1.6,0.2-3.4,0.4-4.9,1.1
					c-0.2,0.1-0.1,0.3,0.1,0.3c1.5-0.7,3.4-0.9,5-1.1c1.9-0.2,3.8,0.2,5.8,0C60.3,17.8,60.3,17.5,60.2,17.5"/>
				<path class="st0" d="M54.7,17.6c-1.5,0-3.3-0.3-4.8,0.1c-0.7,0.2-2.8,1.3-1.3,1.9c0.8,0.3,1.9-0.2,2.6-0.4
					c1.4-0.4,2.7-1.2,4.2-1.6"/>
				<path class="st0" d="M65.2,20c-1,0.2-2-0.1-3,0c-1.2,0.1-2.4,0.3-3.6,0.6c-2.4,0.6-4.5,2-6.8,2.6c-0.2,0-0.1,0.3,0.1,0.3
					c2.2-0.6,4.2-1.8,6.4-2.5c1.3-0.4,2.6-0.6,4-0.7c1-0.1,2,0.2,3,0C65.4,20.2,65.4,19.9,65.2,20"/>
				<path class="st0" d="M57.7,21c-1.4,0.3-3.3,0.6-4.5,1c-0.5,0.1-2,1.1-2,1.9c0.1,1.5,5.8-2.4,6.2-2.7"/>
				<path class="st0" d="M62,20c-1.4,0.1-2.7-0.7-4.1-0.8c-1.2-0.1-2.5,0.3-3.7,0.6c-0.2,0.1-0.1,0.3,0.1,0.3
					c1.2-0.4,2.8-0.8,4.1-0.6c1.2,0.2,2.4,0.8,3.7,0.7C62.1,20.2,62.1,19.9,62,20"/>
				<path class="st0" d="M59.3,19.6c-1.1-0.5-2.8-1-4.1-0.8c-0.5,0.1-3.2,0.9-1.9,1.8c0.6,0.4,2.2-0.2,2.8-0.4
					c0.8-0.2,1.8-0.9,2.6-0.8"/>
				<path class="st0" d="M64.2,20c-1.1-0.5-2-1.3-3-2c-0.9-0.6-1.9-1.2-2.8-1.9c-1.6-1.2-3.3-2.6-4.5-4.3c-0.1-0.1-0.3,0-0.2,0.2
					c1.1,1.7,2.7,3,4.3,4.2c1,0.8,2,1.4,3,2c1,0.7,2,1.4,3.1,2C64.2,20.4,64.3,20.1,64.2,20"/>
				<path class="st0" d="M56.2,14.6c-0.4-0.4-3.3-5.3-3.8-4c-0.2,0.5,1,2.2,1.4,2.6c0.7,0.7,2.1,1.3,2.9,1.8"/>
				<path class="st0" d="M57.8,15.8c-0.7-1-1-2.1-1.5-3.2c-0.5-1.1-1.2-2.2-2-3.2c-0.1-0.1-0.3,0-0.2,0.2c0.8,1,1.5,2.1,2,3.3
					c0.5,1,0.7,2.1,1.4,3C57.7,16.1,57.9,15.9,57.8,15.8"/>
				<path class="st0" d="M56.4,13.1c-0.2-0.6-2.8-7.1-3.8-5.6c-0.4,0.7,0.8,2.1,1.2,2.6c0.8,1,1.9,2.2,2.6,3.4"/>
				<path class="st0" d="M50.8,14c-0.6-0.5-2.6-1.5-3.3-1.9c-0.6-0.3-3.5-2.1-4-1.3c-1.1,1.7,6.4,2.9,7,3.1"/>
				<path class="st0" d="M44.6,11.6c1.8,1,3.8,1.7,5.7,2.4c0.2,0.1,0.3-0.2,0.1-0.2c-1.9-0.8-3.9-1.4-5.7-2.4
					C44.5,11.2,44.4,11.5,44.6,11.6"/>
				<path class="st0" d="M52.2,15.2c-1,0.2-2,0.2-3,0.4c-0.9,0.1-1.8,0.4-2.7,0.6c-0.2,0-0.1,0.3,0.1,0.3c1-0.2,2.1-0.5,3.1-0.6
					c0.9-0.1,1.8-0.1,2.6-0.3C52.5,15.5,52.4,15.2,52.2,15.2"/>
				<path class="st0" d="M51.3,15.5c-1-0.1-2.1-0.4-3.4-0.2c-0.5,0.1-2.6,0.3-2.6,1.1C45.3,17.9,50.9,15.6,51.3,15.5"/>
				<path class="st0" d="M48.5,13.4c-1.3,0.3-2.7,0.5-4,0.3c-0.8-0.1-3.1-0.3-3.5-1.3c0.5-0.6,1.2-0.2,1.9,0
					c0.9,0.2,3.3,0.7,4.3,0.7"/>
				<path class="st0" d="M47.7,13.3c-1.7,0.2-3.3-0.2-5-0.5c-0.2,0-0.2,0.2,0,0.3c1.6,0.4,3.3,0.8,5,0.5
					C47.9,13.6,47.9,13.3,47.7,13.3"/>
			</g>
			<g>
				<path class="st0" d="M69.2,18.2c-0.1-0.6-0.6-1.2-0.9-1.6c-0.2-0.2-1.5-1.4-1.9-1.3c-0.7,0.2,0.6,1.5,0.8,1.7
					C67.7,17.5,68.5,17.9,69.2,18.2"/>
				<path class="st0" d="M71.2,22.8c-0.5-0.6-0.6-1.5-0.6-2.2c-0.1-0.9,0-1.9,0-2.8c0-1.8,0.3-3.6,0.7-5.4c0-0.1-0.2-0.2-0.2,0
					c-0.2,0.9-0.4,1.9-0.5,2.9s-0.1,1.9-0.1,2.9c0,0.9-0.1,1.8,0,2.7c0.1,0.7,0.2,1.6,0.6,2.1C71.1,23.1,71.2,22.9,71.2,22.8"/>
				<path class="st0" d="M70.7,15.2c0.1-0.4,1.6-3.6,0.7-3.8c-0.6-0.1-0.9,1.3-0.9,1.6C70.4,13.8,70.6,14.6,70.7,15.2
					C70.7,15.3,70.7,15.3,70.7,15.2z"/>
				<path class="st0" d="M71.1,14.5c0.7-0.6,2.6-1.6,3-3c0.2-0.9-0.6-0.7-1.1-0.2c-0.5,0.5-1.1,1.1-1.4,1.8"/>
				<path class="st0" d="M73.1,11.7c-0.6,0.6-1.2,1.2-1.8,1.8c-0.1,0.1,0.1,0.2,0.2,0.1c0.6-0.6,1.2-1.2,1.8-1.8
					C73.4,11.8,73.2,11.6,73.1,11.7"/>
				<path class="st0" d="M70.6,17.4c0.5-1.1,1.6-1.8,2.4-2.6c0.1-0.1-0.1-0.2-0.2-0.1c-0.8,0.9-1.9,1.5-2.4,2.7
					C70.4,17.4,70.6,17.5,70.6,17.4"/>
				<path class="st0" d="M71.3,16.2c0.6-0.4,1.6-0.7,2.1-1.2c0.3-0.3,1.2-1.2,0.2-1.2C72.7,13.9,71.8,15.6,71.3,16.2"/>
				<path class="st0" d="M70.6,19.8c-0.3-0.6-0.8-1.1-1.2-1.6c-0.7-0.8-1.4-1.5-2.3-2.2c-0.1-0.1-0.2,0.1-0.1,0.2
					c0.8,0.6,1.5,1.4,2.2,2.1c0.4,0.5,0.9,1,1.2,1.6C70.4,20,70.6,19.9,70.6,19.8"/>
				<path class="st0" d="M71.3,20.2c-0.4,0.3-0.7,0.7-0.9,1.1c-0.1,0.1,0.1,0.2,0.2,0.1c0.2-0.4,0.5-0.8,0.8-1
					C71.5,20.3,71.4,20.1,71.3,20.2"/>
				<path class="st0" d="M68.2,10.1c0.3-0.5,2.4-4.9,1.2-5c-0.6-0.1-1.1,1.3-1.2,1.8c-0.1,0.4-0.1,1-0.1,1.5
					C68.1,9,68.1,9.3,68.2,10.1"/>
				<path class="st0" d="M69,6.2c-0.5,0.9-0.6,2-0.8,3c-0.2,1.1-0.1,2,0.4,3c0.1,0.1,0.3,0,0.2-0.1c-0.2-0.5-0.4-0.9-0.5-1.5
					c-0.1-0.6,0-1.1,0.1-1.6c0.2-1,0.3-1.9,0.8-2.8C69.2,6.1,69,6.1,69,6.2"/>
				<path class="st0" d="M70,14c-0.6-0.7-1-1.5-1.4-2.2c-0.3-0.5-0.7-1-1.1-1.4c-0.8-0.9-1.7-1.9-2.7-2.6c-0.1-0.1-0.2,0.1-0.1,0.2
					c1.1,0.7,1.9,1.7,2.8,2.6c0.9,1.1,1.4,2.5,2.4,3.6C69.9,14.2,70.1,14.1,70,14"/>
				<path class="st0" d="M67.7,10.6c-0.6-0.9-1.2-2.2-2-2.9c-0.4-0.4-2-1.2-1.7,0c0.1,0.6,0.9,1.1,1.4,1.5c0.8,0.7,1.9,1.2,2.7,1.9"
					/>
				<path class="st0" d="M70.6,18.1c-0.5-0.5-0.8-1.3-1.2-1.9c-0.6-0.7-1.2-1.4-1.9-1.9c-1.3-1.2-3.1-1.9-4.5-3.1
					c-0.1-0.1-0.2,0.1-0.1,0.2c1.3,1.1,2.9,1.8,4.2,2.9c0.8,0.6,1.5,1.4,2.1,2.1c0.5,0.6,0.7,1.3,1.2,1.9
					C70.5,18.4,70.6,18.2,70.6,18.1"/>
				<path class="st0" d="M66.8,13.9c-0.8-0.7-1.7-1.8-2.5-2.4c-0.3-0.2-1.5-0.8-2-0.4c-0.9,0.7,3.9,2.6,4.2,2.7"/>
				<path class="st0" d="M69.2,16.1c-0.7-0.8-0.7-2-1.2-2.9c-0.5-0.8-1.2-1.5-1.9-2c-0.1-0.1-0.2,0.1-0.1,0.2c0.8,0.6,1.6,1.4,2,2.3
					c0.4,0.9,0.5,1.8,1.1,2.6C69.1,16.4,69.3,16.2,69.2,16.1"/>
				<path class="st0" d="M68.3,14.3c-0.1-0.9-0.6-2.2-1.2-2.9c-0.3-0.3-1.9-1.6-1.9-0.4c0,0.5,1,1.2,1.4,1.6
					c0.5,0.4,1.3,0.8,1.6,1.3"/>
				<path class="st0" d="M70.1,17.5C70,16.6,70,15.7,70,14.8c0-0.8,0-1.7,0-2.5c0.1-1.5,0.2-3.1,0.8-4.5c0.1-0.1-0.1-0.2-0.2-0.1
					c-0.6,1.4-0.7,2.9-0.8,4.4c-0.1,0.9,0,1.8,0,2.7c0,0.9-0.1,1.8,0.1,2.7C69.9,17.7,70.1,17.7,70.1,17.5"/>
				<path class="st0" d="M70.1,10.4C70.2,9.9,72,6.2,71,6.3c-0.4,0.1-1,1.5-1.1,2c-0.2,0.8,0.1,1.8,0.1,2.6"/>
				<path class="st0" d="M70.1,11.8c0.3-0.8,0.9-1.4,1.3-2.2c0.5-0.8,0.8-1.7,1.1-2.5c0-0.1-0.2-0.2-0.2-0.1
					c-0.3,0.9-0.7,1.8-1.2,2.6c-0.4,0.7-1,1.3-1.3,2.1C69.8,11.9,70,11.9,70.1,11.8"/>
				<path class="st0" d="M71.2,9.9c0.3-0.4,3.2-4.6,1.9-4.7c-0.6,0-1,1.4-1.1,1.8c-0.3,0.9-0.6,2.1-1,3"/>
				<path class="st0" d="M68.3,6.7c0-0.6-0.1-2.2-0.2-2.8c-0.1-0.5-0.2-3-0.8-3c-1.5,0,0.8,5.2,1,5.6"/>
				<path class="st0" d="M67.2,1.9c0.1,1.5,0.6,3,0.9,4.5c0,0.1,0.2,0.1,0.2,0c-0.3-1.5-0.8-3-0.9-4.5C67.4,1.7,67.2,1.7,67.2,1.9"
					/>
				<path class="st0" d="M68.1,8.1c-0.5-0.5-1-1.2-1.5-1.7c-0.5-0.5-1-1-1.5-1.4C65,4.9,64.9,5.1,65,5.2c0.6,0.6,1.2,1.1,1.7,1.7
					c0.4,0.5,0.8,1,1.3,1.5C68.1,8.4,68.2,8.2,68.1,8.1"/>
				<path class="st0" d="M67.6,7.7c-0.4-0.7-0.6-1.5-1.3-2.2C66,5.2,65,4,64.5,4.4C63.6,5,67.3,7.5,67.6,7.7"/>
				<path class="st0" d="M67.7,5.1c-0.7-0.7-1.4-1.4-1.9-2.3c-0.3-0.6-1.1-2-0.6-2.7c0.6,0,0.6,0.7,0.8,1.2c0.2,0.7,1,2.3,1.3,3"/>
				<path class="st0" d="M67.4,4.5c-0.8-0.9-1.3-2.1-1.7-3.3c-0.1-0.1-0.2,0-0.2,0.1c0.4,1.2,0.9,2.4,1.8,3.3
					C67.4,4.8,67.5,4.6,67.4,4.5"/>
			</g>
		</g>
		<g>
			<path class="st0" d="M8.5,29.2h0.6v7.8H14v0.5H8.5C8.5,37.6,8.5,29.2,8.5,29.2z"/>
			<path class="st0" d="M19.3,31.9c0.4,0.4,0.6,1,0.6,1.8v4h-0.6v-1.1c-0.2,0.4-0.5,0.7-0.9,0.9c-0.4,0.2-0.8,0.3-1.4,0.3
				c-0.7,0-1.2-0.2-1.6-0.5s-0.6-0.8-0.6-1.3s0.2-0.9,0.6-1.3c0.4-0.3,1-0.5,1.8-0.5h2.1v-0.5c0-0.6-0.2-1-0.5-1.3
				c-0.3-0.3-0.8-0.5-1.4-0.5c-0.4,0-0.8,0.1-1.2,0.2c-0.4,0.1-0.7,0.3-1,0.6L15,32.2c0.3-0.3,0.7-0.5,1.1-0.6
				c0.4-0.2,0.9-0.2,1.4-0.2C18.2,31.3,18.8,31.5,19.3,31.9L19.3,31.9z M18.5,36.8c0.4-0.2,0.6-0.6,0.8-1v-1.2h-2.1
				c-0.6,0-1.1,0.1-1.3,0.3c-0.3,0.2-0.4,0.5-0.4,0.9s0.1,0.7,0.5,1c0.3,0.2,0.7,0.3,1.3,0.3C17.7,37.2,18.1,37,18.5,36.8z"/>
			<path class="st0" d="M30.2,31.7c0.5,0.3,0.8,0.6,1.1,1.1c0.3,0.5,0.4,1,0.4,1.7s-0.1,1.2-0.4,1.6s-0.6,0.9-1.1,1.1
				s-1,0.4-1.6,0.4s-1.1-0.1-1.5-0.4s-0.8-0.6-1-1.1v1.5h-0.6v-8.9H26v4.1c0.2-0.5,0.6-0.8,1-1.1c0.5-0.3,1-0.4,1.5-0.4
				C29.2,31.3,29.7,31.4,30.2,31.7L30.2,31.7z M29.9,36.8c0.4-0.2,0.7-0.5,0.9-0.9c0.2-0.4,0.3-0.9,0.3-1.4s-0.1-1-0.3-1.4
				c-0.2-0.4-0.5-0.7-0.9-0.9c-0.4-0.2-0.8-0.3-1.3-0.3s-0.9,0.1-1.3,0.3c-0.4,0.2-0.7,0.5-0.9,0.9S26,34,26,34.5s0.1,1,0.3,1.4
				c0.2,0.4,0.5,0.7,0.9,0.9c0.4,0.2,0.8,0.3,1.3,0.3S29.5,37,29.9,36.8z"/>
			<path class="st0" d="M38.8,34.6h-5.4c0,0.5,0.1,0.9,0.4,1.3s0.5,0.7,0.9,0.9c0.4,0.2,0.8,0.3,1.3,0.3c0.4,0,0.8-0.1,1.1-0.2
				s0.6-0.4,0.9-0.7l0.3,0.4c-0.3,0.3-0.6,0.6-1,0.8c-0.4,0.2-0.9,0.3-1.3,0.3c-0.6,0-1.2-0.1-1.7-0.4s-0.9-0.7-1.2-1.1
				s-0.4-1-0.4-1.6s0.1-1.2,0.4-1.6c0.3-0.5,0.6-0.9,1.1-1.1c0.5-0.3,1-0.4,1.5-0.4s1.1,0.1,1.5,0.4c0.5,0.3,0.8,0.6,1.1,1.1
				s0.4,1,0.4,1.6C38.8,34.4,38.8,34.6,38.8,34.6z M34.7,32.1c-0.3,0.2-0.6,0.5-0.8,0.8c-0.2,0.4-0.3,0.8-0.4,1.2h4.8
				c0-0.5-0.1-0.8-0.4-1.2c-0.2-0.3-0.5-0.6-0.8-0.8s-0.8-0.3-1.2-0.3S35,31.9,34.7,32.1L34.7,32.1z"/>
			<path class="st0" d="M40.7,28.7h0.6v8.9h-0.6C40.7,37.6,40.7,28.7,40.7,28.7z"/>
			<path class="st0" d="M43.8,28.7h0.6v8.9h-0.6C43.8,37.6,43.8,28.7,43.8,28.7z"/>
			<path class="st0" d="M52.3,34.6h-5.4c0,0.5,0.1,0.9,0.4,1.3s0.5,0.7,0.9,0.9c0.4,0.2,0.8,0.3,1.3,0.3c0.4,0,0.8-0.1,1.1-0.2
				s0.6-0.4,0.9-0.7l0.3,0.4c-0.3,0.3-0.6,0.6-1,0.8c-0.4,0.2-0.9,0.3-1.3,0.3c-0.6,0-1.2-0.1-1.7-0.4s-0.9-0.7-1.2-1.1
				s-0.4-1-0.4-1.6s0.1-1.2,0.4-1.6c0.3-0.5,0.6-0.9,1.1-1.1c0.5-0.3,1-0.4,1.5-0.4s1.1,0.1,1.5,0.4c0.5,0.3,0.8,0.6,1.1,1.1
				s0.4,1,0.4,1.6C52.3,34.4,52.3,34.6,52.3,34.6z M48.1,32.1c-0.3,0.2-0.6,0.5-0.8,0.8c-0.2,0.4-0.3,0.8-0.4,1.2h4.8
				c0-0.5-0.1-0.8-0.4-1.2c-0.2-0.3-0.5-0.6-0.8-0.8s-0.8-0.3-1.2-0.3S48.4,31.9,48.1,32.1L48.1,32.1z"/>
			<path class="st0" d="M58.3,37.1v0.5h-5v-0.4l4.1-5.3h-4.1v-0.5h4.8v0.4l-4.1,5.3H58.3z"/>
			<path class="st0" d="M64,31.9c0.4,0.4,0.6,1,0.6,1.8v4h-0.6v-1.1c-0.2,0.4-0.5,0.7-0.9,0.9c-0.4,0.2-0.8,0.3-1.4,0.3
				c-0.7,0-1.2-0.2-1.7-0.5s-0.6-0.8-0.6-1.3s0.2-0.9,0.6-1.3c0.4-0.3,1-0.5,1.8-0.5H64v-0.5c0-0.6-0.2-1-0.5-1.3
				c-0.3-0.3-0.8-0.5-1.4-0.5c-0.4,0-0.8,0.1-1.2,0.2c-0.4,0.1-0.7,0.3-1,0.6l-0.3-0.4c0.3-0.3,0.7-0.5,1.1-0.6
				c0.4-0.2,0.9-0.2,1.4-0.2C63,31.3,63.6,31.5,64,31.9L64,31.9z M63.2,36.8c0.4-0.2,0.6-0.6,0.8-1v-1.2h-2.1
				c-0.6,0-1.1,0.1-1.3,0.3c-0.3,0.2-0.4,0.5-0.4,0.9s0.2,0.7,0.5,1c0.3,0.2,0.7,0.3,1.3,0.3C62.4,37.2,62.8,37,63.2,36.8z"/>
			<path class="st0" d="M71,37.2c-0.5-0.3-0.9-0.7-1.1-1.1s-0.4-1-0.4-1.6s0.1-1.2,0.4-1.7c0.3-0.5,0.7-0.9,1.1-1.1
				c0.5-0.3,1-0.4,1.6-0.4c0.5,0,1,0.1,1.4,0.3c0.4,0.2,0.8,0.5,1,0.9l-0.4,0.3c-0.2-0.3-0.5-0.5-0.8-0.7c-0.3-0.2-0.7-0.2-1.1-0.2
				c-0.5,0-0.9,0.1-1.3,0.3s-0.7,0.5-0.9,0.9s-0.3,0.9-0.3,1.4s0.1,1,0.3,1.4s0.5,0.7,0.9,0.9c0.4,0.2,0.8,0.3,1.3,0.3
				c0.4,0,0.8-0.1,1.1-0.2c0.3-0.2,0.6-0.4,0.8-0.7l0.4,0.3c-0.3,0.4-0.6,0.7-1,0.9s-0.9,0.3-1.4,0.3C72.1,37.7,71.5,37.5,71,37.2z"
				/>
			<path class="st0" d="M77.6,37.2c-0.5-0.3-0.8-0.7-1.1-1.1c-0.3-0.5-0.4-1-0.4-1.6s0.1-1.2,0.4-1.6c0.3-0.5,0.7-0.9,1.1-1.1
				c0.5-0.3,1-0.4,1.6-0.4s1.1,0.1,1.6,0.4s0.8,0.6,1.1,1.1c0.3,0.5,0.4,1,0.4,1.6s-0.1,1.2-0.4,1.6c-0.3,0.5-0.7,0.9-1.1,1.1
				s-1,0.4-1.6,0.4S78.1,37.5,77.6,37.2z M80.5,36.8c0.4-0.2,0.7-0.5,0.9-0.9c0.2-0.4,0.3-0.9,0.3-1.4s-0.1-1-0.3-1.4
				c-0.2-0.4-0.5-0.7-0.9-0.9c-0.4-0.2-0.8-0.3-1.3-0.3s-0.9,0.1-1.3,0.3c-0.4,0.2-0.7,0.5-0.9,0.9c-0.2,0.4-0.3,0.9-0.3,1.4
				s0.1,1,0.3,1.4c0.2,0.4,0.5,0.7,0.9,0.9c0.4,0.2,0.8,0.3,1.3,0.3S80.1,37,80.5,36.8z"/>
			<path class="st0" d="M93.8,32c0.4,0.5,0.7,1.1,0.7,2v3.7h-0.6V34c0-0.7-0.2-1.2-0.5-1.6c-0.3-0.4-0.8-0.5-1.4-0.5
				c-0.7,0-1.3,0.2-1.7,0.7s-0.6,1-0.6,1.8v3.3H89V34c0-0.7-0.2-1.2-0.5-1.6c-0.3-0.4-0.8-0.5-1.4-0.5c-0.7,0-1.3,0.2-1.7,0.7
				c-0.4,0.4-0.6,1-0.6,1.8v3.3h-0.6v-6.3h0.6v1.3c0.2-0.4,0.5-0.8,0.9-1s0.9-0.4,1.5-0.4s1.1,0.1,1.4,0.4c0.4,0.3,0.7,0.6,0.8,1.1
				c0.2-0.5,0.5-0.8,1-1.1s1-0.4,1.6-0.4C92.8,31.3,93.4,31.5,93.8,32L93.8,32z"/>
			<path class="st0" d="M96.9,29.7c-0.1-0.1-0.1-0.2-0.1-0.3s0.1-0.2,0.1-0.4s0.2-0.1,0.3-0.1s0.2,0,0.3,0.1s0.1,0.2,0.1,0.3
				s-0.1,0.2-0.1,0.4c-0.1,0.1-0.2,0.1-0.3,0.1S97,29.8,96.9,29.7z M97,31.3h0.6v6.3H97C97,37.6,97,31.3,97,31.3z"/>
			<path class="st0" d="M105.4,34.6H100c0,0.5,0.1,0.9,0.4,1.3s0.6,0.7,0.9,0.9c0.4,0.2,0.8,0.3,1.3,0.3c0.4,0,0.8-0.1,1.1-0.2
				s0.6-0.4,0.9-0.7l0.3,0.4c-0.3,0.3-0.6,0.6-1,0.8c-0.4,0.2-0.9,0.3-1.3,0.3c-0.6,0-1.2-0.1-1.7-0.4s-0.9-0.7-1.2-1.1
				s-0.4-1-0.4-1.6s0.1-1.2,0.4-1.6c0.3-0.5,0.6-0.9,1.1-1.1c0.5-0.3,1-0.4,1.5-0.4s1.1,0.1,1.5,0.4s0.8,0.6,1.1,1.1s0.4,1,0.4,1.6
				C105.4,34.4,105.4,34.6,105.4,34.6z M101.2,32.1c-0.3,0.2-0.6,0.5-0.8,0.8c-0.2,0.4-0.3,0.8-0.4,1.2h4.8c0-0.5-0.1-0.8-0.4-1.2
				c-0.2-0.3-0.5-0.6-0.8-0.8s-0.8-0.3-1.2-0.3S101.5,31.9,101.2,32.1L101.2,32.1z"/>
			<path class="st0" d="M112.2,32c0.5,0.5,0.7,1.1,0.7,2v3.7h-0.6V34c0-0.7-0.2-1.2-0.5-1.6c-0.4-0.4-0.8-0.5-1.5-0.5
				c-0.7,0-1.3,0.2-1.7,0.7s-0.6,1-0.6,1.8v3.3h-0.6v-6.3h0.6v1.4c0.2-0.4,0.5-0.8,1-1s0.9-0.4,1.5-0.4
				C111.1,31.3,111.7,31.5,112.2,32L112.2,32z"/>
			<path class="st0" d="M119.6,37.1v0.5h-5v-0.4l4.1-5.3h-4.1v-0.5h4.8v0.4l-4.1,5.3C115.3,37.1,119.6,37.1,119.6,37.1z"/>
			<path class="st0" d="M125.3,31.9c0.4,0.4,0.6,1,0.6,1.8v4h-0.6v-1.1c-0.2,0.4-0.5,0.7-0.9,0.9c-0.4,0.2-0.8,0.3-1.4,0.3
				c-0.7,0-1.2-0.2-1.7-0.5s-0.6-0.8-0.6-1.3s0.2-0.9,0.6-1.3c0.4-0.3,1-0.5,1.8-0.5h2.2v-0.5c0-0.6-0.2-1-0.5-1.3
				c-0.3-0.3-0.8-0.5-1.4-0.5c-0.4,0-0.8,0.1-1.2,0.2c-0.4,0.1-0.7,0.3-1,0.6l-0.3-0.4c0.3-0.3,0.7-0.5,1.1-0.6
				c0.4-0.2,0.9-0.2,1.4-0.2C124.2,31.3,124.8,31.5,125.3,31.9L125.3,31.9z M124.5,36.8c0.4-0.2,0.6-0.6,0.8-1v-1.2h-2.1
				c-0.6,0-1.1,0.1-1.3,0.3c-0.3,0.2-0.4,0.5-0.4,0.9s0.2,0.7,0.5,1c0.3,0.2,0.7,0.3,1.3,0.3C123.6,37.2,124.1,37,124.5,36.8z"/>
			<path class="st0" d="M14.5,49H9.1c0,0.5,0.1,0.9,0.4,1.3s0.6,0.7,0.9,0.9c0.4,0.2,0.8,0.3,1.3,0.3c0.4,0,0.8-0.1,1.1-0.2
				s0.6-0.4,0.9-0.7l0.4,0.4c-0.3,0.3-0.6,0.6-1,0.8c-0.4,0.2-0.9,0.3-1.3,0.3c-0.6,0-1.2-0.1-1.7-0.4S9.2,51,8.9,50.5
				s-0.4-1-0.4-1.6s0.1-1.2,0.4-1.6c0.3-0.5,0.6-0.9,1.1-1.1c0.5-0.3,1-0.4,1.5-0.4s1.1,0.1,1.5,0.4s0.8,0.6,1.1,1.1
				c0.3,0.5,0.4,1,0.4,1.6C14.5,48.8,14.5,49,14.5,49z M10.3,46.5c-0.4,0.2-0.6,0.5-0.9,0.8c-0.2,0.4-0.3,0.8-0.4,1.2h4.8
				c0-0.5-0.1-0.8-0.4-1.2c-0.2-0.3-0.5-0.6-0.9-0.8s-0.8-0.3-1.2-0.3S10.6,46.3,10.3,46.5L10.3,46.5z"/>
			<path class="st0" d="M21.3,46.4c0.5,0.5,0.7,1.1,0.7,2V52h-0.6v-3.6c0-0.7-0.2-1.2-0.5-1.6c-0.4-0.4-0.9-0.5-1.5-0.5
				c-0.7,0-1.3,0.2-1.7,0.7s-0.6,1-0.6,1.8V52h-0.6v-6.3h0.6v1.4c0.2-0.4,0.5-0.8,1-1c0.4-0.2,0.9-0.4,1.5-0.4
				C20.2,45.7,20.8,46,21.3,46.4L21.3,46.4z"/>
			<path class="st0" d="M32.8,49h-5.4c0,0.5,0.1,0.9,0.4,1.3s0.5,0.7,0.9,0.9c0.4,0.2,0.8,0.3,1.3,0.3c0.4,0,0.8-0.1,1.1-0.2
				s0.6-0.4,0.9-0.7l0.3,0.4c-0.3,0.3-0.6,0.6-1,0.8C31,52,30.5,52.1,30,52.1c-0.6,0-1.2-0.1-1.7-0.4s-0.9-0.7-1.1-1.1
				s-0.4-1-0.4-1.6s0.1-1.2,0.4-1.6c0.3-0.5,0.6-0.9,1.1-1.1c0.5-0.3,1-0.4,1.5-0.4s1.1,0.1,1.5,0.4s0.8,0.6,1.1,1.1
				c0.3,0.5,0.4,1,0.4,1.6C32.8,48.8,32.8,49,32.8,49z M28.6,46.5c-0.4,0.2-0.6,0.5-0.9,0.8c-0.2,0.4-0.3,0.8-0.4,1.2h4.8
				c0-0.5-0.1-0.8-0.4-1.2c-0.2-0.3-0.5-0.6-0.9-0.8s-0.8-0.3-1.2-0.3S29,46.3,28.6,46.5L28.6,46.5z"/>
			<path class="st0" d="M34.7,43.1h0.6V52h-0.6V43.1z"/>
			<path class="st0" d="M50.5,46.4c0.4,0.5,0.7,1.1,0.7,2V52h-0.6v-3.6c0-0.7-0.2-1.2-0.5-1.6c-0.3-0.4-0.8-0.5-1.4-0.5
				c-0.7,0-1.3,0.2-1.7,0.7s-0.6,1-0.6,1.8V52h-0.6v-3.6c0-0.7-0.2-1.2-0.5-1.6c-0.3-0.4-0.8-0.5-1.4-0.5c-0.7,0-1.3,0.2-1.7,0.7
				s-0.6,1-0.6,1.8V52h-0.6v-6.3h0.6v1.3c0.2-0.4,0.5-0.8,0.9-1s0.9-0.4,1.5-0.4s1,0.1,1.5,0.4c0.4,0.3,0.7,0.6,0.8,1.1
				c0.2-0.5,0.5-0.8,1-1.1s1-0.4,1.5-0.4C49.5,45.7,50.1,45.9,50.5,46.4L50.5,46.4z"/>
			<path class="st0" d="M54.5,51.7c-0.5-0.3-0.8-0.7-1.1-1.1s-0.4-1-0.4-1.6s0.1-1.2,0.4-1.6c0.3-0.5,0.7-0.9,1.1-1.1
				c0.5-0.3,1-0.4,1.6-0.4s1.1,0.1,1.6,0.4s0.8,0.7,1.1,1.1s0.4,1,0.4,1.6s-0.1,1.2-0.4,1.6c-0.3,0.5-0.7,0.9-1.1,1.1
				s-1,0.4-1.6,0.4S55,51.9,54.5,51.7z M57.4,51.2c0.4-0.2,0.7-0.5,0.9-0.9c0.2-0.4,0.3-0.9,0.3-1.4s-0.1-1-0.3-1.4
				c-0.2-0.4-0.5-0.7-0.9-0.9c-0.4-0.2-0.8-0.3-1.3-0.3s-0.9,0.1-1.3,0.3c-0.4,0.2-0.7,0.5-0.9,0.9c-0.2,0.4-0.3,0.9-0.3,1.4
				s0.1,1,0.3,1.4c0.2,0.4,0.5,0.7,0.9,0.9c0.4,0.2,0.8,0.3,1.3,0.3S57,51.4,57.4,51.2z"/>
			<path class="st0" d="M70.7,46.4c0.4,0.5,0.7,1.1,0.7,2V52h-0.6v-3.6c0-0.7-0.2-1.2-0.5-1.6c-0.3-0.4-0.8-0.5-1.4-0.5
				c-0.7,0-1.3,0.2-1.7,0.7s-0.6,1-0.6,1.8V52H66v-3.6c0-0.7-0.2-1.2-0.5-1.6c-0.3-0.4-0.8-0.5-1.4-0.5c-0.7,0-1.3,0.2-1.7,0.7
				s-0.6,1-0.6,1.8V52h-0.6v-6.3h0.6v1.3c0.2-0.4,0.5-0.8,0.9-1s0.9-0.4,1.5-0.4c0.6,0,1.1,0.1,1.4,0.4c0.4,0.3,0.7,0.6,0.8,1.1
				c0.2-0.5,0.5-0.8,1-1.1s1-0.4,1.6-0.4C69.7,45.7,70.3,45.9,70.7,46.4L70.7,46.4z"/>
			<path class="st0" d="M79.2,49h-5.4c0,0.5,0.1,0.9,0.4,1.3s0.6,0.7,0.9,0.9c0.4,0.2,0.8,0.3,1.3,0.3c0.4,0,0.8-0.1,1.1-0.2
				s0.6-0.4,0.9-0.7l0.3,0.4c-0.3,0.3-0.6,0.6-1,0.8c-0.4,0.2-0.9,0.3-1.3,0.3c-0.6,0-1.2-0.1-1.7-0.4s-0.9-0.7-1.2-1.1
				s-0.4-1-0.4-1.6s0.1-1.2,0.4-1.6c0.3-0.5,0.6-0.9,1.1-1.1c0.5-0.3,1-0.4,1.5-0.4s1.1,0.1,1.5,0.4s0.8,0.6,1.1,1.1s0.4,1,0.4,1.6
				C79.2,48.8,79.2,49,79.2,49z M75,46.5c-0.3,0.2-0.6,0.5-0.8,0.8c-0.2,0.4-0.3,0.8-0.4,1.2h4.8c0-0.5-0.1-0.8-0.4-1.2
				c-0.2-0.3-0.5-0.6-0.8-0.8s-0.8-0.3-1.2-0.3S75.3,46.3,75,46.5L75,46.5z"/>
			<path class="st0" d="M86,46.4c0.5,0.5,0.7,1.1,0.7,2V52h-0.6v-3.6c0-0.7-0.2-1.2-0.5-1.6c-0.4-0.4-0.8-0.5-1.5-0.5
				c-0.7,0-1.3,0.2-1.7,0.7s-0.6,1-0.6,1.8V52h-0.6v-6.3h0.6v1.4c0.2-0.4,0.5-0.8,1-1s0.9-0.4,1.5-0.4C84.9,45.7,85.5,46,86,46.4
				L86,46.4z"/>
			<path class="st0" d="M92.2,51.6c-0.2,0.1-0.3,0.2-0.6,0.3s-0.5,0.1-0.7,0.1c-0.5,0-1-0.2-1.3-0.5s-0.4-0.7-0.4-1.2v-4.1h-1.2
				v-0.5h1.2v-1.4h0.6v1.4h2v0.5h-2v4c0,0.4,0.1,0.7,0.3,0.9c0.2,0.2,0.5,0.3,0.9,0.3s0.7-0.1,1-0.3L92.2,51.6z"/>
			<path class="st0" d="M94.5,51.7c-0.5-0.3-0.8-0.7-1.1-1.1c-0.3-0.5-0.4-1-0.4-1.6s0.1-1.2,0.4-1.6c0.3-0.5,0.7-0.9,1.1-1.1
				c0.5-0.3,1-0.4,1.6-0.4s1.1,0.1,1.6,0.4s0.8,0.7,1.1,1.1c0.3,0.5,0.4,1,0.4,1.6s-0.1,1.2-0.4,1.6c-0.3,0.5-0.7,0.9-1.1,1.1
				s-1,0.4-1.6,0.4S95,51.9,94.5,51.7z M97.4,51.2c0.4-0.2,0.7-0.5,0.9-0.9c0.2-0.4,0.3-0.9,0.3-1.4s-0.1-1-0.3-1.4
				c-0.2-0.4-0.5-0.7-0.9-0.9c-0.4-0.2-0.8-0.3-1.3-0.3s-0.9,0.1-1.3,0.3c-0.4,0.2-0.7,0.5-0.9,0.9c-0.2,0.4-0.3,0.9-0.3,1.4
				s0.1,1,0.3,1.4c0.2,0.4,0.5,0.7,0.9,0.9c0.4,0.2,0.8,0.3,1.3,0.3S97,51.4,97.4,51.2z"/>
			<path class="st0" d="M109.8,45.7v8.6h-0.6v-3.8c-0.3,0.5-0.6,0.8-1.1,1.1s-0.9,0.4-1.5,0.4s-1.1-0.1-1.6-0.4s-0.8-0.6-1.1-1.1
				c-0.3-0.5-0.4-1-0.4-1.7s0.1-1.2,0.4-1.6c0.3-0.5,0.6-0.9,1.1-1.1s1-0.4,1.6-0.4s1.1,0.1,1.5,0.4c0.4,0.3,0.8,0.6,1,1.1v-1.5
				H109.8L109.8,45.7z M107.9,51.2c0.4-0.2,0.7-0.5,0.9-0.9c0.2-0.4,0.3-0.9,0.3-1.4s-0.1-1-0.3-1.4c-0.2-0.4-0.5-0.7-0.9-0.9
				c-0.4-0.2-0.8-0.3-1.3-0.3s-0.9,0.1-1.3,0.3c-0.4,0.2-0.7,0.5-0.9,0.9c-0.2,0.4-0.3,0.9-0.3,1.4s0.1,1,0.3,1.4
				c0.2,0.4,0.5,0.7,0.9,0.9c0.4,0.2,0.8,0.3,1.3,0.3S107.6,51.4,107.9,51.2z"/>
			<path class="st0" d="M117.8,45.7V52h-0.6v-1.3c-0.2,0.4-0.5,0.8-0.9,1c-0.4,0.2-0.9,0.4-1.4,0.4c-0.8,0-1.5-0.2-1.9-0.7
				c-0.5-0.5-0.7-1.1-0.7-2v-3.7h0.6v3.6c0,0.7,0.2,1.2,0.5,1.6s0.9,0.5,1.5,0.5c0.7,0,1.3-0.2,1.7-0.7c0.4-0.4,0.6-1,0.6-1.8v-3.3
				L117.8,45.7L117.8,45.7z"/>
			<path class="st0" d="M125.6,49h-5.4c0,0.5,0.1,0.9,0.4,1.3s0.6,0.7,0.9,0.9c0.4,0.2,0.8,0.3,1.3,0.3c0.4,0,0.8-0.1,1.1-0.2
				s0.6-0.4,0.9-0.7l0.3,0.4c-0.3,0.3-0.6,0.6-1,0.8c-0.4,0.2-0.9,0.3-1.3,0.3c-0.6,0-1.2-0.1-1.7-0.4s-0.9-0.7-1.2-1.1
				s-0.4-1-0.4-1.6s0.1-1.2,0.4-1.6c0.3-0.5,0.6-0.9,1.1-1.1c0.5-0.3,1-0.4,1.5-0.4s1.1,0.1,1.5,0.4s0.8,0.6,1.1,1.1s0.4,1,0.4,1.6
				C125.6,48.8,125.6,49,125.6,49z M121.4,46.5c-0.3,0.2-0.6,0.5-0.8,0.8c-0.2,0.4-0.3,0.8-0.4,1.2h4.8c0-0.5-0.1-0.8-0.4-1.2
				c-0.2-0.3-0.5-0.6-0.8-0.8s-0.8-0.3-1.2-0.3S121.8,46.3,121.4,46.5L121.4,46.5z"/>
			<path class="st1" d="M6.8,57.5v8.9H5.4v-0.8c-0.2,0.3-0.6,0.5-0.9,0.7c-0.4,0.2-0.8,0.2-1.2,0.2c-0.6,0-1.2-0.1-1.7-0.4
				c-0.5-0.3-0.9-0.7-1.2-1.2S0,63.8,0,63.2s0.1-1.2,0.4-1.7s0.7-0.9,1.2-1.2s1-0.4,1.7-0.4c0.4,0,0.8,0.1,1.2,0.2s0.7,0.4,0.9,0.7
				v-3.3L6.8,57.5L6.8,57.5z M4.4,65c0.3-0.2,0.5-0.4,0.7-0.7c0.2-0.3,0.2-0.7,0.2-1.1s-0.1-0.8-0.2-1.1c-0.2-0.3-0.4-0.5-0.7-0.7
				s-0.6-0.2-1-0.2s-0.7,0.1-1,0.2c-0.3,0.2-0.5,0.4-0.7,0.7c-0.2,0.3-0.2,0.7-0.2,1.1s0.1,0.8,0.2,1.1c0.2,0.3,0.4,0.5,0.7,0.7
				c0.3,0.2,0.6,0.2,1,0.2S4.1,65.1,4.4,65z"/>
			<path class="st1" d="M14.8,63.7h-5c0.1,0.5,0.3,0.9,0.7,1.1s0.8,0.4,1.4,0.4c0.7,0,1.3-0.2,1.7-0.7l0.8,0.9
				c-0.3,0.3-0.6,0.6-1.1,0.8c-0.4,0.2-0.9,0.3-1.5,0.3c-0.7,0-1.3-0.1-1.9-0.4S9,65.4,8.7,64.9s-0.4-1.1-0.4-1.7s0.1-1.2,0.4-1.7
				C9,61,9.4,60.6,9.9,60.3s1.1-0.4,1.7-0.4s1.2,0.1,1.7,0.4c0.5,0.3,0.9,0.7,1.1,1.2c0.3,0.5,0.4,1.1,0.4,1.7
				C14.8,63.3,14.8,63.5,14.8,63.7L14.8,63.7z M10.3,61.6c-0.3,0.3-0.5,0.7-0.6,1.1h3.6c-0.1-0.5-0.3-0.8-0.6-1.1s-0.7-0.4-1.2-0.4
				S10.7,61.3,10.3,61.6z"/>
			<path class="st1" d="M17.4,66.1c-0.5-0.3-0.9-0.7-1.2-1.2s-0.4-1.1-0.4-1.7s0.1-1.2,0.4-1.7c0.3-0.5,0.7-0.9,1.2-1.2
				s1.1-0.4,1.8-0.4c0.6,0,1.2,0.1,1.7,0.4c0.5,0.3,0.8,0.6,1.1,1.1l-1.1,0.7c-0.2-0.3-0.4-0.5-0.7-0.7c-0.3-0.2-0.6-0.2-0.9-0.2
				c-0.6,0-1,0.2-1.4,0.5c-0.4,0.4-0.5,0.8-0.5,1.5s0.2,1.1,0.5,1.5c0.4,0.4,0.8,0.6,1.4,0.6c0.3,0,0.6-0.1,0.9-0.2s0.5-0.4,0.7-0.7
				l1.1,0.7c-0.2,0.5-0.6,0.8-1.1,1.1s-1,0.4-1.6,0.4C18.5,66.5,17.9,66.4,17.4,66.1L17.4,66.1z"/>
			<path class="st1" d="M23.3,58.7C23.1,58.5,23,58.3,23,58s0.1-0.5,0.3-0.6c0.2-0.2,0.4-0.3,0.7-0.3s0.5,0.1,0.7,0.2
				c0.2,0.2,0.3,0.4,0.3,0.6c0,0.3-0.1,0.5-0.3,0.7C24.5,58.9,24.2,59,24,59S23.5,58.9,23.3,58.7L23.3,58.7z M23.2,60h1.5v6.4h-1.5
				C23.2,66.4,23.2,60,23.2,60z"/>
			<path class="st1" d="M33,57.5v8.9h-1.4v-0.8c-0.2,0.3-0.5,0.5-0.9,0.7c-0.4,0.2-0.8,0.2-1.2,0.2c-0.6,0-1.2-0.1-1.7-0.4
				c-0.5-0.3-0.9-0.7-1.2-1.2s-0.4-1.1-0.4-1.7s0.1-1.2,0.4-1.7s0.7-0.9,1.2-1.2s1-0.4,1.7-0.4c0.4,0,0.8,0.1,1.2,0.2
				s0.6,0.4,0.9,0.7v-3.3L33,57.5L33,57.5z M30.5,65c0.3-0.2,0.5-0.4,0.7-0.7c0.2-0.3,0.2-0.7,0.2-1.1s-0.1-0.8-0.2-1.1
				c-0.2-0.3-0.4-0.5-0.7-0.7s-0.6-0.2-1-0.2s-0.7,0.1-1,0.2c-0.3,0.2-0.5,0.4-0.7,0.7c-0.2,0.3-0.2,0.7-0.2,1.1s0.1,0.8,0.2,1.1
				c0.2,0.3,0.4,0.5,0.7,0.7c0.3,0.2,0.6,0.2,1,0.2S30.3,65.1,30.5,65z"/>
			<path class="st1" d="M40.9,63.7h-5c0.1,0.5,0.3,0.9,0.7,1.1s0.8,0.4,1.4,0.4c0.7,0,1.3-0.2,1.7-0.7l0.8,0.9
				c-0.3,0.3-0.7,0.6-1.1,0.8s-0.9,0.3-1.5,0.3c-0.7,0-1.3-0.1-1.9-0.4s-1-0.7-1.2-1.2s-0.4-1.1-0.4-1.7s0.1-1.2,0.4-1.7
				c0.3-0.5,0.7-0.9,1.2-1.2s1.1-0.4,1.7-0.4s1.2,0.1,1.7,0.4c0.5,0.3,0.9,0.7,1.2,1.2c0.3,0.5,0.4,1.1,0.4,1.7
				C40.9,63.3,40.9,63.5,40.9,63.7L40.9,63.7z M36.5,61.6c-0.3,0.3-0.5,0.7-0.6,1.1h3.6c-0.1-0.5-0.3-0.8-0.6-1.1s-0.7-0.4-1.2-0.4
				S36.8,61.3,36.5,61.6z"/>
			<path class="st1" d="M42.8,66.3c-0.5-0.1-0.9-0.3-1.2-0.5l0.6-1.1c0.3,0.2,0.6,0.3,1,0.5c0.4,0.1,0.8,0.2,1.2,0.2
				c0.9,0,1.3-0.2,1.3-0.7c0-0.2-0.1-0.4-0.3-0.5s-0.6-0.2-1.1-0.2c-0.5-0.1-1-0.2-1.3-0.3c-0.3-0.1-0.6-0.3-0.9-0.5
				s-0.4-0.6-0.4-1.1c0-0.6,0.2-1.1,0.8-1.5c0.5-0.4,1.2-0.5,2.1-0.5c0.4,0,0.9,0,1.3,0.2s0.8,0.2,1.1,0.4l-0.6,1.1
				c-0.5-0.3-1.2-0.5-1.8-0.5c-0.4,0-0.8,0.1-1,0.2s-0.3,0.3-0.3,0.5c0,0.2,0.1,0.4,0.4,0.5c0.2,0.1,0.6,0.2,1.1,0.3
				c0.5,0.1,0.9,0.2,1.3,0.3s0.6,0.3,0.8,0.5c0.2,0.2,0.3,0.6,0.3,1.1c0,0.6-0.3,1.1-0.8,1.4s-1.2,0.5-2.1,0.5
				C43.8,66.5,43.3,66.4,42.8,66.3L42.8,66.3z"/>
			<path class="st1" d="M52.3,66.3c-0.5-0.1-0.9-0.3-1.2-0.5l0.6-1.1c0.3,0.2,0.6,0.3,1,0.5c0.4,0.1,0.8,0.2,1.2,0.2
				c0.9,0,1.3-0.2,1.3-0.7c0-0.2-0.1-0.4-0.3-0.5s-0.6-0.2-1.1-0.2c-0.5-0.1-1-0.2-1.3-0.3c-0.3-0.1-0.6-0.3-0.9-0.5
				s-0.4-0.6-0.4-1.1c0-0.6,0.2-1.1,0.8-1.5c0.5-0.4,1.2-0.5,2.1-0.5c0.4,0,0.9,0,1.3,0.2s0.8,0.2,1.1,0.4L56,61.6
				c-0.5-0.3-1.2-0.5-1.8-0.5c-0.4,0-0.8,0.1-1,0.2s-0.3,0.3-0.3,0.5c0,0.2,0.1,0.4,0.4,0.5c0.2,0.1,0.6,0.2,1.1,0.3
				c0.5,0.1,0.9,0.2,1.3,0.3s0.6,0.3,0.8,0.5c0.2,0.2,0.3,0.6,0.3,1.1c0,0.6-0.3,1.1-0.8,1.4s-1.2,0.5-2.1,0.5
				C53.3,66.5,52.8,66.4,52.3,66.3L52.3,66.3z"/>
			<path class="st1" d="M64.1,63.7h-5c0.1,0.5,0.3,0.9,0.7,1.1s0.8,0.4,1.4,0.4c0.7,0,1.3-0.2,1.7-0.7l0.8,0.9
				c-0.3,0.3-0.7,0.6-1.1,0.8s-0.9,0.3-1.5,0.3c-0.7,0-1.3-0.1-1.9-0.4s-1-0.7-1.2-1.2s-0.4-1.1-0.4-1.7s0.1-1.2,0.4-1.7
				c0.3-0.5,0.7-0.9,1.2-1.2s1.1-0.4,1.7-0.4s1.2,0.1,1.7,0.4c0.5,0.3,0.9,0.7,1.2,1.2c0.3,0.5,0.4,1.1,0.4,1.7
				C64.1,63.3,64.1,63.5,64.1,63.7L64.1,63.7z M59.6,61.6c-0.3,0.3-0.5,0.7-0.6,1.1h3.6c-0.1-0.5-0.3-0.8-0.6-1.1s-0.7-0.4-1.2-0.4
				S60,61.3,59.6,61.6z"/>
			<path class="st1" d="M69.2,59.9v1.4c-0.1,0-0.2,0-0.3,0c-0.6,0-1,0.2-1.4,0.5S67,62.7,67,63.3v3.1h-1.5V60H67v0.9
				C67.4,60.3,68.1,59.9,69.2,59.9z"/>
			<path class="st1" d="M77.7,66.1c-0.2,0.1-0.4,0.2-0.6,0.3s-0.5,0.1-0.8,0.1c-0.7,0-1.2-0.2-1.6-0.6s-0.6-0.9-0.6-1.6v-3.1H73V60
				h1.1v-1.5h1.5V60h1.7v1.2h-1.7v3.1c0,0.3,0.1,0.6,0.2,0.7s0.4,0.2,0.7,0.2c0.3,0,0.6-0.1,0.8-0.3L77.7,66.1L77.7,66.1z"/>
			<path class="st1" d="M85.2,60v6.4h-1.4v-0.8c-0.2,0.3-0.5,0.5-0.9,0.7c-0.4,0.2-0.8,0.2-1.2,0.2c-0.9,0-1.5-0.2-2-0.7
				c-0.5-0.5-0.7-1.2-0.7-2.1V60h1.5v3.5c0,0.6,0.1,1,0.4,1.3s0.6,0.4,1.1,0.4c0.5,0,1-0.2,1.3-0.5s0.5-0.8,0.5-1.4V60L85.2,60
				L85.2,60z"/>
			<path class="st1" d="M100.4,60.6c0.5,0.5,0.7,1.2,0.7,2.1v3.7h-1.5v-3.5c0-0.6-0.1-1-0.4-1.3c-0.2-0.3-0.6-0.4-1.1-0.4
				c-0.5,0-0.9,0.2-1.2,0.5s-0.5,0.8-0.5,1.4v3.2H95v-3.5c0-0.6-0.1-1-0.4-1.3c-0.2-0.3-0.6-0.4-1.1-0.4c-0.5,0-0.9,0.2-1.2,0.5
				s-0.4,0.8-0.4,1.4v3.2h-1.5V60h1.4v0.8c0.2-0.3,0.5-0.5,0.9-0.7s0.8-0.2,1.2-0.2c0.5,0,0.9,0.1,1.3,0.3s0.7,0.5,0.9,0.8
				c0.3-0.3,0.6-0.6,1-0.8c0.4-0.2,0.9-0.3,1.4-0.3C99.3,59.9,100,60.1,100.4,60.6L100.4,60.6z"/>
			<path class="st1" d="M103.2,58.7c-0.2-0.2-0.3-0.4-0.3-0.6s0.1-0.5,0.3-0.6c0.2-0.2,0.4-0.3,0.7-0.3s0.5,0.1,0.7,0.2
				c0.2,0.2,0.3,0.4,0.3,0.6c0,0.3-0.1,0.5-0.3,0.7c-0.2,0.2-0.4,0.3-0.7,0.3S103.3,58.9,103.2,58.7L103.2,58.7z M103.1,60h1.5v6.4
				h-1.5C103.1,66.4,103.1,60,103.1,60z"/>
			<path class="st1" d="M107,66.3c-0.5-0.1-0.9-0.3-1.2-0.5l0.6-1.1c0.3,0.2,0.6,0.3,1,0.5c0.4,0.1,0.8,0.2,1.2,0.2
				c0.9,0,1.3-0.2,1.3-0.7c0-0.2-0.1-0.4-0.3-0.5s-0.6-0.2-1.1-0.2c-0.5-0.1-1-0.2-1.3-0.3c-0.3-0.1-0.6-0.3-0.9-0.5
				s-0.4-0.6-0.4-1.1c0-0.6,0.2-1.1,0.8-1.5c0.5-0.4,1.2-0.5,2.1-0.5c0.4,0,0.9,0,1.3,0.2s0.8,0.2,1.1,0.4l-0.6,1.1
				c-0.5-0.3-1.2-0.5-1.8-0.5c-0.4,0-0.8,0.1-1,0.2s-0.3,0.3-0.3,0.5c0,0.2,0.1,0.4,0.4,0.5c0.2,0.1,0.6,0.2,1.1,0.3
				c0.5,0.1,0.9,0.2,1.3,0.3s0.6,0.3,0.8,0.5s0.3,0.6,0.3,1.1c0,0.6-0.3,1.1-0.8,1.4s-1.2,0.5-2.1,0.5C108,66.5,107.5,66.4,107,66.3
				L107,66.3z"/>
			<path class="st1" d="M122.7,60.6c0.5,0.5,0.7,1.2,0.7,2.1v3.7h-1.5v-3.5c0-0.6-0.1-1-0.4-1.3c-0.2-0.3-0.6-0.4-1.1-0.4
				c-0.5,0-0.9,0.2-1.2,0.5s-0.5,0.8-0.5,1.4v3.2h-1.5v-3.5c0-0.6-0.1-1-0.4-1.3c-0.2-0.3-0.6-0.4-1.1-0.4c-0.5,0-0.9,0.2-1.2,0.5
				s-0.4,0.8-0.4,1.4v3.2h-1.5V60h1.4v0.8c0.2-0.3,0.5-0.5,0.9-0.7s0.8-0.2,1.2-0.2c0.5,0,0.9,0.1,1.3,0.3s0.7,0.5,0.9,0.8
				c0.3-0.3,0.6-0.6,1-0.8c0.4-0.2,0.9-0.3,1.4-0.3C121.6,59.9,122.3,60.1,122.7,60.6L122.7,60.6z"/>
			<path class="st1" d="M130,60.6c0.5,0.5,0.8,1.1,0.8,2v3.8h-1.4v-0.8c-0.2,0.3-0.4,0.5-0.8,0.6s-0.8,0.2-1.2,0.2s-0.9-0.1-1.3-0.2
				c-0.4-0.2-0.6-0.4-0.8-0.7c-0.2-0.3-0.3-0.6-0.3-1c0-0.6,0.2-1,0.6-1.4s1.1-0.5,2-0.5h1.7v-0.1c0-0.5-0.1-0.8-0.4-1
				c-0.3-0.2-0.7-0.4-1.2-0.4c-0.4,0-0.7,0.1-1.1,0.2c-0.3,0.1-0.6,0.3-0.9,0.5l-0.6-1.1c0.3-0.3,0.7-0.5,1.2-0.6s1-0.2,1.5-0.2
				C128.8,59.9,129.5,60.2,130,60.6L130,60.6z M128.6,65.2c0.3-0.2,0.5-0.4,0.6-0.7v-0.7h-1.6c-0.9,0-1.3,0.3-1.3,0.9
				c0,0.3,0.1,0.5,0.3,0.7c0.2,0.2,0.5,0.2,0.9,0.2S128.3,65.3,128.6,65.2L128.6,65.2z"/>
			<path class="st1" d="M132.4,66.2c-0.2-0.2-0.3-0.4-0.3-0.7s0.1-0.5,0.3-0.7s0.4-0.3,0.7-0.3s0.5,0.1,0.7,0.3s0.3,0.4,0.3,0.7
				s-0.1,0.5-0.3,0.7c-0.2,0.2-0.4,0.3-0.7,0.3S132.6,66.4,132.4,66.2L132.4,66.2z"/>
		</g>
	</g>
</g>
</svg>
