<?xml version="1.0" encoding="UTF-8"?><svg xmlns="http://www.w3.org/2000/svg" viewBox="0 0 416.55 503.26"><defs><style>.d{fill:#35063a;}</style></defs><g id="a"/><g id="b"><g id="c"><g><path class="d" d="M330.07,410.97c0-1.88-.58-2.28-2.29-2.23-3.48,.12-6.98,.2-10.45-.02-2.38-.15-3.15,.55-3.11,2.97,.13,8.71,0,17.42,.09,26.13,.02,1.89-.49,2.51-2.42,2.43-3.48-.16-6.98-.21-10.45,0-2.3,.14-2.71-.7-2.68-2.79,.13-8.8,.04-17.61,.13-26.41,.02-1.74-.44-2.39-2.26-2.32-3.58,.13-7.17,.18-10.74-.02-2.27-.13-2.89,.58-2.86,2.82,.13,8.71,.03,17.42,.09,26.13,.01,1.87-.43,2.72-2.57,2.59-3.57-.21-7.16-.18-10.74,0-2.02,.09-2.62-.5-2.6-2.55,.09-8.9-.04-17.81,.06-26.71,.02-1.82-.47-2.31-2.24-2.25-3.76,.12-7.52,.11-11.29,0-1.71-.05-2.29,.34-2.26,2.23,.11,8.78-.04,17.57,.07,26.36,.03,2.17-.35,3.09-2.77,2.92-3.37-.23-6.77-.19-10.15,0-2.21,.11-2.97-.44-2.93-2.82,.16-8.86,.02-17.73,.11-26.6,.02-1.68-.54-2.15-2.1-2.12-3.67,.08-7.36,.19-11.02,0-2.24-.11-2.71,.65-2.68,2.77,.11,8.7-.03,17.41,.07,26.12,.03,1.95-.34,2.75-2.48,2.64-3.57-.18-7.17-.18-10.74,0-2.08,.11-2.56-.58-2.53-2.58,.11-8.71-.04-17.42,.12-26.13,.04-2.36-.71-2.94-2.93-2.83-3.38,.18-6.78,.21-10.16,0-2.28-.14-2.68,.74-2.66,2.79,.11,8.71,.01,17.42,.1,26.13,.02,1.91-.38,2.75-2.52,2.63-3.57-.19-7.17-.16-10.74,0-2.02,.09-2.58-.49-2.55-2.55,.12-8.9,0-17.81,.08-26.71,.02-1.76-.4-2.34-2.23-2.27-3.67,.16-7.35,.18-11.02,.01-2.09-.1-2.55,.6-2.54,2.6,.09,13.21,.05,26.41,.05,39.62q0,4.95-4.95,4.95c-35.03,0-70.06-.03-105.1,.02-15.27,.02-26.5,14.32-22.92,29.05,2.72,11.19,11.91,18.13,24.06,18.13h117.83c37.31-.01,74.63-.19,111.95,.07,14.21,.1,26.86-3.53,37.81-12.65,8.71-7.24,14.14-16.08,14.03-27.88-.15-17.22-.06-34.45,.03-51.67Zm-31.08,72.14c-5.67,3.06-11.85,4.33-18.41,4.31-32.97-.13-65.95-.07-98.93-.07h-15.6c-39.08,0-78.17,0-117.26,0-5.87,0-9.33-2.94-9.31-7.89,.01-3.9,3.22-7.44,7.13-7.79,1.15-.11,2.32-.08,3.48-.08,39.96,0,79.92-.03,119.88,.06,2.56,.01,3.32-.58,3.13-3.14-.25-3.37,.09-6.78-.12-10.15-.13-2.16,.67-2.5,2.59-2.49,14.53,.07,29.07,.04,43.61,.04,30.67,0,61.34,.03,92.01-.06,2.51-.01,2.93,.65,3.18,3.13,1.27,12.24-5.88,19-15.38,24.13Z"/><path class="d" d="M385.14,340.06c0,31.55,0,63.1,0,94.65,0,21.66-.07,43.33,.09,64.99,.02,3.08-.93,3.75-3.73,3.52-2.95-.24-5.94-.16-8.9,0-2.35,.13-3.3-.29-3.28-3.07,.18-25.25,.21-50.51,.21-75.76,0-33.28-.1-66.57-.13-99.85-.03-35.79,.03-71.59-.05-107.38-.03-13.91,.53-27.83-.61-41.72-.81-9.84-2.69-19.5-4.96-29.08-.46-1.96,.18-2.32,1.61-2.72,3.53-.98,7.09-1.87,10.57-3.03,1.97-.65,2.65-.13,3.1,1.81,3.81,16.24,6.19,32.62,6.1,49.36-.16,29.4-.12,58.81-.15,88.21-.02,20.02,0,40.05,0,60.07h.12Z"/><path class="d" d="M15.57,302.15c5.41,.97,10.42,1.86,15.43,2.75,4.64,.83,9.27,1.72,13.92,2.47,1.92,.31,2.31,1.24,2.38,3.1,.38,10.78-1.86,20.88-7.15,30.31-1.16,2.06,.61,5.85,3.83,8.19,5.03,3.65,8.4,8.42,10.23,14.34,.7,2.25,.95,4.53,.95,6.85,0,5.22,0,10.45,0,15.67,0,8.4,5.52,14.57,14.03,14.88,9.76,.36,19.54,.11,29.31,.21,6.67,.07,13.37-.53,20,.28,11.61,1.43,20.89,11.07,22.07,22.73,.47,4.71,.6,9.45,.98,14.17,.11,1.4-.59,1.62-1.68,1.69-4.15,.24-8.3,.46-12.44,.79-1.65,.13-1.66-.9-1.72-1.99-.22-3.86-.42-7.72-.66-11.58-.41-6.61-4.66-10.53-11.34-10.53-14.42,0-28.83,.02-43.25-.03-10.06-.04-18.37-3.98-24.88-11.61-4.02-4.71-5.98-10.31-6.1-16.49-.1-5.32-.23-10.65,.04-15.96,.25-4.83-1.65-8.25-5.35-11.19-6.69-5.33-10.44-12.25-10.46-21,0-1.6,.3-3.01,1.16-4.38,2.48-3.94,4.26-8.2,5.62-12.66,.55-1.82,.24-2.52-1.78-2.81-4.96-.72-9.89-1.69-14.83-2.58-12.3-2.21-17.72-15.21-10.62-25.53,6.24-9.05,12.35-18.2,18.82-27.09,6.76-9.27,9.8-19.55,9.63-30.9-.06-3.97-.02-7.94-.24-11.9-.11-1.87,.5-2.31,2.25-2.26,3.87,.1,7.74,.05,11.61-.04,1.29-.03,1.93,.23,1.95,1.7,.22,13.24,.78,26.46-4.72,39.06-3.24,7.42-8.04,13.79-12.58,20.37-4.73,6.85-9.45,13.72-14.42,20.94Z"/><path class="d" d="M157.32,283.02c.25-23.97-.08-47.94,.15-71.91,.11-11.87,.06-23.77-.18-35.65-.04-1.98,.44-2.64,2.51-2.53,3.57,.19,7.16,.18,10.73,.01,2.06-.1,2.57,.56,2.56,2.58-.09,15.96-.06,31.93-.06,47.89,0,43.12,0,86.24,0,129.36,0,12.67-.03,25.35,.04,38.02,0,1.8-.33,2.54-2.34,2.45-3.86-.17-7.74-.11-11.61-.02-1.38,.03-1.92-.37-1.81-1.78,.1-1.35,0-2.71,0-4.06,0-30.86,0-61.72,0-92.59,0-3.92,0-7.84,0-11.75Z"/><path class="d" d="M192.14,0c15.75-.08,29.48,1.6,43.16,4.47,15.78,3.31,30.67,8.91,45.12,15.87,3.41,1.64,3.4,1.67,1.69,4.86-1.59,2.98-3.25,5.92-4.73,8.95-.7,1.42-1.26,1.69-2.77,.92-13.03-6.62-26.63-11.86-40.91-15.01-19.35-4.27-38.89-5.46-58.67-3.3-28.33,3.1-54.29,12.54-78.19,27.91-.49,.31-.97,.63-1.45,.96-5.11,3.5-5.08,3.49-8.6-1.82-1.39-2.09-2.82-4.16-4.37-6.13-.92-1.17-.88-1.75,.43-2.64,12.71-8.67,26.11-16.09,40.46-21.65,10.61-4.11,21.47-7.43,32.69-9.57C168.54,1.43,181.15-.08,192.14,0Z"/><path class="d" d="M366.89,62.87c-14.8,0-29.6,.08-44.4-.03-12.2-.09-21.67-5.47-27.56-16.08-6-10.8-5.57-21.86,.98-32.44,8.5-13.72,27.06-18.31,41.26-10.5,9.52,5.23,14.69,13.3,16.33,23.84,.59,3.76,.54,3.77-3.38,3.78-3.29,0-6.58-.09-9.87,.04-1.67,.06-2.2-.34-2.47-2.14-1.82-11.99-14.78-17.52-24.66-10.63-5.44,3.79-7.87,10.55-6.05,16.81,1.9,6.52,7.79,11.41,14.34,11.57,6.67,.16,13.35,.06,20.02,.06,24.06,0,48.12,.04,72.18-.05,2.28,0,3.02,.57,2.87,2.87-.2,3.18-.3,6.41,.02,9.57,.3,2.98-.85,3.41-3.51,3.39-15.37-.12-30.74-.06-46.11-.06Z"/><path class="d" d="M188.75,294.47c0-31.69,.03-63.38-.06-95.08,0-2.43,.62-3.13,3.03-2.98,3.56,.22,7.16,.13,10.73,.03,1.56-.04,1.96,.51,1.95,1.99-.07,15.28-.1,30.56-.12,45.84,0,6.24,.08,12.48,.08,18.72,0,42.46-.03,84.92,.05,127.39,0,2.32-.54,2.97-2.85,2.83-3.57-.22-7.16-.15-10.73-.02-1.69,.07-2.26-.47-2.11-2.11,.11-1.15,.02-2.32,.02-3.48,0-31.05,0-62.1,0-93.15Z"/><path class="d" d="M94.46,75.88c-.2-3.57-.12-7.16-.01-10.73,.05-1.64-.21-2.34-2.13-2.43-13.59-.6-25.62-11-28.52-24.27-.51-2.31,.35-5.59-1.42-6.7-1.73-1.09-4.68-.24-7.09-.24v-.09c-1.94,0-3.88,.1-5.8-.04-1.74-.12-2.28,.4-2.36,2.22-.29,6.23-2.48,11.88-6.29,16.78-5.93,7.63-13.72,11.94-23.48,12.4-1.18,.06-1.71,.4-1.69,1.71,.07,4.15,.06,8.3,0,12.45-.02,1.24,.39,1.62,1.62,1.73,2.67,.24,5.52,.17,7.95,1.13,12.79,5.03,20.7,14.07,21.87,28.17,.14,1.75,.82,2.03,2.31,2.01,3.77-.08,7.55-.16,11.31,.02,2,.09,2.38-.68,2.49-2.47,.3-4.76,1.46-9.32,4.06-13.4,5.74-8.99,13.62-14.61,24.51-15.29,2.1-.12,2.79-.82,2.67-2.96Zm-38.38,6.77c-.65,1.01-1,1.06-1.79,.02-3.16-4.15-6.61-8.05-11.04-10.93-1.03-.67-1.01-1.27-.03-1.95,4.41-3.04,8.05-6.86,11.14-11.21,1.19-1.68,1.64,0,1.96,.51,2.95,4.79,7.47,7.98,11.71,11.74-4.61,3.49-8.89,7.05-11.95,11.82Z"/><path class="d" d="M235.74,117.94h.09c0-2.04-.08-4.07,.03-6.09,.08-1.5-.42-2.05-1.95-2.03-2.41,.03-4.81-.29-7.12-1.04-12.93-4.23-21.33-14.85-22.36-28.4-.11-1.37-.44-1.83-1.83-1.8-3.96,.08-7.93,.08-11.89,0-1.44-.03-1.98,.29-2.05,1.89-.66,15.54-14.3,29.21-29.59,29.35-1.69,.02-1.86,.74-1.84,2.09,.05,3.48,.21,6.97-.05,10.43-.19,2.62,.75,3.32,3.24,3.61,15.81,1.85,27.03,13.64,28.25,29.54,.1,1.36,.42,1.83,1.82,1.81,4.06-.08,8.12-.08,12.18,0,1.48,.03,1.67-.64,1.77-1.9,1.05-14.34,10.79-25.71,24.63-28.99,2.21-.53,5.43,.31,6.43-1.39,1.06-1.79,.24-4.68,.24-7.09Zm-39.15,12.99c-3.73-5.08-8.03-9.38-13.11-13.09,5.22-3.54,9.35-7.91,13.02-12.83,3.82,4.67,7.65,9.32,13.14,12.75-4.97,3.81-9.44,7.89-13.05,13.17Z"/><path class="d" d="M.06,193.69c.35-23.77,4.36-46.82,12.99-69.05,3.29-8.47,7.15-16.64,11.42-24.63,.82-1.54,1.47-2.52,3.51-1.08,2.98,2.1,6.23,3.88,9.51,5.48,1.91,.93,1.67,1.76,.82,3.26-7.85,13.73-13.56,28.35-17.31,43.67-4,16.31-5.75,32.93-5.16,49.74,.1,2.86-.71,3.64-3.48,3.42-3.27-.26-6.58-.16-9.86-.02-1.83,.07-2.6-.37-2.48-2.37,.17-2.8,.04-5.61,.04-8.42Z"/><path class="d" d="M300.15,119.1c6.12-5.8,13.34-9.13,21.82-9.14,30.74-.07,61.47-.03,92.21-.1,1.81,0,2.33,.53,2.28,2.29-.12,3.57-.18,7.16,.02,10.72,.13,2.33-.65,2.84-2.89,2.84-25.13-.08-50.26-.05-75.39-.07-4.54,0-9.07-.1-13.61-.15-.89-.57-1.89-.98-2.58-1.83-2.33-2.91-5.39-3.24-8.64-2.2-2.21,.7-4.21,.67-6.03-.72-2.18-1.65-4.9-.64-7.19-1.64Z"/><path class="d" d="M368.85,94.27c-14.65,0-29.3-.04-43.95,.05-2.05,.01-2.89-.33-2.74-2.64,.23-3.56,.22-7.16,.01-10.72-.14-2.31,.96-2.4,2.74-2.39,14.6,.06,29.2,.04,43.79,.04,14.97,0,29.94,.06,44.91-.06,2.31-.02,2.99,.61,2.87,2.87-.18,3.37-.18,6.77,.01,10.15,.12,2.16-.51,2.76-2.69,2.75-14.98-.1-29.97-.05-44.96-.05Z"/><path class="d" d="M327.51,156.33c6.16-2.5,9.69-7.06,10.5-13.66,.16-1.28,1.04-1.27,1.86-1.28,4.06-.05,8.12,.03,12.17-.05,1.62-.04,1.65,.85,1.6,2.01-.23,4.7-1.6,9.1-3.76,13.23-6.91,13.16-23.33,19.56-37.41,14.68-.2-.51,0-.95,.32-1.31,3.9-4.38,8.17-8.38,12.48-12.35,.62-.57,1.52-.8,2.25-1.27Z"/><path class="d" d="M329.87,347.86c.04,12.83,.09,25.66,.12,38.49q.02,6.82-6.87,6.81c-2.61,0-5.21-.03-7.82-.05-1.2-.52-.86-1.61-.87-2.52-.02-8.69,.01-17.37-.03-26.06,0-1.64,.3-3.07,1.55-4.18,2.04-1.81,1.82-3.63,.09-5.49-1.17-1.26-1.74-2.71-1.64-4.47,.08-1.48,.68-1.7,1.8-.97,1.39,.9,2.42,2.2,3.51,3.43,.6,.68,1.2,1.91,2.28,1,1.06-.89,.06-1.74-.55-2.44-1.18-1.35-2.47-2.63-.7-4.44,1.05-1.07,2.25-1.58,3.64-.83,1.73,.93,3.59,1.33,5.48,1.72Z"/><path class="d" d="M94.39,188.65c0-4.55,.08-9.1-.04-13.64-.04-1.67,.46-2.13,2.11-2.07,3.77,.13,7.55,.13,11.32,.02,1.69-.05,2.39,.3,2.38,2.19-.08,9.09-.04,18.19,.02,27.29,0,1.44-.35,2.09-1.95,2.05-3.96-.09-7.94-.11-11.9,0-1.75,.05-2.05-.65-2.01-2.21,.1-4.55,.03-9.09,.03-13.64h.05Z"/><path class="d" d="M31.49,188.55c0-4.54,.06-9.08-.03-13.62-.03-1.53,.48-2.01,1.98-1.98,3.96,.08,7.92,.1,11.88,0,1.59-.04,1.93,.58,1.93,2.02-.05,9.17-.05,18.35,0,27.52,0,1.5-.47,2.01-1.99,1.98-3.95-.09-7.91-.1-11.86,.01-1.6,.04-1.95-.58-1.93-2.03,.07-4.63,.02-9.27,.03-13.91Z"/><path class="d" d="M125.83,188.49c0-4.35,.06-8.7-.03-13.04-.04-1.75,.27-2.62,2.34-2.53,3.76,.17,7.54,.12,11.3,.02,1.62-.04,2.19,.45,2.17,2.12-.07,9.15-.07,18.3-.02,27.45,0,1.52-.46,2-1.99,1.96-3.86-.1-7.73-.14-11.59,0-1.91,.07-2.23-.69-2.2-2.36,.09-4.54,.03-9.08,.03-13.62h-.01Z"/><path class="d" d="M319.35,125.98c-5.47,1.14-9.17,4.49-11.65,9.36-.81,.7-1.77,.54-2.75,.59-4.4,.2-7.8,2.08-9.69,6.19-1.61,3.48-.68,7.59,2.28,10.67,2.89,3,6.83,3.76,10.96,2.28,1.3-.47,2.36-1.87,4-1.19l2.17,1.33c.19,1.88-1.16,2.96-2.28,4.06-2.46,2.43-5.07,4.71-5.14,8.57,0,.37-.35,.67-.68,.88-15.01-8.89-18.77-25.88-13.3-39.42,.07-.17,.23-.29,.35-.43,1.59-2.28,3.58-4.17,5.74-5.92,2.36-1.91,4.93-2.42,7.44-.84,2.45,1.54,4.77,1.63,7.38,.65,2.16-.81,4.33-.99,5.95,1.24,.83,1.14,.45,1.71-.79,1.98Z"/><path class="d" d="M77.78,173.04c1.54-.07,1.03,1.14,1.03,1.84,.03,9.16-.02,18.32,.04,27.48,.01,1.64-.49,2.16-2.14,2.11-3.95-.1-7.91-.07-11.86,.01-1.44,.03-1.82-.52-1.79-1.86,.1-5.59,.13-11.17,.19-16.76,3.92-2.19,6.76-5.61,9.74-8.82,1.45-1.56,2.99-2.92,4.79-4.01Z"/><path class="d" d="M329.81,341.51c.44,1.36,.26,2.73,.06,4.1-2.97,.07-5.13-1.04-6.36-3.92-1.8-4.24-2.88-4.8-7.3-3.8-1.58,.36-1.81-.23-1.8-1.56,.03-6.67,.02-13.33,0-20,0-1.11,.17-1.88,1.55-1.82,4.62,.19,9.24-.32,13.85,.28h0c.61,2.75,.11,5.54,.27,8.3,.06,.98-.55,1.59-1.2,2.19-1.55,1.44-3.05,2.94-4.51,4.46-2.3,2.38-2.29,3.17-.05,5.52,1.92,2.01,4.11,3.77,5.48,6.26Z"/><path class="d" d="M312.5,153.87c-3.21,1.67-6.3,3.46-10.26,2.49-4.26-1.04-8.23-5.19-8.44-9.42-.28-5.53,2.58-9.41,7.45-11.2,2.26-.83,4.31-.32,6.45-.39-2.64,7.28-.89,13.41,4.8,18.53Z"/><path class="d" d="M306.55,86.58c0,1.93-.09,3.86,.03,5.79,.09,1.56-.52,1.97-2,1.93-3.95-.1-7.91-.1-11.86-.03-1.34,.02-1.87-.33-1.84-1.77,.09-4.05,.08-8.1,0-12.15-.03-1.44,.53-1.79,1.86-1.77,3.95,.07,7.91,.08,11.86,0,1.47-.03,2.09,.34,2,1.93-.13,2.02-.03,4.05-.03,6.07h-.01Z"/><path class="d" d="M329.83,314.79c-4.33,.01-8.67,.07-13,.02-1.43-.02-2.1,.38-2.09,1.94,.05,6.91,.02,13.83,.02,20.84,4.3-2.25,7.34-1.84,8.64,1.98,1.19,3.49,3.61,4.81,6.47,6.06,0,.75,0,1.5,0,2.25-1.94,1.41-3.44-.12-5.09-.73-.85-.31-1.54-1.16-2.66-.5-1.96,1.15-2.02,2.14-.47,3.97,.91,1.08,3.52,1.75,1.25,4.03-1.22,1.22-2.03,1.2-2.95-.13-1.32-1.91-2.96-3.52-4.74-5.07q-.67,2.48,.72,4.04c3.6,4.03,3.62,4.12,.03,7.98-.85,.92-1.25,1.85-1.25,3.1,.03,8.7,0,17.39,0,26.09,0,.88,.02,1.74,.59,2.48-1.88-.03-1.12-1.51-1.13-2.34-.06-10.83-.05-21.66-.04-32.49,0-13.73,.08-27.46,0-41.18-.01-2.25,.48-3.06,2.86-2.92,3.66,.22,7.35,.06,11.02,.1,.62,0,1.39-.32,1.8,.5Z"/><path class="d" d="M306.56,168.72c-.19-3.97,1.6-6.93,4.66-9.31,1.45-1.13,2.52-2.63,3.45-4.21,4.11,2.27,8.41,2.46,12.84,1.13-5.12,4.87-10.26,9.73-15.05,14.94-2.1-.54-4.01-1.51-5.89-2.54Z"/><path class="d" d="M319.35,125.98c.66-1.38-.62-3.24-2.26-3.04-1.21,.15-2.46,.27-3.64,.82-2.14,.99-4.21,.81-6.27-.54-3.1-2.03-4.66-1.64-7.68,.71-2.03,1.58-3.54,3.75-5.87,4.95,1.33-3.82,3.87-6.83,6.53-9.77,3.08-.58,6-.43,8.6,1.64,.85,.68,1.89,.92,3,.44,5.57-2.42,9.66-.42,12.83,4.31-1.75,.16-3.5,.32-5.24,.49Z"/><path class="d" d="M329.81,341.51c-2.98-2.11-5.28-4.93-7.7-7.6-1.01-1.11-.46-2.53,.62-3.6,1.57-1.55,3-3.28,4.72-4.66,1.81-1.45,2.59-3.06,2.33-5.4-.21-1.8,.02-3.64,.05-5.47,.73,6.23,.48,12.45,.05,18.68-1.09-.85-.54-2.16-.95-3.46-.97,.63-1.88,1.28-1.83,2.39,.08,1.72,1.99,.71,2.72,1.56,.31,2.52,.22,5.03,0,7.55Z"/><path class="d" d="M77.78,173.04c-3.86,3.96-7.7,7.95-11.62,11.87-.74,.74-1.78,1.14-2.91,.96v-.56c.72-.78,1.7-1.52,1.74-2.59,.11-3.39,2.53-5.24,4.61-7.35,1.06-1.07,2.22-1.77,3.81-1.7,.67,.03,1.55,.29,1.94-.66,.82-.6,1.61,.11,2.42,.04Z"/><path class="d" d="M75.36,173.01c.43,1.33-.75,1.07-1.31,1.18-4.28,.86-7.53,4.3-8.07,8.55-.2,1.52-1.3,2.25-2.71,2.58-.34-2.73-.28-5.46-.08-8.2,2.57-.45,4.87-1.28,5.9-4,2.09-.04,4.18-.07,6.27-.11Z"/><path class="d" d="M69.09,173.12c-.31,3.35-2.48,4.83-5.9,4q-.32-4.46,5.9-4Z"/><path class="d" d="M329.81,333.96c-1.32,.26-2.78,1.25-3.63-.8-.56-1.35-.55-1.43,3.35-4.83,.12,1.86,.23,3.5,.33,5.14,.05,.17,.03,.34-.06,.49Z"/><path class="d" d="M320.98,342.23c-.69,1.92-2.06,3.38-3.77,3.7-1.17,.22-2.35-1.19-2.4-2.73-.05-1.42,2.43-3.69,3.71-3.38,1.27,.31,2.15,1.15,2.46,2.41Z"/></g></g></g></svg>