<?xml version="1.0" encoding="utf-8"?>
<!-- Generator: Adobe Illustrator 26.2.1, SVG Export Plug-In . SVG Version: 6.00 Build 0)  -->
<svg version="1.1" id="Capa_1" xmlns="http://www.w3.org/2000/svg" xmlns:xlink="http://www.w3.org/1999/xlink" x="0px" y="0px"
	 viewBox="0 0 347.8 400.7" style="enable-background:new 0 0 347.8 400.7;" xml:space="preserve">
<style type="text/css">
	.st0{fill:#35063A;stroke:#35063A;stroke-width:2;stroke-miterlimit:10;}
</style>
<g id="a">
</g>
<g id="b">
	<g id="c">
		<g>
			<path class="st0" d="M268.5,253.4c-0.3-0.1-0.7,0-1,0.2c-0.1,0-0.1,0.1-0.2,0.2c-0.1,0.1-0.1,0.2-0.2,0.2c-0.6,2-0.9,4-1.3,6
				c-2.8,12.5-8.4,23.5-18.2,31.9c-4.1,3.5-8.4,6.5-13.4,8.5c-5.7,2.2-11.5,3.4-17.5,1.8c-4.5-1.2-8.8-3-12.9-5.1
				c-3.2-1.7-6.4-3.4-9-6.1c-1.7-1.8-2-3.8-1.4-6c0.3-1.2,0.9-2.3,1.6-3.3c1.9-2.8,4-5.5,6-8.1c7.1-8.9,14.6-17.5,18.5-28.5
				c0.3-0.9,0.8-0.8,1.5-0.4c3.8,2.1,7.4,1.4,10.9-0.7c3.8-2.2,6.4-5.5,8.4-9.3c2.8-5.4,4.5-11.3,5.3-17.3c0.5-3.6,0.5-7.3-0.9-10.8
				c-1-2.4-2.4-4.3-4.8-5.4c-2.8-1.3-5.6-1.3-8.5-0.8c-1.6,0.3-1.7,0.2-1.2-1.4c1.4-4.9,1.3-9.9,1-14.9c-0.4-5.7-1.5-11.4-2.6-17
				c-0.7-3.9-1.2-7.9-0.9-11.9c0.3-3.1,0.7-6.2,0.7-9.3c0-3.2-0.4-2.9,3-2.6c3.5,0.3,7,1.1,10.5,0.8c0.2,0,0.4-0.1,0.5-0.2
				c0.1,0,0.1-0.1,0.1-0.2c0.5-1.3,1.1-2.6,1.5-3.9l0,0c0,0,0-0.1,0-0.1c0-0.1-0.1-0.2-0.2-0.3c-1.2-0.5-2.6-0.5-3.9-0.6
				c-1.2-0.1-1.4-0.4-0.8-1.5c1-1.8,1.8-3.7,2.6-5.6c5.5-13.6,7.5-27.8,8.1-42.3c0.2-6,0.1-12-0.2-18c-0.4-7-0.7-14-1.4-20.9
				c-0.1-1.4-0.1-3-0.8-4.3c-0.1-0.1-0.2-0.2-0.3-0.2c0,0,0,0-0.1,0l0,0c-0.2,0-0.3,0-0.5,0.1c-0.8,0.7-1.7,1.3-2.3,2.2
				c-0.1,0.1-0.1,0.2-0.2,0.3c-0.1,0.3-0.2,0.5-0.3,0.9c0,0.6,0,1.2,0.1,1.7c1.2,8.9,1.6,17.8,1.8,26.8c0.2,6.7,0,13.4-0.3,20.1
				c-0.1,3.5-0.4,6.9-1,10.4c-0.8,4.8-1.9,9.5-3,14.2c-1.2,4.9-2.3,9.8-4.5,14.5c-0.4,1-1,1.3-2.1,1.2c-9.5-1.4-18.9-3.7-28.1-6.6
				c-10.5-3.3-20-8.5-29.3-14.2c-11-6.7-22.6-11.9-35-15.5c-11.9-3.4-24.1-5.8-36.3-7.6c-7.6-1.1-15.1-2-22.7-2.8
				c-6.1-0.6-12.3-1.1-18.4-1.5c-5.9-0.4-11.9-0.7-17.8-0.8C40.8,89.2,34.4,89.6,28,90c-5.4,0.3-10.8,0.6-16.2,1.7
				c-2.4,0.5-2.5,0.4-3-2C7,81.7,6.1,73.7,6.4,65.5c0.2-6,0-12,0.5-18c0-0.2-0.1-0.3-0.1-0.4c0-0.1-0.1-0.2-0.1-0.3
				c0-0.1-0.1-0.2-0.1-0.3c-1.3-3.2-1.3-4.7,1.4-6.8l0,0C8,39.5,8,39.5,8.1,39.4c0.1-0.1,0.2-0.2,0.3-0.2c0.2-0.2,0.4-0.4,0.6-0.7
				c0.1-0.1,0.3-0.2,0.4-0.2c1.2-0.6,3.1-0.5,4.5,0.1c0.2,0.1,0.4,0.2,0.6,0.4c1.5,0.5,3,0.3,4.5,0.2c0.1,0,0.2-0.1,0.3-0.1
				c0,0,0.1-0.1,0.1-0.1c0.3-0.3,0.2-0.6-0.1-1c-0.6-0.8-1.3-1.6-2.4-1.4c-0.1,0-0.2,0-0.3,0.1c-2.7,0.1-5.4,0.5-8,0.3
				c-0.5,0-0.9,0.1-1.2,0.5c-0.9,1.1-1.8,2.2-2.4,3.5c-2,4.6-2.3,9.6-2.8,14.5c-0.8,7.6-0.4,15.1,0.6,22.7
				c0.7,5.3,1.9,10.4,3.4,15.5c0.3,1,0.8,1.3,1.8,1.1c1.6-0.3,3.2-0.4,4.9-0.5c9.4-0.8,18.8,0.1,28.1,0c4.3-0.1,8.6,0.1,12.9,0.4
				c14.4,0.8,28.7,2,43,4c9.2,1.2,18.4,2.8,27.5,4.8c7.1,1.6,14.2,3.4,21.1,5.7c12,4.1,23,10.3,33.8,16.7
				c7.7,4.6,15.7,8.7,24.4,11.3c6.9,2.1,13.9,4,21.1,5.1c1.3,0.2,1.6,0.8,1.3,2c-0.5,1.9-0.8,3.8-1.4,5.7
				c-2.7,7.6-2.6,15.3-0.8,23.1c1.5,6.6,2.8,13.2,2.3,20c-0.2,3.4-0.9,6.7-0.8,10.1c0,0.9-0.2,1.5-0.8,2.1c-1.7,1.6-2.9,3.5-3.7,5.6
				c-2.9,7-4.8,14.2-5.3,21.8c-0.2,3.2-0.2,6.4,1.7,9.1c1,1.3,0.8,2.2,0.2,3.5c-1.3,2.7-3.1,5-4.7,7.4c-4.7,6.7-9.6,13.1-14.7,19.5
				c-2.7,3.3-5.6,6.4-7.7,10.2c-3.2,5.8-3,10.5,2.4,14.4c0.8,0.6,1.7,1.2,2,2.3c0.9,3,1.1,6,0.3,9c-0.8,3-2.9,5.2-4.7,7.6
				c-2.2,3-2.4,6.3-0.4,9.4c0.5,0.7,0.4,1.1,0.1,1.8c-1.2,2.2-2.8,4-4.8,5.6c-5,4-10.6,7-16.2,10c-10.4,5.4-21.1,10.5-31.1,16.6
				c-6.6,4-13,8.2-18.5,13.6c-4.6,4.5-8.5,9.4-10.2,15.7c-1,3.5,0.8,8.4,3.8,10.7c0.1-0.6-0.3-1-0.5-1.5c-1-1.9-1.5-3.9-1.4-6.1
				c0.2-5.2,2.8-9.4,6-13.3c5.8-7.1,13.2-12.3,21.3-16.4c8.8-4.5,17.7-8.8,26.5-13.3c4.5-2.3,8.9-4.7,13.2-7.3
				c5.7-3.5,11.7-6.8,14.1-13.8c1.6,1.1,3.2,2.1,4.9,2.9c-1.4,2.2-3.1,4.1-4.9,6c-6.1,6.2-13.5,10.6-21.3,14.4
				c-5,2.5-10.1,4.8-15.2,7.2c-0.6,1.2-1.8,1.9-2.6,2.9c-0.4,0.5-1.1,1.2,0.1,1.6c5.2-2.4,10.5-4.8,15.7-7.2c6.3-2.9,12.5-5.8,18-10
				c4.7-3.6,8.6-7.9,10.8-13.5c0.4-1.1,1-0.8,1.6-0.6c2.1,0.9,4.3,1.3,6.6,1c4.1-0.6,6.7-3.2,8.6-6.7c1.4-2.7,2.6-5.5,4.1-8.1
				c2.8-4.9,6.7-8.6,12-10.6c5.6-2.1,10.9-4.8,15.7-8.3c9.2-6.8,15.8-15.7,20.2-26.3c2.4-5.8,4.2-11.9,4.8-18.2
				C270.5,253.5,269.5,253.8,268.5,253.4L268.5,253.4z M237.7,206c2.4,1.9,3.6,4.2,3.8,6.9c0.5,8-0.4,15.9-4.4,23.1
				c-2.4,4.4-6,7.2-11.5,7.9c6.2-3.8,8.2-9.8,10.2-15.9c1.5-4.7,2.3-9.5,2.7-14.4C238.7,211.1,238.3,208.7,237.7,206L237.7,206z
				 M220.8,220.4c0.5-2.4,1.1-4.8,1.8-7.2c0.8-2.6,2.2-4.9,4.1-6.8c0.5-0.5,1-0.9,1.7-1.2c4.3-1.5,6.9,0.2,7.4,5c0.1,1,0,2,0,3
				c-0.1,8.8-2.4,16.9-7.3,24.2c-0.9,1.4-2,2.7-3.7,3.4c-2.2,0.9-4,0.3-5.1-1.8c-0.8-1.5-0.9-3.1-0.9-4.8
				C218.7,229.5,219.9,225,220.8,220.4L220.8,220.4z M209.9,324.4c-5.6-0.5-10.8-2.3-15.2-5.9c-1.7-1.4-1.6-1.6-0.2-3.2
				c0.6-0.6,1.1-1.2,1.7-1.9c1.7,5.1,9.9,10.3,14.9,10.3C211,324.5,210.5,324.4,209.9,324.4L209.9,324.4z M213.1,319.9
				c-0.3,0.6-0.7,0.6-1.3,0.5c-5-1.4-9.6-3.6-13.2-7.6c-0.8-0.8-1.1-1.7-0.5-2.8c0.7-1.2,1-2.6,1.1-4.2c4.6,6.7,11.1,7.9,18.4,7
				C216.1,315,214.5,317.4,213.1,319.9L213.1,319.9z M217.7,310.3c-5.1-0.2-10.1-0.9-14.7-3.5c-3-1.6-3.6-2.6-4-5.6
				c7.2,3.7,14.7,6.3,22.9,7C220.9,309.6,219.5,310.3,217.7,310.3L217.7,310.3z"/>
			<path class="st0" d="M344.9,50.9c-1.3-9.3-4.5-17.9-10.7-25.2c-4.7-5.6-10.1-10.2-17.3-12c-6.2-1.6-12.4-3.2-18.6-4.8
				c-9.6-2.4-19.2-4.6-29-5.8c-9.6-1.2-19.1-1.6-28.7-0.4c-12.4,1.6-24.5,4.6-36.5,8c-15,4.2-29.8,9.2-44.9,12.9
				c-0.1,1.5-0.2,3-0.5,4.5c0,0,0,0,0,0c0,0,0,0,0,0c0.8,0.4,1.6,0,2.3-0.1c10.4-2.6,20.7-5.8,31-8.8c12.2-3.6,24.3-7.2,36.8-9.9
				c4.1-0.9,4.4-0.7,6.3,3c2.3,4.4,3.2,9.1,4.4,13.8c0.9,3.4,1.4,6.8,2.4,10.1c0.1,0.1,0.2,0.2,0.3,0.3c0.1,0.1,0.2,0.2,0.2,0.2
				c1.2,1.1,1.9,1.2,2.9,0.7c0.1,0,0.1-0.1,0.2-0.1c0.1,0,0.2-0.1,0.3-0.2c0.2-0.7,0-1.4-0.1-2c-1-5.1-2.3-10.1-3.8-15
				c-1.1-3.8-2.6-7.5-4.9-10.7c-1-1.4-0.9-1.6,0.8-1.8c2.9-0.4,5.8-0.6,8.6-0.8c6.3-0.5,12.6-0.3,18.9,0.2
				c7.1,0.6,14.1,1.6,21.1,2.8c7.4,1.3,14.8,2.7,22.2,4.1c1.1,0.2,2,0.5,2.5,1.6c1.1,2.6,2.3,5.1,2.9,7.8c2.4,10.4,3.1,21,4.3,31.6
				c0.7,6.1,1.1,12.3,1.4,18.4c0.3,6.1,0,12.1-0.3,18.1c-0.3,5.1-0.8,10.2-1.5,15.2c-0.8,6.6-1.7,13.3-3.1,19.8
				c-0.3,1.4-1,2.3-2.5,2.7c-4.6,1.3-9,2.9-13.6,4.3c-7.3,2.2-14.9,3.3-22.4,4.5c-0.7,0.1-1.4,0.1-1.9,0.7c0,0,0,0.1,0,0.2l0,0
				c0,1.1,0.4,2.1,0.9,3c0,0,0,0,0,0.1c0,0.1,0.1,0.1,0.1,0.2c0.3,0.1,0.6,0.2,0.9,0.1c7.5-0.7,14.9-2,22.2-4.1
				c0.4-0.1,0.9-0.3,1.3-0.6c-5.9,3.8-11,8.4-15.5,13.8c-6.4,7.6-10.8,16-12.5,25.8c-1.4,8.1-1.6,16.3-2.1,24.5
				c-0.4,6.7-0.7,13.3-0.9,20c-0.2,6.1-0.2,12.2-0.4,18.3c0.1,0.5,0,1.1,0.2,1.5c0,0.1,0.1,0.2,0.2,0.2c0.2,0.2,0.6,0.2,1.4-0.3
				c0.2-0.1,0.4,0,0.5,0.2c0.1,0.3,0,0.5-0.2,0.7c-0.5,0.6-1.1,1.1-1.6,1.7c-0.1,0.1-0.2,0.2-0.3,0.4v0.1c-0.1,0.1-0.2,0.2-0.2,0.3
				c-0.1,0.2-0.1,0.4,0,0.6c0,0,0,0,0,0.1c0,0,0,0.1,0.1,0.1l0,0c0.9,1.2,1.4,1.2,2.6,0.4c0.9-0.6,1.2-1.5,1.4-2.5
				c0.1-5.5,0.2-10.9,0.3-16.4c0.1-16.3,0.9-32.5,3.9-48.6c1.8-9.5,5.8-18.1,12-25.5c5.3-6.4,11.7-11.5,18.4-16.2
				c1.9-1.3,3.8-3,6-3.8c2.6-0.9,5.2-2,7.8-3c6.6-2.5,12.7-5.6,16.6-12c2.7-4.4,5.1-8.8,6.2-13.8c1.3-6.1,1.9-12.4,2-18.6
				C346.1,74.2,346.5,62.5,344.9,50.9L344.9,50.9z M341.6,59.2c0.3,5.4,0.7,10.7,0.8,16.1c0,0.7-0.3,0.8-0.8,0.6
				c-2.9-0.7-5.7-0.5-8.6-0.4c-2.2,0.1-4.4,0-6.6-0.5c-0.8-0.2-1.1-0.5-1.1-1.4c-0.1-5.2-0.4-10.3-0.8-15.4
				c-0.1-1.1-0.5-2.2-0.3-3.2c5.6,1.1,11.3,1.8,16.8,3.2C341.6,58.4,341.6,58.8,341.6,59.2L341.6,59.2z M340,48.5
				c0.3,2,0.7,4,1.1,6.1c-5.3-1.3-10.6-0.9-15.8-1.2c-1.1-0.1-1.6-0.3-1.7-1.6c-0.5-4.6-1.2-9.3-1.8-13.9c-0.1-0.6-0.3-1.2-0.1-1.8
				c5,1.3,9.3,4.1,13.9,6.2C338.6,43.8,339.6,45.7,340,48.5L340,48.5z M336.8,38.4c-4.2-1.8-8.3-3.2-12.5-3.9
				c-2.5-0.4-3.2-1.5-3.6-3.9c-0.7-4.7-1.8-9.3-3.8-13.8C325.2,22.3,332.3,28.9,336.8,38.4z M318.8,127.8c0.6-3.3,1.2-6.5,1.8-9.6
				c0.1-0.5,0.2-0.7,0.8-0.6c5.6,0.7,10.6-1,15.4-3.5c0.2-0.1,0.5-0.2,0.7-0.4c0,0,0.1,0,0.1,0.1
				C333.9,121.8,326.4,124.7,318.8,127.8L318.8,127.8z M339.7,109.6c-0.4,1.2-1.8,1.8-3,2.4c-4.1,2.3-8.5,3.2-13.1,3.7
				c-2.5,0.3-2.5,0.2-2.1-2.3c0.7-4.2,1.3-8.4,2-12.6c6.8,1.8,12.8,0.4,18.4-3.9C341.8,101.5,341,105.6,339.7,109.6L339.7,109.6z
				 M342.1,94.6c0,0.6-0.1,1-0.7,1.2c-5.4,2-10.9,3.1-16.6,3c-0.9,0-1.2-0.4-1-1.2c1-6.8,1.3-13.7,1.5-20.7c5.3,2.1,10.6,2,16,1.9
				c1,0,1.2,0.1,1.2,1.1C342.3,84.8,342.3,89.7,342.1,94.6L342.1,94.6z"/>
			<path class="st0" d="M127.1,34.1C127.1,34.1,127.1,34.2,127.1,34.1c-0.1,0.1-0.2,0.3-0.3,0.4c-2.1,0.9-4.4,0.8-6.7,1
				c-6.9,0.7-13.8,1.3-20.8,1.7c-9,0.6-18.1,0.9-27.1,1.3c-9.4,0.4-18.7,0.8-28.1,1c-4.2,0.1-8.4,0.2-12.6,0.2
				c-2.8,0-5.6-0.4-8.4-0.4c-0.2-0.1-0.5-0.2-0.7-0.3c-0.1,0-0.2-0.1-0.3-0.2c-1.1-0.6-2-1.4-2.4-2.8c0.3-0.1,0.7-0.2,1-0.2
				c0,0,0,0,0.1,0c0.2,0,0.5,0,0.6,0.2c1.4,1,2.4,0.2,3.4-0.6c2.9-0.9,5.9-0.8,8.9-0.9c19.3-0.5,38.6-0.9,57.9-2
				c11-0.6,21.9-1.4,32.9-2.8c0.9-0.1,1.8-0.5,2.8-0.2C128.5,30.8,128.4,32.4,127.1,34.1L127.1,34.1z"/>
			<path class="st0" d="M146.7,365.2c-3.8,2.2-7.7,4-11.4,6.3c-6.6,4.1-12.3,9.1-16,16.1c-1.6,2.9-2.8,6-3.1,9.4
				c-0.8-2.4-0.7-4.8-0.3-7.2c1.1-5.8,4.7-10.1,8.7-14.1c3.3-3.3,7.2-6,11.3-8.3c5.2-2.9,10.5-5.5,15.9-7.9c0.4-0.1,0.5,0.2,0.3,0.4
				c-0.8,1-0.7,2.2-1,3.4c-0.4,0.1-0.8,0.3-1.2,0.4C148.6,363.7,147.6,364.5,146.7,365.2L146.7,365.2z"/>
			<path class="st0" d="M146.4,31c0,0.1-0.1,0.1-0.1,0.2c0,0,0,0.1-0.1,0.1c-2.8,0.9-5.6,1.6-8.6,1.6c-0.1,0-0.2-0.1-0.2-0.1
				l-0.1-0.1c-1.8-1.2-2.4-2.6-2-4.1c3.4-0.6,6.8-1.2,10.2-1.9c0.6-0.1,1.2-0.2,1.8-0.3C147.5,28,147.5,29.6,146.4,31L146.4,31z"/>
			<path class="st0" d="M158.1,26.8c-0.4,0.8-1.1,1.3-1.7,2c0,0-0.1,0.1-0.1,0.1c0,0,0,0,0,0c-0.5,0.4-1,0.6-1.7,0.6
				c-0.2-0.1-0.5-0.1-0.8-0.1c-0.6-0.1-1.1-0.1-1.6,0c-0.1,0-0.2,0-0.3,0c-0.1,0-0.2,0-0.3,0.1c-0.5,0.1-1,0.4-1.5,0.8
				c-0.2,0.1-0.4,0.3-0.6,0.5c-1,0.4-2.1,0.9-3.2,0.5c-0.1,0-0.2-0.1-0.3-0.1c0.6-1,1-2,0.9-3.2c0-0.5,0-1,0.4-1.5
				c3.1-0.7,6.3-1.3,9.4-2C158.2,24.3,158.8,25.4,158.1,26.8L158.1,26.8z"/>
			<path class="st0" d="M137.5,32.6c0,0,0,0.1-0.1,0.1c-0.1,0.3-0.4,0.5-0.7,0.5c-2.3,0.5-4.6,0.8-6.9,1c-0.3,0-0.5-0.1-0.7-0.2
				c0-0.1,0-0.1-0.1-0.2c0,0,0,0,0-0.1c-0.5-1.6-0.2-3.2,0.6-4.6c1.9-0.2,3.8-0.4,5.7-0.7C135.3,30.2,136.4,31.4,137.5,32.6
				L137.5,32.6z"/>
			<path class="st0" d="M272.5,243.8c0,3.2-0.3,6.4-0.9,9.6c-0.2-0.1-0.3-0.4-0.4-0.6l0,0c0-0.1,0-0.2,0-0.3
				c-0.1-0.9-0.6-1.7-1.3-2.4c-0.5-0.5-1.1-0.9-1.5-1.5c0-0.1-0.1-0.2-0.1-0.2c-0.1-0.1-0.1-0.2-0.2-0.3c0-0.8-0.4-1.6,0.4-2.2
				c0.1,0,0.1-0.1,0.2-0.1c0.6,1.1,1.3,1.3,2.3,0.3C271.6,245.3,272,244.6,272.5,243.8L272.5,243.8z"/>
			<path class="st0" d="M151.1,363.3c-0.8-1.4,0.1-2.6,0.6-3.8c1.4-0.6,2.7-1.3,4.1-1.9c0.3,0.5,0,0.8-0.3,1.2c-0.7,0.6-1.3,1.3-2,2
				c-0.4,0.4-0.8,0.9-0.1,1.4L151.1,363.3L151.1,363.3z"/>
			<path class="st0" d="M158.7,28.2C158.7,28.2,158.7,28.2,158.7,28.2c-0.7,1.1-1.5,1.1-2.4,0.7c-0.1,0-0.1-0.1-0.2-0.1
				c0.1-0.9,1.1-1.1,1.6-1.9c0.7-1.2,0.5-2.1-1-2.5c0.8-0.2,1.7-0.5,2.5-0.7C159.8,25.3,159.9,26.8,158.7,28.2L158.7,28.2z"/>
			<path class="st0" d="M129.6,29.2c-0.2,1.5-0.4,3.1-0.6,4.6c0,0,0,0,0,0.1c-0.5,0.6-1.1,0.9-1.9,0.3c0,0,0,0-0.1,0
				c0.1-0.5,0.2-1,0.4-1.5c0.5-1.1,0.4-2.1-0.1-3.1C128.1,29.4,128.8,29.3,129.6,29.2L129.6,29.2z"/>
			<path class="st0" d="M22.7,38.9c-0.1,0-0.2,0.1-0.2,0.1c-1.3,0.6-2.2,0.6-3.2-0.2c0,0-0.1-0.1-0.2-0.1c-0.2-1.5-1.2-2-2.5-2.3
				c0.1,0,0.2,0,0.3-0.1c1-0.2,1.9-0.2,2.9-0.2C20.6,37.2,21.6,38.1,22.7,38.9L22.7,38.9z"/>
			<path class="st0" d="M271.5,253.6c-0.9,0.6-1.8,0.9-2.7,0.2c-0.5-0.4-0.9-0.1-1.3,0.1c0-0.1-0.1-0.1-0.1-0.2
				c-0.4-0.8-0.1-1.6,0.3-2.4c0.1,0,0.2-0.1,0.3-0.1c0,0,0.1,0,0.1,0c1.2-0.2,2.1,0.7,3.1,1.2c0.1,0.1,0.2,0.1,0.3,0.2l0.1,0.8
				C271.6,253.5,271.6,253.6,271.5,253.6L271.5,253.6z"/>
			<path class="st0" d="M24.9,35.4c-0.3,0.7-0.9,1-1.3,1.5c-0.3,0.4-0.7,0.6-1,0.1c-0.7-1-1.7-0.9-2.7-1
				C21.5,35.6,23.2,35.5,24.9,35.4z"/>
			<path class="st0" d="M146.7,365.2c0.8-1.1,1.6-2.1,3.2-1.5C148.8,364.3,147.9,365,146.7,365.2z"/>
			<path class="st0" d="M129,34c0-0.1,0-0.1-0.1-0.2c2.8-0.3,5.6-0.6,8.3-1.2c0.1,0,0.1,0,0.2,0c2.9-0.2,5.7-0.9,8.5-1.5
				c0.1,0,0.3,0,0.4,0c1-0.1,2-0.3,3-0.7c0.7-0.4,1.4-0.7,2.2-0.9c0.1,0,0.2,0,0.3-0.1c0.1,0,0.2,0,0.3,0c0.8-0.1,1.6-0.2,2.3-0.2
				c0.6,0.1,1-0.4,1.5-0.4c0.1,0,0.2,0,0.3,0c0.8,0,1.5-0.2,2.3-0.5c-0.6,1-1.4,1.1-2.3,0.6c0,0,0,0,0,0c-0.5,0.4-1,0.6-1.7,0.6
				c-0.2-0.1-0.5-0.1-0.8-0.1c-1.2,0.4-2.5,0.7-3.8,0.9c-0.2,0.1-0.4,0.3-0.6,0.5c-1,0.4-2.1,0.9-3.2,0.5c0,0,0,0.1-0.1,0.1
				c-2.8,0.9-5.6,1.6-8.6,1.6c-0.1,0-0.2-0.1-0.2-0.1c-0.1,0.3-0.4,0.5-0.7,0.5c-2.3,0.5-4.6,0.8-6.9,1
				C129.5,34.3,129.3,34.2,129,34L129,34z"/>
			<path class="st0" d="M8.2,39c0,0.2-0.1,0.3-0.1,0.5c-0.6,2.4-1.1,4.9-1.5,7.3c0,0.1,0,0.3-0.1,0.4c-1-0.6-1.3-1.5-1.1-2.5
				c0-0.2,0.1-0.3,0.1-0.4C4.2,41.3,6.7,40.4,8.2,39z"/>
			<path class="st0" d="M247.2,144.2c-1.6,0.1-3.2,0.1-4.8-0.1c-0.2,0-0.4,0-0.7-0.1c0.5-0.1,0.7-0.4,0.8-1c0.1-1.2,0.8-2.2,1.5-3.2
				h0.1c0.6,0,1.3-0.1,1.8,0.2c0,0.1,0,0.2,0,0.3c0,0.6-0.6,1-0.8,1.4c-0.6,1.1-0.4,1.4,0.8,1.7c0.3,0.1,0.8,0,1,0.2
				C247.1,143.8,247.2,144,247.2,144.2L247.2,144.2z"/>
			<path class="st0" d="M247.2,46.2c-1.1,0.9-2.3,1.8-2.9,3.2c0-0.2-0.1-0.5-0.1-0.7c-0.1-1-0.3-1.9-0.4-2.9
				c0.1-0.1,0.3-0.2,0.4-0.3c0.9-0.6,1.5-1.5,2.2-2.3l0,0c0.1-0.1,0.2-0.2,0.3-0.4C247,44,247,45.1,247.2,46.2
				C247.2,46.2,247.2,46.2,247.2,46.2L247.2,46.2z"/>
			<path class="st0" d="M14.4,38.4c-0.2,0-0.4,0-0.5,0c-1.5,0-3-0.2-4.5-0.1c-0.3,0-0.6,0-0.9,0.1c0.8-0.8,1.7-1.3,2.9-0.8
				c0.6,0.2,1.1,0.1,1.7,0.1C13.7,37.6,14.3,37.6,14.4,38.4z"/>
			<path class="st0" d="M246.6,43c-0.1,0.2-0.1,0.4-0.2,0.6c-0.4,1-1.1,1.8-2.2,2.2c-0.1,0-0.3,0.1-0.4,0.1l0-0.6
				c0.1-0.2,0.2-0.4,0.3-0.6c0-0.1,0.1-0.1,0.1-0.2c0.9-1.4,0.9-1.9-0.4-3c-0.1-0.1-0.2-0.1-0.2-0.2c-0.2-0.1-0.3-0.3-0.5-0.4
				c-0.3-1.4-0.6-2.7-0.8-4.1l-0.1-0.3c1,0.6,1.9,1.4,3.2,1.3c0.1,0,0.1,0,0.2,0C246.2,39.4,246.3,41.2,246.6,43z"/>
			<path class="st0" d="M271.2,242.7c-0.8,0.8-1.6,1.6-2.5,2.4c0-0.1,0-0.2,0-0.2v-0.1c0-1-0.1-2,0-2.9c0-0.3,0.1-0.5,0.1-0.8
				c0-0.2,0.1-0.3,0.1-0.5c0.1,0.4,0.1,0.9,0.2,1.4c0.5,0,0.6-0.4,0.9-0.6c0.5-0.4,0.9-0.2,1.2,0.2
				C271.7,241.9,271.6,242.3,271.2,242.7L271.2,242.7z"/>
			<path class="st0" d="M275.7,142.3C275.7,142.3,275.6,142.3,275.7,142.3c-0.7,0.1-1.3,0.2-1.9,0.3c0-0.2,0-0.3,0-0.4
				c0-0.9-0.8-1.5-1.1-2.3c0-0.1-0.1-0.2-0.1-0.3c0.7-0.3,1.4-0.3,2.2-0.3l0,0C275.4,140.1,275.9,141.1,275.7,142.3L275.7,142.3z"/>
			<path class="st0" d="M154.6,29.2c-0.2,0.1-0.5,0.2-0.7,0.2c-1.2,0.4-2.5,0.7-3.8,0.9c-0.2,0-0.4,0.1-0.6,0.1
				C150.9,28.8,152.7,28.7,154.6,29.2z"/>
			<path class="st0" d="M271.5,252.6c-0.1,0.1-0.2,0.1-0.3,0.2c-0.6,0.2-0.9-0.5-1.3-0.7c-0.6-0.3-1.3-0.5-1.9-0.7c0,0,0-0.1,0-0.1
				c0.1-1-0.2-2,0.2-3c0,0,0-0.1,0.1-0.1c0.9,0.9,1.9,1.8,2.8,2.7C271.5,251.3,271.6,252,271.5,252.6L271.5,252.6z"/>
			<path class="st0" d="M244.1,45c-0.1,0.1-0.2,0.2-0.4,0.3c-0.2-1.5-0.5-3-0.7-4.4c0.1,0,0.3,0,0.4,0.1c0.9,0.2,1.5,0.9,1.8,1.9
				C245.5,43.9,244.8,44.4,244.1,45z"/>
			<path class="st0" d="M263.6,140.5c-0.2,0.1-0.3,0.3-0.4,0.4c-0.3,0.6,0,1.3-0.1,2c0,0.1-0.1,0.3-0.2,0.4c-4,0.6-8,0.8-12,0.9
				c0-0.1,0-0.3-0.1-0.4c-0.1-1.1,0.1-2.1,0.9-2.9c0.1-0.1,0.3-0.3,0.4-0.4C256,140.5,259.8,140.5,263.6,140.5L263.6,140.5z"/>
			<path class="st0" d="M274,142.1c0,0.1-0.1,0.3-0.2,0.5c-3.6,0.5-7.1,0.6-10.7,0.7c0-0.1,0-0.3,0-0.4c0-0.2,0-0.4-0.1-0.5
				c-0.5-0.7-0.5-1.2-0.1-1.5c0.2-0.2,0.5-0.3,1-0.4c3,0.2,5.9-0.9,8.9-1c0.1,0.1,0.2,0.2,0.3,0.3C273.5,140.4,274.4,141,274,142.1
				L274,142.1z"/>
			<path class="st0" d="M252.2,140.5c-0.1,0.1-0.2,0.3-0.2,0.4c-0.5,0.9-0.6,1.9-0.9,2.9c0,0.1-0.1,0.3-0.1,0.4c-1.3,0-2.5,0-3.8,0
				c-0.5-0.4-1-0.2-1.5-0.2c-0.3,0-0.6-0.1-0.8-0.2c-0.8-0.3-0.9-0.9-0.2-1.9c0.3-0.5,0.7-1,1.1-1.5c0.1-0.1,0.1-0.2,0.2-0.3
				C248,140,250.1,140.3,252.2,140.5L252.2,140.5z"/>
		</g>
	</g>
</g>
</svg>
