<?xml version="1.0" encoding="utf-8"?>
<!-- Generator: Adobe Illustrator 26.2.1, SVG Export Plug-In . SVG Version: 6.00 Build 0)  -->
<svg version="1.1" id="Capa_1" xmlns="http://www.w3.org/2000/svg" xmlns:xlink="http://www.w3.org/1999/xlink" x="0px" y="0px"
	 viewBox="0 0 474.9 411.5" style="enable-background:new 0 0 474.9 411.5;" xml:space="preserve">
<style type="text/css">
	.st0{fill:#35063A;}
</style>
<g id="Capa_2_00000032639868087451216450000011066527561821369269_">
	<g id="Capa_1-2">
		<path class="st0" d="M471,77.4c-8.8-8.9-17.5-17.9-26.6-26.5C400.2,8.5,347.9-7.4,287.5,3.2c-38.4,6.8-76.9,13.7-115.3,20.7
			C123.8,32.6,75.3,41.2,26.9,50C14.2,52.3,5.6,59.9,1.5,72.3C1.2,73.2,1.4,74.6,0,75v13c0.7,0.2,0.8,0.8,0.9,1.4
			c6,19,22,28.5,41.3,24.3c60.6-13.1,121.1-26.5,181.8-39.3c28.8-6.1,57.3-13.9,86.6-17.4c29.6-3.5,59.5-0.4,87.7,9.3
			c21.7,7.3,42.5,16.6,63.7,24.9c5.3,2.1,9.2,1.3,11.6-2.3S475.2,81.6,471,77.4z M409.2,53.2c-28.5-10.5-58.8-15-89.1-13.2
			c-20.7,1.1-40.8,6.1-61,10.5c-70.7,15.3-141.3,30.6-212,45.8c-3,0.7-6,1.3-9.1,1.9c-10.8,2-19.6-3.6-21.6-13.6
			c-1.9-9.2,4.1-17.1,14.8-19.1c27-5,54-9.8,81.1-14.7c47.3-8.5,94.7-17.1,142.1-25.4c21.7-3.8,43.2-9.5,65.4-9.6
			c42.8-0.1,79.9,14.6,111.1,44.1c0.5,0.5,0.9,1,2,2.3C424.4,59,416.9,56,409.2,53.2L409.2,53.2z"/>
		<path class="st0" d="M428.6,100.2c-14.2-7-28.4-14.1-42.6-21.2c-9.6-4.8-14.8-1.6-14.8,9.1c0,28.4,0,56.9,0.1,85.3
			c0.1,2.6-0.9,5.1-2.6,7c-7.3,8.4-14.5,16.9-21.8,25.3c-22.6,25.9-50.7,42.8-84.2,50.6c-19.6,4.5-39.6,3.7-59.5,3.4
			c-38.2-0.6-71.3-14.3-99.6-39.7c-9.5-8.5-16.8-18.9-25.1-28.5c-10-11.7-23-17.8-38.3-19c-1.2-0.1-3.5-1.2-3.6,1.3
			c-0.2,4.5-1,9.2,0.3,13.3c0.8,2.4,5.5,1.2,8.4,2c0.5,0.1,0.9,0.3,1.3,0.4c12.7,3,20.4,12.1,27.6,22c1,1.4,0.3,2.3-0.2,3.3
			c-4.6,10.4-12.3,19.1-22,25c-3.2,2-8.7,1.9-9.3,5.5s2.4,7.4,3.4,11.3c0.7,2.7,1.8,2.6,3.9,1.8c7.9-3.1,15.2-7.6,21.5-13.3
			c6-5.6,11.1-12.2,15-19.5c6.1,6.1,12.6,11.8,19.5,17c1.8,1.3,1.6,2.5,1,4.3c-4.2,14.1-11.2,27.2-20.4,38.6c-2.4,3-7.5,5.6-6.8,9
			c0.7,3.3,5.2,5.8,8,8.7c0.1,0.1,0.2,0.2,0.3,0.3c1.2,1.6,2.3,1.7,3.6,0c3.5-4.3,7.3-8.4,10.7-12.8c7.9-10.3,14-21.9,18.1-34.2
			c1-3,2.1-3.3,4.7-1.8c6.1,3.6,12.5,6.6,19.2,9c2.7,1,3.4,2.4,3.1,5.1c-1,13.9-4.3,27.5-9.6,40.3c-1.5,3.5-4.8,7.6-3.9,10.5
			c1,3.2,6.6,3.7,9.9,5.9c3,2,4,0.8,5.2-1.9c7.5-15.9,12.5-32.5,14.1-50c0.2-2.7,0.9-3.4,3.6-2.7c10.5,2.7,21.2,4.2,32,4.4
			c3.5,0,3.9,1.3,3.5,4.4c-2,14.7-3.8,29.4-5.6,44.1c-0.8,6.7-0.7,6.7,5.7,7.7c9,1.3,9,1.3,10.4-7.6c0.2-1.2,0.3-2.5,0.5-3.7
			c1.7-13.5,3.3-27,5-40.5c0.2-1.7-0.3-4,3.1-4c6.8,0.1,13.6-0.3,20.4-0.6c2.1-0.1,2.9,0.5,3.1,2.7c1.7,15,3.8,30,5.5,45.1
			c1.2,10,1,10,10.9,8.5c6.4-1,6.2-1,5.4-7.6c-2.1-15.8-4-31.6-6.1-47.3c-0.3-2.6,0.2-3.7,3.1-4.3c6.2-1.3,12.3-2.9,18.3-4.9
			c3.4-1.1,4.7-0.5,5.4,3c3.1,13.9,8.2,27.2,15.2,39.5c1.9,3.4,3.6,8.5,6.3,9.2c3.2,0.9,6.5-3.8,10-5.6c3-1.5,2.8-3,1.1-5.6
			c-8.6-13.7-14.7-28.8-18-44.7c-0.4-2-0.8-3.3,1.6-4.4c6.7-3.1,13.2-6.8,19.2-11.1c2.6-1.8,3.5-1.2,4.4,1.6
			c4.7,14,13.2,26.4,24.5,35.8c6.9,5.9,6.9,5.9,12-1.7c0.6-1.1,1.3-2.1,2.1-3.1c2.2-2.3,1.3-3.6-1-5.3
			c-12.4-9.3-20.5-21.6-24.5-36.6c-0.7-1.8-0.1-4,1.5-5.1c4.5-4.1,8.8-8.2,13-12.6c5.4-5.8,10.5-11.8,16.5-18.6v6c0,64,0,128,0,192
			c0,8.6,2.8,11.4,11.3,11.4c14.1,0,28.1,0,42.2,0c7.5,0,10.4-3,10.4-10.4c0-96.8,0-193.5,0.1-290.3
			C435.1,105.6,433.1,102.4,428.6,100.2z M419.2,362.3c0,9.9-0.1,19.8,0.1,29.7c0.1,2.9-0.9,3.7-3.7,3.6c-8-0.2-16.1-0.2-24.1,0
			c-3.5,0.1-4.4-0.9-4.4-4.4c0.1-35.7,0.1-71.4,0.1-107c0-35.5,0.1-71.1-0.1-106.6c0-4.7,1.3-5.6,5.6-5.4c7.2,0.4,14.5,0.3,21.8,0
			c3.9-0.2,4.8,0.9,4.8,4.8C419.1,238.8,419.1,300.5,419.2,362.3L419.2,362.3z M407.1,156.4h-4.2c-4.2,0-8.3-0.1-12.5,0
			c-2.3,0.1-3.2-0.5-3.3-3c-0.7-13-0.8-13,12.2-13c5.4,0,10.8,0.1,16.2-0.1c2.7-0.1,3.7,0.5,3.7,3.5
			C419.4,156.4,419.5,156.4,407.1,156.4z M419,122.6c0.2,3.1-3,1.6-4.6,1.7c-3.7,0.2-7.4,0.1-11.1,0.1c-4.2,0-8.4-0.1-12.5,0
			c-2.4,0.1-3.6-0.4-3.6-3.2c0.2-6.8,0.1-13.6,0-20.4c-0.1-3,0.9-3,3.2-1.8c8.8,4.5,17.7,8.8,26.5,13.3
			C421.6,114.7,418.8,119.1,419,122.6z"/>
	</g>
</g>
</svg>
