<?xml version="1.0" encoding="utf-8"?>
<!-- Generator: Adobe Illustrator 26.2.1, SVG Export Plug-In . SVG Version: 6.00 Build 0)  -->
<svg version="1.1" id="Capa_1" xmlns="http://www.w3.org/2000/svg" xmlns:xlink="http://www.w3.org/1999/xlink" x="0px" y="0px"
	 viewBox="0 0 184.6 224.2" style="enable-background:new 0 0 184.6 224.2;" xml:space="preserve">
<style type="text/css">
	.st0{fill:#35063A;}
</style>
<g id="Capa_2_00000032608739764552553910000003340065464821809056_">
	<g id="Capa_1-2">
		<path class="st0" d="M165.9,19.7c-5.5-2.3-10.4-5.7-14.4-10.2c-2.2-2.3-4.5-4.5-6.7-6.7s-4.9-4.2-7.7-1.4s-0.9,5.4,1.4,7.7
			c5,4.9,10,9.8,14.8,14.9c6,6.5,7.6,14,3.9,23.9c-4.4-4.8-8-8.9-11.7-12.8c-2.1-2.2-4.7-3.8-7.4-1.1s-1.2,5.1,1,7.3
			c4.2,4.2,8.6,8.4,12.6,12.8c0.9,0.9,1.5,3.1,1,4.1c-2.2,4.2-4.9,8.1-7.4,12c-4.1-4-7.8-7.7-11.5-11.2c-2.3-2.2-4.7-5.8-8.3-2.3
			c-3.4,3.3-0.7,6.1,1.8,8.4c4.3,3.9,8.9,7.5,13.4,11.3l-12.2,14.6c-4-4.2-7.7-8.3-11.5-12.2c-2.3-2.4-5-4.7-8-1.5
			c-2.8,3-0.7,5.5,1.6,7.7c4.1,3.9,8.2,7.7,12.3,11.6L111.4,109c-5.1-5.2-9.7-9.8-14.2-14.4c-2.3-2.3-4.9-4.1-7.7-1.1
			c-2.5,2.7-0.9,5.2,1.3,7.3c4.3,4.2,8.6,8.3,13.5,13c-4.5,2.6-8.3,4.9-12.1,7.2c-2.1,1.3-3.7,1.1-5.6-0.9c-4-4.5-8.3-8.7-12.8-12.6
			c-1.4-1.2-4.3-0.6-6.6-0.8c0.1,2.2-0.3,4.6,0.4,6.6c0.4,1.4,2.2,2.4,3.4,3.6c2.7,2.8,5.4,5.6,8.4,8.6c-13.1,3.6-23.7,1.6-32.1-8.8
			c-3-3.7-6.8-6.9-10.2-10.3c-2.3-2.4-4.9-4.7-8-1.5c-2.9,3-0.7,5.4,1.6,7.6c2.8,2.8,5.5,5.9,8.5,8.4c4.3,3.6,6.4,7.9,7.3,13.4
			c2.3,13.5,2.6,13.4-9.5,20.4C19,165.1,6.6,180,1.2,200.1c-3.3,12.2,0.4,19.3,11.4,24.1h6c4.1-1.8,8.5-3.1,12.2-5.4
			c18-11.2,30.1-27.1,35.8-47.5c3-10.6,10.5-15.6,20-18.9c1.7-0.6,3.5-1,5.3-1.2c14.3-2.5,27.7-8.7,39-17.9
			c12.9-10.3,24.5-22.1,34.5-35.3c9.6-12.8,16.6-26.8,18.8-42.9C186.3,40,179.4,25.1,165.9,19.7z M167.4,78.3
			c-12.1,21.8-29.2,39.1-49.4,53.4c-9,6.4-19.4,9.2-30.1,11.5c-3.6,0.7-7.1,1.8-10.4,3.4c-9.4,4.4-16.3,10.9-19.2,21.5
			c-4.2,16.1-13.9,30.3-27.4,40c-3.5,2.6-7.2,4.7-11.2,6.4c-6.8,2.7-11.3-0.9-10.6-8.1c1.2-11.2,6.6-20.7,14.1-28.6
			c6-6.1,12.8-11.5,20.2-16c12.8-8.1,14.3-10.3,12.3-25.5c0-0.5,0.1-1,0.3-1.6c21,5,38.8-2.6,54.9-14.8
			c20.6-15.8,36.8-35.6,50.1-57.8c5.5-9.2,8.6-19.1,6.5-31c4.9,4,7.8,10,8,16.3C176,58.5,172.7,68.7,167.4,78.3z"/>
		<path class="st0" d="M81.8,18.2c1.6,0.9,3.1,1.3,4.1,2.3c3.9,3.6,7.6,7.4,11.3,11.2c2.1,2.1,3.1,5,0.4,6.9c-1.4,1-5,0.6-6.4-0.6
			c-4.2-3.5-8.1-7.4-11.7-11.6c-1.1-1.2-1.3-3.6-1-5.3C78.7,20,80.5,19.2,81.8,18.2z"/>
		<path class="st0" d="M63,35.2c0.9,0.3,1.8,0.7,2.7,1.2c4.4,4.3,8.9,8.4,12.9,13c0.9,1.1,0.6,4.3-0.4,5.5c-0.7,1-4.1,1.2-5.1,0.4
			c-4.7-4.2-9.1-8.6-13.3-13.3c-0.8-0.9-0.6-3.2,0-4.6C60.2,36.5,62,36,63,35.2z"/>
		<path class="st0" d="M115.8,24.9c-1.4-0.7-2.6-0.9-3.4-1.7c-4-3.5-7.7-7.3-11.2-11.3c-1-1.3-0.2-4.1-0.3-6.2
			c2.1,0,4.9-0.9,6.2,0.2c4.2,3.5,8.1,7.4,11.6,11.6c0.9,1.1,0.9,3.5,0.4,5C118.8,23.5,116.9,24.1,115.8,24.9z"/>
		<path class="st0" d="M62.9,71.7c-0.6,0.9-1.2,2.8-2.2,3.1c-1.5,0.5-3.9,0.5-5-0.4c-4.2-3.7-8.2-7.7-11.9-12c-0.9-1-0.6-4,0.3-5.2
			c0.7-1,3.9-1.7,4.7-1c4.7,4.1,9.1,8.6,13.5,13.1C62.7,69.6,62.6,70.5,62.9,71.7z"/>
		<path class="st0" d="M49.4,93.7c-0.2,3.6-4.2,5.7-6.9,3.4c-3.8-3.2-7.3-6.8-10.5-10.6c-0.9-1-0.8-3.8,0-4.9s3.9-2.1,4.5-1.6
			c4.5,3.9,8.5,8.2,12.7,12.4C49.4,92.8,49.3,93.4,49.4,93.7z"/>
		<path class="st0" d="M101.4,46.3c0.8,0.2,1.6,0.6,2.2,1.1c3,2.9,6.2,5.6,8.7,8.9c0.9,1.2,0.8,4.5-0.2,5.5s-4.4,1.2-5.5,0.3
			c-3.4-2.7-6.5-5.7-9.1-9.1C95.3,50.2,97.5,46.3,101.4,46.3z"/>
		<path class="st0" d="M95.6,77.9c-0.4,0.6-1,2.3-2.1,2.7c-1.3,0.5-3.6,0.6-4.5-0.2c-3.4-2.9-6.6-6.1-9.4-9.5
			c-0.8-0.9-0.6-3.2,0-4.4c0.8-1.2,2.2-1.9,3.6-2.1C85.8,64.1,95.5,74.2,95.6,77.9z"/>
		<path class="st0" d="M114.2,27.8c1.3,0.6,2.5,1.3,3.7,2.1c2.7,2.5,5.6,4.9,7.6,7.8c1,1.5,0.4,4.1,0.6,6.2c-2.1,0.1-4.8,1-6.2,0
			c-3.2-2.4-6-5.2-8.4-8.4c-0.9-1.2-1-3.5-0.6-5C111.2,29.5,112.9,28.8,114.2,27.8z"/>
		<path class="st0" d="M76.9,94.2c0.2,3.1-3.1,5.9-5.6,4.1c-3.9-2.9-7.4-6.4-10.4-10.2c-1.7-2.2,1.2-5.8,4.2-5.7
			C67.7,82.4,76.8,91.5,76.9,94.2z"/>
		<path class="st0" d="M61.4,109.1c-0.3,4.6-4,6.6-6.7,4.7c-2.6-1.8-4.8-4-6.6-6.6c-0.8-1.3-0.2-4.3,0.8-5.5c0.8-0.9,4-0.9,5.1-0.1
			C57,103.9,59.5,107,61.4,109.1z"/>
	</g>
</g>
</svg>
