<?xml version="1.0" encoding="utf-8"?>
<!-- Generator: Adobe Illustrator 26.2.1, SVG Export Plug-In . SVG Version: 6.00 Build 0)  -->
<svg version="1.1" id="Capa_1" xmlns="http://www.w3.org/2000/svg" xmlns:xlink="http://www.w3.org/1999/xlink" x="0px" y="0px"
	 viewBox="0 0 383.1 383.2" style="enable-background:new 0 0 383.1 383.2;" xml:space="preserve">
<style type="text/css">
	.st0{fill:#35063A;}
</style>
<g id="Capa_2_00000093871818724896949950000016532747106946730159_">
	<g id="Capa_1-2">
		<path class="st0" d="M336.4,281h-98c-6.4,0-8.5,2.1-8.5,8.5c0,15.6,0,31.2,0,46.8c0,6.4,2.2,8.6,8.5,8.6h98c6.4,0,8.5-2.2,8.5-8.6
			c0-15.6,0-31.2,0-46.8C344.9,283.2,342.8,281,336.4,281z M329,332.2c-13.8-0.1-27.7-0.1-41.5-0.1s-27.4-0.1-41.1,0.1
			c-2.8,0-3.9-0.4-3.8-3.6c0.2-10.6,0.2-21.2,0-31.8c0-2.5,0.8-3.1,3.2-3.1c27.8,0.1,55.6,0.1,83.4,0c2.6,0,3.1,0.9,3,3.2
			c-0.1,10.7-0.1,21.4,0,32.2C332.2,331.6,331.5,332.2,329,332.2L329,332.2z M336.4,281h-98c-6.4,0-8.5,2.1-8.5,8.5
			c0,15.6,0,31.2,0,46.8c0,6.4,2.2,8.6,8.5,8.6h98c6.4,0,8.5-2.2,8.5-8.6c0-15.6,0-31.2,0-46.8C344.9,283.2,342.8,281,336.4,281z
			 M329,332.2c-13.8-0.1-27.7-0.1-41.5-0.1s-27.4-0.1-41.1,0.1c-2.8,0-3.9-0.4-3.8-3.6c0.2-10.6,0.2-21.2,0-31.8
			c0-2.5,0.8-3.1,3.2-3.1c27.8,0.1,55.6,0.1,83.4,0c2.6,0,3.1,0.9,3,3.2c-0.1,10.7-0.1,21.4,0,32.2
			C332.2,331.6,331.5,332.2,329,332.2L329,332.2z M382.3,267.6c-3-11.6-10.1-19.6-21.5-23.3c-2.8-0.9-3.2-2.1-3.2-4.6
			c0.1-13.5,0-26.9,0.1-40.4c0-3.8-1.5-6.6-5.3-7.4c-1.1-0.1-2-1.1-2-2.2c-2.7-14.8-11.6-25.3-23.2-33.9
			c-11.1-8.2-23.7-13.6-36.8-17.6c-2.4-0.7-3-1.8-3-4.1c0.2-5.9,0.2-11.7,0-17.6c-0.8-24.7-7-47.7-21.1-68.2
			c-20-29-48.9-42.6-82.9-46.5C153.1-1.7,122.6,0.1,93.1,7C75.1,11.1,58,17.7,44,30.2C32,40.8,25.1,53.7,25.4,70.4
			c0.5,30.3,0.1,60.6,0.2,90.9c0,2.1-0.5,4.2-1.6,6c-7.5,13-15,26.1-22.4,39.2c-2.6,4.6-1.9,7.4,2.5,10.4s9.1,6.1,13.7,9.1
			c1.4,0.8,2.4,2.2,2.6,3.8c2.4,12.5,4.8,24.9,7.4,37.3c2.9,13.9,11.3,22.7,25.2,26c5.6,1.3,11.4,0.7,17.1,0.8
			c11.3,0.2,22.3,1.8,32.5,7c8.3,4.2,12.5,10.8,12.4,20.4c-0.2,17.8,0.1,35.7,0,53.5c0,3.9,1.1,6.8,4.7,8.4h247.7
			c8.3-0.8,14.9-7.4,15.7-15.7v-98C382.1,269.2,382.5,268.3,382.3,267.6L382.3,267.6z M344.9,207.6c-0.4,3.1,1.3,7.1-0.7,8.9
			c-1.7,1.5-5.7,0.5-8.6,0.6c-7.1,0-14.2,0-21.3,0c-4.8,0-7.6,2.3-7.7,6.2c-0.1,4.1,2.6,6.5,7.7,6.5c9.2,0,18.5,0.1,27.7,0
			c2.4,0,3.1,0.6,2.9,2.9c-0.2,2.4-0.2,4.7,0,7.1c0.2,2.5-0.8,2.8-3,2.8c-36.4-0.1-72.8-0.1-109.2,0c-2.2,0-3-0.4-3-2.9
			c-0.1-10-0.2-10,9.7-10c15.6,0,31.2,0,46.7,0c3.3,0,5.9-1,7.1-4.3c1.6-4.5-1.6-8.5-6.9-8.5c-12.3-0.1-24.7,0-37,0
			c-5.6,0-11.2-0.1-16.8,0c-2.1,0.1-2.9-0.4-2.8-2.6c0.2-3.2-1-7.4,0.6-9.4s6-0.7,9.2-0.7c16-0.1,31.9,0,47.9,0
			c18.1,0,36.1,0.1,54.2-0.1C344.4,204.3,345.2,205.1,344.9,207.6L344.9,207.6z M281.6,153.1c0-1.3,0-2.7,0-4.4
			c17.1,5,33.2,11.3,45.9,24c4.5,4.5,7.8,10.1,9.7,16.1c0.6,2.1,0.2,2.8-2.1,2.8c-31.8-0.1-63.5-0.1-95.3,0c-2.6,0-2.8-0.7-2.2-2.9
			c3.6-12.8,9.8-16.5,20.3-16.4c3.1,0,6.2-0.3,9.3-1C276.7,169.1,281.6,162.9,281.6,153.1L281.6,153.1z M153.3,219.4v145.5
			c0,5.6,0,5.6-5.4,5.6c-5.7,0-11.5-0.1-17.2,0.1c-2.4,0.1-2.9-0.6-2.9-2.9c0.1-14.2-0.5-28.5,0.1-42.6
			c1.1-24.6-13.3-34.3-29.6-39.7c-9.5-3.2-19.4-4.2-29.5-4.3c-3.6,0-7.2,0.1-10.8-0.1c-8.7-0.5-15.9-6.8-17.5-15.3
			c-2.8-13.8-5.6-27.6-8.2-41.4c-0.4-2.9-2-5.4-4.5-6.9c-3.6-2.2-7-4.8-10.6-6.9c-2-1.2-2-2.1-0.9-4c6.7-11.5,13.2-23.1,19.9-34.6
			c1.5-2.5,2.2-5.3,2.2-8.1c-0.1-28.4,0-56.8,0-86.1c8.4,6.9,16.2,13.3,23.9,19.7c24.1,19.9,48.3,39.8,72.4,59.6
			c5.4,4.4,8.4,4,12.2-1.7c7.2-10.8,18-10.9,25.4-0.2c8.9,13,8.9,35.3-0.2,48.2c-2.8,4-6.3,7-11.4,7.6
			C154.6,211.6,153.3,213.2,153.3,219.4z M191.6,363.7c0,0.2,0,0.5,0,0.8c-0.3,2,1.7,4.7,0.4,5.6c-1.6,1-4.3,0.4-6.5,0.4
			c-5.4,0-10.7-0.2-16.1,0.1c-3,0.2-3.4-0.9-3.4-3.5c0.1-23.4,0.1-46.9,0.1-70.3s0-47.1-0.1-70.7c0-2.3,0.6-3.4,2.8-4.3
			c7.9-3,13.3-8.9,16.7-16.3c9-19.7,8.8-39.2-2.9-57.7c-8.3-12.9-22.4-16.8-34.7-10.5c-2.4,1.1-4.5,2.6-6.3,4.6
			c-1.8,2.3-3.1,1.8-5.1,0.1c-24.8-20.5-49.6-41-74.4-61.4c-6.9-5.7-13.8-11.5-20.8-17c-2.3-1.8-2.6-3.5-1.6-6
			C44,46.7,51.8,39.1,61.4,33.1c13.6-8.5,28.8-12.9,44.4-15.7c22.8-4.2,46.1-5.5,69.2-3.8c23,1.8,44.6,7.9,62.9,22.6
			C257.5,51.9,267.6,73,272.4,97c2.3,11.6,2.3,23.3,2.3,35c0,1.5-0.4,2.2-1.9,2.6c-3.4,1-4.6,3.6-4.5,6.9c0.1,3.5,0.4,7,0.5,10.5
			c0.2,5.2-0.6,6.3-5.9,7.2c-2.3,0.3-4.7,0.5-7.1,0.5c-14.4,0.5-24.1,7.5-29.1,21.1c-1,2.6-1.7,5.2-2.2,7.9
			c-0.3,1.9-0.8,2.9-2.9,3.4c-3.7,1-4.7,4-4.6,7.6c0.1,13.3,0,26.7,0.1,40c0,2.5-0.4,3.8-3.2,4.7c-13.3,4-22.4,16.4-22.3,30.3
			C191.6,304.3,191.6,334,191.6,363.7L191.6,363.7z M361.4,370.4H213.2c-6.9,0-8.9-2-8.9-8.9c0-28.3,0-56.6,0-84.9
			c0-13.2,7.9-21.1,21.2-21.1h123.8c13.1,0,21,7.9,21,20.9c0,28.4,0,56.9,0,85.3C370.4,368.5,368.4,370.4,361.4,370.4L361.4,370.4z
			 M336.4,281h-98c-6.4,0-8.5,2.1-8.5,8.5c0,15.6,0,31.2,0,46.8c0,6.4,2.2,8.6,8.5,8.6h98c6.4,0,8.5-2.2,8.5-8.6
			c0-15.6,0-31.2,0-46.8C344.9,283.2,342.8,281,336.4,281L336.4,281z M329,332.2c-13.8-0.1-27.7-0.1-41.5-0.1s-27.4-0.1-41.1,0.1
			c-2.8,0-3.9-0.4-3.8-3.6c0.2-10.6,0.2-21.2,0-31.8c0-2.5,0.8-3.1,3.2-3.1c27.8,0.1,55.6,0.1,83.4,0c2.6,0,3.1,0.9,3,3.2
			c-0.1,10.7-0.1,21.4,0,32.2C332.2,331.6,331.5,332.2,329,332.2L329,332.2z"/>
		<path class="st0" d="M336.4,281h-98c-6.4,0-8.5,2.1-8.5,8.5c0,15.6,0,31.2,0,46.8c0,6.4,2.2,8.6,8.5,8.6h98c6.4,0,8.5-2.2,8.5-8.6
			c0-15.6,0-31.2,0-46.8C344.9,283.2,342.8,281,336.4,281z M329,332.2c-13.8-0.1-27.7-0.1-41.5-0.1s-27.4-0.1-41.1,0.1
			c-2.8,0-3.9-0.4-3.8-3.6c0.2-10.6,0.2-21.2,0-31.8c0-2.5,0.8-3.1,3.2-3.1c27.8,0.1,55.6,0.1,83.4,0c2.6,0,3.1,0.9,3,3.2
			c-0.1,10.7-0.1,21.4,0,32.2C332.2,331.6,331.5,332.2,329,332.2L329,332.2z"/>
		<path class="st0" d="M336.4,281h-98c-6.4,0-8.5,2.1-8.5,8.5c0,15.6,0,31.2,0,46.8c0,6.4,2.2,8.6,8.5,8.6h98c6.4,0,8.5-2.2,8.5-8.6
			c0-15.6,0-31.2,0-46.8C344.9,283.2,342.8,281,336.4,281z M329,332.2c-13.8-0.1-27.7-0.1-41.5-0.1s-27.4-0.1-41.1,0.1
			c-2.8,0-3.9-0.4-3.8-3.6c0.2-10.6,0.2-21.2,0-31.8c0-2.5,0.8-3.1,3.2-3.1c27.8,0.1,55.6,0.1,83.4,0c2.6,0,3.1,0.9,3,3.2
			c-0.1,10.7-0.1,21.4,0,32.2C332.2,331.6,331.5,332.2,329,332.2L329,332.2z"/>
	</g>
</g>
</svg>
