<?xml version="1.0" encoding="UTF-8"?><svg xmlns="http://www.w3.org/2000/svg" viewBox="0 0 222.15 370.11"><defs><style>.d{fill:#35063a;}</style></defs><g id="a"/><g id="b"><g id="c"><g><path class="d" d="M41.51,262.8c-1.75-10.17,3.71-15.73,13.9-13.85,7.78,1.44,13.4,5.09,20.44,13.39,5.58-7.23,12.55-12.22,21.76-13.58,8.47-1.26,13.31,2.84,12.63,11.34-1.14,14.24-8.61,25.14-20.07,32.83-15.37,10.32-13.29,10.17-28.65,.1-10.83-7.1-17.76-17.17-20.01-30.23Z"/><path class="d" d="M141.17,218.08c-2.98-.28-5.95-.74-8.94-.9-1.72-.09-2.6-.57-3.21-2.33-1.96-5.65-6.43-7.59-12.08-7.77-2.53-.07-5.9,.65-6.78-2.73-.87-3.35-2.07-6.9,1.32-10.11,2.65-2.5,2.52-5.82-.18-8.41-2.42-2.31-2.72-4.13-.15-6.57,2.85-2.71,3.03-6.08,.18-8.77-2.83-2.67-2.41-4.46,.12-6.99,2.59-2.59,2.6-5.83-.12-8.39-2.74-2.58-2.49-4.45,.14-6.94,2.29-2.17,2.75-5.37,.46-7.6-2.21-2.14-2.8-4.35-2.45-7.06,.33-2.64-.93-3.26-3.33-3.66-6.78-1.12-13.62-.85-20.42-1.12-12.99-.52-25.96-.08-38.92,1-3.28,.28-4.07,1.65-3.92,4.7,.2,4.17,.79,8.35-2.91,11.92-2.17,2.1-.89,5.14,1.27,7.07,2.36,2.08,2.53,3.88,.25,6.08-3.21,3.1-3.34,6.37-.03,9.49,2.33,2.21,2.07,4.02-.18,6.18-3.06,2.93-3.04,6.18,.1,9.09,2.36,2.2,2.29,4.01-.03,6.21-3.3,3.15-2.88,6.32,.22,9.52,2.23,2.31,1.41,5.49-1.64,6.51-1.39,.47-2.94,.54-4.43,.6-5.78,.22-10.44,2.19-12.38,8.11-.55,1.69-1.53,1.84-2.95,1.95-2.81,.22-5.61,.63-8.43,.91C3.48,218.89-.19,222.81,0,231c.75,30.13,1.56,60.26,2.37,90.39,.33,12.32,.65,24.64,1.14,36.96,.28,6.99,2.36,9.54,8.66,11.54,1.11-.47,2.29-.31,3.44-.31,40.33-.01,80.65-.01,120.98,0,1.15,0,2.33-.17,3.43,.35,5.88-1.36,8.93-4.59,9.08-10.04,1.14-43.12,2.26-86.24,3.31-129.36,.18-7.56-3.78-11.75-11.25-12.45Zm-125.68,3.73c5.31-.84,10.63-.6,15.94-.62,14.98-.04,29.96-.01,44.94-.01,17.48,0,34.96-.05,52.43,.02,11.71,.05,11.68,.13,10.96,11.64-1.2,19.26-1.64,38.56-3.73,57.75-.92,8.41-2.01,16.82-3.51,25.15-2.96,16.38-13.24,25.8-29.18,29.34-17.62,3.91-35.31,4.04-52.91,.1-18.43-4.12-26.96-13.4-30.18-31.8-5.09-29.06-6.19-58.48-7.95-87.84-.16-2.62,.7-3.33,3.19-3.73Z"/><path class="d" d="M201.73,117.54c-13.93-37.85-27.76-75.75-41.47-113.69-1.01-2.79-2.08-4.37-5.28-3.7-24.49,2.98-47.32,10.63-67.73,25-2.41,1.7-1.64,3.21-.99,5,13.88,38.08,27.82,76.13,41.61,114.23,1.07,2.96,2.1,3.21,4.88,2.18,22.19-8.19,44.42-16.26,66.69-24.24,2.7-.97,3.36-1.89,2.29-4.78Zm-11.17,3.33c-6.21,2.34-6.16,2.43-8.49-3.99-12.37-34.01-24.75-68.02-37.12-102.04-2.38-6.54-1.78-7.37,5.44-7.42,3.11-.63,3.07,2.03,3.77,3.93,10.94,29.96,21.87,59.94,32.81,89.91,1.86,5.12,3.54,10.32,5.64,15.35,1.07,2.58,.26,3.4-2.05,4.26Z"/><path class="d" d="M188.04,206.69c-2.71,.17-3.76-1.67-4.53-3.79-7.27-20.02-14.53-40.05-21.8-60.08-.33-.91-1.19-1.99,.11-2.53,3.51-1.43,7.04-2.93,10.71-3.84,2.38-.59,2.03,2.16,2.5,3.43,6.08,16.42,12.02,32.89,18,49.34,.84,2.33,1.66,4.67,2.5,7,2.33,6.48-.38,10.27-7.47,10.46Z"/><path class="d" d="M204.78,239.58c2.89,9.24,5.75,18.49,8.71,27.71,.59,1.85,1.3,3.05-1.38,4.18-3.1,1.3-4.15,.74-5.15-2.36-5.84-18.08-11.81-36.12-17.91-54.11-1-2.94-.96-4.11,2.48-5.02,7.14-1.89,7.05-2.16,9.86,4.95,6.32,15.98,12.72,31.93,18.88,47.97,.58,1.51,3.68,3.91,.41,5.15-3.01,1.14-2.74-2.63-3.52-4.22-3.99-8.1-7.66-16.37-11.44-24.58l-.94,.34Z"/><path class="d" d="M12.17,369.89c1.42-1.28,3.17-.78,4.78-.78,39.44-.03,78.88-.03,118.32,0,1.6,0,3.36-.53,4.76,.82-29.47,.07-58.94,.17-88.41,.19-13.15,0-26.3-.14-39.45-.22Z"/><path class="d" d="M110.24,260.1c-1.14,14.24-8.61,25.14-20.07,32.83-15.37,10.32-13.29,10.17-28.65,.1-10.83-7.1-17.76-17.17-20.01-30.23-1.75-10.17,3.71-15.73,13.9-13.85,7.78,1.44,13.4,5.09,20.44,13.39,5.58-7.23,12.55-12.22,21.76-13.58,8.47-1.26,13.31,2.84,12.63,11.34Z"/><path class="d" d="M110.24,260.1c-1.14,14.24-8.61,25.14-20.07,32.83-15.37,10.32-13.29,10.17-28.65,.1-10.83-7.1-17.76-17.17-20.01-30.23-1.75-10.17,3.71-15.73,13.9-13.85,7.78,1.44,13.4,5.09,20.44,13.39,5.58-7.23,12.55-12.22,21.76-13.58,8.47-1.26,13.31,2.84,12.63,11.34Z"/></g></g></g></svg>