<svg xmlns="http://www.w3.org/2000/svg" viewBox="0 0 309.5 366.88"><defs><style>.cls-1{fill:#c08f2c;}</style></defs><g id="Capa_2" data-name="Capa 2"><g id="Capa_1-2" data-name="Capa 1"><path class="cls-1" d="M206.59,211.33c-41.82,5.86-78.36-25.74-78.29-72.48.12-11.78,5.48-26.42,16.11-39.12,2.76-3.29,5.31-4,7.57-2.09s2.1,4.45-.65,7.78c-28.78,35-11.38,86.37,32.66,96.47,35.19,8.07,70.38-18.67,71.78-54.73.91-23.39-8.54-41.88-28.49-53.95s-40.61-11.77-61-.38c-1.61.9-3.15,2.15-5.19,1.49a4.45,4.45,0,0,1-3.26-3.73c-.34-2.27.94-3.74,2.77-4.85a67.68,67.68,0,0,1,28.7-9.83c35.34-3.55,66.72,19.5,74.13,54.32C271.48,168.18,245,206,206.59,211.33Z"/><path class="cls-1" d="M303.4,267.37c-2,0-4-.11-6,0-1.65.11-2.13-.47-2.09-2.1.1-4.49,0-9,0-13.47,0-5-1.18-6.16-6.13-6.16-14.46,0-28.92,0-43.38.05-2.21,0-3.05-.39-2.93-2.81a118.51,118.51,0,0,0,0-13.46c-.18-2.88.94-4.28,3.29-5.84,32.43-21.64,47.68-52.12,43.63-90.82C284,77.42,230.09,39.7,175.87,52c-38,8.6-66.31,38.9-72.4,78.76A92.44,92.44,0,0,0,147.55,224a4.84,4.84,0,0,1,2.7,5,124.06,124.06,0,0,0,0,13.08c.19,3-.74,3.66-3.64,3.63-14.21-.16-28.42-.08-42.63-.07-5.69,0-6.92,1.27-6.92,7.07,0,2,.08,4,0,6-.14,2.82,1.21,6.44-.63,8.21-1.38,1.33-5,.37-7.55.43h-.38c-3.13.11-4.86,1.67-4.88,4.87a34.1,34.1,0,0,0,.22,4.85c3.33,23.92,22.27,40.37,46.52,40.4q33.1,0,66.2,0t66.2,0a50.63,50.63,0,0,0,12.57-1.5c19.18-4.86,33.64-22.78,34.18-42.33C309.63,269,308.12,267.4,303.4,267.37ZM111.33,143.11c.29-46.43,39.13-84.79,85.48-84.41a85.21,85.21,0,0,1,84.51,85.64c-.22,47-38.41,85.08-85.22,84.86A85.06,85.06,0,0,1,111.33,143.11Zm47.84,87.19c25,10.31,49.66,10.2,74.83,0,0,4.94,0,9.47,0,14,0,2.48-2,1.35-3.08,1.35-16.94.08-33.89,0-50.83,0-6.11,0-12.22-.1-18.32.06-2.18.05-2.7-.67-2.62-2.72C159.28,238.92,159.17,234.84,159.17,230.3Zm140.35,50.2a36.69,36.69,0,0,1-36.06,28c-28.43.07-56.85,0-85.27,0-16.46,0-32.92.12-49.37,0a36.9,36.9,0,0,1-35.3-28.08c-.68-2.76-.82-4.18,3.11-4.17,44.88.18,89.76.11,134.63.11a22.25,22.25,0,0,0,3.37,0c2.54-.4,4-1.89,4-4.56a4.16,4.16,0,0,0-3.86-4.3,20.89,20.89,0,0,0-3.36-.06q-60.76,0-121.54.07c-3,0-4.32-.53-3.85-3.77.43-2.91-1.25-6.84.69-8.54,1.63-1.44,5.44-.48,8.28-.48H196.5c28.68,0,57.35.05,86-.06,2.91,0,4.4.37,3.9,3.7-.43,2.92,1.25,7-.65,8.54s-5.68.52-8.64.53c-6.36,0-12.72,0-19.08,0-4.32,0-6.31,1.48-6.24,4.6s2,4.36,6.11,4.37c12.84,0,25.68.16,38.51-.09C300.28,276.17,300.29,277.51,299.52,280.5Z"/><path class="cls-1" d="M83.82,12.26C71.63,4.28,58.38-.08,43.74,0c-15-.07-28.61,4.49-41,12.92C.29,14.6-.5,16.56.31,19.61Q6.4,42.49,12.16,65.46c1.9,7.59,5.08,15,5.45,22.8,1.12,23.77,1.62,47.58,2.33,71.38q2.4,80.36,4.77,160.72c.3,10.09.44,20.2,1.18,30.26.68,9.26,8.64,16.16,17.89,16.26C54.5,367,62,359.22,62.4,347.38q1.29-42.24,2.4-84.48,2.39-86.35,4.78-172.7a23.51,23.51,0,0,1,.73-5.14c5.5-21.56,11-43.12,16.66-64.64C88,16.66,87,14.34,83.82,12.26ZM59,152c0,2-.61,2.55-2.54,2.47-3.1-.15-6.23-.1-9.34,0-2.94.07-4.76,1.55-4.7,4.6.05,2.87,1.84,4.26,4.59,4.34,3.11.09,6.23.12,9.34,0,1.81-.07,2.29.46,2.24,2.31Q57,217.77,55.59,269.92q-1,37-2.06,74a45.26,45.26,0,0,1-.53,6.69,8.94,8.94,0,0,1-9.11,7.27,9.08,9.08,0,0,1-9-7.47,45.9,45.9,0,0,1-.5-6.32q-1.29-43.74-2.56-87.46Q30.46,212,29,167.31c-.09-2.75,0-4.37,3.51-4.08,2.55.21,4.16-1.67,4.18-4.29,0-2.8-1.65-4.71-4.39-4.45-3.47.32-3.67-1.34-3.74-4q-.81-31.59-1.89-63.17c-.08-2.3.45-3.49,2.78-4.35a39.78,39.78,0,0,1,28.81.13c2,.77,2.53,1.81,2.47,3.85Q59.74,119.43,59,152ZM77.26,22.22C72.85,38.79,68.66,55.42,64.34,72c-.3,1.12.19,3.38-1.83,2.93-1.85-.42-.71-2.38-.56-3.55,1.5-11.09,3.13-22.17,4.7-33.26.5-3.47-.91-6-3.68-6.18-3.18-.22-4.68,1.63-5.12,4.68-1.56,11-3.2,21.91-4.81,32.87-.19,1.28.19,2.83-2.13,2.5-1.95-.28-2.79-.94-2.69-3.06.18-3.48.09-7,.05-10.46-.05-3-1.42-5.16-4.67-5.06-3,.09-4.33,2-4.3,5,0,3.36-.13,6.73,0,10.09.1,2.08-.33,3.2-2.66,3.47-2.6.31-2.07-1.69-2.29-2.88C33,61.64,31.74,54.16,30.45,46.68,29.8,42.91,27.77,41,25,41.45s-4.09,2.88-3.43,6.76c1.35,7.85,2.82,15.67,4.17,23.52.19,1.09,1.11,2.71-.61,3.22-2.1.63-1.58-1.57-1.81-2.45-4.46-16.94-8.75-33.92-13.23-50.86-.54-2-.06-2.81,1.57-3.78A62,62,0,0,1,44.75,9c10.44-.07,20.8,3,30.51,8.51C77.29,18.65,77.91,19.77,77.26,22.22Z"/><path class="cls-1" d="M206.59,211.33c-41.82,5.86-78.36-25.74-78.29-72.48.12-11.78,5.48-26.42,16.11-39.12,2.76-3.29,5.31-4,7.57-2.09s2.1,4.45-.65,7.78c-28.78,35-11.38,86.37,32.66,96.47,35.19,8.07,70.38-18.67,71.78-54.73.91-23.39-8.54-41.88-28.49-53.95s-40.61-11.77-61-.38c-1.61.9-3.15,2.15-5.19,1.49a4.45,4.45,0,0,1-3.26-3.73c-.34-2.27.94-3.74,2.77-4.85a67.68,67.68,0,0,1,28.7-9.83c35.34-3.55,66.72,19.5,74.13,54.32C271.48,168.18,245,206,206.59,211.33Z"/><path class="cls-1" d="M206.59,211.33c-41.82,5.86-78.36-25.74-78.29-72.48.12-11.78,5.48-26.42,16.11-39.12,2.76-3.29,5.31-4,7.57-2.09s2.1,4.45-.65,7.78c-28.78,35-11.38,86.37,32.66,96.47,35.19,8.07,70.38-18.67,71.78-54.73.91-23.39-8.54-41.88-28.49-53.95s-40.61-11.77-61-.38c-1.61.9-3.15,2.15-5.19,1.49a4.45,4.45,0,0,1-3.26-3.73c-.34-2.27.94-3.74,2.77-4.85a67.68,67.68,0,0,1,28.7-9.83c35.34-3.55,66.72,19.5,74.13,54.32C271.48,168.18,245,206,206.59,211.33Z"/></g></g></svg>