<?xml version="1.0" encoding="UTF-8"?><svg xmlns="http://www.w3.org/2000/svg" viewBox="0 0 375.61 340.66"><defs><style>.d{fill:#35063a;}</style></defs><g id="a"/><g id="b"><g id="c"><g><path class="d" d="M108.79,212.54c-3.32-5.05-6.81-9.98-10.88-14.47-5.39-5.95-12.04-10.24-18.89-14.25-15.44-9.04-31.73-16.41-47.77-24.28-2.66-1.3-5.33-2.57-7.96-3.93-1.01-.52-1.35-.55-1.48,.79-1.79,19.27-.21,38.27,5.69,56.67,16.21,50.5,49.66,84.38,100.34,99.97,40.81,12.56,80.29,7.31,117.37-13.81,25.16-14.34,44.16-34.85,57.63-60.47,.62-1.19,1.29-1.58,2.6-1.64,8.17-.38,15.98-2.36,23.51-5.52,.4,.69-.12,1.21-.33,1.7-22.17,52.2-60.25,86.47-115.08,101.61-23,6.35-46.41,7.27-69.95,3.57-65.02-10.22-118.36-57.31-136.75-120.61C.33,195.47-1.57,172.63,1.3,149.48,5.69,114.02,19.91,82.92,43.78,56.36,69.05,28.22,100.46,10.72,137.48,3.19c.53-.11,1.08-.12,1.62-.17,1.68-.35,.59,.73,.68,1.26,.74-.64,1.2-1.68,2.32-1.86l1.09-.1c.13,.32,.04,.63-.19,.81-2.01,1.66-2.4,3.87-2.23,6.3,.03,.47-.01,.96-.25,1.39-1.37,.75-1.09-.75-1.62-1.19-.13,.53-.56,.89-.96,1.75,.91-.82,1.5,1.18,2.27-.28,1.03-.24,1.27,.74,1.77,1.23,.98,.96,1.83,1.12,3,.23,2.31-1.76,4.17-3.86,5.44-6.46,.63-1.29,1.28-2.67-.02-4.01-.21-.22-.18-.56,.07-.82C158.68,.09,166.95-.14,175.24,.07c24.26,.63,47.32,6.29,69.19,16.78,.75,.36,1.37,.7,2.34,.27,13.03-5.71,26.03-4.92,38.85,.64,12.42,5.38,21.74,14.46,29.32,25.45,10.53,15.26,17.93,31.85,20.86,50.25,2.69,16.88,1.21,33.26-6.62,48.74-2.59,5.13-5.82,9.84-9.76,14.18-1.81-12.99-10.26-21.4-19.52-29.14-10.97-9.17-23.43-15.99-36.3-22.04-9.21-4.33-18.2-8.99-26.1-15.49-6.92-5.69-12.75-12.23-15.64-20.91-3.08-9.26-1.91-18.09,2.9-26.53,.56-.99,.96-1.07,1.91-.47,11.61,7.21,22.87,14.92,33.83,23.08,.34,.25,.71,.48,.73,.97-.14,.52-.63,.72-.98,1.03-1.79,1.57-2.45,3.39-1.38,5.65,.15,.31,.38,.7,.04,1-.37,.33-.83,.15-1.19-.04-1.41-.73-2.75-.78-4.09,.18-1.34,.97-1.82,2.48-1.26,4.18,.49,1.49,2.25,2.82,3.68,2.77,1.54-.05,3.39-1.43,3.72-2.78,.07-.3,.16-.63-.18-.79-.34-.15-.57,.12-.74,.37-.54,.76-1.19,1.37-2.07,1.7-.47,.18-.98,.22-1.36-.17-.43-.45-.16-.92,.15-1.3,1.05-1.33,2.43-2.35,3.4-3.76,.34-.48,.88-.2,1.34-.06,3.37,1.06,5.14,.02,5.82-3.42,.06-.32,0-.78,.59-.61,3.43,2.53,6.73,5.25,9.96,8.03,9.96,8.58,19.48,17.59,27.08,28.42,.73,1.04,1.41,2.1,2.12,3.16,.81,.57,1.08,1.51,1.55,2.27-.32-.9-1.14-1.63-1.12-2.71-7.48-16.85-17.92-31.66-30.97-44.66-.43-.42-.82-.88-1.22-1.32q2.37-1.38,.32-3.44c-.76-.76-1.52-1.54-2.3-2.29-.37-.36-.71-.89-1.37-.5-.55,.32-.69,.74-.43,1.36,.18,.42,.28,.98-.54,.89-3.37-2.72-6.66-5.54-10.13-8.13-19.06-14.23-40.26-23.61-63.75-27.53-37.82-6.3-73.06,.76-105.61,21.04-8.13,5.07-15.57,11.04-22.57,17.58-.9,.84-.84,1.26,0,2.07,18.11,17.31,36.69,34.06,56.64,49.25,6.01,4.58,12.25,8.82,18.61,12.91,9.45,6.07,19.72,9.54,30.76,11.63,30.86,5.85,61.48,12.79,91.44,22.37,8.16,2.61,16.05,6.02,24.36,8.2,8.74,2.3,17.57,3.44,26.56,1.88,9.74-1.69,18.04-6.33,25.47-12.68,4.72-4.03,8.85-8.62,12.84-13.36,.34-.11,.65-.33,.97-.41,1.59-.39,2.01-1.39,1.62-2.87l.26-.37c.6-.37,1.02-.04,1.42,.37,1.85,1.9,3.91,3.58,5.73,5.51,.41,.44,.86,1.28,1.61,.77,.74-.5-.01-1.05-.25-1.55-.56-1.15,.19-1.39,1.07-1.46,1.55-.13,3.12,.17,4.65-.31,3.38,4.55,4.46,9.79,3.98,15.27-1.15,13.24-7.13,23.76-18.26,31.22-.15,.1-.29,.24-.46,.29-4.17,1.21-6.12,4.33-8.12,8.02-6.49,12.02-17.16,19.02-29.88,23.17-6.55,2.14-13.27,2.87-20.2,2.45-12.96-.78-25.87,.06-38.7,2.01-15.16,2.29-29.97,5.9-44.12,11.9-9.75,4.13-18.91,9.14-25.94,17.41-2.79,3.28-6.25,5.88-9.89,8.18-6.9,4.37-14.3,7.29-22.57,7.57-11.63,.39-20.49-4.66-27.13-13.95-3.1-4.35-5.39-9.15-7.41-14.07-2.68-6.51-5.32-13.05-7.97-19.58,1.87-1.63,3.66-3.29,3.88-6.02,.09-1.08-.41-2.1-.32-3.07-.3,.21-.43,1.11-1.19,.82-.64-.25-.4-.93-.35-1.45,.09-1.02-.46-1.54-1.3-1.92-1.63-.75-3.25-.74-4.91-.12-.6,.23-1.15,.71-1.87,.48Z"/><path class="d" d="M266.73,69.82c-.11,2.41-.99,4.18-3.54,4.91-1.12,.32-2,.1-2.91-.43-.56-.32-.79-.39-1.28,.35-.78,1.19-1.98,2.1-2.99,3.13-.24,.25-.66,.52-.42,.9,.27,.42,.78,.32,1.13,.09,.69-.45,1.46-.83,1.8-1.7,.23-.6,.69-1.06,1.41-.7,.8,.39,.61,1.11,.36,1.73-.89,2.19-3.67,3.59-5.6,2.85-2.13-.81-3.59-3.83-2.88-5.98,.55-1.66,3.46-2.98,5.13-2.3,.56,.22,1.09,.51,2,.94-1.07-1.62-1.38-3.15-.87-4.62,.51-1.48,1.69-2.51,3.16-3.13,2.15,.88,3.76,2.5,5.49,3.97Z"/><path class="d" d="M140.28,11.05c.17-2.3-.52-4.7,1-6.85,.55-.77,1.5-1.03,1.89-1.89,2.39-.59,4.81-.91,7.27-1.05-.24,1.12,1.55,1.11,1.21,2.54-.59,2.44-1.84,4.44-3.38,6.3-.96,1.16-2.16,2.09-3.34,3.04-1.06,.85-1.93,.85-2.84-.11-.62-.66-1.22-1.33-1.82-2h0Z"/><path class="d" d="M371.52,143.95c-1.19,1.39-2.78,.47-4.17,.71-.45,.08-1.07-.23-1.33,.27-.29,.55,.33,.84,.65,1.14,.69,.64,.43,1.09-.11,1.65-.64,.67-1.09,.47-1.65-.09-2.2-2.21-4.42-4.41-6.65-6.58-.24-.23-.64-.29-.96-.43,.49-.68,.97-1.37,1.46-2.05,2.08-2.9,2.09-2.91,5.27-1.18,2.99,1.62,5.68,3.6,7.5,6.57Z"/><path class="d" d="M108.79,212.54c1.82-1.19,3.73-1.86,5.93-1.17,2.7,.86,2.78,.95,2.61,3.9,.64,.02,.52-.75,1.07-.98,.48,.81,.78,1.67,.83,2.63,.16,3.1-1.69,6.03-4.37,6.9-2.02-3.76-4.04-7.52-6.06-11.28Z"/><path class="d" d="M269.8,59.03c.29-.16,.55-.47,.27-.71-1.23-1.04,0-1.42,.49-1.99,.86-.98,1.24,.05,1.68,.47,1.06,.99,2.11,2,3.07,3.08,.51,.58,1.68,.92,1.25,1.95-.41,.99-1.4,1.25-2.44,1.18-1.44-1.33-2.88-2.65-4.32-3.98Z"/><path class="d" d="M357.03,140.98c.61,.56,1.09,1.24,.6,2.02-.72,1.14-1.95,1.28-3.19,1.26,.86-1.09,1.73-2.19,2.59-3.28Z"/><path class="d" d="M142.09,2.41l-2.81,3.08c-.46-.73-.1-1.29,.22-1.81,.35-.58-.11-.55-.41-.66,.96-.42,1.99-.47,3-.61Z"/><path class="d" d="M306.31,108.99c.72,.95,1.03,2.07,1.35,3.19-.86-.77-1.31-1.77-1.78-2.76l.43-.44Z"/><path class="d" d="M136.7,195.58c-1.58-2.42-1.38-4.35,.37-6.16,.84-.88,1.92-1.14,2.94-1.1,1.21,.05,2.43,.7,2.94,1.84,.43,.96-.82,1.31-1.29,1.94-.36,.48-.87,.84-1.26,1.3-.26,.32-1,.57-.43,1.13,.44,.43,1.02,.31,1.49-.07,.48-.38,.89-.82,1.12-1.4,.3-.75,.89-1.06,1.59-.73,.8,.38,.49,1.13,.26,1.73-.86,2.22-3.84,3.49-6,2.48-.83-.39-1.18-.5-1.76,.45-.64,1.06-1.73,1.83-2.61,2.75-.26,.28-.8,.56-.4,1.02,.29,.34,.83,.25,1.2,.1,.76-.31,1.25-.94,1.57-1.68,.33-.76,.95-1,1.62-.67,.75,.38,.34,1.03,.11,1.57-1.02,2.45-3.51,3.66-5.7,2.75-2.47-1.02-3.62-3.43-2.72-5.68,.9-2.26,3.64-3.23,5.77-2.06,.24,.13,.51,.21,1.19,.49Z"/><path class="d" d="M322.87,176.97c.3,0,.6-.02,.9,0,3.35,.25,4.33,1.93,2.87,4.9-1.47,2.98-3.64,5.35-6.32,7.27-.83,.59-1.62,.68-2.41-.13-2.06-2.08-2.66-5.18-1.48-7.98,.97-2.31,3.82-4.41,6.45-4.07Z"/><path class="d" d="M25.35,123.23c.93-.17,1.87,.22,2.77,.75,1.35,.8,1.71,1.8,1.05,3.35-1.48,3.44-3.69,6.16-6.88,8.15-.86,.54-1.54,.47-2.11-.11-1.15-1.17-2.19-2.58-2.21-4.23-.07-4.31,2.29-7.83,7.39-7.91Z"/><path class="d" d="M361.07,151.58c-.05,1.74-.55,3.07-1.8,3.65-1.62,.76-1.02,1.35-.18,2.18,.55,.54,1.52,.99,.72,2.05-.52,.69-.99,.97-1.73,.21-2.28-2.33-4.6-4.61-6.9-6.92-.29-.3-.75-.7-.23-1.03,1.44-.89,1.95-2.56,3.21-3.58,1.42-1.16,2.88-.98,4.35-.16,1.53,.85,2.28,2.23,2.57,3.6Z"/><path class="d" d="M58.54,93.83c2.17,.02,3.93,1.49,4.63,3.78,.41,1.34-.37,3.26-1.99,4.1-1.11,.58-.75,.98-.21,1.6,.43,.49,1.11,.82,1.19,1.55,.07,.62-.45,.97-.87,1.3-.58,.46-1.04,0-1.4-.37-2.13-2.2-4.24-4.42-6.35-6.64-.3-.32-.97-.74-.34-1.14,1.38-.88,1.89-2.47,3.09-3.48,.68-.58,1.49-.77,2.26-.69Z"/><path class="d" d="M150.81,186.28c.18,1.34-.34,2.61-1.63,3.22-1.35,.64-.84,1.14-.18,1.82,.42,.43,1.01,.83,1.16,1.35,.18,.64-.61,.95-1.02,1.35-.47,.46-.76-.06-1.03-.33-2.27-2.25-4.52-4.52-6.79-6.77-.46-.45-.73-.91-.06-1.3,1.01-.59,1.47-1.56,2.11-2.45,1.09-1.5,2.82-1.91,4.53-1.29,2.09,.76,2.91,1.96,2.9,4.39Z"/><path class="d" d="M67.68,83.82c.28,1.11,.51,2.13,.14,3.22-.4,1.16,.1,1.79,1.31,1.7,1.4-.1,2.68,.44,4.22,.45-.7,1.02-1.27,1.81-2.49,1.75-.95-.04-1.9,0-2.86,0-.06,.72,.43,.97,.77,1.25,.84,.7,.61,1.22-.06,1.92-.67,.7-1.08,.65-1.73-.02-2.27-2.34-4.59-4.64-6.91-6.93-.61-.6-.88-1.06-.12-1.78,.72-.68,1.26-.72,1.99-.02,1.22,1.17,2.51,2.25,3.78,3.38,.68-1.39-.9-3.94,1.97-4.91Z"/><path class="d" d="M153.47,177.07c.59-1.8-.37-3.39,.92-4.57,.34-.31,.62-.91,1.13-.77,.61,.16,.27,.82,.38,1.25,.27,1.14-.91,2.42-.12,3.3,.77,.86,2.19,.12,3.29,.39,.64,.16,1.26,.38,2.08,.3-.76,1.92-2.23,1.93-3.74,1.82-1.3-.09-1.76,.25-.8,1.41,.51,.62,.71,1.16-.07,1.8-.78,.64-1.28,.32-1.85-.25-2.25-2.27-4.5-4.54-6.79-6.77-.65-.63-.78-1.11-.05-1.78,.65-.59,1.2-.76,1.85-.07,1.19,1.25,2.39,2.49,3.78,3.93Z"/><path class="d" d="M277.9,49.35c0,1.26,.1,2.39-.02,3.5-.17,1.52,.51,1.91,1.88,1.78,.84-.08,1.69-.03,2.54,0,.28,.01,.67,.06,.8,.24,.28,.38-.17,.61-.35,.9-.81,1.25-2.07,1-3.27,1.03-.46,.01-1.07-.24-1.33,.26-.28,.55,.34,.84,.66,1.14,.7,.65,.41,1.11-.14,1.65-.54,.55-.97,.56-1.52,0-2.34-2.37-4.69-4.71-7.05-7.06-.55-.55-.73-1.08-.11-1.71,.7-.71,1.26-.44,1.84,.16,.88,.91,1.79,1.8,2.69,2.69,.25,.24,.48,.63,.89,.46,.42-.17,.33-.63,.29-.96-.2-1.77,.29-3.17,2.19-4.11Z"/><path class="d" d="M343.94,168.99c-1.8-.01-3.55-1.24-4.13-2.9-.71-2.02-.37-3.51,1.07-4.7,1.62-1.34,3.07-1.45,4.84-.44,1.22,.7,1.57,1.44,.37,2.5-.77,.68-1.47,1.44-2.18,2.17-.24,.24-.63,.49-.3,.89,.26,.31,.62,.27,1,.16,.98-.29,1.33-1.19,1.83-1.91,.37-.53,.69-1.08,1.42-.67,.65,.37,.57,1.05,.42,1.63-.45,1.7-2.58,3.28-4.33,3.27Z"/><path class="d" d="M46.06,115.25c-2.16,0-4.35-1.89-4.53-3.93-.17-1.9,1.77-4.38,3.74-4.75,1.59-.3,2.64,.58,3.58,1.68,.45,.54,.05,.88-.29,1.23-.76,.78-1.55,1.53-2.3,2.32-.25,.27-.82,.52-.35,1.02,.35,.37,.76,.18,1.17,.02,.61-.25,.96-.71,1.2-1.29,.35-.87,1.03-1.31,1.86-.92,.99,.47,.29,1.29,.08,1.89-.53,1.49-2.5,2.73-4.15,2.73Z"/><path class="d" d="M52.41,109.08c-1.95,0-4.36-1.94-4.7-3.8-.31-1.71,1.29-4.16,3.14-4.82,1.22-.43,3.42,.46,4.15,1.59,.37,.58,.09,.89-.26,1.24-.77,.77-1.55,1.53-2.3,2.31-.26,.27-.83,.55-.4,1.01,.42,.44,1.04,.43,1.46-.01,.45-.47,.78-1.06,1.13-1.62,.44-.7,1.11-.79,1.74-.5,.64,.31,.32,.91,.16,1.43-.56,1.85-2.26,3.17-4.13,3.16Z"/><path class="d" d="M349.95,162.82c-1.34,0-3.64-1.64-4.09-2.9-.7-1.97-.14-3.66,1.73-5.24,1.43-1.21,2.9-.45,4.27,0,1.16,.38,1.28,1.67,.42,2.57-.58,.61-1.21,1.19-1.79,1.8-.35,.37-.95,.76-.3,1.33,.54,.47,1.03,.14,1.41-.29,.35-.4,.71-.84,.93-1.32,.37-.79,.83-1.18,1.68-.7,.92,.52,.24,1.16,.02,1.65-.91,2.03-2.46,3.11-4.27,3.1Z"/><path class="d" d="M31.76,119.49c.57-.87,0-1.36-.44-1.96-1.22-1.63-.82-3.48,.86-4.5,.69-.42,1.19-.27,1.77,.25,.82,.72,.08,.95-.31,1.34-.53,.54-.7,1.18-.15,1.76,.58,.61,1.11,.18,1.53-.29,.5-.55,.91-.89,1.6-.15,.66,.7,.41,1.17-.17,1.64-.96,.78-.71,1.42,.22,1.95,.92,.52,1.51,1.38,2.28,2.05,.76,.67,.95,1.27,.14,2.12-.84,.88-1.33,.37-1.91-.24-.67-.7-1.35-1.38-2.05-2.05-.57-.54-.93-1.27-2.08-.62-.89,.5-1.23-.51-1.29-1.3Z"/><path class="d" d="M329.48,172.92c.51-.81,.19-1.31-.29-1.86-1.16-1.34-.7-3.59,.84-4.42,.74-.4,1.23,0,1.75,.48,.75,.68,0,.87-.34,1.19-.59,.56-.64,1.1-.04,1.7,.66,.66,1.04,.13,1.5-.27,.4-.35,.74-1.11,1.4-.2,.43,.6,.78,1.11,.02,1.67-.92,.67-.62,1.21,.08,1.84,.9,.81,1.7,1.72,2.58,2.54,.55,.52,.86,.92,.13,1.59-.6,.55-1.12,.97-1.83,.3-.93-.86-1.8-1.78-2.72-2.66-.36-.35-.62-.82-1.36-.52-1.43,.58-1.44-.61-1.73-1.39Z"/><path class="d" d="M126.14,212.09c-.5-.05-.73-.43-1.03-.72-.78-.76-1.53-1.53-2.31-2.3-.55-.55-1.06-1.26-1.97-.51-.5,.41-.76-.07-1.04-.34-.25-.24-.63-.57-.22-.89,.92-.73,.22-1.17-.18-1.75-1.34-1.97-1.1-3.74,.57-4.66,.65-.36,1.21-.45,1.77,.18,.53,.59,.16,.97-.24,1.37-.5,.5-.6,1.01-.07,1.57,.61,.64,1.13,.19,1.55-.2,.52-.49,.88-.68,1.48-.06,.64,.66,.52,1.12-.1,1.64-.65,.55-.87,.95,0,1.66,1.01,.82,1.78,1.94,2.66,2.92,.28,.31,.67,.63,.33,1.08-.32,.42-.64,.88-1.2,1.01Z"/><path class="d" d="M243.35,86.38c-1.04,.01-2.06-.07-1.32-1.52,.31-.6,0-.86-.3-1.25-1.37-1.74-1.23-3.24,.39-4.68,.44-.39,.78-.76,1.33-.15,.42,.47,.9,.88,.24,1.5-.6,.56-.89,1.14-.17,1.84,.77,.75,1.17,.02,1.62-.4,.42-.39,.78-.75,1.38-.23,.62,.54,.49,1.17,.04,1.58-1.13,1.02-.55,1.68,.3,2.42,.72,.64,1.35,1.39,2.07,2.03,.84,.75,.71,1.37-.04,2.12-.93,.92-1.44,.16-1.87-.44-.95-1.33-1.94-2.53-3.66-2.83Z"/><path class="d" d="M328.28,179.93c2.53,5.58-1.74,10.58-6.38,10.48-.35,0-.75,.08-.98-.29-.2-.31-.06-.56,.21-.77,3.14-2.38,5.77-5.17,7.16-9.42Z"/><path class="d" d="M31.35,129.85c0,3.65-3.88,7.19-7.33,6.82-.35-.04-.77,.04-.91-.4-.15-.45,.22-.63,.52-.83,2.98-2.03,5.07-4.75,6.3-8.14,.11-.29,.24-.61,.6-.52,.18,.05,.39,.33,.42,.52,.11,.89,.6,1.73,.41,2.55Z"/><path class="d" d="M152.42,4.63c2.5,3.2-.23,8.07-2.75,9.13-1.15,.48-2.28,1.15-3.63,.92-.29-.05-.65,.06-.81-.25-.23-.42,.14-.68,.39-.9,1.47-1.33,3.04-2.52,4.23-4.17,1.05-1.46,1.72-3.1,2.58-4.72Z"/><path class="d" d="M250.18,76.68c.58-.03,1.18,1.5,.63,2.03-1.47,1.41-.56,2.29,.49,3.24,.58,.53,1.08,1.14,1.67,1.65,.7,.6,.98,1.08,.13,1.86-.72,.67-1.19,.81-1.92,.03-1.31-1.41-2.71-2.74-4.07-4.1-.21-.21-.45-.43-.55-.69-.13-.32,3.23-3.98,3.62-4Z"/><path class="d" d="M340.04,174.11c-.37-.3-.68-.48-.91-.74-1.24-1.37-2.4-2.82-3.92-3.92-.23-.17-.44-.43-.55-.7-.23-.61,2.71-4.24,3.32-4.04,.8,.25,1.23,1.04,.69,1.68-1.37,1.61-.4,2.59,.71,3.63,.57,.54,1.11,1.1,1.66,1.66,.37,.38,.55,.83,.18,1.29-.33,.4-.75,.73-1.18,1.14Z"/><path class="d" d="M128.7,200.25c-1.73,2.28,.14,3.59,1.74,5,.22,.19,.32,.52,.54,.71,.69,.6,.48,1.07-.08,1.65-.63,.65-1.08,.52-1.65-.07-1.39-1.43-2.81-2.83-4.23-4.24-.04-.04-.08-.09-.13-.13-.47-.39-.58-.88-.01-1.16,1.45-.72,1.51-2.99,3.42-3.09,.47-.02,.3,.69,.39,1.33Z"/><path class="d" d="M40.9,112.2c.02,.08,.06,.17,.04,.2-2.02,2.63,.35,3.8,1.75,5.29,.56,.6,1.38,1.05,.38,2.04-1.01,1-1.46,.14-2.03-.42-1.21-1.18-2.4-2.39-3.6-3.59-.21-.21-.43-.42-.63-.65-.44-.5,0-.89,.31-1.02,1.49-.61,1.4-2.93,3.24-3.03,.6-.03,.32,.81,.53,1.18Z"/><path class="d" d="M149.07,178.14c.15,.1,.35,.23,.54,.36,1.7,1.18,3.08,2.71,4.52,4.17,.75,.76,.36,1.32-.22,1.99-.75,.87-1.19,.16-1.61-.24-1.45-1.37-2.83-2.81-4.25-4.22-.39-.39-.54-.76-.22-1.28,.28-.45,.66-.68,1.23-.8Z"/><path class="d" d="M61.09,90.16c.83,.7,1.68,1.28,2.35,2.02,.94,1.03,1.8,2.11,2.98,2.88,.52,.34,.78,.91,.08,1.28-.52,.28-.83,1.48-1.74,.57-1.55-1.53-3.08-3.08-4.62-4.62-.32-.32-.57-.67-.18-1.09,.32-.34,.69-.65,1.12-1.04Z"/><path class="d" d="M364.6,149.36c-.14,.61-.61,.92-1.02,1.26-.31,.25-.71,.29-.97-.06-1.29-1.76-3.1-3.02-4.53-4.66-.43-.5-.6-.85-.03-1.34,.47-.4,.96-.93,1.55-.37,1.62,1.54,3.18,3.14,4.76,4.72,.12,.12,.16,.31,.23,.45Z"/><path class="d" d="M20.58,123.17c-.81,1.44-2.1,2.4-2.62,3.91-.13,.38-.48,.61-.85,.38-.37-.23-.31-.66-.05-.94,.79-.85,.34-1.34-.41-1.84-.35-.23-.65-.6-.3-1.06,.19-.25,.59-.48,.78-.29,1.2,1.25,2.26,.51,3.45-.15Z"/><path class="d" d="M269.9,54.5c-.05,1.05-.52,1.64-1.55,1.63-.87-.01-1.55-.52-1.61-1.32-.07-.95,.65-1.53,1.58-1.61,.92-.08,1.41,.5,1.58,1.3Z"/><path class="d" d="M314.93,180.92c.27-1.07,.68-2.02-.52-2.74-.29-.18-.27-.71,.03-.96,.19-.16,.73-.25,.8-.15,.83,1.15,1.58,.55,2.35-.04,.26-.2,.54-.32,.75,.02,.07,.12,.07,.43,0,.47-1.42,.83-1.99,2.47-3.42,3.4Z"/><path class="d" d="M314.76,184.08c.57,1.21,.63,2.52,1.33,3.59,.16,.24,.33,.56-.01,.79-.28,.19-.57,.06-.81-.14-.31-.26-.43-.75-.93-.78-1.79-.11-2.41-.5-.42-1.62,.62-.35-.01-1.33,.85-1.83Z"/><path class="d" d="M140.28,11.04c.05,.35,.09,.71,.17,1.06,.06,.24,.14,.5-.11,.63-.3,.16-.58,.05-.76-.25-.06-.1-.14-.2-.18-.31-.38-1.11-1.3-.15-1.8-.46-1.37-.85,.03-1.06,.44-1.36,.73-.53,.16-1.4,.68-2.02,1.16,.54,.36,2.24,1.56,2.72h0Z"/><path class="d" d="M145,176.58c-.06-.92,.5-1.4,1.29-1.33,.8,.07,1.52,.66,1.45,1.52-.06,.8-.63,1.38-1.61,1.3-.96-.08-1.16-.68-1.13-1.48Z"/><path class="d" d="M113.72,210.38c-.52,0-.88,.02-1.24,0-.45-.03-1.09,.16-1.14-.53-.04-.6,.54-.5,.94-.56,.06,0,.12-.02,.18-.02,.97,0,.17-1.81,1.34-1.41,.63,.21,.11,1.46,1.01,1.75,.41,.13,.91,.28,.62,.83-.22,.42-.64,.06-.97,.02-.3-.04-.6-.05-.74-.06Z"/><path class="d" d="M58.55,87.65c.63,.08,1.3,.26,1.23,1.14-.07,.86-.45,1.48-1.49,1.41-.92-.06-1.36-.68-1.36-1.4,0-.86,.74-1.14,1.62-1.15Z"/><path class="d" d="M17.82,135.07c-.66-.7-.89-2.08-2.29-1.38-.17,.09-.45-.14-.45-.43,0-.27,.12-.45,.38-.52,.39-.11,.82-.09,.96-.64,.12-.47-.53-1.32,.25-1.37,.84-.05,.59,1.01,.76,1.55,.27,.84,1.44,1.63,.38,2.79Z"/></g></g></g></svg>