<?xml version="1.0" encoding="utf-8"?>
<!-- Generator: Adobe Illustrator 26.2.1, SVG Export Plug-In . SVG Version: 6.00 Build 0)  -->
<svg version="1.1" id="Capa_1" xmlns="http://www.w3.org/2000/svg" xmlns:xlink="http://www.w3.org/1999/xlink" x="0px" y="0px"
	 viewBox="0 0 585.5 581.7" style="enable-background:new 0 0 585.5 581.7;" xml:space="preserve">
<style type="text/css">
	.st0{fill:#35063A;}
</style>
<g id="Capa_2_00000009563621198485176130000016541450167179370885_">
	<g id="Capa_1-2">
		<path class="st0" d="M107,329.8c32,0,63.9,0,95.9,0c9.7,0,13,4.5,10,13.7c-7.1,21.5-9.3,43.2-1.6,65.1
			c14.3,40.7,56.5,65.4,98.2,57.6c44.5-8.3,74.2-45.9,72.5-91.6c-0.4-11-2.1-21.9-5.2-32.4c-2.2-7.7,1.3-12.4,9.4-12.4
			c63.1,0,126.2,0,189.2,0c6.3,0,10.2,3.3,10.2,8.5s-3.8,8.5-10.1,8.5c-57.9,0-115.8,0-173.8,0c-6,0-5.9,0-4.9,6
			c6,34.6,0.9,66.6-22.2,94.4c-37.2,44.3-103.3,50.2-147.6,13c-25.5-21.4-39.3-53.6-37.3-86.8c0.4-7.3,1.5-14.6,3.4-21.7
			c1.2-4.3-0.1-5-4-5c-57.8,0.1-115.5,0.1-173.3,0.1c-2,0-4,0-6,0c-6-0.2-9.7-3.4-9.7-8.5s3.7-8.5,9.6-8.5c12.5-0.1,25,0,37.5,0
			L107,329.8z"/>
		<path class="st0" d="M150,415.5c-10.3-0.5-19.2,3.9-27.2,10.6c-8.7,7.3-17.6,14.3-29.1,16.8c-17.5,3.8-33.7,1.4-48.3-9.5
			c-3.5-2.6-6.8-5.4-10.1-8.1c-7.4-6.1-15.7-9.8-25.5-9.9c-6.3,0-10-3.6-9.7-8.9c0.2-5.1,3.9-8,10-8.1c14-0.1,25.9,5.3,36.5,14
			c3.3,2.8,6.7,5.5,10.2,8c14.1,9.8,32.9,9.6,46.7-0.6c4.6-3.3,8.8-7.1,13.3-10.5c11.3-8.5,24.1-11.7,38-10.8c5.6,0.4,9.1,3.7,9,8.6
			s-3.9,8.3-9.8,8.3C152.8,415.5,151.6,415.5,150,415.5z"/>
		<path class="st0" d="M505.3,444.5c-12.4,0.1-24.5-4-34.3-11.8c-2.6-2-5.2-4.1-7.8-6.3c-8.4-7.2-17.8-11.7-29.1-11.1
			c-3.6,0.4-7.1-1.6-8.6-4.8c-1.4-2.7-1.1-6.1,0.7-8.5c2-2.9,4.9-3.6,8.3-3.7c12.8-0.4,25.3,3.8,35.3,11.7c4.1,3.2,8,6.5,12.2,9.6
			c14.4,10.7,34.1,10.6,48.3-0.2c5.1-3.8,9.8-8,15-11.6c9-6.4,19.9-9.7,31-9.4c5.4,0.1,8.9,3.1,9.2,7.9c0.4,4.5-2.9,8.5-7.4,8.9
			c-0.4,0-0.8,0-1.2,0c-12-0.1-21.4,5.2-30,12.8c-6.3,5.5-13,10.4-21,13.2C519.3,443.5,512.3,444.6,505.3,444.5z"/>
		<path class="st0" d="M80.8,581.7c-6.2,0-12.3,0.1-18.4,0c-5.5-0.1-9.2-3.6-9.2-8.3c0-4.9,3.5-8.5,9-8.6c12.4-0.2,24.9-0.2,37.3,0
			c5.5,0.1,9.2,3.6,9.2,8.4c0,5-3.7,8.5-9.6,8.5C93.1,581.7,86.9,581.7,80.8,581.7z"/>
		<path class="st0" d="M504.3,581.7c-6.1,0-12.3,0.1-18.4,0c-5.4-0.1-9.2-3.7-9.1-8.5s3.7-8.4,9.1-8.5c12.3-0.1,24.6-0.1,36.8,0
			c5.9,0,9.6,3.5,9.6,8.5s-3.7,8.3-9.6,8.4C516.5,581.8,510.4,581.7,504.3,581.7L504.3,581.7z"/>
		<path class="st0" d="M239.7,513.1c-6.1,0-12.3,0.1-18.4,0c-5.6-0.1-9.2-3.6-9.3-8.4s3.6-8.4,9.1-8.5c12.5-0.1,24.9-0.1,37.3,0
			c5.6,0,9.1,3.5,9.2,8.4s-3.5,8.4-9,8.6C252.3,513.3,246,513.2,239.7,513.1L239.7,513.1z"/>
		<path class="st0" d="M186.3,581.7c-6,0-12,0.1-18,0c-5.7-0.1-9.2-3.3-9.4-8.2c-0.1-5.1,3.5-8.7,9.4-8.7c12.2-0.1,24.3-0.1,36.5,0
			c5.8,0,9.7,3.7,9.7,8.5s-3.9,8.4-9.7,8.5C198.6,581.7,192.4,581.7,186.3,581.7z"/>
		<path class="st0" d="M345.7,496.1c6.1,0,12.3-0.1,18.4,0c5.6,0.1,9.2,3.5,9.4,8.2s-3.7,8.6-9.4,8.7c-12.3,0.1-24.6,0.1-36.8,0
			c-5.5-0.1-9.2-3.6-9.3-8.3c-0.1-5,3.6-8.5,9.4-8.6C333.4,496,339.5,496.1,345.7,496.1z"/>
		<path class="st0" d="M134.5,496.2c6,0,12-0.1,18,0c5.7,0.1,9.2,3.3,9.4,8.2c0.1,5.1-3.5,8.7-9.4,8.7c-12.2,0.1-24.3,0.1-36.4,0
			c-6,0-9.7-3.5-9.7-8.5s3.7-8.4,9.7-8.5C122.2,496,128.4,496.1,134.5,496.2L134.5,496.2z"/>
		<path class="st0" d="M451.2,513.2c-6,0-11.9,0.1-17.9,0s-9.6-3.4-9.7-8.5s3.6-8.5,9.5-8.5c12.3-0.1,24.5-0.1,36.8,0
			c5.6,0.1,9.1,3.5,9.2,8.4s-3.6,8.4-9.1,8.5C463.8,513.3,457.5,513.1,451.2,513.2L451.2,513.2z"/>
		<path class="st0" d="M292.5,581.7c-6.2,0-12.3,0.1-18.5,0c-5.6-0.1-9.2-3.4-9.3-8.3s3.4-8.6,8.9-8.6c12.5-0.2,25-0.2,37.5,0
			c5.5,0.1,9.1,3.7,9.1,8.6s-3.6,8.3-9.2,8.4C304.8,581.8,298.6,581.7,292.5,581.7z"/>
		<path class="st0" d="M28,496.1c6,0,11.9-0.1,17.9,0s9.7,3.5,9.6,8.5s-3.8,8.5-9.7,8.5c-12.1,0.1-24.2,0.1-36.3,0
			c-6-0.1-9.6-3.4-9.6-8.5s3.6-8.3,9.6-8.4S21.9,496.1,28,496.1z"/>
		<path class="st0" d="M558,496.1c6,0,11.9-0.1,17.9,0s9.5,3.4,9.5,8.5s-3.7,8.4-9.7,8.4c-12.1,0.1-24.2,0.1-36.3,0
			c-5.9-0.1-9.5-3.5-9.5-8.6s3.8-8.3,9.7-8.4C545.8,496,551.9,496.1,558,496.1L558,496.1z"/>
		<path class="st0" d="M398,581.7c-6.2,0-12.3,0.1-18.5,0c-5.5-0.1-9.1-3.6-9-8.5c0-4.7,3.4-8.3,8.7-8.4c12.7-0.2,25.3-0.2,37.9,0
			c5.5,0.1,8.9,3.8,8.8,8.8c-0.1,4.8-3.5,8-8.9,8.1C410.6,581.8,404.3,581.7,398,581.7z"/>
		<path class="st0" d="M242.8,20.4c2.7-0.1,4.7,0.5,6.1,1.9c3.4,3.1,6.7,6.4,9.8,9.9c2.9,3.3,2.7,8.3-0.5,11.3
			c-3,3.2-8,3.4-11.3,0.5c-3.5-3.1-6.8-6.3-9.9-9.8c-2.2-2.4-2.7-6-1.1-8.8C237.1,22.5,239.7,20.6,242.8,20.4z"/>
		<path class="st0" d="M300.3,76.8c-0.2,6.9-7.1,11.1-12.5,7.6c-4.7-3.1-8.8-7.1-11.9-11.8c-2.1-3.2-1.5-6.8,1-9.7s6.2-4,9.5-2.1
			c5.4,3.3,9.9,7.8,13.3,13.2C300,74.8,300.2,75.8,300.3,76.8z"/>
		<path class="st0" d="M260.6,67.2c0.1,3.3-0.6,5.2-2,6.7c-3.1,3.4-6.4,6.7-9.9,9.8c-3.6,2.9-8.9,2.4-11.8-1.2
			c-2.6-3.2-2.5-7.8,0.2-10.8c3.1-3.5,6.4-6.8,9.9-9.8c2.4-2.2,6-2.6,8.9-1C258.9,62.4,260.6,64.9,260.6,67.2z"/>
		<path class="st0" d="M300.3,28.8c0.1,2.2-0.7,4.3-2.3,5.9c-3,3.1-5.9,6.3-9.2,9.1c-3.3,3.1-8.5,2.9-11.7-0.3
			c-3.1-3-3.3-8-0.4-11.3c3.1-3.5,6.4-6.7,9.8-9.8c2.6-2.3,5.7-2.5,8.8-1.1S300.1,25.4,300.3,28.8z"/>
		<path class="st0" d="M431.3,247c-3.9,0-6.5-1.7-8-4.8s-1.3-6.3,1-8.9c3.1-3.5,6.4-6.7,10-9.7c3.1-2.6,6.8-2.5,10.1,0
			s4.5,6.3,2.6,9.7c-3.1,5.5-7.8,9.8-13.3,13.1C433,246.8,432.1,247,431.3,247z"/>
		<path class="st0" d="M392.7,284.8c-6.9-0.2-11-7-7.5-12.5c3.1-4.8,7.2-8.8,12-11.7c3.3-2,6.9-1.2,9.6,1.5c2.5,2.5,3.7,5.9,1.8,9.1
			c-3.3,5.4-7.9,9.8-13.3,13C394.4,284.6,393.6,284.8,392.7,284.8z"/>
		<path class="st0" d="M447.4,276.6c-0.3,3.5-1.7,6-4.6,7.5c-3,1.6-6.3,1.7-8.9-0.6c-3.8-3.3-7.2-6.8-10.4-10.7
			c-2.3-3-2-6.6,0.5-9.7s6.2-4.6,9.7-2.5c5.4,3.2,9.9,7.8,13,13.3C447.1,274.9,447.3,275.8,447.4,276.6z"/>
		<path class="st0" d="M392.7,221.6c2-0.2,4,0.5,5.5,1.8c3.3,3,6.4,6.2,9.4,9.6c3,3.6,2.5,8.9-1.1,11.8c-3.2,2.7-8,2.6-11-0.3
			c-3.2-2.9-6.2-6-9-9.2c-2.2-2.4-2.7-5.9-1.2-8.8C386.5,223.5,389.4,221.5,392.7,221.6z"/>
		<path class="st0" d="M144.4,186.9c-2.3,0.2-4.7,0.2-7,0c-4.2-0.5-7.3-4-7.3-8.2c-0.1-4.1,2.9-8,7.1-8.4c4.8-0.4,9.6-0.5,14.4-0.1
			c4.1,0.4,7.1,4.5,7.1,8.4c-0.1,4.2-3.2,7.7-7.3,8.2C149,187,146.7,187,144.4,186.9z"/>
		<path class="st0" d="M197.8,170.1c2.2-0.1,4.3-0.1,6.5,0c4.3,0.5,7.6,4.2,7.5,8.6c0,4.2-3.2,7.7-7.4,8.1c-4.5,0.4-9,0.4-13.4,0.1
			c-4.4-0.3-7.8-3.9-7.7-8.3c0.1-4.5,3.6-8.2,8.1-8.5C193.5,169.9,195.6,170,197.8,170.1L197.8,170.1z"/>
		<path class="st0" d="M162.6,152.2c-0.1-2.3-0.1-4.6,0-6.9c0.4-4.2,3.8-7.4,8-7.4c4.5-0.1,8.2,2.7,8.6,7.3
			c0.4,4.6,0.3,9.3-0.1,13.9c-0.4,4.6-4.2,7.3-8.7,7.1c-4.2-0.1-7.6-3.3-7.9-7.5C162.5,156.5,162.5,154.3,162.6,152.2z"/>
		<path class="st0" d="M162.6,205c-0.1-2.2-0.1-4.3,0-6.5c0.3-4.6,4.4-8.1,9-7.7c4,0.3,7.3,3.5,7.7,7.5c0.4,4.5,0.4,9,0,13.4
			c-0.3,4.4-4.1,7.7-8.4,7.4c-4.5-0.1-7.7-3-8.2-7.7C162.5,209.3,162.5,207.2,162.6,205z"/>
		<path class="st0" d="M479.9,66.1c0-2.3,0.2-4.5,0.5-6.7c0.8-4.3,3.7-6.7,8-6.8s7.4,2.1,8.3,6.4c0.9,4.7,1,9.6,0.1,14.3
			c-0.7,4.2-3.6,6.7-8,6.8c-4.6,0.1-7.5-2.4-8.5-6.8C480,70.8,479.9,68.5,479.9,66.1z"/>
		<path class="st0" d="M497,115.2c0.1,2.1,0.1,4.3,0,6.4c-0.4,4.3-4.1,7.6-8.5,7.5c-4.4,0.1-8-3.3-8.3-7.6c-0.3-4-0.3-7.9,0-11.9
			c0.2-4.5,3.9-8.1,8.5-8c4.4,0,7.9,3.3,8.4,8.2C497.2,111.5,497,113.4,497,115.2L497,115.2z"/>
		<path class="st0" d="M513.2,99.3c-2,0-4,0.2-6,0c-4.7-0.5-7.7-3.7-7.9-8.1c-0.3-4.5,3.1-8.5,7.6-8.8c0,0,0,0,0.1,0
			c3.8-0.3,7.6-0.3,11.4-0.1c5.2,0.3,8.4,3.8,8.3,8.7s-3.3,8-8.7,8.3C516.5,99.3,514.8,99.3,513.2,99.3z"/>
		<path class="st0" d="M463.7,99.2c-2,0.1-4,0.1-6,0c-4.5-0.6-7.1-3.3-7.5-7.9c-0.5-4.3,2.6-8.3,7-8.8c0,0,0,0,0,0
			c4.4-0.4,8.9-0.4,13.4,0c4.3,0.5,7.5,4.4,7,8.8c-0.4,4.6-3,7.3-7.5,7.9C468,99.4,465.9,99.4,463.7,99.2z"/>
		<path class="st0" d="M425.4,2.6c-3.1-3.3-7.8-3.5-12.2-0.4c-1,0.7-1.9,1.4-2.8,2.1c-20.1,15.8-37.6,34.5-52,55.5
			C309.9,129.4,280.9,207,266.1,290c-2.3,12.7-6.3,24.3-13.4,35.1c-9.2,13.8-15.1,29.4-17.5,45.8c-5.4,36,22.4,68.4,60.9,68.5
			c8.1-0.2,16.1-2.2,23.5-5.7c25-12,37.4-37,33.6-66.9c-2-15.1-7.3-29.5-15.7-42.2c-8.2-12.4-12.5-27-12.5-41.9
			c-0.2-17.8,0.8-35.6,3.1-53.3c8.2-60.2,30.1-115.3,62-166.6c10.4-16.9,22-32.9,34.8-48.1C428.4,10.5,428.5,6,425.4,2.6z
			 M332.7,141c-16.1,44-24.6,89.3-24.9,136.3c-0.1,20.8,4.3,39.8,15.8,57.3c8.8,13.3,13.4,28.9,13.2,44.8c-0.2,25-21,44.7-45.8,42.9
			s-42.6-24.5-38.9-49.2c2.3-14.5,7.7-28.4,16-40.5c7.4-10.9,12.3-23.4,14.2-36.4c6.2-41.9,18.6-82.1,34-121.3
			c4.7-12.1,10.2-23.8,15.3-35.8C333.5,139,333.4,139.8,332.7,141z"/>
		<path class="st0" d="M332.7,141l-1-1.9c1.1-4.3,3.4-8,5.9-11.7C336.5,132.1,335.3,136.8,332.7,141z"/>
	</g>
</g>
</svg>
