<?xml version="1.0" encoding="utf-8"?>
<!-- Generator: Adobe Illustrator 26.2.1, SVG Export Plug-In . SVG Version: 6.00 Build 0)  -->
<svg version="1.1" id="Capa_1" xmlns="http://www.w3.org/2000/svg" xmlns:xlink="http://www.w3.org/1999/xlink" x="0px" y="0px"
	 viewBox="0 0 498.8 498.5" style="enable-background:new 0 0 498.8 498.5;" xml:space="preserve">
<style type="text/css">
	.st0{fill:#35063A;}
</style>
<g id="Capa_2_00000111167085233087252390000007256129619690254994_">
	<g id="Capa_1-2">
		<path class="st0" d="M392.5,237.6c-4.2-5.6-7.3-11.7-7.4-18.9c-0.3-0.6-0.4-1.3-0.4-2c1.7-10,3.5-20,11-27.8
			c2.9-3.1,4.9-6.6,3.2-11.2c-3.7-9.1-10.2-11-17.7-4.9c-3.8,3.1-7.5,6.4-12.9,7.8c1.4-12.9,0.6-25.4-0.8-37.9
			c-0.2-6.1-0.2-12.2-4.9-17c-5.8-12.8-14.7-23-24.9-32.5c-5.4-5.1-9.3-11.8-14-18c9.9-0.3,18,2.6,25.7,9c2.9,2.4,5.6,5.3,9.8,5.1
			c3.7,0,7.1-2.2,8.7-5.6c1.8-3.5,1.3-7.7-1.2-10.7c-3.8-4.8-8.4-9.2-9.6-15.6c-0.7-6.3-0.6-12.7-1.9-18.9
			c0.6-8.1,4.8-14.4,9.8-20.4c4.7-5.7,5.1-11.1,1.1-15.2c-4.1-4.2-9.6-3.8-15.6,1.1l-1.2,1c-11.4,9.3-24,11.9-38.1,7
			c-5.2-1.6-9.8-4.5-13.4-8.5c-0.6-0.2-1.3-0.4-1.8-0.7c-5.7-4-10-3.8-14.3,0.9c-3.5,3.7-3.2,8.9,0.8,13.8c0.2,1.8,1.5,3,2.5,4.4
			c4.1,5.6,6.7,12.1,7.6,19c-6.9-5.3-12.2-11.5-19.9-14.6C258.5,17,243.7,8.8,227.3,3.6l-18.6-3.5c-12.3-0.3-24.5,0-36.6,2.2
			c-20.2,3.8-39.4,10.5-51.7,27.7c-7.6,10.6-17.1,17.8-27.2,25.1c-5.5,4-10.7,6.5-17.4,5.3c-3.3-0.2-5.2,2.3-7.4,4.1
			c-9.3,7.1-19.9,9.2-31.3,8.6c-0.8-0.1-1.7-0.2-2.5-0.4c-7-1.8-12.4-6.3-18.1-10.5c-6.7-5-15.4-1-16,7c-0.3,3.9,2,6.8,4.4,9.5
			c4.4,5.1,7.9,10.8,8.8,17.7c0,0.2,0,0.3,0,0.5c0.3,11.4-1.3,22.2-9,31.4c-2.5,3-5.1,6-4.6,10.4c0.6,7,4.4,10.2,12.4,10.3
			c3.1-0.9,5.3-3.1,7.7-5c4.5-3.6,9.2-6.6,15.7-7.5c-4.2,11.9-6.1,24.4-5.6,37c0.7,2,0.2,4,0.1,6.1c-0.2,5.6,0,11.3,3.8,16.1
			c3.3,8.1,5.2,15.9,2.5,25.2c-4.2,14.4-2.9,29.4-0.2,44.1c-0.2,5.7,1.5,11.3,4.9,15.9c7.2,16.3,17.2,30.7,29.2,43.8
			c2.8,4.1,6,7.9,10.6,10.2c1.2,0.4,1.4,1.5,1.6,2.5c4.5,17,12.2,32.5,21,47.5c1.8,4.9,4.2,9.2,8.7,12.2c6,6.9,11.8,13.9,18.5,20.1
			c1.3,1.2,2,2.8,1.9,4.6c0,9.1,0.7,18.3-0.1,27.4c-1.9,4.8-2.5,10-3.2,15.1c-1,6.3-4.9,11.3-6.7,17.2c-1.8,2.5-4.1,5.2-3.1,8.2
			c1.2,3.6,3.2,7.3,7.6,8.4c3.9,1.2,8.1-0.1,10.7-3.3c3.2-3.6,5.8-7.7,7.6-12.2c5.8-13.6,7.3-28,7.2-42.5c0-4.6,1.1-5.1,5-2.9
			c23.2,13.2,47.4,14.8,72.5,5.7c5.3,0.1,9.3-3.6,14.1-5.4c0.9,5.5,1.4,10.8,2.5,15.9c1.1,7.7,1.9,15.4,4.5,22.7
			c3.1,8.7,6.1,17.7,15.4,22.2c8.2,1.9,13.4-2,12.6-9.6c-0.4-2.9-1.7-5.7-3.6-7.9c-2.9-3.6-5-7.9-6.1-12.4
			c-3.6-13.5-4.2-27.2-2.9-41c0.7-0.6,1.1-1.4,1.1-2.3c-0.6-5.3,2.5-8.6,6-11.9c9.4-9.1,17.6-19.5,24.3-30.8c2.7-4.5,6.2-8.8,7-14.2
			c-0.2-2,1.2-3.5,2-5.1c6.8-13.9,11.6-28.4,11.9-44c0-3.6,1.5-7,4.2-9.4c16.4-16.2,28.1-36.6,33.9-58.9c1.6-6.2,1.6-6.2,7.9-4.4
			c6.8,2,12.3,6,17.6,10.5c3.8,3.4,9.6,3.2,13.2-0.5c3.6-3.5,4-8.8,0.8-13.1C395.4,241,393.9,239.4,392.5,237.6z M314.4,34.1
			c1.8-1.6,6.5,0.3,9.9,0.4s7.1-0.3,10.7-0.5c-0.2,3.6-0.4,7.1-0.5,10.7c0,1.2,0,2.4,0.1,3.6c0.4,7.1,0.4,7.1-6.8,6.7l-3.1-0.2v0.3
			c-3.6,0-8.4,1.4-10.4-0.4c-2.2-2,0.2-6.7,0.2-10.3S311.9,36.3,314.4,34.1z M37.1,115.2c-2.2,0.4-3.3,0.2-2.8-2.4
			c1-5.4,1-11,0-16.4c-0.4-2.4,0.3-3,2.7-2.7c5.3,0.8,10.7,0.8,15.9,0c2.4-0.4,3.7,0.1,3,2.5c-1.1,5.4-1.1,10.9,0,16.2
			c0.5,2.7-0.3,3.3-2.9,2.8C47.7,114.1,42.3,114.1,37.1,115.2z M57,263c-2-5.3-3-11-2.8-16.7c-0.4-4.3-0.4-8.6,0-12.9
			c0.6-10.4,4.1-17.5,14.6-22.7c24.7-12.2,45-29.9,58.8-54.4c1.7-3.1,3-6.3,1.8-9.9c-1.1-3.8-4.4-6.5-8.3-6.8
			c-4.4-0.5-7.7,1.6-9.9,5.3c-4.8,8.6-10.7,16.5-17.6,23.6c-10.7,10.5-22.9,18.9-36,26c-1.8,1-2.8,1.1-3.2-1.1
			c-0.8-4.4-2.9-8.5-2.7-13.1c-0.1-0.6-0.3-1.2-0.4-1.8c-2.6-13-1-26.5,4.5-38.6c1.1-2.4,2-3.1,4.6-1.9c4,1.7,7.6,4.1,10.8,7
			c2.7,2.6,5.7,4.1,9.3,4.1h0.1c0.5,0,0.9,0,1.3-0.1c3.6-1,6.4-3.8,7.5-7.4c0.1-0.7,0.2-1.4,0.2-2.1c-0.1-5.6-5-9-7.5-13.5
			c-4.9-6.8-6.7-14.5-6.5-22.8c0-1.4,0.4-2.7,1.2-3.8c9.4-13.5,21.4-24.9,35.3-33.5c2-1.3,2.8-0.9,3.8,1c2.8,5.5,5.8,10.9,8.8,16.3
			l9.3,11.7c6.6,6.3,13.1,12.8,20.9,17.6c2,1.2,1.8,2.4,1.1,4.3c-3.4,9.6-3.8,19.6-3.2,29.6c0.1,0.2,0.1,0.5,0.2,0.7
			c1.6,5.8,3.3,11.5,4.9,17.3c5,7.2,9.5,14.8,17,20.4c-50.3,27-74,72.9-90.8,124.8C71.5,295.7,61.2,281.2,57,263z M287.9,357.8
			c-13.5,25.9-31.1,48.1-57.2,62.3c-16.6,9.1-34.1,11.3-52.2,4.2c-4.8-1.4-9.3-3.6-13.4-6.4c-15.8-9-28.3-21.6-38.6-36.4
			c-3.1-3.5-5.8-7.4-7.9-11.5c-8.5-12.6-14.4-26.8-17.5-41.6c-0.8-4.1,1.4-8,2.4-12c0.9-3.3,2.2-6.5,3.3-9.7
			c3.4-12.4,8.3-24.4,14.5-35.6c15.5-31.8,37.1-57.6,70.5-71.8c1.1-0.5,2.3-0.7,3.4-0.4c5.3,2,10.3,4.7,14.8,8.1
			c14.9,8.1,27.9,18.7,40.3,30.1c4.2,3.4,8.1,7.3,11.6,11.4c12.4,12.3,23.5,25.6,31,41.6c3.5,5.4,6,11.1,6,17.7
			C301,325.6,296,342.1,287.9,357.8L287.9,357.8z M315.2,288.7c-2.6-5.3-5.2-10.3-7.7-15.4c-9.2-14.1-19.6-27.4-31.2-39.7
			l-11.6-11.2c-12.8-11.2-26.3-21.6-40.5-31l-12.4-7.3c-14.1-6.3-27.4-13.7-34.8-28.2c-1-2-1.7-4.1-2.6-6.1
			c-0.1-0.4-0.3-0.8-0.4-1.2c-2.7-8.4-1.7-16.7,0.6-25.1c0.5-1.9,1.7-2.3,3.5-1.7c5.8,2,11.9,3.2,17.4,6
			c16.8,5.5,32.8,13.2,47.5,23.1c4.6,2.5,8.8,5.6,12.6,9.2c13.6,10.4,24.8,22.8,32,38.5c1.1,1.9,2.1,3.9,3.3,5.8
			c2.3,3.9,5.9,5,10.2,4.9c5.9-1.6,8.4-5.8,8.4-11.7c-2.2-4.5-4.3-8.9-6.5-13.4c-8.7-14.9-20-27.5-33-38.7l-11.8-9
			c-15-9.8-31-18.1-47.6-24.8l-14.4-5.5c-18.7-3.6-35.6-10.4-47.7-26.1c-3.7-3.6-6.8-7.7-9.2-12.3c-3.6-4.7-5.6-10.2-8-15.5
			c-1.2-2.6,0.1-4.3,1.3-6.1c9.1-13.2,22.6-19.2,37.5-22.8c5.1-1.2,10.2-2.8,15.6-2.4c7.4-1.3,15-1.5,22.5-0.4
			c0.9,0.1,1.8,0.3,2.6,0.5c14.1,1.6,26.7,7.4,38.8,14.5c3.4,2,6.5,4.4,9.8,6.6c4.2,2.6,8.1,5.6,11.7,9c5.5,3.7,9.9,8.6,14.8,12.9
			c1.8,1.5,1.5,2.6,0.1,4.2c-1.6,1.8-3.2,3.7-4.5,5.6c-3,3.9-2.5,9.4,1,12.7c3.6,3.6,8.4,4,12.7,1c0.7-0.5,1.4-1.1,2-1.6
			c5.5-4.4,5.5-4.4,10,1.7c3.6,3.8,7.1,7.6,9.3,12.3c7,9,17.1,15.3,23,25.4c2.8,4.7,5.5,9.5,6.2,15c0.2,0.5,0.3,1.1,0.5,1.6
			c3.5,12.8,3.5,25.8,1.8,38.9c-0.4,2.7-1.7,2.5-3.5,2c-6.2-1.6-11.9-4.7-16.6-9.1c-2.6-2.4-5.4-4.2-9.1-4.3
			c-7,2.1-8.8,4.2-9.4,11.6c1.1,4.7,5.6,7.2,7.3,11.4c10,11.3,9.8,32-0.4,44.9c-1,1.2-2,2.4-3,3.6c-3.1,3.6-4.8,7.7-2.3,12.3
			c2.3,4.3,6,6.1,10.9,5.4c5.4-2,8.7-7.2,14.8-9.4C332.4,263.7,325,277.1,315.2,288.7L315.2,288.7z M364.7,224.9
			c-3.6-0.2-7.2-0.5-10.8-0.5c-3.4,0-6.7,0.2-10.1,0.3v-10.2h0.1v-10.7c3.6,0.1,7.1,0.3,10.7,0.3s6.8-0.2,10.2-0.3
			c-0.1,3.4-0.3,6.8-0.3,10.1C364.4,217.5,364.6,221.2,364.7,224.9L364.7,224.9z"/>
		<path class="st0" d="M391.7,397.9L391.7,397.9L391.7,397.9C391.7,397.9,391.7,397.9,391.7,397.9z M391.7,398
			c0.6,0.9,1.9,0.5,2.8,0.5c11.4,0,22.8,0.1,34.2,0c4.5,0,8.9,0.6,13.4-0.5L391.7,398z M391.7,398c0.6,0.9,1.9,0.5,2.8,0.5
			c11.4,0,22.8,0.1,34.2,0c4.5,0,8.9,0.6,13.4-0.5L391.7,398z M391.6,398h0.1C391.7,397.9,391.7,397.9,391.6,398L391.6,398z
			 M498.8,431.6c0.4-13.6-5.3-23.6-17-30.2c-2.2-3-5.5-3.1-8.7-3.8s-6.4,0.9-9.5,0.3c0.5-7.7,1.3-15.3,0.2-23
			c-1.9-13.2-7.8-24.7-14.1-36.1c-1.2-4.7-4.2-8.8-8.3-11.4c-1.2-1.2-2.4-2.4-3.5-3.7c-4.2-4.7-8.2-5.9-12.8-3.8
			c-5.3,2.5-6.4,6.8-5.5,12.1c3.7,19.9-6,27.7-23.7,26.9c-19.8-0.8-36.5,14.7-37.3,34.5c0,0,0,0,0,0c-0.2,5-1.9,5.4-6,5.4
			c-18-0.1-28.5,8-32.8,25.2c-0.7,2.6-0.2,5.1-0.3,7.7c-0.2,6.5,0.6,13.1-0.4,19.6c-1.1,7.2-1.5,14.4,0.7,21.5
			c3.8,16.4,14.4,25.5,31.1,25.6c38.9,0.2,77.9,0.2,116.8,0c19.1-0.1,31-12.8,31.2-32C498.8,454.8,498.5,443.2,498.8,431.6z
			 M378.2,393.8c1.7-9.3,8.1-14.8,18-15.1c4.3-0.2,8.6-0.2,12.9-0.2c11.9-2.9,21.8-8.5,27.9-21.1c7.1,13.6,9.5,26.6,5.1,40.7
			c-1,1.5-2.5,0.8-3.8,0.8c-18.6,0-37.2-0.1-55.8,0.1C378.4,398.9,377.6,397.5,378.2,393.8z M478.8,468c-0.1,6.3-3.7,10.2-10,10.2
			c-21.2,0.1-42.5-0.1-63.7-0.2c-6.6,0.5-13.1,0.5-19.7,0c-11.9,0.1-23.9,0.4-35.8,0.2c-6.3-0.1-9.9-3.9-10-10.2
			c-0.2-6.7,0.1-13.5,0.2-20.2c-0.1-6.5-0.3-13.1-0.1-19.6c0.2-5.6,3.9-9.3,9.6-9.5c6.5-0.2,13.1,0,19.6,0.1h93.5
			c2.2-0.1,4.5-0.3,6.7-0.1c5.9,0.3,9.8,4,9.9,9.9C478.9,441.7,478.9,454.9,478.8,468z M447.1,438.5c-0.9,0-1.7-0.1-2.6-0.2h-19.8
			c-17.8,0.1-35.5,0.1-53.3,0.2c-7.1,0-11.3,3.2-12,8.9c-0.7,5.3,2.7,9.3,9.2,11.1h81c6.3-1.8,9.6-5.7,9.1-10.7
			C458.3,442.1,454.1,438.8,447.1,438.5L447.1,438.5z M394.6,398.5c11.4,0,22.8,0.1,34.2,0c4.5,0,8.9,0.6,13.4-0.5h-50.4
			C392.4,398.9,393.6,398.5,394.6,398.5L394.6,398.5z M391.6,398h0.1C391.7,397.9,391.7,397.9,391.6,398L391.6,398z"/>
		<path class="st0" d="M51.4,178.4c0.1,0.6,0.2,1.2,0.4,1.8C51.6,179.7,51.5,179.1,51.4,178.4z"/>
		<path class="st0" d="M82,148.9c-0.4,0.1-0.9,0.1-1.3,0.1C81.1,148.9,81.5,148.9,82,148.9z"/>
		<path class="st0" d="M89.7,139.3c0,0.7-0.1,1.4-0.2,2.1C89.5,140.7,89.5,140,89.7,139.3z"/>
		<path class="st0" d="M211,20.9c-0.9-0.2-1.8-0.3-2.6-0.5C209.3,20.4,210.2,20.6,211,20.9z"/>
		<path class="st0" d="M346.3,141.9c-0.1-0.5-0.3-1.1-0.5-1.6C346.1,140.8,346.3,141.4,346.3,141.9z"/>
		<path class="st0" d="M174.4,149.8c-0.2-0.4-0.3-0.8-0.4-1.2C174.1,149,174.3,149.4,174.4,149.8z"/>
		<path class="st0" d="M425.4,438.3l-0.2,0.2c-0.5,0.4-1,0.7-1.5,1c-14.6,1-29.3,0.2-44,0.4c-2.6,0-5.2-0.1-7.8,0
			c-6.1,0.2-9.8,2.7-10.6,7.2s1.5,7.4,7.2,9.8c0.4,0.1,0.9,0.3,1.3,0.4c4.7,1.1,9.4,0.3,14.1,0.4s9.3,0,14,0.1c1-0.1,2.1,0.1,3,0.5
			h-32.3c-6.5-1.8-9.9-5.8-9.2-11.1c0.7-5.6,4.9-8.9,12-8.9c17.8-0.1,35.6-0.1,53.3-0.2L425.4,438.3z"/>
		<path class="st0" d="M449.7,458.5h-27.5c2-1,4.5-0.5,6.8-0.6c4.8-0.1,9.6,0,14.4,0c1.8,0.1,3.5,0,5.3-0.4l0.3-0.1
			c6.4-2,9.2-5.7,8.1-10.5c-0.6-3.5-3.4-6.2-6.9-6.8c-1.8-0.4-3.8-0.1-5.5-1.1c-0.1-0.2-0.2-0.4-0.3-0.6c0,0,0,0,0,0h0.1
			c0.9,0.1,1.7,0.1,2.6,0.2c7,0.3,11.2,3.6,11.8,9.2C459.3,452.7,456,456.6,449.7,458.5z"/>
		<path class="st0" d="M449.7,458.5h-81c0.3-0.4,0.8-0.8,1.2-1.1c1.6-1,3.6-0.8,5.5-0.8c22.5-0.1,45.1-0.1,67.7,0
			c1.9,0,4-0.2,5.6,0.9C449.1,457.8,449.4,458.1,449.7,458.5z"/>
		<path class="st0" d="M444.5,438.3l-0.1,0c-6.1,2.8-13.1,2.8-19.2,0.1l-0.5-0.2L444.5,438.3L444.5,438.3z"/>
		<path class="st0" d="M449.7,458.5h-81c-6.5-1.8-9.9-5.8-9.2-11.1c0.7-5.6,4.9-8.9,12-8.9c17.8-0.1,35.6-0.1,53.3-0.2h19.7
			c0.9,0.1,1.7,0.1,2.6,0.2c7,0.3,11.2,3.6,11.8,9.2C459.3,452.7,456,456.6,449.7,458.5z"/>
	</g>
</g>
</svg>
