<?xml version="1.0" encoding="UTF-8"?><svg xmlns="http://www.w3.org/2000/svg" viewBox="0 0 383.29 383.24"><defs><style>.d{fill:#35063a;}</style></defs><g id="a"/><g id="b"><g id="c"><path class="d" d="M361.96,100.49c-11.11,11.97-23.01,23.2-34.51,34.81-.93,.95-1.36,2.39-1.72,3.04-6.15-6.17-11.29-11.32-16.86-16.9,.74-.58,1.91-1.34,2.87-2.3,11.85-11.8,23.63-23.65,35.49-35.43,2.71-2.69,4.47-5.71,4.2-9.59-.32-4.65-2.64-8.04-7-9.74-4.66-1.82-8.84-.75-12.35,2.75-12.19,12.15-24.35,24.34-36.52,36.51-.94,.93-1.91,1.81-2.54,2.41-5.43-5.38-10.55-10.45-15.83-15.69,.79-.83,1.69-1.84,2.64-2.79,11.9-11.92,23.83-23.81,35.71-35.74,5.29-5.31,5.58-12.27,.8-16.89-4.71-4.55-11.43-4.16-16.64,1.04-10.61,10.57-21.2,21.14-31.75,31.77-2.28,2.29-4.34,4.79-6.19,6.84-5.71-5.71-10.88-10.9-16.24-16.27,6.54-6.53,13.34-13.3,20.12-20.09,6.35-6.35,12.82-12.59,19.01-19.09,6.26-6.58,3.25-16.81-5.41-18.83-4.58-1.07-8.21,.75-11.42,3.97-20.26,20.32-40.57,40.59-60.85,60.89-15.49,15.5-15.46,35.39,.06,50.93,7.31,7.31,14.63,14.61,21.99,21.95-.45,.57-.71,1-1.05,1.35-20.64,20.64-41.27,41.29-61.95,61.89-.79,.79-2.09,1.45-3.18,1.48-5.48,.15-10.98,.2-16.46,.02-6.11-.21-10.84-5.23-10.84-11.17s4.71-10.88,10.83-11.2c2.11-.12,4.24,.05,6.36-.07,6.17-.36,10.71-5.21,10.67-11.29-.04-6.07-4.64-10.84-10.86-11.09-3.36-.14-6.74-.17-10.1-.01-9.69,.43-19.61-.19-29.02,1.7-39.64,7.96-57.67,51.42-35.9,85.42,.47,.75,.84,1.57,1.42,2.68-7.25,0-13.98-.02-20.71,0-8,.03-12.44,4.53-12.53,12.53-.19,17.08,2.13,33.81,7.06,50.16,.7,2.3,.53,3.82-1.29,5.56-5.86,5.61-11.52,11.42-17.25,17.16-9.97,9.97-19.96,19.91-29.89,29.91-6.83,6.87-5.44,15.18,3.16,19.47,.3,.15,.53,.46,.79,.69h5.99c2.95-2.4,6.13-4.57,8.83-7.23,12.34-12.17,24.56-24.47,36.82-36.72,.86-.86,1.77-1.67,2.86-2.69,.67,1.18,1.25,2.11,1.76,3.08,7.25,13.9,16.17,26.63,27.13,37.85,2.12,2.17,4.77,3.82,7.18,5.71H239.58c2.74-2.25,5.79-4.23,8.19-6.81,24.57-26.35,39.09-57.48,43.5-93.22,.97-7.77,1.21-15.65,1.39-23.49,.17-7.27-4.64-11.87-11.91-11.96-3.74-.04-7.47,0-11.25,0-10.74-36.5-37.01-48.01-72.35-44.61,16.36-16.35,32.27-32.25,48.76-48.74,3.67,3.85,7.73,8.17,11.87,12.42,3.39,3.49,6.84,6.91,10.31,10.33,14.41,14.2,34.72,14.28,49.09,.07,12.5-12.37,24.89-24.85,37.33-37.29,7.41-7.41,14.89-14.74,22.18-22.27,2.46-2.54,4.42-5.58,6.6-8.39v-5.24c-4.16-10.99-14.8-10.58-21.33-3.55Zm-91.96,169.93c-1.2,21.83-6.64,42.32-17.37,61.07-5.41,9.46-12.33,18.07-18.81,26.89-.96,1.31-3.27,2.3-4.96,2.31-39.79,.12-79.58,.11-119.37,.02-1.52,0-3.5-.72-4.47-1.81-22.23-25.01-34.33-54.28-36.57-87.65-.01-.21,.14-.44,.27-.83h201.28Zm-56.02-45.06c13.96,.12,24.13,6.81,30.54,19.2,.44,.85,.7,1.79,1.17,3.01-1.03,.08-1.72,.18-2.41,.18-39.51,0-79.02,.07-118.53-.03-19.69-.05-34.6-15.46-34.1-34.87,.35-13.61,9.97-26.13,22.99-29.93,0,4.79-.63,9.68,.11,14.35,2.61,16.33,16.3,27.89,32.93,27.99,22.43,.14,44.87-.11,67.3,.1Zm85.65-62.54c-4.82,4-10.83,3.29-15.76-1.62-13.16-13.12-26.28-26.28-39.42-39.42-7.32-7.32-14.65-14.63-21.96-21.95-6.15-6.15-6.09-12.29,.06-18.53,2.09-2.12,4.01-4.41,5.98-6.61,26.94,26.95,53.2,53.22,79.72,79.75-2.75,2.7-5.49,5.78-8.62,8.38Z"/></g></g></svg>