<?xml version="1.0" encoding="utf-8"?>
<!-- Generator: Adobe Illustrator 26.2.1, SVG Export Plug-In . SVG Version: 6.00 Build 0)  -->
<svg version="1.1" id="Capa_1" xmlns="http://www.w3.org/2000/svg" xmlns:xlink="http://www.w3.org/1999/xlink" x="0px" y="0px"
	 viewBox="0 0 376.5 425.9" style="enable-background:new 0 0 376.5 425.9;" xml:space="preserve">
<style type="text/css">
	.st0{fill:#35063A;}
</style>
<g id="Capa_2_00000122714755898595400750000002094802162360565647_">
	<g id="Capa_1-2">
		<path class="st0" d="M179,180c0.1-7.5-1.2-15-3.9-22c-2.1-6.9-5-13.4-8.7-19.6c-8.8-14.3-20.2-25.8-35.5-33
			c-3.9-1.8-5.3-4.3-5.2-8.5c0.3-6.4,0-12.9,0.1-19.4c0.1-2.5,0.1-5-0.1-7.4c-0.7-7.2-5.6-12.3-13-13.4c-4.3,0-8.6-0.1-12.9,0
			c-3.4,0.1-4.8-1.5-4.8-4.8c0-6,0-11.9,0-17.9s0.3-6.3,6.6-6.4c8.8-0.1,17.6,0.2,26.4-0.4c5-2.9,5.4-5,1.7-9.3
			c-3.8-2-7.9-1.1-11.9-1.3c-18-0.3-36-0.1-54.1-0.1c-1.8,0-3.7,0.1-5.1,1.4h-20c-1.1-0.4-2.4-0.1-3.2,0.6
			C28.5,23.6,22,28.9,15.7,34.5c-1.2,1.1-2,2.6-2.1,4.3c0.3,3.5,2.3,4.9,5.6,5c2.9-0.6,5.1-2.4,7.3-4.2c3.8-3,7.6-6,11.3-9
			c2.1-1.9,4.9-2.9,7.7-3c11.3,0,22.6,0,33.9,0c3,0,4.7,1,4.7,4.3c-0.1,6.8,0,13.6,0,20.4c0,2.9-1.3,4.3-4.2,4.3c-3.3,0-6.7,0-10,0
			c-11,0.1-16.6,5.6-16.8,16.6c-0.1,7.8-0.2,15.6,0,23.4c0.1,4.2-1.2,7-5.2,8.6c-3.2,1.5-6.2,3.2-9,5.3
			c-10.6,7.6-19.6,17.2-26.4,28.4c-4.1,6.1-6.4,13.1-9,20c-2.3,7.1-3.5,14.5-3.6,22c0.1,25.7-0.1,51.5,0.1,77.2
			C0,278.1,0,298,0.1,318c-0.2,31.2-0.2,62.4,0,93.6c0,2.1-0.2,4.4,1.3,6.2c-0.1,4.4,2.1,6.1,6.4,5.9c3.6-0.2,7.2,0.1,10.8,0.1h60
			c6.5,2.3,13.5,2.3,20,0h20c6.5,2.4,13.5,2.4,20,0c1.6,0,3.3-0.1,4.9-0.1c4,0,6.2-1.6,5.9-5.9c-0.4-2.2-2.1-3-4.1-3.4
			c-16-0.8-31.9,0-47.8-0.1c-19.1-0.2-38.2,0-57.3,0c-7.3,0-14.6,0.2-21.9-0.1c-6-0.3-6.9-1.3-7-7.2c0-3.1,0.1-6.3-0.1-9.5
			c0.2-20,0.2-39.9,0-59.9c0.2-33.2,0.2-66.5,0-99.7c0.2-18,0.1-35.9,0-53.9c0.3-24.6,10.2-44.6,28.9-60.4
			c10.4-8.9,21.9-14.3,36-12.4c3.9,0.5,8,0,11.9,0.1c10.3,0.2,20.6-0.6,30.9,0.4c5.1,1.2,9.3,4.2,13.6,6.9
			c23.9,16.6,35.7,39.5,35.6,68.6c-0.1,23.6-0.1,47.2,0,70.8c0.1,3,0.9,5.6,4.1,6.5c2.9,0.8,5-0.6,6.2-3.3c0.3-1,0.4-1.9,0.4-3
			C179,232.3,178.9,206.1,179,180z M113,102.1c-4.8-0.1-9.7-0.1-14.5-0.2c-10.5,0-21,0-31.4,0.1c-2.3,0-3.5-0.4-3.8-3.2
			c-1.1-9.5,0-19,0.2-28.4c0.1-3.4,2.5-4.3,5.5-4.3c9.8,0.1,19.6,0.1,29.5,0.1c3.8,0,7.7,0,11.5-0.2c4.2-0.2,6.2,2.2,6.3,6
			c0.2,9,0,18,0.1,26.9C116.4,101.6,115.2,102.2,113,102.1z"/>
		<path class="st0" d="M374.6,408.1c-4.3-9.6-8.3-19.4-12.4-29.1c0-2.9-1.2-5.5-2.4-8c-5-11.1-9.7-22.2-14.4-33.5
			c-5.8-13.4-11.8-26.7-17.4-40.2c-8.2-19.7-17.4-39.1-25.4-58.9c-0.5-2,0.5-3.6,1.2-5.2c2.6-5.7,5-11.6,7.6-17.3
			c3.8-8,7.7-15.8,8.3-24.9c1-15.6-7.6-27.9-13.8-41c-1.3-2.7-4-3.4-6.9-2.2c-3.2,1.4-5,0.1-6.3-2.8c-0.7-1.7-1.6-3.3-2.4-4.9
			c-3.3-7.4-6.7-14.8-10.1-22.2c-1.9-5.2-4.6-10-7-14.9c-2.2-4.6-4.9-5.5-9.8-3.8c-4.2,1.5-8.1,3.9-12.3,5.6c-3.9,1.6-7,3.7-7.9,8.2
			c-0.5,2.5-2,3.3-4.4,2c-3-2.2-6.1-2.1-9.3-0.3c-6.3,3.4-12.9,6.1-19.4,9c-2.5,1.1-4.9,2.2-5.7,5.1c-0.3,1-0.7,1.9-2,1.4
			c-5.5-2.4-9.5,1.6-13.8,3.6s-4.9,4.7-2.9,9.1c2.4,5.3,4.6,10.6,7.3,15.8c3.7,8.9,7.9,17.5,11.9,26.1c1.4,3,2,5.6-1.9,7.3
			c-1.7,0.7-2.9,2.4-2.9,4.3c1.2,8.2,6.2,14.8,8.9,22.4c5.2,11.3,15,19.9,26.8,23.6c8.8,2.9,17.6,5.8,26.6,8
			c4.8,1.2,8.2,3.4,9.7,8.1c7,13.1,13.5,26.5,20.1,39.9c6.8,13,12.9,26.3,19.9,39.2c7.2,13.5,13.9,27.3,20.7,41
			c6.4,12.8,12.9,25.5,19.2,38.4c1.8,3.1,3,6.7,6.9,8c5.1,1.7,10.1,2.1,14.2-2.4S376.9,413.1,374.6,408.1z M196.8,143.7
			c-0.4-1-1.4-2.1-0.2-3.1c1.1-1.1,2.8-1.2,4.1-0.4c2.4,1.5,4.8,2.9,5.8,5.9c0.8,2.3,2.1,4.5,3.1,6.8c1.2,2.6,2.1,5.8,5.9,4.5
			c4.1-1.3,2.9-4.5,1.9-7.4c-1.8-4.6-5.6-8.5-4.3-14.3c0.5-2.2,1.4-3.5,3.3-4.4c4.5-2.1,9.1-4,13.4-6.4c3.2-1.7,5.9-1.6,8.5,0.8
			c6.4,1.6,6.8,7.6,8.9,12.3c1.7,3.4,3.5,6.7,4.9,10.1c1.2,2.7,2.9,4.3,6,4c3.2-2,3.1-4.7,1.6-7.7c-2.7-5.7-5.3-11.4-8-17.1
			c-0.9-1.6-1.2-3.4-0.9-5.2c1.5-7.5,4.7-10.8,12.4-12.6c1.8-0.4,2.4,0.4,3,1.7l2.9,6.8c3.5,6.5,6.6,13.1,9.2,20
			c2.2,4.6,4.4,9.3,6.8,13.8c1.2,2.4,0.5,3.4-1.8,4.4c-15.1,6.8-30.2,13.7-45.3,20.6l-3,1.2c-5.2,2.5-10.5,4.9-15.7,7.6
			c-2.3,1.2-3.4,0.8-4.4-1.6C209.2,170.5,203,157.1,196.8,143.7z M366.5,417.5c-2.3,1-3.4-0.7-4.2-2.4c-3.6-7.1-7.2-14.2-10.8-21.3
			c-2.7-5.3-5.2-10.7-7.9-16c-6.4-12.9-12.9-25.9-19.3-38.8c-7.4-13.5-14-27.3-20.7-41.1c-2.1-3.4-3.9-7.1-5.3-10.9
			c-6-11.6-11.9-23.3-17.9-34.9c-1.9-3.6,1.4-3.3,2.9-4.2c2.2-1.3,3.9-2.9,2.7-5.6s-3.7-3.4-5.8-2.1c-8.4,5.4-15.5,0.1-23-2.1
			c-10.6-2.7-21.4-4.7-30.2-11.9c-0.5-0.4-1.1-0.8-1.6-1.2c-2.8-2.9-6.4-6-6.5-9.7c-0.1-4.5,5.6-4,8.6-5.8c3.4-2,7.2-3.2,10.9-4.8
			l0,0c13.1-6.7,26.6-12.6,40-18.6c3.9-1.9,7.8-3.7,11.7-5.6c2.6-1.3,5.5-2.7,3.7-6.3c-1.7-3.3-4.6-2.5-7.3-1.2
			c-21.3,9.8-42.5,19.7-63.8,29.5c-1.4,0.5-2.8,1.2-4.1,1.9c-3.3,2.2-4.7,0.8-6.2-2.4c-1.7-3.7,0.5-4.1,2.9-5.2
			c26.7-12.2,53.5-24.5,80.1-37c3.5-1.6,4.8-1.1,6.1,2.3c2.4,6,5.8,11.6,7.6,17.9c2.4,8.4,0.6,16.4-2.8,24.2
			c-4.9,11.3-9.9,22.5-14.8,33.8c6.2,13.1,11.9,26.4,17.2,39.8c3.4,6.5,6.3,13.2,8.7,20.1c6.5,13,11.9,26.4,17.3,39.8
			c6,12.8,11.7,25.7,16.9,38.9c5.3,12.1,10.6,24.2,16,36.3C368.3,414.8,368.7,416.5,366.5,417.5z M257.8,217.6
			c0.1,0.1,0.2,0.3,0.3,0.4c0.1,0.1,0.2,0.2,0.3,0.3c0,0,0.1,0.1,0.1,0.1V218C258.2,217.9,258,217.7,257.8,217.6L257.8,217.6z"/>
		<path class="st0" d="M318.1,358.8c-2.8-1.9-5.6-0.9-8.7,3.3c-1,1.3-1.8,2.8-2.8,4.1c-2.9,4.3-6.2,8.3-9.8,11.9
			c-2.9,2.9-5.9,5.9-9.1,8.5s-6.6,4.5-10.9,3.7c-6.2-0.1-12.5-0.1-18.7,0c-6.6-0.2-13.2-0.2-19.8,0c-6.6-0.2-13.3-0.2-19.9,0
			c-6.6-0.2-13.2-0.2-19.8,0c-6.3-0.1-12.6-0.1-18.9,0c-2.8,0.2-5.7,0-8.5,0.2c-3.7,0.3-7.3-1-10-3.5
			c-15.6-13.6-27.6-29.6-33.2-49.8c-0.6-3.8-1.7-7.4-2.2-11.2c-1-6.9-0.5-7.4,6.4-7.6c14.3-0.4,28.6,0.1,42.9,0
			c21.6-0.1,43.2,0,64.8,0c15.8,0,31.5,0.2,47.3-0.4c2.8-1,4.5-2.9,3.9-6s-3.1-4.1-5.9-4.4c-2.5-0.2-5-0.2-7.5-0.1
			c-32.9-0.3-65.8-0.3-98.6,0c-24.2-0.1-48.3,0-72.4,0c-6.2,0-12.3,1.5-17.8,4.2c-4.4,2.1-8.6,4.4-13,6.4c-1.1,0.5-2.2,1.6-3.8,0.1
			c2.1-4.1,5.2-7.6,7.7-11.5c6.6-10.1,15.8-14.5,27.9-14.4c30.5,0.2,61,0.1,91.4,0.1c24,0.3,48.1,0.1,72.2,0.1
			c1.2,0,2.3-0.1,3.5-0.3c5.6-1.2,6.9-5.1,3.2-9.7c-0.6-0.3-1.2-0.6-1.8-0.7c-18.1-0.7-36.2-0.2-54.3-0.2
			c-38.5-0.1-77.1,0-115.6-0.3c-10.2-0.1-19,2.5-26.8,8.8c-2.6,2-4.4,4.7-6.4,7.3c-1.2,1.6-2.4,3.2-3.5,4.8
			c-3.7,5.3-8.2,10-9.9,16.5c0.9,10.3,7.7,14.7,17.9,11.3c7.3-3.4,14-7.9,21.8-10.2c2.6-0.6,5.2-0.8,7.8-1.2c5.4-0.8,6.5,0,7.2,5.3
			c0.6,4.2,1.4,8.5,2.4,12.6c0.7,1.9,1,3.9,1.6,5.8c1.6,5.4,4.1,10.5,6.5,15.6c3.5,7.2,7.8,14,12.6,20.4c0.2,0.4,0.5,0.8,0.8,1.1
			c5.4,5.5,10.4,11.2,16.5,16c1.2,0.9,2.4,1.9,2.3,3.6c-0.4,2.3-1.6,4.3-2.1,6.6c-0.9,4.5-1.1,8.9,3.1,12.2l1.8,2
			c3.1,5.4,11.7,7.3,18.8,4.2h100c4.7-0.3,9-2.5,12.1-6c5-4.1,4.7-9.5,2.3-14.5c-2.1-4.3-0.8-6.6,2.6-9.2c9.5-7,16.6-16.3,23-26.1
			C321.1,363.8,320.9,360.7,318.1,358.8z M277.1,415c-16.8,0.1-33.6,0-50.4,0h-2.5v-0.1c-17.5,0-34.9,0-52.4,0
			c-5.4,0-8.2-2.1-8.1-5.8c0.1-4.6,3.7-8.3,8.3-8.4l103.8-0.1c5.1,0,8.4,3.3,8.6,8.4C284.5,413.1,282.4,415,277.1,415L277.1,415z"/>
		<path class="st0" d="M98.5,0c3.3,0.1,6.6,0.2,9.9,0.1c2.7,0,5.2,0.2,5.2,3.7s-2.4,4.3-5.4,4.3c-9.9,0-19.9,0-29.8,0
			c-6.6,0-13.2,0.1-19.8,0.1c-1.7-0.1-3.3-0.2-5-0.1c-3,0-4.9-1.6-4.8-4.5s2.3-3.6,5-3.5c13.8,0.1,27.5,0,41.3,0
			C96.2,0.2,97.4,0.1,98.5,0z"/>
		<path class="st0" d="M258.4,218v0.4c0,0-0.1-0.1-0.1-0.1c-0.1-0.1-0.2-0.2-0.3-0.3c-0.1-0.1-0.2-0.2-0.3-0.4l0,0
			C258,217.7,258.2,217.9,258.4,218z"/>
		<path class="st0" d="M258.4,218v0.4c0,0-0.1-0.1-0.1-0.1L258.4,218z"/>
		<path class="st0" d="M26.8,376.6l-0.4-2.8c0-11.9-2.1-23.8-1.4-35.8c0.4-6.8,0.1-13.6,0.1-20.5c-0.2-7,0-13.9,0.7-20.9
			c0.9-6.9,0.7-13.9-0.5-20.8c-1-5.4-1-11,0.1-16.4c1.2-6.9,1.3-13.9,0.4-20.8c-0.7-7.2-0.7-14.5,0-21.7c0.8-7,0.7-14-0.4-20.9
			c-1-5.6-1-11.3,1.5-16.7c2.5-5.6,6.6-10.3,11.7-13.7c6.3-4.1,13.4-4.2,20.6-4c22.7-0.2,45.5-0.1,68.2,0c9.6,0,16.6,5.1,22.3,12.3
			c1.1,1.1,1.5,2.7,1.1,4.1c1.9,5.1,2.8,10.6,2.7,16.1c-0.1,22.5,0,44.9,0,67.4c0.1,1.3,0.1,2.7-0.1,4c-0.4,2.3-1.8,4.2-4.3,4.1
			s-3.9-1.8-4.2-4.2s-0.2-5-0.2-7.5c-1.4-1.6-1.6-3.6-1.6-5.6c0-17.9-0.2-35.7,0.1-53.6c0-2.6,0-5.3,0-8c-0.1-10.8-6.2-17.8-17-18
			c-24.1-0.4-48.2-0.6-72.2-0.1c-5.3,0.1-10.1,2-13.5,6.5c-3.6,3.8-4.1,8.5-4.1,13.4c0,21.9,0.1,43.8-0.1,65.6
			c0.2,19.8,0.2,39.6,0,59.4c0.1,6.6,0.2,13.3,0,20c0.1,10.3,0,20.6,0.1,31c0.1,11.2,6.5,17.7,17.7,17.8c15.2,0.1,30.3,0,45.4,0
			c2.2-0.1,4.3,0,6.5,0.3c3,0.6,5.5,2.1,5.4,5.5s-2.5,5.3-5.7,5.9c-2.3,0.2-4.7,0.3-7,0.2c-15.2-0.2-30.4,0.4-45.6,0
			c-4.9-0.1-9.5-1-13.7-3.7c-4-3-7.8-6.1-10.3-10.5C27.6,381.7,26.5,379.3,26.8,376.6z"/>
	</g>
</g>
</svg>
