<?xml version="1.0" encoding="utf-8"?>
<!-- Generator: Adobe Illustrator 26.2.1, SVG Export Plug-In . SVG Version: 6.00 Build 0)  -->
<svg version="1.1" id="Capa_1" xmlns="http://www.w3.org/2000/svg" xmlns:xlink="http://www.w3.org/1999/xlink" x="0px" y="0px"
	 viewBox="0 0 510.6 511" style="enable-background:new 0 0 510.6 511;" xml:space="preserve">
<style type="text/css">
	.st0{fill:#35063A;}
</style>
<g id="Capa_2_00000047740662504231531200000008857823384709316480_">
	<g id="Capa_1-2">
		<path class="st0" d="M340.3,221.3c-0.4-46.4-16-87.1-46.8-121.9c-4.4-4.6-6.7-10.9-6.4-17.2c0.2-24.8-9.7-45.1-29.3-60.5
			C244.1,11,227.7,7.3,211.2,4.2c-9.4-1.8-19-2.8-28.5-4.2h-25c-9.3,1.4-18.7,2.4-28,4.1C113.2,7.3,96.7,10.9,83,21.5
			C62.8,37,53.2,57.9,53.5,83.2c0.3,5.7-1.8,11.3-5.8,15.5C20,129.6,4.4,165.8,0.9,207.3c-0.2,1.5-0.5,2.9-0.9,4.3v291.5
			c0.4,0.7,0.9,1.4,1.3,2c2.8,4.6,7.2,6.6,11.7,5.5c5-1.3,8-5,8-10.6c0.1-21.6,0-43.2,0-64.9c0-72-0.2-144.1,0.2-216.1
			c0.2-32.2,10.1-61.8,28-88.6c0.9-1.4,2-2.7,3.1-4.1c0.8,6.1,1.2,12.2,1,18.3c0,9.9,3.7,15,10.7,15s10.4-5.1,10.4-15.2
			c0-21.1-0.1-42.3,0-63.4c0.2-23.8,13.7-43.2,36-50.4c40.3-13,80.9-13.1,121,0.5c19.7,6.7,31.4,21.5,34.1,42.3
			c1.3,10.1,0.9,20.5,0.9,30.8c0.1,54.6,0.1,109.1,0,163.7c0.1,6.1-0.2,12.3-0.9,18.4c-1.3,12.4-5.3,24.4-11.6,35.2
			c-55.8-31-111.3-31-167.1,0c-1-1.9-2-3.5-2.8-5.3c-6.5-13.4-9.7-28.1-9.5-42.9c0.1-12.8,0.2-25.6-0.1-38.4
			c-0.1-6.7-4.5-11-10.5-11c-5.6-0.1-10.2,4.3-10.4,9.9c0,0.2,0,0.4,0,0.6c0.2,19.1-1.2,38.5,1.7,57.3c7,46.5,33.8,78.5,78.2,93.4
			s84.9,5,118.8-27.3c23.8-22.7,35-51.3,35.1-84.2c0.1-47.4,0-94.8,0-142.2V125c1.6,2,2.1,2.6,2.6,3.2
			c18.7,27.1,28.8,57.2,29.5,90.1c0.4,22.4,0.1,44.9,0.1,67.4c0,7.4,4,12.1,10.3,12.2s10.6-4.6,10.6-12.3
			C340.4,264.2,340.5,242.7,340.3,221.3z M100,339.1c38.1-25,97.3-27.4,140.8-0.2C204.9,380.8,135.8,380.8,100,339.1z"/>
		<path class="st0" d="M441.2,169c-6.2,28.5-11.6,57.3-17.4,86.1h-38.5c-2-9.6-4-19.3-5.9-29c-5.5-27.5-11-55-16.5-82.5
			c-0.5-2.1-0.7-4.2-0.8-6.4c0-45.7,0-91.5,0-137.2h21c0,45.4-0.1,90.8-0.1,136.2c0,0.8,0,1.7,0.2,2.5c6.2,30.8,12.4,61.5,18.7,92.3
			c0.3,1.3,1.7,2.3,2.6,3.5c0.9-1.3,2.5-2.5,2.8-4c4.5-21.6,8.9-43.3,13-65c2.3-11.9,5.4-23.8,5.6-35.8c0.7-43.2,0.3-86.5,0.3-129.7
			h21c0,36.3-0.5,72.5,0,108.8C447.5,129,445.5,149.2,441.2,169z"/>
		<path class="st0" d="M510.6,277.4c-1-0.2-2.1-0.3-3.1-0.4c-37.9,0-75.8,0-113.8,0.1c-2,0.1-3.9,0.7-5.5,1.7
			c-29.1,18.1-58.1,36.2-87,54.5c-1.5,1.1-2.5,2.7-2.7,4.6c-0.3,8.8,0,17.6-0.2,26.4c-0.1,3,1.2,4.4,3.5,5.8
			c28.6,17.8,57.2,35.8,85.9,53.5c2.2,1.3,4.8,2.1,7.4,2.1c36.8,0.1,73.5,0.1,110.2,0.1c1.8,0,3.5-0.2,5.2-0.2v-20.8h-6.2
			c-34.3,0-68.5,0.1-102.8-0.1c-3.1-0.1-6.1-0.9-8.8-2.5c-19.5-12-38.9-24.2-58.4-36.4c-1.3-0.8-2.6-1.8-4.9-3.4
			c2.8-0.2,4.4-0.4,6-0.4c18.3,0,36.6,0.1,54.9-0.1c3.7,0,5.8,0.9,7.6,4.5c6.2,12.1,19.6,18.7,33,16.3c14.5-2.7,25.3-13.2,26.1-27.5
			c1-16.7,0.5-33.6,0.6-50.4c0-2.1,0-4.2,0-6.9h53L510.6,277.4z M397.3,337.3c-0.8,1.5-2.6,3.4-4,3.4c-20.8,0.2-41.5,0.2-62.3,0.2
			c-0.1-0.4-0.2-0.7-0.4-1.1c1.1-0.8,2.3-1.7,3.5-2.5c19.7-12.4,39.4-24.7,59.2-36.9c2.2-1.3,4.8-2.1,7.4-2.2
			c11.8-0.2,23.5-0.1,35.6-0.1v22c-5.2,0-10.3-0.6-15.2,0.1C410.3,321.7,402.5,327.7,397.3,337.3z M426.1,362.3
			c-6,0.2-11.1-4.5-11.3-10.5s4.5-11.1,10.5-11.3c0.2,0,0.4,0,0.6,0c6,0.3,10.7,5.4,10.4,11.4C436.1,357.5,431.7,361.9,426.1,362.3z
			"/>
		<path class="st0" d="M116.4,138.8h-20c-4.5,27.3-17.2,39.9-42.9,42.4v21.1c11.2-0.1,22,4.4,29.9,12.4c8.3,8.2,12,18.4,12.8,29.9
			h20.3c2.9-25.7,17-40,42.7-42.8v-20.6C133.7,178.5,123.3,168.2,116.4,138.8z M106.6,206.2l-14.5-14.5l14.6-14.4
			c4,4,9.7,9.7,14.5,14.6L106.6,206.2z"/>
		<path class="st0" d="M340.4,463.7c0,11.8,0.1,23.6,0,35.4c0,7.2-4.3,12-10.5,11.9s-10.4-5-10.4-12.2c0-23.7,0-47.5,0-71.2
			c0-7.2,4.2-12.1,10.4-12.1s10.5,4.7,10.5,11.9C340.4,439.5,340.4,451.6,340.4,463.7z"/>
		<path class="st0" d="M117.5,468v-20.4h20.4V468H117.5z"/>
		<path class="st0" d="M180.5,447.7v20.1h-20.4v-20.1H180.5z"/>
		<path class="st0" d="M202.9,447.6h20.2v20.2h-20.2V447.6z"/>
	</g>
</g>
</svg>
