<?xml version="1.0" encoding="utf-8"?>
<!-- Generator: Adobe Illustrator 26.2.1, SVG Export Plug-In . SVG Version: 6.00 Build 0)  -->
<svg version="1.1" id="Capa_1" xmlns="http://www.w3.org/2000/svg" xmlns:xlink="http://www.w3.org/1999/xlink" x="0px" y="0px"
	 viewBox="0 0 108 28" style="enable-background:new 0 0 108 28;" xml:space="preserve">
<style type="text/css">
	.st0{fill:#010101;}
	.st1{fill:#020202;}
	.st2{fill:#030303;}
</style>
<g>
	<path d="M34.4,17.3c-0.1-1,0-1.1-1-1c-0.5,0-0.6-0.1-0.6-0.6c0-0.8,0-1.5,0-2.3c0-0.8-0.3-1.5-0.9-2c-2.2-2.1-6.9-2.1-9.1,0
		c-0.3,0.3-0.4,0.4-0.7,0c-0.4-0.5-0.9-0.8-1.5-1c-2.7-1.1-5.3-0.8-7.8,1c0-0.4,0-0.8,0-1.2c0-0.3-0.1-0.4-0.4-0.4
		c-2.6,0-5.2,0-7.7,0c-0.2,0-0.4,0-0.4,0.3c0,0.5-0.1,1,0.1,1.5c0.1,0.3,0.7,0.1,1.1,0.1c0.4,0,0.5,0.2,0.5,0.5c0,1.2,0,2.3,0,3.5
		c0,0.5-0.1,0.6-0.6,0.6c-1,0-1,0-1,1c0,0,0,0.1,0,0.1c-0.1,0.5,0.1,0.7,0.7,0.7c2.6,0,5.2,0,7.8,0c1.5,0,1.5,0,1.3-1.5
		c0-0.2-0.1-0.4-0.3-0.3c-1,0.2-1-0.4-0.9-1.1c0-0.3,0-0.5,0-0.8c0-0.9,0.6-1.5,1.6-1.5c1,0,1.7,0.6,1.7,1.5c0,0.5,0,0.9,0,1.4
		c0,0.3-0.1,0.6-0.5,0.5c-0.8-0.2-0.9,0.2-0.8,0.9c0,0.1,0,0.2,0,0.3c-0.1,0.5,0.1,0.7,0.6,0.7c2.4,0,4.7,0,7.1,0
		c1.3,0,1.3,0,1.3-1.3c0,0,0-0.1,0-0.1c0-0.3-0.1-0.4-0.3-0.4c-0.9,0.2-1-0.3-0.9-1c0-0.3,0-0.6,0-0.9c0-0.9,0.7-1.4,1.6-1.5
		c1,0,1.7,0.5,1.7,1.4c0,0.4,0,0.9,0,1.3c0,0.5-0.1,0.7-0.6,0.6c-0.6-0.1-0.8,0.1-0.7,0.7c0,0.2,0,0.3,0,0.5
		c-0.1,0.6,0.2,0.7,0.7,0.7c2.7,0,5.5,0,8.2,0C34.3,18.1,34.5,17.9,34.4,17.3z M13,16.7c0.4-0.1,0.7,0,0.6,0.6
		c0,0.2-0.1,0.3-0.4,0.3c-0.8,0-1.6,0-2.6,0c0.5-0.9,1-1.7,1.5-2.5c0.2,0.4,0.1,0.7,0.1,1C12.3,16.6,12.5,16.8,13,16.7z M23.4,12.5
		c-0.7,0.2-1.2,0.8-1.1,1.5c0,0.9-0.5,1.5-0.9,2.3c-0.5,1-1.2,1.4-2.3,1.3c-1-0.1-2.1,0-3.1,0c-0.3,0-0.5,0-0.5-0.4
		c0-0.4,0.1-0.5,0.5-0.5c0.6,0.1,0.8-0.1,0.8-0.8c-0.1-0.5,0-0.9,0-1.4c0-1.4-0.8-2.2-2.2-2.2c-0.1,0-0.3,0-0.4,0
		c0.5-1.4,1.3-2.1,2.8-2.1c2.3-0.1,4.4,0.3,5.7,2.6c0.5-0.7,1.1-1.5,2-1.8C24.3,11.6,24.1,12.3,23.4,12.5z"/>
	<path class="st0" d="M67.8,14c0-1.2,0-2.4,0-3.6c0-0.4,0.1-0.5,0.5-0.5c1.6,0,3.3,0,4.9,0c0.4,0,0.5,0.1,0.5,0.5c0,0.2,0,0.4,0,0.6
		c0.1,0.4-0.1,0.5-0.5,0.5c-0.9,0-1.7,0-2.6,0c-0.4,0-0.5,0.1-0.5,0.5c0,1.4,0,1.4,1.4,1.4c0.5,0,1,0,1.4,0c0.7-0.1,0.5,0.4,0.5,0.8
		c0,0.4,0.2,0.8-0.5,0.8c-0.8-0.1-1.6,0-2.3,0c-0.3,0-0.5,0.1-0.4,0.4c0,0.7,0,1.5,0,2.2c0,0.4-0.1,0.6-0.5,0.6
		c-1.8,0-1.8,0-1.8-1.7C67.8,15.6,67.8,14.8,67.8,14z"/>
	<path class="st0" d="M88.7,13.1c0.9-0.9,1.8-1,2.8-0.7c0.6,0.2,1.1,0.6,1.2,1.3c0.2,1.4,0.1,2.8,0.1,4.2c0,0.2-0.1,0.3-0.3,0.3
		c0,0-0.1,0-0.1,0c-1.7,0.1-1.7,0.1-1.7-1.6c0-0.6,0-1.2,0-1.8c0-0.5-0.2-1.1-0.9-1.1c-0.6,0-1,0.4-1,1.2c0,0.9,0,1.9,0,2.8
		c0,0.4-0.1,0.6-0.6,0.6c-1.6,0-1.6,0-1.6-1.6c0-1.3,0-2.6-0.1-3.8c0-0.3,0.1-0.4,0.3-0.4c0.4,0,0.8,0,1.1,0
		C88.5,12.3,88.8,12.4,88.7,13.1z"/>
	<path class="st0" d="M85.4,17.7c0-1.2,0-2.3,0-3.5c0-1-0.4-1.6-1.3-1.8c-1-0.3-2-0.3-3,0c-0.6,0.2-1.1,0.6-1.2,1.2
		c0,0.2-0.1,0.4,0.1,0.4c0.5,0,1.1,0,1.6,0c0.3,0,0.2-0.4,0.4-0.5c0.3-0.3,0.5-0.4,0.9-0.2c0.3,0.2,0.4,0.5,0.4,0.8
		c0,0.5-0.4,0.3-0.7,0.3c-0.8,0-1.5,0.1-2.2,0.4c-0.7,0.4-1.1,1.1-1,1.9c0.1,0.8,0.6,1.3,1.4,1.5c0.9,0.2,1.7,0,2.5-0.8
		c-0.1,0.8,0.3,0.7,0.7,0.7c0.4,0,0.8,0,1.3-0.1C85.4,18,85.4,17.9,85.4,17.7z M82.3,17.1c-0.5,0-0.8-0.2-0.8-0.7
		c-0.1-0.5,0.5-0.9,1.3-0.9c0.2,0,0.5,0,0.5,0.4C83.3,16.5,82.9,17.1,82.3,17.1z"/>
	<path class="st0" d="M41.2,13.9c0-0.7-0.4-1.3-1.1-1.5c-1-0.3-2.1-0.3-3.1,0c-0.6,0.2-1,0.6-1.2,1.2c0,0.2-0.1,0.5,0.2,0.4
		c0.7-0.2,1.6,0.5,2-0.6c0.1-0.3,0.5-0.3,0.8-0.2c0.3,0.2,0.4,0.5,0.4,0.8c0,0.5-0.4,0.3-0.7,0.3c-0.7,0-1.5,0.1-2.1,0.4
		c-0.8,0.4-1.2,1.1-1,1.9c0.1,0.8,0.7,1.4,1.5,1.5c0.9,0.1,1.7,0,2.4-0.8c-0.1,0.7,0.3,0.7,0.7,0.7c0.4,0,0.8,0,1.3-0.1
		c0,0,0.1-0.2,0.1-0.2C41.3,16.5,41.3,15.2,41.2,13.9z M39.2,15.9c-0.1,0.7-0.5,1.2-1.1,1.1c-0.5-0.1-0.8-0.3-0.7-0.8
		c0-0.5,0.7-0.9,1.5-0.8C39.2,15.4,39.3,15.5,39.2,15.9z"/>
	<path class="st0" d="M105.3,16.3c-0.5,0-1-0.1-1.4,0.5c-0.4,0.6-1.4,0.3-1.7-0.4c-0.1-0.4-0.2-0.7,0.5-0.7c0.5,0,0.9,0,1.4,0
		c0.5,0,1.1,0,1.6,0c0.2,0,0.4,0,0.4-0.3c0-1.4-0.5-2.8-2.3-3.1c-2.4-0.4-3.8,0.9-3.7,3.3c0.1,1.3,0.7,2.2,1.7,2.5
		c1.4,0.4,3.2,0,3.8-0.9c0.2-0.3,0.5-0.6,0.3-0.9C106,16.1,105.6,16.3,105.3,16.3z M102.7,13.6c0.4-0.2,0.8-0.2,1.1,0
		c0.3,0.2,0.5,0.6,0.4,0.8c-0.2,0.4-0.6,0.1-0.9,0.2c-0.1,0-0.1,0-0.1,0c-0.3-0.1-0.7,0.2-0.9-0.1C102.2,14.1,102.4,13.8,102.7,13.6
		z"/>
	<path class="st0" d="M56.2,15.7c0.5,0,0.9,0,1.4,0c0.5,0,1.1,0,1.6,0c0.3,0,0.4,0,0.4-0.4c0.1-1.7-0.8-2.9-2.4-3.1
		c-1.9-0.3-3.2,0.5-3.5,2.1c-0.5,2.2,0.6,3.8,2.6,3.9c0.5,0,1.1,0,1.6-0.1c0.7-0.2,1.3-0.6,1.6-1.3c0.1-0.1,0.2-0.5,0-0.5
		c-0.5-0.1-1,0-1.6,0c-0.3,0-0.3,0.3-0.4,0.4c-0.3,0.4-0.6,0.5-1.1,0.4c-0.4-0.1-0.6-0.3-0.8-0.7C55.6,15.9,55.6,15.6,56.2,15.7z
		 M56.6,13.4c0.5,0,1.1,0.4,1,0.9c-0.1,0.6-0.7,0.1-1,0.3c-0.3-0.2-0.9,0.3-0.9-0.3C55.7,13.7,56.1,13.4,56.6,13.4z"/>
	<path class="st0" d="M51.9,14.4c-0.6,0-1.1,0.2-1.3-0.6c0-0.2-0.3-0.4-0.6-0.4c-0.4,0-0.6,0.2-0.7,0.5c-0.3,0.8-0.3,1.7,0,2.6
		c0.1,0.4,0.4,0.6,0.8,0.6c0.4,0,0.6-0.3,0.6-0.6c0-0.4,0.2-0.5,0.6-0.5c0.3,0,0.6,0,0.9,0c0.8,0,0.9,0.1,0.5,0.9
		c0,0.1-0.1,0.1-0.1,0.2c-0.6,1-2,1.5-3.5,1.2c-1.2-0.2-2-1-2.2-2.2c-0.2-1.2-0.1-2.4,1-3.3c1-0.7,3-0.7,4.1-0.1
		c0.1,0.1,0.2,0.1,0.2,0.2c0.4,0.3,0.7,0.8,0.6,1.3C52.7,14.7,52.2,14.2,51.9,14.4z"/>
	<path class="st0" d="M98.6,14.4c-0.6,0-1.2,0.1-1.4-0.6c-0.2-0.5-1-0.4-1.2,0.1c-0.4,0.9-0.4,1.8,0,2.8c0.1,0.3,0.4,0.5,0.7,0.4
		c0.3,0,0.6-0.2,0.6-0.6c0-0.5,0.3-0.6,0.8-0.5c0.3,0,0.6,0,0.9,0c0.8,0,0.8,0.1,0.5,0.8c-0.1,0.2-0.1,0.3-0.2,0.4
		c-0.9,1.2-2.2,1.2-3.5,1c-1.2-0.2-1.9-0.9-2.1-2.1c-0.3-1.4,0.1-2.7,1-3.3c1-0.7,3.1-0.7,4.1,0c0.1,0.1,0.2,0.2,0.3,0.3
		c0.3,0.3,0.6,0.8,0.5,1.2C99.3,14.6,98.8,14.3,98.6,14.4z"/>
	<path class="st1" d="M60.5,13.9c0-1.2,0-2.4,0-3.5c0-0.4,0.1-0.5,0.5-0.5c1.6,0,1.6,0,1.6,1.6c0,2,0,4,0,6c0,0.5-0.1,0.7-0.6,0.7
		c-1.5,0-1.5,0-1.6-1.5C60.5,15.7,60.5,14.8,60.5,13.9z"/>
	<path d="M44.5,13.3c0.4-0.5,0.9-0.9,1.5-0.9c0.3,0,0.5,0,0.5,0.4c0,0.4,0,0.7,0,1.1c0,0.3-0.1,0.4-0.4,0.3
		c-1.2-0.1-1.7,0.6-1.6,1.8c0,0.2,0,0.5,0,0.7c0,0.5,0.2,1.2-0.1,1.4c-0.5,0.2-1.2,0.1-1.8,0.1c-0.3,0-0.2-0.2-0.2-0.4
		c0-1.7,0-3.4-0.1-5c0-0.3,0.1-0.3,0.3-0.3c0.3,0,0.6,0,0.9,0C44.3,12.4,44.3,12.4,44.5,13.3z"/>
	<path d="M76.8,13.3c0.2-0.2,0.4-0.4,0.6-0.6c0.4-0.3,1.1-0.6,1.3-0.2c0.3,0.4,0.1,1,0.1,1.6c0,0.2-0.3,0.1-0.4,0.1
		c-1.2,0.1-1.6,0.5-1.6,1.6c0,0.6,0,1.3,0,1.9c0,0.3-0.1,0.4-0.4,0.4c-1.7,0.1-1.7,0.1-1.7-1.6c0-1.3,0-2.5-0.1-3.8
		c0-0.3,0-0.4,0.4-0.4c0.3,0,0.6,0,0.8,0C76.7,12.4,76.7,12.4,76.8,13.3z"/>
	<path class="st2" d="M65.2,14.3c1.5,0,1.5,0,1.4,1.5c0,0.3-0.1,0.4-0.4,0.4c-0.7,0-1.4,0-2.1,0c-0.4,0-0.4-0.1-0.4-0.5
		C63.7,14.3,63.6,14.3,65.2,14.3z"/>
</g>
</svg>
