<?xml version="1.0" encoding="utf-8"?>
<!-- Generator: Adobe Illustrator 26.2.1, SVG Export Plug-In . SVG Version: 6.00 Build 0)  -->
<svg version="1.1" id="Capa_1" xmlns="http://www.w3.org/2000/svg" xmlns:xlink="http://www.w3.org/1999/xlink" x="0px" y="0px"
	 viewBox="0 0 110 34" style="enable-background:new 0 0 110 34;" xml:space="preserve">
<style type="text/css">
	.st0{fill:#004B84;}
	.st1{fill:#B2193D;}
	.st2{fill:#E3214E;}
	.st3{fill:#89142F;}
	.st4{fill:#971634;}
</style>
<g>
	<path class="st0" d="M51.2,14.6c0-1.1,0-2.3-0.1-3.4c-0.1-1-0.4-2-1.1-2.7c-1.9-1.9-5.2-1.8-6.9,0.3c-0.2,0.3-0.4,0.6-0.7,0.9
		c-0.6-1.7-1.9-2.5-3.6-2.6C37,7,35.6,7.7,34.8,9.3c0-0.5,0-1,0-1.5c0-0.3-0.1-0.4-0.4-0.4c-1,0-2.1,0-3.1,0c-0.5,0-0.5,0-0.5,0.5
		c0,4.2,0,8.5,0,12.7c0,0.1,0,0.3,0,0.4c-0.1-0.1-0.1-0.3-0.2-0.4c-1.5-4.6-3-9.2-4.5-13.8c-0.6-1.7-1.1-3.4-1.7-5.1h-5
		c0,0.1,0,0.2-0.1,0.3c-2.1,6.8-4.3,13.6-6.4,20.5c-0.1,0.4-0.1,0.4,0.3,0.4c1.4,0,2.7,0,4.1,0c0.3,0,0.4-0.1,0.5-0.4
		c0.3-1.3,0.7-2.5,1-3.8c0.1-0.2,0.2-0.3,0.4-0.3c1.9,0,3.7,0,5.6,0c0.2,0,0.3,0.1,0.4,0.3c0.3,1.3,0.7,2.5,1.1,3.8
		c0.1,0.3,0.2,0.4,0.5,0.4c2.5,0,5,0,7.5,0c0.5,0,0.5,0,0.5-0.5c0-2.7,0-5.4,0-8.1c0-0.7,0-1.4,0.3-2c0.3-0.7,1-1.3,1.8-1.3
		c0.8,0,1.4,0.4,1.8,1.1c0.2,0.5,0.3,0.9,0.3,1.4c0,2.9,0,5.9,0,8.8c0,0.5,0,0.5,0.5,0.5c1,0,2,0,3.1,0c0.5,0,0.5,0,0.5-0.5
		c0-2.8,0-5.6,0-8.4c0-0.4,0-0.7,0.1-1.1c0.1-0.4,0.2-0.9,0.5-1.3c0.6-0.6,1.3-0.8,2.1-0.6c0.8,0.2,1.2,0.8,1.3,1.5
		c0.1,0.5,0.2,1.1,0.2,1.6c0,2.7,0,5.5,0,8.2c0,0.5,0,0.5,0.5,0.5c1,0,2,0,3,0c0.5,0,0.5,0,0.5-0.5C51.2,19.8,51.2,17.2,51.2,14.6z
		 M23.7,14.5c-1.1,0-2.3,0-3.4,0c-0.3,0-0.3-0.1-0.3-0.4c0.6-2.5,1.2-5,1.8-7.4c0-0.1,0.1-0.1,0.1-0.3c0.3,1,0.5,2,0.8,3
		c0.4,1.6,0.8,3.2,1.2,4.8C24.1,14.5,24,14.6,23.7,14.5z"/>
	<path class="st1" d="M63.7,25.4c-1.1,0-2.2,0-3.4,0.1c-1.2,0.1-2.5,0.1-3.7,0.2c-0.5,0-1,0.1-1.5,0.1c-1,0-1.9,0.1-2.9,0.2
		c-0.7,0.1-1.4,0.1-2.1,0.2c-1,0.1-2,0.2-3.1,0.3c-0.8,0.1-1.6,0.1-2.4,0.2c-0.8,0.1-1.5,0.2-2.3,0.3c-0.7,0.1-1.4,0.1-2.1,0.2
		c-0.9,0.1-1.9,0.2-2.8,0.4c-1.3,0.2-2.6,0.3-3.8,0.5c-1.5,0.2-3,0.5-4.5,0.7c-1.5,0.2-3.1,0.5-4.6,0.7c-1.2,0.2-2.4,0.4-3.6,0.6
		c-3,0.6-6,1.2-8.9,1.8c-0.6,0.1-1.2,0.3-1.9,0.4c0,0-0.1,0-0.1,0c0,0,0-0.1,0-0.1c0.3-0.5,0.4-1.1,0.5-1.6c0.1-0.2,0.2-0.3,0.3-0.3
		c2.2-0.4,4.4-0.9,6.6-1.3c1.9-0.4,3.8-0.7,5.7-1c1.9-0.3,3.9-0.6,5.8-0.9c1.5-0.2,3.1-0.4,4.6-0.6c1.8-0.2,3.6-0.4,5.3-0.6
		c1.2-0.1,2.4-0.2,3.6-0.4c1.7-0.2,3.4-0.3,5.1-0.4c1.5-0.1,3-0.2,4.6-0.3c1-0.1,2-0.1,3-0.1c0.5,0,1-0.1,1.4-0.1
		c0.3-0.1,0.6,0,0.9,0c0.6,0,1.2,0,1.9,0c0.5-0.1,1,0,1.6,0c1.8,0,3.7,0,5.5,0c0.5,0.1,1.1,0,1.7,0.1c0.6,0,1.2,0,1.8,0.1
		c0.4,0,0.7,0,1.1,0c1.2,0,2.4,0.1,3.6,0.2c1.1,0.1,2.2,0.1,3.3,0.2c1.1,0.1,2.2,0.2,3.4,0.3c1.1,0.1,2.3,0.2,3.4,0.3
		c0.2,0.2,0.2,0.4,0,0.7c-1.1-0.1-2.2-0.2-3.3-0.3c-1.1-0.1-2.2-0.2-3.4-0.2c-0.8,0-1.7-0.1-2.5-0.1c-0.3-0.1-0.6,0-0.9,0
		c-0.5,0-0.9,0-1.4,0c-0.4-0.1-0.9,0-1.3,0c-2.4,0-4.8,0-7.2,0C64.4,25.4,64.1,25.3,63.7,25.4z"/>
	<path class="st2" d="M99.9,28.3c-0.1,0.2-0.2,0.2-0.4,0.2c-2.2-0.5-4.5-1-6.7-1.3c-0.8-0.1-1.6-0.3-2.5-0.4c0-0.3,0.1-0.5,0.4-0.5
		c3.1,0.5,6.1,1.1,9.1,1.8C99.9,28.2,99.9,28.2,99.9,28.3z"/>
	<path class="st3" d="M10.1,32.2C10.1,32.2,10.1,32.2,10.1,32.2C10.1,32.3,10.1,32.3,10.1,32.2C10.1,32.3,10.1,32.3,10.1,32.2z"/>
	<path class="st0" d="M96.2,7.4c-1.1,0-2.2,0-3.3,0c-0.3,0-0.4,0.1-0.5,0.4c-0.6,2.7-1.2,5.4-1.8,8c-0.1,0.6-0.3,1.3-0.4,1.9
		c-0.1-0.1-0.1-0.2-0.1-0.3c-0.8-3.2-1.6-6.5-2.4-9.7c-0.1-0.3-0.2-0.4-0.4-0.4c-2.4,0-4.9,0-7.3,0c-0.5,0-0.5,0-0.5,0.5
		c0,0.4,0,0.9,0,1.3C79.5,9.1,79.5,9,79.4,9c-0.9-1.6-2.4-2.2-4.2-1.9c-1.8,0.4-3.1,1.4-3.9,3c-1.6,3-1.6,6.2-0.5,9.4
		c0.5,1.5,1.5,2.7,2.9,3.3c1.7,0.8,4.3,0.8,5.6-1.3c0-0.1,0.1-0.1,0.2-0.1c0,0.4,0,0.8,0,1.1c0,0.3,0.1,0.4,0.4,0.4c1,0,2,0,3.1,0
		c0.5,0,0.5,0,0.5-0.5c0-4.8,0-9.6,0-14.4V7.7c0.1,0,0.1,0.1,0.1,0.1c1.4,4.5,2.9,8.9,4.3,13.4c0.1,0.4,0.2,0.8,0.2,1.3
		c-0.1,1-0.6,1.5-1.5,1.6c-0.5,0.1-1,0-1.5,0c-0.2,0-0.3,0.1-0.3,0.3c0,0.3,0,0.6,0,0.9c0,0.2,0,0.5,0,0.7c0,0.4,0,0.8,0,1.2
		c0,0.3,0.1,0.4,0.3,0.4c1,0,1.9,0,2.9-0.1c0.9-0.1,1.8-0.2,2.5-0.8c0.1-0.2,0.3-0.3,0.4-0.5c0.4-0.7,0.8-1.5,1-2.3
		c0.4-1.4,0.8-2.8,1.3-4.3c1.1-4,2.3-7.9,3.4-11.9C96.6,7.5,96.6,7.4,96.2,7.4z M78.9,17.9c-0.2,0.4-0.4,0.8-0.7,1.1
		c-1,1-2.3,0.9-3.2-0.2c-0.6-0.7-0.8-1.6-0.9-2.5c-0.1-1.3-0.1-2.6,0.4-3.8c0.3-0.7,0.7-1.3,1.4-1.6c0.8-0.4,1.7-0.3,2.3,0.3
		c0.6,0.6,0.9,1.4,1.1,2.2c0.1,0.6,0.1,1.1,0.1,1.6C79.3,16,79.3,17,78.9,17.9z"/>
	<path class="st0" d="M60.9,12.6c-0.2,0.7-0.3,1.4-0.5,2.1c-0.6,2.6-1.2,5.2-1.7,7.9c-0.1,0.3-0.2,0.3-0.4,0.3c-1,0-2.1,0-3.1,0
		c-0.2,0-0.3,0-0.4-0.3c-1.3-5-2.6-10-3.9-15c-0.1-0.2,0-0.3,0.3-0.3c1.1,0,2.3,0,3.4,0c0.3,0,0.3,0.1,0.4,0.3
		c0.6,2.9,1.3,5.8,1.9,8.7c0,0.2,0.1,0.3,0.2,0.5c0.1-0.6,0.3-1.3,0.4-1.9c0.5-2.4,1.1-4.8,1.6-7.3c0.1-0.3,0.2-0.4,0.4-0.4
		c0.9,0,1.8,0,2.8,0c0.3,0,0.4,0.1,0.5,0.4c0.6,2.9,1.3,5.8,1.9,8.8c0,0.1,0.1,0.2,0.1,0.4c0.1-0.1,0.1-0.3,0.2-0.4
		c0.6-2.9,1.3-5.8,1.9-8.7c0.1-0.3,0.1-0.4,0.4-0.4c1.1,0,2.2,0,3.3,0c0.3,0,0.4,0.1,0.3,0.4c-1,3.8-2,7.6-3,11.4
		c-0.3,1.2-0.6,2.3-0.9,3.5c-0.1,0.3-0.2,0.4-0.5,0.4c-1,0-2,0-2.9,0c-0.3,0-0.4-0.1-0.5-0.4c-0.7-3.2-1.4-6.4-2.1-9.5
		C61,12.9,61,12.8,60.9,12.6C60.9,12.6,60.9,12.6,60.9,12.6z"/>
	<path class="st4" d="M68.2,24.4c-0.6,0-1.1,0-1.7-0.1C67.1,24.3,67.6,24.3,68.2,24.4z"/>
</g>
</svg>
