<?xml version="1.0" encoding="UTF-8"?><svg id="a" xmlns="http://www.w3.org/2000/svg" viewBox="0 0 100 32"><defs><style>.b{fill:#0d0d1e;}.c{fill:#060617;}.d{fill:#050517;}.e{fill:#0d0d1f;}.f{fill:#060618;}.g{fill:#030315;}.h{fill:#112;}.i{fill:#040416;}</style></defs><path class="g" d="M34.78,9.82c-3.71-.06-6.84,2.9-6.91,6.56-.06,3.75,2.84,6.74,6.61,6.79,3.82,.06,6.8-2.81,6.84-6.56,.04-3.65-2.92-6.72-6.54-6.79Zm-.21,12.34c-3.12-.02-5.59-2.52-5.59-5.64,.01-3.16,2.41-5.56,5.6-5.56,3.17-.01,5.66,2.41,5.69,5.52,.03,3.11-2.57,5.7-5.7,5.68Z"/><path class="i" d="M12.24,14.56c-.76-.27-.85-.5-.59-1.23,.37-1.05-.06-1.95-.9-2.65-1.03-.85-2.32-.78-3.4-.47-.75,.21-.19,1.35-.33,2.06-.03,.19,0,.39,0,.58-.02,.64,.25,1.42-.86,1.47-.26,.01-.46,.4-.5,.72-.02,.18,.16,.25,.32,.22,1.2-.21,1.05,.6,1.04,1.33-.01,.8,0,1.61,0,2.41v.46q0,3.85,3.92,3.48c2.06-.2,3.56-1.61,3.88-3.63,.33-2.08-.69-4.07-2.58-4.75Zm-4.17-1.89c.31-.49-.55-1.57,.85-1.52,1.02,.04,1.77,.64,1.78,1.52,.01,.91-.71,1.5-1.75,1.54-1.37,.06-.63-.98-.88-1.54Zm3.4,9.08c-.94,.28-1.9,.13-2.85,.16-.5,.01-.51-.34-.5-.71v-5.26c0-.32,0-.67,.43-.65,1.06,.03,2.14-.19,3.18,.22,1.36,.53,2.18,1.77,2.12,3.21-.06,1.44-.98,2.61-2.38,3.03Z"/><path class="c" d="M76.09,18.76c1.78-1.02,2.68-2.76,2.43-4.68-.23-1.8-1.67-3.39-3.5-3.84-1.17-.28-2.37-.07-3.55-.15-.72-.05-1.05,.28-1.24,1.16,1.48-.48,1.43,.37,1.42,1.31-.04,3.14-.02,6.27-.01,9.41,.01,.39-.25,1,.55,.98,.78-.02,.49-.63,.52-1.02,.04-.57-.01-1.15,.02-1.72,.02-.31-.18-.74,.26-.9,.41-.14,.73,.07,1,.39,.73,.88,1.5,1.73,2.21,2.63,.49,.62,1.02,.79,1.81,.46-1.01-1.2-1.97-2.35-2.96-3.52,.43-.21,.75-.34,1.04-.51Zm-2.58-.51c-.6-.02-.82-.18-.8-.78,.04-.96,0-1.92,0-2.87,0-.88,.03-1.76,0-2.64-.02-.57,.13-.79,.76-.81,2.29-.06,4.05,1.48,4.03,3.61-.02,2.1-1.71,3.54-3.99,3.49Z"/><path class="d" d="M93.74,14.2c-.71-.03-.48-.56-.5-.93-.1-1.96-1.59-3.47-3.42-3.45s-3.27,1.54-3.3,3.54c-.02,1.37,0,2.75,0,4.13-.01,1.41-.04,2.83,.02,4.24,.02,.42-.45,1.23,.52,1.2,.84-.02,.46-.75,.47-1.15,.05-1.83,.06-3.67,0-5.51-.02-.82,.26-1.06,1.05-1.01,.88,.06,1.77,.07,2.64,0,.8-.06,.96,.27,.94,.99-.04,1.83-.04,3.67,.01,5.5,.01,.43-.42,1.21,.55,1.19,.85-.02,.49-.73,.5-1.13,.04-1.84,.01-3.68,.02-5.51,0-.47-.14-1.01,.62-1.11,.28-.04,.49-.42,.49-.72,.01-.43-.39-.26-.61-.27Zm-1.58-.51c-.06,.4-.24,.51-.59,.51-.58-.01-1.15,0-1.73,0h-1.03c-1.29,0-1.53-.31-1.18-1.56,.36-1.29,1.53-1.95,2.86-1.63,1.11,.28,1.84,1.48,1.67,2.68Z"/><path class="c" d="M44.76,15.19c0,1.42-.02,2.83,0,4.25,.03,1.53,1.12,2.68,2.54,2.71,1.46,.03,2.63-1.14,2.64-2.73,.02-2.79,0-5.59,.02-8.38,0-.36-.24-.91,.48-.94,.79-.04,.59,.54,.59,.96,.01,2.76,.02,5.51,0,8.27-.02,2.3-1.52,3.84-3.67,3.85-2.17,0-3.65-1.53-3.66-3.84-.02-2.76-.01-5.51,0-8.27,0-.41-.21-1.01,.58-.96,.71,.04,.45,.6,.46,.96,.03,1.38,.01,2.76,.01,4.13Z"/><path class="f" d="M62.49,19.07c0-1.03-.01-2.07,0-3.1,0-.45-.07-.73-.62-.7-.26,.01-.71,.2-.75-.24-.03-.33,.24-.75,.59-.76,.91-.02,.75-.61,.78-1.17,.06-.97-.46-2.27,.25-2.83,.6-.47,1.84-.14,2.79-.16,.65-.01,1.3-.02,1.96,0,.38,.01,.9-.18,.93,.51,.03,.71-.49,.54-.88,.55-1.04,.01-2.07,.05-3.1-.01-.74-.05-.88,.24-.89,.92,0,2.12-.04,2.12,2.09,2.12,.23,0,.46,.01,.69,0,.42-.02,.65,.13,.63,.59-.02,.42-.26,.5-.61,.49-.69,0-1.38,.03-2.07,0-.56-.03-.73,.19-.72,.73,.02,1.72,.03,3.45,0,5.17-.01,.65,.28,.76,.83,.75,1.11-.03,2.22,0,3.34,0,.36,0,.69,.01,.7,.52,.02,.53-.32,.53-.68,.53-1.53,0-3.07-.01-4.6,0-.5,0-.67-.19-.66-.68,.02-1.07,0-2.14,0-3.22Z"/><path class="e" d="M55.96,17.1c0-1.68-.03-3.36,.02-5.04,.02-.71-.2-.97-.91-.89-.42,.05-.84,0-1.26,0-.36,0-.44-.22-.44-.52,0-.3,.07-.54,.43-.54,1.8,0,3.59,0,5.39,0,.37,0,.39,.29,.39,.57,0,.25-.06,.46-.36,.48-.08,0-.15,0-.23,.01-.63,.08-1.5-.31-1.82,.21-.31,.5-.14,1.33-.14,2.01,0,2.86,0,5.73-.01,8.59,0,.39,.26,1-.55,.97-.71-.02-.49-.56-.49-.93-.02-1.64,0-3.28,0-4.93Z"/><path class="b" d="M24.47,15.39c0-1.49,0-2.99,0-4.48,0-.36-.12-.81,.5-.82,.6-.01,.54,.4,.54,.79,0,3.06,.05,6.13-.02,9.19-.05,2.18-1.99,3.57-4.07,3.02-.29-.08-.78-.07-.64-.6,.12-.42,.38-.53,.88-.46,1.79,.28,2.77-.59,2.79-2.39,.02-1.42,0-2.83,0-4.25Z"/><path class="h" d="M17.37,16.57c0-1.88,0-3.75,0-5.63,0-.42-.07-.87,.6-.86,.7,0,.55,.51,.55,.89,0,3.72,0,7.43,0,11.15,0,.41,.1,.86-.58,.85-.69-.01-.56-.49-.56-.89,0-1.84,0-3.68,0-5.52Z"/><path class="c" d="M82.77,16.56c0,1.88,0,3.75,0,5.63,0,.36,.11,.78-.53,.78-.6,0-.56-.38-.56-.77,0-3.75,0-7.5,0-11.25,0-.43-.06-.88,.61-.85,.63,.03,.47,.49,.48,.84,.01,1.88,0,3.75,0,5.63Z"/></svg>