<?xml version="1.0" encoding="utf-8"?>
<!-- Generator: Adobe Illustrator 26.2.1, SVG Export Plug-In . SVG Version: 6.00 Build 0)  -->
<svg version="1.1" id="Capa_1" xmlns="http://www.w3.org/2000/svg" xmlns:xlink="http://www.w3.org/1999/xlink" x="0px" y="0px"
	 viewBox="0 0 102 22" style="enable-background:new 0 0 102 22;" xml:space="preserve">
<style type="text/css">
	.st0{fill:#FA5C06;}
	.st1{fill:#F85D08;}
	.st2{fill:#F95D06;}
	.st3{fill:#FA5D07;}
	.st4{fill:#FA5D06;}
	.st5{fill:#F85D07;}
	.st6{fill:#F7600B;}
	.st7{fill:#E58451;}
	.st8{fill:#FCFAF6;}
	.st9{fill:#FCF9F4;}
</style>
<g>
	<path class="st0" d="M15.2,9.7c0.3-1.1,0.9-2.1,1.6-3c-0.2-0.3-0.5-0.2-0.7-0.2c-1.9,0-3.7,0-5.6,0c-0.5,0-0.7,0.1-0.7,0.6
		c0,2.9,0,5.7,0,8.6c0,0.5,0.2,0.7,0.6,0.7c2.9,0,5.7,0,8.6,0c0.6,0,0.6-0.4,0.6-0.8c0-1.6,0.1-3.3,0-4.9c-0.1-1.3,0.4-2,1.6-2.8
		c0,0.5,0,0.9,0,1.3c0,2.5,0,5,0,7.5c0,1.1-0.2,1.3-1.3,1.3c-3.4,0-6.9,0-10.3,0c-1,0-1.3-0.3-1.3-1.3c0-3.4,0-6.8,0-10.3
		c0-1.2,0.2-1.4,1.4-1.4c2.5,0,5.1,0,7.6,0c0.7,0,1.3-0.1,1.8-0.6c1.2-1.1,2.6-1.8,4-2.4c0.3-0.1,0.6,0,1.1-0.1
		c-3,3.2-5.9,6.1-8.9,9C15,10.6,15,10.6,15.2,9.7z"/>
	<path class="st1" d="M59.7,7.8c0.8-0.1,1.1,0.2,1,1c-0.1,2.6,0,5.3,0,7.9c0,0.4,0.3,0.9-0.3,1c-0.6,0.1-1.3,0.3-1.8-0.6
		c-1.2-2.1-2.4-4.2-3.7-6.3c-0.2-0.3-0.4-0.6-0.6-0.9c-0.3,1.1-0.1,2.1-0.1,3.1c0,1.3,0,2.6,0,3.9c0,0.4,0,0.8-0.6,0.8
		C53,17.9,53,17.5,53,17c0-2.7,0-5.4,0-8.1c0-0.4-0.3-0.9,0.3-1c0.6-0.1,1.2-0.3,1.7,0.5c1,1.8,2.1,3.6,3.2,5.3
		c0.4,0.4,0.6,0.8,0.9,1.2c0.4-0.3,0.3-0.6,0.3-0.9c0-1.8,0.1-3.6,0-5.5C59.4,8.4,59.3,8,59.7,7.8z"/>
	<path class="st2" d="M66.1,12.8c0-1.4,0-2.9,0-4.3c0-0.5,0.2-0.7,0.7-0.7c0.9,0,1.7,0,2.6,0c2,0.1,3.2,2,2.3,3.9
		c-0.3,0.5-0.2,0.8,0.2,1.2c0.9,0.9,1,2,0.6,3.1c-0.5,1.1-1.3,1.8-2.6,1.8c-1,0-2,0-3.1,0c-0.6,0-0.8-0.2-0.7-0.8
		C66.1,15.7,66.1,14.3,66.1,12.8C66.1,12.8,66.1,12.8,66.1,12.8z"/>
	<path class="st3" d="M79.4,11.2c-0.7,1.9-1.5,3.8-2.2,5.7c-0.1,0.2-0.1,0.4-0.2,0.6c-0.3,0.6-0.8,0.4-1.2,0.3
		c-0.4-0.1-0.1-0.6,0-0.8c1.1-2.9,2.2-5.7,3.3-8.6c0.2-0.5,0.5-0.5,0.9-0.6c0.5,0,0.8,0.2,1,0.7c1.1,2.8,2.2,5.7,3.3,8.5
		c0.1,0.3,0.5,0.7-0.1,0.8c-0.4,0.1-0.9,0.2-1.2-0.4c-0.6-1.5-1.2-2.9-1.7-4.4c-0.2-0.6-0.6-1.2-0.8-1.8c-0.2-0.2-0.3-0.5-0.5-0.8
		C79.8,10.7,79.5,10.9,79.4,11.2z"/>
	<path class="st4" d="M44.5,9.7c-1,2.6-1.9,5-2.9,7.4c-0.1,0.3-0.1,0.6-0.4,0.7c-0.3,0.1-0.7,0.2-1,0c-0.4-0.2-0.1-0.6,0-0.8
		c1.1-2.7,2.1-5.5,3.2-8.2c0.2-0.5,0.4-0.9,1.1-0.9c0.7,0,0.8,0.4,1,0.9c1,2.7,2.1,5.4,3.1,8.2c0.1,0.3,0.6,0.8,0,1
		c-0.5,0.2-1,0.1-1.2-0.6c-0.8-2.3-1.8-4.6-2.6-6.9C44.7,10.2,44.7,10.1,44.5,9.7z"/>
	<path class="st5" d="M33.2,15.4c0.3-1.2-0.3-2.3-1.1-3.4c-0.8-1-1.4-2-2.1-3.1c-0.2-0.3-0.7-0.7-0.3-0.9c0.4-0.3,1.1-0.3,1.5,0.3
		c0.7,1,1.4,2,2,3c0.5,0.8,0.5,0.8,1.2,0.1c0.8-0.8,1.3-1.9,2-2.8c0.1-0.2,0.2-0.4,0.4-0.5c0.4-0.3,1-0.3,1.3-0.1
		c0.4,0.2-0.1,0.6-0.3,0.8c-0.9,1.3-1.8,2.6-2.7,3.9c-0.4,0.6-0.7,1.2-0.6,1.9c0,0.9,0,1.7,0,2.6c0,0.5-0.2,0.7-0.7,0.7
		c-0.5,0-0.6-0.2-0.6-0.7C33.2,16.7,33.2,16.1,33.2,15.4z"/>
	<path class="st6" d="M88.3,12.9c0-1.4,0-2.8,0-4.2c0-0.5,0.1-0.8,0.7-0.8c0.6,0,0.6,0.3,0.6,0.8c0,2.4,0,4.7,0,7.1
		c0,0.6,0.2,0.9,0.8,0.9c0.9-0.1,1.7,0,2.6,0c0.5,0,0.6,0.3,0.6,0.7c0,0.4-0.1,0.6-0.6,0.6c-1.4,0-2.7,0-4.1,0
		c-0.5,0-0.7-0.2-0.7-0.7C88.3,15.7,88.3,14.3,88.3,12.9C88.3,12.9,88.3,12.9,88.3,12.9z"/>
	<path class="st7" d="M15.2,9.7c0.2,0.4-0.3,0.7,0,1.1c0,0.3-0.2,0.4-0.5,0.4C14.8,10.7,14.9,10.1,15.2,9.7z"/>
	<path class="st8" d="M67.3,14.9c0-1.6,0-1.6,1.7-1.6c0.3,0,0.6,0,0.8,0c0.9,0.1,1.5,0.8,1.5,1.7c0,0.9-0.7,1.5-1.6,1.6
		c-0.2,0-0.5,0-0.7,0C67.3,16.6,67.3,16.6,67.3,14.9z"/>
	<path class="st9" d="M68.4,11.9c-0.6,0.1-1.1,0-1-1c0.1-2.1-0.3-1.7,1.9-1.7c0.9,0,1.4,0.6,1.5,1.3c0,0.8-0.5,1.3-1.4,1.4
		C69,11.9,68.8,11.9,68.4,11.9z"/>
</g>
</svg>
