<?xml version="1.0" encoding="utf-8"?>
<!-- Generator: Adobe Illustrator 26.2.1, SVG Export Plug-In . SVG Version: 6.00 Build 0)  -->
<svg version="1.1" id="Capa_1" xmlns="http://www.w3.org/2000/svg" xmlns:xlink="http://www.w3.org/1999/xlink" x="0px" y="0px"
	 viewBox="0 0 102 28" style="enable-background:new 0 0 102 28;" xml:space="preserve">
<style type="text/css">
	.st0{fill:#FC904C;}
	.st1{fill:#FC904D;}
	.st2{fill:#FA8F4C;}
	.st3{fill:#F98E4B;}
	.st4{fill:#F78D4B;}
</style>
<g>
	<path class="st0" d="M15.5,9.5c-0.3-2.3-1.7-3.7-4-4.1C9.4,5,7.2,5.2,5.1,5.2c-1.1,0-1.3,0.2-1.3,1.3c0,2.7,0,5.4,0,8.1
		c0,2.8,0,5.5,0,8.2c0,0.7,0.2,1.3,1.1,1.3c1.9,0,3.9,0.1,5.8-0.1c3.1-0.2,4.7-1.7,5-4.8C15.9,16.1,16,12.8,15.5,9.5z M14.3,19.2
		c-0.2,2.4-1.7,3.6-4.1,3.7c-1.5,0.1-3,0-4.5,0c-0.6,0-0.6-0.3-0.6-0.7c0-2.5,0-5,0-7.5c0-2.5,0-5,0-7.5c0-0.6,0.2-0.8,0.8-0.8
		c1.5,0.1,3,0,4.5,0.1c2.3,0.1,3.5,1.2,3.8,3.5C14.6,13.1,14.6,16.1,14.3,19.2z"/>
	<path class="st0" d="M89.7,15.5c1.6,2.1,3,4,4.5,5.9c0.5,0.6,0.9,1.2,1.4,1.8c0.2,0.2,0.5,0.5,0.2,0.8c-0.3,0.3-0.8,0.2-1.2,0
		c-0.2-0.1-0.3-0.3-0.5-0.5c-1.9-2.5-3.8-5-5.8-7.6c-0.3-0.4-0.7-0.9-0.4-1.4c0.3-0.6,0.8-0.4,1.3-0.4c0.4,0,0.9,0,1.3,0
		c2.1-0.2,3.3-1.5,3.4-3.6C94,8.7,93,7.3,91,6.8c-1.8-0.4-3.6-0.2-5.4-0.2c-0.7,0-0.5,0.5-0.5,0.9c0,4.2,0,8.4,0,12.6
		c0,1.1,0,2.2,0,3.3c0,0.5,0,0.9-0.7,0.9c-0.6,0-0.7-0.4-0.7-0.9c0-5.7,0-11.3,0-17c0-0.7,0.2-1.2,1-1.2c2.1,0,4.1-0.2,6.2,0.2
		c4.1,0.7,5.7,5,3.2,8.3C93.1,15.2,91.6,15.5,89.7,15.5z"/>
	<path class="st1" d="M31,22.5c1.2-3.4,2.3-6.6,3.4-9.8c0.8-2.2,1.5-4.4,2.3-6.6c0-0.1,0.1-0.3,0.1-0.4C37,5.2,37.5,5.1,38,5.2
		c0.5,0.2,0.4,0.6,0.2,1c-1,2.8-2,5.5-2.9,8.3c-1,2.9-2,5.7-3,8.6c-0.2,0.6-0.4,1.2-1.2,1.2c-0.7,0-1-0.5-1.2-1.1
		c-2-5.6-4-11.1-6-16.7c-0.1-0.4-0.6-1,0.2-1.2c0.7-0.2,1,0.2,1.2,0.8c1.8,5.1,3.5,10.1,5.3,15.2C30.7,21.6,30.8,21.9,31,22.5z"/>
	<path class="st0" d="M70.4,14.7c0-2.7,0-5.4,0-8c0-1.3,0.2-1.5,1.4-1.5c2.9,0,5.8,0,8.6,0c0.5,0,1,0,1,0.7c0,0.7-0.6,0.7-1.1,0.7
		c-2.6,0-5.2,0-7.8,0c-0.8,0-1,0.2-1,1c0,4.8,0,9.6,0,14.4c0,0.8,0.2,1,1,1c2.6-0.1,5.1,0,7.7,0c0.5,0,1.1-0.1,1.1,0.6
		c0,0.8-0.6,0.7-1.1,0.7c-2.9,0-5.8,0-8.6,0c-1.2,0-1.4-0.2-1.4-1.4C70.4,20.2,70.4,17.5,70.4,14.7z"/>
	<path class="st2" d="M21.7,14.8c0,2.8,0,5.6,0,8.3c0,0.5,0.1,1.1-0.7,1.1c-0.7,0-0.7-0.5-0.7-1c0-5.7,0-11.3,0-17c0-0.5,0-1,0.7-1
		c0.7,0,0.6,0.5,0.6,1C21.6,9.1,21.7,12,21.7,14.8z"/>
	<path class="st2" d="M66.9,14.7c0,2.8,0,5.6,0,8.4c0,0.5,0.1,1.1-0.6,1.1c-0.7,0-0.7-0.5-0.7-1c0-5.7,0-11.3,0-17
		c0-0.4-0.1-0.9,0.4-1c0.7-0.2,0.9,0.2,0.9,0.8C66.9,9,66.9,11.8,66.9,14.7z"/>
	<path class="st2" d="M42.1,14.7c0,2.8,0,5.6,0,8.4c0,0.5,0.1,1.1-0.7,1.1c-0.7,0-0.7-0.5-0.7-1c0-5.7,0-11.3,0-17c0-0.5,0-1,0.7-1
		c0.7,0,0.6,0.5,0.6,1C42.1,9,42.1,11.9,42.1,14.7z"/>
	<path class="st3" d="M56.4,14.7c0,2.7,0,5.5,0,8.2c0,0.3,0,0.5,0,0.8c-0.1,0.3-0.3,0.5-0.6,0.5c-0.3,0-0.6-0.1-0.6-0.5
		c0-0.2,0-0.3,0-0.5c0-5.7,0-11.5,0-17.2c0-0.5,0.1-0.9,0.7-0.9c0.6,0,0.6,0.5,0.6,0.9C56.4,9,56.4,11.9,56.4,14.7z"/>
	<path class="st4" d="M61,14.9c-1.1,0-2.2,0-3.2,0c-0.5,0-0.8-0.2-0.8-0.7c0-0.5,0.3-0.7,0.8-0.7c2.2,0,4.4,0,6.6,0
		c0.5,0,0.8,0.2,0.8,0.8c0,0.5-0.4,0.6-0.8,0.6C63.1,14.9,62.1,14.9,61,14.9z"/>
	<path class="st4" d="M49,14.8c1,0,2.1,0,3.1,0c0.4,0,0.8,0.1,0.8,0.6c0,0.5-0.3,0.7-0.7,0.7c-2.2,0-4.3,0-6.5,0
		c-0.4,0-0.7-0.2-0.7-0.6c0-0.5,0.3-0.7,0.7-0.7C46.9,14.8,47.9,14.8,49,14.8z"/>
	<path class="st3" d="M76.2,15c-0.8,0-1.7,0-2.5,0c-0.5,0-0.8-0.1-0.8-0.7c0-0.5,0.3-0.7,0.8-0.7c1.8,0,3.6,0,5.4,0
		c0.5,0,0.8,0.2,0.8,0.8c0,0.5-0.4,0.6-0.8,0.6C78,15,77.1,15,76.2,15z"/>
	<path class="st2" d="M98.4,21.2c-1.4,0-1.6,0.2-1.6,1.5c0,1.4,0.2,1.6,1.5,1.6c1.3,0,1.6-0.2,1.6-1.5
		C99.9,21.5,99.6,21.2,98.4,21.2z M98.9,22.8c0,0.5-0.2,0.6-0.6,0.6c-0.4,0-0.6-0.2-0.6-0.7c0-0.4,0.2-0.6,0.6-0.6
		C98.7,22.2,99,22.4,98.9,22.8z"/>
</g>
</svg>
